<svg width="16" height="16" viewBox="0 0 16 16" fill="none" xmlns="http://www.w3.org/2000/svg">
<path fill-rule="evenodd" clip-rule="evenodd" d="M9 12H11L8 15L5 12H7V7H9V12ZM12 4C12 3.56 11.09 1 7.5 1C5.08 1 3 2.92 3 5C1.02 5 0 6.52 0 8C0 9.53 1 11 3 11C3.44 11 5.66 11 6 11V9.7H3C1.38 9.7 1.3 8.28 1.3 8C1.3 7.83 1.35 6.3 3 6.3H4.3V5C4.3 3.61 5.86 2.3 7.5 2.3C10.05 2.3 10.63 3.85 10.7 4.1V5.3H12C12.81 5.3 14.7 5.52 14.7 7.5C14.7 9.59 12.45 9.7 12 9.7H10V11C10.38 11 11.98 11 12 11C14.08 11 16 9.84 16 7.5C16 5.06 14.08 4 12 4Z" fill="black"/>
</svg>
