<svg width="12" height="16" viewBox="0 0 12 16" fill="none" xmlns="http://www.w3.org/2000/svg">
<path fill-rule="evenodd" clip-rule="evenodd" d="M6.5 0C3.48 0 1 2.19 1 5C1 5.92 1.55 7.25 2 8C3.34 10.25 3.78 10.78 4 12V13H9V12C9.22 10.78 9.66 10.25 11 8C11.45 7.25 12 5.92 12 5C12 2.19 9.52 0 6.5 0ZM10.14 7.48C9.89 7.92 9.67 8.28 9.47 8.59C8.61 10 8.22 10.65 8.02 11.82C8 11.87 8 11.93 8 11.99H5C5 11.93 5 11.86 4.98 11.82C4.78 10.65 4.39 9.99 3.53 8.59C3.33 8.28 3.11 7.92 2.86 7.48C2.44 6.78 2 5.65 2 5C2 2.8 4.02 1 6.5 1C7.72 1 8.86 1.42 9.72 2.19C10.55 2.94 11 3.94 11 5C11 5.66 10.56 6.78 10.14 7.48ZM4 14H9C8.77 15.14 7.7 16 6.5 16C5.3 16 4.23 15.14 4 14Z" fill="black"/>
</svg>
