<svg width="16" height="16" viewBox="0 0 16 16" fill="none" xmlns="http://www.w3.org/2000/svg">
<path fill-rule="evenodd" clip-rule="evenodd" d="M7 9H5L8 6L11 9H9V14H7V9ZM12 5C12 4.56 11.09 2 7.5 2C5.08 2 3 3.92 3 6C1.02 6 0 7.52 0 9C0 10.53 1 12 3 12C3.44 12 5.66 12 6 12V10.7H3C1.38 10.7 1.3 9.28 1.3 9C1.3 8.83 1.35 7.3 3 7.3H4.3V6C4.3 4.61 5.86 3.3 7.5 3.3C10.05 3.3 10.63 4.85 10.7 5.1V6.3H12C12.81 6.3 14.7 6.52 14.7 8.5C14.7 10.59 12.45 10.7 12 10.7H10V12C10.38 12 11.98 12 12 12C14.08 12 16 10.84 16 8.5C16 6.06 14.08 5 12 5Z" fill="black"/>
</svg>
