<svg width="10" height="16" viewBox="0 0 10 16" fill="none" xmlns="http://www.w3.org/2000/svg">
<path fill-rule="evenodd" clip-rule="evenodd" d="M8 1C6.89 1 6 1.89 6 3C6 3.73 6.41 4.38 7 4.72V6L5 8L3 6V4.72C3.59 4.38 4 3.74 4 3C4 1.89 3.11 1 2 1C0.89 1 0 1.89 0 3C0 3.73 0.41 4.38 1 4.72V6.5L4 9.5V11.28C3.41 11.62 3 12.26 3 13C3 14.11 3.89 15 5 15C6.11 15 7 14.11 7 13C7 12.27 6.59 11.62 6 11.28V9.5L9 6.5V4.72C9.59 4.38 10 3.74 10 3C10 1.89 9.11 1 8 1ZM2 4.19999C1.34 4.19999 0.800003 3.64999 0.800003 2.99999C0.800003 2.34999 1.35 1.79999 2 1.79999C2.65 1.79999 3.2 2.34999 3.2 2.99999C3.2 3.64999 2.65 4.19999 2 4.19999ZM5 14.2C4.34 14.2 3.8 13.65 3.8 13C3.8 12.35 4.35 11.8 5 11.8C5.65 11.8 6.2 12.35 6.2 13C6.2 13.65 5.65 14.2 5 14.2ZM8 4.19999C7.34 4.19999 6.8 3.64999 6.8 2.99999C6.8 2.34999 7.35 1.79999 8 1.79999C8.65 1.79999 9.2 2.34999 9.2 2.99999C9.2 3.64999 8.65 4.19999 8 4.19999Z" fill="black"/>
</svg>
