<svg width="15" height="16" viewBox="0 0 15 16" fill="none" xmlns="http://www.w3.org/2000/svg">
<path fill-rule="evenodd" clip-rule="evenodd" d="M7.73 1.73C7.26 1.26 6.62 1 5.96 1H3.5C2.13 1 1 2.13 1 3.5V5.97C1 6.63 1.27 7.27 1.73 7.74L7.79 13.8C8.18 14.19 8.81 14.19 9.2 13.8L13.79 9.21C14.18 8.82 14.18 8.19 13.79 7.8L7.73 1.73ZM2.38 7.09C2.07 6.79 1.91 6.39 1.91 5.96V3.5C1.91 2.62 2.63 1.91 3.5 1.91H5.97C6.39 1.91 6.8 2.07 7.1 2.38L13.24 8.51L8.51 13.24L2.38 7.09ZM3.01 3H5.01V5H3V3H3.01Z" fill="black"/>
</svg>
