<svg width="12" height="16" viewBox="0 0 12 16" fill="none" xmlns="http://www.w3.org/2000/svg">
<path fill-rule="evenodd" clip-rule="evenodd" d="M8.5 1H1C0.447715 1 0 1.44772 0 2V14C0 14.5523 0.447715 15 1 15H11C11.5523 15 12 14.5523 12 14V4.5L8.5 1ZM1 2H5C4.88021 2.03683 4.77293 2.10604 4.69 2.2C4.57597 2.33544 4.49698 2.49685 4.46 2.67C4.34407 3.15094 4.3136 3.64851 4.37 4.14C4.4297 4.7489 4.54348 5.35128 4.71 5.94C4.39914 6.8502 4.02833 7.73882 3.6 8.6C3.1 9.6 2.8 10.26 2.69 10.44C2.4549 10.5278 2.22458 10.628 2 10.74C1.63798 10.9048 1.30127 11.1203 1 11.38V2ZM5.42 6.79999C5.65615 7.57227 6.05512 8.28495 6.59 8.88999C6.8651 9.12722 7.18463 9.30739 7.53 9.41999C6.89 9.50999 6.3 9.61999 5.72 9.74999C5.10224 9.89929 4.49707 10.0966 3.91 10.34C3.32293 10.5834 4.13 9.89999 4.52 9.08999C4.88539 8.34936 5.18974 7.58014 5.43 6.78999L5.42 6.79999ZM11 14H1.5C1.44352 14.0065 1.38648 14.0065 1.33 14C1.60061 13.9043 1.84897 13.7546 2.06 13.56C2.76701 12.8584 3.36678 12.0564 3.84 11.18C4.15 11.05 4.42 10.95 4.65 10.87L5.07 10.73C5.52 10.6 6.01 10.5 6.51 10.4C7.01 10.3 7.51 10.24 7.99 10.2C8.43726 10.4163 8.90231 10.5936 9.38 10.73C9.78289 10.8407 10.1943 10.9177 10.61 10.96C10.75 10.96 10.88 10.96 10.99 10.96V14H11ZM11 9.13999C10.7959 9.0269 10.5816 8.93316 10.36 8.85999C10.1138 8.8009 9.86279 8.76409 9.61 8.74999C9.1988 8.75303 8.78812 8.77974 8.38 8.82999C8.00736 8.68541 7.66737 8.46781 7.38 8.18999C6.78281 7.5184 6.34221 6.72258 6.09 5.85999C6.20098 5.1985 6.26779 4.53036 6.29 3.85999C6.30924 3.61036 6.30924 3.35962 6.29 3.10999C6.35921 2.80151 6.28575 2.47826 6.09 2.22999C5.92719 2.07232 5.70638 1.98906 5.48 1.99999H8L11 4.99999V9.12999V9.13999Z" fill="#010101"/>
</svg>
