<svg width="14" height="16" viewBox="0 0 14 16" fill="none" xmlns="http://www.w3.org/2000/svg">
<path fill-rule="evenodd" clip-rule="evenodd" d="M6 10H8V12H6V10ZM10 6.5C10 8.64 8 9 8 9H6C6 8.45 6.45 8 7 8H7.5C7.78 8 8 7.78 8 7.5V6.5C8 6.22 7.78 6 7.5 6H6.5C6.22 6 6 6.22 6 6.5V7H4C4 5.5 5.5 4 7 4C8.5 4 10 5 10 6.5ZM7 2.29999C10.14 2.29999 12.7 4.85999 12.7 7.99999C12.7 11.14 10.14 13.7 7 13.7C3.86 13.7 1.3 11.14 1.3 7.99999C1.3 4.85999 3.86 2.29999 7 2.29999ZM7 1C3.14 1 0 4.14 0 8C0 11.86 3.14 15 7 15C10.86 15 14 11.86 14 8C14 4.14 10.86 1 7 1Z" fill="black"/>
</svg>
