<svg width="16" height="16" viewBox="0 0 16 16" fill="none" xmlns="http://www.w3.org/2000/svg">
<path fill-rule="evenodd" clip-rule="evenodd" d="M15.7 13.3L11.89 9.47C12.59 8.49 13 7.3 13 6C13 2.69 10.31 0 7 0C3.69 0 1 2.69 1 6C1 9.31 3.69 12 7 12C8.3 12 9.48 11.59 10.47 10.89L14.3 14.7C14.49 14.9 14.75 15 15 15C15.25 15 15.52 14.91 15.7 14.7C16.09 14.31 16.09 13.68 15.7 13.29V13.3ZM7 10.7C4.41 10.7 2.3 8.58999 2.3 5.99999C2.3 3.40999 4.41 1.29999 7 1.29999C9.59 1.29999 11.7 3.40999 11.7 5.99999C11.7 8.58999 9.59 10.7 7 10.7Z" fill="black"/>
</svg>
