<svg width="16" height="16" viewBox="0 0 16 16" fill="none" xmlns="http://www.w3.org/2000/svg">
<path fill-rule="evenodd" clip-rule="evenodd" d="M4.48 7.26999C4.74 7.52999 5.76 8.59999 5.76 8.59999L6.32 8.01999L5.44 7.10999L7.13 5.30999C7.13 5.30999 6.37 4.56999 6.7 4.85999C7.02 3.66999 6.73 2.34999 5.83 1.41999C4.93 0.49999 3.66 0.19999 2.52 0.50999L4.45 2.50999L3.94 4.46999L2.05 4.98999L0.119999 2.98999C-0.190001 4.16999 0.0999989 5.47999 0.999999 6.39999C1.94 7.37999 3.29 7.65999 4.48 7.26999ZM10.92 9.20999L8.59 11.51L12.43 15.49C12.74 15.82 13.16 15.98 13.57 15.98C13.98 15.98 14.39 15.82 14.71 15.49C15.34 14.84 15.34 13.79 14.71 13.14L10.92 9.20999ZM16 2.53L13.55 0L6.33 7.46L7.21 8.37L2.9 12.83L1.91 13.36L0.519997 15.63L0.869997 16L3.07 14.56L3.58 13.54L7.9 9.08L8.78 9.99L16 2.53Z" fill="black"/>
</svg>
