<svg width="14" height="16" viewBox="0 0 14 16" fill="none" xmlns="http://www.w3.org/2000/svg">
<path fill-rule="evenodd" clip-rule="evenodd" d="M2 13H6V14H2V13ZM7 7H2V8H7V7ZM9 10V8L6 11L9 14V12H14V10H9ZM4.5 9H2V10H4.5V9ZM2 12H4.5V11H2V12ZM11 13H12V15C11.98 15.28 11.89 15.52 11.7 15.7C11.51 15.88 11.28 15.98 11 16H1C0.45 16 0 15.55 0 15V4C0 3.45 0.45 3 1 3H4C4 1.89 4.89 1 6 1C7.11 1 8 1.89 8 3H11C11.55 3 12 3.45 12 4V9H11V6H1V15H11V13ZM2 5H10C10 4.45 9.55 4 9 4H8C7.45 4 7 3.55 7 3C7 2.45 6.55 2 6 2C5.45 2 5 2.45 5 3C5 3.55 4.55 4 4 4H3C2.45 4 2 4.45 2 5Z" fill="black"/>
</svg>
