<svg width="16" height="16" viewBox="0 0 16 16" fill="none" xmlns="http://www.w3.org/2000/svg">
<path fill-rule="evenodd" clip-rule="evenodd" d="M12.17 3.82999C11.9 3.55999 11.7 3.27999 11.54 2.94999C11.38 2.63999 11.27 2.28999 11.2 1.92999C10.62 2.25999 10.04 2.62999 9.47 3.05999C8.89 3.49999 8.33 3.99999 7.78 4.53999C7.08 5.23999 6.45 6.34999 6 6.98999H3L0 9.99999H3L5 7.99999C4.66 8.76999 3.98 10.98 4 11L5 12C5.02 12.02 7.23 11.36 8 11L6 13V16L9 13V9.99999C9.64 9.54999 10.75 8.90999 11.45 8.21999C12 7.66999 12.5 7.08999 12.92 6.51999C13.36 5.93999 13.73 5.35999 14.06 4.79999C13.7 4.71999 13.36 4.60999 13.03 4.45999C12.72 4.29999 12.44 4.09999 12.17 3.82999ZM16 0C16 0 15.91 0.38 15.7 1.06C15.5 1.76 15.15 2.64 14.64 3.72C13.94 3.64 13.37 3.39 12.98 3C12.59 2.61 12.35 2.06 12.28 1.36C13.36 0.84 14.23 0.48 14.92 0.28C15.62 0.08 16 0 16 0Z" fill="black"/>
</svg>
