<svg width="14" height="16" viewBox="0 0 14 16" fill="none" xmlns="http://www.w3.org/2000/svg">
<path fill-rule="evenodd" clip-rule="evenodd" d="M12.83 2.17C12.08 1.42 11.14 1.03 10 1C8.87 1.03 7.92 1.42 7.17 2.17C6.42 2.92 6.04 3.86 6.01 5C6.01 5.3 6.04 5.59 6.1 5.89L0 12V13L1 14H3L4 13V12H5V11H6V10H8L9.09 8.89C9.39 8.97 9.68 9 10 9C11.14 8.97 12.08 8.58 12.83 7.83C13.58 7.08 13.97 6.14 14 5C13.97 3.86 13.58 2.92 12.83 2.17ZM11 5.38C10.23 5.38 9.62 4.77 9.62 4C9.62 3.23 10.23 2.62 11 2.62C11.77 2.62 12.38 3.23 12.38 4C12.38 4.77 11.77 5.38 11 5.38Z" fill="black"/>
</svg>
