<svg width="12" height="16" viewBox="0 0 12 16" fill="none" xmlns="http://www.w3.org/2000/svg">
<path fill-rule="evenodd" clip-rule="evenodd" d="M2 13C2 13.59 2 14 1.41 14H0.59C0 14 0 13.59 0 13C0 12.41 0 12 0.59 12H1.4C1.99 12 1.99 12.41 1.99 13H2ZM4.59 4H11.4C11.99 4 11.99 3.59 11.99 3C11.99 2.41 11.99 2 11.4 2H4.59C4 2 4 2.41 4 3C4 3.59 4 4 4.59 4ZM1.41 7H0.59C0 7 0 7.41 0 8C0 8.59 0 9 0.59 9H1.4C1.99 9 1.99 8.59 1.99 8C1.99 7.41 1.99 7 1.4 7H1.41ZM1.41 2H0.59C0 2 0 2.41 0 3C0 3.59 0 4 0.59 4H1.4C1.99 4 1.99 3.59 1.99 3C1.99 2.41 1.99 2 1.4 2H1.41ZM11.41 7H4.59C4 7 4 7.41 4 8C4 8.59 4 9 4.59 9H11.4C11.99 9 11.99 8.59 11.99 8C11.99 7.41 11.99 7 11.4 7H11.41ZM11.41 12H4.59C4 12 4 12.41 4 13C4 13.59 4 14 4.59 14H11.4C11.99 14 11.99 13.59 11.99 13C11.99 12.41 11.99 12 11.4 12H11.41Z" fill="black"/>
</svg>
