<svg width="13" height="16" viewBox="0 0 13 16" fill="none" xmlns="http://www.w3.org/2000/svg">
<path fill-rule="evenodd" clip-rule="evenodd" d="M13 13C13 13.59 13 14 12.41 14H5.59C5 14 5 13.59 5 13C5 12.41 5 12 5.59 12H12.4C12.99 12 12.99 12.41 12.99 13H13ZM5.59 4H12.4C12.99 4 12.99 3.59 12.99 3C12.99 2.41 12.99 2 12.4 2H5.59C5 2 5 2.41 5 3C5 3.59 5 4 5.59 4ZM12.4 7H5.59C5 7 5 7.41 5 8C5 8.59 5 9 5.59 9H12.4C12.99 9 12.99 8.59 12.99 8C12.99 7.41 12.99 7 12.4 7ZM3 1H2.28C1.98 1.19 1.7 1.25 1.25 1.34V2H2V4.14H1.16V5H4V4.14H3V1ZM3.25 9.13C3.08 9.13 2.8 9.16 2.59 9.19C3.12 8.63 3.73 7.94 3.73 7.3C3.71 6.52 3.17 6 2.37 6C1.78 6 1.4 6.2 0.99 6.64L1.57 7.22C1.76 7.03 1.95 6.84 2.21 6.84C2.49 6.84 2.69 7 2.69 7.36C2.69 7.89 1.92 8.56 0.99 9.42V10H3.99L3.9 9.12H3.24L3.25 9.13ZM3.17 12.91V12.88C3.61 12.69 3.81 12.41 3.81 12.02C3.81 11.32 3.25 10.91 2.37 10.91C1.89 10.91 1.48 11.1 1.09 11.43L1.64 12.07C1.89 11.87 2.08 11.76 2.33 11.76C2.6 11.76 2.75 11.89 2.75 12.12C2.75 12.39 2.55 12.56 1.89 12.56V13.31C2.72 13.31 2.87 13.48 2.87 13.78C2.87 14.03 2.64 14.16 2.29 14.16C2.01 14.16 1.73 14.02 1.48 13.78L1 14.44C1.3 14.8 1.77 15 2.41 15C3.24 15 3.94 14.59 3.94 13.84C3.94 13.34 3.63 13.03 3.17 12.9V12.91Z" fill="black"/>
</svg>
