<svg width="16" height="16" viewBox="0 0 16 16" fill="none" xmlns="http://www.w3.org/2000/svg">
<path fill-rule="evenodd" clip-rule="evenodd" d="M9 5H8V4H9V5ZM13 8H12V9H13V8ZM6 5H5V6H6V5ZM5 8H4V9H5V8ZM16 2.5L15.5 2L9 7C8.94 6.98 8 7 8 7C7.45 7 7 7.45 7 8V9C7 9.55 7.45 10 8 10H9C9.55 10 10 9.55 10 9V8.08L16 2.5ZM14.41 6.59C14.6 7.2 14.71 7.84 14.71 8.5C14.71 11.92 11.93 14.7 8.51 14.7C5.09 14.7 2.3 11.92 2.3 8.5C2.3 5.08 5.08 2.3 8.5 2.3C9.7 2.3 10.81 2.64 11.77 3.24L12.71 2.3C11.52 1.49 10.07 1 8.51 1C4.36 1 1 4.36 1 8.5C1 12.64 4.36 16 8.5 16C12.64 16 16 12.64 16 8.5C16 7.47 15.8 6.48 15.41 5.59L14.41 6.59Z" fill="black"/>
</svg>
