<svg width="16" height="16" viewBox="0 0 16 16" fill="none" xmlns="http://www.w3.org/2000/svg">
<path fill-rule="evenodd" clip-rule="evenodd" d="M10 1C9.83 1 9.64 1.05 9.48 1.14C8.04 2.02 4.5 4.58 3 5C1.62 5 0 5.67 0 7.5C0 9.33 1.63 10 3 10C3.3 10.08 3.64 10.23 4 10.41V15H6V11.55C7.34 12.41 8.69 13.38 9.48 13.86C9.64 13.95 9.82 14 10 14C10.52 14 11 13.58 11 13V2C11 1.42 10.52 1 10 1ZM10 13C9.62 12.77 9.11 12.42 8.5 12C8.34 11.89 8.17 11.78 8 11.66V3.31C8.16 3.2 8.31 3.11 8.47 3C9.08 2.59 9.63 2.23 10 2V13ZM12 7H16V8H12V7ZM12 9L16 11V12L12 10V9ZM16 3V4L12 6V5L16 3Z" fill="black"/>
</svg>
