<svg width="16" height="16" viewBox="0 0 16 16" fill="none" xmlns="http://www.w3.org/2000/svg">
<path fill-rule="evenodd" clip-rule="evenodd" d="M4 7H3V2H4V7ZM3 14H4V11H3V14ZM8 14H9V8H8V14ZM13 14H14V12H13V14ZM14 2H13V8H14V2ZM9 2H8V4H9V2ZM5 8H2C1.45 8 1 8.45 1 9C1 9.55 1.45 10 2 10H5C5.55 10 6 9.55 6 9C6 8.45 5.55 8 5 8ZM10 5H7C6.45 5 6 5.45 6 6C6 6.55 6.45 7 7 7H10C10.55 7 11 6.55 11 6C11 5.45 10.55 5 10 5ZM15 9H12C11.45 9 11 9.45 11 10C11 10.55 11.45 11 12 11H15C15.55 11 16 10.55 16 10C16 9.45 15.55 9 15 9Z" fill="black"/>
</svg>
