<svg width="14" height="16" viewBox="0 0 14 16" fill="none" xmlns="http://www.w3.org/2000/svg">
<path fill-rule="evenodd" clip-rule="evenodd" d="M8 9L11 15H10L8 11V16H7V10L5 15H4L6 10L8 9ZM7 0H6V1H7V0ZM5 3H4V4H5V3ZM2 1H1V2H2V1ZM0.630003 9C0.410003 9.16 0.350003 9.44001 0.470003 9.67L1.02 10.59C1.15 10.82 1.43 10.9 1.66 10.79L3.05 10.13L1.89 8.13L0.620003 8.99L0.630003 9ZM8.52 3.60999L2.72 7.55999L3.95 9.69999L10.28 6.66999L8.51 3.60999H8.52ZM12.74 4.88999L11.27 2.36999C11.13 2.11999 10.8 2.03999 10.55 2.19999L9.35001 3.02999L11.19 6.22999L12.52 5.58999C12.79 5.45999 12.88 5.14999 12.74 4.88999Z" fill="black"/>
</svg>
