<svg width="12" height="16" viewBox="0 0 12 16" fill="none" xmlns="http://www.w3.org/2000/svg">
<path fill-rule="evenodd" clip-rule="evenodd" d="M10.24 7.39999C10.43 8.67999 10.04 10.02 9.03998 11C7.56998 12.45 5.29998 12.63 3.62998 11.54L4.79998 10.4L0.499977 9.79999L1.09998 14L2.40998 12.74C4.76998 14.48 8.10998 14.31 10.25 12.2C11.49 10.97 12.06 9.34999 11.99 7.73999L10.24 7.39999ZM2.95998 5C4.42998 3.55 6.69998 3.37 8.36998 4.46L7.19998 5.6L11.5 6.2L10.9 2L9.58998 3.26C7.22998 1.52 3.88998 1.69 1.73998 3.8C0.499975 5.03 -0.0600248 6.65 0.00997518 8.26L1.75998 8.61C1.56998 7.33 1.95998 5.98 2.95998 5Z" fill="black"/>
</svg>
