<svg width="16" height="16" viewBox="0 0 16 16" fill="none" xmlns="http://www.w3.org/2000/svg">
<path fill-rule="evenodd" clip-rule="evenodd" d="M11 10H14V9H11V8L14.17 6.97L13.83 6.03L11 7V6C11 5.45 10.55 5 9.99999 5V4C9.99999 3.52 9.63999 3.12 9.16999 3.03L10.2 2H12V1H9.79999L7.79999 3H7.20999L5.19999 1H2.99999V2H4.79999L5.82999 3.03C5.35999 3.12 4.99999 3.51 4.99999 4V5C4.44999 5 3.99999 5.45 3.99999 6V7L1.16999 6.03L0.829987 6.97L3.99999 8V9H0.999987V10H3.99999V11L0.829987 12.03L1.16999 12.97L3.99999 12V13C3.99999 13.55 4.44999 14 4.99999 14H5.99999L6.99999 13V6H7.99999V13L8.99999 14H9.99999C10.55 14 11 13.55 11 13V12L13.83 12.97L14.17 12.03L11 11V10ZM8.99998 5H5.99998V4H8.99998V5Z" fill="black"/>
</svg>
