<svg width="45" height="16" viewBox="0 0 45 16" fill="none" xmlns="http://www.w3.org/2000/svg">
<path fill-rule="evenodd" clip-rule="evenodd" d="M18.53 12.0301H18.51C18.519 12.0301 18.525 12.0391 18.534 12.0411C18.535 12.0411 18.539 12.0401 18.54 12.0401L18.53 12.0301ZM18.534 12.0411C18.441 12.0421 18.207 12.0901 17.96 12.0901C17.18 12.0901 16.91 11.7301 16.91 11.2601V8.13009H18.5C18.59 8.13009 18.66 8.05009 18.66 7.94009V6.24009C18.66 6.15009 18.58 6.07009 18.5 6.07009H16.91V3.96009C16.91 3.88009 16.86 3.83009 16.77 3.83009H14.61C14.52 3.83009 14.47 3.88009 14.47 3.96009V6.13009C14.47 6.13009 13.38 6.40009 13.31 6.41009C13.23 6.43009 13.18 6.50009 13.18 6.58009V7.94009C13.18 8.05009 13.26 8.13009 13.35 8.13009H14.46V11.4101C14.46 13.8501 16.16 14.1001 17.32 14.1001C17.85 14.1001 18.49 13.9301 18.59 13.8801C18.65 13.8601 18.68 13.7901 18.68 13.7201V12.2201C18.68 12.1211 18.612 12.0551 18.534 12.0411ZM42.23 9.8401C42.23 8.0301 41.5 7.7901 40.73 7.8701C40.13 7.9101 39.65 8.2101 39.65 8.2101V11.7301C39.65 11.7301 40.14 12.0701 40.87 12.0901C41.9 12.1201 42.23 11.7501 42.23 9.8401ZM44.66 9.6801C44.66 13.1101 43.55 14.0901 41.61 14.0901C39.97 14.0901 39.09 13.2601 39.09 13.2601C39.09 13.2601 39.05 13.7201 39 13.7801C38.97 13.8401 38.92 13.8601 38.86 13.8601H37.38C37.28 13.8601 37.19 13.7801 37.19 13.6901L37.21 2.5801C37.21 2.4901 37.29 2.4101 37.38 2.4101H39.51C39.6 2.4101 39.68 2.4901 39.68 2.5801V6.3501C39.68 6.3501 40.5 5.8201 41.7 5.8201L41.69 5.8001C42.89 5.8001 44.66 6.25009 44.66 9.6801ZM35.94 6.0701H35.93H33.84C33.73 6.0701 33.67 6.1501 33.67 6.2601V11.7001C33.67 11.7001 33.12 12.0901 32.37 12.0901C31.62 12.0901 31.4 11.7501 31.4 11.0001V6.2501C31.4 6.1601 31.32 6.0801 31.23 6.0801H29.09C29 6.0801 28.92 6.1601 28.92 6.2501V11.3601C28.92 13.5601 30.15 14.1101 31.84 14.1101C33.23 14.1101 34.36 13.3401 34.36 13.3401C34.36 13.3401 34.41 13.7301 34.44 13.7901C34.46 13.8401 34.53 13.8801 34.6 13.8801H35.94C36.05 13.8801 36.11 13.8001 36.11 13.7101L36.13 6.2401C36.13 6.1501 36.05 6.0701 35.94 6.0701ZM12.24 6.0601H10.11C10.02 6.0601 9.94 6.1501 9.94 6.2601V13.6001C9.94 13.8001 10.07 13.8701 10.24 13.8701H12.16C12.36 13.8701 12.41 13.7801 12.41 13.6001V6.2401V6.2301C12.41 6.1401 12.33 6.0601 12.24 6.0601ZM11.19 2.6801C10.42 2.6801 9.81 3.2901 9.81 4.0601C9.81 4.8301 10.42 5.4401 11.19 5.4401C11.94 5.4401 12.55 4.8301 12.55 4.0601C12.55 3.2901 11.94 2.6801 11.19 2.6801ZM27.68 2.4301H25.57C25.48 2.4301 25.4 2.5101 25.4 2.6001V6.6901H22.09V2.6001C22.09 2.5101 22.01 2.4301 21.92 2.4301H19.79C19.7 2.4301 19.62 2.5101 19.62 2.6001V13.7101C19.62 13.8001 19.71 13.8801 19.79 13.8801H21.92C22.01 13.8801 22.09 13.8001 22.09 13.7101V8.9601H25.4L25.38 13.7101C25.38 13.8001 25.46 13.8801 25.55 13.8801H27.68C27.77 13.8801 27.85 13.8001 27.85 13.7101V2.6001C27.85 2.5101 27.77 2.4301 27.68 2.4301ZM8.81 7.3501V13.0901C8.81 13.1301 8.8 13.2001 8.75 13.2201C8.75 13.2201 7.5 14.1101 5.44 14.1101C2.95 14.1101 0 13.3301 0 8.1901C0 3.0501 2.58 1.9901 5.1 2.0001C7.28 2.0001 8.16 2.4901 8.3 2.5801C8.34 2.6301 8.36 2.6701 8.36 2.7201L7.94 4.5001C7.94 4.5901 7.85 4.7001 7.74 4.6701C7.38 4.5601 6.84 4.3401 5.57 4.3401C4.1 4.3401 2.52 4.7601 2.52 8.0701C2.52 11.3801 4.02 11.7701 5.1 11.7701C6.02 11.7701 6.35 11.6601 6.35 11.6601V9.3601H4.88C4.77 9.3601 4.69 9.2801 4.69 9.1901V7.3501C4.69 7.2601 4.77 7.1801 4.88 7.1801H8.62C8.73 7.1801 8.81 7.2601 8.81 7.3501Z" fill="black"/>
</svg>
