<svg width="14" height="16" viewBox="0 0 14 16" fill="none" xmlns="http://www.w3.org/2000/svg">
<path fill-rule="evenodd" clip-rule="evenodd" d="M6.58 15C7.83 15 9.1 14.69 10.14 14.06L9.72 13.12C8.88 13.64 7.83 13.95 6.69 13.95C3.46 13.95 1.05 11.87 1.05 8.23C1.05 3.86 4.28 1.05 7.63 1.05C11.08 1.05 12.85 3.24 12.85 6.25C12.85 8.64 11.51 10.11 10.35 10.11C9.3 10.11 8.99 9.38 9.3 7.92L10.03 4.17H8.98L8.87 4.89C8.46 4.26 7.93 4.06 7.31 4.06C5.12 4.06 3.65 6.45 3.65 8.44C3.65 10.11 4.59 11.05 5.95 11.05C6.79 11.05 7.62 10.52 8.25 9.8C8.36 10.74 9.19 11.25 10.23 11.25C11.9 11.25 14 9.58 14 6.25C14 2.61 11.59 0 7.83 0C3.66 0 0 3.33 0 8.33C0 12.71 2.92 15 6.58 15ZM6.27 9.99998C5.54 9.99998 4.91 9.47999 4.91 8.32999C4.91 6.87999 5.85 5.10999 7.32 5.10999C7.84 5.10999 8.16 5.30999 8.57 5.93999L8.05 8.95999C7.42 9.68999 6.8 10.01 6.27 10.01V9.99998Z" fill="black"/>
</svg>
