<svg width="16" height="16" viewBox="0 0 16 16" fill="none" xmlns="http://www.w3.org/2000/svg">
<path fill-rule="evenodd" clip-rule="evenodd" d="M12 8.02002C12 9.11002 11.55 10.11 10.83 10.85L10.16 10.18C10.71 9.62002 11.05 8.87002 11.05 8.02002C11.05 7.17002 10.71 6.41002 10.16 5.86002L10.83 5.19002C11.55 5.91002 12 6.91002 12 8.02002ZM7.72 2.28001L4 6.00001H2C1.45 6.00001 1 6.45001 1 7.00001V9.00001C1 9.55001 1.45 10 2 10H4L7.72 13.72C8.19 14.19 9 13.86 9 13.19V2.81001C9 2.14001 8.19 1.81001 7.72 2.28001ZM13.66 2.36001L12.99 3.03001C14.27 4.31001 15.05 6.06001 15.05 8.01001C15.05 9.95001 14.27 11.71 12.99 12.99L13.66 13.66C15.11 12.21 16 10.21 16 8.00001C16 5.78001 15.11 3.78001 13.66 2.34001V2.36001ZM12.25 3.77L11.56 4.44C12.48 5.36 13.04 6.63 13.04 8.02C13.04 9.41 12.48 10.68 11.56 11.58L12.25 12.25C13.33 11.17 14 9.67 14 8.02C14 6.37 13.33 4.86 12.25 3.77Z" fill="black"/>
</svg>
