<svg width="16" height="16" viewBox="0 0 16 16" fill="none" xmlns="http://www.w3.org/2000/svg">
<path fill-rule="evenodd" clip-rule="evenodd" d="M1 4.27V11.74C1 12.19 1.3 12.58 1.75 12.71L8.25 14.44C8.41 14.49 8.59 14.49 8.75 14.44L15.25 12.71C15.7 12.58 16 12.19 16 11.74V4.27C16 3.82 15.7 3.43 15.25 3.3L8.75 1.56C8.59 1.53 8.41 1.53 8.25 1.56L1.75 3.3C1.3 3.43 1 3.82 1 4.27ZM8 13.36L2 11.77V4.99999L8 6.60999V13.36ZM2 4.00001L4.5 3.33001L11 5.06001L8.5 5.73001L2 4.00001ZM15 11.77L9 13.36V6.60999L11 6.05999V8.49999L13 7.96999V5.52999L15 4.99999V11.77ZM13 4.53001L6.5 2.80001L8.5 2.27001L15 4.00001L13 4.53001Z" fill="black"/>
</svg>
