<svg width="14" height="16" viewBox="0 0 14 16" fill="none" xmlns="http://www.w3.org/2000/svg">
<path fill-rule="evenodd" clip-rule="evenodd" d="M14 9L12.87 1.86C12.79 1.38 12.37 1 11.87 1H2.13C1.63 1 1.21 1.38 1.13 1.86L0 9V14C0 14.55 0.45 15 1 15H13C13.55 15 14 14.55 14 14V9ZM10.72 9.55L10.28 10.44C10.11 10.78 9.76 11 9.37 11H4.61C4.23 11 3.89 10.78 3.72 10.45L3.28 9.54001C3.11 9.21001 2.76 8.99001 2.39 8.99001H1L2 1.99001H12L13 8.99001H11.62C11.23 8.99001 10.89 9.21001 10.71 9.54001L10.72 9.55Z" fill="black"/>
</svg>
