<svg width="12" height="16" viewBox="0 0 12 16" fill="none" xmlns="http://www.w3.org/2000/svg">
<path fill-rule="evenodd" clip-rule="evenodd" d="M6 0C2.69 0 0 2.69 0 6V7C0 7.55 0.45 8 1 8V13C1 14.1 3.24 15 6 15C8.76 15 11 14.1 11 13V8C11.55 8 12 7.55 12 7V6C12 2.69 9.31 0 6 0ZM9 10V10.5C9 10.78 8.78 11 8.5 11C8.22 11 8 10.78 8 10.5V10C8 9.72001 7.78 9.50001 7.5 9.50001C7.22 9.50001 7 9.72001 7 10V12.5C7 12.78 6.78 13 6.5 13C6.22 13 6 12.78 6 12.5V10.5C6 10.22 5.78 10 5.5 10C5.22 10 5 10.22 5 10.5V11C5 11.55 4.55 12 4 12C3.45 12 3 11.55 3 11V10C2.45 10 2 9.55001 2 9.00001V7.20001C2.91 7.69001 4.36 8.00001 6 8.00001C7.64 8.00001 9.09 7.69001 10 7.20001V9.00001C10 9.55001 9.55 10 9 10ZM6 7C4.32 7 2.88 6.59 2.29 6C2.88 5.41 4.32 5 6 5C7.68 5 9.12 5.41 9.71 6C9.12 6.59 7.68 7 6 7ZM6 4C3.24 4 1 4.89 1 6C1 3.24 3.24 1 6 1C8.76 1 11 3.24 11 6C11 4.9 8.76 4 6 4Z" fill="black"/>
</svg>
