<svg width="17" height="16" viewBox="0 0 17 16" fill="none" xmlns="http://www.w3.org/2000/svg">
<path fill-rule="evenodd" clip-rule="evenodd" d="M14 14C13.95 14.69 12.73 15 12 15H5.67L4 14V7.99999C5.36 7.99999 6.11 7.24999 7.13 6.11999C8.36 4.75999 8.27 3.55999 8.01 1.98999C7.93 1.48999 8.51 0.98999 9.01 0.98999C9.84 0.98999 11.01 3.71999 11.01 4.98999L10.99 6.01999C10.99 6.70999 11.32 6.98999 12.01 6.98999H14.01C14.64 6.98999 14.99 7.34999 15.01 7.98999L14.01 13.99L14 14ZM14 6H12H11.98L12 5.02C12 3.72 10.83 0 9 0C8.42 0 7.83 0.3 7.44 0.77C7.08 1.18 6.94 1.68 7.02 2.18C7.27 3.66 7.3 4.46 6.39 5.46C5.39 6.55 4.91 7.01 4 7.01H2C0.94 7 0 7.94 0 9V13C0 14.06 0.94 15 2 15H3.72L5.16 15.86C5.32 15.95 5.49 16 5.68 16H12.01C13.14 16 14.85 15.5 15.01 14.12L15.99 8.17C16.01 8.09 16.01 8.03 16.01 7.97C15.98 6.8 15.17 6 14.01 6H14Z" fill="black"/>
</svg>
