<svg width="14" height="16" viewBox="0 0 14 16" fill="none" xmlns="http://www.w3.org/2000/svg">
<path fill-rule="evenodd" clip-rule="evenodd" d="M7 4C6.17 4 5.5 3.33 5.5 2.5C5.5 1.67 6.17 1 7 1C7.83 1 8.5 1.67 8.5 2.5C8.5 3.33 7.83 4 7 4ZM14 10C14 11.11 13.11 12 12 12H11C9.89 12 9 11.11 9 10L11 6H10C9.45 6 9 5.55 9 5H8V13C8.42 13 9 13.45 9 14H10C10.42 14 11 14.45 11 15H3C3 14.45 3.58 14 4 14H5C5 13.45 5.58 13 6 13H6.03L6 5H5C5 5.55 4.55 6 4 6H3L5 10C5 11.11 4.11 12 3 12H2C0.89 12 0 11.11 0 10L2 6H1V5H4C4 4.45 4.45 4 5 4H9C9.55 4 10 4.45 10 5H13V6H12L14 10ZM2.5 7L1 10H4L2.5 7ZM13 10L11.5 7L10 10H13Z" fill="black"/>
</svg>
