<svg width="16" height="16" viewBox="0 0 16 16" fill="none" xmlns="http://www.w3.org/2000/svg">
<path fill-rule="evenodd" clip-rule="evenodd" d="M14.3797 14.59L10.9997 7V3H11.9997V2H2.99972V3H3.99972V7L0.629719 14.59C0.329719 15.25 0.819719 16 1.53972 16H13.4797C14.1997 16 14.6797 15.25 14.3897 14.59H14.3797ZM3.74973 10L4.99973 7V3H9.99973V7L11.2497 10H3.74973ZM7.99973 8H8.99973V9H7.99973V8ZM6.99973 7H5.99973V6H6.99973V7ZM6.99973 4H7.99973V5H6.99973V4ZM6.99973 1H5.99973V0H6.99973V1Z" fill="black"/>
</svg>
