<svg width="16" height="16" viewBox="0 0 16 16" fill="none" xmlns="http://www.w3.org/2000/svg">
<path fill-rule="evenodd" clip-rule="evenodd" d="M7.82999 9.19001L3.99999 8.00001C-8.45455e-06 1.00136e-05 3.99999 9.50001 3.99999 10.5C3.99999 11.5 5.79999 12 7.99999 12C10.2 12 12 11.5 12 10.5C12 9.50001 12 8.00001 12 8.00001L8.16999 9.19001C8.05999 9.22001 7.93999 9.22001 7.80999 9.19001H7.82999ZM8.10999 2.8C8.04999 2.78 7.96999 2.78 7.90999 2.8L0.269991 5.18C-0.0600085 5.29 -0.0600085 5.74 0.269991 5.85L1.99999 6.4V8.17C1.69999 8.34 1.49999 8.67 1.49999 9.03C1.49999 9.22 1.54999 9.39 1.63999 9.53C1.55999 9.67 1.49999 9.84 1.49999 10.03V12.61C1.49999 13.16 3.49999 13.16 3.49999 12.61V10.03C3.49999 9.84 3.44999 9.67 3.35999 9.53C3.43999 9.39 3.49999 9.22 3.49999 9.03C3.49999 8.65 3.29999 8.34 2.99999 8.17V6.72L7.88999 8.25C7.94999 8.27 8.02999 8.27 8.08999 8.25L15.73 5.87C16.06 5.76 16.06 5.31 15.73 5.2L8.09999 2.81L8.10999 2.8ZM8.01999 6C7.46999 6 7.01999 5.78 7.01999 5.5C7.01999 5.22 7.46999 5 8.01999 5C8.56999 5 9.01999 5.22 9.01999 5.5C9.01999 5.78 8.56999 6 8.01999 6Z" fill="black"/>
</svg>
