<svg width="16" height="16" viewBox="0 0 16 16" fill="none" xmlns="http://www.w3.org/2000/svg">
<path fill-rule="evenodd" clip-rule="evenodd" d="M15.41 9H7.59C7 9 7 8.59 7 8C7 7.41 7 7 7.59 7H15.4C15.99 7 15.99 7.41 15.99 8C15.99 8.59 15.99 9 15.4 9H15.41ZM9.59 4C9 4 9 3.59 9 3C9 2.41 9 2 9.59 2H15.4C15.99 2 15.99 2.41 15.99 3C15.99 3.59 15.99 4 15.4 4H9.59ZM0 3.91L1.41 2.61L3 4.2L7.09 0L8.5 1.41L3 6.91L0 3.91ZM7.59 12H15.4C15.99 12 15.99 12.41 15.99 13C15.99 13.59 15.99 14 15.4 14H7.59C7 14 7 13.59 7 13C7 12.41 7 12 7.59 12Z" fill="black"/>
</svg>
