<svg width="16" height="16" viewBox="0 0 16 16" fill="none" xmlns="http://www.w3.org/2000/svg">
<path fill-rule="evenodd" clip-rule="evenodd" d="M8 0C3.58 0 0 3.58 0 8C0 12.42 3.58 16 8 16C12.42 16 16 12.42 16 8C16 3.58 12.42 0 8 0ZM12.81 12.81C12.18 13.44 11.45 13.92 10.64 14.26C9.81 14.62 8.92 14.79 8 14.79C7.08 14.79 6.19 14.62 5.36 14.26C4.55 13.92 3.81 13.43 3.19 12.81C2.57 12.19 2.08 11.45 1.74 10.64C1.38 9.80999 1.21 8.91999 1.21 7.99999C1.21 7.07999 1.38 6.18999 1.74 5.35999C2.08 4.54999 2.57 3.80999 3.19 3.18999C3.81 2.56999 4.55 2.07999 5.36 1.73999C6.19 1.37999 7.08 1.20999 8 1.20999C8.92 1.20999 9.81 1.37999 10.64 1.73999C11.45 2.07999 12.19 2.56999 12.81 3.18999C13.43 3.80999 13.92 4.54999 14.26 5.35999C14.62 6.18999 14.79 7.07999 14.79 7.99999C14.79 8.91999 14.62 9.80999 14.26 10.64C13.92 11.45 13.43 12.19 12.81 12.81ZM4 6.79999V6.20999C4 5.54999 4.53 5.01999 5.2 5.01999H5.79C6.45 5.01999 6.98 5.54999 6.98 6.20999V6.79999C6.98 7.46999 6.45 7.99999 5.79 7.99999H5.2C4.53 7.99999 4 7.46999 4 6.79999ZM9 6.79999V6.20999C9 5.54999 9.53 5.01999 10.2 5.01999H10.79C11.45 5.01999 11.98 5.54999 11.98 6.20999V6.79999C11.98 7.46999 11.45 7.99999 10.79 7.99999H10.2C9.53 7.99999 9 7.46999 9 6.79999ZM13 10C12.28 11.88 10.09 13 8 13C5.91 13 3.72 11.87 3 10C2.86 9.61 3.23 9 3.66 9H12.25C12.66 9 13.14 9.61 13 10Z" fill="black"/>
</svg>
