<svg width="17" height="17" viewBox="0 0 17 17" fill="none" xmlns="http://www.w3.org/2000/svg">
<path fill-rule="evenodd" clip-rule="evenodd" d="M16.67 8.06001L15.59 6.72001C15.42 6.50001 15.31 6.24001 15.28 5.95001L15.09 4.25001C15.01 3.55001 14.46 3.00001 13.76 2.92001L12.06 2.73001C11.76 2.70001 11.5 2.57001 11.28 2.40001L9.93999 1.32001C9.38999 0.880005 8.60999 0.880005 8.05999 1.32001L6.71999 2.40001C6.49999 2.57001 6.23999 2.68001 5.94999 2.71001L4.24999 2.90001C3.54999 2.98001 2.99999 3.53001 2.91999 4.23001L2.72999 5.93001C2.69999 6.23001 2.56999 6.49001 2.39999 6.71001L1.31999 8.05001C0.87999 8.60001 0.87999 9.38 1.31999 9.93001L2.39999 11.27C2.56999 11.49 2.67999 11.75 2.70999 12.04L2.89999 13.74C2.97999 14.44 3.52999 14.99 4.22999 15.07L5.92999 15.26C6.22999 15.29 6.48999 15.42 6.70999 15.59L8.04999 16.67C8.59999 17.11 9.37999 17.11 9.92999 16.67L11.27 15.59C11.49 15.42 11.75 15.31 12.04 15.28L13.74 15.09C14.44 15.01 14.99 14.46 15.07 13.76L15.26 12.06C15.29 11.76 15.42 11.5 15.59 11.28L16.67 9.94001C17.11 9.39001 17.11 8.61001 16.67 8.06001ZM7.49999 13L3.99999 9.50002L5.49999 8.00002L7.49999 10L12.5 5.00002L14 6.55001L7.49999 13Z" fill="black"/>
</svg>
