<svg width="3" height="16" viewBox="0 0 3 16" fill="none" xmlns="http://www.w3.org/2000/svg">
<path fill-rule="evenodd" clip-rule="evenodd" d="M0 2.5C0 3.32843 0.67157 4 1.5 4C2.32843 4 3 3.32843 3 2.5C3 1.67157 2.32843 1 1.5 1C0.67157 1 0 1.67157 0 2.5ZM0 7.5C0 8.32843 0.67157 9 1.5 9C2.32843 9 3 8.32843 3 7.5C3 6.67157 2.32843 6 1.5 6C0.67157 6 0 6.67157 0 7.5ZM1.5 14C0.67157 14 0 13.3284 0 12.5C0 11.6716 0.67157 11 1.5 11C2.32843 11 3 11.6716 3 12.5C3 13.3284 2.32843 14 1.5 14Z" fill="black"/>
</svg>
