<svg width="17" height="17" viewBox="0 0 17 17" fill="none" xmlns="http://www.w3.org/2000/svg">
<path fill-rule="evenodd" clip-rule="evenodd" d="M16.67 8.06001L15.59 6.72001C15.42 6.50001 15.31 6.24001 15.28 5.95001L15.09 4.25001C15.01 3.55001 14.46 3.00001 13.76 2.92001L12.06 2.73001C11.76 2.70001 11.5 2.57001 11.28 2.40001L9.93999 1.32001C9.38999 0.880005 8.60999 0.880005 8.05999 1.32001L6.71999 2.40001C6.49999 2.57001 6.23999 2.68001 5.94999 2.71001L4.24999 2.90001C3.54999 2.98001 2.99999 3.53001 2.91999 4.23001L2.72999 5.93001C2.69999 6.23001 2.56999 6.49001 2.39999 6.71001L1.31999 8.05001C0.87999 8.60001 0.87999 9.38 1.31999 9.93001L2.39999 11.27C2.56999 11.49 2.67999 11.75 2.70999 12.04L2.89999 13.74C2.97999 14.44 3.52999 14.99 4.22999 15.07L5.92999 15.26C6.22999 15.29 6.48999 15.42 6.70999 15.59L8.04999 16.67C8.59999 17.11 9.37999 17.11 9.92999 16.67L11.27 15.59C11.49 15.42 11.75 15.31 12.04 15.28L13.74 15.09C14.44 15.01 14.99 14.46 15.07 13.76L15.26 12.06C15.29 11.76 15.42 11.5 15.59 11.28L16.67 9.94001C17.11 9.39001 17.11 8.61001 16.67 8.06001ZM9.99999 12.5C9.99999 12.78 9.77999 13 9.49999 13H8.49999C8.22999 13 7.99999 12.78 7.99999 12.5V11.5C7.99999 11.22 8.22999 11 8.49999 11H9.49999C9.77999 11 9.99999 11.22 9.99999 11.5V12.5ZM11.56 7.61001C11.5 7.78001 11.39 7.94002 11.26 8.08002C11.13 8.24002 11.12 8.27002 10.93 8.46002C10.77 8.63002 10.62 8.76002 10.41 8.91002C10.3 9.00002 10.21 9.10001 10.13 9.18001C10.05 9.26002 9.98999 9.35001 9.93999 9.45002C9.88999 9.55002 9.85999 9.64002 9.82999 9.75002C9.79999 9.86001 9.79999 9.88002 9.79999 10H8.12999C8.12999 9.78001 8.12999 9.69001 8.15999 9.52001C8.18999 9.33002 8.23999 9.16002 8.29999 9.00002C8.35999 8.86002 8.43999 8.72002 8.54999 8.58002C8.65999 8.45002 8.77999 8.33002 8.95999 8.20002C9.22999 8.01002 9.31999 7.90002 9.43999 7.68002C9.55999 7.46002 9.63999 7.30001 9.63999 7.09001C9.63999 6.82001 9.57999 6.64002 9.43999 6.51002C9.30999 6.38002 9.12999 6.32002 8.85999 6.32002C8.76999 6.32002 8.66999 6.34002 8.55999 6.37002C8.44999 6.40002 8.38999 6.46002 8.30999 6.53001C8.22999 6.60002 8.16999 6.64002 8.10999 6.73002C8.04999 6.82002 8.01999 6.87002 8.01999 7.01002H6.01999C6.01999 6.63002 6.14999 6.45002 6.28999 6.18002C6.44999 5.91002 6.64999 5.68002 6.89999 5.51002C7.14999 5.34002 7.44999 5.21002 7.77999 5.13002C8.10999 5.05002 8.47999 5.00002 8.86999 5.00002C9.30999 5.00002 9.69999 5.05002 10.04 5.13002C10.38 5.22002 10.67 5.35002 10.92 5.52002C11.15 5.69002 11.33 5.90002 11.47 6.15002C11.6 6.40002 11.66 6.70002 11.66 7.03001C11.66 7.25002 11.66 7.45002 11.58 7.62002L11.56 7.61001Z" fill="black"/>
</svg>
