<svg width="13" height="16" viewBox="0 0 13 16" fill="none" xmlns="http://www.w3.org/2000/svg">
<path fill-rule="evenodd" clip-rule="evenodd" d="M1.5 9C2.32843 9 3 8.32843 3 7.5C3 6.67157 2.32843 6 1.5 6C0.67157 6 0 6.67157 0 7.5C0 8.32843 0.67157 9 1.5 9ZM6.5 9C7.32843 9 8 8.32843 8 7.5C8 6.67157 7.32843 6 6.5 6C5.67157 6 5 6.67157 5 7.5C5 8.32843 5.67157 9 6.5 9ZM13 7.5C13 8.32843 12.3284 9 11.5 9C10.6716 9 10 8.32843 10 7.5C10 6.67157 10.6716 6 11.5 6C12.3284 6 13 6.67157 13 7.5Z" fill="black"/>
</svg>
