<svg xmlns="http://www.w3.org/2000/svg" viewBox="0 0 24 24" enable-background="new 0 0 24 24"><path d="M22 12.248c0 4.417-2.863 8.162-6.833 9.487-.507.098-.688-.213-.688-.481 0-.328.012-1.406.012-2.743 0-.933-.32-1.543-.679-1.852 2.228-.248 4.566-1.093 4.566-4.935 0-1.092-.387-1.984-1.028-2.683.103-.253.446-1.27-.1-2.646 0 0-.838-.269-2.747 1.025-.799-.222-1.654-.333-2.504-.337-.85.004-1.706.115-2.504.337-1.91-1.294-2.75-1.025-2.75-1.025-.542 1.376-.199 2.393-.096 2.646-.64.699-1.029 1.591-1.029 2.683 0 3.832 2.334 4.69 4.555 4.942-.286.25-.544.691-.635 1.337-.57.256-2.018.697-2.91-.831 0 0-.528-.96-1.532-1.031 0 0-.977-.012-.069.608 0 0 .656.308 1.11 1.463 0 0 .587 1.945 3.369 1.34l.014 1.701c0 .265-.182.574-.683.482-3.974-1.322-6.839-5.07-6.839-9.487 0-5.524 4.478-10.001 9.999-10.001 5.523 0 10.001 4.477 10.001 10.001z"/></svg>