<svg xmlns="http://www.w3.org/2000/svg" viewBox="0 0 24 24" enable-background="new 0 0 24 24"><path d="M13.892 14.763c-.338.34-.052.959-.052.959l2.541 4.243s.417.559.779.559c.363 0 .722-.298.722-.298l2.009-2.871s.202-.362.207-.68c.007-.451-.673-.575-.673-.575l-4.756-1.527c-.001.001-.467-.123-.777.19zm-.241-2.138c.243.413.915.292.915.292l4.745-1.387s.647-.263.739-.614c.091-.351-.107-.774-.107-.774l-2.268-2.671s-.197-.338-.604-.372c-.45-.038-.726.506-.726.506l-2.681 4.219c0 .001-.237.421-.013.801zm-2.242-1.645c.559-.138.647-.949.647-.949l-.038-6.755s-.084-.833-.459-1.059c-.587-.356-.761-.17-.93-.145l-3.938 1.462s-.386.128-.587.45c-.287.456.292 1.124.292 1.124l4.095 5.581c-.001 0 .403.418.918.291zm-.973 2.734c.014-.521-.626-.834-.626-.834l-4.234-2.139s-.627-.259-.932-.078c-.233.138-.44.387-.46.608l-.276 3.395s-.041.588.111.856c.216.38.926.115.926.115l4.943-1.093c.193-.13.53-.141.548-.83zm1.23 1.832c-.424-.218-.932.233-.932.233l-3.31 3.644s-.413.557-.308.899c.099.321.263.48.495.592l3.324 1.049s.403.084.708-.005c.433-.126.353-.804.353-.804l.075-4.934c0 .002-.017-.473-.405-.674z"/></svg>