<svg xmlns="http://www.w3.org/2000/svg" viewBox="0 0 24 24" enable-background="new 0 0 24 24"><path d="M21.638 12.948l-8.691 8.691c-.504.5-1.319.5-1.821 0l-8.733-8.731c-.503-.503-.503-1.32 0-1.823l5.987-5.987 2.268 2.268c-.232.557-.123 1.223.33 1.675.148.15.106.081.289.156v5.536c-.166.067-.252.18-.377.309-.329.292-.54.714-.54 1.19 0 .883.717 1.599 1.599 1.599.114 0 .226-.012.333-.035.315-.046.619-.186.862-.428.533-.533.588-1.36.17-1.959-.141-.232-.338-.425-.574-.559v-5.379l2.067 2.066c-.229.555-.118 1.217.333 1.667.598.599 1.569.599 2.17 0 .598-.598.598-1.569 0-2.167-.431-.429-1.049-.548-1.585-.364l-2.217-2.217c.187-.536.067-1.155-.363-1.584-.425-.426-1.038-.547-1.572-.366l-2.301-2.3 1.813-1.813c.503-.503 1.32-.503 1.821 0l8.733 8.731c.502.504.502 1.32-.001 1.824z"/></svg>