<svg xmlns="http://www.w3.org/2000/svg" viewBox="0 0 24 24" enable-background="new 0 0 24 24"><path d="M12.074 14.055c1.174 0 2.131-.955 2.131-2.13 0-.464-.152-.892-.403-1.242-.387-.537-1.016-.888-1.727-.888-.711 0-1.34.351-1.728.888-.252.35-.402.778-.403 1.242 0 1.175.956 2.13 2.13 2.13zm3.31-1.932c0 1.824-1.485 3.191-3.31 3.191s-3.309-1.406-3.309-3.231c0-.438.088-1.083.244-1.083h-2.009v4.638c0 .64.722 1.362 1.362 1.362h7.424c.639 0 1.214-.722 1.214-1.362v-4.638h-1.862c.158 0 .246.684.246 1.123zm5.616-10.123h-18c-.552 0-1 .448-1 1v18c0 .552.448 1 1 1h18c.552 0 1-.448 1-1v-18c0-.552-.448-1-1-1zm-3 8.684v4.954c0 1.291-.924 2.362-2.213 2.362h-7.425c-1.29 0-2.362-1.071-2.362-2.362v-7.424c0-1.29 1.072-2.214 2.362-2.214h7.424c1.29 0 2.214.924 2.214 2.214v2.47z"/><rect x="15" y="7.5" width="1.5" height="1.5"/></svg>