<svg xmlns="http://www.w3.org/2000/svg" viewBox="0 0 24 24" enable-background="new 0 0 24 24"><path d="M21 12c0 4.971-4.029 9-9 9-.928 0-1.823-.141-2.665-.401.367-.598.915-1.578 1.119-2.359l.561-2.139c.293.56 1.151 1.034 2.063 1.034 2.714 0 4.67-2.496 4.67-5.598 0-2.973-2.426-5.198-5.548-5.198-3.884 0-5.947 2.607-5.947 5.446 0 1.32.703 2.963 1.827 3.487.171.079.262.044.301-.12l.25-1.021c.022-.091.011-.169-.062-.258-.372-.451-.67-1.28-.67-2.054 0-1.985 1.503-3.906 4.064-3.906 2.211 0 3.759 1.507 3.759 3.661 0 2.435-1.23 4.121-2.829 4.121-.883 0-1.545-.731-1.333-1.627.254-1.07.745-2.224.745-2.996 0-.691-.371-1.268-1.139-1.268-.903 0-1.629.934-1.629 2.186 0 .797.269 1.336.269 1.336s-.892 3.771-1.055 4.474c-.181.778-.11 1.87-.031 2.582-3.348-1.313-5.72-4.569-5.72-8.382 0-4.971 4.029-9 9-9s9 4.029 9 9z"/></svg>