<svg xmlns="http://www.w3.org/2000/svg" viewBox="0 0 24 24" enable-background="new 0 0 24 24"><path d="M17.358 18.836c.04.181.064.368.064.561 0 1.437-1.166 2.603-2.605 2.603-1.437 0-2.603-1.166-2.603-2.603 0-1.438 1.166-2.603 2.603-2.603.721 0 1.374.293 1.846.767 1.636-1.309 2.694-3.308 2.694-5.561 0-1.622-.564-3.102-1.479-4.302.387-.319.709-.705.954-1.144 1.219 1.48 1.953 3.378 1.953 5.446.001 2.799-1.353 5.272-3.427 6.836zm-2.034-16.836c-1.034 0-1.921.609-2.341 1.484-.255-.024-.508-.055-.769-.055-3.171 0-5.933 1.727-7.416 4.288l.02-.002c.523 0 1.02.107 1.48.29 1.285-1.897 3.457-3.147 5.917-3.147.183 0 .359.024.536.04.148 1.297 1.237 2.31 2.574 2.31 1.438 0 2.605-1.166 2.605-2.603-.001-1.439-1.168-2.605-2.606-2.605zm-4.376 18.463c-.095-.342-.162-.695-.162-1.066 0-.155.021-.304.039-.453-2.516-.504-4.555-2.307-5.366-4.684 1.126-.287 1.963-1.3 1.963-2.514 0-1.438-1.166-2.603-2.605-2.603-1.437 0-2.603 1.165-2.603 2.603 0 1.136.732 2.091 1.748 2.447.868 3.262 3.587 5.766 6.986 6.27z"/></svg>