<svg xmlns="http://www.w3.org/2000/svg" viewBox="0 0 24 24" enable-background="new 0 0 24 24"><path d="M22.008 8.683l-.015-.072-.013-.042-.022-.063-.019-.042-.029-.057-.024-.04-.036-.052-.029-.037-.043-.047-.034-.034-.049-.041-.039-.029-.014-.011-9.141-6.094c-.289-.193-.665-.193-.953 0l-9.143 6.095-.014.011-.039.03-.049.04-.034.034-.043.047-.029.037-.036.052-.024.04-.029.057-.02.042-.023.062-.013.042-.015.072-.007.037-.008.113v6.094l.008.112.007.037.015.072.013.042.022.063.019.042.029.057.024.039.036.052.029.037.043.047.034.033.049.041.039.029.014.011 9.141 6.094c.144.096.31.145.477.145.166 0 .332-.048.477-.145l9.141-6.094.014-.011.039-.029.049-.041.034-.033.043-.047.029-.037.036-.052.024-.039.029-.057.019-.042.022-.063.013-.042.015-.072.007-.037.008-.112v-6.094l-.008-.112-.004-.038zm-9.986 5.229l-3.04-2.033 3.04-2.033 3.04 2.033-3.04 2.033zm-.859-5.559l-3.726 2.492-3.008-2.011 6.734-4.489v4.008zm-5.272 3.526l-2.15 1.438v-2.876l2.15 1.438zm1.546 1.034l3.726 2.492v4.009l-6.734-4.489 3.008-2.012zm5.445 2.492l3.726-2.492 3.008 2.012-6.734 4.489v-4.009zm5.272-3.526l2.15-1.438v2.876l-2.15-1.438zm-1.546-1.034l-3.726-2.492v-4.008l6.734 4.489-3.008 2.011z"/></svg>