<svg xmlns="http://www.w3.org/2000/svg" viewBox="0 0 24 24" enable-background="new 0 0 24 24"><path d="M13.347 4.036c-2.078-1.17-4.669-1.347-6.905-.539-1.469.529-2.8 1.513-3.622 2.852-.745 1.208-1.025 2.714-.664 4.096.36 1.534 1.423 2.819 2.718 3.678-.243.708-.484 1.416-.71 2.129.818-.425 1.627-.869 2.443-1.301.983.315 2.016.466 3.049.433-.269-.789-.333-1.638-.21-2.461.196-1.142.813-2.186 1.667-2.961 1.437-1.346 3.475-1.914 5.414-1.777-.364-1.779-1.613-3.282-3.18-4.149zm-5.571 3.224c-.144.696-1.078 1.032-1.623.565-.631-.445-.455-1.552.288-1.774.727-.281 1.554.458 1.335 1.209zm5.048-.202c.006.801-1.061 1.301-1.662.757-.623-.445-.446-1.531.285-1.756.655-.258 1.428.294 1.377.999zm8.792 4.863c-.507-1.149-1.465-2.059-2.576-2.622-1.961-.995-4.402-.987-6.356.023-1.36.698-2.494 1.948-2.817 3.47-.266 1.119-.027 2.325.567 3.302.884 1.466 2.481 2.401 4.142 2.702 1.203.244 2.447.101 3.615-.239.699.273 1.327.713 2.006 1.039-.174-.587-.36-1.172-.561-1.75.76-.543 1.453-1.217 1.87-2.065.619-1.182.657-2.645.11-3.86zm-6.826.439c-.172.543-.964.707-1.345.292-.421-.382-.257-1.182.294-1.352.614-.258 1.32.447 1.051 1.06zm3.996.075c-.21.489-.942.602-1.303.223-.175-.157-.218-.397-.288-.608.094-.381.348-.777.78-.794.598-.082 1.123.645.811 1.179z"/></svg>