<svg xmlns="http://www.w3.org/2000/svg" viewBox="0 0 24 24" enable-background="new 0 0 24 24"><path d="M20 19.333c0 1.48-1.187 2.667-2.667 2.667s-2.667-1.188-2.667-2.667c0-.979.542-1.833 1.333-2.292v-8.375c.001-.666-.666-1.333-1.332-1.333h-1.333v2.667l-4-4 4-4v2.667h1.333c2 0 4 2 4 4v8.375c.791.458 1.333 1.312 1.333 2.291zm-1.333 0c0-.729-.604-1.333-1.333-1.333s-1.334.604-1.334 1.333.604 1.333 1.333 1.333 1.334-.603 1.334-1.333zm-9.334-13.333c0 .979-.542 1.833-1.333 2.292v8.729c.792.458 1.333 1.313 1.333 2.292 0 1.479-1.188 2.667-2.667 2.667-1.479-.001-2.666-1.188-2.666-2.667 0-.979.542-1.833 1.333-2.292v-8.729c-.791-.459-1.333-1.313-1.333-2.292 0-1.479 1.188-2.667 2.667-2.667 1.479 0 2.666 1.188 2.666 2.667zm-1.333 13.333c0-.729-.604-1.333-1.333-1.333s-1.333.604-1.333 1.333.604 1.333 1.333 1.333c.729.001 1.333-.603 1.333-1.333zm0-13.333c0-.729-.604-1.333-1.333-1.333s-1.334.604-1.334 1.333.604 1.333 1.333 1.333c.73 0 1.334-.604 1.334-1.333z"/></svg>