<svg xmlns="http://www.w3.org/2000/svg" viewBox="0 0 24 24" enable-background="new 0 0 24 24"><path d="M21 2h-18c-.552 0-1 .448-1 1v18c0 .552.448 1 1 1h18c.552 0 1-.448 1-1v-18c0-.552-.448-1-1-1zm-6.689 5.802c-.493 0-.841.469-.841 1.37 0 1.839 1.152 2.896 2.666 2.896.269 0 .864-.031.864-.103v1.429c0 .114-.998.162-1.419.164-1.005 2.123-2.811 3.935-3.414 4.278-.385.216-.743.327-1.164.075-.744-.444-3.553-2.911-4.496-9.911h2.042c.513 4 1.765 6.49 3.149 8.164.763-.763 1.495-1.826 2.07-2.976-1.367-.694-2.196-2.241-2.196-4.015 0-1.791 1.033-3.161 2.8-3.161 1.718 0 2.656 1.063 2.656 2.902 0 .683-.147 1.459-.418 2.061-1.276.25-1.742-.566-1.742-.566.096-.315.226-.847.226-1.332-.002-.853-.314-1.275-.783-1.275z"/></svg>