<svg xmlns="http://www.w3.org/2000/svg" viewBox="0 0 24 24" enable-background="new 0 0 24 24"><path d="M19.953 7.921l.012.531c0 5.422-4.127 11.675-11.675 11.675-2.317 0-4.474-.679-6.29-1.843.321.038.648.057.979.057 1.922 0 3.692-.656 5.096-1.757-1.796-.033-3.311-1.22-3.833-2.85.251.048.508.074.772.074.374 0 .737-.05 1.081-.144-1.877-.377-3.292-2.035-3.292-4.023v-.052c.553.307 1.186.492 1.859.513-1.101-.735-1.825-1.991-1.825-3.415 0-.752.202-1.457.556-2.063 2.023 2.483 5.047 4.116 8.457 4.287-.07-.3-.106-.613-.106-.935 0-2.266 1.837-4.103 4.103-4.103 1.18 0 2.246.498 2.995 1.296.935-.184 1.813-.526 2.606-.996-.306.958-.957 1.762-1.804 2.27.83-.099 1.621-.32 2.357-.646-.551.823-1.247 1.546-2.048 2.124z"/></svg>