<svg xmlns="http://www.w3.org/2000/svg" viewBox="0 0 24 24" enable-background="new 0 0 24 24"><path d="M12 2c-5.523 0-10 4.477-10 10s4.477 10 10 10 10-4.477 10-10-4.477-10-10-10zm6.612 4.612c1.19 1.453 1.91 3.305 1.929 5.321-.282-.06-3.106-.632-5.948-.275l-.184-.441c-.177-.417-.368-.83-.567-1.237 3.158-1.29 4.59-3.125 4.77-3.368zm-6.612-3.141c2.17 0 4.154.814 5.662 2.152-.154.219-1.439 1.947-4.477 3.085-1.4-2.572-2.951-4.684-3.187-5 .643-.154 1.313-.237 2.002-.237zm-3.631.812c.225.309 1.752 2.424 3.167 4.94-3.995 1.061-7.515 1.046-7.897 1.041.554-2.651 2.34-4.854 4.73-5.981zm-4.911 7.73l.004-.261c.374.008 4.513.061 8.778-1.216.245.479.478.964.693 1.45l-.337.102c-4.405 1.424-6.749 5.305-6.943 5.637-1.363-1.515-2.195-3.518-2.195-5.712zm8.542 8.542c-1.975 0-3.795-.674-5.243-1.803.154-.314 1.883-3.655 6.701-5.334l.056-.019c1.199 3.116 1.695 5.728 1.822 6.477-1.025.437-2.153.679-3.336.679zm4.772-1.461c-.088-.52-.542-3.02-1.659-6.09 2.677-.428 5.028.273 5.32.365-.38 2.376-1.744 4.429-3.661 5.725z"/></svg>