<svg xmlns="http://www.w3.org/2000/svg" viewBox="0 0 448 448"><path d="M352 288h2.762L224 415.578 34.156 230.358c-1.97-1.97-3.422-4.278-5.232-6.358H56.37l70.692-77.57 96.453 87.43L288 169.375 342.625 224h31.914l16.96-16.547c15.75-15.75 24.5-36.875 24.5-59.344 0-22.457-8.75-43.58-24.64-59.47-31.8-31.78-87.19-31.78-118.957 0L224 140.86l-48.828-52.657C159.702 72.75 138.578 64 116.11 64c-22.454 0-43.58 8.75-59.47 24.64S32 125.657 32 148.11c0 15.778 4.537 30.784 12.61 43.89H8.62C2.995 178.234 0 163.408 0 148.11c0-31.017 12.078-60.173 34.016-82.095 43.844-43.875 120.328-43.875 164.203 0L224 93.797l25.36-27.344c44.718-44.75 120.78-44.313 164.624-.438C435.922 87.938 448 117.095 448 148.11s-12.078 60.17-34.016 82.108L387.56 256h-58.185L288 214.625l-63.516 63.516-95.547-87.574-42.525 46.074L224 370.86 308.936 288H352z"/></svg>