<svg xmlns="http://www.w3.org/2000/svg" viewBox="0 0 448 448"><path d="M402.127 132.635l.27 11.894c0 121.443-92.44 261.503-261.508 261.503-51.9 0-100.217-15.21-140.89-41.28 7.19.85 14.51 1.276 21.93 1.276 43.05 0 82.693-14.694 114.14-39.355-40.227-.74-74.162-27.327-85.854-63.837 5.62 1.073 11.378 1.655 17.29 1.655 8.378 0 16.51-1.12 24.214-3.225-42.042-8.443-73.736-45.58-73.736-90.11v-1.165c12.387 6.877 26.565 11.02 41.64 11.49-24.662-16.462-40.88-44.595-40.88-76.49 0-16.845 4.526-32.636 12.455-46.21 45.313 55.617 113.05 92.195 189.43 96.025-1.57-6.72-2.376-13.73-2.376-20.943 0-50.756 41.147-91.903 91.903-91.903 26.43 0 50.306 11.155 67.083 29.03 20.944-4.123 40.61-11.783 58.37-22.31-6.852 21.458-21.434 39.467-40.406 50.845 18.59-2.22 36.31-7.17 52.794-14.47-12.342 18.432-27.93 34.626-45.873 47.573z"/></svg>