<svg xmlns="http://www.w3.org/2000/svg" viewBox="0 0 448 448"><path d="M205.453 302.22l22.625 22.624c-23.39 23.375-54.11 35.063-84.844 35.063-30.72 0-61.438-11.688-84.828-35.063C35.734 302.156 23.234 272.03 23.234 240s12.5-62.156 35.172-84.828c46.75-46.797 122.875-46.797 169.672 0l-22.625 22.625c-34.266-34.297-90.078-34.313-124.422 0-16.64 16.625-25.794 38.72-25.794 62.203 0 23.47 9.172 45.594 25.797 62.22 34.314 34.31 90.11 34.31 124.423 0zM416 224H189.063c-6.61-18.6-24.193-32-45.063-32-26.51 0-48 21.49-48 48s21.49 48 48 48c20.87 0 38.45-13.4 45.063-32H416v-32z"/></svg>