<svg xmlns="http://www.w3.org/2000/svg" viewBox="0 0 448 448"><path d="M384 64V32h-32v32H96V32H64v32H0v384h448V64h-64zm32 352H32V192h384v224zM32 160V96h32v32h32V96h256v32h32V96h32v64H32zm96 216.23v-29.667c10.5 7.552 22.75 11.328 36.75 11.328 8.812 0 15.69-1.863 20.594-5.61 4.937-3.744 7.405-8.954 7.405-15.642 0-6.906-3.065-12.224-9.158-15.968-6.093-3.745-14.438-5.61-25.094-5.61h-14.564v-26.11h13.47c20.405 0 30.626-6.69 30.626-20.067 0-12.592-7.843-18.883-23.533-18.883-10.5 0-20.69 3.347-30.625 10.035v-27.837c11.03-5.47 23.875-8.198 38.5-8.198 16.063 0 28.53 3.562 37.468 10.682 8.938 7.12 13.408 16.368 13.408 27.728 0 20.205-10.377 32.874-31.186 37.978v.538c11.09 1.373 19.843 5.347 26.25 11.914 6.434 6.598 9.622 14.66 9.622 24.23 0 14.458-5.34 25.89-16.06 34.307C201.154 379.792 186.34 384 167.468 384c-16.19 0-29.345-2.59-39.47-7.77zM320 224v160h-32V262.854c-1.8 1.667-4.423 3.258-6.87 4.74-2.45 1.497-5.047 2.837-7.79 4.053-2.742 1.184-5.603 2.214-8.55 3.056-2.98.826-5.9 1.434-8.79 1.792v-29.03c8.464-2.62 16.457-5.97 23.95-10.042 7.49-4.07 14.274-8.544 20.348-13.424H320z"/></svg>