<svg xmlns="http://www.w3.org/2000/svg" viewBox="0 0 448 448"><path d="M224 0C100.29 0 0 100.285 0 224c0 123.713 100.29 224 224 224 123.713 0 224-100.287 224-224C448 100.285 347.713 0 224 0zm84 140c15.465 0 28 12.537 28 28 0 15.46-12.535 28-28 28-15.463 0-28-12.54-28-28 0-15.463 12.537-28 28-28zm-168 0c15.465 0 28 12.537 28 28 0 15.46-12.535 28-28 28-15.463 0-28-12.54-28-28 0-15.463 12.537-28 28-28zm84 220.406c-50.28 0-95.61-28.22-118.313-73.656l28.625-14.313c17.25 34.53 51.61 55.97 89.688 55.97s72.438-21.44 89.688-55.97l28.625 14.313C319.61 332.188 274.28 360.406 224 360.406z"/></svg>