<svg xmlns="http://www.w3.org/2000/svg" viewBox="0 0 448 448" enable-background="new 0 0 448 448"><path d="M224 0c-123.711 0-224 100.285-224 224 0 123.713 100.289 224 224 224 123.713 0 224-100.287 224-224 0-123.715-100.287-224-224-224zm84 140c15.465 0 28 12.537 28 28 0 15.461-12.535 28-28 28-15.463 0-28-12.539-28-28 0-15.463 12.537-28 28-28zm-168 0c15.465 0 28 12.537 28 28 0 15.461-12.535 28-28 28-15.463 0-28-12.539-28-28 0-15.463 12.537-28 28-28zm173.688 211.563c-17.266-34.531-51.625-55.969-89.688-55.969-38.078 0-72.438 21.438-89.688 55.969l-28.625-14.313c22.703-45.438 68.031-73.656 118.313-73.656 50.266 0 95.594 28.219 118.313 73.656l-28.625 14.313z"/></svg>