<svg xmlns="http://www.w3.org/2000/svg" viewBox="0 0 448 448" enable-background="new 0 0 448 448"><path d="M224 0c-123.711 0-224 100.285-224 224 0 123.713 100.289 224 224 224 123.713 0 224-100.287 224-224 0-123.715-100.287-224-224-224zm84 140c15.465 0 28 12.537 28 28 0 15.461-12.535 28-28 28-15.463 0-28-12.539-28-28 0-15.463 12.537-28 28-28zm-168 0c15.465 0 28 12.537 28 28 0 15.461-12.535 28-28 28-15.463 0-28-12.539-28-28 0-15.463 12.537-28 28-28zm84 220.406c-50.281 0-95.609-28.219-118.313-73.656l28.625-14.313c17.25 34.531 51.609 55.969 89.688 55.969s72.438-21.438 89.688-55.969l28.625 14.313c-22.704 45.438-68.032 73.656-118.313 73.656z"/></svg>