<svg xmlns="http://www.w3.org/2000/svg" viewBox="0 0 448 448"><path d="M432 96c-25.498 0-49.443 12.06-64.533 32h-92.752C256.398 88.767 218.75 64 176 64h-16v128H32L0 208l32 16h128v128h16c42.75 0 80.398-24.767 98.715-64h92.752c15.09 19.94 39.035 32 64.533 32h16V96h-16zm-16 189.245c-10.88-3.81-20.388-11.354-26.17-21.293L385.2 256H252.708l-3.783 10.64c-9.77 27.48-30.857 46.27-56.924 51.724V97.636c26.068 5.455 47.157 24.244 56.926 51.723L252.71 160H385.2l4.63-7.954c5.782-9.938 15.29-17.483 26.17-21.292v154.49z"/></svg>