<svg xmlns="http://www.w3.org/2000/svg" viewBox="0 0 448 448"><path d="M289.84 4.438L278.525 15.75c-18.103 18.103-26.04 43.782-21.78 68.876l-81.36 81.36c-17.184-5.496-35.414-6.715-53.327-3.503-22.17 3.975-42.333 14.52-58.307 30.494L52.44 204.29l83.5 83.502L6.875 417.312 0 448l31.97-7.656L160.236 312.09l83.47 83.47 11.314-11.312c15.976-15.974 26.52-36.136 30.495-58.306 3.212-17.914 1.99-36.145-3.503-53.33l81.36-81.36c25.1 4.26 50.775-3.677 68.875-21.778l11.313-11.313L289.84 4.44zm73.077 153.91l-9.15-2.742L244.42 264.953l4.325 9.982c10.734 24.774 8.117 52.458-6.19 74.22l-143.71-143.71c21.76-14.305 49.448-16.925 74.22-6.19l9.982 4.325L292.395 94.233l-2.74-9.15c-3.384-11.296-2.467-23.134 2.22-33.355l104.398 104.4c-10.223 4.685-22.06 5.6-33.356 2.22z"/></svg>