<svg xmlns="http://www.w3.org/2000/svg" viewBox="0 0 448 448"><path d="M288 64V32c0-17.64-14.344-32-32-32h-96c-17.64 0-32 14.36-32 32v32H32v32h32v320c0 17.656 14.36 32 32 32h224c17.656 0 32-14.344 32-32V96h32V64h-96zM160 32h96v32h-96V32zm160 384H96V96h224v320zm-43.25-96H192v-32h76.156l-15.234-23.28 26.797-17.517 19.78 30.266c5.53 8.466 5.97 19.28 1.154 28.216C295.874 314.53 286.72 320 276.75 320zM160 320h-20.766c-9.97 0-19.125-5.47-23.89-14.313-4.83-8.906-4.376-19.75 1.17-28.22l30.095-46.015 26.78 17.53L147.86 288H160v32zm71.97-87.297l-24-36.688-17.048 25.64-26.656-17.718 21.078-31.703c9.97-15.25 35.28-15.36 45.375.11l28.03 42.827-26.78 17.535zm-19.907-42.86l-.03.048.03-.044z"/></svg>