<svg xmlns="http://www.w3.org/2000/svg" viewBox="0 0 448 448"><path d="M448 448H332.778v-55.468H277.31v-55.468h-55.468V293.64c-20.977 10.324-43.768 15.705-67.17 15.705C69.39 309.345 0 239.955 0 154.673S69.39 0 154.673 0s154.673 69.39 154.673 154.673c0 14.03-2.096 28-6.382 42.422L448 342.163V448zm-83.187-32.036h51.15v-60.536L266.14 205.588l3.443-9.557c5.193-14.404 7.727-27.934 7.727-41.356 0-67.622-55.016-122.637-122.638-122.637S32.036 87.05 32.036 154.673 87.05 277.31 154.673 277.31c26.076 0 51.276-8.478 72.878-24.56l4.258-3.16h21.32l.752 16.02v39.418h55.467v55.468h55.468v55.468zM111.875 83.844c-15.482 0-28.03 12.55-28.03 28.03 0 15.483 12.55 28.032 28.03 28.032s28.03-12.55 28.03-28.03c0-15.482-12.548-28.032-28.03-28.032z"/></svg>