<svg xmlns="http://www.w3.org/2000/svg" viewBox="0 0 448 448" enable-background="new 0 0 448 448"><path d="M432.006 60.795c9.889 17.396 15.994 37.232 15.994 58.672 0 65.979-53.485 119.466-119.466 119.466-9.193 0-18.048-1.257-26.641-3.222l-193.727 193.73c-24.744 24.744-64.861 24.744-89.606 0-24.747-24.744-24.747-64.864 0-89.606l193.727-193.729c-1.965-8.593-3.22-17.448-3.22-26.639 0-65.98 53.488-119.466 119.466-119.466 21.441 0 41.276 6.105 58.673 15.994l-88.539 88.539 22.4 22.4 22.4 22.4 88.539-88.539z"/></svg>