<svg xmlns="http://www.w3.org/2000/svg" viewBox="0 0 448 448"><path d="M224 0C100.49 0 0 100.49 0 224s100.49 224 224 224 224-100.49 224-224S347.51 0 224 0zm32 384h-64v-64h64v64zm41.28-172.797l-33.874 33.89C258.78 249.89 256 256.875 256 264.375V288h-64v-23.625c0-24.156 9.14-46.922 25.734-64.125l33.922-33.922c4.656-4.813 7.406-11.78 7.406-19.28 0-19.33-15.734-28.57-35.063-28.57S188.95 128 188.95 160h-64c0-64 44.438-105.523 99.047-105.523 54.624 0 99.062 41.2 99.062 95.81 0 24.186-9.16 43.744-25.784 60.916z"/></svg>