<svg xmlns="http://www.w3.org/2000/svg" viewBox="0 0 448 448" enable-background="new 0 0 448 448"><path d="M208 416c-114.687 0-208-93.312-208-208s93.313-208 208-208 208 93.313 208 208-93.312 208-208 208zm0-384c-97.047 0-176 78.953-176 176 0 97.031 78.953 176 176 176 97.031 0 176-78.969 176-176 0-97.047-78.969-176-176-176zm16 288h-32v-32h32v32zm0-64h-32v-6.344c0-17.359 6.547-33.703 18.453-46.031l28.141-28.141c5.906-6.141 9.281-14.594 9.281-23.609 0-21.984-17.891-39.875-39.875-39.875s-39.875 17.891-39.875 39.875h-32c0-39.625 32.25-71.875 71.875-71.875s71.875 32.25 71.875 71.875c0 17.359-6.563 33.703-18.469 46.031l-28.125 28.141c-5.906 6.141-9.281 14.594-9.281 23.609v6.344z"/></svg>