<svg xmlns="http://www.w3.org/2000/svg" viewBox="0 0 448 448"><path d="M376 80c0-39.7-32.3-72-72-72s-72 32.3-72 72c0 34.2 23.977 62.888 56 70.186V192l.04 1.138c.023.32 1.81 32.43-14.91 50.384C265.31 251.918 254.474 256 240 256H128V150.186c32.023-7.298 56-35.985 56-70.186 0-39.7-32.3-72-72-72S40 40.3 40 80c0 34.2 23.977 62.888 56 70.186v155.628C63.977 313.112 40 341.8 40 376c0 39.7 32.3 72 72 72s72-32.3 72-72c0-34.2-23.977-62.888-56-70.186V288h112c23.514 0 42.54-7.627 56.55-22.67 24.94-26.783 23.765-67.834 23.45-73.797v-41.347c32.023-7.298 56-35.985 56-70.186zM72 80c0-22.056 17.944-40 40-40s40 17.944 40 40-17.944 40-40 40-40-17.944-40-40zm80 296c0 22.056-17.944 40-40 40s-40-17.944-40-40 17.944-40 40-40 40 17.944 40 40zM264 80c0-22.056 17.944-40 40-40s40 17.944 40 40-17.944 40-40 40-40-17.944-40-40z"/></svg>