<?xml version="1.0" standalone="no"?> 
<!DOCTYPE svg PUBLIC "-//W3C//DTD SVG 1.1//EN" "http://www.w3.org/Graphics/SVG/1.1/DTD/svg11.dtd" >
<svg xmlns="http://www.w3.org/2000/svg">
<defs>
  <font id="bowtie" horiz-adv-x="448">
    <font-face font-family="bowtie"
      units-per-em="448" ascent="448"
      descent="0" />
    <missing-glyph horiz-adv-x="0" />
    <glyph glyph-name="alert"
      unicode="&#xE600;"
      horiz-adv-x="448" d=" M64 448H96V0H64zM128 448V192L416 320L128 448z" />
    <glyph glyph-name="approve"
      unicode="&#xE601;"
      horiz-adv-x="448" d=" M441.61 268.637C429.495 285.5370000000001 415.53 288 405.96 288H314.92C315.736 290.856 316.552 294.794 317.368 297.634C320.224 307.818 323.173 318.362 326.878 322.552C348.3109999999999 346.826 355.7179999999999 379.62 351.795 398.182C346.428 423.524 327.662 432.515 313.227 432.515C297.505 432.515 285.611 423.305 276.257 414.517L152.125 288C151.765 287.64 0 288 0 288V32H350.255C369.21 32 385.968 44.082 391.899 62.032L444.8 224C450.635 249.224 446.4940000000001 262.4 441.61 268.637zM417.13 239.294L361.428 72.2C359.828 67.367 355.338 64 350.256 64H128L128.54 256H143.777C155.514 256 166.545 259.363 174.847 267.664L298.977 391.794C310.009 402.121 317.615 404.391 320.347 391.514C322.113 383.197 317.897 360.95 302.774 343.812C290.7440000000001 330.177 288.04 308.738 281.1840000000001 289.082C274.754 270.649 274.6620000000001 260.348 282.148 256H405.9580000000001C409.788 256 413.2700000000001 253.024 415.4980000000001 249.917C417.7580000000001 246.81 418.3550000000001 242.935 417.1310000000001 239.294z" />
    <glyph glyph-name="approve-disapprove"
      unicode="&#xE602;"
      horiz-adv-x="448" d=" M441.61 179.363C446.4940000000001 185.6 450.636 198.776 444.8 224L391.9 385.968C385.967 403.918 369.21 416 350.254 416H0V160S151.764 160.36 152.124 160L276.257 33.482C285.609 24.695 297.503 15.484 313.227 15.484C327.662 15.484 346.427 24.476 351.794 49.816C355.717 68.379 348.31 101.173 326.876 125.446C323.172 129.636 320.223 140.181 317.366 150.366C316.551 153.206 315.736 157.143 314.919 159.999H405.955C415.527 159.999 429.493 162.461 441.605 179.359zM415.5 198.083C413.27 194.976 409.788 192 405.96 192H282.15C274.662 187.652 274.755 177.35 281.184 158.918C288.041 139.261 290.744 117.823 302.774 104.188C317.898 87.05 322.1139999999999 64.803 320.349 56.488C317.613 43.608 310.009 45.878 298.9749999999999 56.205L174.8429999999999 180.335C166.5429999999999 188.637 155.5129999999999 192 143.7729999999999 192H128.54L128 384H350.255C355.338 384 359.825 380.633 361.427 375.8L417.13 208.706C418.355 205.066 417.758 201.19 415.5 198.083z" />
    <glyph glyph-name="arrow-down"
      unicode="&#xE603;"
      horiz-adv-x="448" d=" M224 448V62.625L372.688 211.313L395.313 188.688L208 1.375L20.688 188.687L43.313 211.312L192 62.625V448H224z" />
    <glyph glyph-name="arrow-left"
      unicode="&#xE604;"
      horiz-adv-x="448" d=" M448 224H62.625L211.313 75.312L188.688 52.687L1.375 240L188.688 427.312L211.313 404.687L62.625 256H448V224z" />
    <glyph glyph-name="arrow-right"
      unicode="&#xE605;"
      horiz-adv-x="448" d=" M1.375 224V256H386.75L238.062 404.687L260.687 427.312L448 240L260.687 52.687L238.062 75.312L386.75 224H1.375z" />
    <glyph glyph-name="arrow-up"
      unicode="&#xE606;"
      horiz-adv-x="448" d=" M224 1.375H192V386.75L43.313 238.063L20.688 260.688L208 448L395.313 260.687L372.688 238.062L224 386.75V1.375z" />
    <glyph glyph-name="attach"
      unicode="&#xE607;"
      horiz-adv-x="448" d=" M352 384V128C352 66.25 301.75 16 240 16S128 66.25 128 128V352C128 396.11 163.89 432 208 432S288 396.11 288 352V128C288 101.53 266.4700000000001 80 240 80S192 101.53 192 128V320H224V128C224 119.187 231.172 112 240 112S256 119.188 256 128V352C256 378.4700000000001 234.47 400 208 400S160 378.4700000000001 160 352V128C160 83.875 195.875 48 240 48S320 83.875 320 128V384H352z" />
    <glyph glyph-name="azure-api-management"
      unicode="&#xE608;"
      horiz-adv-x="448" d=" M304.03 144C304.03 114.094 292.375 85.97 271.187 64.812C250.031 43.624 221.907 31.968 191.999 31.968S133.965 43.624 112.809 64.812L135.433 87.437C165.683 57.187 218.308 57.187 248.558 87.437C263.683 102.562 272.028 122.6570000000001 272.028 144S263.683 185.438 248.558 200.563C218.308 230.813 165.683 230.813 135.433 200.563L112.808 223.188C155.123 265.532 228.873 265.532 271.185 223.188C292.375 202.031 304.03 173.906 304.03 144zM364.42 301.654C355.5470000000001 363.634 302.1070000000001 411.43 237.715 411.43C195.075 411.43 155.545 389.676 132.059 355.15C126.189 356.098 120.259 356.573 114.283 356.573C51.268 356.573 0 305.303 0 242.287C0 179.27 51.268 128 114.285 128H146.937C153.547 109.4 171.13 96 192 96C218.51 96 240 117.49 240 144S218.51 192 192 192C171.13 192 153.55 178.6 146.937 160H114.285C68.84 160 32 196.842 32 242.287C32 287.73 68.84 324.572 114.285 324.572C126.379 324.572 137.775 321.81 148.117 317.125C161.799 353.455 196.613 379.43 237.727 379.43C290.747 379.43 333.727 336.448 333.727 283.43L333.792 269.73L361.142 269.793C391.442 269.793 415.999 245.147 415.999 214.848C416 184.55 391.44 160 361.14 160H336.062L336 128H361.1430000000001C409.0350000000001 128 448 166.965 448 214.857C448 261.654 410.803 299.927 364.42 301.654z" />
    <glyph glyph-name="azure-service-endpoint"
      unicode="&#xE609;"
      horiz-adv-x="448" d=" M205.453 145.78L228.078 123.156C204.688 99.781 173.968 88.093 143.234 88.093C112.514 88.093 81.796 99.781 58.406 123.156C35.734 145.844 23.234 175.97 23.234 208S35.734 270.156 58.406 292.828C105.156 339.625 181.281 339.625 228.078 292.828L205.453 270.203C171.187 304.5 115.375 304.516 81.031 270.203C64.391 253.578 55.237 231.483 55.237 208C55.237 184.53 64.409 162.406 81.034 145.78C115.348 111.47 171.144 111.47 205.457 145.78zM416 224H189.063C182.453 242.6 164.87 256 144 256C117.49 256 96 234.51 96 208S117.49 160 144 160C164.87 160 182.45 173.4 189.063 192H416V224z" />
    <glyph glyph-name="build"
      unicode="&#xE60A;"
      horiz-adv-x="448" d=" M302.848 328.687L224 249.375L144.16 328.688L166.976 351.313L208 310.625L208.064 448H239.936L240 310.625L280.352 351.313L302.848 328.687zM160 224H96V160H160V224zM256 160H192V224H256V160zM352 160H288V224H352V160zM384 288V128H64V288H32V0H416V288H384zM128 32V96H192V32H128zM256 32V96H320V32H256z" />
    <glyph glyph-name="build-queue"
      unicode="&#xE60B;"
      horiz-adv-x="448" d=" M224 384V288H128V192H32V0H224V96H320V192H416V384H224zM192 32H64V160H192V32zM288 128H224V192H160V256H288V128zM384 224H320V288H256V352H384V224z" />
    <glyph glyph-name="build-queue-new"
      unicode="&#xE60C;"
      horiz-adv-x="448" d=" M224 384V288H128V192H32V0H224V96H320V192H416V384H224zM192 32H64V160H192V32zM288 128H224V192H160V256H288V128zM384 224H320V288H256V352H384V224zM160 352H96V288H64V352H0V384H64V448H96V384H160V352z" />
    <glyph glyph-name="build-reason-checkin-shelveset"
      unicode="&#xE60D;"
      horiz-adv-x="448" d=" M64 448H352V416H64V448zM363.328 235.264L208 391.7440000000001L52.64 235.264L75.36 212.736L192 330.208V0H224V330.208L340.6720000000001 212.736L363.3280000000001 235.264z" />
    <glyph glyph-name="calendar"
      unicode="&#xE60E;"
      horiz-adv-x="448" d=" M384 384V416H352V384H96V416H64V384H0V0H448V384H384zM416 32H32V256H416V32zM32 288V352H64V320H96V352H352V320H384V352H416V288H32zM128 71.77V101.437C138.5 93.885 150.75 90.109 164.75 90.109C173.562 90.109 180.44 91.972 185.344 95.7190000000001C190.281 99.4630000000001 192.749 104.6730000000001 192.749 111.3610000000001C192.749 118.2670000000001 189.684 123.585 183.591 127.3290000000001C177.498 131.0740000000001 169.153 132.9390000000001 158.497 132.9390000000001H143.933V159.0490000000001H157.403C177.808 159.0490000000001 188.029 165.7390000000001 188.029 179.1160000000001C188.029 191.7080000000001 180.186 197.9990000000001 164.4960000000001 197.9990000000001C153.9960000000001 197.9990000000001 143.8060000000001 194.6520000000001 133.8710000000001 187.9640000000001V215.8010000000001C144.9010000000001 221.2710000000001 157.7460000000001 223.9990000000001 172.3710000000001 223.9990000000001C188.434 223.9990000000001 200.9010000000001 220.4370000000001 209.8390000000001 213.3170000000001C218.7770000000001 206.1970000000001 223.2470000000001 196.9490000000001 223.2470000000001 185.5890000000001C223.2470000000001 165.3840000000001 212.87 152.7150000000001 192.061 147.6110000000001V147.0730000000001C203.1510000000001 145.7000000000001 211.904 141.7260000000001 218.311 135.1590000000001C224.745 128.5610000000001 227.9330000000001 120.4990000000001 227.9330000000001 110.9290000000001C227.9330000000001 96.4710000000001 222.5930000000001 85.0390000000001 211.8730000000001 76.6220000000001C201.154 68.208 186.34 64 167.468 64C151.278 64 138.123 66.59 127.998 71.77zM320 224V64H288V185.146C286.2 183.4790000000001 283.577 181.888 281.13 180.406C278.68 178.909 276.083 177.569 273.34 176.353C270.598 175.169 267.737 174.139 264.79 173.297C261.81 172.471 258.89 171.863 256 171.5050000000001V200.5350000000001C264.464 203.1550000000001 272.457 206.5050000000001 279.95 210.5770000000001C287.44 214.6470000000001 294.224 219.1210000000001 300.298 224.0010000000001H320z" />
    <glyph glyph-name="check"
      unicode="&#xE60F;"
      horiz-adv-x="448" d=" M179.203 100.344L89.375 190.157L134.625 235.423L179.203 190.845L313.375 325.033L358.625 279.783L179.203 100.343z" />
    <glyph glyph-name="chevron-down-light"
      unicode="&#xE610;"
      horiz-adv-x="448" d=" M224 119.03L36.687 306.343L59.312 328.968L224 164.28L388.688 328.97L411.312 306.344L224 119.03z" />
    <glyph glyph-name="chevron-down"
      unicode="&#xE611;"
      horiz-adv-x="448" d=" M224 149.373L108.686 264.6860000000001L131.314 287.314L224 194.628L316.687 287.314L339.314 264.686L224 149.373z" />
    <glyph glyph-name="chevron-left-light"
      unicode="&#xE612;"
      horiz-adv-x="448" d=" M119.032 224L306.342 411.312L328.969 388.687L164.28 224L328.9700000000001 59.312L306.343 36.688L119.033 224z" />
    <glyph glyph-name="chevron-left"
      unicode="&#xE613;"
      horiz-adv-x="448" d=" M264.687 108.687L149.373 224L264.687 339.314L287.314 316.686L194.627 224L287.313 131.313L264.687 108.687z" />
    <glyph glyph-name="chevron-right-light"
      unicode="&#xE614;"
      horiz-adv-x="448" d=" M328.968 224L141.658 36.688L119.032 59.313L283.7200000000001 224L119.032 388.688L141.657 411.312L328.967 224z" />
    <glyph glyph-name="chevron-right"
      unicode="&#xE615;"
      horiz-adv-x="448" d=" M183.314 108.687L160.686 131.314L253.372 224L160.686 316.6860000000001L183.314 339.314L298.627 224L183.314 108.687z" />
    <glyph glyph-name="chevron-up-light"
      unicode="&#xE616;"
      horiz-adv-x="448" d=" M224 328.968L411.31 141.654L388.686 119.03L223.996 283.72L59.312 119.03L36.69 141.654L224 328.968z" />
    <glyph glyph-name="chevron-up"
      unicode="&#xE617;"
      horiz-adv-x="448" d=" M316.687 160.687L224 253.373L131.314 160.687L108.686 183.314L224 298.627L339.313 183.313L316.687 160.687z" />
    <glyph glyph-name="clone-to-desktop"
      unicode="&#xE618;"
      horiz-adv-x="448" d=" M224 64V32H288V0H128V32H192V64H0V352H160V320H32V96H384V320H256V352H416V64H224zM260.227 267.187L224 230.72V448H192V230.723L156.242 267.188L133.754 244.813L208.384 169.375L282.907 244.813L260.227 267.187z" />
    <glyph glyph-name="clone"
      unicode="&#xE619;"
      horiz-adv-x="448" d=" M326.625 352H294.078L198.468 448H32V96H160V0H448V230.625L326.625 352zM320 313.375L409.375 224H320V313.375zM160 128H64V416H185.53L249.922 352H160V128zM416 32H192V320H288V192H416V32z" />
    <glyph glyph-name="cloud"
      unicode="&#xE61A;"
      horiz-adv-x="448" d=" M237.754 352C290.928 352 334.034 308.124 334.034 254V240H361.544C391.931 240 416.562 214.93 416.562 184C416.562 153.073 391.932 128 361.544 128H113.964C68.387 128 31.439 165.608 31.439 212S68.384 296 113.962 296C126.092 296 137.52 293.182 147.892 288.398C161.618 325.485 196.52 352 237.756 352M237.756 384C195.071 384 155.504 361.756 132.098 326.49C126.113 327.495 120.062 328 113.966 328C51.126 328 0 275.963 0 212S51.125 96 113.965 96H361.545C409.2150000000001 96 448 135.476 448 184C448 231.6 410.68 270.493 364.26 271.957C355.643 335.174 302.1960000000001 384 237.754 384z" />
    <glyph glyph-name="comment"
      unicode="&#xE61B;"
      horiz-adv-x="448" d=" M64 4.062V96H0V416H416V96H166.14L64 4.062z" />
    <glyph glyph-name="comment-add"
      unicode="&#xE61C;"
      horiz-adv-x="448" d=" M448 352V96H262.14L160 4.062V96H96V224H128V128H192V75.937L249.86 128H416V320H224V352H448zM160 384H96V448H64V384H0V352H64V288H96V352H160V384z" />
    <glyph glyph-name="comment-discussion"
      unicode="&#xE61D;"
      horiz-adv-x="448" d=" M128 448V320H0V96H64V4.062L166.14 96H320V189.67L384 132.063V224H448V448H128zM288 128H153.86L96 75.937V128H32V288H288V128zM416 256H352V203.937L320 232.7320000000001V320H160V416H416V256z" />
    <glyph glyph-name="comment-lines"
      unicode="&#xE61E;"
      horiz-adv-x="448" d=" M64 4.062V96H0V416H416V96H166.14L64 4.062zM32 128H96V75.937L153.86 128H384V384H32V128zM320 320H96V288H320V320zM256 256H96V224H256V256z" />
    <glyph glyph-name="comment-next"
      unicode="&#xE61F;"
      horiz-adv-x="448" d=" M221.823 336L131.313 245.49L108.686 268.117L160.568 320H0V352H160.568L108.686 403.882L131.313 426.509L221.823 335.999zM288 352V320H416V128H249.86L192 75.937V128H128V192H96V96H160V4.062L262.14 96H448V352H288z" />
    <glyph glyph-name="comment-outline"
      unicode="&#xE620;"
      horiz-adv-x="448" d=" M64 4.062V96H0V416H416V96H166.14L64 4.062zM32 128H96V75.937L153.86 128H384V384H32V128z" />
    <glyph glyph-name="comment-previous"
      unicode="&#xE621;"
      horiz-adv-x="448" d=" M224 320H63.03L114.91 268.118L92.285 245.49L1.775 336L92.285 426.51L114.911 403.882L63.03 352H224V320zM288 352V320H416V128H249.86L192 75.937V128H128V192H96V96H160V4.062L262.14 96H448V352H288z" />
    <glyph glyph-name="comment-urgent"
      unicode="&#xE622;"
      horiz-adv-x="448" d=" M64 4.062V96H0V416H416V96H166.14L64 4.062zM32 128H96V75.937L153.86 128H384V384H32V128zM224 352H192V224H224V352zM224 192H192V160H224V192z" />
    <glyph glyph-name="dashboard"
      unicode="&#xE623;"
      horiz-adv-x="448" d=" M0 448V0H448V448H0zM32 416H256V160H32V416zM32 32V128H160V32H32zM416 32H192V128H416V32zM416 160H288V288H416V160zM416 320H288V416H416V320z" />
    <glyph glyph-name="database"
      unicode="&#xE624;"
      horiz-adv-x="448" d=" M331.623 430.51C302.62 441.79 264.4 448 224 448S145.38 441.79 116.377 430.51C82.602 417.375 64 398.016 64 376V72C64 49.984 82.602 30.625 116.377 17.49C145.38 6.21 183.6 0 224 0S302.62 6.21 331.623 17.49C365.398 30.625 384 49.983 384 72V376C384 398.016 365.398 417.375 331.623 430.51zM224 416C306.82 416 352 389.576 352 376S306.82 336 224 336S96 362.424 96 376S141.18 416 224 416z" />
    <glyph glyph-name="diff-image-overlay"
      unicode="&#xE625;"
      horiz-adv-x="448" d=" M384 352C384 334.327 369.673 320 352 320S320 334.327 320 352S334.327 384 352 384S384 369.673 384 352zM256 128V80.22L211.187 125.0320000000001L172.807 86.6300000000001L76.812 182.626L32 137.812V256H128V288H0V0H288V128H256zM448 448V160H160V448H448zM416 416H192V297.812L236.813 342.625L332.809 246.629L371.185 285.029L416 240.22V416z" />
    <glyph glyph-name="diff-image-pixel"
      unicode="&#xE626;"
      horiz-adv-x="448" d=" M352 288H288V352H352V288zM448 416V0H0V416H448zM416 384H32V160H96V224H160V288H224V224H288V160H352V96H416V384z" />
    <glyph glyph-name="diff-image"
      unicode="&#xE627;"
      horiz-adv-x="448" d=" M32 416V0H416V416H32zM384 32H372.896L286.718 118.402L239.993 71.789L161.263 150.569L64 53.11V192H384V32zM384 224H373.344L286.719 310.625L239.999 263.895L161.263 342.625L64 245.36V384H384V224z" />
    <glyph glyph-name="diff-inline"
      unicode="&#xE628;"
      horiz-adv-x="448" d=" M64 416V32H352V416H64zM320 64H96V128H320V64zM320 224H96V288H320V224zM96 320V384H320V320H96z" />
    <glyph glyph-name="diff-side-by-side"
      unicode="&#xE629;"
      horiz-adv-x="448" d=" M0 384V96H192V384H0zM160 128H32V288H160V128zM160 320H32V352H160V320zM256 384V96H448V384H256zM416 128H288V160H416V128zM416 224H288V352H416V224z" />
    <glyph glyph-name="dot"
      unicode="&#xE62A;"
      horiz-adv-x="448" d=" M448 224C448 100.288 347.712 0 224 0S0 100.288 0 224S100.288 448 224 448S448 347.712 448 224z" />
    <glyph glyph-name="edit"
      unicode="&#xE62B;"
      horiz-adv-x="448" d=" M132.118 64.235L64.236 132.117L313.136 381.019L381.019 313.134L132.115 64.232zM97.724 29.842L30.294 98.177L7.667 7.667L97.724 29.842zM426.274 358.392C445.019 377.137 445.019 407.529 426.274 426.274S377.137 445.019 358.392 426.274L347.078 414.96L415.413 347.53L426.273 358.392z" />
    <glyph glyph-name="edit-copy"
      unicode="&#xE62C;"
      horiz-adv-x="448" d=" M326.625 352H294.078L198.468 448H32V96H160V0H448V230.625L326.625 352zM320 313.375L409.375 224H320V313.375zM160 128H64V416H185.53L249.922 352H160V128zM416 32H192V320H288V192H416V32z" />
    <glyph glyph-name="edit-cut"
      unicode="&#xE62D;"
      horiz-adv-x="448" d=" M308 122C306.92 122 305.912 121.74 304.848 121.682L239.334 253.235L313.524 401.7150000000001L300.694 439.805L223.558 284.9120000000001L146.42 439.805L133.594 401.715L207.784 253.235L142.31 121.765C141.527 121.797 140.79 122 140 122C108.015 122 82 95.984 82 64S108.015 6 140 6S198 32.016 198 64C198 85.14 186.513 103.484 169.573 113.62L223.557 221.662L277.7290000000001 113.244C261.1600000000001 103.024 250 84.857 250 64C250 32.016 276.016 6 308 6S366 32.016 366 64S339.984 122 308 122zM140 38C125.656 38 114 49.656 114 64S125.656 90 140 90S166 78.344 166 64S154.344 38 140 38zM308 38C293.656 38 282 49.656 282 64S293.656 90 308 90S334 78.344 334 64S322.344 38 308 38z" />
    <glyph glyph-name="edit-delete"
      unicode="&#xE62E;"
      horiz-adv-x="448" d=" M160 96H128V288H160V96zM224 288H192V96H224V288zM288 288H256V96H288V288zM384 384V352H352V32C352 14.328 337.674 0 320 0H96C78.326 0 64 14.328 64 32V352H32V384H128V416C128 433.674 142.326 448 160 448H256C273.674 448 288 433.674 288 416V384H384zM160 384H256V416H160V384zM320 352H96V32H320V352z" />
    <glyph glyph-name="edit-paste"
      unicode="&#xE62F;"
      horiz-adv-x="448" d=" M352 256V384H256C256 419.2970000000001 227.297 448 192 448S128 419.2970000000001 128 384H32V32H192V0H416V256H352zM128 352H160V384C160 401.64 174.36 416 192 416S224 401.64 224 384V352H256V320H128V352zM64 64V352H96V288H288V352H320V256H192V64H64zM384 32H224V224H384V32z" />
    <glyph glyph-name="edit-redo"
      unicode="&#xE630;"
      horiz-adv-x="448" d=" M75.656 401.516C135.406 461.236 232.594 461.236 292.344 401.516L352 341.846V448H384V288H224V320H328.596L269.7200000000001 378.89C222.406 426.125 145.53 426.14 96.344 376.9220000000001C73.438 354.032 60.844 323.594 60.844 291.219S73.438 228.403 96.344 205.513L279.314 22.529L256 0L73.72 182.89C44.78 211.83 28.844 250.297 28.844 291.22S44.78 370.61 75.656 401.515z" />
    <glyph glyph-name="edit-remove"
      unicode="&#xE631;"
      horiz-adv-x="448" d=" M246.625 224L427.313 43.312L404.688 20.687L224 201.375L43.313 20.687L20.688 43.312L201.375 224L20.688 404.687L43.313 427.312L224 246.625L404.688 427.312L427.313 404.687L246.625 224z" />
    <glyph glyph-name="edit-rename"
      unicode="&#xE632;"
      horiz-adv-x="448" d=" M224 192.998H64V256H224V192.998zM256 160H32V288H256V320H0V128H256V160zM448 320V128H352V160H416V288H352V320H448zM320 360.8640000000001V88.086C338.118 72.426 359.7850000000001 64 384 64V32C354.352 32 327.488 41.706 304.48 59.616C281.453 41.706 253.635 32 224 32V64C247.776 64 270.022 72.15 288 87.296V361.658C270.013 376.803 247.763 384 224 384V416C253.622 416 281.4460000000001 407.245 304.483 389.33C327.507 407.246 354.365 416 384 416V384C359.8 384 338.13 376.528 320 360.8640000000001z" />
    <glyph glyph-name="edit-undo"
      unicode="&#xE633;"
      horiz-adv-x="448" d=" M340.344 401.516C280.594 461.236 183.406 461.236 123.656 401.516L64 341.846V448H32V288H192V320H87.404L146.281 378.89C193.597 426.125 270.471 426.14 319.659 376.9220000000001C342.565 354.032 355.159 323.594 355.159 291.219S342.565 228.403 319.659 205.513L136.688 22.53L160 0L342.28 182.89C371.22 211.83 387.156 250.297 387.156 291.22S371.2200000000001 370.61 340.344 401.515z" />
    <glyph glyph-name="editor-list-bullet"
      unicode="&#xE634;"
      horiz-adv-x="448" d=" M384 352H160V384H384V352zM96 384H64V352H96V384zM384 288H160V256H384V288zM96 288H64V256H96V288zM384 192H160V160H384V192zM96 192H64V160H96V192zM384 96H160V64H384V96zM96 96H64V64H96V96z" />
    <glyph glyph-name="ellipsis-vertical"
      unicode="&#xE635;"
      horiz-adv-x="448" d=" M224 352C206.327 352 192 366.327 192 384S206.327 416 224 416S256 401.673 256 384S241.673 352 224 352zM256 224C256 241.673 241.673 256 224 256S192 241.673 192 224S206.327 192 224 192S256 206.327 256 224zM256 64C256 81.673 241.673 96 224 96S192 81.673 192 64S206.327 32 224 32S256 46.327 256 64z" />
    <glyph glyph-name="ellipsis"
      unicode="&#xE636;"
      horiz-adv-x="448" d=" M96 224C96 206.327 81.673 192 64 192S32 206.327 32 224S46.327 256 64 256S96 241.673 96 224zM224 256C206.327 256 192 241.673 192 224S206.327 192 224 192S256 206.327 256 224S241.673 256 224 256zM384 256C366.327 256 352 241.673 352 224S366.327 192 384 192S416 206.327 416 224S401.673 256 384 256z" />
    <glyph glyph-name="favorite-outline"
      unicode="&#xE637;"
      horiz-adv-x="448" d=" M448 288H276.5L224 448L171.5 288H0L138.264 178.97L84 0L224 108.8L364 0L309.736 179.244L448 288zM224 149.328L143.828 87.015L175.218 190.578L92.268 256H194.673L224 345.36L253.328 256H355.548L272.781 190.89L304.237 86.97L224 149.327z" />
    <glyph glyph-name="favorite"
      unicode="&#xE638;"
      horiz-adv-x="448" d=" M448 288H276.5L224 448L171.5 288H0L138.264 178.97L84 0L224 108.8L364 0L309.736 179.244L448 288z" />
    <glyph glyph-name="feedback-negative"
      unicode="&#xE639;"
      horiz-adv-x="448" d=" M224 448C100.29 448 0 347.7150000000001 0 224C0 100.287 100.29 0 224 0C347.713 0 448 100.287 448 224C448 347.7150000000001 347.713 448 224 448zM308 308C323.465 308 336 295.463 336 280C336 264.54 323.465 252 308 252C292.537 252 280 264.54 280 280C280 295.463 292.537 308 308 308zM140 308C155.465 308 168 295.463 168 280C168 264.54 155.465 252 140 252C124.537 252 112 264.54 112 280C112 295.463 124.537 308 140 308zM313.688 96.437C296.422 130.967 262.063 152.4070000000001 224 152.4070000000001C185.922 152.4070000000001 151.562 130.9670000000001 134.312 96.437L105.687 110.75C128.39 156.188 173.717 184.406 224 184.406C274.266 184.406 319.594 156.186 342.313 110.75L313.688 96.437z" />
    <glyph glyph-name="feedback-positive"
      unicode="&#xE63A;"
      horiz-adv-x="448" d=" M224 448C100.29 448 0 347.7150000000001 0 224C0 100.287 100.29 0 224 0C347.713 0 448 100.287 448 224C448 347.7150000000001 347.713 448 224 448zM308 308C323.465 308 336 295.463 336 280C336 264.54 323.465 252 308 252C292.537 252 280 264.54 280 280C280 295.463 292.537 308 308 308zM140 308C155.465 308 168 295.463 168 280C168 264.54 155.465 252 140 252C124.537 252 112 264.54 112 280C112 295.463 124.537 308 140 308zM224 87.594C173.72 87.594 128.39 115.814 105.687 161.25L134.312 175.563C151.562 141.033 185.922 119.593 224 119.593S296.438 141.033 313.688 175.563L342.313 161.25C319.61 115.812 274.28 87.594 224 87.594z" />
    <glyph glyph-name="file"
      unicode="&#xE63B;"
      horiz-adv-x="448" d=" M262.625 448H32V0H384V326.625L262.625 448zM256 409.375L345.375 320H256V409.375zM352 32H64V416H224V288H352V32z" />
    <glyph glyph-name="file-code"
      unicode="&#xE63C;"
      horiz-adv-x="448" d=" M262.625 448H32V0H384V326.625L262.625 448zM256 409.375L345.375 320H256V409.375zM352 32H64V416H224V288H352V32zM148.688 116.687L73.375 192L148.688 267.313L171.313 244.688L118.625 192L171.313 139.312L148.688 116.687zM267.313 116.687L244.688 139.312L297.375 192L244.687 244.688L267.312 267.313L342.625 192L267.313 116.687z" />
    <glyph glyph-name="file-comment"
      unicode="&#xE63D;"
      horiz-adv-x="448" d=" M160 35.75V96H128V320H448V96H260.438L160 35.75zM160 128H192V92.25L251.563 128H416V288H160V128zM352 256H192V224H352V256zM352 192H224V160H352V192zM352 32H64V416H224V352H256V409.375L313.375 352H358.625L262.625 448H32V0H384V64H352V32z" />
    <glyph glyph-name="file-content"
      unicode="&#xE63E;"
      horiz-adv-x="448" d=" M262.625 448H32V0H384V326.625L262.625 448zM256 409.375L345.375 320H256V409.375zM352 32H64V416H224V288H352V32zM288 224H128V256H288V224zM288 160H128V192H288V160zM224 96H128V128H224V96zM192 288H128V320H192V288z" />
    <glyph glyph-name="file-image"
      unicode="&#xE63F;"
      horiz-adv-x="448" d=" M160 320V64H448V320H160zM192 288H416V118.625L352 182.625L320 150.625L256 214.625L192 150.625V288zM384 240C384 231.163 376.837 224 368 224S352 231.163 352 240S359.163 256 368 256S384 248.837 384 240zM384 32V0H32V448H262.625L358.625 352H313.375L256 409.375V352H224V416H64V32H384z" />
    <glyph glyph-name="file-preview"
      unicode="&#xE640;"
      horiz-adv-x="448" d=" M192 240C147.89 240 112 204.11 112 160C112 143.72 116.943 128.598 125.326 115.95L34.186 24.812L56.812 2.187L147.952 93.327C160.6 84.942 175.72 80 192 80C236.11 80 272 115.875 272 160C272 204.11 236.11 240 192 240zM192 112C184.395 112 177.295 113.94 170.898 117.102C161.428 121.782 153.781 129.43 149.101 138.899C145.941 145.292 144.001 152.392 144.001 159.999C144.001 186.4690000000001 165.531 207.999 192.001 207.999S240.001 186.4690000000001 240.001 159.999S218.471 111.999 192.001 111.999zM294.625 448H64V224H96V416H256V288H384V32H160V0H416V326.625L294.625 448zM288 320V409.375L377.375 320H288z" />
    <glyph glyph-name="file-symlink"
      unicode="&#xE641;"
      horiz-adv-x="448" d=" M294.625 448H64V288H96V416H256V288H384V32H288V0H416V326.625L294.625 448zM288 320V409.375L377.375 320H288zM192 192V64H160V137.375L75.312 52.687L52.687 75.312L137.375 160H64V192H192zM256 0H0V256H256V0zM32 32H224V224H32V32z" />
    <glyph glyph-name="fold-less"
      unicode="&#xE642;"
      horiz-adv-x="448" d=" M224 261.373L108.686 376.6860000000001L131.314 399.314L224 306.627L316.687 399.314L339.314 376.6860000000001L224 261.373zM339.313 71.313L224 186.627L108.686 71.313L131.314 48.686L224 141.372L316.687 48.686L339.313 71.3130000000001z" />
    <glyph glyph-name="fold-more"
      unicode="&#xE643;"
      horiz-adv-x="448" d=" M316.687 272.6860000000001L224 365.373L131.314 272.6860000000001L108.686 295.314L224 410.627L339.313 295.314L316.687 272.686zM339.313 152.686L316.686 175.314L224 82.628L131.314 175.314L108.686 152.687L224 37.373L339.313 152.687z" />
    <glyph glyph-name="folder"
      unicode="&#xE644;"
      horiz-adv-x="448" d=" M261.968 352L198.624 416H0V32H448V352H261.968z" />
    <glyph glyph-name="git"
      unicode="&#xE645;"
      horiz-adv-x="448" d=" M439.542 203.117L244.858 8.41C233.568 -2.803 215.31 -2.803 204.068 8.41L8.455 204.01C-2.82 215.286 -2.82 233.577 8.455 244.853L142.558 378.9700000000001L193.355 328.166C188.155 315.6860000000001 190.599 300.776 200.745 290.644C204.065 287.294 203.11 288.829 207.213 287.1520000000001V163.136C203.503 161.6330000000001 201.56 159.096 198.773 156.216C191.398 149.668 186.668 140.209 186.668 129.559C186.668 109.764 202.718 93.729 222.496 93.729C225.048 93.729 227.554 94.009 229.966 94.509C237.026 95.544 243.839 98.673 249.272 104.094C261.22 116.027 262.442 134.568 253.077 147.976C249.929 153.176 245.514 157.496 240.221 160.502V280.992L286.527 234.7020000000001C281.391 222.266 283.897 207.436 293.982 197.352C307.382 183.93 329.122 183.93 342.587 197.352C355.992 210.756 355.992 232.492 342.587 245.8990000000001C332.939 255.516 319.099 258.1790000000001 307.073 254.0440000000001L257.403 303.701C261.601 315.711 258.907 329.574 249.277 339.1910000000001C239.757 348.725 226.024 351.4350000000001 214.06 347.394L162.5099999999999 398.9190000000001L203.13 439.543C214.404 450.816 232.694 450.816 243.92 439.543L439.545 243.9430000000001C450.8249999999999 232.6650000000001 450.8249999999999 214.3900000000001 439.548 203.1130000000001z" />
    <glyph glyph-name="heartbeat"
      unicode="&#xE646;"
      horiz-adv-x="448" d=" M352 160H354.762L224 32.422L34.156 217.642C32.186 219.612 30.734 221.92 28.924 224H56.37L127.062 301.57L223.515 214.14L288 278.625L342.625 224H374.539L391.499 240.547C407.249 256.2970000000001 415.999 277.4220000000001 415.999 299.891C415.999 322.347 407.249 343.471 391.359 359.361C359.559 391.141 304.169 391.141 272.403 359.361L224 307.14L175.172 359.797C159.702 375.25 138.578 384 116.11 384C93.656 384 72.53 375.25 56.64 359.36S32 322.343 32 299.89C32 284.112 36.537 269.106 44.61 256H8.62C2.995 269.766 0 284.592 0 299.89C0 330.907 12.078 360.063 34.016 381.985C77.86 425.86 154.344 425.86 198.219 381.985L224 354.203L249.36 381.5470000000001C294.0780000000001 426.2970000000001 370.14 425.86 413.9840000000001 381.985C435.9220000000001 360.062 448 330.905 448 299.89S435.9220000000001 239.72 413.984 217.782L387.56 192H329.375L288 233.375L224.484 169.859L128.937 257.434L86.412 211.36L224 77.14L308.936 160H352z" />
    <glyph glyph-name="install"
      unicode="&#xE647;"
      horiz-adv-x="448" d=" M416 0H0V160H416V0zM32 32H384V128H32V32zM352 96H320V64H352V96zM275.875 306.906L224 255.03V448H192V255.03L140.125 306.906L117.5 284.28L208 193.78L298.5 284.28L275.875 306.906z" />
    <glyph glyph-name="link"
      unicode="&#xE648;"
      horiz-adv-x="448" d=" M256.1840000000001 303.788A118.69 118.69 0 0 0 283.5 283.5C322.876 244.124 328.43 185.62 295.9 153.09L164 21.183C131.47 -11.347 72.964 -5.792 33.59 33.583S-11.348 131.463 21.183 164L86.863 229.68A132.447 132.447 0 0 1 93.053 188.265L44.985 140.193C25.575 120.783 31.132 83.64 57.385 57.386S120.785 25.576 140.192 44.986L272.1 176.9C291.5100000000001 196.31 285.9530000000001 233.453 259.7000000000001 259.707A83.314 83.314 0 0 1 230.8630000000001 278.474zM217.134 169.53A83.314 83.314 0 0 0 188.3 188.3C162.046 214.554 156.49 251.7 175.9 271.1070000000001L307.81 403.0170000000001C327.2200000000001 422.427 364.363 416.87 390.617 390.617S422.427 327.2170000000001 403.017 307.8100000000001L354.95 259.7430000000001A132.447 132.447 0 0 0 361.14 218.329L426.816 284C459.346 316.53 453.791 375.036 414.416 414.41S316.536 459.348 284 426.817L152.09 294.9070000000001C119.56 262.377 125.115 203.871 164.49 164.497A118.69 118.69 0 0 1 191.81 144.213z" />
    <glyph glyph-name="logo-visual-studio"
      unicode="&#xE649;"
      horiz-adv-x="448" d=" M336 448L160 272L42.664 362.664L0 335.742V112L42.664 85.344L160 176L336 0L448 48V405.336L336 448zM48 160V288L112 224L48 160zM336 128L224 224L336 320V128z" />
    <glyph glyph-name="logo-windows"
      unicode="&#xE64A;"
      horiz-adv-x="448" d=" M0 252H168V412.825L0 389.3450000000001V252zM196 416.734V252H420V448L196 416.734zM196 59.299L420 28.029V224H196V59.3zM0 86.654L168 63.204V224H0V86.657z" />
    <glyph glyph-name="mail-message"
      unicode="&#xE64B;"
      horiz-adv-x="448" d=" M0 384V96H448V384H0zM405.223 352L224 261.39L42.777 352H405.223zM32 128V321.61L224 225.61L416 321.61V128H32z" />
    <glyph glyph-name="math-minus"
      unicode="&#xE64C;"
      horiz-adv-x="448" d=" M352 192H96V256H352V192z" />
    <glyph glyph-name="math-minus-box"
      unicode="&#xE64D;"
      horiz-adv-x="448" d=" M0 448V0H448V448H0zM352 192H96V256H352V192z" />
    <glyph glyph-name="math-minus-circle"
      unicode="&#xE64E;"
      horiz-adv-x="448" d=" M224 448C100.49 448 0 347.51 0 224S100.49 0 224 0S448 100.49 448 224S347.51 448 224 448zM352 192H96V256H352V192z" />
    <glyph glyph-name="math-multiply"
      unicode="&#xE64F;"
      horiz-adv-x="448" d=" M269.25 224L350.625 142.625L305.375 97.375L224 178.75L142.625 97.375L97.375 142.625L178.75 224L97.375 305.375L142.625 350.625L224 269.25L305.375 350.625L350.625 305.375L269.25 224z" />
    <glyph glyph-name="math-plus-box"
      unicode="&#xE650;"
      horiz-adv-x="448" d=" M0 448V0H448V448H0zM352 192H256V96H192V192H96V256H192V352H256V256H352V192z" />
    <glyph glyph-name="math-plus-circle"
      unicode="&#xE651;"
      horiz-adv-x="448" d=" M224 448C100.49 448 0 347.51 0 224S100.49 0 224 0S448 100.49 448 224S347.51 448 224 448zM352 192H256V96H192V192H96V256H192V352H256V256H352V192z" />
    <glyph glyph-name="math-plus-heavy"
      unicode="&#xE652;"
      horiz-adv-x="448" d=" M352 192H256V96H192V192H96V256H192V352H256V256H352V192z" />
    <glyph glyph-name="math-plus"
      unicode="&#xE653;"
      horiz-adv-x="448" d=" M352 192H256V96H192V192H96V256H192V352H256V256H352V192z" />
    <glyph glyph-name="media-play"
      unicode="&#xE654;"
      horiz-adv-x="448" d=" M64 448V0L384 224L64 448zM96 386.5470000000001L328.188 224L96 61.47V386.546z" />
    <glyph glyph-name="menu"
      unicode="&#xE655;"
      horiz-adv-x="448" d=" M384 320H64V352H384V320zM384 256H64V224H384V256zM384 160H64V128H384V160z" />
    <glyph glyph-name="navigate-back-circle"
      unicode="&#xE656;"
      horiz-adv-x="448" d=" M208 32C93.313 32 0 125.312 0 240S93.313 448 208 448S416 354.687 416 240S322.688 32 208 32zM208 416C110.953 416 32 337.0470000000001 32 240C32 142.97 110.953 64 208 64C305.03 64 384 142.97 384 240C384 337.0470000000001 305.03 416 208 416zM320 256H147.717L222.219 330.516L199.59 353.14L86.47 240L199.594 126.875L222.22 149.5L147.72 224H320V256z" />
    <glyph glyph-name="navigate-back-disc"
      unicode="&#xE657;"
      horiz-adv-x="448" d=" M208 448C93.125 448 0 354.875 0 240S93.125 32 208 32S416 125.125 416 240S322.875 448 208 448zM320 224H147.72L222.22 149.5L199.594 126.875L86.47 240L199.593 353.14L222.218 330.516L147.716 256H320V224z" />
    <glyph glyph-name="navigate-close"
      unicode="&#xE658;"
      horiz-adv-x="448" d=" M246.625 224L427.313 43.312L404.688 20.687L224 201.375L43.313 20.687L20.688 43.312L201.375 224L20.688 404.687L43.313 427.312L224 246.625L404.688 427.312L427.313 404.687L246.625 224z" />
    <glyph glyph-name="navigate-external"
      unicode="&#xE659;"
      horiz-adv-x="448" d=" M352 96H96V352H160V320H128V128H320V160H352V96zM224 352V320H297.373L212.686 235.313L235.313 212.686L320 297.373V224H352V352H224z" />
    <glyph glyph-name="navigate-forward-circle"
      unicode="&#xE65A;"
      horiz-adv-x="448" d=" M208 32C93.313 32 0 125.312 0 240S93.313 448 208 448S416 354.687 416 240S322.688 32 208 32zM208 416C110.953 416 32 337.0470000000001 32 240C32 142.97 110.953 64 208 64C305.03 64 384 142.97 384 240C384 337.0470000000001 305.03 416 208 416zM216.406 353.14L193.781 330.516L268.286 256H96V224H268.28L193.78 149.5L216.406 126.875L329.53 240L216.407 353.14z" />
    <glyph glyph-name="navigate-forward-disc"
      unicode="&#xE65B;"
      horiz-adv-x="448" d=" M208 448C93.125 448 0 354.875 0 240S93.125 32 208 32S416 125.125 416 240S322.875 448 208 448zM216.406 126.875L193.78 149.5L268.28 224H96V256H268.283L193.781 330.516L216.41 353.14L329.53 240L216.407 126.875z" />
    <glyph glyph-name="navigate-history"
      unicode="&#xE65C;"
      horiz-adv-x="448" d=" M444.156 224C444.156 100.5 343.656 0 220.14 0C119.875 0 31.172 67.562 4.438 164.28L35.282 172.78C58.188 89.907 134.202 32 220.142 32C326.032 32 412.157 118.125 412.157 224S326.03 416 220.14 416C151.073 416 88.362 378.437 54.473 320H128V288H0V416H32V343.99C72.523 407.46 142.8 448 220.14 448C343.656 448 444.156 347.516 444.156 224zM299.844 138.75L224 222.187V352H192V209.812L276.156 117.249L299.844 138.749z" />
    <glyph glyph-name="navigate-refresh"
      unicode="&#xE65D;"
      horiz-adv-x="448" d=" M448 224C448 166.305 425.532 112.062 384.735 71.265S289.695 8 232 8C174.304 8 120.062 30.468 79.265 71.265C38.468 112.062 16 166.305 16 224C16 271.668 31.22 316.8640000000001 60.02 354.702C79.494 380.294 104.683 401.2920000000001 133.086 416H32V448H192V288H160V393.366C93.115 364.823 48 297.986 48 224C48 122.542 130.542 40 232 40S416 122.542 416 224C416 282.413 389.18 336.067 342.4120000000001 371.2050000000001L361.6350000000001 396.788C387.8600000000001 377.084 409.5890000000001 351.266 424.4730000000001 322.126C440.0830000000001 291.56 448 258.546 448 224z" />
    <glyph glyph-name="navigate-reload"
      unicode="&#xE65E;"
      horiz-adv-x="448" d=" M448 224C448 166.305 425.532 112.062 384.735 71.265S289.695 8 232 8C174.304 8 120.062 30.468 79.265 71.265C38.468 112.062 16 166.305 16 224C16 271.668 31.22 316.8640000000001 60.02 354.702C79.494 380.294 104.683 401.2920000000001 133.086 416H32V448H192V288H160V393.366C93.115 364.823 48 297.986 48 224C48 122.542 130.542 40 232 40S416 122.542 416 224C416 282.413 389.18 336.067 342.4120000000001 371.2050000000001L361.6350000000001 396.788C387.8600000000001 377.084 409.5890000000001 351.266 424.4730000000001 322.126C440.0830000000001 291.56 448 258.546 448 224z" />
    <glyph glyph-name="package"
      unicode="&#xE65F;"
      horiz-adv-x="448" d=" M324.6 352C345.2200000000001 383.512 333.2430000000001 408.4700000000001 325.3440000000001 419.2970000000001C317.374 430.235 303.8440000000001 437.767 288.2500000000001 439.969C270.8750000000001 442.419 253.1560000000001 437.982 239.8750000000001 427.699C228.1700000000001 418.634 216.7650000000001 397.835 207.9980000000001 378.649C199.228 397.837 187.8140000000001 418.639 176.0940000000001 427.7150000000001C162.406 438.312 143.5 442.812 125.53 439.906C110.312 437.376 97.437 429.626 90.187 418.64C84.52 409.992 71.857 383.953 91.937 352H0V0H416V352H324.6zM259.4700000000001 402.406C265.9380000000001 407.39 274.625 409.516 283.7820000000001 408.296C290.6570000000001 407.313 296.6880000000001 404.296 299.5020000000001 400.438C309.4070000000001 386.875 303.6570000000001 370.594 282.4380000000001 352H231.2820000000001C240.7820000000001 374.828 252.2190000000001 396.78 259.4690000000001 402.406zM116.938 401.062C119.188 404.5 124.501 407.296 130.782 408.342C140.282 409.827 149.752 407.64 156.502 402.4220000000001C163.782 396.796 175.22 374.827 184.72 351.999H133.595C118.625 365.263 105.405 383.513 116.938 401.059zM192 32H32V160H192V32zM192 192H32V320H192V192zM384 32H224V160H384V32zM384 192H224V320H384V192z" />
    <glyph glyph-name="pin"
      unicode="&#xE660;"
      horiz-adv-x="448" d=" M289.84 443.562L278.525 432.25C260.422 414.147 252.485 388.468 256.745 363.374L175.385 282.014C158.201 287.51 139.971 288.7290000000001 122.058 285.517C99.888 281.5420000000001 79.725 270.997 63.751 255.023L52.44 243.71L135.94 160.208L6.875 30.688L0 0L31.97 7.656L160.236 135.91L243.706 52.4400000000001L255.02 63.7520000000001C270.996 79.7260000000001 281.54 99.8880000000001 285.515 122.0580000000001C288.727 139.972 287.505 158.203 282.012 175.388L363.372 256.7480000000001C388.4720000000001 252.4880000000001 414.147 260.4250000000001 432.247 278.5260000000001L443.56 289.8390000000001L289.84 443.56zM362.917 289.6520000000001L353.767 292.394L244.42 183.047L248.745 173.0650000000001C259.479 148.2910000000001 256.862 120.6070000000001 242.555 98.845L98.845 242.5550000000001C120.605 256.86 148.293 259.48 173.065 248.7450000000001L183.047 244.4200000000001L292.395 353.767L289.655 362.9170000000001C286.271 374.213 287.188 386.051 291.875 396.272L396.273 291.872C386.05 287.187 374.213 286.272 362.9170000000001 289.652z" />
    <glyph glyph-name="repo-git"
      unicode="&#xE661;"
      horiz-adv-x="448" d=" M313.96 145.082L174.9 6.007C166.836 -2.003 153.793 -2.003 145.764 6.007L6.042 145.72C-2.012 153.773 -2.012 166.84 6.042 174.893L101.828 270.6910000000001L138.113 234.4060000000001C134.398 225.4910000000001 136.143 214.841 143.39 207.603C145.76 205.21 145.08 206.3080000000001 148.01 205.1110000000001V116.5290000000001C145.358 115.4540000000001 143.973 113.643 141.982 111.585C136.715 106.9110000000001 133.336 100.152 133.336 92.545C133.336 78.408 144.798 66.952 158.926 66.952C160.75 66.952 162.539 67.152 164.26 67.512C169.306 68.252 174.17 70.485 178.052 74.357C186.586 82.882 187.457 96.127 180.769 105.701C178.519 109.415 175.364 112.501 171.585 114.651V200.711L204.6570000000001 167.645C200.989 158.762 202.7770000000001 148.17 209.9810000000001 140.967C219.5550000000001 131.38 235.0810000000001 131.38 244.7010000000001 140.967C254.2750000000001 150.541 254.2750000000001 166.067 244.7010000000001 175.642C237.8080000000001 182.512 227.9230000000001 184.416 219.3340000000001 181.462L183.8520000000001 216.932C186.8500000000001 225.512 184.9270000000001 235.412 178.0470000000001 242.282C171.2470000000001 249.092 161.4400000000001 251.028 152.8930000000001 248.142L116.0730000000001 284.942L145.0880000000001 313.962C153.1400000000001 322.012 166.2080000000001 322.012 174.2250000000001 313.962L313.9550000000001 174.247C322.0120000000001 166.194 322.0120000000001 153.141 313.9570000000001 145.087zM256 288L361.373 182.627C373.87 170.13 373.87 149.869 361.373 137.372L224 0H416V288H256zM64 288H32V256L64 288zM32 64V0H96L32 64zM0 416V320H96L137.373 361.373C149.87 373.87 170.131 373.87 182.628 361.373L224 320H448V416H0z" />
    <glyph glyph-name="repo-tfvc"
      unicode="&#xE662;"
      horiz-adv-x="448" d=" M137.146 0H112.68C116.924 8.785 119.813 18.346 120.782 28.484C124.272 17.854 130.012 8.311 137.146 0zM154.126 273.016C158.873 278.789 164.566 283.646 170.658 288H132.878C140.436 283.7000000000001 147.66 278.86 154.125 273.016zM0 416V320H448V416H0zM304 219.422C304 175.5 270.344 139.282 227.47 135.234C261.25 124.156 285.7200000000001 92.312 285.7200000000001 54.859C285.7200000000001 33.829 277.7270000000001 14.809 264.983 -0.001H416V288H268.545C289.925 272.637 304 247.705 304 219.422zM237.714 54.857C237.714 34.643 221.354 18.287 201.144 18.287S164.572 34.643 164.572 54.857C164.572 61.643 166.536 67.893 169.752 73.321L117.787 125.288C105.392 115.6809999999999 90.037 109.718 73.144 109.718C70.177 109.718 67.358 110.253 64.501 110.61L54.006 68.54C65.361 62.36 73.146 50.43 73.146 36.574C73.146 16.36 56.788 0.004 36.576 0.004S0 16.356 0 36.57C0 56.676 16.217 72.962 36.286 73.105L46.712 114.855C19.432 125.465 0 151.82 0 182.857C0 223.25 32.75 256 73.143 256C104.176 256 130.573 236.574 141.181 209.288L182.896 219.714C183.035 239.786 199.32 256 219.43 256C239.64 256 256 239.643 256 219.43C256 199.25 239.64 182.858 219.43 182.858C205.572 182.858 193.643 190.644 187.465 202.038L145.43 191.5C145.752 188.643 146.286 185.824 146.286 182.857C146.286 165.964 140.322 150.607 130.716 138.214L182.679 86.2499999999999C188.109 89.4639999999999 194.359 91.43 201.139 91.43C221.352 91.43 237.709 75.0699999999999 237.709 54.857zM109.714 182.857C109.714 203.071 93.354 219.427 73.144 219.427S36.572 203.071 36.572 182.857S52.932 146.287 73.142 146.287S109.714 162.643 109.714 182.857z" />
    <glyph glyph-name="repo"
      unicode="&#xE663;"
      horiz-adv-x="448" d=" M448 320H0V416H448V320zM288 288V96L224 160L160 96V288H32V0H416V288H288z" />
    <glyph glyph-name="repository-submodule"
      unicode="&#xE664;"
      horiz-adv-x="448" d=" M74.516 32H0V106.516L74.516 32zM261.9700000000001 352L198.623 416H0V214.11L122.47 336.5780000000001C132.374 346.516 145.61 352 159.67 352C173.748 352 186.983 346.5 196.904 336.516L336.576 196.876C346.529 186.936 351.9980000000001 173.7190000000001 351.9980000000001 159.6560000000001C351.9980000000001 145.609 346.528 132.3900000000001 336.576 122.4530000000001L246.136 32H448V352H261.9700000000001zM313.9600000000001 145.084L174.9 6.008C166.835 -2.002 153.793 -2.002 145.763 6.008L6.04 145.722C-2.014 153.776 -2.014 166.842 6.04 174.896L101.827 270.693L138.111 234.405C134.401 225.491 136.145 214.841 143.391 207.605C145.761 205.21 145.081 206.308 148.011 205.11V116.5269999999999C145.361 115.4529999999999 143.971 113.6409999999999 141.981 111.5829999999999C136.715 106.9069999999999 133.337 100.1499999999999 133.337 92.5429999999999C133.337 78.4059999999999 144.801 66.9499999999999 158.927 66.9499999999999C160.751 66.9499999999999 162.541 67.1499999999999 164.263 67.5099999999999C169.308 68.2499999999999 174.173 70.4839999999999 178.053 74.3559999999999C186.589 82.8799999999999 187.461 96.1229999999999 180.773 105.6999999999999C178.523 109.4139999999999 175.3710000000001 112.4999999999999 171.59 114.6479999999999V200.7129999999999L204.6630000000001 167.6469999999998C200.9930000000001 158.7649999999998 202.7830000000001 148.1719999999998 209.989 140.9669999999998C219.561 131.3819999999998 235.0890000000001 131.3819999999998 244.706 140.9669999999998C254.281 150.5429999999998 254.281 166.0689999999998 244.706 175.6449999999998C237.8160000000001 182.5149999999998 227.9290000000001 184.4149999999998 219.339 181.4619999999998L183.859 216.9319999999998C186.859 225.5099999999998 184.934 235.4119999999998 178.055 242.2799999999998C171.255 249.0899999999998 161.4450000000001 251.0259999999998 152.9 248.1399999999998L116.0800000000001 284.9439999999999L145.0940000000001 313.9609999999998C153.1480000000001 322.0159999999999 166.2120000000001 322.0159999999999 174.2310000000001 313.9609999999998L313.96 174.25C322.02 166.196 322.02 153.143 313.964 145.088z" />
    <glyph glyph-name="repository"
      unicode="&#xE665;"
      horiz-adv-x="448" d=" M448 320H0V416H448V320zM288 288V96L224 160L160 96V288H32V0H416V288H288z" />
    <glyph glyph-name="save"
      unicode="&#xE666;"
      horiz-adv-x="448" d=" M224 0H160V96H224V0zM448 0H352V160H96V0H64L0 64V447.998H448V0zM384 256V384H64V256H384z" />
    <glyph glyph-name="search-filter"
      unicode="&#xE667;"
      horiz-adv-x="448" d=" M288 0H160V202.203L0 394.203V448H448V394.203L288 202.203V0zM192 32H256V213.797L416 405.7970000000001V416H32V405.7970000000001L192 213.797V32z" />
    <glyph glyph-name="search"
      unicode="&#xE668;"
      horiz-adv-x="448" d=" M293.344 448C208.064 448 138.672 378.61 138.672 293.328C138.672 256.4650000000001 152.174 223.028 173.782 196.424L4.69 27.312C-1.56 21.062 -1.56 10.937 4.69 4.687C7.813 1.562 11.906 0 16 0S24.188 1.563 27.313 4.688L196.405 173.795C223.0150000000001 152.168 256.4650000000001 138.655 293.3450000000001 138.655C378.625 138.655 448 208.047 448 293.328S378.625 448 293.344 448zM293.344 170.656C225.704 170.656 170.672 225.686 170.672 293.328S225.702 416 293.344 416C360.9700000000001 416 416 360.9700000000001 416 293.328S360.9700000000001 170.656 293.344 170.656z" />
    <glyph glyph-name="security"
      unicode="&#xE669;"
      horiz-adv-x="448" d=" M416 396.714V276.684C416 177.581 347.32 77.384 236.75 15.186L224 8L211.25 15.186C100.68 77.384 32 177.58 32 276.6860000000001V396.713H59.43C97.733 396.713 129.286 404.301 150.66 418.73C189.233 446.9 257.966 447.475 298.144 418.157C318.714 404.303 350.269 396.7150000000001 388.574 396.7150000000001H416zM256 128H192V64H256V128zM256 384H192V160H256V384z" />
    <glyph glyph-name="security-access"
      unicode="&#xE66A;"
      horiz-adv-x="448" d=" M448 0H332.778V55.468H277.31V110.936H221.842V154.36C200.865 144.036 178.074 138.655 154.672 138.655C69.39 138.655 0 208.045 0 293.327S69.39 448 154.673 448S309.346 378.61 309.346 293.327C309.346 279.2970000000001 307.25 265.327 302.964 250.905L448 105.837V0zM364.813 32.036H415.963V92.572L266.14 242.412L269.583 251.969C274.776 266.373 277.31 279.903 277.31 293.325C277.31 360.947 222.294 415.962 154.672 415.962S32.036 360.95 32.036 293.327S87.05 170.69 154.673 170.69C180.749 170.69 205.949 179.168 227.551 195.25L231.809 198.41H253.129L253.881 182.39V142.972H309.348V87.504H364.8160000000001V32.0359999999999zM111.875 364.156C96.393 364.156 83.845 351.606 83.845 336.126C83.845 320.6430000000001 96.395 308.094 111.875 308.094S139.905 320.644 139.905 336.124C139.905 351.606 127.357 364.156 111.875 364.156z" />
    <glyph glyph-name="security-lock"
      unicode="&#xE66B;"
      horiz-adv-x="448" d=" M288 256V352C288 410.313 250.312 448 192 448S96 410.312 96 352V256H32V0H352V256H288zM128 352C128 392.6720000000001 151.328 416 192 416S256 392.6720000000001 256 352V256H128V352zM320 32H64V224H320V32zM208.018 132.916L208.063 64H176.063L176.018 132.893C166.613 138.467 160 148.277 160 160C160 177.674 174.326 192 192 192S224 177.674 224 160C224 148.293 217.4 138.494 208.018 132.916z" />
    <glyph glyph-name="security-unlock"
      unicode="&#xE66C;"
      horiz-adv-x="448" d=" M352 448C293.687 448 256 410.312 256 352V256H32V0H352V256H288V352C288 392.6720000000001 311.313 416 352 416S416 392.6720000000001 416 352V256H448V352C448 410.312 410.313 448 352 448zM320 224V32H64V224H320zM208.018 132.916L208.063 64H176.063L176.018 132.893C166.613 138.467 160 148.277 160 160C160 177.674 174.326 192 192 192S224 177.674 224 160C224 148.293 217.4 138.494 208.018 132.916z" />
    <glyph glyph-name="separator"
      unicode="&#xE66D;"
      horiz-adv-x="448" d=" M224 32H192V416H224V32z" />
    <glyph glyph-name="settings-gear"
      unicode="&#xE66E;"
      horiz-adv-x="448" d=" M390.317 224C390.317 229.116 389.265 233.938 388.812 238.936L448 275.866L419.07 345.7080000000001L351.188 329.991C344.75 337.709 337.711 344.746 329.998 351.1810000000001L345.718 419.067L275.874 447.998L238.944 388.81C233.944 389.263 229.1190000000001 390.317 224 390.317C218.884 390.317 214.065 389.265 209.066 388.812L172.138 448L102.292 419.07L118.01 351.19C110.294 344.752 103.257 337.713 96.82 330L28.936 345.7200000000001L0.004 275.874L59.19 238.944C58.737 233.944 57.683 229.119 57.683 224C57.683 218.883 58.735 214.064 59.188 209.065L0 172.138L28.93 102.292L96.81 118.01C103.248 110.294 110.287 103.257 118 96.82L102.28 28.938L172.125 0.004L209.051 59.1899999999999C214.056 58.737 218.879 57.6829999999999 224.001 57.6829999999999C229.116 57.6829999999999 233.935 58.735 238.934 59.1879999999999L275.863 0L345.708 28.93L329.991 96.812C337.709 103.25 344.746 110.289 351.181 118.002L419.065 102.282L447.999 172.126L388.8130000000001 209.056C389.266 214.056 390.3210000000001 218.881 390.3210000000001 224zM148.4 224C148.4 265.752 182.248 299.6 224 299.6S299.6 265.752 299.6 224C299.6 182.25 265.752 148.4 224 148.4S148.4 182.25 148.4 224zM256 224C256 206.327 241.673 192 224 192S192 206.327 192 224S206.327 256 224 256S256 241.673 256 224z" />
    <glyph glyph-name="settings-wrench"
      unicode="&#xE66F;"
      horiz-adv-x="448" d=" M432.006 387.205C441.896 369.81 448 349.973 448 328.533C448 262.553 394.515 209.067 328.534 209.067C319.341 209.067 310.486 210.324 301.894 212.289L108.164 18.559C83.421 -6.187 43.304 -6.187 18.559 18.559C-6.191 43.301 -6.191 83.4210000000001 18.559 108.163L212.284 301.8930000000001C210.319 310.485 209.064 319.3400000000001 209.064 328.531C209.065 394.512 262.555 448 328.533 448C349.973 448 369.8090000000001 441.894 387.206 432.005L298.666 343.465L321.066 321.065L343.466 298.665L432.006 387.205z" />
    <glyph glyph-name="share"
      unicode="&#xE670;"
      horiz-adv-x="448" d=" M339.2200000000001 70.874C340.125 66.814 340.656 62.624 340.656 58.314C340.656 26.124 314.531 0 282.314 0C250.124 0 224 26.125 224 58.314C224 90.532 250.1250000000001 116.624 282.314 116.624C298.468 116.624 313.0940000000001 110.064 323.658 99.437C360.314 128.75 384 173.53 384 224C384 260.328 371.376 293.484 350.874 320.375C359.5340000000001 327.515 366.749 336.155 372.25 346C399.562 312.844 416 270.344 416 224C416 161.313 385.686 105.907 339.2200000000001 70.874zM293.657 448C270.499 448 250.624 434.36 241.217 414.766C235.5 415.296 229.845 416 224 416C152.97 416 91.094 377.313 57.875 319.953L58.313 320C70.033 320 81.157 317.594 91.469 313.5C120.25 356 168.903 384 224 384C228.094 384 232.03 383.4700000000001 236 383.094C239.313 354.0470000000001 263.718 331.36 293.658 331.36C325.8760000000001 331.36 352 357.485 352 389.673C352 421.89 325.875 448 293.658 448zM195.624 34.438C193.5 42.093 192 50 192 58.314C192 61.7840000000001 192.47 65.127 192.875 68.468C136.531 79.75 90.845 120.125 72.687 173.375C97.907 179.812 116.657 202.485 116.657 229.687C116.657 261.9070000000001 90.531 288 58.312 288C26.125 288 0 261.906 0 229.687C0 204.25 16.406 182.843 39.156 174.875C58.594 101.811 119.5 45.718 195.626 34.438z" />
    <glyph glyph-name="shop"
      unicode="&#xE671;"
      horiz-adv-x="448" d=" M343 352V362.656C343 409.626 304.6720000000001 447.844 257.703 447.844C243.128 447.844 228.938 444.07 216.211 436.864C203.87 443.84 189.49 447.844 174.327 447.844C127.356 447.844 89 409.624 89 362.654V352H32V64C32 32.312 64.313 0 96 0H320C351.688 0 384 32.313 384 64V352H343zM311 362.656V352H260V362.656C260 381.863 253.39 399.602 242.63 413.866C247.542 415.376 252.48 416.156 257.657 416.156C287.157 416.156 311 392.156 311 362.656zM121 362.656C121 392.156 145.016 416.156 174.516 416.156C203.986 416.156 228 392.156 228 362.656V352H121V362.656zM352 64C352 49.937 334.062 32 320 32C305.594 32 288 43.813 288 57.594V320H352V64z" />
    <glyph glyph-name="social-facebook"
      unicode="&#xE672;"
      horiz-adv-x="448" d=" M24.727 448.027C11.07 448.027 0 436.957 0 423.3V24.754C0 11.099 11.067 0.027 24.727 0.027H239.29V173.5170000000001H180.91V241.1270000000001H239.29V290.9930000000001C239.29 348.8570000000001 274.63 380.3630000000001 326.25 380.3630000000001C350.977 380.3630000000001 372.23 378.523 378.4220000000001 377.6990000000001V317.225L342.62 317.2080000000001C314.55 317.2080000000001 309.113 303.8680000000001 309.113 284.2920000000001V241.1260000000001H376.0660000000001L367.346 173.513H309.113V0.023H423.277C436.93 0.023 448.001 11.093 448.001 24.75V423.3C448.001 436.957 436.935 448.026 423.281 448.026H24.728z" />
    <glyph glyph-name="social-twitter"
      unicode="&#xE673;"
      horiz-adv-x="448" d=" M402.127 315.365L402.397 303.471C402.397 182.027 309.957 41.967 140.889 41.967C88.989 41.967 40.673 57.177 -0.001 83.247C7.189 82.3969999999999 14.511 81.971 21.929 81.971C64.979 81.971 104.623 96.6639999999999 136.071 121.3249999999999C95.843 122.065 61.908 148.6519999999999 50.216 185.1619999999999C55.836 184.089 61.594 183.507 67.506 183.507C75.884 183.507 84.016 184.627 91.72 186.732C49.678 195.175 17.984 232.312 17.984 276.842V278.007C30.371 271.13 44.549 266.987 59.624 266.517C34.962 282.979 18.744 311.112 18.744 343.007C18.744 359.852 23.27 375.643 31.199 389.217C76.513 333.6 144.249 297.022 220.629 293.192C219.059 299.9119999999999 218.254 306.9219999999999 218.254 314.135C218.254 364.891 259.401 406.038 310.1570000000001 406.038C336.5870000000001 406.038 360.463 394.883 377.24 377.008C398.1840000000001 381.131 417.85 388.791 435.61 399.318C428.7580000000001 377.86 414.176 359.851 395.204 348.473C413.794 350.693 431.514 355.643 447.998 362.943C435.656 344.511 420.068 328.317 402.125 315.37z" />
    <glyph glyph-name="sort-ascending"
      unicode="&#xE674;"
      horiz-adv-x="448" d=" M224 1.375H192V386.75L43.313 238.063L20.688 260.688L208 448L395.313 260.687L372.688 238.062L224 386.75V1.375z" />
    <glyph glyph-name="sort-descending"
      unicode="&#xE675;"
      horiz-adv-x="448" d=" M224 448V62.625L372.688 211.313L395.313 188.688L208 1.375L20.688 188.687L43.313 211.312L192 62.625V448H224z" />
    <glyph glyph-name="square"
      unicode="&#xE676;"
      horiz-adv-x="448" d=" M416 32H32V416H416V32z" />
    <glyph glyph-name="status-error"
      unicode="&#xE677;"
      horiz-adv-x="448" d=" M224 448C100.49 448 0 347.51 0 224S100.49 0 224 0S448 100.49 448 224S347.51 448 224 448zM256 64H192V128H256V64zM256 160H192V384H256V160z" />
    <glyph glyph-name="status-failure"
      unicode="&#xE678;"
      horiz-adv-x="448" d=" M224 448C100.49 448 0 347.51 0 224S100.49 0 224 0S448 100.49 448 224S347.51 448 224 448zM350.625 142.625L305.375 97.375L224 178.75L142.625 97.375L97.375 142.625L178.75 224L97.375 305.375L142.625 350.625L224 269.25L305.375 350.625L350.625 305.375L269.25 224L350.625 142.625z" />
    <glyph glyph-name="status-help"
      unicode="&#xE679;"
      horiz-adv-x="448" d=" M224 448C100.49 448 0 347.51 0 224S100.49 0 224 0S448 100.49 448 224S347.51 448 224 448zM256 64H192V128H256V64zM297.28 236.797L263.406 202.907C258.78 198.11 256 191.125 256 183.625V160H192V183.625C192 207.781 201.14 230.547 217.734 247.75L251.656 281.6720000000001C256.312 286.485 259.062 293.452 259.062 300.952C259.062 320.282 243.328 329.522 223.999 329.522S188.95 320 188.95 288H124.95C124.95 352 169.388 393.523 223.997 393.523C278.621 393.523 323.059 352.323 323.059 297.713C323.059 273.527 313.901 253.969 297.276 236.797z" />
    <glyph glyph-name="status-info-outline"
      unicode="&#xE67A;"
      horiz-adv-x="448" d=" M208 32C93.313 32 0 125.312 0 240S93.313 448 208 448S416 354.687 416 240S322.688 32 208 32zM208 416C110.953 416 32 337.0470000000001 32 240C32 142.97 110.953 64 208 64C305.03 64 384 142.97 384 240C384 337.0470000000001 305.03 416 208 416zM224 352H192V320H224V352zM192 128H224V288H192V128z" />
    <glyph glyph-name="status-info"
      unicode="&#xE67B;"
      horiz-adv-x="448" d=" M224 448C100.49 448 0 347.51 0 224S100.49 0 224 0S448 100.49 448 224S347.51 448 224 448zM256 64H192V288H256V64zM256 320H192V384H256V320z" />
    <glyph glyph-name="status-success"
      unicode="&#xE67C;"
      horiz-adv-x="448" d=" M224 448C100.49 448 0 347.51 0 224S100.49 0 224 0S448 100.49 448 224S347.51 448 224 448zM179.203 100.344L89.375 190.157L134.625 235.423L179.203 190.845L313.375 325.033L358.625 279.783L179.203 100.343z" />
    <glyph glyph-name="status-waiting"
      unicode="&#xE67D;"
      horiz-adv-x="448" d=" M224 0C100.484 0 0 100.5 0 224C0 347.516 100.484 448 224 448C347.5 448 448 347.516 448 224C448 100.5 347.5 0 224 0zM224 416C118.125 416 32 329.875 32 224S118.125 32 224 32S416 118.125 416 224S329.875 416 224 416zM320 224H224V352H192V192H320V224z" />
    <glyph glyph-name="status-warning"
      unicode="&#xE67E;"
      horiz-adv-x="448" d=" M224 448L0 0H448L224 448zM256 32H192V96H256V32zM192 128V320H256V128H192z" />
    <glyph glyph-name="switch"
      unicode="&#xE67F;"
      horiz-adv-x="448" d=" M441.53 304L328.407 190.844L305.782 213.484L380.284 288H160V320H380.283L305.78 394.516L328.406 417.141L441.53 304zM142.22 234.516L119.594 257.141L6.47 144L119.594 30.875L142.22 53.5L67.72 128H288V160H67.717L142.219 234.516z" />
    <glyph glyph-name="tag"
      unicode="&#xE680;"
      horiz-adv-x="448" d=" M192 25.375L25.375 192L281.375 448H448V281.375L192 25.375zM70.625 192L192 70.625L416 294.625V416H294.625L70.625 192zM352 384C334.327 384 320 369.673 320 352S334.327 320 352 320S384 334.327 384 352S369.673 384 352 384z" />
    <glyph glyph-name="tfvc-branch-locked"
      unicode="&#xE681;"
      horiz-adv-x="448" d=" M376 368C376 407.7 343.7 440 304 440S232 407.7 232 368C232 333.8 255.977 305.112 288 297.814V288H320V297.814C352.023 305.112 376 333.799 376 368zM304 328C281.944 328 264 345.944 264 368S281.944 408 304 408S344 390.056 344 368S326.056 328 304 328zM224 160V192H128V297.814C160.023 305.112 184 333.799 184 368C184 407.7 151.7 440 112 440S40 407.7 40 368C40 333.8 63.977 305.112 96 297.814V142.186C63.977 134.888 40 106.2 40 72C40 32.3 72.3 0 112 0S184 32.3 184 72C184 106.2 160.023 134.888 128 142.186V160H224zM72 368C72 390.056 89.944 408 112 408S152 390.056 152 368S134.056 328 112 328S72 345.944 72 368zM152 72C152 49.944 134.056 32 112 32S72 49.944 72 72S89.944 112 112 112S152 94.056 152 72zM416 160V169.41C416 189.513 410.368 208.058 400.14 221.6330000000001C388.473 237.1190000000001 371.376 245.648 352 245.648S315.527 237.118 303.86 221.6330000000001C293.63 208.06 288 189.513 288 169.41V160H256V0H448V160H416zM320 169.41C320 191.43 329.895 213.648 352 213.648S384 191.428 384 169.411V160H320V169.41zM416 32H288V128H416V32z" />
    <glyph glyph-name="tfvc-branch"
      unicode="&#xE682;"
      horiz-adv-x="448" d=" M376 368C376 407.7 343.7 440 304 440S232 407.7 232 368C232 333.8 255.977 305.112 288 297.814V256L288.04 254.862C288.0630000000001 254.542 289.85 222.432 273.13 204.478C265.31 196.082 254.474 192 240 192H128V297.814C160.023 305.112 184 333.799 184 368C184 407.7 151.7 440 112 440S40 407.7 40 368C40 333.8 63.977 305.112 96 297.814V142.186C63.977 134.888 40 106.2 40 72C40 32.3 72.3 0 112 0S184 32.3 184 72C184 106.2 160.023 134.888 128 142.186V160H240C263.514 160 282.54 167.627 296.55 182.67C321.49 209.453 320.315 250.504 320 256.467V297.814C352.023 305.112 376 333.7990000000001 376 368zM72 368C72 390.056 89.944 408 112 408S152 390.056 152 368S134.056 328 112 328S72 345.944 72 368zM152 72C152 49.944 134.056 32 112 32S72 49.944 72 72S89.944 112 112 112S152 94.056 152 72zM264 368C264 390.056 281.944 408 304 408S344 390.056 344 368S326.056 328 304 328S264 345.944 264 368z" />
    <glyph glyph-name="tfvc-change-list"
      unicode="&#xE683;"
      horiz-adv-x="448" d=" M256 224H224V256H256V224zM288 224H448V256H288V224zM256 192H224V160H256V192zM288 160H448V192H288V160zM256 128H224V96H256V128zM288 96H448V128H288V96zM256 64H224V32H256V64zM288 32H448V64H288V32zM192 32H0V416H198.625L261.969 352H448V288H192V32z" />
    <glyph glyph-name="tfvc-commit"
      unicode="&#xE684;"
      horiz-adv-x="448" d=" M304 224C304 271.4600000000001 269.31 310.71 224 318.383V448H192V318.3830000000001C146.69 310.711 112 271.459 112 224S146.69 137.29 192 129.617V0H224V129.617C269.31 137.2890000000001 304 176.541 304 224zM208 160C172.703 160 144 188.72 144 224C144 259.2970000000001 172.703 288 208 288S272 259.2970000000001 272 224C272 188.72 243.297 160 208 160z" />
    <glyph glyph-name="tfvc-compare"
      unicode="&#xE685;"
      horiz-adv-x="448" d=" M384 150.186V287.333C384.514 294.073 386.407 333.89 362.314 360.5130000000001C348.21 376.098 328.59 384 304 384H276.628L317.314 424.686L294.687 447.314L215.373 368L294.687 288.6860000000001L317.314 311.314L276.628 352H304C319.326 352 330.61 347.7920000000001 338.5 339.1380000000001C354.812 321.24 352.103 289.852 352.08 289.593L352 288.798V150.186C319.977 142.888 296 114.201 296 80C296 40.3 328.3 8 368 8S440 40.3 440 80C440 114.2 416.023 142.888 384 150.186zM368 40C345.944 40 328 57.944 328 80S345.944 120 368 120S408 102.056 408 80S390.056 40 368 40zM153.314 159.313L130.686 136.686L171.373 96H144C128.674 96 117.39 100.207 109.5 108.862C93.188 126.7600000000001 95.896 158.1470000000001 95.92 158.408L96 159.202V297.814C128.023 305.112 152 333.799 152 368C152 407.7 119.7 440 80 440S8 407.7 8 368C8 333.8 31.977 305.112 64 297.814V160.668C63.486 153.928 61.592 114.11 85.686 87.488C99.79 71.9 119.41 64 144 64H171.373L130.686 23.313L153.314 0.686L232.628 80L153.314 159.313zM40 368C40 390.056 57.944 408 80 408S120 390.056 120 368S102.056 328 80 328S40 345.944 40 368z" />
    <glyph glyph-name="tfvc-merge"
      unicode="&#xE686;"
      horiz-adv-x="448" d=" M352 248C317.8 248 289.112 224.023 281.814 192H272C204.185 192 132.24 229.05 128.187 297.857C160.117 305.224 184 333.867 184 368C184 407.7 151.7 440 112 440S40 407.7 40 368C40 333.8 63.977 305.112 96 297.814V142.186C63.977 134.888 40 106.2 40 72C40 32.3 72.3 0 112 0S184 32.3 184 72C184 106.2 160.023 134.888 128 142.186V218.95C135.042 210.875 143.184 203.42 152.373 196.706C184.298 173.38 227.9 160 272 160H281.814C289.112 127.977 317.7990000000001 104 352 104C391.7 104 424 136.3 424 176S391.7 248 352 248zM72 368C72 390.056 89.944 408 112 408S152 390.056 152 368S134.056 328 112 328S72 345.944 72 368zM152 72C152 49.944 134.056 32 112 32S72 49.944 72 72S89.944 112 112 112S152 94.056 152 72zM352 136C329.944 136 312 153.944 312 176S329.944 216 352 216S392 198.056 392 176S374.056 136 352 136z" />
    <glyph glyph-name="tfvc-pull-request"
      unicode="&#xE687;"
      horiz-adv-x="448" d=" M96 142.186V297.814C128.023 305.112 152 333.799 152 368C152 407.7 119.7 440 80 440S8 407.7 8 368C8 333.8 31.977 305.112 64 297.814V142.186C31.977 134.888 8 106.2 8 72C8 32.3 40.3 0 80 0S152 32.3 152 72C152 106.2 128.023 134.888 96 142.186zM40 368C40 390.056 57.944 408 80 408S120 390.056 120 368S102.056 328 80 328S40 345.944 40 368zM80 32C57.944 32 40 49.944 40 72S57.944 112 80 112S120 94.056 120 72S102.056 32 80 32zM384 142.186V272C384 316.112 348.112 352 304 352H251.03L311.717 412.687L289.09 435.313L189.776 336L289.0900000000001 236.687L311.7170000000001 259.314L251.03 320H304C330.467 320 352 298.467 352 272V142.186C319.977 134.888 296 106.201 296 72C296 32.3 328.3 0 368 0S440 32.3 440 72C440 106.2 416.023 134.888 384 142.186zM368 32C345.944 32 328 49.944 328 72S345.944 112 368 112S408 94.056 408 72S390.056 32 368 32z" />
    <glyph glyph-name="tfvc-raw-source"
      unicode="&#xE688;"
      horiz-adv-x="448" d=" M192 352H32V384H192V352zM416 384H256V352H416V384zM224 288H96V256H224V288zM416 288H288V256H416V288zM288 192H96V160H288V192zM256 96H32V64H256V96z" />
    <glyph glyph-name="tfvc-repo"
      unicode="&#xE689;"
      horiz-adv-x="448" d=" M333.714 169.143C323.539 169.143 314.164 166.197 306.018 161.375L228.072 239.321C242.482 257.911 251.429 280.949 251.429 306.288C251.429 310.738 250.629 314.968 250.144 319.252L313.194 335.0560000000001C322.462 317.966 340.354 306.288 361.14 306.288C391.46 306.288 415.998 330.8780000000001 415.998 361.145C416 391.463 391.46 416 361.142 416C330.982 416 306.552 391.68 306.338 361.57L243.768 345.93C227.858 386.86 188.265 416 141.714 416C81.124 416 32 366.875 32 306.286C32 259.732 61.146 220.196 102.068 204.286L86.428 141.661C56.325 141.45 32 117.02 32 86.86C32 56.538 56.54 32 86.857 32S141.714 56.536 141.714 86.857C141.714 107.643 130.034 125.537 113.004 134.803L128.75 197.91C133.036 197.374 137.265 196.57 141.714 196.57C167.054 196.57 190.086 205.517 208.678 219.928L286.624 141.982C281.8040000000001 133.839 278.8560000000001 124.464 278.8560000000001 114.286C278.8560000000001 83.966 303.3960000000001 59.429 333.7130000000001 59.429S388.5700000000001 83.962 388.5700000000001 114.283C388.5700000000001 144.603 364.0320000000001 169.14 333.7140000000001 169.14zM141.714 251.429C111.396 251.429 86.857 275.962 86.857 306.283S111.397 361.14 141.714 361.14S196.571 336.605 196.571 306.284S172.035 251.427 141.717 251.427z" />
    <glyph glyph-name="tfvc-shelveset"
      unicode="&#xE68A;"
      horiz-adv-x="448" d=" M416 0H0V160H32V32H384V160H416V0zM224 225.62V128H192V225.62C155.53 233.053 128 265.37 128 304C128 348.11 163.89 384 208 384S288 348.11 288 304C288 265.37 260.4700000000001 233.053 224 225.62zM256 304C256 330.4700000000001 234.47 352 208 352S160 330.4700000000001 160 304S181.53 256 208 256S256 277.53 256 304z" />
    <glyph glyph-name="toggle-collapse-all"
      unicode="&#xE68B;"
      horiz-adv-x="448" d=" M64 448V352H0V0H352V64H448V448H64zM320 32H32V320H320V32zM416 96H352V352H96V416H416V96zM256 160H96V192H256V160z" />
    <glyph glyph-name="toggle-collapse"
      unicode="&#xE68C;"
      horiz-adv-x="448" d=" M320 224H96V256H320V224zM416 448H0V32H416V448zM32 416H384V64H32V416z" />
    <glyph glyph-name="toggle-expand-all"
      unicode="&#xE68D;"
      horiz-adv-x="448" d=" M64 448V352H0V0H352V64H448V448H64zM320 32H32V320H320V32zM416 96H352V352H96V416H416V96zM256 160H192V96H160V160H96V192H160V256H192V192H256V160z" />
    <glyph glyph-name="toggle-expand"
      unicode="&#xE68E;"
      horiz-adv-x="448" d=" M320 224H224V128H192V224H96V256H192V352H224V256H320V224zM416 448H0V32H416V448zM32 416H384V64H32V416z" />
    <glyph glyph-name="toggle-tree-collapsed"
      unicode="&#xE68F;"
      horiz-adv-x="448" d=" M160 95.562V352.4700000000001L295.2200000000001 224L160 95.562zM192 277.937V170.062L248.766 224L192 277.937z" />
    <glyph glyph-name="toggle-tree-expanded"
      unicode="&#xE690;"
      horiz-adv-x="448" d=" M320 320V128H128L320 320z" />
    <glyph glyph-name="transfer-download"
      unicode="&#xE691;"
      horiz-adv-x="448" d=" M64 32H352V0H64V32zM340.6720000000001 235.264L224 117.792V448H192V117.792L75.36 235.264L52.64 212.736L208 56.256L363.328 212.736L340.672 235.264z" />
    <glyph glyph-name="transfer-upload"
      unicode="&#xE692;"
      horiz-adv-x="448" d=" M64 448H352V416H64V448zM363.328 235.264L208 391.7440000000001L52.64 235.264L75.36 212.736L192 330.208V0H224V330.208L340.6720000000001 212.736L363.3280000000001 235.264z" />
    <glyph glyph-name="triangle-down"
      unicode="&#xE693;"
      horiz-adv-x="448" d=" M224 160L96 288H352L224 160z" />
    <glyph glyph-name="triangle-left"
      unicode="&#xE694;"
      horiz-adv-x="448" d=" M160 224L288 352V96L160 224z" />
    <glyph glyph-name="triangle-right"
      unicode="&#xE695;"
      horiz-adv-x="448" d=" M160 96V352L288 224L160 96z" />
    <glyph glyph-name="triangle-up"
      unicode="&#xE696;"
      horiz-adv-x="448" d=" M224 288L352 160H96L224 288z" />
    <glyph glyph-name="user"
      unicode="&#xE697;"
      horiz-adv-x="448" d=" M293.9940000000001 185.473C335.634 209.758 364 254.41 364 306C364 383.203 301.188 446 224 446C146.797 446 84 383.203 84 306C84 254.41 112.357 209.756 154 185.47C78.563 157.733 26 86.228 26 0H58C58 93.094 130.922 166 224 166C318.625 166 390 94.625 390 0H422C422 86.23 369.438 157.736 293.9940000000001 185.473zM116 306C116 365.5470000000001 164.453 414 224 414C283.563 414 332 365.5470000000001 332 306S283.562 198 224 198C164.453 198 116 246.453 116 306z" />
    <glyph glyph-name="users"
      unicode="&#xE698;"
      horiz-adv-x="448" d=" M364.305 280.243C385.343 296.555 398.9050000000001 322.168 398.9050000000001 350.781C398.9050000000001 399.925 358.937 439.948 309.7810000000001 439.948C260.6590000000001 439.948 220.6910000000001 400.008 220.6910000000001 350.866C220.6910000000001 322.256 234.2510000000001 296.551 255.2760000000001 280.2390000000001C233.7480000000001 269.016 216.0890000000001 251.419 204.8460000000001 229.879C188.5340000000001 250.956 163.0020000000001 264.5490000000001 134.3460000000001 264.5490000000001C85.2060000000001 264.5490000000001 45.2360000000001 224.581 45.2360000000001 175.441C45.2360000000001 146.831 58.7980000000001 121.3270000000001 79.8290000000001 105.015C41.938 85.26 16 45.604 16 0H48C48 47.625 86.734 86.344 134.344 86.344S220.688 47.624 220.688 0H252.688C252.688 45.602 226.752 85.26 188.861 105.013C209.788 121.2430000000001 223.311 146.567 223.451 175H223.456C223.456 223 262.19 261.36 309.784 261.36C357.41 261.36 396.129 223 396.129 175H428.129C428.129 221 402.1960000000001 260.488 364.3090000000001 280.243zM134.345 118.343C102.86 118.343 77.235 143.9689999999999 77.235 175.438C77.235 206.922 102.86 232.548 134.345 232.548S191.453 206.922 191.453 175.438C191.453 143.968 165.828 118.344 134.343 118.344zM309.78 293.798C278.312 293.798 252.687 319.408 252.687 350.892S278.313 408 309.78 408C341.28 408 366.906 382.375 366.906 350.89S341.281 293.7970000000001 309.781 293.7970000000001z" />
    <glyph glyph-name="view-full-screen"
      unicode="&#xE699;"
      horiz-adv-x="448" d=" M448 320H416V416H320V448H448V320zM448 128H416V32H320V0H448V128zM32 416H128V448H0V320H32V416zM128 32H32V128H0V0H128V32z" />
    <glyph glyph-name="view-full-screen-exit"
      unicode="&#xE69A;"
      horiz-adv-x="448" d=" M128 0H96V96H0V128H128V0zM352 96H448V128H320V0H352V96zM128 448H96V352H0V320H128V448zM448 352H352V448H320V320H448V352z" />
    <glyph glyph-name="view-list-group"
      unicode="&#xE69B;"
      horiz-adv-x="448" d=" M0 416V256H96V0H448V416H0zM416 384V288H160V384H416zM32 288V384H128V288H32zM224 256V160H128V256H224zM128 32V128H224V32H128zM416 32H256V128H416V32zM416 160H256V256H416V160z" />
    <glyph glyph-name="view-list-tree"
      unicode="&#xE69C;"
      horiz-adv-x="448" d=" M0 416V256H96V128H160V0H448V416H0zM416 384V288H160V384H416zM32 288V384H128V288H32zM128 160V256H224V160H128zM192 32V128H288V32H192zM416 32H320V128H416V32zM416 160H256V256H416V160z" />
    <glyph glyph-name="view-list"
      unicode="&#xE69D;"
      horiz-adv-x="448" d=" M0 416V0H448V416H0zM32 384H128V288H32V384zM32 256H128V160H32V256zM32 32V128H128V32H32zM416 32H160V128H416V32zM416 160H160V256H416V160zM416 288H160V384H416V288z" />
    <glyph glyph-name="watch-eye"
      unicode="&#xE69E;"
      horiz-adv-x="448" d=" M4 224.55L4.186 224.068L4 223.483V224.549zM308.75 197C308.75 243.73 270.73 281.75 224 281.75S139.25 243.73 139.25 197S177.27 112.25 224 112.25S308.75 150.27 308.75 197zM276.75 197C276.75 167.913 253.087 144.25 224 144.25C194.914 144.25 171.25 167.913 171.25 197C171.25 226.086 194.914 249.75 224 249.75C253.087 249.75 276.75 226.086 276.75 197zM380.32 335.486C338.454 371.77 282.94 391.75 224 391.75S109.544 371.77 67.68 335.486C25.165 298.64 1.75 249.456 1.75 197H33.75C33.75 286.74 119.096 359.75 224 359.75S414.25 286.74 414.25 197H446.25C446.25 249.457 422.836 298.64 380.32 335.486z" />
    <glyph glyph-name="work-item"
      unicode="&#xE69F;"
      horiz-adv-x="448" d=" M224 73.375L116.688 180.687L139.313 203.312L224 118.625L404.688 299.313L427.313 276.688L224 73.375zM320 288V352H288V288H96V352H64V32H320V96H352V0H32V384H128C128 419.2970000000001 156.703 448 192 448S256 419.2970000000001 256 384H352V288H320zM256 352H224V384C224 401.64 209.64 416 192 416S160 401.64 160 384V352H128V320H256V352z" />
    <glyph glyph-name="work-item-bar"
      unicode="&#xE6A0;"
      horiz-adv-x="448" d=" M288 32H160V416H288V32z" />
    <glyph glyph-name="approve-fill"
      unicode="&#xE6A3;"
      horiz-adv-x="448" d=" M441.61 268.637C429.495 285.5370000000001 415.53 288 405.96 288H314.92C315.736 290.856 316.552 294.794 317.368 297.634C320.224 307.818 323.173 318.362 326.878 322.552C348.3109999999999 346.826 355.7179999999999 379.62 351.795 398.182C346.428 423.524 327.662 432.515 313.227 432.515C297.505 432.515 285.611 423.305 276.257 414.517L152.125 288C151.765 287.64 0 288 0 288V32H350.255C369.21 32 385.968 44.082 391.899 62.032L444.8 224C450.635 249.224 446.4940000000001 262.4 441.61 268.637zM417.13 239.294L361.428 72.2C359.828 67.367 355.338 64 350.256 64H128L128.54 256H143.777C155.514 256 166.545 259.363 174.847 267.664L298.977 391.794C310.009 402.121 317.615 404.391 320.347 391.514C322.113 383.197 317.897 360.95 302.774 343.812C290.7440000000001 330.177 288.04 308.738 281.1840000000001 289.082C274.754 270.649 274.6620000000001 260.348 282.148 256H405.9580000000001C409.788 256 413.2700000000001 253.024 415.4980000000001 249.917C417.7580000000001 246.81 418.3550000000001 242.935 417.1310000000001 239.294z" />
    <glyph glyph-name="brand-android"
      unicode="&#xE6A4;"
      horiz-adv-x="448" d=" M113.424 287.497H334.576V110.54C334.572 95.31 327.028 88.46 311.841 88.46H290.35V25.84C290.35 11.6 282.48 0.02 268.225 0.028C254.009 0.004 246.1200000000001 11.594 246.1200000000001 25.818V88.46H201.8900000000001V25.82C201.8900000000001 11.58 194.0170000000001 0 179.7600000000001 0C165.5470000000001 0 157.6600000000001 11.573 157.6600000000001 25.802V88.462H136.26C121.038 88.462 113.415 95.272 113.427 110.502V287.498zM91.31 257.025V148.97C91.31 134.6950000000001 83.457 123.162 69.2 123.1640000000001C54.952 123.162 47.08 134.686 47.08 148.97V257.01C47.08 271.247 54.936 282.817 69.183 282.81C83.433 282.82 91.309 271.2580000000001 91.309 257.025zM400.92 149.005C400.92 134.73 393.055 123.201 378.81 123.197C364.552 123.204 356.69 134.73 356.69 148.994V257.038C356.69 271.288 364.556 282.858 378.802 282.846C393.05 282.849 400.9220000000001 271.3 400.9220000000001 257.052V149.005zM107.74 309.612H340.145C340.151 344.002 322.363 375.642 294.84 395.462L310.5 432.656C312.86 438.26 310.204 444.779 304.6 447.138C298.9940000000001 449.498 292.478 446.842 290.1180000000001 441.238L280.148 417.556L274.4860000000001 407.216C259.1760000000001 414.023 242.0530000000001 417.846 223.9310000000001 417.826C205.859 417.842 188.739 414.036 173.4970000000001 407.264L167.8970000000001 417.456L157.8840000000001 441.238C155.524 446.842 149.0090000000001 449.498 143.4040000000001 447.138C137.7990000000001 444.778 135.1440000000001 438.26 137.5040000000001 432.656L153.1440000000001 395.511C125.5590000000001 375.711 107.7290000000001 344.021 107.7440000000001 309.615zM279.288 375.958C285.394 375.958 290.346 371.008 290.346 364.9C290.346 358.794 285.396 353.842 279.288 353.842S268.23 358.794 268.23 364.9C268.23 371.0080000000001 273.18 375.958 279.288 375.958zM168.712 375.958C174.82 375.958 179.77 371.008 179.77 364.9C179.77 358.794 174.82 353.842 168.712 353.842C162.605 353.842 157.654 358.7920000000001 157.654 364.9S162.606 375.958 168.712 375.958z" />
    <glyph glyph-name="brand-facebook"
      unicode="&#xE6A5;"
      horiz-adv-x="448" d=" M24.727 448.027C11.07 448.027 0 436.957 0 423.3V24.754C0 11.099 11.067 0.027 24.727 0.027H239.29V173.5170000000001H180.91V241.1270000000001H239.29V290.9930000000001C239.29 348.8570000000001 274.63 380.3630000000001 326.25 380.3630000000001C350.977 380.3630000000001 372.23 378.523 378.4220000000001 377.6990000000001V317.225L342.62 317.2080000000001C314.55 317.2080000000001 309.113 303.8680000000001 309.113 284.2920000000001V241.1260000000001H376.0660000000001L367.346 173.513H309.113V0.023H423.277C436.93 0.023 448.001 11.093 448.001 24.75V423.3C448.001 436.957 436.935 448.026 423.281 448.026H24.728z" />
    <glyph glyph-name="brand-git"
      unicode="&#xE6A6;"
      horiz-adv-x="448" d=" M439.542 203.117L244.858 8.41C233.568 -2.803 215.31 -2.803 204.068 8.41L8.455 204.01C-2.82 215.286 -2.82 233.577 8.455 244.853L142.558 378.9700000000001L193.355 328.166C188.155 315.6860000000001 190.599 300.776 200.745 290.644C204.065 287.294 203.11 288.829 207.213 287.1520000000001V163.136C203.503 161.6330000000001 201.56 159.096 198.773 156.216C191.398 149.668 186.668 140.209 186.668 129.559C186.668 109.764 202.718 93.729 222.496 93.729C225.048 93.729 227.554 94.009 229.966 94.509C237.026 95.544 243.839 98.673 249.272 104.094C261.22 116.027 262.442 134.568 253.077 147.976C249.929 153.176 245.514 157.496 240.221 160.502V280.992L286.527 234.7020000000001C281.391 222.266 283.897 207.436 293.982 197.352C307.382 183.93 329.122 183.93 342.587 197.352C355.992 210.756 355.992 232.492 342.587 245.8990000000001C332.939 255.516 319.099 258.1790000000001 307.073 254.0440000000001L257.403 303.701C261.601 315.711 258.907 329.574 249.277 339.1910000000001C239.757 348.725 226.024 351.4350000000001 214.06 347.394L162.5099999999999 398.9190000000001L203.13 439.543C214.404 450.816 232.694 450.816 243.92 439.543L439.545 243.9430000000001C450.8249999999999 232.6650000000001 450.8249999999999 214.3900000000001 439.548 203.1130000000001z" />
    <glyph glyph-name="brand-github"
      unicode="&#xE6A7;"
      horiz-adv-x="448" d=" M448 218.45C448 119.51 383.87 35.62 294.94 5.94C283.584 3.746 279.53 10.712 279.53 16.716C279.53 24.063 279.8 48.21 279.8 78.159C279.8 99.055 272.63 112.719 264.59 119.641C314.496 125.196 366.868 144.124 366.868 230.185C366.868 254.645 358.198 274.627 343.841 290.285C346.151 295.9509999999999 353.831 318.732 341.601 349.555C341.601 349.555 322.831 355.58 280.0710000000001 326.5949999999999C262.1710000000001 331.568 243.021 334.055 223.981 334.1449999999999C204.941 334.055 185.767 331.568 167.891 326.5949999999999C125.107 355.581 106.291 349.555 106.291 349.555C94.151 318.733 101.831 295.952 104.141 290.285C89.804 274.625 81.091 254.6449999999999 81.091 230.185C81.091 144.347 133.3710000000001 125.1279999999999 183.1210000000001 119.483C176.716 113.8829999999999 170.9370000000001 104.0029999999999 168.899 89.533C156.131 83.799 123.696 73.9209999999999 103.715 108.148C103.715 108.148 91.888 129.652 69.398 131.242C69.398 131.242 47.513 131.512 67.852 117.622C67.852 117.622 82.546 110.7239999999999 92.716 84.852C92.716 84.852 105.866 41.284 168.182 54.836L168.492 16.732C168.492 10.796 164.416 3.874 153.192 5.9349999999999C64.178 35.553 0 119.51 0 218.45C0 342.19 100.307 442.474 223.978 442.474C347.692 442.474 448 342.187 448 218.45z" />
    <glyph glyph-name="brand-nuget"
      unicode="&#xE6A8;"
      horiz-adv-x="448" d=" M191.646 386.492C123.393 386.492 68.446 331.515 68.446 263.222V129.992C68.446 61.7000000000001 123.393 6.72 191.646 6.72H324.8C393.0540000000001 6.72 448 61.7000000000001 448 129.992V263.222C448 331.515 393.054 386.492 324.8 386.492H191.647zM165.511 321.745C190.941 321.745 211.559 301.12 211.561 275.675C211.561 250.231 190.947 229.603 165.517 229.603H165.514C140.084 229.603 119.471 250.23 119.471 275.675C119.471 301.1180000000001 140.084 321.745 165.514 321.745zM312.36 209.68C356.343 209.68 392 174 392 129.99S356.342 50.3 312.357 50.3C268.371 50.3 232.713 85.977 232.712 129.99C232.712 174 268.369 209.68 312.356 209.68zM43.558 441.28C67.61 441.28 87.11 421.7680000000001 87.11 397.7S67.61 354.12 43.554 354.12S0 373.63 0 397.7S19.5 441.28 43.556 441.28z" />
    <glyph glyph-name="brand-tfvc"
      unicode="&#xE6A9;"
      horiz-adv-x="448" d=" M333.714 169.143C323.539 169.143 314.164 166.197 306.018 161.375L228.072 239.321C242.482 257.911 251.429 280.949 251.429 306.288C251.429 310.738 250.629 314.968 250.144 319.252L313.194 335.0560000000001C322.462 317.966 340.354 306.288 361.14 306.288C391.46 306.288 415.998 330.8780000000001 415.998 361.145C416 391.463 391.46 416 361.142 416C330.982 416 306.552 391.68 306.338 361.57L243.768 345.93C227.858 386.86 188.265 416 141.714 416C81.124 416 32 366.875 32 306.286C32 259.732 61.146 220.196 102.068 204.286L86.428 141.661C56.325 141.45 32 117.02 32 86.86C32 56.538 56.54 32 86.857 32S141.714 56.536 141.714 86.857C141.714 107.643 130.034 125.537 113.004 134.803L128.75 197.91C133.036 197.374 137.265 196.57 141.714 196.57C167.054 196.57 190.086 205.517 208.678 219.928L286.624 141.982C281.8040000000001 133.839 278.8560000000001 124.464 278.8560000000001 114.286C278.8560000000001 83.966 303.3960000000001 59.429 333.7130000000001 59.429S388.5700000000001 83.962 388.5700000000001 114.283C388.5700000000001 144.603 364.0320000000001 169.14 333.7140000000001 169.14zM141.714 251.429C111.396 251.429 86.857 275.962 86.857 306.283S111.397 361.14 141.714 361.14S196.571 336.605 196.571 306.284S172.035 251.427 141.717 251.427z" />
    <glyph glyph-name="brand-twitter"
      unicode="&#xE6AA;"
      horiz-adv-x="448" d=" M402.127 315.365L402.397 303.471C402.397 182.027 309.957 41.967 140.889 41.967C88.989 41.967 40.673 57.177 -0.001 83.247C7.189 82.3969999999999 14.511 81.971 21.929 81.971C64.979 81.971 104.623 96.6639999999999 136.071 121.3249999999999C95.843 122.065 61.908 148.6519999999999 50.216 185.1619999999999C55.836 184.089 61.594 183.507 67.506 183.507C75.884 183.507 84.016 184.627 91.72 186.732C49.678 195.175 17.984 232.312 17.984 276.842V278.007C30.371 271.13 44.549 266.987 59.624 266.517C34.962 282.979 18.744 311.112 18.744 343.007C18.744 359.852 23.27 375.643 31.199 389.217C76.513 333.6 144.249 297.022 220.629 293.192C219.059 299.9119999999999 218.254 306.9219999999999 218.254 314.135C218.254 364.891 259.401 406.038 310.1570000000001 406.038C336.5870000000001 406.038 360.463 394.883 377.24 377.008C398.1840000000001 381.131 417.85 388.791 435.61 399.318C428.7580000000001 377.86 414.176 359.851 395.204 348.473C413.794 350.693 431.514 355.643 447.998 362.943C435.656 344.511 420.068 328.317 402.125 315.37z" />
    <glyph glyph-name="brand-visualstudio"
      unicode="&#xE6AB;"
      horiz-adv-x="448" d=" M336 448L160 272L42.664 362.664L0 335.742V112L42.664 85.344L160 176L336 0L448 48V405.336L336 448zM48 160V288L112 224L48 160zM336 128L224 224L336 320V128z" />
    <glyph glyph-name="brand-windows"
      unicode="&#xE6AC;"
      horiz-adv-x="448" d=" M0 252H168V412.825L0 389.3450000000001V252zM196 416.734V252H420V448L196 416.734zM196 59.299L420 28.029V224H196V59.3zM0 86.654L168 63.204V224H0V86.657z" />
    <glyph glyph-name="calendar-month"
      unicode="&#xE6AD;"
      horiz-adv-x="448" d=" M352 384V416H320V384H96V416H64V384H0V0H416V384H352zM384 32H32V256H384V32zM32 288V352H64V320H96V352H320V320H352V352H384V288H32zM96 192H64V224H96V192zM160 192H128V224H160V192zM224 192H192V224H224V192zM288 192H256V224H288V192zM352 192H320V224H352V192zM96 128H64V160H96V128zM160 128H128V160H160V128zM224 128H192V160H224V128zM288 128H256V160H288V128zM352 128H320V160H352V128zM96 64H64V96H96V64zM160 64H128V96H160V64zM224 64H192V96H224V64z" />
    <glyph glyph-name="check-light"
      unicode="&#xE6AE;"
      horiz-adv-x="448" d=" M154.672 62.72L4.688 212.686L27.313 235.311L154.673 107.969L420.687 373.984L443.312 351.359L154.672 62.719z" />
    <glyph glyph-name="checkbox-empty"
      unicode="&#xE6AF;"
      horiz-adv-x="448" d=" M416 448H0V32H416V448zM32 416H384V64H32V416z" />
    <glyph glyph-name="checkbox"
      unicode="&#xE6B0;"
      horiz-adv-x="448" d=" M160 127.78L81.484 206.28L104.109 228.906L160 173.03L305.5 318.515L328.125 295.89L160 127.78zM416 448H0V32H416V448zM32 416H384V64H32V416z" />
    <glyph glyph-name="cloud-fill"
      unicode="&#xE6B1;"
      horiz-adv-x="448" d=" M448 160C448 124.653 419.348 96 384 96H96C42.98 96 0 138.98 0 192S42.98 288 96 288C110.11 288 123.404 284.778 135.47 279.31C151.433 321.698 192.034 352 240 352C301.855 352 352 301.854 352 240V224H384C419.348 224 448 195.347 448 160z" />
    <glyph glyph-name="connect-to-feed"
      unicode="&#xE6B2;"
      horiz-adv-x="448" d=" M256 64C256 46.328 241.672 32 224 32S192 46.328 192 64S206.328 96 224 96S256 81.672 256 64zM160 352V272C160 233.37 132.47 201.053 96 193.62V32H64V193.62C27.53 201.052 0 233.37 0 272V352H32V416H64V352H96V416H128V352H160zM128 320H32V272C32 245.53 53.53 224 80 224S128 245.53 128 272V320zM192 301.945V269.611C320 253.888 416 153.47 416 32H448C448 171.125 352 286.033 192 301.945zM192 207.189V174.379C263.803 166.3010000000001 320 105.924 320 31.996H352C352 123.626 281.555 199.062 192 207.186z" />
    <glyph glyph-name="copy-to-clipboard"
      unicode="&#xE6B3;"
      horiz-adv-x="448" d=" M320 32H64V352H96V288H288V352H320V224H352V384H256C256 419.29 227.29 448 192 448S128 419.29 128 384H32V0H352V128H320V32zM144 352H160V384C160 401.645 174.355 416 192 416S224 401.645 224 384V352H256V320H128V352H144zM416 192V160H250.627L311.314 99.313L288.687 76.686L189.373 176L288.687 275.313L311.314 252.686L250.627 192H416zM192 224H96V256H192V224zM96 192H160V160H96V192zM96 128H192V96H96V128z" />
    <glyph glyph-name="dashboard-fill"
      unicode="&#xE6B4;"
      horiz-adv-x="448" d=" M256 160H0V448H256V160zM288 320H448V448H288V320zM288 160H448V288H288V160zM192 0H448V128H192V0zM160 128H0V0H160V128z" />
    <glyph glyph-name="feed"
      unicode="&#xE6BA;"
      horiz-adv-x="448" d=" M160 112C160 85.49 138.51 64 112 64S64 85.49 64 112S85.49 160 112 160S160 138.51 160 112zM211.11 211.11C171.845 250.376 119.6 272 64 272V240C161.047 240 240 161.047 240 64H272C272 119.6 250.376 171.846 211.11 211.11zM279.01 279.01C221.62 336.395 145.263 368 64 368V336C213.98 336 336 213.98 336 64H368C368 145.264 336.396 221.622 279.01 279.01z" />
    <glyph glyph-name="file-fill"
      unicode="&#xE6BB;"
      horiz-adv-x="448" d=" M384 0H64V448H224V288H384V0zM256 320H384L384.368 348.714L288 448H256V320z" />
    <glyph glyph-name="folder-git"
      unicode="&#xE6BD;"
      horiz-adv-x="448" d=" M74.516 32H0V106.516L74.516 32zM261.9700000000001 352L198.623 416H0V214.11L122.47 336.5780000000001C132.374 346.516 145.61 352 159.67 352C173.748 352 186.983 346.5 196.904 336.516L336.576 196.876C346.529 186.936 351.9980000000001 173.7190000000001 351.9980000000001 159.6560000000001C351.9980000000001 145.609 346.528 132.3900000000001 336.576 122.4530000000001L246.136 32H448V352H261.9700000000001zM313.9600000000001 145.084L174.9 6.008C166.835 -2.002 153.793 -2.002 145.763 6.008L6.04 145.722C-2.014 153.776 -2.014 166.842 6.04 174.896L101.827 270.693L138.111 234.405C134.401 225.491 136.145 214.841 143.391 207.605C145.761 205.21 145.081 206.308 148.011 205.11V116.5269999999999C145.361 115.4529999999999 143.971 113.6409999999999 141.981 111.5829999999999C136.715 106.9069999999999 133.337 100.1499999999999 133.337 92.5429999999999C133.337 78.4059999999999 144.801 66.9499999999999 158.927 66.9499999999999C160.751 66.9499999999999 162.541 67.1499999999999 164.263 67.5099999999999C169.308 68.2499999999999 174.173 70.4839999999999 178.053 74.3559999999999C186.589 82.8799999999999 187.461 96.1229999999999 180.773 105.6999999999999C178.523 109.4139999999999 175.3710000000001 112.4999999999999 171.59 114.6479999999999V200.7129999999999L204.6630000000001 167.6469999999998C200.9930000000001 158.7649999999998 202.7830000000001 148.1719999999998 209.989 140.9669999999998C219.561 131.3819999999998 235.0890000000001 131.3819999999998 244.706 140.9669999999998C254.281 150.5429999999998 254.281 166.0689999999998 244.706 175.6449999999998C237.8160000000001 182.5149999999998 227.9290000000001 184.4149999999998 219.339 181.4619999999998L183.859 216.9319999999998C186.859 225.5099999999998 184.934 235.4119999999998 178.055 242.2799999999998C171.255 249.0899999999998 161.4450000000001 251.0259999999998 152.9 248.1399999999998L116.0800000000001 284.9439999999999L145.0940000000001 313.9609999999998C153.1480000000001 322.0159999999999 166.2120000000001 322.0159999999999 174.2310000000001 313.9609999999998L313.96 174.25C322.02 166.196 322.02 153.143 313.964 145.088z" />
    <glyph glyph-name="heart-fill"
      unicode="&#xE6BF;"
      horiz-adv-x="448" d=" M224 32.422L34.125 217.642C-11.25 263.06 -11.25 336.718 34 381.982C77.844 425.842 154.313 425.872 198.22 381.982L224 354.205L249.375 381.548C294.063 426.313 370.125 425.8450000000001 414 381.985C459.25 336.719 459.25 263.063 414 217.782L224 32.424z" />
    <glyph glyph-name="heart"
      unicode="&#xE6C0;"
      horiz-adv-x="448" d=" M224 32.422L34.125 217.642C-11.25 263.06 -11.25 336.718 34 381.982C77.844 425.842 154.313 425.872 198.22 381.982L224 354.205L249.375 381.548C294.063 426.313 370.125 425.8450000000001 414 381.985C459.25 336.719 459.25 263.063 414 217.782L224 32.424zM116.125 384C93.625 384 72.5 375.25 56.625 359.36C23.845 326.562 23.845 273.203 56.625 240.406L224 77.14L391.5 240.547C424.156 273.203 424.156 326.563 391.375 359.36C359.687 391.094 304.219 391.157 272.405 359.36L224 307.14L175.187 359.797C159.72 375.25 138.594 384 116.125 384z" />
    <glyph glyph-name="heartbeat-fill"
      unicode="&#xE6C1;"
      horiz-adv-x="448" d=" M387.574 192L224 32.422L57.482 194.857L128 265.375L224 169.375L288 233.375L329.375 192H387.575zM418.92 224C458.598 269.563 457.336 338.635 414 381.9840000000001C370.125 425.844 294.062 426.312 249.375 381.546L224 354.203L198.22 381.983C154.313 425.875 77.844 425.843 34 381.983C-11.25 336.718 -11.25 263.063 34.125 217.64L34.575 217.2L128 310.626L224 214.626L288 278.626L342.625 224H418.92z" />
    <glyph glyph-name="image"
      unicode="&#xE6C3;"
      horiz-adv-x="448" d=" M384 304C384 277.49 362.51 256 336 256S288 277.49 288 304S309.49 352 336 352S384 330.51 384 304zM448 416V0H0V416H448zM416 384H32V150.625L128 246.625L288 86.625L352 150.625L416 86.625V384z" />
    <glyph glyph-name="mail-message-fill"
      unicode="&#xE6C4;"
      horiz-adv-x="448" d=" M0 384H448L224 256L0 384zM448 344L224 216L0 344V96H448V344z" />
    <glyph glyph-name="math-minus-circle-outline"
      unicode="&#xE6C5;"
      horiz-adv-x="448" d=" M208 32C93.313 32 0 125.312 0 240S93.313 448 208 448S416 354.687 416 240S322.688 32 208 32zM208 416C110.953 416 32 337.0470000000001 32 240C32 142.97 110.953 64 208 64C305.03 64 384 142.97 384 240C384 337.0470000000001 305.03 416 208 416zM320 256H96V224H320V256z" />
    <glyph glyph-name="math-minus-light"
      unicode="&#xE6C6;"
      horiz-adv-x="448" d=" M416 224H0V256H416V224z" />
    <glyph glyph-name="math-multiply-box-outline"
      unicode="&#xE6C7;"
      horiz-adv-x="448" d=" M416 32H0V448H416V32zM32 64H384V416H32V64zM323.313 332.687L300.688 355.312L208 262.625L115.312 355.313L92.687 332.688L185.375 240L92.687 147.312L115.312 124.687L208 217.375L300.688 124.687L323.313 147.312L230.625 240L323.313 332.687z" />
    <glyph glyph-name="math-multiply-box"
      unicode="&#xE6C8;"
      horiz-adv-x="448" d=" M0 448V0H448V448H0zM350.625 142.625L305.375 97.375L224 178.75L142.625 97.375L97.375 142.625L178.75 224L97.375 305.375L142.625 350.625L224 269.25L305.375 350.625L350.625 305.375L269.25 224L350.625 142.625z" />
    <glyph glyph-name="math-multiply-light"
      unicode="&#xE6C9;"
      horiz-adv-x="448" d=" M246.625 224L427.313 43.312L404.688 20.687L224 201.375L43.313 20.687L20.688 43.312L201.375 224L20.688 404.687L43.313 427.312L224 246.625L404.688 427.312L427.313 404.687L246.625 224z" />
    <glyph glyph-name="math-plus-circle-outline"
      unicode="&#xE6CA;"
      horiz-adv-x="448" d=" M208 32C93.313 32 0 125.312 0 240S93.313 448 208 448S416 354.687 416 240S322.688 32 208 32zM208 416C110.953 416 32 337.0470000000001 32 240C32 142.97 110.953 64 208 64C305.03 64 384 142.97 384 240C384 337.0470000000001 305.03 416 208 416zM320 256H224V352H192V256H96V224H192V128H224V224H320V256z" />
    <glyph glyph-name="math-plus-light"
      unicode="&#xE6CB;"
      horiz-adv-x="448" d=" M416 224H224V32H192V224H0V256H192V448H224V256H416V224z" />
    <glyph glyph-name="media-play-fill"
      unicode="&#xE6CC;"
      horiz-adv-x="448" d=" M64 448V0L384 224L64 448z" />
    <glyph glyph-name="network-tower"
      unicode="&#xE6CD;"
      horiz-adv-x="448" d=" M149.188 236.64C125.548 257.876 112 288.25 112 319.985C112 351.813 125.61 382.235 149.328 403.469L170.672 379.623C153.72 364.454 144 342.7200000000001 144 319.9840000000001C144 297.328 153.688 275.624 170.563 260.454L149.188 236.641zM298.656 236.53C322.406 257.75 336 288.1570000000001 336 319.985C336 351.7190000000001 322.437 382.11 298.812 403.3450000000001L277.437 379.53C294.313 364.36 304 342.656 304 319.9840000000001C304 297.264 294.28 275.531 277.344 260.374L298.656 236.5310000000001zM113.922 208.297C81.734 237.64 64 277.267 64 319.86C64 359.1550000000001 79.422 396.56 107.438 425.17L84.563 447.5470000000001C50.673 412.9220000000001 32 367.577 32 319.86C32 268.156 53.438 220.125 92.36 184.656L113.922 208.296zM334 208.25L355.563 184.594C393.9700000000001 219.547 416 268.844 416 319.86C416 367.624 397.313 413 363.375 447.624L340.5 425.2200000000001C368.563 396.624 384 359.202 384 319.86C384 277.2200000000001 366.25 237.594 334 208.25zM176 319.9840000000001C176 346.454 197.53 367.9840000000001 224 367.9840000000001S272 346.454 272 319.9840000000001C272 301.284 261.146 285.2240000000001 245.506 277.304L356.42 0H321.98L296.375 64H151.637L126.035 0H91.565L202.495 277.305C186.855 285.225 176 301.285 176 319.985zM270.77 128H177.24L164.438 96H283.573L270.77 128zM224 244.902L190.04 160H257.967L224 244.902zM208 319.984C208 311.156 215.172 303.984 224 303.984S240 311.156 240 319.984S232.828 335.984 224 335.984S208 328.812 208 319.984z" />
    <glyph glyph-name="package-fill"
      unicode="&#xE6CE;"
      horiz-adv-x="448" d=" M192 0H32V128H192V0zM416 128H256V0H416V128zM416 320V192H256V307.187C252.996 306.8450000000001 250.037 306.515 247.324 306.227L224 303.942L200.676 306.227C197.963 306.517 195.004 306.847 192 307.19V192H32V320H118.404C117.341 320.346 116.097 320.678 115.156 321.03C79.406 334.453 67.562 355.9220000000001 63.906 371.562C58.812 393.468 67.344 414.812 78.094 426.25C102.469 452.313 149.094 443.03 180.219 418.9700000000001C196.312 406.5 212.619 378.995 223.999 357.017C235.381 378.997 251.695 406.499 267.809 418.967C298.809 442.999 345.559 452.234 369.934 426.234C380.654 414.812 389.184 393.468 384.09 371.562C380.435 355.9220000000001 368.59 334.452 332.84 321.015C331.91 320.665 330.685 320.339 329.638 319.999H416zM197.438 338.766C186.158 360.891 171.658 385.126 160.625 393.656C147.125 404.126 130.625 409.954 117.905 409.954C110.875 409.954 105 408.157 101.437 404.36C97.593 400.297 92.531 389.782 95.062 378.813C98.468 364.266 113.968 355.641 126.406 350.985C139.156 346.187 171.656 341.687 197.438 338.765zM250.531 338.766C276.347 341.688 308.847 346.188 321.597 350.969C334.035 355.639 349.535 364.263 352.941 378.809C355.471 389.779 350.411 400.294 346.596 404.339C343.033 408.154 337.1259999999999 409.949 330.0659999999999 409.949C317.3759999999999 409.949 300.8759999999999 404.106 287.409 393.653C276.346 385.106 261.815 360.873 250.533 338.7630000000001z" />
    <glyph glyph-name="pin-fill"
      unicode="&#xE6CF;"
      horiz-adv-x="448" d=" M432 292.516C413.95 274.466 388.238 269.166 365.385 276.011L264.413 175.04C280.336 138.29 273.473 94.04 243.433 64.002L165.88 141.555L31.97 7.655L0 0L6.875 30.688L141.573 165.86L64 243.434C94.04 273.474 138.29 280.337 175.038 264.414L276.01 365.384C269.167 388.234 274.465 413.949 292.516 432L432 292.516z" />
    <glyph glyph-name="pin-pinned-fill"
      unicode="&#xE6D0;"
      horiz-adv-x="448" d=" M352 160H224V32L208 0L192 32V160H64C64 206.956 94.15 244.122 136 259V385C114.57 397.472 100 421.4170000000001 100 448H316C316 421.4170000000001 301.43 397.472 280 385V259C321.85 244.122 352 206.956 352 160z" />
    <glyph glyph-name="pin-pinned"
      unicode="&#xE6D1;"
      horiz-adv-x="448" d=" M288 274.7150000000001V367.467C307.94 382.557 320 406.502 320 432V448H96V432C96 406.502 108.06 382.557 128 367.467V274.717C88.767 256.397 64 218.75 64 176V160H192V32L208 0L224 32V160H352V176C352 218.75 327.233 256.398 288 274.7150000000001zM97.636 192C103.091 218.066 121.88 239.156 149.359 248.924L159.999 252.707V385.2L152.045 389.83C142.108 395.61 134.562 405.12 130.753 416H285.243C281.433 405.122 273.889 395.612 263.95 389.83L256 385.2V252.707L266.64 248.924C294.12 239.154 312.91 218.066 318.364 192H97.636z" />
    <glyph glyph-name="pin-unpin-fill"
      unicode="&#xE6D2;"
      horiz-adv-x="448" d=" M448 348V132C421.4170000000001 132 397.472 146.57 385 168H259C244.122 126.15 206.956 96 160 96V224H32L0 240L32 256H160V384C206.956 384 244.122 353.85 259 312H385C397.472 333.43 421.4170000000001 348 448 348z" />
    <glyph glyph-name="pin-unpin"
      unicode="&#xE6D3;"
      horiz-adv-x="448" d=" M432 352C406.502 352 382.557 339.94 367.467 320H274.715C256.398 359.233 218.75 384 176 384H160V256H32L0 240L32 224H160V96H176C218.75 96 256.398 120.767 274.7150000000001 160H367.4670000000001C382.557 140.06 406.5020000000001 128 432.0000000000001 128H448.0000000000001V352H432.0000000000001zM416 162.755C405.12 166.565 395.612 174.109 389.83 184.048L385.2 192H252.708L248.925 181.36C239.155 153.88 218.068 135.09 192.001 129.636V350.3640000000001C218.069 344.909 239.158 326.12 248.927 298.641L252.71 288H385.2L389.83 295.954C395.612 305.892 405.12 313.437 416 317.246V162.756z" />
    <glyph glyph-name="plug"
      unicode="&#xE6D4;"
      horiz-adv-x="448" d=" M320 352V240C320 183.576 278.277 136.907 224 129.143V0H192V129.143C137.723 136.907 96 183.576 96 240V352H128V448H160V352H256V448H288V352H320z" />
    <glyph glyph-name="radio-button-empty"
      unicode="&#xE6D5;"
      horiz-adv-x="448" d=" M224 0C164.2 0 107.9 23.3 65.6 65.6C23.3 107.9 0 164.2 0 224C0 283.8 23.3 340.1 65.6 382.4S164.2 448 224 448C283.8 448 340.1 424.7 382.4 382.4C424.7 340.1 448 283.8 448 224C448 164.2 424.7 107.9 382.4 65.6C340.1 23.3 283.8 0 224 0zM224 416C118.1 416 32 329.9 32 224S118.1 32 224 32S416 118.1 416 224S329.9 416 224 416z" />
    <glyph glyph-name="radio-button"
      unicode="&#xE6D6;"
      horiz-adv-x="448" d=" M382.4 382.4C340.1 424.7 283.8 448 224 448C164.2 448 107.9 424.7 65.6 382.4S0 283.8 0 224C0 164.2 23.3 107.9 65.6 65.6C107.9 23.3 164.2 0 224 0C283.8 0 340.1 23.3 382.4 65.6C424.7 107.9 448 164.2 448 224C448 283.8 424.7 340.1 382.4 382.4zM224 32C118.1 32 32 118.1 32 224S118.1 416 224 416S416 329.9 416 224S329.9 32 224 32z M128 224C128 170.9806640162439 170.9806640162438 128 224 128C277.0193359837562 128 320 170.9806640162439 320 224C320 277.0193359837562 277.0193359837562 320 224 320C170.9806640162438 320 128 277.0193359837562 128 224z" />
    <glyph glyph-name="recycle-bin-lg"
      unicode="&#xE6D7;"
      horiz-adv-x="448" d=" M288 384V416C288 433.645 273.645 448 256 448H160C142.355 448 128 433.645 128 416V384H32V352H64V32C64 14.355 78.355 0 96 0H320C337.645 0 352 14.355 352 32V352H384V384H288zM160 416H256V384H160V416zM320 32H96V352H320V32zM120 140H160V164H133.772L162.044 208.766L166.002 197.101L188.73 204.815L172.022 254.058L122.778 237.35L130.49 214.62L139.228 217.585L106.128 165.175C102.654 159.675 102.268 153.329 105.098 148.198C107.922 143.064 113.494 140 120 140zM282.23 164H222.83L230.63 171.8L213.658 188.77L176.888 152L213.658 115.232L230.628 132.202L222.828 140H296C302.504 140 308.076 143.064 310.904 148.194C313.732 153.324 313.347 159.672 309.874 165.174L298.17 183.7L277.88 170.883L282.23 163.998zM208 281.53L244.307 224.044L231.033 226.0410000000001L227.463 202.311L278.8830000000001 194.576L286.6180000000001 245.9960000000001L262.8860000000001 249.5660000000001L261.6720000000001 241.4960000000001L224.91 299.7C221.223 305.536 214.902 309.02 208 309.02S194.777 305.536 191.09 299.7L177.646 278.412L197.938 265.597L208 281.53z" />
    </font>
</defs>
</svg>
