<?xml version="1.0" standalone="no"?> 
<!DOCTYPE svg PUBLIC "-//W3C//DTD SVG 1.1//EN" "http://www.w3.org/Graphics/SVG/1.1/DTD/svg11.dtd" >
<svg xmlns="http://www.w3.org/2000/svg">
<defs>
  <font id="vscom" horiz-adv-x="1000">
    <font-face font-family="vscom"
      units-per-em="1000" ascent="1000"
      descent="0" />
    <missing-glyph horiz-adv-x="0" />
    <glyph glyph-name="360-rotate"
      unicode="&#xEA01;"
      horiz-adv-x="1000" d=" M500 375C431.062 375 375 431.063 375 500S431.063 625 500 625S625 568.937 625 500S568.938 375 500 375zM500 562.5C465.562 562.5 437.5 534.437 437.5 500C437.5 465.562 465.563 437.5 500 437.5C534.438 437.5 562.5 465.563 562.5 500S534.438 562.5 500 562.5zM1000 500C1000 775.687 775.688 1000 500 1000S0 775.687 0 500C0 276.187 150.813 78.187 366.688 18.562L383.376 78.75C194.438 131 62.5 304.187 62.5 500C62.5 741.25 258.75 937.5 500 937.5C741.188 937.5 937.5 741.25 937.5 500C937.5 330.687 838.312 178.437 687.5 106.5V250H625V0H875V62.5H740.813C898.438 149.375 1000 316.375 1000 500z" />
    <glyph glyph-name="award-cup"
      unicode="&#xEA02;"
      horiz-adv-x="1000" d=" M812.5 937.5V1000H125V937.5H0V687.5C0 635.812 42.063 593.75 93.75 593.75C104.813 593.75 115.187 596.188 125 599.75V562.5C125 399.812 262.563 265.875 437.5 251.437V187.5H250V62.5H187.5V0H750V62.5H687.5V187.5H500V251.438C674.938 265.875 812.5 399.812 812.5 562.5V599.75C822.313 596.187 832.688 593.75 843.75 593.75C895.438 593.75 937.5 635.813 937.5 687.5V937.5H812.5zM93.75 656.25C76.5 656.25 62.5 670.25 62.5 687.5V875H125V687.5C125 670.25 111 656.25 93.75 656.25zM625 125V62.5H312.5V125H625zM750 562.5C750 432.625 641.437 326.562 500 312.438V312.5H437.5V312.437C296 326.562 187.5 432.625 187.5 562.499V937.499H750V562.5zM875 687.5C875 670.25 860.937 656.25 843.75 656.25S812.5 670.25 812.5 687.5V875H875V687.5z" />
    <glyph glyph-name="bar-chart"
      unicode="&#xEA03;"
      horiz-adv-x="1000" d=" M937.5 62.5H62.5V937.5H125V125H937.5V62.5zM250 687.5H187.5V187.5H250V687.5zM375 625H312.5V187.5H375V625zM500 937.5H437.5V187.5H500V937.5zM625 812.5H562.5V187.5H625V812.5zM750 500H687.5V187.5H750V500zM875 625H812.5V187.5H875V625z" />
    <glyph glyph-name="brand-visualstudio-in-cloud"
      unicode="&#xEA04;"
      horiz-adv-x="1000" d=" M352.6875 491.0624999999999L406.25 437.5L352.6875 383.9375V491.0625000000001zM593.75 357.1249999999999L593.875 517.8124999999999L500 437.4999999999999L593.75 357.1249999999999zM1000.3124999999998 400.9375C1000.3124999999998 283.0625 902.6249999999998 187.5 781.8749999999999 187.5H187.4999999999999C62.4999999999999 194.6875 -0.7500000000001 280.9375000000001 -0.7500000000001 385.6875C-0.7500000000001 495.1249999999999 90.9374999999999 583.875 203.1249999999999 583.875L206.2499999999999 583.5625C220.8749999999999 661.75 290.6874999999999 721.0625 374.9999999999999 721.0625C415.7499999999999 721.0625 452.6874999999999 706.625 482.1874999999999 683.5C510.9999999999999 758.6875 584.7499999999999 812.5 671.8749999999999 812.5C784.0624999999999 812.5 874.9999999999999 723.75 874.9999999999999 614.3125L872.9374999999999 594.0625C947.7499999999998 560.2499999999999 1000.3124999999998 486.7499999999999 1000.3124999999998 400.9375zM687.5 589.3124999999999L593.75 624.9999999999999L446.4375 477.6874999999998L348.1875 553.5624999999998L312.5 531.0624999999998V343.7499999999998L348.1875 321.4374999999998L446.4375 397.3124999999999L593.75 249.9999999999998L687.5 290.1874999999998V589.3124999999998z" />
    <glyph glyph-name="brand-visualstudio"
      unicode="&#xEA05;"
      horiz-adv-x="772.7272727272726" d=" M579.5454545454545 886.3636363636364L275.9608585858586 582.7790404040404L73.6022727272727 739.159090909091L0 692.7474747474748V306.8181818181819L73.6022727272727 260.8409090909091L276.0088383838384 417.2222222222223L579.5454545454545 113.6363636363638L772.7272727272726 196.4141414141415V812.7613636363635L579.5454545454545 886.3636363636363zM82.7790404040404 389.5959595959596V610.4027777777778L193.1818181818181 500.0000000000001L82.7790404040404 389.5959595959596zM579.5454545454545 334.3952020202021L386.3636363636363 500.0000000000001L579.5454545454545 665.6047979797979V334.3952020202021z" />
    <glyph glyph-name="building-blocks"
      unicode="&#xEA06;"
      horiz-adv-x="1000" d=" M687.5 750V562.5H1000V1000H500V750H687.5zM562.5 937.5H937.5V625H750V812.5H562.5V937.5zM562.5 437.5V625H375V812.5H62.5V0H812.5V437.5H562.5zM125 750H312.5V562.5H500V437.5H125V750zM500 62.5H125V375H312.5V187.5H500V62.5zM750 62.5H562.5V250H375V375H750V62.5z" />
    <glyph glyph-name="clock"
      unicode="&#xEA07;"
      horiz-adv-x="1000" d=" M500 0C258.75 0 62.5 196.313 62.5 437.5C62.5 678.75 258.75 875 500 875C741.188 875 937.5 678.75 937.5 437.5C937.5 196.312 741.188 0 500 0zM500 812.5C293.187 812.5 125 644.312 125 437.5S293.188 62.5 500 62.5S875 230.688 875 437.5S706.812 812.5 500 812.5zM687.5 437.5V375H437.5V687.5H500V437.5H687.5z" />
    <glyph glyph-name="cloud"
      unicode="&#xEA08;"
      horiz-adv-x="1000" d=" M531.25 750C652.062 750 750 652.062 750 531.25V500H812.5C881.562 500 937.5 444.062 937.5 375S881.562 250 812.5 250H250C146.437 250 62.5 333.938 62.5 437.5S146.437 625 250 625C277.563 625 303.5 618.688 327.063 608.062C358.25 690.812 437.562 750 531.25 750M531.25 812.5C435.312 812.5 346.5 762.312 295.437 683.25C280.437 686.063 265.312 687.5 249.999 687.5C112.124 687.5 -0.001 575.375 -0.001 437.5S112.124 187.5 249.999 187.5H812.499C915.875 187.5 1000 271.625 1000 375S915.875 562.5 812.5 562.5H810.75C795.188 702.937 675.75 812.5 531.25 812.5z" />
    <glyph glyph-name="code-bubble"
      unicode="&#xEA09;"
      horiz-adv-x="1000" d=" M125 18.312V250H0V937.5H1000V250H356.687L125 18.312zM62.5 312.5H187.5V169.187L330.812 312.5H937.5V875H62.5V312.5zM859.625 584.938L712.5 732.063L668.313 687.876L771.187 585L671.187 485L715.374 440.813L859.625 584.938zM338.5 481.063L234.625 584.938L342.437 692.75L298.187 736.938L146.249 584.938L294.312 436.875S338.5 481.062 338.5 481.063zM463.687 375L609.5 812.5H543.687L397.875 375H463.687z" />
    <glyph glyph-name="code-opensource"
      unicode="&#xEA0A;"
      horiz-adv-x="1000" d=" M695.813 574.062C720.563 597.75 736.125 627.562 736.125 664.375C736.125 736 677.813 792.625 606.25 792.625C534.625 792.625 476.312 733.5 476.312 661.875C476.312 625 491.875 591.5 516.625 567.812C494.937 554.187 476.687 535.749 463.062 514.062C439.374 538.874 406.249 554.312 369.374 554.312C297.749 554.312 239.4360000000001 495.999 239.4360000000001 424.374C239.4360000000001 387.499 254.999 354.374 279.749 330.687C232.0610000000001 300.687 199.999 247.875 199.999 187.499H262.499C262.499 246.437 310.437 294.374 369.374 294.374S476.25 246.437 476.25 187.5H538.75C538.75 247.875 506.688 300.625 459 330.625C483.75 354.312 499.313 387.438 499.313 424.312C499.313 483.25 547.25 537.75 606.188 537.75S713.062 500 713.062 437.5H775.562C775.562 500 743.5 544.062 695.813 574.062zM369.375 356.875C332.188 356.875 301.937 387.125 301.937 424.312S332.187 491.75 369.375 491.75S436.813 461.5 436.813 424.312S406.562 356.875 369.375 356.875zM538.75 661.125C538.75 698.313 569 728.563 606.188 728.563S673.563 698.313 673.563 661.125S643.375 593.687 606.188 593.687S538.75 623.938 538.75 661.125zM156 250C116.062 250 87.062 257.563 68.937 272.75C50.812 287.875 41.749 314.875 41.749 353.688V421.875C41.749 456.75 27.811 474.125 -0.001 474.125V526.437C27.812 526.437 41.749 544.5 41.749 580.687V644.062C41.749 683.062 50.749 710.499 68.687 726.312S115.75 750 156 750V696.875C126.687 696.875 112.062 680.375 112.062 647.438V586.938C112.062 541.501 97.937 512.813 69.749 500.876V499.751C97.937 488.001 112.062 458.876 112.062 412.501V354.251C112.062 335.6890000000001 115.5 322.501 122.375 314.751C129.188 307.001 140.438 303.0630000000001 156 303.0630000000001V250zM1000 474.125C972 474.125 958 456.437 958 421V355.375C958 315.375 949.063 287.875 931.188 272.687C913.375 257.562 884.375 250 844.25 250V303.063C859.625 303.063 870.813 306.938 877.75 314.626C884.688 322.251 888.187 335.251 888.187 353.689V414.189C888.187 459.439 902.187 487.752 930.187 499.127V500.3149999999999C902.187 512.2529999999999 888.187 541.8779999999999 888.187 589.2529999999999V647.4409999999999C888.187 680.3779999999999 873.562 696.8779999999999 844.249 696.8779999999999V749.9999999999999C884.187 749.9999999999999 913.124 742.0629999999999 931.062 726.2499999999999S958 683.4379999999999 958 645.1879999999999V580.125C958 544.3119999999999 972 526.4369999999999 1000 526.4369999999999V474.125z" />
    <glyph glyph-name="code-pc"
      unicode="&#xEA0B;"
      horiz-adv-x="1000" d=" M715.437 440.813L671.25 485L771.25 585L668.375 687.875L712.5 732.063L859.625 584.938S715.438 440.813 715.437 440.813zM338.5 481.063L234.625 584.938L342.437 692.75L298.187 736.938L146.249 584.938L294.312 436.875S338.5 481.062 338.5 481.063zM463.687 375L609.5 812.5H543.687L397.875 375H463.687zM562.5 250V187.5H750V125H250V187.5H437.5V250H0V937.5H1000V250H562.5zM937.5 312.5V875H62.5V312.5H937.5z" />
    <glyph glyph-name="creditcard"
      unicode="&#xEA0C;"
      horiz-adv-x="1000" d=" M921.875 875H78.125C35.062 875 0 839.938 0 796.875V265.625C0 222.562 35.063 187.5 78.125 187.5H921.875C964.938 187.5 1000 222.562 1000 265.625V796.875C1000 839.938 964.938 875 921.875 875zM78.125 812.5H921.875C930.5 812.5 937.5 805.5 937.5 796.875V750H62.5V796.875C62.5 805.5 69.5 812.5 78.125 812.5zM937.5 687.5V625H62.5V687.5H937.5zM921.875 250H78.125C69.5 250 62.5 257 62.5 265.625V562.5H937.5V265.625C937.5 257 930.5 250 921.875 250zM187.5 312.5H125V375H187.5V312.5zM312.5 312.5H250V375H312.5V312.5zM437.5 312.5H375V375H437.5V312.5z" />
    <glyph glyph-name="delivery-truck"
      unicode="&#xEA0D;"
      horiz-adv-x="1000" d=" M1000 476.125L863.062 750H687.5V812.5H0V250H130.75C143.688 213.687 178.063 187.5 218.75 187.5S293.813 213.688 306.75 250H568.25C581.188 213.687 615.563 187.5 656.25 187.5S731.313 213.688 744.25 250H1000V476.125zM62.5 750H625V369.25C598.5 359.812 577.687 339 568.25 312.5H306.75C293.812 348.813 259.437 375 218.75 375S143.687 348.813 130.75 312.5H62.5V750zM218.75 250C201.5 250 187.5 264 187.5 281.25S201.5 312.5 218.75 312.5S250 298.5 250 281.25S236 250 218.75 250zM656.25 250C639 250 625 264 625 281.25S639 312.5 656.25 312.5S687.5 298.5 687.5 281.25S673.5 250 656.25 250zM937.5 312.5H744.25C734.812 339 714 359.813 687.5 369.25V687.5H824.438L937.5 461.375V312.5z" />
    <glyph glyph-name="devops-presentation"
      unicode="&#xEA0E;"
      horiz-adv-x="1000" d=" M1000 937.5H562.5V1000H437.5V937.5H0V187.5H402.063L258.75 44.187L302.937 0L490.437 187.5H507.312L694.812 0L739 44.187L595.75 187.5H1000V937.5zM937.5 250H62.5V875H937.5V250zM437.5 312.5H312.5V437.5H437.5V312.5zM562.5 687.5H437.5V812.5H562.5V687.5zM812.5 312.5H687.5V437.5H812.5V312.5zM687.5 812.5V750H764.812C708.374 647.063 599.062 580.75 479.187 580.75C429.249 580.75 380.499 592.813 336.124 614.563C340.749 627.688 343.749 641.563 343.749 656.25C343.749 725.188 287.6860000000001 781.25 218.749 781.25S93.749 725.188 93.749 656.25S149.812 531.25 218.749 531.25C250.249 531.25 278.749 543.375 300.749 562.625C355.749 534.063 416.687 518.188 479.187 518.188C617.624 518.188 743.562 592.813 812.5 708.938V625H875V812.5H687.5zM218.75 593.75C184.312 593.75 156.25 621.813 156.25 656.25S184.313 718.75 218.75 718.75S281.25 690.688 281.25 656.25S253.187 593.75 218.75 593.75z" />
    <glyph glyph-name="documentation"
      unicode="&#xEA0F;"
      horiz-adv-x="1000" d=" M750 750V875H544.187L419.187 1000H125V312.5H250V187.5H375V62.5H875V750H750zM437.5 893.313L518.313 812.5H437.5V893.313zM187.5 937.5H375V750H562.5V375H187.5V937.5zM312.5 312.5H625V812.5H687.5V250H312.5V312.5zM813 125H437.5V187.5H750V687.5H813V125z" />
    <glyph glyph-name="education"
      unicode="&#xEA10;"
      horiz-adv-x="1000" d=" M1000 656.25L500 822.938L0 656.25L62.5 635.437V250H125V614.563L187.5 593.75V343.75C187.5 256.75 330.625 183.375 500 183.375S812.5 256.813 812.5 343.75V593.75L1000 656.25zM500 757.062L802.375 656.25L500 555.437L197.625 656.25L500 757.062zM750 343.75C750 310.125 652.625 245.875 500 245.875S250 310.125 250 343.75V572.937L500 489.624L750 572.937V343.75z" />
    <glyph glyph-name="forum"
      unicode="&#xEA11;"
      horiz-adv-x="1000" d=" M250 437.5H187.5V500H250V437.5zM375 500H312.5V437.5H375V500zM500 500H437.5V437.5H500V500zM1000 375H812.5V250H312.5L125 62.5V250H0V812.5H125V1000H1000V375zM750 750H62.5V312.5H187.5V213.375L286.625 312.5H750V750zM937.5 937.5H187.5V812.5H812.5V437.5H937.5V937.5z" />
    <glyph glyph-name="get-package"
      unicode="&#xEA12;"
      horiz-adv-x="1000" d=" M703.75 862.812L474.187 631.687L248.562 856.25L290.625 900.438L437.5 749.375V1000H500V753.25L657.938 907S703.75 862.813 703.75 862.812zM937.5 500H875V0H62.5V500H0V750H236L299.188 687.5H62.5V562.5H875V687.5H649.5L712 750H937.5V500zM812.5 500H125V62.5H812.5V500z" />
    <glyph glyph-name="gift"
      unicode="&#xEA13;"
      horiz-adv-x="1000" d=" M0 750V62.5H937.5V750H732.625C743.375 768.438 750 789.625 750 812.5C750 881.438 693.937 937.5 625 937.5C559.812 937.5 502.375 904.062 468.75 853.437C435.125 904.062 377.687 937.5 312.5 937.5C243.562 937.5 187.5 881.437 187.5 812.5C187.5 789.625 194.125 768.438 204.875 750H0zM437.5 750H312.5C278 750 250 778 250 812.5S278 875 312.5 875C381.437 875 437.5 818.937 437.5 750zM625 750H500C500 818.938 556.063 875 625 875C659.5 875 687.5 847 687.5 812.5S659.5 750 625 750zM875 593.75V437.5H500V687.5H875V593.75zM500 125V375H875V125H500zM62.5 125V375H437.5V125H62.5zM62.5 593.75V687.5H437.5V437.5H62.5V593.75z" />
    <glyph glyph-name="group"
      unicode="&#xEA14;"
      horiz-adv-x="1000" d=" M905.187 666.687C925.875 688.875 938.749 718.187 938.749 750.687C938.749 819.25 882.436 875.062 813.124 875.062S687.5 819.25 687.5 750.687C687.5 718.437 700.312 689.25 720.75 667.125C692.625 653.562 669.125 633.125 652.375 605.562C618.437 654.187 562.312 686.187 498.625 686.187C435.875 686.187 380.562 654.937 346.5 607.437C330.125 633.812 307.312 653.437 280.187 666.687C300.875 688.875 313.812 718.187 313.812 750.687C313.812 819.25 257.437 875 188.125 875C118.875 875 62.5 819.25 62.5 750.687C62.5 718.437 75.313 689.25 95.75 667.125C38.875 639.75 0 584.5 0 500H62.5C62.5 562.5 118.563 625 187.5 625C254.375 625 308.625 566.187 311.875 505.625L311.187 498.687C311.187 436.312 342.125 382 389.062 347.937C306.25 307.187 248.687 250 248.687 125H311.187C311.187 250 395.312 312.5 498.687 312.5C602.124 312.5 686.187 250 686.187 125H748.687C748.687 250 691.062 307.125 608.312 347.937C655.312 382.062 686.187 436.687 686.187 499.062L686.062 500H687.5C687.5 562.5 743.625 625 812.5 625S937.5 562.5 937.5 500H1000C1000 584.063 961.562 639.125 905.187 666.687zM188.125 812.5C222.938 812.5 251.313 784.75 251.313 750.625C251.313 716.562 222.938 688.813 188.125 688.813S125 716.562 125 750.687S153.313 812.5 188.125 812.5zM498.688 373.687C429.75 373.687 373.688 429.75 373.688 498.687L373.813 500H375L374.437 506.313C378.437 571.688 432.312 623.75 498.687 623.75C567.624 623.75 623.687 567.688 623.687 498.75S567.625 373.687 498.688 373.687zM813.187 812.5C848 812.5 876.312 784.75 876.312 750.625C876.312 716.563 847.999 688.812 813.187 688.812C778.312 688.812 750 716.562 750 750.687S778.313 812.5 813.187 812.5z" />
    <glyph glyph-name="headset"
      unicode="&#xEA15;"
      horiz-adv-x="1000" d=" M500 1000C293.25 1000 125 831.75 125 625V375C125 340.5 153 312.5 187.5 312.5V250C187.5 146.625 271.625 62.5 375 62.5V46.875C375 21 396 0 421.875 0H578.125C604 0 625 21 625 46.875V140.625C625 166.5 604 187.5 578.125 187.5H421.875C396 187.5 375 166.5 375 140.625V125C306.062 125 250 181.063 250 250V312.5H312.5V625H187.5C187.5 797.313 327.688 937.5 500 937.5S812.5 797.312 812.5 625H687.5V312.5H812.5C847 312.5 875 340.5 875 375V625C875 831.75 706.75 1000 500 1000zM437.5 125H562.5V62.5H437.5V125zM250 562.5V375H187.5V562.5H250zM812.5 375H750V562.5H812.5V375z" />
    <glyph glyph-name="heart"
      unicode="&#xEA16;"
      horiz-adv-x="1000" d=" M500 62.5L82.125 470C29.125 521.6875 0 590.5 0 663.75C0 737 29.1875 805.8125 82.125 857.4375C135.0625 909.0625 205.4375 937.5 280.1875000000001 937.5C355.0000000000001 937.5 425.3750000000001 909.0625 478.3125000000001 857.3125L500 836.1875L521.6875 857.3125C574.5625 908.9375 644.9374999999999 937.375 719.75 937.375S864.9375 908.9375 917.875 857.3125C970.8125 805.75 1000 736.9375 1000 663.6875S970.875 521.625 917.875 469.9375L500 62.5zM280.1875000000001 875.875C221.9375 875.875 167.1875000000001 853.75 126.0625 813.625C85.0625 773.625 62.5 720.4375 62.5 663.75S85.0625 553.8125 126.0625 513.8125L500 149.125L873.9375 513.75C914.9375000000002 553.7499999999999 937.5 607 937.5 663.6875S914.9375 773.5625 873.9375 813.5625C791.5000000000001 893.9375 647.875 893.8125 565.625 813.5625L500 749.5624999999999L434.375 813.5624999999999C393.1875 853.7499999999999 338.5 875.8749999999999 280.1875000000001 875.8749999999999z" />
    <glyph glyph-name="help"
      unicode="&#xEA17;"
      horiz-adv-x="1000" d=" M500 0H437.5V62.5H500V0zM500 187.5H437.5V281.25C437.5 348.375 462.813 411.625 508.75 459.188L634.125 584.563C668.375 620.063 687.5 667.875 687.5 718.75C687.5 839.375 589.375 937.5 468.75 937.5S250 839.375 250 718.75H187.5C187.5 873.813 313.687 1000 468.75 1000S750 873.813 750 718.75C750 651.563 724.688 588.375 678.687 540.75L553.374 415.375C519.0630000000001 379.875 500 332.125 500 281.25V187.5z" />
    <glyph glyph-name="idea"
      unicode="&#xEA18;"
      horiz-adv-x="1000" d=" M468.75 1000C279.187 1000 125 845.813 125 656.25C125 565.062 161.688 479.375 228.25 415.062C282.563 362.562 312.5 292.874 312.5 218.749V93.749C312.5 42.061 354.563 -0.001 406.25 -0.001H531.25C582.937 -0.001 625 42.062 625 93.749V218.749C625 292.874 654.938 362.562 709.25 415.062C775.813 479.375 812.5 565.062 812.5 656.25C812.5 845.813 658.25 1000 468.75 1000zM531.25 62.5H406.25C389 62.5 375 76.563 375 93.75V187.5H562.5V93.75C562.5 76.562 548.437 62.5 531.25 62.5zM665.75 459.937C606.938 403.125 573.125 329.25 565.625 250H371.875C364.437 329.25 330.625 403.125 271.75 459.938C217.437 512.438 187.5 582.126 187.5 656.251C187.5 811.314 313.688 937.501 468.75 937.501S750 811.312 750 656.25C750 582.125 720.062 512.437 665.75 459.937z" />
    <glyph glyph-name="integrate"
      unicode="&#xEA19;"
      horiz-adv-x="1000" d=" M794.187 528L569.625 303.437L525.375 347.625L671.875 500H250V562.5H671.313L518.938 714.875L563.125 759.063L794.187 528zM125 500H187.5V562.5H125V500zM0 500H62.5V562.5H0V500zM250 937.5V625H0V937.5H250zM187.5 875H62.5V687.5H187.5V875zM375 937.5V625H437.5V875H937.5V187.5H437.5V437.5H375V125H1000V937.5H375z" />
    <glyph glyph-name="iot-chip"
      unicode="&#xEA1A;"
      horiz-adv-x="1000" d=" M125 562.5H187.5V187.5H125V562.5zM312.5 625H562.5V375H312.5V625zM375 437.5H500V562.5H375V437.5zM1000 625V437.5H937.5V62.5H0V812.5H62.5V875H125V812.5H187.5V875H250V812.5H312.5V875H375V812.5H437.5V875H625V812.5H687.5V875H875V812.5H937.5V625H1000zM750 750H812.5V812.5H750V750zM500 750H562.5V812.5H500V750zM875 250H687.5V125H875V250zM875 437.5H687.5V625H875V687.5H687.5V750H625V687.5H437.5V750H62.5V125H312.5V187.5H562.5V125H625V312.5H875V437.5zM937.5 562.5H750V500H937.5V562.5z" />
    <glyph glyph-name="keyboard"
      unicode="&#xEA1B;"
      horiz-adv-x="1000" d=" M187.5 625H125V687.5H187.5V625zM250 562.5H125V500H250V562.5zM812.5 562.5H687.5V500H812.5V562.5zM812.5 437.5H687.5V375H812.5V437.5zM250 437.5H125V375H250V437.5zM625 437.5H312.5V375H625V437.5zM312.5 687.5H250V625H312.5V687.5zM375 562.5H312.5V500H375V562.5zM500 562.5H437.5V500H500V562.5zM625 562.5H562.5V500H625V562.5zM437.5 687.5H375V625H437.5V687.5zM562.5 687.5H500V625H562.5V687.5zM687.5 687.5H625V625H687.5V687.5zM812.5 687.5H750V625H812.5V687.5zM937.5 742.312V320.25C937.5 281.437 907.5 250 870.562 250H66.937C30 250 0 281.438 0 320.188V742.313C0 781.063 30 812.501 66.938 812.501H870.5C907.5 812.5 937.5 781.063 937.5 742.312zM875 750H62.5V312.5H875V750z" />
    <glyph glyph-name="lifecycle"
      unicode="&#xEA1C;"
      horiz-adv-x="1000" d=" M564.062 809.062L405.437 650.375L361.249 694.562L447.624 780.937C265.249 773.187 119.186 622.812 119.186 438.562C119.186 425.812 119.999 413.187 121.374 400.812L60.436 386.187C58.186 403.374 56.686 420.812 56.686 438.562C56.686 655.25 227.6230000000001 832.25 441.6230000000001 843.125L361.9350000000001 922.813L406.125 967S564.062 809.063 564.062 809.062zM676.187 170.812C617.437 123.812 543.124 95.437 462.249 95.437C343.749 95.437 239.874 156.312 178.249 247.937L299.687 215.374L315.874 275.749L99.124 333.812L41.312 118L101.687 101.812L129.875 206.937C203.187 101.874 324.688 32.874 462.25 32.874C553.625 32.874 637.687 63.562 705.563 114.749C705.562 114.75 676.187 170.812 676.187 170.812zM942.5 271.75L814.125 237.375C848.188 296.688 867.875 365.375 867.875 438.563C867.875 607.251 764 751.563 617.125 812.626L596.375 753.751C718.938 701.376 805.375 580.126 805.375 438.626C805.375 385.439 792.75 335.251 770.938 290.376L745.188 386.563L684.813 370.375L742.875 153.625L958.688 211.438C958.688 211.437 942.5 271.75 942.5 271.75z" />
    <glyph glyph-name="line-node-chart"
      unicode="&#xEA1D;"
      horiz-adv-x="1000" d=" M937.5 62.5V0H0V937.5H62.5V62.5H187.5V187.5H250V62.5H375V187.5H437.5V62.5H562.5V187.5H625V62.5H750V187.5H812.5V62.5H937.5zM936.063 779.25C936.063 727.562 894 685.5 842.313 685.5C834.063 685.5 826.25 686.875 818.626 688.937L728.688 553C740 537.5 746.876 518.625 746.876 498C746.876 446.313 704.813 404.25 653.126 404.25S559.376 446.313 559.376 498C559.376 508.875 561.626 519.187 565.001 528.875L459.063 608.375C445 599.875 428.688 594.75 411.125 594.75L396.562 596.25L284.374 412.125C302.749 395 314.437 370.812 314.437 343.75C314.437 292.063 272.374 250 220.687 250C168.999 250 126.937 292.063 126.937 343.75S168.999 437.5 220.687 437.5L226.312 436.937L341.562 626.125C326.749 642.75 317.374 664.437 317.374 688.5C317.374 740.188 359.4360000000001 782.25 411.124 782.25C462.811 782.25 504.874 740.188 504.874 688.5C504.874 677.25 502.562 666.563 498.937 656.562L604.187 577.624C618.5 586.437 635.124 591.811 653.125 591.811C661.438 591.811 669.437 590.374 677.125 588.311L766.938 724.061C755.563 739.561 748.563 758.561 748.563 779.248C748.563 830.936 790.626 872.998 842.313 872.998S936.063 830.937 936.063 779.25zM251.937 343.75C251.937 360.937 237.937 375 220.687 375S189.437 360.937 189.437 343.75S203.437 312.5 220.687 312.5S251.937 326.563 251.937 343.75zM442.375 688.5C442.375 705.75 428.375 719.75 411.125 719.75S379.875 705.75 379.875 688.5S393.875 657.25 411.125 657.25S442.375 671.25 442.375 688.5zM684.313 498.062C684.313 515.312 670.25 529.312 653.063 529.312S621.813 515.312 621.813 498.062S635.876 466.812 653.063 466.812S684.313 480.812 684.313 498.062zM873.563 779.25C873.563 796.5 859.5 810.5 842.313 810.5S811.063 796.5 811.063 779.25S825.125 748 842.313 748S873.563 762 873.563 779.25z" />
    <glyph glyph-name="manufacturing"
      unicode="&#xEA1E;"
      horiz-adv-x="1000" d=" M250 500C284.5 500 312.5 472 312.5 437.5S284.5 375 250 375S187.5 403 187.5 437.5S215.5 500 250 500zM931.938 428.5S954.376 464.687 926.563 509.875L739.5 928.625L730.312 941.688C688.937 1009.563 593.374 1019.126 535.312 962.063L237.25 654.937C139.875 648.25 62.5 567.75 62.5 468.75V62.5H0V0H500V62.5H437.5V468.75C437.5 479.188 436.062 489.187 434.437 499.187L634.125 704.937L758.438 427.624L687.5 356.6860000000001V250H750V330.813L803.25 384.063C812.25 378.188 826.125 375.063 844.312 375.063C860.062 375.063 884.125 384.126 884.125 384.126L937.5 330.814V250H1000V356.687L931.938 428.5zM375 62.5H125V468.75C125 537.688 181.063 593.75 250 593.75S375 537.688 375 468.75V62.5zM410.5 564.25C388.5 601 354.687 629.375 313.937 644.313L580.125 918.563C604.188 943.251 643.875 943.876 668.5 919.876H668.563C680.563 908.189 687.251 892.626 687.501 875.939C687.751 859.252 681.438 843.439 669.876 831.439C669.875 831.437 410.5 564.25 410.5 564.25zM680.687 752.937L714.625 787.937L727 803.437L834.625 562.5L777.063 537.937S680.688 752.937 680.687 752.937zM856.125 441.437C836.563 434.437 820.375 445.312 813.812 456.062L802.687 480.937L860.187 505.437L869.562 484.437C876.312 469.062 875.25 448.312 856.125 441.437z" />
    <glyph glyph-name="marketplace"
      unicode="&#xEA1F;"
      horiz-adv-x="1000" d=" M750 812.5C750 915.875 665.875 1000 562.5 1000C528.125 1000 496.312 990.062 468.625 973.875C440 990.75 408.125 1000 375 1000C271.625 1000 187.5 915.875 187.5 812.5V750H62.5V125C62.5 56.062 118.563 0 187.5 0H750C818.937 0 875 56.063 875 125V750H750V812.5zM687.5 812.5V750H437.5V812.5C437.5 881.438 493.563 937.5 562.5 937.5S687.5 881.437 687.5 812.5zM250 812.5C250 881.438 306.063 937.5 375 937.5C389.5 937.5 403.563 934.437 417.063 929.437C391.187 897.25 375 856.938 375 812.5V750H250V812.5zM250 125C250 90.5 221.937 62.5 187.5 62.5S125 90.5 125 125V687.5H250V125zM812.5 125C812.5 90.5 784.5 62.5 750 62.5H295.687C306.375 80.875 312.5 102.25 312.5 125V687.5H812.5V125z" />
    <glyph glyph-name="money"
      unicode="&#xEA20;"
      horiz-adv-x="1000" d=" M562.312 312.5C493.5 312.5 437.5 382.625 437.5 468.75S493.5 625 562.312 625C631.187 625 687.125 554.875 687.125 468.75S631.187 312.5 562.312 312.5zM562.312 562.5C528.562 562.5 500 519.562 500 468.75S528.562 375 562.312 375S624.625 418 624.625 468.75S596.062 562.5 562.312 562.5zM343.625 500C326.437 500 312.5 486 312.5 468.75S326.438 437.5 343.625 437.5S374.75 451.5 374.75 468.75C374.812 486 360.812 500 343.625 500zM781.375 500C764.188 500 750.25 486 750.25 468.75S764.187 437.5 781.375 437.5S812.5 451.5 812.5 468.75S798.563 500 781.375 500zM937.5 750V874.875L937.125 875H0V250.125L0.125 250H125V187.5H1000V750H937.5zM62.5 312.5V812.5H875V750H125V312.5H62.5zM247.375 687.5C244.75 675.438 239.5 661.438 228.875 649.875C219.062 639.312 204.375 633.313 187.5 629.5V687.5H247.375zM187.5 250V308C204.25 304.187 218.813 298.313 228.563 287.875C239.376 276.375 244.626 262.187 247.376 250H187.5zM937.5 250H877.563C880.251 262.063 885.438 276.063 896.063 287.563C905.875 298.188 920.563 304.126 937.438 308V250H937.5zM937.5 372.563C901.438 367.5 871.938 353.5 850.25 330C826.312 304.062 817.563 272.937 814.313 250H310.688C307.438 272.875 298.688 304.062 274.75 330C253.062 353.5 223.625 367.563 187.5 372.563V564.875C223.625 569.938 253.063 583.938 274.75 607.5C298.75 633.438 307.5 664.563 310.688 687.5H814.251C817.501 664.562 826.251 633.438 850.188 607.5C871.938 583.938 901.438 569.938 937.501 564.875C937.5 564.875 937.5 372.563 937.5 372.563zM937.5 629.438C920.75 633.251 906.187 639.126 896.438 649.501C885.625 661.063 880.376 675.251 877.626 687.501H937.5V629.438z" />
    <glyph glyph-name="monitor"
      unicode="&#xEA21;"
      horiz-adv-x="1000" d=" M937.5 250V875H0V250H437.5V187.5H312.5V125H625V187.5H500V250H937.5zM62.5 812.5H875V312.5H62.5V812.5z" />
    <glyph glyph-name="multiplatform"
      unicode="&#xEA22;"
      horiz-adv-x="1000" d=" M1000 187.5V687.5H750V937.5H125V750H0V312.5H250V500H312.5V187.5H625V125H437.5V62.5H875V125H687.5V187.5H1000zM187.5 375H62.5V687.5H187.5V375zM250 562.5V750H187.5V875H687.5V562.5H250zM375 250V500H750V625H937.5V250H375z" />
    <glyph glyph-name="navigation"
      unicode="&#xEA23;"
      horiz-adv-x="1000" d=" M468.75 1000C210.25 1000 0 789.75 0 531.25S210.25 62.5 468.75 62.5S937.5 272.75 937.5 531.25S727.25 1000 468.75 1000zM500 126.562V187.5H437.5V126.562C238.437 141.875 79.375 300.937 64.062 500H125V562.5H64.062C79.375 761.562 238.437 920.625 437.5 935.938V875H500V935.938C699.062 920.625 858.125 761.562 873.438 562.5H812.5V500H873.438C858.125 300.938 699.063 141.875 500 126.562zM250 750L395.813 458.312L687.5 312.5L541.687 604.188L250 750zM434.25 496.75L365.312 634.687L503.25 565.749L572.25 427.8110000000001C572.25 427.812 434.25 496.75 434.25 496.75z" />
    <glyph glyph-name="news"
      unicode="&#xEA24;"
      horiz-adv-x="1000" d=" M875 750V875H0V309.25C0 242.125 54.625 187.5 121.75 187.5H875C943.937 187.5 1000 243.563 1000 312.5V750H875zM937.5 312.5C937.5 278 909.5 250 875 250H121.75C89.062 250 62.5 276.625 62.5 309.25V812.5H812.5V343.75C812.5 326.5 826.5 312.5 843.75 312.5S875 326.5 875 343.75V687.5H937.5V312.5zM750 687.5H125V750H750V687.5zM750 312.5H500V375H750V312.5zM750 437.5H500V500H750V437.5zM750 562.5H500V625H750V562.5zM437.5 312.5H125V625H437.5V312.5zM187.5 375H375V562.5H187.5V375z" />
    <glyph glyph-name="oem"
      unicode="&#xEA25;"
      horiz-adv-x="1000" d=" M1000 718.75L718.75 1000L500 781.25V875H62.5V62.5H875V500H781.25L1000 718.75zM718.75 922.688L922.688 718.75L718.75 514.812L514.812 718.75L718.75 922.688zM656.25 500H500V656.25L656.25 500zM437.5 125H125V437.5H437.5V125zM437.5 500H125V812.5H437.5V500zM812.5 437.5V125H500V437.5H812.5z" />
    <glyph glyph-name="people-code"
      unicode="&#xEA26;"
      horiz-adv-x="1000" d=" M633.937 62.5C579.812 62.5 535.749 106.562 535.749 160.688V214.25C535.687 234 519.6880000000001 250 500 250V312.5C519.688 312.5 535.688 328.5 535.688 348.188V401.813C535.688 455.938 579.75 500.001 633.938 500.001V437.501C614.188 437.501 598.188 421.501 598.188 401.813V348.25C598.188 322.375 588.188 298.875 571.75 281.312C588.188 263.749 598.188 240.249 598.188 214.374V160.811C598.188 141.124 614.188 125.1230000000001 633.876 125.1230000000001V62.5H633.9369999999999zM901.812 160.688V214.25C901.812 234 917.812 250 937.5 250V312.5C917.813 312.5 901.812 328.5 901.812 348.188V401.813C901.812 455.938 857.75 500.001 803.562 500.001V437.501C823.249 437.501 839.25 421.501 839.25 401.813V348.25C839.25 322.375 849.25 298.875 865.688 281.312C849.251 263.749 839.25 240.249 839.25 214.374V160.811C839.25 141.124 823.25 125.1230000000001 803.562 125.1230000000001V62.6230000000001C857.75 62.5 901.812 106.562 901.812 160.6880000000001zM605 731.562C639.813 760.25 662.5 797.874 662.5 846.374C662.5 932.562 592.437 1000 506.25 1000C420.125 1000 350 928.562 350 842.437C350 793.937 372.688 759.75 407.5 731.062C371.75 711.374 342.688 679.437 323.687 644.312C295 677.062 253.25 698.187 206.25 698.187C120.125 698.187 50 627.687 50 541.562C50 493.062 72.688 454.249 107.5 425.562C43.75 390.375 0 312.187 0 249.687H62.5C62.5 312.187 127 393.437 206.25 393.437C285.562 393.437 350 312.187 350 249.687H412.5C412.5 312.187 368.75 390.187 305 425.312C339.813 453.999 362.5 495.937 362.5 544.437L360.75 562.187H362.5C362.5 624.687 427 705.937 506.25 705.937S650 624.687 650 562.187H712.5C712.5 624.687 668.75 696.437 605 731.562zM206.25 447.687C154.562 447.687 112.5 489.75 112.5 541.437S154.562 635.187 206.25 635.187S300 593.124 300 541.437S257.937 447.687 206.25 447.687zM506.25 747.687C454.562 747.687 412.5 789.749 412.5 841.437S454.563 935.187 506.25 935.187S600 893.125 600 841.437S557.937 747.687 506.25 747.687z" />
    <glyph glyph-name="plug"
      unicode="&#xEA27;"
      horiz-adv-x="1000" d=" M625 750V1000H562.5V750H375V1000H312.5V750H187.5V468.75C187.5 324.375 297.25 206.437 437.5 190.688V0H500V190.688C640.25 206.438 750 324.375 750 468.75V750H625zM687.5 468.75C687.5 348.125 589.375 250 468.75 250S250 348.125 250 468.75V687.5H687.5V468.75z" />
    <glyph glyph-name="process-gears"
      unicode="&#xEA28;"
      horiz-adv-x="1000" d=" M408.375 588.062L469 562.937L492.938 620.687L432.438 645.75C435.5 659.25 437.501 673.125 437.501 687.5S435.501 715.813 432.438 729.25L492.938 754.313L469 812.063L408.313 786.938C393.313 810.751 373.188 830.876 349.375 845.876L374.5 906.564L316.812 930.439L291.749 869.9390000000001C278.25 873 264.375 875 250 875S221.75 873 208.25 869.937L183.187 930.437L125.437 906.5L150.562 845.812C126.749 830.812 106.624 810.749 91.624 786.874L31 812.063L7.062 754.313L67.562 729.251C64.5 715.813 62.5 701.875 62.5 687.5S64.5 659.25 67.563 645.75L7.063 620.687L31.001 562.937L91.626 588.062C106.626 564.249 126.751 544.124 150.564 529.124L125.439 468.499L183.189 444.5610000000001L208.252 505.061C221.75 502.0000000000001 235.625 500.0000000000001 250 500.0000000000001S278.25 502.0000000000001 291.75 505.063L316.813 444.5630000000001L374.563 468.501L349.438 529.126C373.25 544.1880000000001 393.312 564.25 408.375 588.062zM250 562.5C181.062 562.5 125 618.562 125 687.5S181.063 812.5 250 812.5S375 756.437 375 687.5S318.937 562.5 250 562.5zM937.5 343.75C937.5 362.375 934.438 380.188 930.062 397.438L997.812 425.438L973.874 483.188L906 455.062C887.313 486.312 861.375 512.25 830.125 530.875L858.25 598.75L800.5 622.687L772.437 554.937C755.187 559.437 737.375 562.499 718.749 562.499S682.311 559.437 665.061 555.061L637 622.8130000000001L579.25 598.875L607.375 531C576.125 512.375 550.1870000000001 486.375 531.5 455.1870000000001L463.6250000000001 483.3120000000001L439.75 425.5L507.5 397.5C503.062 380.1870000000002 500 362.375 500 343.75S503.063 307.375 507.438 290.0620000000002L439.687 262.0000000000001L463.625 204.2500000000001L531.5 232.3750000000001C550.187 201.1250000000001 576.125 175.1870000000001 607.375 156.5000000000001L579.25 88.6870000000001L637 64.7500000000001L665.063 132.4380000000001C682.313 128.0630000000001 700.125 125.0000000000001 718.751 125.0000000000001S755.189 128.0630000000001 772.439 132.4380000000001L800.502 64.7500000000001L858.252 88.6880000000001L830.127 156.5010000000001C861.377 175.1880000000001 887.3149999999999 201.1260000000001 906.002 232.3760000000001L973.877 204.2510000000001L997.8119999999998 262.0000000000001L930.0619999999998 290.0630000000001C934.4369999999998 307.3750000000001 937.5 325.1250000000001 937.5 343.7500000000001zM718.75 187.5C632.625 187.5 562.5 257.563 562.5 343.75S632.625 500 718.75 500S875 429.937 875 343.75S804.875 187.5 718.75 187.5z" />
    <glyph glyph-name="reading"
      unicode="&#xEA29;"
      horiz-adv-x="1000" d=" M812.5 875V937.5H625C567.625 937.5 513.062 919 468.75 884.937C424.437 919 369.875 937.5 312.5 937.5H125V875H0V62.5H937.5V875H812.5zM750 875V250H625C580.375 250 537.687 238.562 500 217.625V828.875C534.688 858.25 578.313 875 625 875H750zM187.5 875H312.5C359.188 875 402.813 858.25 437.5 828.812V217.562C399.812 238.562 357.125 250 312.5 250H187.5V875zM62.5 812.5H125V187.5H312.5C363.375 187.5 411.188 168.375 447 133.812L456.125 124.999H62.5V812.5zM875 125H481.375L490.5 133.813C526.25 168.376 574.063 187.501 625 187.501H812.5V812.501H875V125z" />
    <glyph glyph-name="report"
      unicode="&#xEA2A;"
      horiz-adv-x="1000" d=" M500 687.5H250V750H500V687.5zM659.75 625H250V562.5H597.187L659.75 625zM534.688 500H250V437.5H472.125L534.688 500zM975.438 603.687L562.5 187.5H437.5V312.5L843 736.187L975.438 603.687zM817.625 533.312L775.562 575.374L500 287.437V250H536.438L817.625 533.312zM852.563 568.5L887.251 603.438L843.939 646.75L809.876 611.25L852.563 568.5zM812.5 812.5V794.75L769.688 750H562.5V937.5H187.5V125H750V287.75L812.5 350.75V62.5H125V1000H625L812.5 812.5zM724.125 812.5L625 911.625V812.5H724.125z" />
    <glyph glyph-name="rocket"
      unicode="&#xEA2B;"
      horiz-adv-x="1000" d=" M672.987 641.735C648.581 666.146 648.581 705.715 672.987 730.126C697.3929999999999 754.532 736.962 754.532 761.375 730.126C785.781 705.715 785.781 666.146 761.375 641.735C736.963 617.329 697.394 617.329 672.987 641.735zM243.519 210.05C242.55 257.9939999999999 259.415 306.181 295.033 343.3309999999999C279.339 359.0249999999999 264.359 374.0059999999999 250.844 387.5239999999999C188.962 323.6629999999999 168.47 235.0879999999999 188.279 154.1689999999999C197.595 151.9499999999998 201.528 151.6559999999998 206.963 150.7499999999999C214.68 149.4119999999999 222.477 148.3939999999999 230.309 147.9119999999999C298.745 143.006 368.622 165.5559999999999 421.536 216.8309999999999L377.343 261.0249999999999C340.05 225.2629999999999 291.676 208.9749999999999 243.519 210.0499999999999zM778.444 271.112C802.807 246.75 785.757 224.1809999999999 761.375 199.793L584.5989999999999 23.019L540.401 67.213L553.6769999999999 79.413C586.7309999999999 118.0940000000001 574.295 191.2190000000001 541.3549999999999 242.0510000000001C519.3709999999999 234.3390000000001 497.1579999999999 227.1510000000001 474.4189999999999 221.582L252.8339999999999 443.169C257.9419999999999 464.035 264.7049999999999 484.352 271.6139999999999 504.593C224.2079999999999 529.819 167.8269999999999 535.3199999999999 115.9629999999999 515.133L97.0759999999999 507.767L54.2679999999999 553.3489999999999L231.0449999999999 730.126C255.4279999999999 754.509 295.0709999999999 754.487 319.4309999999998 730.126L367.1069999999998 682.45C379.9809999999998 698.808 392.8639999999998 715.173 407.8209999999998 730.126C545.6929999999998 867.996 746.3809999999999 917.965 938.1499999999997 906.902C949.2189999999998 715.13 899.2439999999998 514.442 761.3749999999998 376.5709999999999C746.4189999999998 361.618 730.0559999999998 348.7299999999999 713.6999999999998 335.8549999999999L778.4439999999998 271.1119999999999zM295.582 563.8389999999999C305.969 586.7159999999999 317.803 608.7769999999999 330.986 630.1809999999999L275.238 685.9319999999999S195.007 600.9289999999999 181.6709999999999 590.4659999999999C217.7959999999999 595.569 259.087 582.9579999999999 295.582 563.8389999999999zM492.5569999999999 291.838C580.6379999999999 318.519 658.0749999999999 361.657 717.1809999999999 420.765C818.0429999999999 521.633 874.9499999999999 674.305 877.068 845.825C705.556 843.701 552.8789999999999 786.797 452.014 685.932C392.9050000000001 626.8230000000001 349.7680000000001 549.393 323.0850000000001 461.308L492.557 291.838zM717.1809999999999 243.987L661.4309999999999 299.737C641.1869999999999 287.2679999999999 620.3879999999999 275.956 598.8149999999999 265.993C621.2149999999999 227.224 634.9119999999999 183.462 630.881 156.618L717.1809999999999 243.987z" />
    <glyph glyph-name="search-and-apps"
      unicode="&#xEA2C;"
      horiz-adv-x="1000" d=" M812.5 562.5C709.125 562.5 625 478.375 625 375C625 334.562 638.125 297.312 660 266.687L446.687 53.374C434.499 41.186 434.499 21.374 446.687 9.186C452.75 3.061 460.75 -0.002 468.75 -0.002S484.75 3.061 490.875 9.123L704.187 222.436C734.812 200.6230000000001 772.062 187.4980000000001 812.5 187.4980000000001C915.875 187.5 1000 271.625 1000 375S915.875 562.5 812.5 562.5zM812.5 250C743.563 250 687.5 306.063 687.5 375S743.563 500 812.5 500S937.5 443.937 937.5 375S881.437 250 812.5 250zM187.5 812.5H812.5V625H875V875H750V1000H0V437.5H125V312.5H562.5V375H187.5V812.5zM125 500H62.5V937.5H687.5V875H125V500z" />
    <glyph glyph-name="search"
      unicode="&#xEA2D;"
      horiz-adv-x="1000" d=" M656.255 999.992C466.695 999.992 312.51 845.807 312.51 656.247C312.51 572.6859999999999 342.51 496.062 392.259 436.438L9.14 53.319C-3.047 41.132 -3.047 21.319 9.14 9.1319999999999C15.265 3.0699999999999 23.265 0.0069999999999 31.265 0.0069999999999S47.265 3.069 53.39 9.1319999999999L436.509 392.251C496.071 342.502 572.694 312.502 656.2560000000001 312.502C845.7520000000001 312.503 1000 466.688 1000 656.2479999999999S845.7520000000001 999.992 656.2550000000001 999.992zM656.255 375.002C501.195 375.002 375.009 501.188 375.009 656.2479999999999S501.1950000000001 937.494 656.255 937.494S937.501 811.3079999999999 937.501 656.2479999999999S811.3149999999999 375.002 656.255 375.002z" />
    <glyph glyph-name="setup"
      unicode="&#xEA2E;"
      horiz-adv-x="1000" d=" M615.875 696.625L468.75 549.563L321.625 696.625L365.813 740.812L437.501 669.187V1000H500.001V669.187L571.626 740.812L615.875 696.625zM937.5 375V937.5H562.5V875H875V437.5H62.5V875H375V937.5H0V375H437.5V312.5H312.5V250H625V312.5H500V375H937.5zM769.312 187.5H168.187L74.437 0H863.062L769.312 187.5zM175.562 62.5L206.812 125H730.687L761.937 62.5H175.562z" />
    <glyph glyph-name="source"
      unicode="&#xEA2F;"
      horiz-adv-x="1000" d=" M875 562.437H437.5V624.937H875V562.437zM875 500.062H437.5V437.562H875V500.062zM875 375.25H437.5V312.75H875V375.25zM1000 875V187.5H687.5V62.5H0V750H312.5V875H1000zM62.5 625H312.5V687.5H62.5V625zM625 187.5H125V250H312.5V312.5H125V375H312.5V437.5H125V500H312.5V562.5H62.5V125H625V187.5zM937.5 687.5H375V250H937.5V687.5zM937.5 812.5H375V750H937.5V812.5z" />
    <glyph glyph-name="status-success"
      unicode="&#xEA30;"
      horiz-adv-x="1000" d=" M468.75 0C405.483 0 344.092 12.398 286.2820000000001 36.85C230.4600000000001 60.46 180.333 94.255 137.2940000000001 137.293C94.2540000000001 180.333 60.461 230.4590000000001 36.85 286.281C12.398 344.092 0 405.482 0 468.75C0 532.017 12.398 593.408 36.85 651.218C60.461 707.04 94.255 757.1669999999999 137.2940000000001 800.2059999999999S230.4590000000001 877.04 286.2820000000001 900.65C344.0920000000001 925.102 405.4830000000001 937.5 468.75 937.5C532.018 937.5 593.408 925.102 651.219 900.65C707.041 877.039 757.167 843.2449999999999 800.2070000000001 800.2059999999999C843.2450000000001 757.1669999999999 877.0400000000001 707.04 900.6500000000001 651.218C925.1010000000002 593.4079999999999 937.5000000000002 532.0169999999999 937.5000000000002 468.75C937.5000000000002 405.482 925.102 344.092 900.6500000000001 286.281C877.0400000000001 230.459 843.2450000000001 180.333 800.2070000000001 137.2929999999999C757.1670000000001 94.2549999999999 707.0410000000002 60.4599999999999 651.219 36.8499999999999C593.408 12.3979999999999 532.018 -1e-13 468.7500000000001 -1e-13zM468.75 875C244.743 875 62.5 692.7570000000001 62.5 468.75S244.743 62.5 468.75 62.5S875 244.743 875 468.75S692.7570000000001 875 468.75 875zM709.597 602.903L665.404 647.097L375 356.694L272.097 459.597L227.903 415.404L375 268.3060000000001L709.597 602.903z" />
    <glyph glyph-name="stopwatch"
      unicode="&#xEA31;"
      horiz-adv-x="1000" d=" M687.5 437.5V375H437.5V687.5H500V437.5H687.5zM937.5 437.5C937.5 196.312 741.188 0 500 0C258.75 0 62.5 196.313 62.5 437.5C62.5 657.438 225.813 839.5 437.5 870V937.5H312.5V1000H625V937.5H500V875C593.438 875 679.875 845.312 751.063 795.25L852.938 897.125L897.125 852.937L799.625 755.437C884.25 675.625 937.5 562.75 937.5 437.5zM875 437.5C875 644.313 706.812 812.5 500 812.5S125 644.312 125 437.5S293.188 62.5 500 62.5S875 230.687 875 437.5z" />
    <glyph glyph-name="test"
      unicode="&#xEA32;"
      horiz-adv-x="1000" d=" M905.937 311.875L906.25 312.5L625 687.5V875H687.5V937.5H312.5V875H375V687.5L93.75 312.5L94.063 311.875C74.5 285.812 62.5 253.812 62.5 218.75C62.5 132.562 132.625 62.5 218.75 62.5H781.25C867.375 62.5 937.5 132.563 937.5 218.75C937.5 253.812 925.5 285.812 905.937 311.875zM437.5 650.875V875H562.5V650.875L729.875 437.5H270.125L437.5 650.875zM781.25 125H218.75C167.062 125 125 167.063 125 218.75C125 252.938 167.25 305.25 167.25 305.25L166.875 305.937L221.125 375H778.875L833.625 305.188S875 253.938 875 218.75C875 167.062 832.937 125 781.25 125z" />
    <glyph glyph-name="tools-wrench"
      unicode="&#xEA33;"
      horiz-adv-x="1000" d=" M967.938 854.5450000000001L948.126 891.982L757.691 701.672L701.567 757.796L892.002 948.168L854.565 967.918C745.942 1025.292 613.6310000000001 1004.355 525.258 916.044C456.447 847.1700000000001 430.134 751.984 446.572 663.985L55.827 273.1800000000001L56.889 272.117L44.952 262.367C-14.985 202.43 -14.985 104.8689999999999 44.952 44.933C74.952 14.996 114.326 -0.004 153.7000000000001 -0.004S232.4490000000001 14.996 262.4480000000001 44.933L272.1980000000001 56.745L272.6980000000001 56.245L664.0670000000001 446.551C680.9420000000001 443.3640000000001 698.1290000000001 441.676 715.3160000000001 441.676C787.6270000000002 441.676 860.4390000000001 469.5509999999999 916.0630000000002 525.175C1004.3750000000002 613.612 1025.2490000000003 745.922 967.9380000000002 854.545zM89.139 89.12C53.515 124.744 53.515 182.6810000000001 89.139 218.243C106.951 235.993 130.326 244.93 153.701 244.93S200.4500000000001 235.993 218.2620000000001 218.243C235.5120000000001 200.993 245.0120000000001 178.1189999999999 245.0120000000001 153.6809999999999C245.0120000000001 129.3059999999999 235.5120000000001 106.3689999999999 218.2620000000001 89.1199999999999C182.5750000000001 53.4949999999999 124.701 53.4949999999999 89.1390000000001 89.1199999999999zM305.198 177.0560000000001C300.323 209.1810000000001 285.823 238.9930000000001 262.449 262.4300000000001C238.199 286.6800000000001 207.762 300.6170000000001 176.1999999999999 305.2420000000001L469.0079999999999 598.1120000000001C482.0079999999999 570.4870000000001 498.7579999999999 544.238 521.507 521.551C544.194 498.864 570.381 482.052 597.943 469.052C597.944 469.052 305.198 177.0560000000001 305.198 177.0560000000001zM871.814 569.4250000000001C786.2529999999999 483.926 649.005 482.301 565.631 565.6750000000001S484.0069999999999 786.422 569.443 871.8580000000001C612.005 914.42 669.316 936.857 726.6279999999999 936.857C746.065 936.857 765.627 934.295 784.44 928.982L654.443 798.984C631.818 776.234 631.631 739.4850000000001 654.068 716.923L716.942 654.0490000000001C727.817 643.2370000000001 742.192 637.2370000000001 757.6289999999999 637.2370000000001C773.2539999999999 637.2370000000001 787.941 643.3620000000001 799.0029999999999 654.424L928.939 784.359C949.813 709.9850000000001 928.876 626.4870000000001 871.814 569.4250000000001z" />
    <glyph glyph-name="tools"
      unicode="&#xEA34;"
      horiz-adv-x="1000" d=" M812.5 500H687.5V768.313L750 830.813V1000H562.5V830.812L625 768.312V500H500V437.5H562.5V93.75C562.5 42.062 604.563 0 656.25 0S750 42.062 750 93.75V437.5H812.5V500zM625 937.5H687.5V856.687L656.25 825.437L625 856.687V937.5zM687.5 93.75C687.5 76.5 673.5 62.5 656.25 62.5S625 76.5 625 93.75V437.5H687.5V93.75zM343.75 1000C257.625 1000 187.5 929.875 187.5 843.75C187.5 794.937 211.063 748.75 250 719.375V93.75C250 42.062 292.063 0 343.75 0S437.5 42.063 437.5 93.75V719.375C476.437 748.75 500 794.938 500 843.75C500 929.875 429.875 1000 343.75 1000zM390.5 763.062L375 754.062V93.75C375 76.5 361 62.5 343.75 62.5S312.5 76.5 312.5 93.75V754.062L297 763.062C267.562 780.25 250 810.375 250 843.749C250 884.437 276.188 918.811 312.5 931.749V843.749L343.75 812.499L375 843.75V931.75C411.313 918.812 437.5 884.437 437.5 843.75C437.5 810.375 419.937 780.25 390.5 763.062z" />
    <glyph glyph-name="whats-this"
      unicode="&#xEA35;"
      horiz-adv-x="1000" d=" M468.75 62.5C210.312 62.5 0 272.812 0 531.25S210.312 1000 468.75 1000S937.5 789.687 937.5 531.25S727.188 62.5 468.75 62.5zM468.75 941.375C242.562 941.375 58.625 757.375 58.625 531.25S242.625 121.125 468.75 121.125S878.875 305.125 878.875 531.25S694.938 941.375 468.75 941.375zM500.125 311.5H437.375V248.75H500.125V311.5zM500.125 405.687C500.125 427.125 508.125 447.25 522.312 461.937L585.437 525.125C611.375 552 625.625 587.625 625.625 625.375C625.625 711.937 555.25 782.313 468.687 782.313S311.75 711.875 311.75 625.375H374.5C374.5 677.312 416.75 719.563 468.687 719.563C520.625 719.563 562.875 677.313 562.875 625.375C562.875 603.937 554.875 583.812 540.688 569.125L477.563 505.937C451.688 479.062 437.375 443.499 437.375 405.687V374.312H500.125V405.687z" />
    <glyph glyph-name="work-calendar"
      unicode="&#xEA36;"
      horiz-adv-x="1000" d=" M375 625H437.5V562.5H375V625zM812.5 562.5H750V625H812.5V562.5zM625 562.5H562.5V625H625V562.5zM375 500H437.5V437.5H375V500zM187.5 500H250V437.5H187.5V500zM625 437.5H562.5V500H625V437.5zM375 375H437.5V312.5H375V375zM187.5 375H250V312.5H187.5V375zM375 250H437.5V187.5H375V250zM187.5 250H250V187.5H187.5V250zM812.5 1000H750V937.5H250V1000H187.5V937.5H0V62.5H1000V937.5H812.5V1000zM62.5 125V687.5H937.5V125H62.5zM937.5 875V750H62.5V875H187.5V812.5H250V875H750V812.5H812.5V875H937.5zM852.875 471.437L897.062 427.25L632.562 162.75L501.312 293.938L545.499 338.126L632.562 251.126C632.562 251.125 852.875 471.437 852.875 471.437z" />
  </font>
</defs>
</svg>
