<?xml version="1.0" standalone="no"?> 
<!DOCTYPE svg PUBLIC "-//W3C//DTD SVG 1.1//EN" "http://www.w3.org/Graphics/SVG/1.1/DTD/svg11.dtd" >
<svg xmlns="http://www.w3.org/2000/svg">
<defs>
  <font id="vssocial" horiz-adv-x="1000">
    <font-face font-family="vssocial"
      units-per-em="1000" ascent="1000"
      descent="0" />
    <missing-glyph horiz-adv-x="0" />
    <glyph glyph-name="bitbucket"
      unicode="&#xE000;"
      horiz-adv-x="1000" d=" M851.625 824.083C846.292 831.583 839.75 837.875 832.458 843.5C816.4159999999999 856 798.333 864.917 779.583 872.5C739.708 888.583 698.125 898.042 655.9159999999999 904.833C604.4159999999999 913.083 552.499 916.333 497.916 916.666C449.166 916.249 398.041 913.166 347.333 905.249C311.333 899.582 275.75 891.957 241.208 880.249C218.333 872.457 196.208 863.1659999999999 176.041 849.624C166.458 843.207 157.583 835.9159999999999 150.3739999999999 826.749C141.3319999999999 815.207 137.4569999999999 802.374 139.791 787.832C144.333 759.124 148.541 730.374 153.291 701.749C160.2489999999999 659.374 167.416 616.999 174.6239999999999 574.749C182.666 527.749 190.916 480.749 198.791 433.749C200.6239999999999 422.791 205.2489999999999 413.5410000000001 212.6239999999999 405.624C217.3319999999999 400.541 222.3739999999999 395.7070000000001 227.7069999999999 391.3320000000001C246.9149999999999 375.874 268.7899999999999 364.8320000000001 291.6649999999999 355.749C346.4149999999999 333.9160000000001 403.7069999999999 324.0410000000001 462.2479999999998 320.832C504.7479999999998 318.457 547.2059999999998 319.957 589.4979999999998 325.749C625.4979999999998 330.624 660.7479999999998 338.332 694.9979999999998 350.666C720.3729999999998 359.8329999999999 744.7479999999998 371.041 766.6649999999998 386.9989999999999C775.9979999999998 393.8319999999999 784.6229999999998 401.3739999999999 791.5399999999998 410.7069999999999C796.2899999999998 416.9569999999999 799.5819999999999 423.9569999999999 800.8319999999999 431.8739999999999C811.2899999999998 493.4569999999999 822.1239999999998 554.9569999999999 832.2899999999998 616.5409999999999C841.8329999999999 673.6669999999999 850.7499999999998 730.8749999999999 860.1249999999998 787.9999999999999C862.3749999999998 801.2499999999999 859.3329999999999 813.1669999999999 851.6249999999998 824.0829999999999zM499.458 400.083C436.3330000000001 400.291 385.2910000000001 451.9159999999999 385.5 515.375C385.6670000000001 578.75 437 629.708 500.417 629.5C564.2090000000001 629.292 615.0840000000001 577.917 614.8340000000001 514.125C614.5420000000001 451 562.75 399.833 499.4580000000001 400.083zM728.3330000000001 801.083C725.0830000000001 797.4159999999999 721.125 794.208 716.875 791.708C705.042 784.6659999999999 691.875 780.958 678.625 777.458C653.583 771.083 628.042 767.375 602.458 764.708C568.75 761.125 535 759.875 502.75 759.75C463.542 759.958 426.083 761.5419999999999 388.7920000000001 766C360.7920000000001 769.375 332.9170000000001 773.6669999999999 306.0420000000001 782.6669999999999C298.0840000000001 785.4169999999999 290.3340000000001 788.875 282.8340000000001 792.709C278.9590000000001 794.584 275.5840000000001 797.584 272.6670000000001 800.709C267.5 806.334 267.5 812.5419999999999 272.7920000000001 818.126C275.875 821.418 279.625 824.209 283.5 826.418C294.6670000000001 832.918 306.9170000000001 836.668 319.25 839.918C345.125 846.668 371.458 850.501 398 853.293C441.458 857.751 485 859.126 528.667 857.835C568.75 856.668 608.75 853.668 648.3340000000001 846.502C666.917 843.169 685.3340000000001 839.294 702.917 832.169C709.125 829.627 715.0840000000001 826.461 720.875 823.086C723.75 821.419 726.3330000000001 818.7529999999999 728.4580000000001 816.086C732.2080000000001 811.25 732.3330000000001 805.625 728.3330000000001 801.083zM772.125 317.958L771.5830000000001 310.833C763.541 268.625 755.416 226.541 747.625 184.291C744.9580000000001 170.1239999999999 738.5830000000001 158.2489999999999 728.5830000000001 148.083C717.5 136.708 704.416 128.291 690.5 121.166C664.75 108.083 637.417 99.833 609.333 94.0409999999999C573.125 86.4989999999999 536.458 83.1659999999999 515.625 83.333C452.25 83.5 405.583 88.5419999999999 360 101.708C338.9170000000001 107.75 318.5 115.625 299.5 126.791C289.5420000000001 132.6239999999999 280.25 139.3739999999999 272.083 147.541C261.875 157.833 255.25 169.791 252.583 184.2489999999999C244.791 226.4569999999999 236.583 268.6239999999999 228.5 310.7489999999999L228 317.2069999999999C228.5 327.5819999999999 237.75 332.915 247.0420000000001 328.3319999999999L249.7920000000001 326.665C280.6670000000001 304.248 315.125 289.248 351.2920000000001 277.832C384.5 267.29 418.5420000000001 260.957 453.167 257.874C493.167 254.249 532.875 255.124 572.5840000000001 260.749C625.2090000000001 268.124 675.417 283.124 722.167 308.7910000000001C731.4590000000001 313.874 740.2090000000001 320.0830000000001 749.125 325.7910000000001L753.5 328.5410000000001C762.4580000000001 332.5830000000001 771.25 327.5830000000001 772.125 317.9580000000001zM557.5 514.625C557.375 483 531.417 457.167 499.708 457.333C468 457.458 442.416 483.2909999999999 442.583 515.083C442.708 546.958 468.375 572.458 500.25 572.2909999999999C532.042 572.1669999999999 557.583 546.5 557.5 514.625z" />
    <glyph glyph-name="codepen"
      unicode="&#xE001;"
      horiz-adv-x="1000" d=" M917 638.208L916.375 641.208L915.833 642.958L914.916 645.583L914.124 647.333L912.916 649.708L911.916 651.375L910.416 653.542L909.208 655.0840000000001L907.416 657.042L906 658.458L903.958 660.1659999999999L902.333 661.374L901.75 661.832L520.875 915.75C508.833 923.792 493.167 923.792 481.167 915.75L100.2090000000001 661.792L99.6260000000001 661.3340000000001L98.0010000000001 660.0840000000001L95.9590000000001 658.417L94.542 657L92.75 655.042L91.542 653.5L90.042 651.333L89.042 649.6659999999999L87.8340000000001 647.2909999999999L87.0010000000001 645.5409999999999L86.0430000000001 642.958L85.5010000000001 641.208L84.8760000000001 638.208L84.5840000000001 636.6659999999999L84.2510000000001 631.958V378.041L84.5840000000001 373.374L84.8760000000001 371.8320000000001L85.5010000000001 368.8320000000001L86.0430000000001 367.0820000000001L86.9600000000002 364.4570000000001L87.7520000000002 362.7070000000001L88.9600000000002 360.3320000000001L89.9600000000002 358.7070000000001L91.4600000000002 356.5400000000001L92.6680000000001 354.9980000000001L94.4600000000002 353.0400000000001L95.8770000000002 351.6650000000001L97.9190000000002 349.9570000000001L99.5440000000002 348.749L100.1270000000002 348.291L481.0000000000002 94.375C487.0000000000002 90.375 493.9170000000001 88.333 500.8750000000002 88.333C507.7920000000001 88.333 514.7080000000002 90.333 520.7500000000002 94.375L901.6250000000002 348.2920000000001L902.2080000000002 348.75L903.8330000000002 349.9580000000001L905.8750000000002 351.6660000000002L907.2920000000001 353.0410000000002L909.0840000000002 354.9990000000002L910.2920000000001 356.5410000000002L911.7920000000001 358.7080000000001L912.7920000000001 360.3330000000001L914.0000000000002 362.7080000000001L914.7920000000001 364.4580000000001L915.7090000000002 367.0830000000001L916.2510000000002 368.8330000000001L916.8760000000002 371.8330000000001L917.1680000000002 373.375L917.5010000000002 378.0420000000001V631.9580000000001L917.1680000000002 636.625L917.0000000000002 638.2080000000001zM500.917 420.333L374.25 505.0409999999999L500.917 589.7489999999999L627.5840000000001 505.0409999999999L500.917 420.333zM465.125 651.958L309.875 548.125L184.542 631.9169999999999L465.1250000000001 818.959V651.958zM245.458 505.042L155.875 445.125V564.958L245.458 505.042zM309.875 461.958L465.125 358.125V191.083L184.5419999999999 378.125L309.8749999999999 461.958zM536.75 358.125L692 461.958L817.333 378.125L536.75 191.083V358.125zM756.417 505.042L846 564.9580000000001V445.125L756.417 505.042zM692 548.125L536.75 651.9580000000001V818.9580000000001L817.3330000000001 631.916C817.3330000000001 631.917 692 548.125 692 548.125z" />
    <glyph glyph-name="delicious"
      unicode="&#xE002;"
      horiz-adv-x="1000" d=" M83.333 916.667V83.3340000000001H916.666V916.667H83.333zM875 125H500V500H125V875H500V500H875V125z" />
    <glyph glyph-name="digg"
      unicode="&#xE003;"
      horiz-adv-x="1000" d=" M208.333 791.667V666.667H83.333V375H291.666V791.6669999999999H208.333zM208.333 458.333H166.666V583.333H208.333V458.333zM416.6669999999999 375H333.334V666.6669999999999H416.6669999999999V375zM416.6669999999999 708.3330000000001H333.334V791.666H416.6669999999999V708.3330000000001zM458.3329999999999 666.667V375H583.3329999999999V333.3330000000001H458.3329999999999V250.0000000000001H666.6659999999999V666.6670000000001H458.333zM583.3329999999999 458.3330000000001H541.6659999999999V583.3330000000001H583.333V458.3330000000001zM708.3329999999999 666.667V375H833.3329999999999V333.3330000000001H708.3329999999999V250.0000000000001H916.666V666.6670000000001H708.3329999999999zM833.3329999999999 458.3330000000001H791.6659999999999V583.3330000000001H833.3329999999999V458.3330000000001z" />
    <glyph glyph-name="dribbble"
      unicode="&#xE004;"
      horiz-adv-x="1000" d=" M500 916.667C269.875 916.667 83.3330000000001 730.125 83.3330000000001 500S269.8750000000001 83.3330000000001 500.0000000000001 83.3330000000001S916.667 269.8750000000001 916.667 500.0000000000001S730.125 916.667 500.0000000000001 916.667zM775.5 724.5C825.083 663.958 855.083 586.792 855.875 502.792C844.125 505.292 726.458 529.125 608.042 514.25L600.375 532.625C593 550 585.042 567.2080000000001 576.75 584.167C708.3330000000001 637.917 768 714.375 775.5 724.5zM500 855.375C590.417 855.375 673.083 821.458 735.917 765.708C729.5 756.583 675.9590000000001 684.583 549.375 637.1659999999999C491.042 744.333 426.4170000000001 832.333 416.583 845.5C443.375 851.917 471.292 855.375 500 855.375zM348.708 821.542C358.083 808.667 421.708 720.542 480.6659999999999 615.7090000000001C314.208 571.501 167.541 572.126 151.624 572.3340000000001C174.708 682.792 249.125 774.583 348.7080000000001 821.542zM144.083 499.458L144.25 510.333C159.833 509.9999999999999 332.2920000000001 507.792 510 561C520.2080000000001 541.0419999999999 529.917 520.833 538.875 500.583L524.8330000000001 496.333C341.2920000000001 437 243.625 275.2919999999999 235.5420000000001 261.458C178.75 324.583 144.0830000000001 408.0419999999999 144.0830000000001 499.458zM499.9999999999999 143.5419999999999C417.708 143.5419999999999 341.875 171.6249999999999 281.5419999999999 218.6669999999999C287.959 231.7499999999999 359.9999999999999 370.959 560.75 440.9169999999999L563.083 441.7089999999999C613.0409999999999 311.8759999999999 633.708 203.0419999999999 639 171.8339999999998C596.292 153.6249999999999 549.292 143.5419999999998 500 143.5419999999998zM698.833 204.4169999999999C695.1659999999999 226.084 676.25 330.2499999999999 629.708 458.1669999999999C741.25 475.9999999999999 839.208 446.7919999999999 851.375 442.9589999999999C835.5419999999999 343.9579999999999 778.708 258.4169999999999 698.833 204.4169999999999z" />
    <glyph glyph-name="dropbox"
      unicode="&#xE005;"
      horiz-adv-x="1000" d=" M328.458 887.542L83.333 727.5L252.833 591.75L500 744.375z M83.333 456L328.458 295.9580000000001L500 439.125L252.833 591.75z M500 439.125L671.5419999999999 295.9580000000001L916.667 456L747.167 591.75z M916.667 727.5L671.5419999999999 887.542L500 744.375L747.167 591.75z M500.5 408.3330000000001L328.458 265.583L254.833 313.625L254.833 259.75L500.5 112.458L746.167 259.75L746.167 313.625L672.5419999999999 265.583z" />
    <glyph glyph-name="email"
      unicode="&#xE006;"
      horiz-adv-x="1000" d=" M83.333 833.333V250H916.666V833.333H83.333zM850.625 791.667L500 405.958L149.375 791.6669999999999H850.625zM125 756.5L358.125 500.083L125 310.7080000000001V756.5zM167.625 291.6669999999999L386.1670000000001 469.2089999999999L471.833 375H528.125L613.792 469.208L832.375 291.666C832.375 291.6669999999999 167.625 291.6669999999999 167.625 291.6669999999999zM875 310.708L641.875 500.125L875 756.5V310.7080000000001z" />
    <glyph glyph-name="facebook"
      unicode="&#xE007;"
      horiz-adv-x="1000" d=" M916.667 870.667V129.3340000000001C916.667 103.917 896.0840000000001 83.3340000000001 870.667 83.3340000000001H658.3340000000001V406.0420000000002H766.667L782.875 531.7920000000001H658.333V612.1250000000001C658.333 648.5420000000001 668.458 673.3330000000001 720.6659999999999 673.3330000000001L787.249 673.3750000000001V785.8750000000001C775.707 787.4170000000001 736.207 790.8330000000001 690.207 790.8330000000001C594.207 790.8330000000001 528.457 732.2080000000001 528.457 624.5830000000001V531.8330000000001H419.874V406.0830000000001H528.457V83.3330000000001H129.332C103.915 83.3330000000001 83.332 103.9160000000001 83.332 129.3330000000001V870.667C83.332 896.0840000000001 103.915 916.667 129.332 916.667H870.665C896.083 916.667 916.667 896.0830000000001 916.667 870.667z" />
    <glyph glyph-name="gh-pull-request"
      unicode="&#xE008;"
      horiz-adv-x="1000" d=" M833.333 194.458C833.333 132.791 783.875 83.333 722.208 83.333S611.083 132.833 611.083 194.458C611.083 235.25 633.6659999999999 270.833 666.625 289.958V638.9169999999999C666.6669999999999 666.6669999999999 638.875 694.459 611.125 694.459H555.583V583.334L388.9169999999999 750L555.584 916.667V805.5419999999999H611.126C694.459 805.5419999999999 777.793 722.209 777.793 638.875V289.9169999999999C810.75 270.8329999999999 833.333 235.2499999999999 833.333 194.4579999999999zM777.792 194.458C777.792 224.833 752.625 250 722.25 250S666.667 224.833 666.667 194.458S691.8340000000001 138.916 722.2090000000001 138.916S777.792 164.0419999999999 777.792 194.458zM388.875 750C388.875 709.208 366.2920000000001 673.625 333.333 654.5V290.7919999999999C366.333 271.709 388.875 236.084 388.875 195.2919999999999C388.875 133.6669999999999 339.375 84.1669999999999 277.75 84.1669999999999C216.125 84.209 166.667 133.6669999999999 166.667 195.2919999999999C166.667 236.084 189.25 271.6669999999999 222.2090000000001 290.7919999999999V654.5C189.2510000000001 673.625 166.667 709.208 166.667 750C166.667 811.625 216.167 861.125 277.7920000000001 861.125S388.875 811.625 388.875 750zM333.333 194.458C333.333 224.833 308.166 250 277.791 250S222.2489999999999 224.833 222.2489999999999 194.458S247.416 138.916 277.791 138.916C308.1669999999999 138.8749999999999 333.333 164.0419999999999 333.333 194.458zM333.333 750C333.333 780.375 308.166 805.542 277.791 805.542S222.208 780.375 222.208 750S247.375 694.458 277.75 694.458C308.1670000000001 694.458 333.333 719.625 333.333 750z" />
    <glyph glyph-name="git"
      unicode="&#xE009;"
      horiz-adv-x="1000" d=" M901.583 460.5L539.458 98.375C518.458 77.542 484.5 77.542 463.583 98.375L99.708 462.1669999999999C78.75 483.125 78.75 517.1669999999999 99.708 538.125L349.1669999999999 787.583L443.6669999999999 693.083C433.9999999999999 669.875 438.5419999999999 642.125 457.4169999999999 623.2909999999999C463.5839999999999 617.0409999999999 461.8339999999999 619.9159999999999 469.4589999999999 616.7909999999999V386.124C462.5419999999999 383.332 458.9589999999999 378.624 453.7509999999999 373.249C440.0429999999999 361.082 431.2509999999999 343.499 431.2509999999999 323.666C431.2509999999999 286.8739999999999 461.1259999999999 257.041 497.8759999999999 257.041C502.6259999999999 257.041 507.2929999999998 257.541 511.7509999999999 258.4989999999999C524.8759999999999 260.416 537.5429999999999 266.2489999999999 547.6679999999999 276.3319999999999C569.8759999999999 298.5399999999999 572.1679999999999 332.9989999999999 554.751 357.9569999999999C548.876 367.6239999999998 540.6679999999999 375.6649999999999 530.834 381.2489999999999V605.3749999999999L616.959 519.2919999999999C607.4169999999999 496.1669999999999 612.0419999999999 468.5839999999999 630.834 449.834C655.751 424.876 696.209 424.876 721.251 449.834C746.1679999999999 474.751 746.1679999999999 515.209 721.251 540.126C703.2929999999999 558.001 677.5429999999999 562.959 655.209 555.2929999999999L562.834 647.6679999999999C570.626 670.001 565.626 695.7929999999999 547.709 713.6679999999999C530.001 731.4179999999999 504.4589999999999 736.4599999999999 482.2089999999999 728.9179999999999L386.334 824.751L461.876 900.2929999999999C482.8339999999999 921.251 516.876 921.251 537.751 900.2929999999999L901.625 536.5C922.542 515.5 922.542 481.5 901.583 460.5z" />
    <glyph glyph-name="github"
      unicode="&#xE00A;"
      horiz-adv-x="1000" d=" M916.667 489.667C916.667 305.625 797.375 149.584 631.959 94.375C610.834 90.292 603.2919999999999 103.25 603.2919999999999 114.417C603.2919999999999 128.0840000000001 603.7919999999999 173 603.7919999999999 228.7090000000001C603.7919999999999 267.5840000000001 590.4589999999998 293.0010000000001 575.4999999999999 305.8760000000001C668.3329999999999 316.2090000000001 765.7499999999999 351.4180000000001 765.7499999999999 511.5010000000001C765.7499999999999 557.0010000000001 749.6249999999999 594.1680000000001 722.9169999999999 623.2930000000001C727.2089999999998 633.835 741.4999999999999 676.21 718.7499999999999 733.5430000000001C718.7499999999999 733.5430000000001 683.8329999999999 744.7510000000001 604.2919999999999 690.835C570.9999999999999 700.085 535.3749999999999 704.71 499.9589999999999 704.8770000000001C464.5419999999999 704.71 428.876 700.085 395.626 690.835C316.043 744.7520000000001 281.043 733.5430000000001 281.043 733.5430000000001C258.4600000000001 676.21 272.751 633.835 277.043 623.2930000000001C250.375 594.1670000000001 234.1670000000001 557.0000000000001 234.1670000000001 511.5000000000001C234.1670000000001 351.8330000000001 331.4170000000001 316.0830000000001 423.9590000000001 305.5830000000001C412.0420000000001 295.1660000000002 401.2920000000001 276.7910000000001 397.5010000000001 249.8750000000001C373.7510000000001 239.2080000000001 313.4180000000001 220.8330000000001 276.2510000000001 284.5000000000001C276.2510000000001 284.5000000000001 254.2510000000001 324.5000000000001 212.4180000000001 327.4580000000001C212.4180000000001 327.4580000000001 171.7100000000002 327.9580000000001 209.5430000000001 302.1250000000001C209.5430000000001 302.1250000000001 236.8760000000001 289.2920000000002 255.7930000000001 241.1670000000002C255.7930000000001 241.1670000000002 280.2510000000001 160.1250000000001 396.1680000000001 185.3340000000002L396.7510000000001 114.4590000000002C396.7510000000001 103.4170000000001 389.1680000000001 90.5420000000001 368.2930000000001 94.3760000000002C202.7100000000002 149.4590000000002 83.335 305.6260000000002 83.335 489.6680000000002C83.335 719.8350000000002 269.918 906.3760000000002 499.96 906.3760000000002C730.0830000000001 906.3750000000002 916.667 719.8330000000002 916.667 489.6670000000002z" />
    <glyph glyph-name="gplus"
      unicode="&#xE00B;"
      horiz-adv-x="1000" d=" M916.667 534.708H829.875V621.5409999999999H760.417V534.749H673.625V465.2909999999999H760.417V378.5H829.875V465.292H916.667M361.125 552.0830000000001V443.75H512.5C500.875 378.458 444.2920000000001 330.9170000000001 361.125 330.9170000000001C269.458 330.9170000000001 195 408.5420000000001 195 500.2090000000001S269.458 669.292 361.125 669.292C402.458 669.292 439.4170000000001 655.042 468.583 627.292V627.0840000000001L546.875 705.3760000000001C498.792 750.1680000000001 436.125 777.7930000000001 361.125 777.7930000000001C207.625 777.7930000000001 83.3330000000001 653.46 83.3330000000001 500.0010000000001S207.6250000000001 222.2090000000001 361.125 222.2090000000001C521.542 222.2090000000001 627.7919999999999 335.0420000000001 627.7919999999999 493.751C627.7919999999999 514.043 625.875 533.501 622.4169999999999 552.0840000000001H361.125z" />
    <glyph glyph-name="instagram-square"
      unicode="&#xE00C;"
      horiz-adv-x="1000" d=" M503.083 414.375C552 414.375 591.875 454.167 591.875 503.125C591.875 522.458 585.5419999999999 540.292 575.083 554.875C558.958 577.25 532.75 591.875 503.125 591.875S447.2920000000001 577.25 431.125 554.875C420.625 540.292 414.375 522.458 414.333 503.125C414.333 454.167 454.167 414.375 503.083 414.375zM641 494.875C641 418.875 579.125 361.9170000000001 503.083 361.9170000000001S365.208 420.5 365.208 496.542C365.208 514.792 368.875 541.667 375.375 541.667H291.6670000000001V348.4170000000001C291.6670000000001 321.75 321.75 291.6670000000001 348.4170000000001 291.6670000000001H657.75C684.375 291.6670000000001 708.3330000000001 321.75 708.3330000000001 348.4170000000001V541.667H630.75C637.3330000000001 541.667 641 513.167 641 494.875zM875 916.667H125C102 916.667 83.333 898 83.333 875V125C83.333 102 102 83.333 125 83.333H875C898 83.333 916.667 102 916.667 125V875C916.667 898 898 916.667 875 916.667zM750 554.833V348.416C750 294.6239999999999 711.5 249.9989999999999 657.792 249.9989999999999H348.4170000000001C294.6670000000001 249.9989999999999 250 294.6239999999999 250 348.416V657.75C250 711.5 294.6670000000001 750 348.4170000000001 750H657.75C711.5 750 750 711.5 750 657.75V554.833z M625 687.5H687.5V625H625V687.5z" />
    <glyph glyph-name="instagram"
      unicode="&#xE00D;"
      horiz-adv-x="1000" d=" M916.667 247.333V762.958C916.667 852.5409999999999 852.542 916.666 762.9590000000001 916.666H247.376C157.793 916.666 83.334 852.5409999999999 83.334 762.958V247.375C83.334 157.75 157.7919999999999 83.333 247.376 83.333H762.959C852.5419999999999 83.333 916.667 157.75 916.667 247.333zM833.333 833.333V708.333H708.333V833.333H833.333zM385.25 591.4169999999999C412.1670000000001 628.6669999999999 455.833 653.084 505.208 653.084C554.5409999999999 653.084 598.25 628.6669999999999 625.125 591.376C642.583 567.084 653.083 537.376 653.083 505.168C653.083 423.5850000000001 586.625 357.251 505.125 357.251C423.583 357.251 357.1670000000001 423.626 357.25 505.2089999999999C357.333 537.4169999999999 367.75 567.125 385.25 591.4169999999999zM247.333 166.6669999999999C202.916 166.6669999999999 166.666 202.8749999999999 166.666 247.334V583.334H292.2489999999999C281.416 541.6669999999999 275.3319999999999 531.626 275.3319999999999 501.1669999999999C275.3319999999999 374.459 378.4149999999999 273.334 505.1649999999998 273.334S734.9999999999999 373.458 734.9999999999999 500.1669999999999C734.9999999999999 530.6249999999999 728.8329999999999 541.709 717.9169999999999 583.3749999999999H833.3339999999998V247.3749999999999C833.3339999999998 202.8749999999999 807.2919999999999 166.6669999999999 762.9169999999999 166.6669999999999H247.3329999999999z" />
    <glyph glyph-name="linkedin-square"
      unicode="&#xE00E;"
      horiz-adv-x="1000" d=" M875 916.667H125C102 916.667 83.333 898 83.333 875V125C83.333 102 102 83.333 125 83.333H875C898 83.333 916.667 102 916.667 125V875C916.667 898 898 916.667 875 916.667zM333.333 250H250V583.3330000000001H333.333V250zM291.708 625C257.083 625 229.166 653 229.166 687.5S257.083 750 291.708 750C326.166 750 354.166 722 354.166 687.5S326.1669999999999 625 291.708 625zM708.333 250H625V375C625 479.167 616.5419999999999 500.5 566.667 500.5C512.75 500.5 500 458.375 500 414.875V250H416.6670000000001V583.3330000000001H500V541.666S518.667 583.3330000000001 604.167 583.3330000000001C669.917 583.3330000000001 708.3340000000001 526.7080000000001 708.3340000000001 432.8330000000001V250z" />
    <glyph glyph-name="pinterest"
      unicode="&#xE00F;"
      horiz-adv-x="1000" d=" M875 500C875 292.875 707.125 125 500 125C461.333 125 424.0420000000001 130.875 388.958 141.708C404.25 166.625 427.083 207.458 435.583 240L458.958 329.125C471.166 305.7920000000001 506.9159999999999 286.0420000000001 544.9159999999999 286.0420000000001C657.9989999999999 286.0420000000001 739.4989999999999 390.0420000000001 739.4989999999999 519.292C739.4989999999999 643.167 638.4159999999999 735.875 508.3319999999999 735.875C346.4989999999999 735.875 260.54 627.25 260.54 508.958C260.54 453.9580000000001 289.832 385.5 336.665 363.6660000000001C343.79 360.374 347.582 361.8330000000001 349.207 368.6660000000001L359.624 411.2080000000001C360.5410000000001 415 360.082 418.25 357.0410000000001 421.9580000000001C341.5410000000001 440.7500000000001 329.124 475.2910000000001 329.124 507.5410000000001C329.124 590.249 391.749 670.291 498.457 670.291C590.582 670.291 655.082 607.499 655.082 517.749C655.082 416.2910000000001 603.832 346.0410000000001 537.207 346.0410000000001C500.415 346.0410000000001 472.832 376.499 481.665 413.8330000000001C492.248 458.4160000000001 512.707 506.5000000000001 512.707 538.666C512.707 567.4580000000001 497.249 591.499 465.249 591.499C427.624 591.499 397.374 552.5820000000001 397.374 500.4160000000001C397.374 467.2080000000001 408.582 444.749 408.582 444.749S371.415 287.624 364.624 258.332C357.082 225.915 360.0410000000001 180.415 363.332 150.749C223.833 205.4580000000001 125 341.125 125 500C125 707.125 292.875 875 500 875S875 707.125 875 500z" />
    <glyph glyph-name="share"
      unicode="&#xE010;"
      horiz-adv-x="1000" d=" M723.25 215.167C724.917 207.625 725.917 199.8340000000001 725.917 191.792C725.917 131.917 677.3340000000001 83.3340000000001 617.375 83.3340000000001C557.5 83.3340000000001 508.917 131.917 508.917 191.792C508.917 251.7090000000001 557.5 300.25 617.375 300.25C647.417 300.25 674.625 288.0419999999999 694.292 268.2920000000001C762.4590000000001 322.8340000000001 806.542 406.125 806.542 500C806.542 567.583 783.042 629.25 744.917 679.25C761.042 692.542 774.4590000000001 708.625 784.667 726.917C835.4580000000001 665.25 866.042 586.167 866.042 500C866.0830000000001 383.375 809.667 280.333 723.25 215.1669999999999zM638.5 916.667C595.417 916.667 558.458 891.292 540.958 854.8340000000001C530.333 855.8340000000001 519.7909999999999 857.126 508.9159999999999 857.126C376.791 857.126 261.708 785.168 199.916 678.4590000000001L200.7489999999999 678.542C222.541 678.542 243.2489999999999 674.0840000000001 262.416 666.4590000000001C315.958 745.5 406.458 797.5830000000001 508.958 797.5830000000001C516.583 797.5830000000001 523.9159999999999 796.5830000000001 531.2909999999999 795.916C537.4579999999999 741.874 582.833 699.666 638.5409999999999 699.666C698.458 699.666 747.083 748.249 747.083 808.124C747.0419999999999 868.0830000000001 698.4169999999999 916.667 638.5 916.667zM456.167 147.375C452.209 161.625 449.4170000000001 176.333 449.4170000000001 191.792C449.4170000000001 198.25 450.2920000000001 204.4590000000001 451.042 210.667C346.2090000000001 231.6670000000001 261.25 306.7920000000001 227.4590000000001 405.8340000000001C274.3760000000001 417.7920000000002 309.2510000000001 460.0010000000001 309.2510000000001 510.5840000000001C309.2510000000001 570.5010000000001 260.6680000000001 619.042 200.7090000000001 619.042C140.8340000000001 619.042 92.2510000000001 570.5 92.2510000000001 510.5840000000001C92.2510000000001 463.2510000000001 122.7510000000001 423.4590000000001 165.0840000000001 408.6260000000001C201.25 272.7080000000001 314.5420000000001 168.3750000000001 456.1670000000001 147.3750000000001z" />
    <glyph glyph-name="stackoverflow"
      unicode="&#xE011;"
      horiz-adv-x="1000" d=" M761.042 157.708V380.7919999999999H835.375V83.334H166.667V380.75H241V157.6669999999999H761.042V157.708zM322.833 401.2919999999999L686.625 324.834L701.9169999999999 397.584L338.125 474.0419999999999L322.833 401.2919999999999zM370.958 575.458L707.958 418.5L739.333 485.917L402.375 642.875L370.958 575.4580000000001zM464.208 740.7919999999999L749.875 502.875L797.458 560L511.7919999999999 797.917L464.2079999999999 740.792zM648.625 916.667L588.958 872.2919999999999L810.833 574L870.5 618.375L648.625 916.667zM315.4580000000001 232.0419999999999H687.2080000000001V306.3749999999999H315.4580000000001V232.0419999999999z" />
    <glyph glyph-name="statusinvalid"
      unicode="&#xE012;"
      horiz-adv-x="1000" d=" M500 916.667C269.875 916.667 83.3330000000001 730.125 83.3330000000001 500C83.3330000000001 269.9170000000001 269.8750000000001 83.3330000000001 500.0000000000001 83.3330000000001C730.0830000000001 83.3330000000001 916.667 269.9160000000001 916.667 500.0000000000001C916.667 730.125 730.0830000000001 916.667 500.0000000000001 916.667zM541.667 250H458.3340000000001V333.333H541.667V250zM541.667 416.6670000000001H458.3340000000001V750H541.667V416.6670000000001z" />
    <glyph glyph-name="tumblr-square"
      unicode="&#xE013;"
      horiz-adv-x="1000" d=" M875 916.667H125C102 916.667 83.333 898 83.333 875V125C83.333 102 102 83.333 125 83.333H875C898 83.333 916.667 102 916.667 125V875C916.667 898 898 916.667 875 916.667zM567.2919999999999 250.0420000000001C458.5839999999999 248.1670000000001 416.6669999999999 327.625 416.6669999999999 383.5420000000001V541.667H366.7919999999999L366.6669999999999 611.5C449.9999999999999 638.8330000000001 465.2079999999999 707.25 469.4999999999999 746.25L469.4169999999999 750H541.6669999999999V625H624.9999999999999V541.667H541.6669999999999V391.2920000000001C541.6669999999999 370.125 549.9589999999998 340.9170000000001 589.9169999999999 342C603.1669999999999 342.3330000000001 620.9999999999999 346.2080000000001 630.2919999999999 350.625L653.9999999999999 279.2920000000001C644.9579999999999 266.0420000000001 603.9579999999999 250.6670000000001 567.2919999999999 250.0420000000001z" />
    <glyph glyph-name="tumblr"
      unicode="&#xE014;"
      horiz-adv-x="1000" d=" M710 251.0420000000001C694.5419999999999 243.6670000000001 664.958 237.2090000000001 642.917 236.6670000000001C576.3340000000001 234.875 563.4590000000001 283.5 562.875 318.8340000000001V578.25H729.875V704.375H563.5V916.667H441.6670000000001C439.6670000000001 916.667 436.1670000000001 914.875 435.7090000000001 910.417C428.5840000000001 845.4590000000001 398.2090000000001 731.417 272.0840000000001 685.8340000000001V578.2090000000001H356.2510000000001V305.9170000000002C356.2510000000001 212.7090000000001 424.8760000000001 80.2920000000001 606.0430000000001 83.3750000000001C667.1680000000001 84.4170000000001 735.0430000000001 110.0830000000001 750.0430000000001 132.1670000000002L710.0000000000001 251.0420000000002z" />
    <glyph glyph-name="twitter"
      unicode="&#xE015;"
      horiz-adv-x="1000" d=" M831.375 669.958L831.875 647.833C831.875 421.916 659.917 161.375 345.4169999999999 161.375C248.8749999999999 161.375 158.9999999999999 189.667 83.3339999999998 238.1670000000001C96.7089999999998 236.5840000000001 110.3339999999998 235.7920000000001 124.1259999999999 235.7920000000001C204.2089999999998 235.7920000000001 277.9589999999999 263.125 336.4589999999999 309C261.6259999999999 310.375 198.5009999999999 359.833 176.7509999999999 427.75C187.2089999999998 425.75 197.9179999999999 424.6669999999999 208.9179999999999 424.6669999999999C224.5009999999999 424.6669999999999 239.6259999999999 426.75 253.9599999999999 430.6669999999999C175.752 446.375 116.7929999999999 515.459 116.7929999999999 598.2919999999999V600.459C139.8349999999999 587.6669999999999 166.2099999999999 579.959 194.2509999999999 579.084C148.3759999999999 609.709 118.2089999999998 662.0419999999999 118.2089999999998 721.376C118.2089999999998 752.709 126.6259999999999 782.084 141.3759999999999 807.334C225.6679999999999 703.876 351.6679999999999 635.834 493.7509999999999 628.709C490.8339999999999 641.209 489.3339999999999 654.251 489.3339999999999 667.6669999999999C489.3339999999999 762.084 565.8759999999999 838.625 660.2919999999999 838.625C709.459 838.625 753.8749999999999 817.875 785.084 784.625C824.0419999999999 792.2919999999999 860.626 806.5419999999999 893.6669999999999 826.125C880.9169999999999 786.208 853.7919999999999 752.708 818.4999999999999 731.5419999999999C853.0829999999999 735.6669999999999 886.0419999999999 744.875 916.7079999999999 758.459C893.7499999999999 724.1669999999999 864.7499999999999 694.0419999999999 831.3749999999999 669.958z" />
    <glyph glyph-name="vimeo"
      unicode="&#xE016;"
      horiz-adv-x="1000" d=" M874.625 660.75C871.292 587.583 820.292 487.458 721.667 360.2919999999999C619.708 227.5 533.417 161.083 462.833 161.083C419.125 161.083 382.125 201.5 351.916 282.375L291.3739999999999 504.792C268.916 585.625 244.8739999999999 626.0840000000001 219.1239999999999 626.0840000000001C213.4989999999999 626.0840000000001 193.8739999999999 614.251 160.2489999999999 590.7090000000001L124.9999999999999 636.292C161.9999999999999 668.875 198.5419999999999 701.4590000000001 234.4579999999999 734.0840000000001C283.8329999999999 776.8340000000001 320.8749999999999 799.292 345.5829999999999 801.5840000000001C403.9579999999999 807.2090000000001 439.8749999999999 767.2090000000001 453.3749999999999 681.667C467.9579999999999 589.3340000000001 478.0419999999999 531.917 483.7079999999999 509.417C500.5409999999998 432.8340000000001 519.0409999999998 394.5840000000001 539.2499999999999 394.5840000000001C554.9579999999999 394.5840000000001 578.5419999999999 419.4170000000001 609.9579999999999 469.1260000000001C641.3749999999999 518.8340000000001 658.2079999999999 556.6260000000001 660.4579999999999 582.5840000000001C664.9159999999999 625.4590000000001 648.1249999999998 646.9590000000001 609.9579999999999 646.9590000000001C591.9999999999999 646.9590000000001 573.4999999999999 642.8340000000001 554.4579999999999 634.6260000000001C591.3329999999999 755.5830000000001 661.7499999999999 814.3330000000001 765.7079999999999 811.0000000000001C842.7499999999999 808.7080000000001 879.0829999999999 758.6250000000001 874.6249999999999 660.7500000000001z" />
    <glyph glyph-name="vine-square"
      unicode="&#xE017;"
      horiz-adv-x="1000" d=" M875 916.667H125C102 916.667 83.333 898 83.333 875V125C83.333 102 102 83.333 125 83.333H875C898 83.333 916.667 102 916.667 125V875C916.667 898 898 916.667 875 916.667zM596.2919999999999 674.917C575.75 674.917 561.25 655.375 561.25 617.8340000000001C561.25 541.2090000000001 609.25 497.167 672.333 497.167C683.5409999999999 497.167 708.333 498.459 708.333 501.459V441.9170000000001C708.333 437.1670000000001 666.75 435.1670000000001 649.208 435.0840000000001C607.333 346.626 532.083 271.126 506.958 256.8340000000001C490.9159999999999 247.8340000000001 476 243.2090000000001 458.458 253.7090000000001C427.458 272.2090000000001 310.416 375.0010000000001 271.125 666.6670000000001H356.208C377.583 500.0000000000001 429.75 396.2500000000001 487.417 326.5000000000001C519.209 358.2920000000002 549.709 402.5830000000001 573.6669999999999 450.5000000000001C516.709 479.4170000000001 482.167 543.8750000000001 482.167 617.7920000000001C482.167 692.4170000000001 525.209 749.5000000000001 598.834 749.5000000000001C670.4169999999999 749.5000000000001 709.501 705.2080000000001 709.501 628.5830000000001C709.501 600.1250000000001 703.376 567.7910000000002 692.084 542.7080000000001C638.9169999999999 532.2910000000002 619.501 566.2910000000002 619.501 566.2910000000002C623.501 579.4160000000002 628.9179999999999 601.5830000000001 628.9179999999999 621.7910000000002C628.833 657.3330000000001 615.833 674.9170000000001 596.2919999999999 674.9170000000001z" />
    <glyph glyph-name="vine"
      unicode="&#xE018;"
      horiz-adv-x="1000" d=" M855.583 403.1669999999999C820.5409999999999 395.25 785.375 391.875 756.083 391.7919999999999C686.333 244.375 560.458 118.5 518.5 94.6669999999999C491.792 79.6249999999999 466.667 78.7919999999999 437.458 96.334C385.7919999999999 127.1669999999999 190.5419999999999 287.625 125 791.5H266.833C302.5 488.958 389.416 333.9169999999999 485.5409999999999 217.708C538.5409999999999 270.708 589.333 341.083 629.2489999999999 420.958C534.2909999999999 469.125 476.7069999999999 574.875 476.7069999999999 698.0409999999999C476.7069999999999 822.374 548.4569999999999 916.666 671.1239999999999 916.666C790.4569999999999 916.666 855.5409999999999 842.4159999999999 855.5409999999999 714.708C855.5409999999999 667.25 845.3329999999999 613.1659999999999 826.4989999999999 571.4159999999999C737.9159999999999 554.083 705.4989999999999 610.583 705.4989999999999 610.583C712.1659999999999 632.4159999999999 721.1659999999999 669.333 721.1659999999999 703.0409999999999C721.1659999999999 762.2909999999999 699.4579999999999 791.499 666.9159999999999 791.499C632.708 791.499 608.4989999999999 758.957 608.4989999999999 696.374C608.4989999999999 568.707 689.4569999999999 495.249 794.5819999999999 495.249C813.29 495.249 834.04 497.416 855.4989999999999 502.374V403.1660000000001L855.5829999999999 403.1670000000001z" />
    <glyph glyph-name="web"
      unicode="&#xE019;"
      horiz-adv-x="1000" d=" M916.667 500L915.959 514.0830000000001C908.458 737.625 725.375 916.667 500 916.667C269.875 916.667 83.3330000000001 730.125 83.3330000000001 500.0000000000001C83.3330000000001 487.8330000000001 84.0410000000001 475.875 85.1250000000001 464.0830000000001C86.0420000000001 453.375 87.5830000000001 442.7910000000001 89.2920000000001 432.4160000000001L89.4170000000001 431.374C118.5420000000002 256.249 256.4590000000002 118.4160000000001 431.6670000000002 89.4160000000001L432.8750000000001 89.249C443.2080000000002 87.582 453.6250000000001 86.124 464.2080000000001 85.1660000000001C476.0410000000001 84.0410000000001 487.9160000000001 83.3330000000001 500.0000000000001 83.3330000000001C513.7920000000001 83.3330000000001 527.3750000000001 84.0830000000001 540.7500000000001 85.3750000000001C751.7500000000001 105.8750000000001 916.6670000000001 283.6250000000001 916.6670000000001 500.0000000000001zM676.708 598.917C719.958 605.667 765.6659999999999 617.2090000000001 814.583 634.8340000000001C832.375 593.4590000000001 842.25 547.876 842.25 499.959L841.125 477.7090000000001C779.333 450.792 723.75 434.751 671.625 426.3340000000001C678.2080000000001 462.792 681.5830000000001 497.417 681.2080000000001 530.0840000000001C681 553.958 679.167 576.667 676.7080000000001 598.917zM782.6669999999999 692.875C741.7919999999999 678.792 703.25 669.042 666.5419999999999 663.333C653.7919999999999 724.708 633.75 777.5409999999999 611.959 823.125C681.958 798.917 741.625 752.917 782.6669999999999 692.875zM500 157.75C489.875 157.75 479.875 158.375 470 159.25C440.083 225.708 417.1670000000001 291.6670000000001 402.875 356C434.0420000000001 352.9169999999999 466.333 350.875 499.667 350.5419999999999L523.667 350.4169999999999C544.375 350.4169999999999 565.292 351 586.375 352.0419999999999C568.167 293.0419999999999 541.208 228.4169999999999 505.875 158L500 157.75zM500.333 415.4169999999999C462.5 415.834 426.0410000000001 418.625 390.9160000000001 422.75C385.9160000000001 459.042 383.249 494.708 383.5830000000001 529.417C383.8330000000001 552.417 385.4580000000001 574.417 387.5830000000001 595.792C423.4580000000001 591.7090000000001 460.8330000000001 589.042 499.5830000000001 588.625L523.5830000000001 588.458C552.666 588.458 582.041 589.375 612.1250000000001 591.708C614.3750000000001 571.458 616.0830000000001 550.9159999999999 616.3330000000001 529.375C616.6660000000002 495 612.2500000000001 457.833 603.8750000000001 418.125C569.1670000000001 415.7080000000001 535.0000000000001 415.25 500.3330000000001 415.4169999999999zM500 842.25C509.833 842.25 519.458 841.583 529.083 840.792C556.9169999999999 792.5 585.25 730.917 601.75 655.833C567.75 653.5 534.333 653.208 500.375 653.5C464.667 653.917 430.083 656.333 396.833 660.083C410.708 732.458 433.625 791.9159999999999 456.4159999999999 839.1659999999999C470.7079999999999 841 485.1669999999999 842.25 499.9999999999999 842.25zM376 818.75C358.75 775.708 342.9170000000001 726.25 332.4170000000001 669.458C291.25 676.583 253.5840000000001 685.6659999999999 219.167 695.375C257.7080000000001 750.708 312.25 793.917 376 818.75zM157.75 500C157.75 548.75 168.083 595.042 186.458 637.083C227.25 625.0409999999999 272.666 613.625 323.333 605C320.833 580.875 319.041 556.167 318.75 530.125C318.4170000000001 498.25 320.7920000000001 465.667 324.625 432.708C260.583 444.333 205.208 460.333 158.958 476C158.375 483.9580000000001 157.75 491.875 157.75 500zM171.792 403.2920000000001C219.292 388.75 273.7090000000001 374.7920000000001 335.125 364.9170000000001C347.375 302.5840000000001 367.375 238.9590000000001 393.5420000000001 174.8340000000001C287 209.7080000000001 203.5830000000001 295.3330000000001 171.792 403.2920000000001zM582.375 168.125C614.875 236.375 639.917 299.958 656.0830000000001 358.208C709.2500000000001 365.083 765.8750000000001 378.625 827.8330000000001 401.916C793.4170000000001 286.6669999999999 699.8330000000001 197.208 582.3750000000001 168.125z" />
    <glyph glyph-name="wechat"
      unicode="&#xE01A;"
      horiz-adv-x="1000" d=" M556.125 831.833C469.542 880.583 361.583 887.958 268.4169999999999 854.2909999999999C207.2079999999999 832.25 151.7499999999999 791.25 117.4999999999999 735.458C86.4579999999999 685.125 74.7919999999999 622.375 89.8329999999999 564.7909999999999C104.8329999999999 500.874 149.1249999999999 447.333 203.0829999999999 411.541C192.9579999999999 382.041 182.9159999999998 352.541 173.4999999999999 322.833C207.5829999999999 340.541 241.2919999999999 359.041 275.2919999999999 377.041C316.2499999999999 363.916 359.2919999999999 357.6239999999999 402.334 358.9989999999999C391.126 391.8739999999999 388.459 427.2489999999999 393.584 461.5409999999999C401.751 509.1239999999999 427.459 552.6239999999999 463.0419999999999 584.9159999999999C522.9169999999999 640.9989999999999 607.834 664.6659999999999 688.6249999999999 658.958C673.4579999999999 733.083 621.4169999999999 795.708 556.1249999999999 831.833zM324 697.5C318 668.5 279.083 654.5 256.375 673.958C230.083 692.5 237.4170000000001 738.625 268.375 747.875C298.6670000000001 759.583 333.125 728.792 324 697.5zM534.333 705.917C534.583 672.542 490.125 651.7090000000001 465.083 674.375C439.125 692.917 446.5 738.167 476.958 747.542C504.25 758.292 536.458 735.292 534.333 705.917zM900.6669999999999 503.292C879.5419999999999 551.167 839.625 589.0840000000001 793.334 612.542C711.625 654 609.9169999999999 653.667 528.5 611.5830000000001C471.833 582.5 424.583 530.417 411.125 467C400.0420000000001 420.375 410 370.125 434.75 329.4170000000001C471.583 268.3340000000001 538.125 229.375 607.333 216.8340000000001C657.458 206.667 709.2909999999999 212.6260000000001 757.958 226.7920000000001C787.083 215.417 813.25 197.0840000000001 841.5409999999999 183.5C834.2909999999999 207.958 826.5409999999999 232.333 818.1659999999999 256.4170000000001C849.833 279.0420000000001 878.708 307.125 896.083 342.4590000000001C921.875 391.7080000000001 923.458 452.667 900.6669999999999 503.292zM616.25 485C609.0830000000001 462.375 576.083 455.542 560.208 472.8330000000001C542.6659999999999 488.75 549.5 522.0830000000001 572.458 529.166C598.0419999999999 539.917 627.458 510.542 616.25 485zM782.75 481.875C774 461.5 743.5 456.792 728.458 472.5830000000001C721.1659999999999 479.125 719.375 489.125 716.458 497.9160000000001C720.375 513.791 730.958 530.291 748.958 530.999C773.875 534.417 795.75 504.1250000000001 782.75 481.875z" />
    <glyph glyph-name="wordpress"
      unicode="&#xE01B;"
      horiz-adv-x="1000" d=" M142.583 500C142.583 358.5420000000001 224.791 236.25 344.041 178.3330000000001L173.5 645.5C153.667 601.042 142.583 551.8330000000001 142.583 500.0000000000001zM741.2919999999999 518.042C741.2919999999999 562.25 725.4169999999999 592.8340000000001 711.834 616.625C693.709 646.0830000000001 676.709 671 676.709 700.4580000000001C676.709 733.291 701.626 763.875 736.751 763.875L741.376 763.5830000000001C677.7919999999999 821.875 593.0419999999999 857.4580000000001 499.9999999999999 857.4580000000001C375.125 857.4580000000001 265.25 793.375 201.375 696.375L224.375 695.9580000000001C261.75 695.9580000000001 319.625 700.5 319.625 700.5C338.875 701.625 341.1670000000001 673.3330000000001 321.9170000000001 671.042C321.9170000000001 671.042 302.5420000000001 668.792 281 667.625L411.1670000000001 280.4580000000001L489.417 515.041L433.75 667.624C414.5 668.749 396.25 671.041 396.25 671.041C376.958 672.124 379.208 701.5830000000001 398.458 700.4580000000001C398.458 700.4580000000001 457.458 695.916 492.583 695.916C529.958 695.916 587.833 700.4580000000001 587.833 700.4580000000001C607.083 701.5830000000001 609.375 673.291 590.125 671C590.125 671 570.75 668.75 549.208 667.5830000000001L678.375 283.375L714.042 402.5C729.542 451.958 741.292 487.458 741.292 518.042zM506.2499999999999 468.75L398.9999999999999 157.125C431.0419999999999 147.708 464.8749999999999 142.542 499.9999999999999 142.542C541.6249999999999 142.542 581.5419999999999 149.7090000000001 618.7079999999999 162.792L616.1659999999999 167.7090000000001C616.1669999999999 167.7080000000001 506.2499999999999 468.75 506.2499999999999 468.75zM813.6249999999999 671.5C815.1669999999999 660.125 816.0419999999999 647.917 816.0419999999999 634.75C816.0419999999999 598.5 809.2499999999999 557.708 788.8749999999999 506.708L679.7079999999999 191.041C785.9579999999999 253 857.4169999999999 368.125 857.4169999999999 499.9999999999999C857.4169999999999 562.1669999999999 841.5419999999999 620.583 813.6249999999999 671.5zM499.9999999999999 916.667C270.2499999999999 916.667 83.3329999999999 729.75 83.3329999999999 500S270.2499999999999 83.3330000000001 499.9999999999998 83.3330000000001S916.6669999999998 270.2500000000001 916.6669999999998 500.0000000000001S729.7499999999998 916.667 499.9999999999998 916.667zM499.9999999999999 102.4580000000001C280.7919999999999 102.4580000000001 102.4579999999999 280.8330000000001 102.4579999999999 500.0410000000001S280.7919999999999 897.5830000000001 499.9999999999998 897.5830000000001S897.5419999999998 719.2500000000001 897.5419999999998 500.0420000000001C897.5419999999998 280.7920000000002 719.2079999999999 102.4580000000001 499.9999999999998 102.4580000000001z" />
    <glyph glyph-name="yelp"
      unicode="&#xE01C;"
      horiz-adv-x="1000" d=" M578.8330000000001 384.875C564.75 370.7080000000001 576.666 344.9170000000001 576.666 344.9170000000001L682.541 168.125S699.916 144.833 714.999 144.833C730.124 144.833 745.0820000000001 157.25 745.0820000000001 157.25L828.7900000000001 276.875S837.2070000000001 291.9580000000001 837.4150000000001 305.208C837.7070000000001 324 809.373 329.166 809.373 329.166L611.206 392.791C611.167 392.75 591.75 397.9169999999999 578.8330000000001 384.875zM568.792 473.958C578.917 456.75 606.917 461.7909999999999 606.917 461.7909999999999L804.625 519.583S831.5830000000001 530.5409999999999 835.417 545.1659999999999C839.2090000000001 559.7909999999999 830.9590000000001 577.4159999999999 830.9590000000001 577.4159999999999L736.4590000000001 688.708S728.251 702.7909999999999 711.292 704.208C692.542 705.7909999999999 681.042 683.125 681.042 683.125L569.3340000000001 507.333C569.3330000000001 507.292 559.4580000000001 489.792 568.7920000000001 473.958zM475.375 542.5C498.667 548.25 502.333 582.0419999999999 502.333 582.0419999999999L500.7499999999999 863.5S497.2499999999999 898.208 481.6249999999999 907.625C457.1669999999999 922.458 449.9169999999999 914.708 442.875 913.667L278.7920000000001 852.75S262.7090000000001 847.417 254.3340000000001 834C242.3750000000001 815 266.5000000000001 787.167 266.5000000000001 787.167L437.1250000000001 554.625C437.0830000000001 554.625 453.9170000000001 537.208 475.3750000000001 542.5zM434.833 428.583C435.416 450.291 408.75 463.333 408.75 463.333L232.333 552.458S206.208 563.25 193.5 555.708C183.792 549.958 175.167 539.583 174.333 530.375L162.833 388.9169999999999S161.125 364.4169999999999 167.458 353.25C176.458 337.4169999999999 206.041 348.4580000000001 206.041 348.4580000000001L412 394C420.0420000000001 399.4169999999999 434.083 399.875 434.833 428.583zM486.083 352.25C468.4159999999999 361.3330000000001 447.25 342.5419999999999 447.25 342.5419999999999L309.333 190.709S292.125 167.501 296.5 153.251C300.625 139.876 307.458 133.251 317.125 128.584L455.625 84.876S472.417 81.376 485.125 85.084C503.167 90.334 499.833 118.584 499.833 118.584L502.958 324.1669999999999C502.958 324.0829999999999 502.25 343.8749999999999 486.083 352.2499999999999z" />
    <glyph glyph-name="youtube"
      unicode="&#xE01D;"
      horiz-adv-x="1000" d=" M908.333 666.625S900.208 724.042 875.208 749.333C843.542 782.542 808 782.708 791.708 784.625C675.083 793.042 500.1660000000001 793.042 500.1660000000001 793.042H499.7910000000001S324.874 793.042 208.249 784.625C192 782.667 156.5 782.542 124.792 749.333C99.792 724.0409999999999 91.667 666.625 91.667 666.625S83.3340000000001 599.167 83.3340000000001 531.75V468.542C83.3340000000001 401.125 91.667 333.6670000000001 91.667 333.6670000000001S99.792 276.25 124.792 250.9590000000001C156.5 217.7510000000001 198.125 218.8340000000001 216.667 215.3340000000001C283.3340000000001 208.9590000000001 500.0000000000001 206.9590000000001 500.0000000000001 206.9590000000001S675.125 207.2090000000001 791.7080000000001 215.667C808.0000000000001 217.625 843.5000000000001 217.792 875.2080000000001 250.9590000000001C900.2080000000001 276.2510000000001 908.333 333.6670000000001 908.333 333.6670000000001S916.666 401.0840000000001 916.666 468.542V531.75C916.667 599.167 908.333 666.625 908.333 666.625zM359.9169999999999 335.6669999999999L359.834 682.2919999999999L693.1669999999999 508.375L359.9169999999999 335.6670000000001z" />
  </font>
</defs>
</svg>
