<svg xmlns="http://www.w3.org/2000/svg" viewBox="-955 -219 1000 1000" enable-background="new -955 -219 1000 1000"><path d="M-121.667 586.542c0 61.667-49.458 111.125-111.125 111.125s-111.125-49.5-111.125-111.125c0-40.792 22.583-76.375 55.542-95.5v-348.959c.042-27.75-27.75-55.542-55.5-55.542h-55.542v111.125l-166.666-166.666 166.667-166.667v111.125h55.542c83.333 0 166.667 83.333 166.667 166.667v348.958c32.957 19.084 55.54 54.667 55.54 95.459zm-55.541 0c0-30.375-25.167-55.542-55.542-55.542s-55.583 25.167-55.583 55.542 25.167 55.542 55.542 55.542 55.583-25.126 55.583-55.542zm-388.917-555.542c0 40.792-22.583 76.375-55.542 95.5v363.708c33 19.083 55.542 54.708 55.542 95.5 0 61.625-49.5 111.125-111.125 111.125-61.625-.042-111.083-49.5-111.083-111.125 0-40.792 22.583-76.375 55.542-95.5v-363.708c-32.958-19.125-55.542-54.708-55.542-95.5 0-61.625 49.5-111.125 111.125-111.125s111.083 49.5 111.083 111.125zm-55.542 555.542c0-30.375-25.167-55.542-55.542-55.542s-55.542 25.167-55.542 55.542 25.167 55.542 55.542 55.542c30.376.041 55.542-25.126 55.542-55.542zm0-555.542c0-30.375-25.167-55.542-55.542-55.542s-55.583 25.167-55.583 55.542 25.167 55.542 55.542 55.542c30.417 0 55.583-25.167 55.583-55.542z"/></svg>