<svg xmlns="http://www.w3.org/2000/svg" viewBox="-955 -219 1000 1000" enable-background="new -955 -219 1000 1000"><path d="M-53.417 320.5l-362.125 362.125c-21 20.833-54.958 20.833-75.875 0l-363.875-363.792c-20.958-20.958-20.958-55 0-75.958l249.459-249.458 94.5 94.5c-9.667 23.208-5.125 50.958 13.75 69.792 6.167 6.25 4.417 3.375 12.042 6.5v230.667c-6.917 2.792-10.5 7.5-15.708 12.875-13.708 12.167-22.5 29.75-22.5 49.583 0 36.792 29.875 66.625 66.625 66.625 4.75 0 9.417-.5 13.875-1.458 13.125-1.917 25.792-7.75 35.917-17.833 22.208-22.208 24.5-56.667 7.083-81.625-5.875-9.667-14.083-17.708-23.917-23.292v-224.126l86.125 86.083c-9.542 23.125-4.917 50.708 13.875 69.458 24.917 24.958 65.375 24.958 90.417 0 24.917-24.917 24.917-65.375 0-90.292-17.958-17.875-43.708-22.833-66.042-15.167l-92.375-92.375c7.792-22.333 2.792-48.125-15.125-66-17.708-17.75-43.25-22.792-65.5-15.25l-95.875-95.833 75.542-75.542c20.958-20.958 55-20.958 75.875 0l363.874 363.793c20.917 21 20.917 55-.042 76z"/></svg>