<svg xmlns="http://www.w3.org/2000/svg" viewBox="-955 -219 1000 1000" enable-background="new -955 -219 1000 1000"><path d="M-38.333 291.333c0 184.042-119.292 340.083-284.708 395.292-21.125 4.083-28.667-8.875-28.667-20.042 0-13.667.5-58.583.5-114.292 0-38.875-13.333-64.292-28.292-77.167 92.833-10.333 190.25-45.542 190.25-205.625 0-45.5-16.125-82.667-42.833-111.792 4.292-10.542 18.583-52.917-4.167-110.25 0 0-34.917-11.208-114.458 42.708-33.292-9.25-68.917-13.875-104.333-14.042-35.417.167-71.083 4.792-104.333 14.042-79.583-53.917-114.583-42.708-114.583-42.708-22.583 57.333-8.292 99.708-4 110.25-26.668 29.126-42.876 66.293-42.876 111.793 0 159.667 97.25 195.417 189.792 205.917-11.917 10.417-22.667 28.792-26.458 55.708-23.75 10.667-84.083 29.042-121.25-34.625 0 0-22-40-63.833-42.958 0 0-40.708-.5-2.875 25.333 0 0 27.333 12.833 46.25 60.958 0 0 24.458 81.042 140.375 55.833l.583 70.875c0 11.042-7.583 23.917-28.458 20.083-165.583-55.083-284.958-211.25-284.958-395.292 0-230.167 186.583-416.708 416.625-416.708 230.123.001 416.707 186.543 416.707 416.709z"/></svg>