<svg xmlns="http://www.w3.org/2000/svg" viewBox="-955 -219 1000 1000" enable-background="new -955 -219 1000 1000"><path d="M-451.917 366.625c48.917 0 88.792-39.792 88.792-88.75 0-19.333-6.333-37.167-16.792-51.75-16.125-22.375-42.333-37-71.958-37s-55.833 14.625-72 37c-10.5 14.583-16.75 32.417-16.792 51.75 0 48.958 39.834 88.75 88.75 88.75zm137.917-80.5c0 76-61.875 132.958-137.917 132.958s-137.875-58.583-137.875-134.625c0-18.25 3.667-45.125 10.167-45.125h-83.708v193.25c0 26.667 30.083 56.75 56.75 56.75h309.333c26.625 0 50.583-30.083 50.583-56.75v-193.25h-77.583c6.583 0 10.25 28.5 10.25 46.792zm234-421.792h-750c-23 0-41.667 18.667-41.667 41.667v750c0 23 18.667 41.667 41.667 41.667h750c23 0 41.667-18.667 41.667-41.667v-750c0-23-18.667-41.667-41.667-41.667zm-125 361.834v206.417c0 53.792-38.5 98.417-92.208 98.417h-309.375c-53.75 0-98.417-44.625-98.417-98.417v-309.334c0-53.75 44.667-92.25 98.417-92.25h309.333c53.75 0 92.25 38.5 92.25 92.25v102.917z"/><rect x="-330" y="93.5" width="62.5" height="62.5"/></svg>