<svg xmlns="http://www.w3.org/2000/svg" viewBox="-955 -219 1000 1000" enable-background="new -955 -219 1000 1000"><path d="M-231.75 565.833c1.667 7.542 2.667 15.333 2.667 23.375 0 59.875-48.583 108.458-108.542 108.458-59.875 0-108.458-48.583-108.458-108.458 0-59.917 48.583-108.458 108.458-108.458 30.042 0 57.25 12.208 76.917 31.958 68.167-54.542 112.25-137.833 112.25-231.708 0-67.583-23.5-129.25-61.625-179.25 16.125-13.292 29.542-29.375 39.75-47.667 50.791 61.667 81.375 140.75 81.375 226.917.041 116.625-56.375 219.667-142.792 284.833zm-84.75-701.5c-43.083 0-80.042 25.375-97.542 61.833-10.625-1-21.167-2.292-32.042-2.292-132.125 0-247.208 71.958-309 178.667l.833-.083c21.792 0 42.5 4.458 61.667 12.083 53.542-79.041 144.042-131.124 246.542-131.124 7.625 0 14.958 1 22.333 1.667 6.167 54.042 51.542 96.25 107.25 96.25 59.917 0 108.542-48.583 108.542-108.458-.041-59.959-48.666-108.543-108.583-108.543zm-182.333 769.292c-3.958-14.25-6.75-28.958-6.75-44.417 0-6.458.875-12.667 1.625-18.875-104.833-21-189.792-96.125-223.583-195.167 46.917-11.958 81.792-54.167 81.792-104.75 0-59.917-48.583-108.458-108.542-108.458-59.875 0-108.458 48.542-108.458 108.458 0 47.333 30.5 87.125 72.833 101.958 36.166 135.918 149.458 240.251 291.083 261.251z"/></svg>