<svg xmlns="http://www.w3.org/2000/svg" viewBox="-955 -219 1000 1000" enable-background="new -955 -219 1000 1000"><path d="M-80-135.667h-750c-23 0-41.667 18.667-41.667 41.667v750c0 23 18.667 41.667 41.667 41.667h750c23 0 41.667-18.667 41.667-41.667v-750c0-23-18.667-41.667-41.667-41.667zm-307.708 666.625c-108.708 1.875-150.625-77.583-150.625-133.5v-158.125h-49.875l-.125-69.833c83.333-27.333 98.541-95.75 102.833-134.75l-.083-3.75h72.25v125h83.333v83.333h-83.333v150.375c0 21.167 8.292 50.375 48.25 49.292 13.25-.333 31.083-4.208 40.375-8.625l23.708 71.333c-9.042 13.25-50.042 28.625-86.708 29.25z"/></svg>