<svg xmlns="http://www.w3.org/2000/svg" viewBox="-955 -219 1000 1000" enable-background="new -955 -219 1000 1000"><path d="M-38.333 281l-.708-14.083c-7.501-223.542-190.584-402.584-415.959-402.584-230.125 0-416.667 186.542-416.667 416.667 0 12.167.708 24.125 1.792 35.917.917 10.708 2.458 21.292 4.167 31.667l.125 1.042c29.125 175.125 167.042 312.958 342.25 341.958l1.208.167c10.333 1.667 20.75 3.125 31.333 4.083 11.833 1.125 23.708 1.833 35.792 1.833 13.792 0 27.375-.75 40.75-2.042 211-20.5 375.917-198.25 375.917-414.625zm-239.959-98.917c43.25-6.75 88.958-18.292 137.875-35.917 17.792 41.375 27.667 86.958 27.667 134.875l-1.125 22.25c-61.792 26.917-117.375 42.958-169.5 51.375 6.583-36.458 9.958-71.083 9.583-103.75-.208-23.874-2.041-46.583-4.5-68.833zm105.959-93.958c-40.875 14.083-79.417 23.833-116.125 29.542-12.75-61.375-32.792-114.208-54.583-159.792 69.999 24.208 129.666 70.208 170.708 130.25zm-282.667 535.125c-10.125 0-20.125-.625-30-1.5-29.917-66.458-52.833-132.417-67.125-196.75 31.167 3.083 63.458 5.125 96.792 5.458l24 .125c20.708 0 41.625-.583 62.708-1.625-18.208 59-45.167 123.625-80.5 194.042l-5.875.25zm.333-257.667c-37.833-.417-74.292-3.208-109.417-7.333-5-36.292-7.667-71.958-7.333-106.667.25-23 1.875-45 4-66.375 35.875 4.083 73.25 6.75 112 7.167l24 .167c29.083 0 58.458-.917 88.542-3.25 2.25 20.25 3.958 40.792 4.208 62.333.333 34.375-4.083 71.542-12.458 111.25-34.708 2.417-68.875 2.875-103.542 2.708zm-.333-426.833c9.833 0 19.458.667 29.083 1.458 27.834 48.292 56.167 109.875 72.667 184.959-34 2.333-67.417 2.625-101.375 2.333-35.708-.417-70.292-2.833-103.542-6.583 13.875-72.375 36.792-131.833 59.583-179.083 14.292-1.834 28.751-3.084 43.584-3.084zm-124 23.5c-17.25 43.042-33.083 92.5-43.583 149.292-41.167-7.125-78.833-16.208-113.25-25.917 38.541-55.333 93.083-98.542 156.833-123.375zm-218.25 318.75c0-48.75 10.333-95.042 28.708-137.083 40.792 12.042 86.208 23.458 136.875 32.083-2.5 24.125-4.292 48.833-4.583 74.875-.333 31.875 2.042 64.458 5.875 97.417-64.042-11.625-119.417-27.625-165.667-43.292-.583-7.958-1.208-15.875-1.208-24zm14.042 96.708c47.5 14.542 101.917 28.5 163.333 38.375 12.25 62.333 32.25 125.958 58.417 190.083-106.542-34.874-189.959-120.499-221.75-228.458zm410.583 235.167c32.5-68.25 57.542-131.833 73.708-190.083 53.167-6.875 109.792-20.417 171.75-43.708-34.416 115.249-128 204.708-245.458 233.791z"/></svg>