<svg xmlns="http://www.w3.org/2000/svg" viewBox="-955 -219 1000 1000" enable-background="new -955 -219 1000 1000"><path d="M-812.417 281c0 141.458 82.208 263.75 201.458 321.667l-170.541-467.167c-19.833 44.458-30.917 93.667-30.917 145.5zm598.709-18.042c0-44.208-15.875-74.792-29.458-98.583-18.125-29.458-35.125-54.375-35.125-83.833 0-32.833 24.917-63.417 60.042-63.417l4.625.292c-63.584-58.292-148.334-93.875-241.376-93.875-124.875 0-234.75 64.083-298.625 161.083l23 .417c37.375 0 95.25-4.542 95.25-4.542 19.25-1.125 21.542 27.167 2.292 29.458 0 0-19.375 2.25-40.917 3.417l130.167 387.167 78.25-234.583-55.667-152.583c-19.25-1.125-37.5-3.417-37.5-3.417-19.292-1.083-17.042-30.542 2.208-29.417 0 0 59 4.542 94.125 4.542 37.375 0 95.25-4.542 95.25-4.542 19.25-1.125 21.542 27.167 2.292 29.458 0 0-19.375 2.25-40.917 3.417l129.167 384.208 35.667-119.125c15.5-49.458 27.25-84.958 27.25-115.542zm-235.042 49.292l-107.25 311.625c32.042 9.417 65.875 14.583 101 14.583 41.625 0 81.542-7.167 118.708-20.25l-2.542-4.917c.001.001-109.916-301.041-109.916-301.041zm307.375-202.75c1.542 11.375 2.417 23.583 2.417 36.75 0 36.25-6.792 77.042-27.167 128.042l-109.167 315.667c106.25-61.959 177.709-177.084 177.709-308.959 0-62.167-15.875-120.583-43.792-171.5zm-313.625-245.167c-229.75 0-416.667 186.917-416.667 416.667s186.917 416.667 416.667 416.667 416.667-186.917 416.667-416.667-186.917-416.667-416.667-416.667zm0 814.209c-219.208 0-397.542-178.375-397.542-397.583s178.334-397.542 397.542-397.542 397.542 178.333 397.542 397.541c0 219.25-178.334 397.584-397.542 397.584z"/></svg>