<svg xmlns="http://www.w3.org/2000/svg" viewBox="-955 -219 1000 1000" enable-background="new -955 -219 1000 1000"><path d="M-376.167 396.125c-14.083 14.167-2.167 39.958-2.167 39.958l105.875 176.792s17.375 23.292 32.458 23.292c15.125 0 30.083-12.417 30.083-12.417l83.708-119.625s8.417-15.083 8.625-28.333c.292-18.792-28.042-23.958-28.042-23.958l-198.167-63.625c-.039.041-19.456-5.126-32.373 7.916zm-10.041-89.083c10.125 17.208 38.125 12.167 38.125 12.167l197.708-57.792s26.958-10.958 30.792-25.583c3.792-14.625-4.458-32.25-4.458-32.25l-94.5-111.292s-8.208-14.083-25.167-15.5c-18.75-1.583-30.25 21.083-30.25 21.083l-111.708 175.792c-.001.041-9.876 17.541-.542 33.375zm-93.417-68.542c23.292-5.75 26.958-39.542 26.958-39.542l-1.583-281.458s-3.5-34.708-19.125-44.125c-24.458-14.833-31.708-7.083-38.75-6.042l-164.083 60.917s-16.083 5.333-24.458 18.75c-11.959 19 12.166 46.833 12.166 46.833l170.625 232.542c-.042 0 16.792 17.417 38.25 12.125zm-40.542 113.917c.583-21.708-26.083-34.75-26.083-34.75l-176.417-89.125s-26.125-10.792-38.833-3.25c-9.708 5.75-18.333 16.125-19.167 25.333l-11.5 141.458s-1.708 24.5 4.625 35.667c9 15.833 38.583 4.792 38.583 4.792l205.959-45.542c8.042-5.417 22.083-5.875 22.833-34.583zm51.25 76.333c-17.667-9.083-38.833 9.708-38.833 9.708l-137.917 151.833s-17.208 23.208-12.833 37.458c4.125 13.375 10.958 20 20.625 24.667l138.5 43.708s16.792 3.5 29.5-.208c18.042-5.25 14.708-33.5 14.708-33.5l3.125-205.583c0 .084-.708-19.708-16.875-28.083z"/></svg>