<svg xmlns="http://www.w3.org/2000/svg" viewBox="-955 -219 1000 1000" enable-background="new -955 -219 1000 1000"><path d="M-46.667 114.375s-8.125-57.417-33.125-82.708c-31.666-33.209-67.208-33.375-83.5-35.292-116.625-8.417-291.542-8.417-291.542-8.417h-.375s-174.917 0-291.542 8.417c-16.249 1.958-51.749 2.083-83.457 35.292-25 25.292-33.125 82.708-33.125 82.708s-8.333 67.458-8.333 134.875v63.208c0 67.417 8.333 134.875 8.333 134.875s8.125 57.417 33.125 82.708c31.708 33.208 73.333 32.125 91.875 35.625 66.667 6.375 283.333 8.375 283.333 8.375s175.125-.25 291.708-8.708c16.292-1.958 51.792-2.125 83.5-35.292 25-25.292 33.125-82.708 33.125-82.708s8.333-67.417 8.333-134.875v-63.208c.001-67.417-8.333-134.875-8.333-134.875zm-548.416 330.958l-.083-346.625 333.333 173.917-333.25 172.708z"/></svg>