<svg xmlns="http://www.w3.org/2000/svg" viewBox="0 0 448 448" enable-background="new 0 0 448 448"><path d="M432 96c-25.498 0-49.443 12.06-64.533 32h-92.752c-18.317-39.233-55.964-64-98.715-64h-16v128h-128l-32 16 32 16h128v128h16c42.751 0 80.398-24.767 98.715-64h92.752c15.09 19.94 39.035 32 64.533 32h16v-224h-16zm-16 189.245c-10.879-3.81-20.388-11.354-26.171-21.293l-4.628-7.952h-132.494l-3.783 10.641c-9.769 27.479-30.857 46.268-56.924 51.723v-220.728c26.066 5.455 47.155 24.244 56.924 51.723l3.783 10.641h132.494l4.628-7.952c5.783-9.938 15.292-17.483 26.171-21.292v154.489z"/></svg>