<svg xmlns="http://www.w3.org/2000/svg" viewBox="0 0 448 448" enable-background="new 0 0 448 448"><path d="M137.146 448h-24.466c4.244-8.785 7.133-18.346 8.102-28.484 3.491 10.63 9.23 20.173 16.364 28.484zm16.979-273.016c4.748-5.773 10.441-10.631 16.533-14.984h-37.779c7.557 4.299 14.781 9.139 21.246 14.984zm-154.125-142.984v96h448v-96h-448zm304 196.578c0 43.922-33.656 80.141-76.531 84.188 33.781 11.078 58.25 42.922 58.25 80.375 0 21.029-7.992 40.049-20.736 54.859h151.017v-288h-147.455c21.379 15.363 35.455 40.295 35.455 68.578zm-66.286 164.565c0 20.214-16.359 36.571-36.571 36.571s-36.571-16.357-36.571-36.571c0-6.786 1.964-13.036 5.179-18.464l-51.964-51.964c-12.395 9.607-27.75 15.571-44.643 15.571-2.967 0-5.786-.536-8.643-.893l-10.498 42.071c11.355 6.179 19.141 18.107 19.141 31.964 0 20.214-16.359 36.571-36.571 36.571s-36.573-16.356-36.573-36.57c0-20.107 16.217-36.393 36.286-36.536l10.426-41.75c-27.281-10.607-46.712-36.964-46.712-68 0-40.393 32.75-73.143 73.143-73.143 31.033 0 57.429 19.426 68.038 46.712l41.712-10.426c.143-20.072 16.428-36.286 36.536-36.286 20.212 0 36.571 16.357 36.571 36.571 0 20.179-16.359 36.571-36.571 36.571-13.857 0-25.786-7.786-31.964-19.179l-42.034 10.537c.321 2.857.855 5.676.855 8.643 0 16.893-5.964 32.25-15.571 44.643l51.964 51.964c5.431-3.214 11.681-5.179 18.464-5.179 20.212 0 36.571 16.358 36.571 36.572zm-128-128c0-20.214-16.359-36.571-36.571-36.571s-36.571 16.357-36.571 36.571 16.359 36.571 36.571 36.571 36.571-16.357 36.571-36.571z"/></svg>