<svg xmlns="http://www.w3.org/2000/svg" viewBox="0 0 448 448" enable-background="new 0 0 448 448"><path d="M261.969 96l-63.344-64h-198.625v137.221c20.389-15.59 45.551-25.221 73.141-25.221 30.766 0 59.297 11.375 80.984 30.984 15.531-18.89 39.078-30.984 65.297-30.984 46.641 0 84.578 37.938 84.578 84.578 0 43.922-33.672 80.141-76.563 84.188 33.797 11.078 58.281 42.922 58.281 80.375 0 7.975-1.463 15.541-3.535 22.859h165.817v-320h-186.031zm-229.969 0v-32h153.375l31.344 32h-184.719zm169.143 260.571c-6.783 0-13.033 1.964-18.464 5.179l-51.964-51.964c9.607-12.393 15.571-27.75 15.571-44.643 0-2.967-.533-5.786-.855-8.643l42.033-10.536c6.179 11.393 18.107 19.179 31.964 19.179 20.212 0 36.571-16.393 36.571-36.571.001-20.215-16.358-36.572-36.57-36.572-20.107 0-36.393 16.214-36.536 36.286l-41.712 10.426c-10.61-27.286-37.005-46.712-68.038-46.712-40.393 0-73.143 32.75-73.143 73.143 0 31.036 19.431 57.393 46.712 68l-10.426 41.75c-20.069.143-36.286 16.428-36.286 36.536 0 20.214 16.359 36.571 36.571 36.571s36.571-16.357 36.571-36.571c0-13.857-7.786-25.786-19.141-31.964l10.499-42.072c2.857.357 5.676.893 8.643.893 16.893 0 32.248-5.964 44.643-15.571l51.964 51.964c-3.214 5.429-5.179 11.679-5.179 18.464 0 20.214 16.359 36.571 36.571 36.571s36.571-16.357 36.571-36.571-16.358-36.572-36.57-36.572zm-128-54.857c-20.212 0-36.571-16.357-36.571-36.571s16.359-36.571 36.571-36.571 36.571 16.357 36.571 36.571-16.359 36.571-36.571 36.571z"/></svg>