<svg xmlns="http://www.w3.org/2000/svg" viewBox="0 0 448 448" enable-background="new 0 0 448 448"><path d="M149.188 211.359c-23.641-21.234-37.188-51.609-37.188-83.343 0-31.828 13.609-62.25 37.328-83.484l21.344 23.844c-16.953 15.171-26.672 36.905-26.672 59.64 0 22.656 9.688 44.359 26.563 59.531l-21.375 23.812zm149.468.11c23.75-21.219 37.344-51.625 37.344-83.453 0-31.734-13.563-62.125-37.188-83.359l-21.375 23.813c16.876 15.171 26.563 36.874 26.563 59.546 0 22.719-9.719 44.453-26.656 59.609l21.312 23.844zm-184.734 28.234c-32.188-29.344-49.922-68.969-49.922-111.562 0-39.297 15.422-76.703 43.438-105.313l-22.875-22.375c-33.891 34.625-52.563 79.969-52.563 127.688 0 51.703 21.438 99.734 60.359 135.203l21.563-23.641zm220.078.047l21.563 23.656c38.406-34.953 60.437-84.25 60.437-135.265 0-47.766-18.687-93.141-52.625-127.766l-22.875 22.406c28.063 28.594 43.5 66.016 43.5 105.36 0 42.64-17.75 82.265-50 111.609zm-158-111.734c0-26.469 21.531-48 48-48s48 21.531 48 48c0 18.699-10.854 34.76-26.494 42.68l110.914 277.304h-34.441l-25.604-64h-144.738l-25.602 64h-34.469l110.928-277.305c-15.64-7.92-26.494-23.98-26.494-42.679zm94.77 191.984h-93.531l-12.801 32h119.135l-12.803-32zm-46.77-116.902l-33.961 84.902h67.928l-33.967-84.902zm-16-75.082c0 8.828 7.172 16 16 16s16-7.172 16-16-7.172-16-16-16-16 7.172-16 16z"/></svg>