<svg xmlns="http://www.w3.org/2000/svg" viewBox="0 0 448 448" enable-background="new 0 0 448 448"><path d="M288 64v-32c0-17.641-14.344-32-32-32h-96c-17.641 0-32 14.359-32 32v32h-96v32h32v320c0 17.656 14.359 32 32 32h224c17.656 0 32-14.344 32-32v-320h32v-32h-96zm-128-32h96v32h-96v-32zm160 384h-224v-320h224v320zm-43.25-96h-84.75v-32h76.156l-15.234-23.281 26.797-17.516 19.781 30.266c5.531 8.469 5.969 19.281 1.156 28.219-4.781 8.843-13.937 14.312-23.906 14.312zm-116.75 0h-20.766c-9.969 0-19.125-5.469-23.891-14.313-4.828-8.906-4.375-19.75 1.172-28.219l30.094-46.016 26.781 17.531-25.531 39.017h12.141v32zm71.969-87.297l-24-36.688-17.047 25.641-26.656-17.719 21.078-31.703c9.969-15.25 35.281-15.359 45.375.109l28.031 42.828-26.781 17.532zm-19.906-42.859l-.031.047.031-.047z"/></svg>