<svg xmlns="http://www.w3.org/2000/svg" viewBox="0 0 448 448" enable-background="new 0 0 448 448"><path d="M343 96v-10.656c0-46.969-38.328-85.188-85.297-85.188-14.575 0-28.765 3.774-41.492 10.981-12.345-6.977-26.72-10.981-41.887-10.981-46.969 0-85.324 38.219-85.324 85.188v10.656h-57v288c0 31.688 32.313 64 64 64h224c31.688 0 64-32.313 64-64v-288h-41zm-32-10.656v10.656h-51v-10.656c0-19.207-6.611-36.946-17.371-51.211 4.913-1.509 9.852-2.289 15.028-2.289 29.499 0 53.343 24 53.343 53.5zm-190 0c0-29.5 24.016-53.5 53.516-53.5 29.469 0 53.484 24 53.484 53.5v10.656h-107v-10.656zm231 298.656c0 14.063-17.938 32-32 32-14.406 0-32-11.813-32-25.594v-262.406h64v256z"/></svg>