<svg xmlns="http://www.w3.org/2000/svg" viewBox="0 0 448 448" enable-background="new 0 0 448 448"><path d="M191.646 61.508c-68.253 0-123.201 54.977-123.201 123.269v133.231c0 68.292 54.948 123.272 123.201 123.272h133.155c68.253 0 123.199-54.98 123.199-123.272v-133.231c0-68.292-54.946-123.269-123.199-123.269h-133.155zm-26.135 64.747c25.43-.001 46.045 20.625 46.046 46.069v.001c.001 25.444-20.613 46.072-46.043 46.072h-.003c-25.43 0-46.044-20.627-46.044-46.072v-.001c0-25.442 20.614-46.068 46.044-46.069zm146.846 112.065c43.986.001 79.643 35.68 79.643 79.691-.001 44.01-35.658 79.688-79.643 79.689-43.986 0-79.644-35.677-79.645-79.689 0-44.012 35.657-79.691 79.644-79.691h.001zm-268.801-231.6c24.055 0 43.556 19.512 43.556 43.581s-19.501 43.58-43.556 43.58-43.556-19.512-43.556-43.58 19.501-43.581 43.556-43.581z"/></svg>