<svg xmlns="http://www.w3.org/2000/svg" viewBox="0 0 448 448" enable-background="new 0 0 448 448"><path d="M288 64v-32c0-17.645-14.355-32-32-32h-96c-17.645 0-32 14.355-32 32v32h-96v32h32v320c0 17.645 14.355 32 32 32h224c17.645 0 32-14.355 32-32v-320h32v-32h-96zm-128-32h96v32h-96v-32zm160 384h-224v-320h224v320zm-200-108h40v-24h-26.228l28.272-44.766 3.958 11.665 22.728-7.711-16.708-49.243-49.244 16.708 7.712 22.728 8.738-2.965-33.1 52.41c-3.474 5.499-3.859 11.846-1.031 16.977 2.826 5.133 8.398 8.197 14.903 8.197zm162.229-24h-59.4l7.8-7.8-16.971-16.971-36.771 36.77 36.771 36.769 16.971-16.97-7.8-7.798h73.171c6.504 0 12.076-3.064 14.904-8.194 2.828-5.131 2.443-11.478-1.03-16.979l-11.703-18.529-20.291 12.817 4.349 6.885zm-74.229-117.529l36.307 57.485-13.274-1.997-3.57 23.733 51.42 7.735 7.735-51.421-23.732-3.57-1.214 8.071-36.763-58.208c-3.686-5.835-10.007-9.318-16.909-9.318s-13.223 3.483-16.909 9.319l-13.445 21.288 20.292 12.815 10.062-15.932z"/></svg>