<svg xmlns="http://www.w3.org/2000/svg" viewBox="0 0 448 448" enable-background="new 0 0 448 448"><path d="M104.678 416c.104-2 .463-3.01.463-4.578 0-15.719-5.422-30.641-14.922-42.547 7.594-1.266 15.016-3.391 22.141-6.328l20.922 20.922c-.469 3.203-.703 6.438-.703 9.672 0 8.055 1.65 15.859 4.211 22.859h-32.112zm-104.678-61.676c3-1.977 5.918-4.289 9.297-5.762-3.455-2.617-6.297-5.892-9.297-8.884v14.646zm261.969-258.324l-63.346-64h-198.623v157.867c19-18.414 44.699-29.867 73.141-29.867 33.5 0 63.938 15.547 83.438 41.25 10.594-24.234 34.828-41.25 62.844-41.25 37.811 0 68.577 30.766 68.577 68.578s-30.766 68.562-68.578 68.562c-15.719 0-30.641-5.422-42.547-14.938-1.266 7.609-3.391 15.016-6.328 22.156l20.922 20.922c3.203-.469 6.438-.703 9.672-.703 37.812 0 68.578 30.75 68.578 68.563 0 8.055-1.65 15.859-4.213 22.859h182.494v-319.999h-186.031zM237.714 393.143c0 20.214-16.359 36.571-36.571 36.571s-36.571-16.357-36.571-36.571c0-6.786 1.964-13.036 5.179-18.464l-51.964-51.964c-12.395 9.607-27.75 15.571-44.643 15.571-2.967 0-5.786-.536-8.643-.893l-10.498 42.071c11.355 6.179 19.141 18.107 19.141 31.964 0 20.214-16.359 36.571-36.571 36.571s-36.573-16.356-36.573-36.57c0-20.107 16.217-36.393 36.286-36.536l10.426-41.75c-27.281-10.607-46.712-36.964-46.712-68 0-40.393 32.75-73.143 73.143-73.143 31.033 0 57.429 19.426 68.038 46.712l41.712-10.426c.143-20.072 16.428-36.286 36.536-36.286 20.212 0 36.571 16.357 36.571 36.571 0 20.179-16.359 36.571-36.571 36.571-13.857 0-25.786-7.786-31.964-19.179l-42.034 10.537c.321 2.857.855 5.676.855 8.643 0 16.893-5.964 32.25-15.571 44.643l51.964 51.964c5.431-3.214 11.681-5.179 18.464-5.179 20.212 0 36.571 16.358 36.571 36.572zm-128-128c0-20.214-16.359-36.571-36.571-36.571s-36.571 16.357-36.571 36.571 16.359 36.571 36.571 36.571 36.571-16.357 36.571-36.571z"/></svg>