<svg xmlns="http://www.w3.org/2000/svg" viewBox="0 0 448 448" enable-background="new 0 0 448 448"><path d="M256 384c0 17.672-14.328 32-32 32s-32-14.328-32-32 14.328-32 32-32 32 14.328 32 32zm-96-288v80c0 38.631-27.529 70.947-64 78.381v161.619h-32v-161.619c-36.471-7.434-64-39.75-64-78.381v-80h32v-64h32v64h32v-64h32v64h32zm-32 32h-96v48c0 26.469 21.531 48 48 48s48-21.531 48-48v-48zm64 18.055v32.334c128 15.726 224 116.142 224 237.611h32c0-139.125-96-254.033-256-269.945zm0 94.756v32.807c71.803 8.078 128 68.455 128 142.383h32c0-91.632-70.445-167.067-160-175.19z"/></svg>