<svg xmlns="http://www.w3.org/2000/svg" viewBox="0 0 448 448" enable-background="new 0 0 448 448"><path d="M192 448h-160v-128h160v128zm224-128h-160v128h160v-128zm0-192v128h-160v-115.187c-3.004.342-5.963.672-8.676.961l-23.324 2.283-23.324-2.285c-2.713-.289-5.672-.621-8.676-.963v115.191h-160v-128h86.404c-1.063-.346-2.307-.678-3.248-1.031-35.75-13.422-47.594-34.891-51.25-50.531-5.094-21.906 3.438-43.25 14.188-54.688 24.375-26.063 71-16.781 102.125 7.281 16.096 12.469 32.402 39.973 43.783 61.951 11.383-21.979 27.697-49.482 43.811-61.951 31-24.031 77.75-33.266 102.125-7.266 10.719 11.422 19.25 32.766 14.156 54.672-3.656 15.641-15.5 37.109-51.25 50.547-.93.35-2.156.676-3.203 1.016h86.359zm-218.562-18.766c-11.281-22.125-25.781-46.359-36.813-54.891-13.5-10.469-30-16.297-42.719-16.297-7.031 0-12.906 1.797-16.469 5.594-3.844 4.063-8.906 14.578-6.375 25.547 3.406 14.547 18.906 23.172 31.344 27.828 12.75 4.798 45.25 9.298 71.032 12.219zm53.093 0c25.813-2.922 58.313-7.422 71.063-12.203 12.438-4.672 27.938-13.297 31.344-27.844 2.531-10.969-2.531-21.484-6.344-25.531-3.563-3.813-9.469-5.609-16.531-5.609-12.688 0-29.188 5.844-42.656 16.297-11.063 8.547-25.594 32.781-36.876 54.89z"/></svg>