<svg xmlns="http://www.w3.org/2000/svg" viewBox="0 0 448 448" enable-background="new 0 0 448 448"><path d="M208 448l-7.219-2.657c-123.843-62.563-200.781-162.5-200.781-260.813v-139.25h16c50.094 0 85.594-7.344 111.75-23.094 21.656-14.156 52.594-22.186 80.25-22.186s58.594 8.03 80.75 22.468c25.656 15.469 61.156 22.812 111.25 22.812h16v139.25c0 98.313-76.938 198.25-200.781 260.813l-7.219 2.657zm-176-370.97v107.5c0 84.313 67.219 171.344 176 228.531 108.781-57.188 176-144.219 176-228.531v-107.5c-48.031-1.563-83.969-10.406-112.25-27.469-13.375-8.688-37.656-18.5-63.75-18.5s-50.375 9.813-63.25 18.219c-28.719 17.313-64.719 26.188-112.75 27.75zm160 242.032h32v-32h-32v32zm32-192h-32v128h32v-128z"/></svg>