<svg xmlns="http://www.w3.org/2000/svg" viewBox="0 0 448 448" enable-background="new 0 0 448 448"><path d="M390.317 224c0-5.116-1.052-9.938-1.505-14.936l59.188-36.929-28.929-69.843-67.883 15.717c-6.438-7.715-13.477-14.752-21.19-21.19l15.721-67.883-69.846-28.934-36.928 59.188c-5.001-.453-9.826-1.507-14.945-1.507-5.116 0-9.935 1.052-14.934 1.505l-36.928-59.188-69.846 28.929 15.717 67.883c-7.715 6.438-14.752 13.477-21.19 21.19l-67.883-15.721-28.932 69.846 59.186 36.929c-.453 5.001-1.507 9.826-1.507 14.945 0 5.116 1.052 9.935 1.505 14.934l-59.188 36.927 28.929 69.846 67.883-15.717c6.438 7.715 13.477 14.752 21.19 21.19l-15.721 67.881 69.846 28.934 36.926-59.186c5.003.453 9.826 1.507 14.947 1.507 5.116 0 9.935-1.052 14.934-1.505l36.928 59.188 69.846-28.931-15.717-67.881c7.715-6.438 14.752-13.477 21.19-21.19l67.881 15.719 28.934-69.843-59.186-36.929c.452-5.001 1.507-9.826 1.507-14.945zm-241.916 0c0-41.752 33.847-75.599 75.599-75.599s75.599 33.847 75.599 75.599c0 41.75-33.847 75.599-75.599 75.599s-75.599-33.849-75.599-75.599zm107.599 0c0 17.673-14.327 32-32 32s-32-14.327-32-32 14.327-32 32-32 32 14.327 32 32z"/></svg>