<svg xmlns="http://www.w3.org/2000/svg" viewBox="0 0 448 448" enable-background="new 0 0 448 448"><path d="M338.293 416h77.707v32h-160v-160h32v116.723c76.682-27.127 128-98.895 128-180.723 0-83.609-53.406-157.031-132.875-182.734l9.813-30.438c92.75 29.969 155.062 115.641 155.062 213.172 0 80.441-42.797 152.289-109.707 192zm-306.293-384h77.697c-66.896 39.703-109.697 111.539-109.697 192 0 90.656 54.063 171.844 137.734 206.781l12.344-29.5c-71.734-29.968-118.078-99.562-118.078-177.281 0-81.816 51.32-153.572 128-180.709v116.709h32v-160h-160v32z"/></svg>