<svg xmlns="http://www.w3.org/2000/svg" viewBox="0 0 994.169 1000"><path d="M867.794 482.575l126.375-78.827-77.544-187.164-145.081 33.6c-7.719-8.453-15.962-16.632-24.656-24.506l33.631-145.233-187.2-77.514-78.857 126.465c-11.531-.641-23.162-.641-34.819-.122L400.819 2.9 213.65 80.445l33.6 145.111a367.035 367.035 0 0 0-24.506 24.628l-145.231-33.63L0 403.748l126.463 78.858c-.581 11.719-.638 23.346-.119 34.821L0 596.253l77.512 187.166 145.112-33.6a367.22 367.22 0 0 0 24.625 24.506l-33.63 145.231 187.2 77.512 78.856-126.462c11.538.612 23.163.669 34.819.119L593.35 997.1l187.138-77.544-33.6-145.081c8.45-7.719 16.631-15.962 24.506-24.656l145.231 33.631 77.513-187.198-126.462-78.857c.581-11.718.637-23.345.118-34.82zM925.9 618.134l-42.05 101.591-132.6-30.731-10.775 13c-12.844 15.506-26.763 29.512-41.381 41.6l-13 10.769 30.669 132.419L615.2 928.863l-71.956-115.356-16.819 1.588c-19.712 1.862-39.306 1.65-58.65-.15l-16.819-1.587-72.019 115.475-101.594-42.05 30.731-132.6-13-10.775c-15.413-12.787-29.419-26.7-41.625-41.381l-10.775-13-132.387 30.669-42.05-101.591 115.325-71.93-1.587-16.815c-1.769-18.921-1.738-38.666.15-58.655l1.588-16.815-115.475-72.023 42.05-101.592 132.6 30.731 10.775-13c12.788-15.412 26.7-29.419 41.381-41.626l13-10.772-30.669-132.387 101.594-42.084 71.925 115.357 16.819-1.587c19.712-1.862 39.306-1.648 58.656.152l16.813 1.587 72.019-115.479 101.594 42.053-30.731 132.599 13 10.773c15.506 12.848 29.512 26.764 41.6 41.382l10.769 13.001 132.419-30.671 42.081 101.593-115.356 71.93 1.588 16.815c1.769 18.921 1.737 38.666-.15 58.655l-1.587 16.815L925.9 618.134zM497.069 316.409c-101.225 0-183.594 82.366-183.594 183.592s82.369 183.594 183.594 183.594 183.594-82.367 183.594-183.594-82.369-183.592-183.594-183.592zm0 312.497c-71.075 0-128.906-57.831-128.906-128.906s57.831-128.905 128.906-128.905S625.975 428.924 625.975 500s-57.831 128.906-128.906 128.906z"/></svg>