<svg xmlns="http://www.w3.org/2000/svg" viewBox="0 0 1000 1000"><path d="M781.25 812.5h-250c-120.605 0-218.75-98.145-218.75-218.75S410.645 375 531.25 375h30.487v62.5H531.25C445.099 437.5 375 507.599 375 593.75 375 679.932 445.099 750 531.25 750h250c86.182 0 156.25-70.068 156.25-156.25 0-86.151-70.068-156.25-156.25-156.25h-31.189V375h31.189C901.855 375 1000 473.145 1000 593.75S901.855 812.5 781.25 812.5zM687.5 406.25c0-120.605-98.145-218.75-218.75-218.75h-250C98.145 187.5 0 285.645 0 406.25S98.145 625 218.75 625h31.219v-62.5H218.75c-86.151 0-156.25-70.099-156.25-156.25S132.599 250 218.75 250h250C554.901 250 625 320.099 625 406.25S554.901 562.5 468.75 562.5h-31.219V625h31.219c120.605 0 218.75-98.145 218.75-218.75z"/></svg>