<svg xmlns="http://www.w3.org/2000/svg" viewBox="0 0 1000 1000"><path d="M562.5 125v812.5H1000V125H562.5zm375 750H625V687.5h312.5V875zm0-250H625V437.5h312.5V625zm0-250H625V187.5h312.5V375zM875 312.5H687.5V250H875v62.5zm0 250H687.5V500H875v62.5zm0 250H687.5V750H875v62.5zm-437.5-500H250V250h-62.5v62.5H0V750h187.5v62.5H250V750h187.5V312.5zM330.811 375L62.5 643.311V375h268.311zM106.689 687.5L375 419.189V687.5H106.689zM187.5 875H250v62.5h-62.5V875zm250 0H500v62.5h-62.5V875zm-125 0H375v62.5h-62.5V875zM375 187.5h-62.5V125H375v62.5zm-125 0h-62.5V125H250v62.5zM437.5 125H500v62.5h-62.5V125z"/></svg>