<svg xmlns="http://www.w3.org/2000/svg" viewBox="0 0 1000 999.999"><path d="M656.25 0C466.705 0 312.5 154.205 312.5 343.75c0 83.546 30.018 160.172 79.754 219.807L9.155 946.655c-12.207 12.207-12.207 31.982 0 44.189 6.104 6.104 14.099 9.155 22.095 9.155s15.991-3.052 22.095-9.155l383.099-383.099c59.634 49.737 136.26 79.755 219.806 79.755 189.514 0 343.75-154.205 343.75-343.75S845.764 0 656.25 0zm0 625C501.16 625 375 498.84 375 343.75S501.16 62.5 656.25 62.5 937.5 188.66 937.5 343.75 811.34 625 656.25 625z"/></svg>