<svg xmlns="http://www.w3.org/2000/svg" viewBox="0 0 687.5 1000"><path d="M343.75 218.75c37.995 0 74.821 7.427 109.454 22.076 33.484 14.162 63.568 34.45 89.418 60.3 25.85 25.85 46.138 55.934 60.301 89.418C617.572 425.177 625 462.004 625 500c0 37.995-7.428 74.82-22.077 109.454-14.163 33.484-34.451 63.568-60.301 89.418-25.85 25.85-55.935 46.138-89.419 60.301-34.633 14.649-71.459 22.077-109.454 22.077-37.995 0-74.82-7.428-109.454-22.077-33.484-14.163-63.568-34.451-89.418-60.301-25.85-25.85-46.138-55.935-60.301-89.419C69.928 574.82 62.5 537.995 62.5 500c0-37.996 7.428-74.823 22.077-109.457 14.163-33.484 34.451-63.568 60.301-89.418 25.85-25.85 55.934-46.137 89.418-60.3 34.633-14.648 71.459-22.075 109.454-22.075m0-62.5C153.906 156.25 0 310.15 0 500c0 189.844 153.906 343.75 343.75 343.75 189.843 0 343.75-153.906 343.75-343.75 0-189.85-153.907-343.75-343.75-343.75z"/></svg>