<svg xmlns="http://www.w3.org/2000/svg" viewBox="0 0 982.443 1000"><path fill-rule="evenodd" clip-rule="evenodd" d="M982.443 532.754c0-75.836-18.195-146.058-50.692-206.761 55.476-115.756 78.649-199.8-.836-279.466-82.36-82.585-294.567-48.341-477.825 66.536C256.497 140.527 88.314 248.218 69.309 410.287c33.788-39.727 60.516-67.565 107.428-107.429 39.727-33.77 91.829-55.37 128.062-69.717-5.352 5.551-10.984 10.841-16.143 16.567C50.091 514.391-81.883 831.045 55.829 958.964c68.974 64.059 183.826 48.902 319.155-28.699 55.065 22.511 115.238 35.061 177.75 35.061 178.424 0 320.683-98.671 390.181-248.178h-230.27c-33.858 44.542-80.115 69.137-159.912 69.137-104.965 0-179.048-75.362-179.048-179.048H965.57c9.481-16.686 16.873-53.157 16.873-74.483zM114.63 944.767C68.454 897.43 78.646 805.97 131.315 694.973c40.157 93.226 113.404 169.798 204.778 217.309-99.32 55.333-180.195 74.719-221.463 32.485zm259.057-478.286c0-103.655 75.418-181.524 179.048-181.524s179.042 77.869 179.042 181.524h-358.09zm293.075-345.97c116.368-64.246 210.129-73.104 259.73-22.262 37.724 38.585 30.932 111.776-9.674 202.788-55.751-88.554-143.612-153.287-250.056-180.526z"/></svg>