<svg xmlns="http://www.w3.org/2000/svg" viewBox="0 0 930.337 1000"><path d="M930.337 469.063C930.337 193.488 730.962 4.887 475.912 0 214.019 2.931 29.319 187.625 0 446.581c93.813-153.419 277.031-254.756 440.225-254.756 134.856 0 202.769 58.094 202.769 214.294H287.288c6.844-62.475 33.225-122.438 70.362-159.575C214 304.2 112.369 435.494 112.369 609.431c0 214.012 172.056 390.569 413.425 390.569 123.131 0 217.1-27.681 310.825-72.631v-212.05C742.894 764.175 664.556 798.088 560 798.088c-154.4 0-268.8-79.563-268.8-204.525h639.137v-124.5z"/></svg>