<svg xmlns="http://www.w3.org/2000/svg" viewBox="0 0 875 1000"><path d="M722.805 417.709a312.29 312.29 0 0 0-39.33-65.666C756.641 339.077 812.5 275.375 812.5 198.547v-93.75H750v93.75c0 51.697-42.053 93.75-93.75 93.75H625v1.503c-14.606-10.994-30.472-20.409-47.054-28.801 10.044-20.729 15.804-43.06 15.804-66.452 0-23.575-5.634-45.719-15.026-65.784l68.371-68.371-44.189-44.189-62.061 62.061C513.229 57.697 477.276 42.297 437.5 42.297s-75.729 15.4-103.344 39.967l-62.061-62.061-44.189 44.189 68.371 68.371c-9.392 20.065-15.026 42.21-15.026 65.784 0 23.392 5.76 45.723 15.804 66.452-16.582 8.396-32.448 17.807-47.054 28.801v-1.503h-31.25c-51.697 0-93.75-42.053-93.75-93.75v-93.75H62.5v93.75c0 76.828 55.859 140.53 129.025 153.496a312.287 312.287 0 0 0-39.326 65.662C67.959 419.914 0 488.785 0 573.547v93.75h62.5v-93.75c0-43.007 29.27-78.96 68.817-89.958-3.75 19.188-6.317 38.7-6.317 58.708v125c0 4.28 1.091 8.255 1.263 12.493l-2.88-2.88c-80.994 80.994-80.994 212.738 0 293.732l44.189-44.189c-45.048-45.048-53.627-112.354-26.981-166.592C180.328 886.803 297.634 979.797 437.5 979.797s257.175-92.995 296.913-219.94c26.646 54.237 18.063 121.548-26.985 166.595l44.189 44.189c80.994-80.994 80.994-212.738 0-293.732l-2.88 2.88c.172-4.238 1.263-8.213 1.263-12.493v-125c0-20.008-2.567-39.52-6.317-58.708 39.547 10.998 68.817 46.951 68.817 89.958v93.75H875v-93.75c0-84.761-67.959-153.628-152.195-155.837zM437.5 104.797c51.697 0 93.75 42.053 93.75 93.75 0 18.044-5.363 32.616-11.845 44.17-55.462-15.869-108.349-15.869-163.811 0-6.481-11.555-11.845-26.127-11.845-44.17.001-51.696 42.054-93.75 93.751-93.75zm250 562.5c0 137.848-112.152 250-250 250s-250-112.152-250-250v-125c0-104.309 66.498-198.425 165.466-234.192h.031c58.716-21.301 110.291-21.301 169.006 0h.031C621.002 343.872 687.5 437.988 687.5 542.297v125z"/></svg>