<svg xmlns="http://www.w3.org/2000/svg" viewBox="0 0 999.908 1000"><path d="M952.026 46.632C921.081 15.657 878.906-.274 835.083 1.435c-42.786 1.74-83.435 19.775-114.258 50.629L77.24 689.668 0 998.689l308.929-77.271 643.097-643.127c63.843-63.904 63.843-167.816 0-231.659zM158.585 697.053l531.513-526.608 140.698 140.697L301.659 840.31c-21.313-68.344-74.768-121.856-143.074-143.257zm-32.525 55.02c60.265 12.73 107.788 60.249 120.506 120.537l-160.69 40.142 40.184-160.679zm781.777-517.971l-32.852 32.852-140.492-140.492 30.399-30.117c19.836-19.836 45.654-31.342 72.754-32.471 26.917-1.343 51.697 8.453 70.19 26.947 39.491 39.49 39.491 103.76.001 143.281z"/></svg>