<svg xmlns="http://www.w3.org/2000/svg" viewBox="0 0 448 448"><path d="M304.03 304c0 29.906-11.655 58.03-32.843 79.188-21.156 21.188-49.28 32.844-79.188 32.844s-58.035-11.656-79.19-32.844l22.623-22.625c30.25 30.25 82.875 30.25 113.125 0 15.125-15.125 23.47-35.22 23.47-56.563s-8.345-41.438-23.47-56.563c-30.25-30.25-82.875-30.25-113.125 0l-22.625-22.625c42.315-42.344 116.065-42.344 158.377 0 21.19 21.157 32.845 49.282 32.845 79.188zm60.39-157.654C355.547 84.366 302.107 36.57 237.715 36.57c-42.64 0-82.17 21.754-105.656 56.28-5.87-.948-11.8-1.423-17.777-1.423C51.268 91.427 0 142.697 0 205.713 0 268.73 51.268 320 114.285 320h32.652c6.61 18.6 24.193 32 45.063 32 26.51 0 48-21.49 48-48s-21.49-48-48-48c-20.87 0-38.45 13.4-45.063 32h-32.652C68.84 288 32 251.158 32 205.713c0-45.443 36.84-82.285 82.285-82.285 12.094 0 23.49 2.762 33.832 7.447 13.682-36.33 48.496-62.305 89.61-62.305 53.02 0 96 42.982 96 96l.065 13.7 27.35-.063c30.3 0 54.857 24.646 54.857 54.945C416 263.45 391.44 288 361.14 288h-25.078L336 320h25.143C409.035 320 448 281.035 448 233.143c0-46.797-37.197-85.07-83.58-86.797z"/></svg>