<svg xmlns="http://www.w3.org/2000/svg" viewBox="0 0 448 448"><path d="M237.754 96c53.174 0 96.28 43.876 96.28 98v14h27.51c30.387 0 55.018 25.07 55.018 56 0 30.927-24.63 56-55.018 56h-247.58c-45.577 0-82.525-37.608-82.525-84s36.945-84 82.523-84c12.13 0 23.558 2.818 33.93 7.602C161.618 122.515 196.52 96 237.756 96m0-32c-42.685 0-82.252 22.244-105.658 57.51-5.985-1.005-12.036-1.51-18.132-1.51C51.126 120 0 172.037 0 236s51.125 116 113.965 116h247.58c47.67 0 86.455-39.476 86.455-88 0-47.6-37.32-86.493-83.74-87.957C355.643 112.826 302.196 64 237.754 64z"/></svg>