<svg xmlns="http://www.w3.org/2000/svg" viewBox="0 0 448 448"><path d="M390.317 224c0-5.116-1.052-9.938-1.505-14.936L448 172.134l-28.93-69.842-67.882 15.717c-6.438-7.718-13.477-14.755-21.19-21.19l15.72-67.886L275.874.002l-36.93 59.188c-5-.453-9.825-1.507-14.944-1.507-5.116 0-9.935 1.052-14.934 1.505L172.138 0l-69.846 28.93 15.718 67.88c-7.716 6.438-14.753 13.477-21.19 21.19l-67.884-15.72L.004 172.126l59.186 36.93c-.453 5-1.507 9.825-1.507 14.944 0 5.117 1.052 9.936 1.505 14.935L0 275.862l28.93 69.846 67.88-15.718c6.438 7.716 13.477 14.753 21.19 21.19l-15.72 67.882 69.845 28.934 36.926-59.186c5.005.453 9.828 1.507 14.95 1.507 5.115 0 9.934-1.052 14.933-1.505L275.863 448l69.845-28.93-15.717-67.882c7.718-6.438 14.755-13.477 21.19-21.19l67.884 15.72 28.934-69.844-59.186-36.93c.453-5 1.508-9.825 1.508-14.944zM148.4 224c0-41.752 33.848-75.6 75.6-75.6s75.6 33.848 75.6 75.6c0 41.75-33.848 75.6-75.6 75.6s-75.6-33.85-75.6-75.6zm107.6 0c0 17.673-14.327 32-32 32s-32-14.327-32-32 14.327-32 32-32 32 14.327 32 32z"/></svg>