<svg xmlns="http://www.w3.org/2000/svg" viewBox="0 0 448 448"><path d="M313.96 302.918L174.9 441.993c-8.064 8.01-21.107 8.01-29.136 0L6.042 302.28c-8.054-8.053-8.054-21.12 0-29.173l95.786-95.798 36.285 36.285c-3.715 8.915-1.97 19.565 5.277 26.803 2.37 2.393 1.69 1.295 4.62 2.492v88.582c-2.652 1.075-4.037 2.886-6.028 4.944-5.267 4.674-8.646 11.433-8.646 19.04 0 14.137 11.462 25.593 25.59 25.593 1.824 0 3.613-.2 5.334-.56 5.046-.74 9.91-2.973 13.792-6.845 8.534-8.525 9.405-21.77 2.717-31.344-2.25-3.714-5.405-6.8-9.184-8.95v-86.06l33.072 33.066c-3.668 8.883-1.88 19.475 5.324 26.678 9.574 9.587 25.1 9.587 34.72 0 9.574-9.574 9.574-25.1 0-34.675-6.893-6.87-16.778-8.774-25.367-5.82l-35.482-35.47c2.998-8.58 1.075-18.48-5.805-25.35-6.8-6.81-16.607-8.746-25.154-5.86l-36.82-36.8 29.015-29.02c8.052-8.05 21.12-8.05 29.137 0l139.73 139.715c8.057 8.053 8.057 21.106.002 29.16zM256 160l105.373 105.373c12.497 12.497 12.497 32.758 0 45.255L224 448h192V160H256zm-192 0H32v32l32-32zM32 384v64h64l-64-64zM0 32v96h96l41.373-41.373c12.497-12.497 32.758-12.497 45.255 0L224 128h224V32H0z"/></svg>