<svg xmlns="http://www.w3.org/2000/svg" viewBox="0 0 448 448"><path d="M343 96V85.344C343 38.374 304.672.156 257.703.156c-14.575 0-28.765 3.774-41.492 10.98C203.87 4.16 189.49.156 174.327.156 127.356.156 89 38.376 89 85.346V96H32v288c0 31.688 32.313 64 64 64h224c31.688 0 64-32.313 64-64V96h-41zm-32-10.656V96h-51V85.344c0-19.207-6.61-36.946-17.37-51.21 4.912-1.51 9.85-2.29 15.027-2.29 29.5 0 53.343 24 53.343 53.5zm-190 0c0-29.5 24.016-53.5 53.516-53.5 29.47 0 53.484 24 53.484 53.5V96H121V85.344zM352 384c0 14.063-17.938 32-32 32-14.406 0-32-11.813-32-25.594V128h64v256z"/></svg>