<svg xmlns="http://www.w3.org/2000/svg" viewBox="0 0 448 448"><path d="M376 80c0-39.7-32.3-72-72-72s-72 32.3-72 72c0 34.2 23.977 62.888 56 70.186V160h32v-9.814c32.023-7.298 56-35.985 56-70.186zm-72 40c-22.056 0-40-17.944-40-40s17.944-40 40-40 40 17.944 40 40-17.944 40-40 40zm-80 168v-32h-96V150.186c32.023-7.298 56-35.985 56-70.186 0-39.7-32.3-72-72-72S40 40.3 40 80c0 34.2 23.977 62.888 56 70.186v155.628C63.977 313.112 40 341.8 40 376c0 39.7 32.3 72 72 72s72-32.3 72-72c0-34.2-23.977-62.888-56-70.186V288h96zM72 80c0-22.056 17.944-40 40-40s40 17.944 40 40-17.944 40-40 40-40-17.944-40-40zm80 296c0 22.056-17.944 40-40 40s-40-17.944-40-40 17.944-40 40-40 40 17.944 40 40zm264-88v-9.41c0-20.103-5.632-38.648-15.86-52.223-11.667-15.486-28.764-24.015-48.14-24.015s-36.473 8.53-48.14 24.015C293.63 239.94 288 258.487 288 278.59V288h-32v160h192V288h-32zm-96-9.41c0-22.02 9.895-44.238 32-44.238s32 22.22 32 44.237V288h-64v-9.41zM416 416H288v-96h128v96z"/></svg>