<svg xmlns="http://www.w3.org/2000/svg" viewBox="0 0 448 448"><path d="M352 200c-34.2 0-62.888 23.977-70.186 56H272c-67.815 0-139.76-37.05-143.813-105.857C160.117 142.776 184 114.133 184 80c0-39.7-32.3-72-72-72S40 40.3 40 80c0 34.2 23.977 62.888 56 70.186v155.628C63.977 313.112 40 341.8 40 376c0 39.7 32.3 72 72 72s72-32.3 72-72c0-34.2-23.977-62.888-56-70.186V229.05c7.042 8.075 15.184 15.53 24.373 22.244C184.298 274.62 227.9 288 272 288h9.814c7.298 32.023 35.985 56 70.186 56 39.7 0 72-32.3 72-72s-32.3-72-72-72zM72 80c0-22.056 17.944-40 40-40s40 17.944 40 40-17.944 40-40 40-40-17.944-40-40zm80 296c0 22.056-17.944 40-40 40s-40-17.944-40-40 17.944-40 40-40 40 17.944 40 40zm200-64c-22.056 0-40-17.944-40-40s17.944-40 40-40 40 17.944 40 40-17.944 40-40 40z"/></svg>