<svg xmlns="http://www.w3.org/2000/svg" viewBox="0 0 448 448"><path d="M149.188 211.36C125.548 190.124 112 159.75 112 128.015c0-31.828 13.61-62.25 37.328-83.484l21.344 23.846C153.72 83.546 144 105.28 144 128.016c0 22.656 9.688 44.36 26.563 59.53l-21.375 23.813zm149.468.11C322.406 190.25 336 159.843 336 128.015c0-31.734-13.563-62.125-37.188-83.36L277.437 68.47C294.313 83.64 304 105.344 304 128.016c0 22.72-9.72 44.453-26.656 59.61l21.312 23.843zm-184.734 28.233C81.734 210.36 64 170.733 64 128.14c0-39.295 15.422-76.7 43.438-105.31L84.563.453C50.673 35.078 32 80.423 32 128.14c0 51.704 21.438 99.735 60.36 135.204l21.562-23.64zM334 239.75l21.563 23.656C393.97 228.453 416 179.156 416 128.14 416 80.376 397.313 35 363.375.376L340.5 22.78C368.563 51.376 384 88.798 384 128.14c0 42.64-17.75 82.266-50 111.61zM176 128.016c0-26.47 21.53-48 48-48s48 21.53 48 48c0 18.7-10.854 34.76-26.494 42.68L356.42 448h-34.44l-25.605-64H151.637l-25.602 64h-34.47l110.93-277.305c-15.64-7.92-26.495-23.98-26.495-42.68zM270.77 320h-93.53l-12.802 32h119.135l-12.803-32zM224 203.098L190.04 288h67.927L224 203.098zm-16-75.082c0 8.828 7.172 16 16 16s16-7.172 16-16-7.172-16-16-16-16 7.172-16 16z"/></svg>