<svg xmlns="http://www.w3.org/2000/svg" viewBox="0 0 448 448"><path d="M288 64V32c0-17.645-14.355-32-32-32h-96c-17.645 0-32 14.355-32 32v32H32v32h32v320c0 17.645 14.355 32 32 32h224c17.645 0 32-14.355 32-32V96h32V64h-96zM160 32h96v32h-96V32zm160 384H96V96h224v320zM120 308h40v-24h-26.228l28.272-44.766 3.958 11.665 22.728-7.714-16.708-49.243-49.244 16.708 7.712 22.73 8.738-2.965-33.1 52.41c-3.474 5.5-3.86 11.846-1.03 16.977C107.922 304.936 113.494 308 120 308zm162.23-24h-59.4l7.8-7.8-16.972-16.97-36.77 36.77 36.77 36.768 16.97-16.97-7.8-7.798H296c6.504 0 12.076-3.064 14.904-8.194 2.828-5.13 2.443-11.478-1.03-16.98L298.17 264.3l-20.29 12.817 4.35 6.885zM208 166.47l36.307 57.486-13.274-1.997-3.57 23.73 51.42 7.735 7.735-51.42-23.732-3.57-1.214 8.07L224.91 148.3c-3.687-5.836-10.008-9.32-16.91-9.32s-13.223 3.484-16.91 9.32l-13.444 21.288 20.292 12.815L208 166.47z"/></svg>