<svg xmlns="http://www.w3.org/2000/svg" viewBox="0 0 448 448" enable-background="new 0 0 448 448"><path d="M288 173.285v-92.752c19.94-15.09 32-39.035 32-64.533v-16h-224v16c0 25.498 12.06 49.443 32 64.533v92.751c-39.233 18.318-64 55.965-64 98.716v16h128v128l16 32 16-32v-128h128v-16c0-42.751-24.767-80.398-64-98.715zm-190.364 82.715c5.455-26.066 24.244-47.156 51.723-56.924l10.641-3.783v-132.494l-7.952-4.628c-9.938-5.783-17.484-15.293-21.293-26.171h154.49c-3.81 10.878-11.354 20.388-21.293 26.171l-7.952 4.628v132.494l10.641 3.783c27.479 9.769 46.268 30.858 51.723 56.924h-220.728z"/></svg>