<svg xmlns="http://www.w3.org/2000/svg" viewBox="0 0 448 448"><path d="M208 448l-7.22-2.657C76.94 382.78 0 282.843 0 184.53V45.28h16c50.094 0 85.594-7.344 111.75-23.094C149.406 8.03 180.344 0 208 0s58.594 8.03 80.75 22.468C314.406 37.938 349.906 45.28 400 45.28h16v139.25c0 98.313-76.938 198.25-200.78 260.813L208 448zM32 77.03v107.5c0 84.313 67.22 171.344 176 228.53 108.78-57.187 176-144.218 176-228.53V77.03c-48.03-1.563-83.97-10.406-112.25-27.47-13.375-8.687-37.656-18.5-63.75-18.5s-50.375 9.814-63.25 18.22C116.03 66.593 80.03 75.468 32 77.03zm160 242.032h32v-32h-32v32zm32-192h-32v128h32v-128z"/></svg>