<svg xmlns="http://www.w3.org/2000/svg" viewBox="0 0 1000 1000" enable-background="new 0 0 1000 1000"><path d="M656.25 437.5c17.259 0 31.25 41.973 31.25 93.75s-13.991 93.75-31.25 93.75-31.25-41.973-31.25-93.75 13.991-93.75 31.25-93.75zm-312.5 0c17.259 0 31.25 41.973 31.25 93.75s-13.991 93.75-31.25 93.75-31.25-41.973-31.25-93.75 13.991-93.75 31.25-93.75zm418.794-437.5h-525.086l-237.458 374.929 90.073 625.071h161.755l-11.078-141.575h79.88l11.646 141.575h335.449l11.644-141.575h79.881l-11.075 141.575h161.75l90.075-625.071-237.456-374.929zm10.831 762.013h-546.751l-39.124-387.084 90.824-187.5h140.331l-9.254 73.158h181.198l-9.254-73.158h140.331l90.825 187.5-39.126 387.084z"/></svg>