<svg xmlns="http://www.w3.org/2000/svg" viewBox="0 0 16 16" enable-background="new 0 0 16 16"><style type="text/css">.fill-2B2B2B{fill:#2B2B2B;}</style><path class="fill-2B2B2B" d="M5.643 8.143l.857.857-.857.857v-1.714zm3.857 2.143l.002-2.571-1.502 1.285 1.5 1.286zm6.505-.701c0 1.886-1.563 3.415-3.495 3.415h-9.51c-2-.115-3.012-1.495-3.012-3.171 0-1.751 1.467-3.171 3.262-3.171l.05.005c.234-1.251 1.351-2.2 2.7-2.2.652 0 1.243.231 1.715.601.461-1.203 1.641-2.064 3.035-2.064 1.795 0 3.25 1.42 3.25 3.171l-.033.324c1.197.541 2.038 1.717 2.038 3.09zm-5.005-3.014l-1.5-.571-2.357 2.357-1.572-1.214-.571.36v2.997l.571.357 1.572-1.214 2.357 2.357 1.5-.643v-4.786z" id="outline"/></svg>