<svg xmlns="http://www.w3.org/2000/svg" viewBox="0 0 1000 1000" enable-background="new 0 0 1000 1000"><path d="M125 154.224v689.151c0 102.844 188.659 156.625 375 156.625 186.338 0 375-53.781 375-156.625v-689.151c0-205.632-750-205.632-750 0zm375 783.126c-187.866 0-312.5-56.531-312.5-93.975v-598.904c70.786 43.73 191.967 66.378 312.5 66.378s241.713-22.648 312.5-66.378v598.904c0 37.444-124.631 93.975-312.5 93.975zm0-689.151c-187.866 0-312.5-56.563-312.5-93.975s124.634-93.975 312.5-93.975c187.869 0 312.5 56.563 312.5 93.975s-124.631 93.975-312.5 93.975z"/></svg>