<svg xmlns="http://www.w3.org/2000/svg" viewBox="-963 -219 1000 1000" enable-background="new -963 -219 1000 1000"><path d="M37-156.5h-437.5v-62.5h-125v62.5h-437.5v750h402.063l-143.313 143.313 44.187 44.187 187.5-187.5h16.875l187.5 187.5 44.188-44.187-143.25-143.313h404.25v-750zm-62.5 687.5h-875v-625h875v625zm-500-62.5h-125v-125h125v125zm125-375h-125v-125h125v125zm250 375h-125v-125h125v125zm-125-500v62.5h77.312c-56.438 102.937-165.75 169.25-285.625 169.25-49.938 0-98.688-12.063-143.063-33.813 4.625-13.125 7.625-27 7.625-41.687 0-68.938-56.063-125-125-125s-125 56.062-125 125 56.063 125 125 125c31.5 0 60-12.125 82-31.375 55 28.562 115.938 44.437 178.438 44.437 138.437 0 264.375-74.625 333.313-190.75v83.938h62.5v-187.5h-187.5zm-468.75 218.75c-34.438 0-62.5-28.063-62.5-62.5s28.063-62.5 62.5-62.5 62.5 28.062 62.5 62.5-28.063 62.5-62.5 62.5z"/></svg>