<svg xmlns="http://www.w3.org/2000/svg" viewBox="-963 -219 1000 1000" enable-background="new -963 -219 1000 1000"><path d="M-494.25-219c-189.563 0-343.75 154.187-343.75 343.75 0 91.188 36.688 176.875 103.25 241.188 54.313 52.5 84.25 122.188 84.25 196.313v125c0 51.688 42.063 93.75 93.75 93.75h125c51.687 0 93.75-42.063 93.75-93.75v-125c0-74.125 29.938-143.813 84.25-196.313 66.563-64.313 103.25-150 103.25-241.188 0-189.563-154.25-343.75-343.75-343.75zm62.5 937.5h-125c-17.25 0-31.25-14.063-31.25-31.25v-93.75h187.5v93.75c0 17.188-14.063 31.25-31.25 31.25zm134.5-397.437c-58.812 56.812-92.625 130.687-100.125 209.937h-193.75c-7.438-79.25-41.25-153.125-100.125-209.938-54.313-52.5-84.25-122.188-84.25-196.313 0-155.063 126.188-281.25 281.25-281.25s281.25 126.189 281.25 281.251c0 74.125-29.938 143.813-84.25 196.313z"/></svg>