<svg xmlns="http://www.w3.org/2000/svg" viewBox="-963 -219 1000 1000" enable-background="new -963 -219 1000 1000"><path d="M-713 281c34.5 0 62.5 28 62.5 62.5s-28 62.5-62.5 62.5-62.5-28-62.5-62.5 28-62.5 62.5-62.5zm681.938 71.5s22.438-36.187-5.375-81.375l-187.063-418.75-9.188-13.063c-41.375-67.875-136.938-77.438-195-20.375l-298.062 307.126c-97.375 6.687-174.75 87.187-174.75 186.187v406.25h-62.5v62.5h500v-62.5h-62.5v-406.25c0-10.438-1.438-20.437-3.063-30.437l199.688-205.75 124.313 277.313-70.938 70.938v106.686h62.5v-80.813l53.25-53.25c9 5.875 22.875 9 41.062 9 15.75 0 39.813-9.063 39.813-9.063l53.375 53.312v80.814h62.5v-106.687l-68.062-71.813zm-556.938 366h-250v-406.25c0-68.938 56.063-125 125-125s125 56.062 125 125v406.25zm35.5-501.75c-22-36.75-55.813-65.125-96.563-80.063l266.188-274.25c24.063-24.688 63.75-25.313 88.375-1.313h.063c12 11.687 18.688 27.25 18.938 43.937.25 16.687-6.063 32.5-17.625 44.5-.001.002-259.376 267.189-259.376 267.189zm270.187-188.687l33.938-35 12.375-15.5 107.625 240.937-57.562 24.563s-96.375-215-96.376-215zm175.438 311.5c-19.562 7-35.75-3.875-42.313-14.625l-11.125-24.875 57.5-24.5 9.375 21c6.75 15.375 5.688 36.125-13.437 43z"/></svg>