<svg xmlns="http://www.w3.org/2000/svg" viewBox="-963 -219 1000 1000" enable-background="new -963 -219 1000 1000"><path d="M-306.745-218.992c-189.56 0-343.745 154.185-343.745 343.745 0 83.561 30 160.185 79.749 219.809l-383.119 383.119c-12.187 12.187-12.187 32 0 44.187 6.125 6.062 14.125 9.125 22.125 9.125s16-3.062 22.125-9.125l383.119-383.119c59.562 49.749 136.185 79.749 219.747 79.749 189.496-.001 343.744-154.186 343.744-343.746s-154.248-343.744-343.745-343.744zm0 624.99c-155.06 0-281.246-126.186-281.246-281.246s126.186-281.246 281.246-281.246 281.246 126.186 281.246 281.246-126.186 281.246-281.246 281.246z"/></svg>