<svg xmlns="http://www.w3.org/2000/svg" viewBox="0 0 1000 1000" enable-background="new 0 0 1000 1000"><path d="M468.75 1000c-63.267 0-124.658-12.398-182.468-36.85-55.822-23.61-105.949-57.405-148.988-100.443-43.04-43.04-76.833-93.166-100.444-148.988-24.452-57.811-36.85-119.201-36.85-182.469 0-63.267 12.398-124.658 36.85-182.468 23.611-55.822 57.405-105.949 100.444-148.988s93.165-76.834 148.988-100.444c57.81-24.452 119.201-36.85 182.468-36.85 63.268 0 124.658 12.398 182.469 36.85 55.822 23.611 105.948 57.405 148.988 100.444 43.038 43.039 76.833 93.166 100.443 148.988 24.451 57.81 36.85 119.201 36.85 182.468 0 63.268-12.398 124.658-36.85 182.469-23.61 55.822-57.405 105.948-100.443 148.988-43.04 43.038-93.166 76.833-148.988 100.443-57.811 24.452-119.201 36.85-182.469 36.85zm0-875c-224.007 0-406.25 182.243-406.25 406.25s182.243 406.25 406.25 406.25 406.25-182.243 406.25-406.25-182.243-406.25-406.25-406.25zm240.847 272.097l-44.193-44.194-290.404 290.403-102.903-102.903-44.194 44.193 147.097 147.098 334.597-334.597z"/></svg>