<svg xmlns="http://www.w3.org/2000/svg" viewBox="-963 -219 1000 1000" enable-background="new -963 -219 1000 1000"><path d="M-494.25 718.5c-258.438 0-468.75-210.312-468.75-468.75s210.312-468.75 468.75-468.75 468.75 210.313 468.75 468.75-210.312 468.75-468.75 468.75zm0-878.875c-226.188 0-410.125 184-410.125 410.125s184 410.125 410.125 410.125 410.125-184 410.125-410.125-183.937-410.125-410.125-410.125zm31.375 629.875h-62.75v62.75h62.75v-62.75zm0-94.187c0-21.438 8-41.563 22.187-56.25l63.125-63.188c25.938-26.875 40.188-62.5 40.188-100.25 0-86.562-70.375-156.938-156.938-156.938s-156.937 70.438-156.937 156.938h62.75c0-51.937 42.25-94.188 94.187-94.188 51.938 0 94.188 42.25 94.188 94.188 0 21.438-8 41.563-22.187 56.25l-63.125 63.188c-25.875 26.875-40.188 62.438-40.188 100.25v31.375h62.75v-31.375z"/></svg>