<svg xmlns="http://www.w3.org/2000/svg" viewBox="-963 -219 1000 1000" enable-background="new -963 -219 1000 1000"><path d="M-588 156h62.5v62.5h-62.5v-62.5zm437.5 62.5h-62.5v-62.5h62.5v62.5zm-187.5 0h-62.5v-62.5h62.5v62.5zm-250 62.5h62.5v62.5h-62.5v-62.5zm-187.5 0h62.5v62.5h-62.5v-62.5zm437.5 62.5h-62.5v-62.5h62.5v62.5zm-250 62.5h62.5v62.5h-62.5v-62.5zm-187.5 0h62.5v62.5h-62.5v-62.5zm187.5 125h62.5v62.5h-62.5v-62.5zm-187.5 0h62.5v62.5h-62.5v-62.5zm625-750h-62.5v62.5h-500v-62.5h-62.5v62.5h-187.5v875h1000v-875h-187.5v-62.5zm-750 875v-562.5h875v562.5h-875zm875-750v125h-875v-125h125v62.5h62.5v-62.5h500v62.5h62.5v-62.5h125zm-84.625 403.563l44.187 44.187-264.5 264.5-131.25-131.188 44.187-44.188 87.063 87c0 .001 220.313-220.311 220.313-220.311z"/></svg>