<?xml version="1.0" encoding="utf-8"?>
<!-- Generator: Adobe Illustrator 19.1.0, SVG Export Plug-In . SVG Version: 6.00 Build 0)  -->
<svg version="1.1" xmlns="http://www.w3.org/2000/svg" xmlns:xlink="http://www.w3.org/1999/xlink" x="0px" y="0px"
	 viewBox="0 0 1000 1000" enable-background="new 0 0 1000 1000" xml:space="preserve">
<g id="outline">
	<path d="M500,625c-68.938,0-125-56.063-125-125s56.063-125,125-125s125,56.063,125,125S568.938,625,500,625z M500,437.5
		c-34.438,0-62.5,28.063-62.5,62.5c0,34.438,28.063,62.5,62.5,62.5c34.438,0,62.5-28.063,62.5-62.5S534.438,437.5,500,437.5z
		 M1000,500C1000,224.313,775.688,0,500,0S0,224.313,0,500c0,223.813,150.813,421.813,366.688,481.438l16.688-60.188
		C194.438,869,62.5,695.813,62.5,500C62.5,258.75,258.75,62.5,500,62.5c241.188,0,437.5,196.25,437.5,437.5
		c0,169.313-99.188,321.563-250,393.5V750H625v250h250v-62.5H740.813C898.438,850.625,1000,683.625,1000,500z"/>
</g>
<g>
</g>
<g>
</g>
<g>
</g>
<g>
</g>
<g>
</g>
<g>
</g>
</svg>
