<?xml version="1.0" encoding="utf-8"?>
<!-- Generator: Adobe Illustrator 19.1.0, SVG Export Plug-In . SVG Version: 6.00 Build 0)  -->
<svg version="1.1" id="Layer_1" xmlns="http://www.w3.org/2000/svg" xmlns:xlink="http://www.w3.org/1999/xlink" x="0px" y="0px"
	 viewBox="20 -220 1000 1000" enable-background="new 20 -220 1000 1000" xml:space="preserve">
<g id="outline">
	<path d="M832.5-157.5V-220H145v62.5H20v250c0,51.688,42.063,93.75,93.75,93.75c11.063,0,21.437-2.438,31.25-6v37.25
		c0,162.688,137.563,296.625,312.5,311.063V592.5H270v125h-62.5V780H770v-62.5h-62.5v-125H520v-63.938
		C694.938,514.125,832.5,380.188,832.5,217.5v-37.25c9.813,3.563,20.188,6,31.25,6c51.688,0,93.75-42.063,93.75-93.75v-250H832.5z
		 M113.75,123.75c-17.25,0-31.25-14-31.25-31.25V-95H145V92.5C145,109.75,131,123.75,113.75,123.75z M645,655v62.5H332.5V655H645z
		 M770,217.5c0,129.875-108.563,235.938-250,250.062V467.5h-62.5v0.063c-141.5-14.125-250-120.188-250-250.062v-375H770
		C770-157.5,770,217.5,770,217.5z M895,92.5c0,17.25-14.063,31.25-31.25,31.25s-31.25-14-31.25-31.25V-95H895V92.5z"/>
</g>
</svg>
