<svg xmlns="http://www.w3.org/2000/svg" viewBox="-963 -219 1000 1000" enable-background="new -963 -219 1000 1000"><g><path d="M-267.187 206.938c24.75-23.688 40.312-53.5 40.312-90.313 0-71.625-58.312-128.25-129.875-128.25-71.625 0-129.938 59.125-129.938 130.75 0 36.875 15.563 70.375 40.313 94.063-21.688 13.625-39.938 32.063-53.563 53.75-23.688-24.812-56.813-40.25-93.688-40.25-71.625 0-129.938 58.313-129.938 129.938 0 36.875 15.563 70 40.313 93.687-47.688 30-79.75 82.812-79.75 143.188h62.5c0-58.938 47.938-106.875 106.875-106.875s106.876 47.937 106.876 106.874h62.5c0-60.375-32.062-113.125-79.75-143.125 24.75-23.687 40.313-56.813 40.313-93.687 0-58.938 47.937-113.438 106.875-113.438s106.874 37.75 106.874 100.25h62.5c0-62.5-32.062-106.562-79.749-136.562zm-326.438 217.187c-37.187 0-67.438-30.25-67.438-67.437s30.25-67.438 67.438-67.438 67.438 30.25 67.438 67.438-30.251 67.437-67.438 67.437zm169.375-304.25c0-37.188 30.25-67.438 67.438-67.438s67.375 30.25 67.375 67.438-30.188 67.438-67.375 67.438-67.438-30.251-67.438-67.438zM-807 531c-39.938 0-68.938-7.563-87.063-22.75-18.125-15.125-27.188-42.125-27.188-80.938v-68.187c0-34.875-13.938-52.25-41.75-52.25v-52.312c27.813 0 41.75-18.063 41.75-54.25v-63.375c0-39 9-66.437 26.938-82.25s47.063-23.688 87.313-23.688v53.125c-29.313 0-43.938 16.5-43.938 49.437v60.5c0 45.437-14.125 74.125-42.313 86.062v1.125c28.188 11.75 42.313 40.875 42.313 87.25v58.25c0 18.562 3.438 31.75 10.313 39.5 6.813 7.75 18.063 11.688 33.625 11.688v53.063zm844-224.125c-28 0-42 17.688-42 53.125v65.625c0 40-8.937 67.5-26.812 82.688-17.813 15.125-46.813 22.687-86.938 22.687v-53.063c15.375 0 26.563-3.875 33.5-11.563 6.938-7.625 10.437-20.625 10.437-39.063v-60.5c0-45.25 14-73.563 42-84.938v-1.188c-28-11.938-42-41.563-42-88.938v-58.188c0-32.937-14.625-49.437-43.938-49.437v-53.122c39.938 0 68.875 7.937 86.813 23.75s26.938 42.812 26.938 81.062v65.063c0 35.813 14 53.688 42 53.688v52.312z"/></g></svg>