<svg xmlns="http://www.w3.org/2000/svg" viewBox="-963 -219 1000 1000" enable-background="new -963 -219 1000 1000"><path d="M37 304.875l-136.938-273.875h-175.562v-62.5h-687.5v562.5h130.75c12.938 36.313 47.313 62.5 88 62.5s75.063-26.188 88-62.5h261.5c12.938 36.313 47.313 62.5 88 62.5s75.063-26.188 88-62.5h255.75v-226.125zm-937.5-273.875h562.5v380.75c-26.5 9.438-47.313 30.25-56.75 56.75h-261.5c-12.938-36.313-47.313-62.5-88-62.5s-75.063 26.187-88 62.5h-68.25v-437.5zm156.25 500c-17.25 0-31.25-14-31.25-31.25s14-31.25 31.25-31.25 31.25 14 31.25 31.25-14 31.25-31.25 31.25zm437.5 0c-17.25 0-31.25-14-31.25-31.25s14-31.25 31.25-31.25 31.25 14 31.25 31.25-14 31.25-31.25 31.25zm281.25-62.5h-193.25c-9.438-26.5-30.25-47.313-56.75-56.75v-318.25h136.938l113.062 226.125v148.875z"/></svg>