<svg xmlns="http://www.w3.org/2000/svg" viewBox="-963 -219 1000 1000" enable-background="new -963 -219 1000 1000"><path d="M-57.813 114.313c20.688-22.188 33.562-51.5 33.562-84 0-68.563-56.313-124.375-125.625-124.375s-125.624 55.812-125.624 124.375c0 32.25 12.812 61.437 33.25 83.562-28.125 13.563-51.625 34-68.375 61.563-33.938-48.625-90.063-80.625-153.75-80.625-62.75 0-118.063 31.25-152.125 78.75-16.375-26.375-39.188-46-66.313-59.25 20.688-22.188 33.625-51.5 33.625-84 0-68.563-56.375-124.313-125.687-124.313-69.25 0-125.625 55.75-125.625 124.313 0 32.25 12.813 61.437 33.25 83.562-56.875 27.375-95.75 82.625-95.75 167.125h62.5c0-62.5 56.063-125 125-125 66.875 0 121.125 58.813 124.375 119.375l-.688 6.938c0 62.375 30.938 116.687 77.875 150.75-82.812 40.75-140.375 97.937-140.375 222.937h62.5c0-125 84.125-187.5 187.5-187.5 103.437 0 187.5 62.5 187.5 187.5h62.5c0-125-57.625-182.125-140.375-222.937 47-34.125 77.875-88.75 77.875-151.125l-.125-.938h1.438c0-62.5 56.125-125 125-125s125 62.5 125 125h62.5c0-84.063-38.438-139.125-94.813-166.687zm-717.062-145.813c34.813 0 63.188 27.75 63.188 61.875 0 34.063-28.375 61.812-63.188 61.812s-63.125-27.749-63.125-61.874 28.313-61.813 63.125-61.813zm310.563 438.813c-68.938 0-125-56.063-125-125l.125-1.313h1.187l-.563-6.313c4-65.375 57.875-117.437 124.25-117.437 68.937 0 125 56.062 125 125s-56.062 125.063-124.999 125.063zm314.499-438.813c34.813 0 63.125 27.75 63.125 61.875 0 34.062-28.313 61.813-63.125 61.813-34.875 0-63.187-27.75-63.187-61.875s28.313-61.813 63.187-61.813z"/></svg>