<svg xmlns="http://www.w3.org/2000/svg" viewBox="0 0 16 16" enable-background="new 0 0 16 16"><path d="M8 15l-6.686-6.52c-.848-.827-1.314-1.928-1.314-3.1 0-1.172.467-2.273 1.314-3.099.847-.826 1.973-1.281 3.169-1.281 1.197 0 2.323.455 3.17 1.283l.347.338.347-.338c.846-.826 1.972-1.281 3.169-1.281s2.323.455 3.17 1.281c.847.825 1.314 1.926 1.314 3.098s-.466 2.273-1.314 3.1l-6.686 6.519zm-3.517-13.014c-.932 0-1.808.354-2.466.996-.656.64-1.017 1.491-1.017 2.398s.361 1.759 1.017 2.399l5.983 5.835 5.983-5.834c.656-.64 1.017-1.492 1.017-2.399s-.361-1.758-1.017-2.398c-1.319-1.286-3.617-1.284-4.933 0l-1.05 1.024-1.05-1.024c-.659-.643-1.534-.997-2.467-.997z"/></svg>