<svg xmlns="http://www.w3.org/2000/svg" viewBox="0 0 1000 1000" enable-background="new 0 0 1000 1000"><path d="M500 0c-275.696 0-500 224.306-500 500s224.304 500 500 500c275.694 0 500-224.306 500-500s-224.306-500-500-500zm0 62.5c148.269 0 279.338 74.331 358.506 187.5h-717.019c79.163-113.169 210.228-187.5 358.513-187.5zm0 875c-148.281 0-279.35-74.331-358.513-187.5h717.019c-79.168 113.169-210.243 187.5-358.506 187.5zm394.675-250h-789.355c-27.161-56.925-42.82-120.344-42.82-187.5s15.659-130.575 42.82-187.5h789.355c27.169 56.925 42.825 120.344 42.825 187.5s-15.656 130.575-42.825 187.5zm-611.044-62.5l84.106-203.769h38.056l-84.503 203.769h-37.659zm199.067-24.475c-25.483 0-46.264-8.238-61.737-24.475-15.413-16.081-23.254-37.412-23.254-63.419 0-27.831 8.758-50.75 26.031-68.081 17.273-17.275 39.337-26.063 65.613-26.063 16.602 0 30.701 2.444 41.901 7.231l3.814 1.619v42.175l-9.461-5.644c-10.071-6.012-21.026-8.944-33.416-8.944-16.144 0-28.809 4.944-38.696 15.138-9.796 10.1-14.77 23.956-14.77 41.169 0 16.537 4.485 29.263 13.701 38.881 9.156 9.519 20.996 14.125 36.103 14.125 14.221 0 26.611-3.356 36.896-9.975l9.643-6.225v40.4l-3.357 1.769c-13.123 6.838-29.633 10.319-49.011 10.319zm-242.463 0c-25.482 0-46.265-8.238-61.738-24.475-15.411-16.081-23.254-37.412-23.254-63.419 0-27.831 8.758-50.75 26.032-68.081 17.273-17.275 39.336-26.063 65.613-26.063 16.601 0 30.701 2.444 41.901 7.231l3.815 1.619v42.175l-9.461-5.644c-9.949-5.95-21.179-8.944-33.416-8.944-16.144 0-28.809 4.944-38.696 15.138-9.797 10.1-14.771 23.956-14.771 41.169 0 16.537 4.486 29.263 13.702 38.881 9.155 9.519 20.996 14.125 36.103 14.125 14.221 0 26.611-3.356 36.895-9.975l9.644-6.225v40.4l-3.358 1.769c-13.122 6.838-29.633 10.319-49.011 10.319zm527.984-15.869v-45.2h-45.162v-31.369h45.162v-45.35h31.375v45.35h45.162v31.369h-45.162v45.2h-31.375zm-162.719 0v-45.2h-45.197v-31.369h45.197v-45.35h31.369v45.35h45.169v31.369h-45.169v45.2h-31.369z"/></svg>