<svg xmlns="http://www.w3.org/2000/svg" viewBox="-963 -219 1000 1000" enable-background="new -963 -219 1000 1000"><path d="M-25.5 718.5v62.5h-937.5v-937.5h62.5v875h125v-125h62.5v125h125v-125h62.5v125h125v-125h62.5v125h125v-125h62.5v125h125zm-1.437-716.75c0 51.688-42.063 93.75-93.75 93.75-8.25 0-16.063-1.375-23.687-3.437l-89.938 135.937c11.312 15.5 18.188 34.375 18.188 55 0 51.687-42.063 93.75-93.75 93.75s-93.75-42.063-93.75-93.75c0-10.875 2.25-21.187 5.625-30.875l-105.938-79.5c-14.063 8.5-30.375 13.625-47.938 13.625l-14.563-1.5-112.188 184.125c18.375 17.125 30.063 41.313 30.063 68.375 0 51.687-42.063 93.75-93.75 93.75-51.688 0-93.75-42.063-93.75-93.75s42.062-93.75 93.75-93.75l5.625.563 115.25-189.188c-14.813-16.625-24.188-38.312-24.188-62.375 0-51.688 42.062-93.75 93.75-93.75 51.687 0 93.75 42.062 93.75 93.75 0 11.25-2.312 21.937-5.937 31.938l105.25 78.938c14.313-8.813 30.937-14.187 48.938-14.187 8.313 0 16.312 1.437 24 3.5l89.813-135.75c-11.375-15.5-18.375-34.5-18.375-55.187 0-51.688 42.063-93.75 93.75-93.75s93.75 42.061 93.75 93.748zm-684.126 435.5c0-17.187-14-31.25-31.25-31.25s-31.25 14.063-31.25 31.25 14 31.25 31.25 31.25 31.25-14.063 31.25-31.25zm190.438-344.75c0-17.25-14-31.25-31.25-31.25s-31.25 14-31.25 31.25 14 31.25 31.25 31.25 31.25-14 31.25-31.25zm241.938 190.438c0-17.25-14.063-31.25-31.25-31.25s-31.25 14-31.25 31.25 14.063 31.25 31.25 31.25 31.25-14 31.25-31.25zm189.25-281.188c0-17.25-14.063-31.25-31.25-31.25s-31.25 14-31.25 31.25 14.062 31.25 31.25 31.25 31.25-14 31.25-31.25z"/></svg>