<svg xmlns="http://www.w3.org/2000/svg" viewBox="-963 -219 1000 1000" enable-background="new -963 -219 1000 1000"><path d="M-400.688 468.5c-68.812 0-124.812-70.125-124.812-156.25s56-156.25 124.812-156.25c68.875 0 124.813 70.125 124.813 156.25s-55.938 156.25-124.813 156.25zm0-250c-33.75 0-62.312 42.938-62.312 93.75s28.562 93.75 62.312 93.75 62.313-43 62.313-93.75-28.563-93.75-62.313-93.75zm-218.687 62.5c-17.188 0-31.125 14-31.125 31.25s13.938 31.25 31.125 31.25 31.125-14 31.125-31.25c.062-17.25-13.938-31.25-31.125-31.25zm437.75 0c-17.187 0-31.125 14-31.125 31.25s13.937 31.25 31.125 31.25 31.125-14 31.125-31.25-13.937-31.25-31.125-31.25zm156.125-250v-124.875l-.375-.125h-937.125v624.875l.125.125h124.875v62.5h875v-562.5h-62.5zm-875 437.5v-500h812.5v62.5h-750v437.5h-62.5zm184.875-375c-2.625 12.062-7.875 26.062-18.5 37.625-9.813 10.563-24.5 16.562-41.375 20.375v-58h59.875zm-59.875 437.5v-58c16.75 3.813 31.313 9.687 41.063 20.125 10.813 11.5 16.063 25.688 18.813 37.875h-59.876zm750 0h-59.937c2.688-12.063 7.875-26.063 18.5-37.563 9.812-10.625 24.5-16.563 41.375-20.437v58h.062zm0-122.563c-36.062 5.063-65.562 19.063-87.25 42.563-23.938 25.938-32.687 57.063-35.937 80h-503.625c-3.25-22.875-12-54.062-35.938-80-21.688-23.5-51.125-37.563-87.25-42.563v-192.312c36.125-5.063 65.563-19.063 87.25-42.625 24-25.938 32.75-57.063 35.938-80h503.563c3.25 22.938 12 54.062 35.937 80 21.75 23.562 51.25 37.562 87.313 42.625-.001 0-.001 192.312-.001 192.312zm0-256.875c-16.75-3.813-31.313-9.688-41.062-20.063-10.813-11.562-16.062-25.75-18.812-38h59.874v58.063z"/></svg>