<svg xmlns="http://www.w3.org/2000/svg" viewBox="-963 -219 1000 1000" enable-background="new -963 -219 1000 1000"><path d="M-329.063 718.5c-54.125 0-98.188-44.062-98.188-98.188v-53.562c-.062-19.75-16.061-35.75-35.749-35.75v-62.5c19.688 0 35.688-16 35.688-35.688v-53.625c0-54.125 44.062-98.188 98.25-98.188v62.5c-19.75 0-35.75 16-35.75 35.688v53.563c0 25.875-10 49.375-26.438 66.938 16.438 17.563 26.438 41.063 26.438 66.938v53.563c0 19.687 16 35.688 35.688 35.688v62.623h.061zm267.875-98.188v-53.562c0-19.75 16-35.75 35.688-35.75v-62.5c-19.687 0-35.688-16-35.688-35.688v-53.625c0-54.125-44.062-98.188-98.25-98.188v62.5c19.687 0 35.688 16 35.688 35.688v53.563c0 25.875 10 49.375 26.438 66.938-16.437 17.563-26.438 41.063-26.438 66.938v53.563c0 19.687-16 35.688-35.688 35.688v62.5c54.188.123 98.25-43.939 98.25-98.065zm-296.812-570.874c34.813-28.688 57.5-66.312 57.5-114.812 0-86.188-70.063-153.626-156.25-153.626-86.125 0-156.25 71.438-156.25 157.563 0 48.5 22.688 82.687 57.5 111.375-35.75 19.688-64.812 51.625-83.813 86.75-28.687-32.75-70.437-53.875-117.437-53.875-86.125 0-156.25 70.5-156.25 156.625 0 48.5 22.688 87.313 57.5 116-63.75 35.187-107.5 113.375-107.5 175.875h62.5c0-62.5 64.5-143.75 143.75-143.75 79.312 0 143.75 81.25 143.75 143.75h62.5c0-62.5-43.75-140.5-107.5-175.625 34.813-28.687 57.5-70.625 57.5-119.125l-1.75-17.75h1.75c0-62.5 64.5-143.75 143.75-143.75s143.75 81.25 143.75 143.75h62.5c0-62.5-43.75-134.25-107.5-169.375zm-398.75 283.875c-51.688 0-93.75-42.063-93.75-93.75s42.062-93.75 93.75-93.75 93.75 42.063 93.75 93.75-42.063 93.75-93.75 93.75zm300-300c-51.688 0-93.75-42.062-93.75-93.75s42.063-93.75 93.75-93.75 93.75 42.062 93.75 93.75-42.063 93.75-93.75 93.75z"/></svg>