<svg xmlns="http://www.w3.org/2000/svg" viewBox="-963 -219 1000 1000" enable-background="new -963 -219 1000 1000"><path d="M-463 93.5h-250v-62.5h250v62.5zm159.75 62.5h-409.75v62.5h347.187l62.563-62.5zm-125.062 125h-284.688v62.5h222.125l62.563-62.5zm440.75-103.687l-412.938 416.187h-125v-125l405.5-423.687 132.438 132.5zm-157.813 70.375l-42.063-42.062-275.562 287.937v37.437h36.438l281.187-283.312zm34.938-35.188l34.688-34.938-43.312-43.312-34.063 35.5 42.687 42.75zm-40.063-244v17.75l-42.812 44.75h-207.188v-187.5h-375v812.5h562.5v-162.75l62.5-63v288.25h-687.5v-937.5h500l187.5 187.5zm-88.375 0l-99.125-99.125v99.125h99.125z"/></svg>