<svg xmlns="http://www.w3.org/2000/svg" viewBox="-963 -219 1000 1000" enable-background="new -963 -219 1000 1000"><path d="M-150.5 218.5c-103.375 0-187.5 84.125-187.5 187.5 0 40.438 13.125 77.688 35 108.313l-213.313 213.313c-12.188 12.188-12.188 32 0 44.188 6.063 6.125 14.063 9.188 22.063 9.188s16-3.063 22.125-9.125l213.312-213.313c30.625 21.813 67.875 34.938 108.313 34.938 103.375-.002 187.5-84.127 187.5-187.502s-84.125-187.5-187.5-187.5zm0 312.5c-68.937 0-125-56.063-125-125s56.063-125 125-125 125 56.063 125 125-56.063 125-125 125zm-625-562.5h625v187.5h62.5v-250h-125v-125h-750v562.5h125v125h437.5v-62.5h-375v-437.5zm-62.5 312.5h-62.5v-437.5h625v62.5h-562.5v375z"/></svg>