<svg xmlns="http://www.w3.org/2000/svg" viewBox="-963 -219 1000 1000" enable-background="new -963 -219 1000 1000"><path d="M-275.5 343.5v62.5h-250v-312.5h62.5v250h187.5zm250 0c0 241.188-196.312 437.5-437.5 437.5-241.25 0-437.5-196.313-437.5-437.5 0-219.938 163.313-402 375-432.5v-67.5h-125v-62.5h312.5v62.5h-125v62.5c93.438 0 179.875 29.688 251.063 79.75l101.875-101.875 44.187 44.188-97.5 97.5c84.625 79.812 137.875 192.687 137.875 317.937zm-62.5 0c0-206.813-168.188-375-375-375s-375 168.188-375 375 168.188 375 375 375 375-168.187 375-375z"/></svg>