<svg xmlns="http://www.w3.org/2000/svg" viewBox="-963 -219 1000 1000" enable-background="new -963 -219 1000 1000"><path d="M4.938-73.545l-19.812-37.437-190.435 190.31-56.124-56.124 190.435-190.372-37.437-19.75c-108.623-57.374-240.934-36.437-329.307 51.874-68.811 68.874-95.124 164.06-78.686 252.059l-390.745 390.805 1.062 1.063-11.937 9.75c-59.937 59.937-59.937 157.498 0 217.434 30 29.937 69.374 44.937 108.748 44.937s78.749-15 108.748-44.937l9.75-11.812.5.5 391.369-390.306c16.875 3.187 34.062 4.875 51.249 4.875 72.311 0 145.123-27.875 200.747-83.499 88.312-88.437 109.186-220.747 51.875-329.37zm-878.799 765.425c-35.624-35.624-35.624-93.561 0-129.123 17.812-17.75 41.187-26.687 64.562-26.687s46.749 8.937 64.561 26.687c17.25 17.25 26.75 40.124 26.75 64.562 0 24.375-9.5 47.312-26.75 64.561-35.687 35.625-93.561 35.625-129.123 0zm216.059-87.936c-4.875-32.125-19.375-61.937-42.749-85.374-24.25-24.25-54.687-38.187-86.249-42.812l292.808-292.87c13 27.625 29.75 53.874 52.499 76.561 22.687 22.687 48.874 39.499 76.436 52.499.001 0-292.745 291.996-292.745 291.996zm566.616-392.369c-85.561 85.499-222.809 87.124-306.183 3.75s-81.624-220.747 3.812-306.183c42.562-42.562 99.873-64.999 157.185-64.999 19.437 0 38.999 2.562 57.812 7.875l-129.997 129.998c-22.625 22.75-22.812 59.499-.375 82.061l62.874 62.874c10.875 10.812 25.25 16.812 40.687 16.812 15.625 0 30.312-6.125 41.374-17.187l129.936-129.935c20.874 74.374-.063 157.872-57.125 214.934z"/></svg>