<svg xmlns="http://www.w3.org/2000/svg" viewBox="0 0 1000 1000" enable-background="new 0 0 1000 1000"><style type="text/css">.st0{fill:#101010;}</style><path class="st0" d="M809.49 360.508c51.205-35.889 84.919-95.112 84.919-162.235 0-109.314-88.928-198.273-198.303-198.273-109.314 0-198.273 88.959-198.273 198.273 0 67.12 33.722 126.339 84.919 162.228-54.863 26.196-99.079 70.404-125.271 125.271-35.892-51.182-95.108-84.892-162.224-84.892-109.314 0-198.273 88.928-198.273 198.242 0 67.15 33.718 126.37 84.908 162.258-89.359 42.659-151.71 133.163-151.71 238.62h62.5c0-111.694 90.881-202.576 202.576-202.576s202.575 90.882 202.575 202.576h62.5c0-105.457-62.351-195.957-151.711-238.621 51.189-35.889 84.908-95.104 84.908-162.258 0-111.694 90.881-202.576 202.576-202.576s202.576 90.881 202.576 202.576h62.5c0-105.434-62.329-195.946-151.692-238.613zm-514.232 374.416c-74.86 0-135.773-60.913-135.773-135.803 0-74.86 60.913-135.742 135.773-135.742s135.772 60.882 135.772 135.742c0 74.89-60.913 135.803-135.772 135.803zm265.075-536.651c0-74.86 60.883-135.773 135.773-135.773s135.803 60.913 135.803 135.773-60.913 135.773-135.803 135.773-135.773-60.914-135.773-135.773z" id="outline"/></svg>