<?xml version="1.0" standalone="no"?> 
<!DOCTYPE svg PUBLIC "-//W3C//DTD SVG 1.1//EN" "http://www.w3.org/Graphics/SVG/1.1/DTD/svg11.dtd" >
<svg xmlns="http://www.w3.org/2000/svg">
<defs>
  <font id="bowtie" horiz-adv-x="448">
    <font-face font-family="bowtie"
      units-per-em="448" ascent="384"
      descent="64" />
    <missing-glyph horiz-adv-x="0" />
    <glyph glyph-name="bowtie"
      unicode="&#xEA01;"
      horiz-adv-x="448" d="" />
    <glyph glyph-name="brand-maven"
      unicode="&#xEA02;"
      horiz-adv-x="448" d=" M280.318 16.284C274.04 11.525 266.262 5.793 256.986 -0.891C247.69 -7.595 238.94 -12.881 230.738 -16.769C219.275 -21.954 207.406 -25.782 195.092 -28.273C182.779 -30.744 169.27 -32 154.586 -32C120.014 -32 91.072 -21.306 67.74 0.081S32.743 48.79 32.743 82.066C32.743 108.638 38.677 130.35 50.566 147.2000000000001C62.434 164.0510000000001 79.285 177.3370000000001 101.118 187.0580000000001C122.708 196.7800000000001 149.503 203.686 181.483 207.7970000000001C213.442 211.8880000000001 246.617 214.9260000000001 280.967 216.8700000000001V218.8140000000001C280.967 238.9050000000001 272.744 252.7790000000001 256.339 260.4550000000001C239.914 268.1110000000001 215.711 271.9590000000001 183.752 271.9590000000001C164.511 271.9590000000001 143.995 268.5560000000001 122.182 261.7510000000001C100.349 254.9460000000001 84.693 249.7000000000001 75.195 246.0350000000001H64.5V333.8530000000001C76.814 337.0940000000001 96.844 340.9210000000001 124.611 345.3570000000001C152.358 349.7720000000001 180.186 352.0000000000001 208.055 352.0000000000001C274.3640000000001 352.0000000000001 322.283 341.7920000000001 351.771 321.3770000000001S396.004 268.9210000000001 396.004 225.2960000000001V-22.2789999999999H280.318V16.2840000000001zM280.318 72.911V148.496C264.541 147.2 247.467 145.418 229.118 143.169C210.748 140.901 196.814 138.268 187.315 135.25C175.649 131.584 166.738 126.258 160.581 119.25C154.424 112.263 151.346 103.047 151.346 91.645C151.346 84.111 151.994 77.974 153.29 73.235S157.827 63.959 163.012 59.665C167.974 55.3509999999999 173.908 52.1709999999999 180.835 50.146C187.741 48.08 198.536 47.068 213.24 47.068C224.906 47.068 236.734 49.438 248.724 54.177S271.245 65.1539999999999 280.3180000000001 72.911z" />
    <glyph glyph-name="brand-npm"
      unicode="&#xEA03;"
      horiz-adv-x="448" d=" M0 384V-64H448V384H0zM384 0H320V256H224V0H64V320H384V0z" />
    <glyph glyph-name="format-bold"
      unicode="&#xEA04;"
      horiz-adv-x="448" d=" M96 -32V352H217.841C254.98 352 284.375 343.884 306.086 327.632C327.7560000000001 311.38 338.611 290.225 338.611 264.168C338.611 242.395 332.452 223.465 320.134 207.398S290.76 179.899 268.988 173.122V172.051C295.416 169.023 316.509 159.239 332.329 142.719C348.108 126.22 356.017 104.756 356.017 78.328C356.017 45.473 343.081 18.88 317.189 -1.471C291.296 -21.824 258.626 -32 219.18 -32H95.9999999999999zM159.464 300.854V191.599H200.702C222.846 191.599 240.21 196.81 252.775 207.275C265.3810000000001 217.698 271.664 232.488 271.664 251.583C271.664 284.438 249.706 300.855 205.79 300.855H159.464zM159.464 140.452V18.879H213.824C237.574 18.879 255.907 24.358 268.843 35.358C281.8 46.316 288.2680000000001 61.456 288.2680000000001 80.737C288.2680000000001 120.554 260.6860000000001 140.452 205.523 140.452H159.464z" />
    <glyph glyph-name="format-clear"
      unicode="&#xEA05;"
      horiz-adv-x="448" d=" M329.907 204.595L162.189 36.874C150.531 24.765 150.531 5.063 162.407 -7.251L219.155 -64H297.501L448 86.515L329.907 204.595zM402.749 86.515L374.119 57.881L301.284 130.716L329.908 159.343L402.749 86.515zM284.249 -32H232.313L185.03 14.454L278.659 108.092L351.497 35.254L284.249 -32zM178.74 98.678H81.004L45.918 0H0L135.008 352H177.7189999999999L248.4119999999999 168.35L216.5229999999999 136.461L158.3999999999999 309.289C156.7629999999999 299.307 94.7499999999999 135.744 94.7499999999999 135.744H215.8069999999999L178.7399999999999 98.678z" />
    <glyph glyph-name="format-font-color"
      unicode="&#xEA06;"
      horiz-adv-x="448" d=" M349.605 64H312.986L283.063 144.735H163.362L135.21 64H98.395L206.674 352H240.932L349.605 64zM272.2340000000001 175.061L224 317.054L174.386 175.061H272.2340000000001zM416 0H32V-64H416V0z" />
    <glyph glyph-name="format-font-size"
      unicode="&#xEA07;"
      horiz-adv-x="448" d=" M264.428 0H225.883L194.382 89.708H68.386L38.753 0H0L113.978 320H150.037L264.428 0zM179.974 126.639L127.67 281.8110000000001L78.675 126.639H179.974zM448 5.266H414.573V40.385H413.757C399.222 13.457 377.824 0 349.555 0C328.765 0 312.4890000000001 5.926 300.729 17.779C288.988 29.628 283.107 45.364 283.107 64.965C283.107 106.954 306.077 131.4 352 138.27L414.573 147.709C414.573 185.898 400.243 204.992 371.568 204.992C346.435 204.992 323.731 195.774 303.491 177.338V214.21C324.013 228.258 347.657 235.281 374.419 235.281C423.478 235.281 448 207.34 448 151.44V5.266zM414.573 118.956L364.231 111.494C348.74 109.146 337.06 105.011 329.1720000000001 99.102C321.2870000000001 93.158 317.351 82.675 317.351 67.6C317.351 56.626 320.989 47.66 328.263 40.72C335.524 33.7670000000001 345.21 30.288 357.3 30.288C373.873 30.288 387.559 36.532 398.378 49.059C409.1649999999999 61.555 414.5729999999999 77.408 414.5729999999999 96.5700000000001V118.9560000000001z" />
    <glyph glyph-name="format-indent-decrease"
      unicode="&#xEA08;"
      horiz-adv-x="448" d=" M448 352V320H192V352H448zM192 -64H448V-32H192V-64zM64 192H160V224H64V192zM0 64H160V96H0V64zM339.313 212.687L316.686 235.314L225.373 144L316.686 52.687L339.313 75.314L286.627 128H448V160H286.627L339.313 212.687z" />
    <glyph glyph-name="format-indent-increase"
      unicode="&#xEA09;"
      horiz-adv-x="448" d=" M0 352H256V320H0V352zM0 -65H256V-33H0V-65zM384 224H288V192H384V224zM288 96V64H448V96H288zM108.687 75.313L131.314 52.686L222.627 144L131.313 235.313L108.686 212.686L161.373 160H0V128H161.373L108.687 75.313z" />
    <glyph glyph-name="format-italic"
      unicode="&#xEA0A;"
      horiz-adv-x="448" d=" M257.133 -21.522L254.018 -32H96L99.965 -21.522C115.823 -21.144 126.301 -19.823 131.399 -17.557C139.706 -14.348 145.841 -9.911 149.806 -4.247C156.036 4.626 162.455 20.485 169.063 43.328L235.895 274.974C241.559 294.231 244.391 308.768 244.391 318.5849999999999C244.391 323.494 243.164 327.647 240.71 331.045C238.256 334.443 234.518 337.03 229.515 338.823C224.512 340.617 214.752 341.523 200.215 341.523L203.611 352H352L348.885 341.522C336.802 341.711 327.835 340.389 321.982 337.557C313.486 333.781 307.011 328.401 302.574 321.415C298.137 314.43 292.436 298.949 285.451 274.973L218.902 43.327C212.861 21.994 209.84 8.401 209.84 2.548C209.84 -2.172 211.011 -6.193 213.389 -9.497C215.73 -12.801 219.506 -15.35 224.716 -17.124C229.89 -18.936 240.708 -20.389 257.1329999999999 -21.522z" />
    <glyph glyph-name="format-link-add-heavy"
      unicode="&#xEA0B;"
      horiz-adv-x="448" d=" M423.145 175.123L384.184 136.165L361.557 158.794L400.517 197.751C421.128 218.363 421.128 251.903 400.516 272.517C379.905 293.129 346.364 293.129 325.748 272.517L218.6159999999999 165.383C198.005 144.771 198.005 111.231 218.6159999999999 90.617C220.9309999999999 88.304 223.4549999999999 86.2019999999999 226.1139999999999 84.3749999999999L207.9909999999999 58.002C203.7249999999999 60.9329999999999 199.6879999999999 64.292 195.9909999999999 67.9859999999999C162.8999999999999 101.0799999999999 162.8999999999999 154.9199999999999 195.987 188.0089999999999L303.1209999999999 295.1429999999999C336.2109999999999 328.231 390.0539999999999 328.2319999999999 423.1429999999999 295.1429999999999C456.2309999999999 262.053 456.2309999999999 208.2119999999999 423.1449999999999 175.1229999999999zM305.302 197.092L286.685 171.066C289.057 169.369 291.31 167.458 293.3829999999999 165.384C313.9939999999999 144.771 313.995 111.231 293.3839999999999 90.617L186.2509999999999 -16.516C165.6359999999999 -37.128 132.0949999999999 -37.129 111.4829999999999 -16.517C90.8709999999999 4.096 90.8709999999999 37.637 111.4819999999999 58.25L150.4419999999999 97.207L127.8149999999999 119.836L88.8539999999999 80.878C55.7679999999999 47.788 55.7679999999999 -6.054 88.8549999999999 -39.1439999999999C105.3999999999999 -55.687 127.1319999999999 -63.9589999999999 148.8649999999999 -63.9589999999999C170.5979999999999 -63.958 192.3309999999999 -55.687 208.8769999999999 -39.143L316.012 67.99C349.099 101.08 349.099 154.92 316.012 188.009C312.701 191.321 309.098 194.376 305.302 197.092zM128 192V256H192V320H128V384H64V320H0V256H64V192H128z" />
    <glyph glyph-name="format-list-ordered"
      unicode="&#xEA0C;"
      horiz-adv-x="448" d=" M111.376 256.151V288.1140000000001H96.374V384L46 372.763V349.7440000000001L64.374 355.674V288.113H50.374V256.151H111.376zM76 126.305S108.985 163.761 111.014 167.413C113.078 171.096 114.595 174.717 115.516 178.369C116.39 181.958 116.844 185.61 116.844 189.356C116.844 194.288 116.047 198.969 114.454 203.308C112.844 207.616 110.406 211.392 107.078 214.608C103.734 217.792 99.516 220.32 94.454 222.162C89.328 223.972 83.344 224.909 76.406 224.909C72.547 224.909 68.812 224.597 65.203 223.973C61.561 223.349 32.595 215.764 32.595 214.547V183.115C32.595 184.894 52.173 193.883 54.813 195.07C57.453 196.256 61.002 197.161 63.843 197.879C66.624 198.535 69.952 198.878 72.921 198.878C75.983 198.878 78.937 198.41 81.295 197.598C83.673 196.756 88.748 190.357 87.685 185.612C86.607 180.836 83.765 174.25 77.467 166.291C75.061 163.232 32.593 119.2840000000001 32.593 119.2840000000001V96.842H116.091V126.307H76zM113.625 -8.816C108 4.451 93.094 7.3219999999999 93.094 7.3219999999999C114 9.9429999999999 111.42 35.975 111.42 39.754C111.42 43.716 110.639 47.68 109.11 51.581C107.561 55.485 105.155 58.919 101.734 62.035C98.406 65.159 94.016 67.687 88.624 69.621C83.235 71.558 76.656 72.494 68.938 72.494C65.172 72.494 61.626 72.274 58.327 71.867C55.095 71.432 52.061 70.87 49.281 70.151C46.5 69.4669999999999 44.094 68.655 41.94 67.843C39.751 67.063 33.502 66.251 32.001 65.4999999999999V41.778C47.502 49.893 68.705 49.583 71.281 49.112C88.5 45.896 78.19 23.49 76.017 21.989C73.924 20.431 71.252 19.211 68.001 18.3699999999999C64.721 17.4959999999999 60.862 17.09 56.282 17.09H45.312V-5.1660000000001H57.203C61.36 -5.1660000000001 65.28 -5.5720000000001 68.829 -6.289C72.391 -7.0380000000001 75.469 -8.193 78.032 -9.6300000000001C80.608 -11.16 82.608 -13.0960000000001 84.048 -15.4030000000001C85.501 -17.7130000000001 86.218 -20.4590000000001 86.218 -23.582C86.218 -29.1050000000001 84.218 -33.5690000000001 80.093 -36.785C76.016 -40.094 70.157 -41.745 62.439 -41.745C59.985 -41.745 57.405 -41.591 54.689 -41.121C51.969 -40.718 49.236 -40.155 46.5 -39.313C43.844 -38.532 41.204 -37.566 38.625 -36.283C36.126 -35.07 35.156 -32.197 32.938 -30.635V-55.918C34.781 -56.856 35.546 -59.195 38.077 -60.004C40.64 -60.817 43.421 -61.569 46.407 -62.129S52.471 -63.22 55.674 -63.502C58.906 -63.844 62.141 -64.001 65.328 -64.001C74.016 -64.001 81.578 -62.9710000000001 87.907 -60.881C94.249 -58.82 99.437 -55.982 103.501 -52.3270000000001C107.61 -48.708 110.64 -44.429 112.595 -39.594C114.093 -35.907 119.155 -21.866 113.625 -8.816zM448 288H160V320H448V288zM448 128H160V160H448V128zM448 -32.0000000000001H160V-1e-13H448V-32.0000000000001z" />
    <glyph glyph-name="format-list-unordered"
      unicode="&#xEA0D;"
      horiz-adv-x="448" d=" M448 288H160V320H448V288zM448 160H160V128H448V160zM448 0H160V-32H448V0zM96 352H0V256H96V352zM96 192H0V96H96V192zM96 32H0V-64H96V32z" />
    <glyph glyph-name="format-underline"
      unicode="&#xEA0E;"
      horiz-adv-x="448" d=" M64 -64V-32H384V-64H64zM346.908 164.565C346.908 76.183 305.055 32 221.366 32C141.189 32 101.092 74.511 101.092 159.517V352H153.328V170.272C153.328 108.531 177.319 77.652 225.317 77.652C271.5590000000001 77.652 294.6720000000001 107.434 294.6720000000001 166.98V352H346.908V164.565z" />
    <glyph glyph-name="link-add"
      unicode="&#xEA0F;"
      horiz-adv-x="448" d=" M207.988 58.003C203.718 60.939 199.681 64.299 195.99 67.989C162.9 101.079 162.9 154.92 195.989 188.01L303.122 295.143C319.151 311.172 340.464 320 363.1330000000001 320C385.8010000000001 320 407.1130000000001 311.172 423.1430000000001 295.143C439.1720000000001 279.113 448 257.801 448 235.132C448 212.464 439.1720000000001 191.152 423.1430000000001 175.122L384.1860000000001 136.164L361.5590000000001 158.791L400.516 197.749C421.1280000000001 218.362 421.1280000000001 251.902 400.516 272.515C379.904 293.126 346.3640000000001 293.128 325.749 272.515L218.617 165.383C198.005 144.77 198.005 111.231 218.617 90.617C220.929 88.305 223.452 86.205 226.116 84.374L207.988 58.003zM208.877 -39.143L316.01 67.99C349.1 101.079 349.1 154.92 316.011 188.009C312.695 191.326 309.09 194.383 305.297 197.094L286.688 171.062C289.053 169.371 291.305 167.46 293.383 165.383C313.995 144.769 313.995 111.23 293.383 90.617L186.25 -16.516C165.638 -37.13 132.098 -37.129 111.484 -16.516C90.871 4.097 90.871 37.637 111.484 58.251L150.442 97.208L127.815 119.835L88.857 80.878C72.828 64.849 64 43.536 64 20.867C64 -1.801 72.828 -23.1130000000001 88.857 -39.143C104.887 -55.172 126.199 -64 148.868 -64C171.536 -64 192.848 -55.172 208.877 -39.143zM96 384H64V224H96V384zM160 320H0V288H160V320z" />
    <glyph glyph-name="link-remove-heavy"
      unicode="&#xEA10;"
      horiz-adv-x="448" d=" M207.992 58.002C203.726 60.933 199.689 64.292 195.992 67.986C162.901 101.08 162.901 154.92 195.988 188.01L303.121 295.143C336.211 328.231 390.054 328.232 423.143 295.143C456.231 262.053 456.231 208.212 423.144 175.122L384.183 136.164L361.556 158.793L400.5159999999999 197.75C421.1269999999999 218.362 421.1269999999999 251.902 400.515 272.516C379.904 293.128 346.363 293.128 325.747 272.516L218.616 165.383C198.004 144.771 198.004 111.231 218.616 90.617C220.931 88.304 223.455 86.2019999999999 226.114 84.3749999999999L207.992 58.002zM208.878 -39.144L316.012 67.99C349.099 101.08 349.099 154.92 316.012 188.009C312.701 191.321 309.098 194.376 305.302 197.092L286.685 171.066C289.057 169.369 291.31 167.458 293.383 165.384C313.994 144.771 313.995 111.231 293.384 90.617L186.251 -16.516C165.636 -37.128 132.095 -37.129 111.483 -16.5169999999999C90.871 4.0960000000001 90.871 37.6370000000001 111.482 58.2500000000001L150.442 97.2070000000001L127.815 119.8360000000001L88.854 80.878C55.768 47.788 55.768 -6.054 88.855 -39.1439999999999C105.4 -55.687 127.132 -63.9589999999999 148.865 -63.9589999999999C170.6 -63.9589999999999 192.333 -55.6879999999999 208.878 -39.1439999999999zM192 320H0V256H192V320z" />
    <glyph glyph-name="link-remove"
      unicode="&#xEA11;"
      horiz-adv-x="448" d=" M207.988 58.003C203.718 60.939 199.681 64.299 195.99 67.989C162.9 101.079 162.9 154.92 195.989 188.01L303.122 295.143C319.151 311.172 340.464 320 363.1330000000001 320C385.8010000000001 320 407.1130000000001 311.172 423.1430000000001 295.143C439.1720000000001 279.113 448 257.801 448 235.132C448 212.464 439.1720000000001 191.152 423.1430000000001 175.122L384.1860000000001 136.164L361.5590000000001 158.791L400.516 197.749C421.1280000000001 218.362 421.1280000000001 251.902 400.516 272.515C379.904 293.126 346.3640000000001 293.128 325.749 272.515L218.617 165.383C198.005 144.77 198.005 111.231 218.617 90.617C220.929 88.305 223.452 86.205 226.116 84.374L207.988 58.003zM208.877 -39.143L316.01 67.99C349.1 101.079 349.1 154.92 316.011 188.009C312.695 191.326 309.09 194.383 305.297 197.094L286.688 171.062C289.053 169.371 291.305 167.46 293.383 165.383C313.995 144.769 313.995 111.23 293.383 90.617L186.25 -16.516C165.638 -37.13 132.098 -37.129 111.484 -16.516C90.871 4.097 90.871 37.637 111.484 58.251L150.442 97.208L127.815 119.835L88.857 80.878C72.828 64.849 64 43.536 64 20.867C64 -1.801 72.828 -23.1130000000001 88.857 -39.143C104.887 -55.172 126.199 -64 148.868 -64C171.536 -64 192.848 -55.172 208.877 -39.143zM160 320H0V288H160V320z" />
    <glyph glyph-name="st-format-font-color-1"
      unicode="&#xEA12;"
      horiz-adv-x="448" d=" M349.606 64H312.985L283.062 144.736H163.363L135.21 64H98.394L206.675 352H240.931L349.606 64zM272.234 175.062L224 317.053L174.387 175.063H272.234z" />
    <glyph glyph-name="st-format-font-color-2"
      unicode="&#xEA13;"
      horiz-adv-x="448" d=" M416 -64H32V0H416V-64z" />
    <glyph glyph-name="st-format-link-add-heavy-1"
      unicode="&#xEA14;"
      horiz-adv-x="448" d=" M423.145 175.123L384.184 136.165L361.557 158.794L400.517 197.751C421.128 218.363 421.128 251.903 400.516 272.517C379.905 293.129 346.364 293.129 325.748 272.517L218.6159999999999 165.383C198.005 144.771 198.005 111.231 218.6159999999999 90.617C220.9309999999999 88.304 223.4549999999999 86.2019999999999 226.1139999999999 84.3749999999999L207.9909999999999 58.002C203.7249999999999 60.9329999999999 199.6879999999999 64.292 195.9909999999999 67.9859999999999C162.8999999999999 101.0799999999999 162.8999999999999 154.9199999999999 195.987 188.0089999999999L303.1209999999999 295.1429999999999C336.2109999999999 328.231 390.0539999999999 328.2319999999999 423.1429999999999 295.1429999999999C456.2309999999999 262.053 456.2309999999999 208.2119999999999 423.1449999999999 175.1229999999999zM305.302 197.092L286.685 171.066C289.057 169.369 291.31 167.458 293.3829999999999 165.384C313.9939999999999 144.771 313.995 111.231 293.3839999999999 90.617L186.2509999999999 -16.516C165.6359999999999 -37.128 132.0949999999999 -37.129 111.4829999999999 -16.517C90.8709999999999 4.096 90.8709999999999 37.637 111.4819999999999 58.25L150.4419999999999 97.207L127.8149999999999 119.836L88.8539999999999 80.878C55.7679999999999 47.788 55.7679999999999 -6.054 88.8549999999999 -39.1439999999999C105.3999999999999 -55.687 127.1319999999999 -63.9589999999999 148.8649999999999 -63.9589999999999C170.5979999999999 -63.958 192.3309999999999 -55.687 208.8769999999999 -39.143L316.012 67.99C349.099 101.08 349.099 154.92 316.012 188.009C312.701 191.321 309.098 194.376 305.302 197.092z" />
    <glyph glyph-name="st-format-link-add-heavy-2"
      unicode="&#xEA15;"
      horiz-adv-x="448" d=" M128 192V256H192V320H128V384H64V320H0V256H64V192H128z" />
    <glyph glyph-name="st-link-add-1"
      unicode="&#xEA16;"
      horiz-adv-x="448" d=" M207.992 58.002C203.726 60.933 199.689 64.292 195.992 67.986C162.901 101.08 162.901 154.92 195.988 188.009L303.121 295.143C336.211 328.231 390.054 328.232 423.143 295.143C456.231 262.053 456.231 208.212 423.144 175.122L384.183 136.164L361.556 158.793L400.5159999999999 197.75C421.1269999999999 218.362 421.1269999999999 251.902 400.515 272.516C379.904 293.128 346.363 293.128 325.747 272.516L218.616 165.383C198.005 144.771 198.005 111.231 218.616 90.617C220.931 88.304 223.455 86.2019999999999 226.114 84.3749999999999L207.992 58.002zM208.878 -39.144L316.012 67.99C349.099 101.08 349.099 154.92 316.012 188.009C312.701 191.321 309.098 194.376 305.302 197.092L286.685 171.066C289.057 169.369 291.31 167.458 293.383 165.384C313.994 144.771 313.995 111.231 293.384 90.617L186.251 -16.516C165.636 -37.128 132.095 -37.129 111.483 -16.5169999999999C90.871 4.0960000000001 90.871 37.6370000000001 111.482 58.2500000000001L150.442 97.2070000000001L127.815 119.8360000000001L88.854 80.878C55.768 47.788 55.768 -6.054 88.855 -39.1439999999999C105.4 -55.687 127.132 -63.9589999999999 148.865 -63.9589999999999C170.6 -63.9589999999999 192.333 -55.6879999999999 208.878 -39.1439999999999z" />
    <glyph glyph-name="st-link-add-2"
      unicode="&#xEA17;"
      horiz-adv-x="448" d=" M160 288H96V224H64V288H0V320H64V384H96V320H160V288z" />
    <glyph glyph-name="st-link-remove-1"
      unicode="&#xEA18;"
      horiz-adv-x="448" d=" M207.992 58.002C203.726 60.933 199.689 64.292 195.992 67.986C162.901 101.08 162.901 154.92 195.988 188.009L303.121 295.143C336.211 328.231 390.054 328.232 423.143 295.143C456.231 262.053 456.231 208.212 423.144 175.122L384.183 136.164L361.556 158.793L400.5159999999999 197.75C421.1269999999999 218.362 421.1269999999999 251.902 400.515 272.516C379.904 293.128 346.363 293.128 325.747 272.516L218.616 165.383C198.005 144.771 198.005 111.231 218.616 90.617C220.931 88.304 223.455 86.2019999999999 226.114 84.3749999999999L207.992 58.002zM208.878 -39.144L316.012 67.99C349.099 101.08 349.099 154.92 316.012 188.009C312.701 191.321 309.098 194.376 305.302 197.092L286.685 171.066C289.057 169.369 291.31 167.458 293.383 165.384C313.994 144.771 313.995 111.231 293.384 90.617L186.251 -16.516C165.636 -37.128 132.095 -37.129 111.483 -16.5169999999999C90.871 4.0960000000001 90.871 37.6370000000001 111.482 58.2500000000001L150.442 97.2070000000001L127.815 119.8360000000001L88.854 80.878C55.768 47.788 55.768 -6.054 88.855 -39.1439999999999C105.4 -55.687 127.132 -63.9589999999999 148.865 -63.9589999999999C170.6 -63.9589999999999 192.333 -55.6879999999999 208.878 -39.1439999999999z" />
    <glyph glyph-name="st-link-remove-2"
      unicode="&#xEA19;"
      horiz-adv-x="448" d=" M160 288H0V320H160V288z" />
    <glyph glyph-name="st-link-remove-heavy-1"
      unicode="&#xEA1A;"
      horiz-adv-x="448" d=" M207.992 58.002C203.726 60.933 199.689 64.292 195.992 67.986C162.901 101.08 162.901 154.92 195.988 188.01L303.121 295.143C336.211 328.231 390.054 328.232 423.143 295.143C456.231 262.053 456.231 208.212 423.144 175.122L384.183 136.164L361.556 158.793L400.5159999999999 197.75C421.1269999999999 218.362 421.1269999999999 251.902 400.515 272.516C379.904 293.128 346.363 293.128 325.747 272.516L218.616 165.383C198.004 144.771 198.004 111.231 218.616 90.617C220.931 88.304 223.455 86.2019999999999 226.114 84.3749999999999L207.992 58.002zM208.878 -39.144L316.012 67.99C349.099 101.08 349.099 154.92 316.012 188.009C312.701 191.321 309.098 194.376 305.302 197.092L286.685 171.066C289.057 169.369 291.31 167.458 293.383 165.384C313.994 144.771 313.995 111.231 293.384 90.617L186.251 -16.516C165.636 -37.128 132.095 -37.129 111.483 -16.5169999999999C90.871 4.0960000000001 90.871 37.6370000000001 111.482 58.2500000000001L150.442 97.2070000000001L127.815 119.8360000000001L88.854 80.878C55.768 47.788 55.768 -6.054 88.855 -39.1439999999999C105.4 -55.687 127.132 -63.9589999999999 148.865 -63.9589999999999C170.6 -63.9589999999999 192.333 -55.6879999999999 208.878 -39.1439999999999z" />
    <glyph glyph-name="st-link-remove-heavy-2"
      unicode="&#xEA1B;"
      horiz-adv-x="448" d=" M192 320H0V256H192V320z" />
  </font>
</defs>
</svg>
