<svg xmlns="http://www.w3.org/2000/svg" viewBox="0 0 448 448" enable-background="new 0 0 448 448"><path d="M423.145 208.877l-38.961 38.958-22.627-22.629 38.96-38.957c20.611-20.612 20.611-54.152-.001-74.766-20.611-20.612-54.152-20.612-74.768 0l-107.132 107.134c-20.611 20.612-20.611 54.152 0 74.766 2.315 2.313 4.839 4.415 7.498 6.242l-18.123 26.373c-4.266-2.931-8.303-6.29-12-9.984-33.091-33.094-33.091-86.934-.004-120.023l107.134-107.134c33.09-33.088 86.933-33.089 120.022 0 33.088 33.09 33.088 86.931.002 120.02zm-117.843-21.969l-18.617 26.026c2.372 1.697 4.625 3.608 6.698 5.682 20.611 20.613 20.612 54.153.001 74.767l-107.133 107.133c-20.615 20.612-54.156 20.613-74.768.001-20.612-20.613-20.612-54.154-.001-74.767l38.96-38.957-22.627-22.629-38.961 38.958c-33.086 33.09-33.086 86.932.001 120.022 16.545 16.543 38.277 24.815 60.01 24.815 21.733-.001 43.466-8.272 60.012-24.816l107.135-107.133c33.087-33.09 33.087-86.93 0-120.019-3.311-3.312-6.914-6.367-10.71-9.083zm-177.302 5.092v-64h64v-64h-64v-64h-64v64h-64v64h64v64h64z"/></svg>