<svg xmlns="http://www.w3.org/2000/svg" viewBox="0 0 448 448" enable-background="new 0 0 448 448"><path d="M207.988 325.997c-4.27-2.936-8.307-6.296-11.998-9.986-33.09-33.09-33.09-86.931-.001-120.021l107.133-107.133c16.029-16.029 37.342-24.857 60.011-24.857 22.668 0 43.98 8.828 60.01 24.857 16.029 16.03 24.857 37.342 24.857 60.011 0 22.668-8.828 43.98-24.857 60.01l-38.957 38.958-22.627-22.627 38.957-38.958c20.612-20.613 20.612-54.153 0-74.766-20.612-20.611-54.152-20.613-74.767 0l-107.132 107.132c-20.612 20.613-20.612 54.152 0 74.766 2.312 2.312 4.835 4.412 7.499 6.243l-18.128 26.371zm.889 97.146l107.133-107.133c33.09-33.089 33.09-86.93.001-120.019-3.316-3.317-6.921-6.374-10.714-9.085l-18.609 26.032c2.365 1.691 4.617 3.602 6.695 5.679 20.612 20.614 20.612 54.153 0 74.766l-107.133 107.133c-20.612 20.614-54.152 20.613-74.766 0-20.613-20.613-20.613-54.153 0-74.767l38.958-38.957-22.627-22.627-38.958 38.957c-16.029 16.029-24.857 37.342-24.857 60.011 0 22.668 8.828 43.98 24.857 60.01 16.03 16.029 37.342 24.857 60.011 24.857 22.668 0 43.98-8.828 60.009-24.857zm-48.877-359.143h-160v32h160v-32z"/></svg>