<?xml version="1.0" encoding="utf-8"?>
<!-- Generator: Adobe Illustrator 19.2.0, SVG Export Plug-In . SVG Version: 6.00 Build 0)  -->
<svg version="1.1" xmlns="http://www.w3.org/2000/svg" xmlns:xlink="http://www.w3.org/1999/xlink" x="0px" y="0px"
	 viewBox="0 0 448 448" style="enable-background:new 0 0 448 448;" xml:space="preserve">
<path d="M296.473,59.541c-7.531-16.652-14.639-31.158-28.168-43.105c40.973,1.857,69.861,29.471,79.711,66.939L316.553,89.1
	C313.063,77.174,306.838,66.773,296.473,59.541z M128,112c0-35.281,28.721-64,64-64c31.283,0,57.299,22.611,62.818,52.322
	l31.424-5.715C278.016,49.971,238.982,16,192,16c-52.938,0-96,43.063-96,96v17.199l32-5.816V112z M384,96L32,160v116.125l112-112
	l168.563,168.563L256,389.25v35.477L384,448l64-32V128L384,96z M144,209.375L20.688,332.688l22.625,22.625L64,334.625V448h64v-64h32
	v64h64V334.625l20.688,20.688l22.625-22.625L144,209.375z"/>
<g>
</g>
<g>
</g>
<g>
</g>
<g>
</g>
<g>
</g>
<g>
</g>
</svg>
