<svg xmlns="http://www.w3.org/2000/svg" viewBox="0 0 448 448" enable-background="new 0 0 448 448"><path d="M416 128v320h-416v-320h96v52.904c-9.393 5.574-16 15.379-16 27.096 0 17.672 14.326 32 32 32s32-14.328 32-32c0-11.717-6.607-21.521-16-27.096v-52.904h160v52.904c-9.393 5.574-16 15.379-16 27.096 0 17.672 14.326 32 32 32s32-14.328 32-32c0-11.717-6.607-21.521-16-27.096v-52.904h96zm-208-80c44.125 0 80 35.875 80 80h32c0-61.75-50.25-112-112-112s-112 50.25-112 112h32c0-44.125 35.875-80 80-80z"/></svg>