<svg xmlns="http://www.w3.org/2000/svg" viewBox="0 0 448 448" enable-background="new 0 0 448 448"><path d="M264.473 59.541c-7.531-16.652-14.639-31.158-28.168-43.105 40.973 1.857 69.861 29.471 79.711 66.939l-31.463 5.725c-3.49-11.926-9.715-22.327-20.08-29.559zm-168.473 52.459c0-35.281 28.721-64 64-64 31.283 0 57.299 22.611 62.818 52.322l31.424-5.715c-8.226-44.636-47.26-78.607-94.242-78.607-52.938 0-96 43.063-96 96v17.199l32-5.816v-11.383zm320 16v288l-64 32-352-64v-224l352-64 64 32zm-32 19.781l-36.781-18.375-315.219 57.313v170.563l315.219 57.313 36.781-18.376v-248.438z"/></svg>