<?xml version="1.0" encoding="utf-8"?>
<!-- Generator: Adobe Illustrator 19.2.0, SVG Export Plug-In . SVG Version: 6.00 Build 0)  -->
<svg version="1.1" xmlns="http://www.w3.org/2000/svg" xmlns:xlink="http://www.w3.org/1999/xlink" x="0px" y="0px"
	 viewBox="0 0 448 448" style="enable-background:new 0 0 448 448;" xml:space="preserve">
<path d="M128,123.383l-32,5.816V112c0-52.938,43.063-96,96-96c46.982,0,86.016,33.971,94.242,78.607l-31.424,5.715
	C249.299,70.611,223.283,48,192,48c-35.279,0-64,28.719-64,64V123.383z M316.553,89.1l31.463-5.725
	c-9.85-37.469-38.738-65.082-79.711-66.939c13.529,11.947,20.637,26.453,28.168,43.105C306.838,66.773,313.063,77.174,316.553,89.1z
	 M384,96L32,160v116.125l112-112l168.563,168.563L256,389.25v35.477L384,448l64-32V128L384,96z M244.688,355.313L224,334.625V448H64
	V334.625l-20.688,20.688l-22.625-22.625L144,209.375l123.313,123.313L244.688,355.313z M192,302.625l-48-48l-48,48V416h32v-32h32v32
	h32V302.625z"/>
<g>
</g>
<g>
</g>
<g>
</g>
<g>
</g>
<g>
</g>
<g>
</g>
</svg>
