<svg xmlns="http://www.w3.org/2000/svg" viewBox="0 0 448 448" enable-background="new 0 0 448 448"><path d="M320 128v-20.578c0-52.938-43.063-96-96-96s-96 43.063-96 96v20.578h-96v320h384v-320h-96zm-160-20.578c0-35.297 28.703-64 64-64 35.281 0 64 28.703 64 64v20.578h-128v-20.578zm224 308.578h-320v-256h64v36.904c-9.393 5.574-16 15.379-16 27.096 0 17.672 14.326 32 32 32s32-14.328 32-32c0-11.717-6.607-21.521-16-27.096v-36.904h128v36.904c-9.393 5.574-16 15.379-16 27.096 0 17.672 14.326 32 32 32s32-14.328 32-32c0-11.717-6.607-21.521-16-27.096v-36.904h64v256z"/></svg>