<svg xmlns="http://www.w3.org/2000/svg" viewBox="0 0 448 448" enable-background="new 0 0 448 448"><path d="M207.992 325.998c-4.266-2.931-8.303-6.29-12-9.984-33.091-33.094-33.091-86.934-.004-120.023l107.133-107.134c33.09-33.088 86.933-33.089 120.022 0 33.088 33.09 33.088 86.931.001 120.021l-38.961 38.958-22.627-22.629 38.96-38.957c20.611-20.612 20.611-54.152-.001-74.766-20.611-20.612-54.152-20.612-74.768 0l-107.131 107.133c-20.611 20.612-20.611 54.152 0 74.766 2.315 2.313 4.839 4.415 7.498 6.242l-18.122 26.373zm.886 97.146l107.134-107.134c33.087-33.09 33.087-86.93 0-120.019-3.311-3.312-6.914-6.367-10.71-9.083l-18.617 26.026c2.372 1.697 4.625 3.608 6.698 5.682 20.611 20.613 20.612 54.153.001 74.767l-107.133 107.133c-20.615 20.612-54.156 20.613-74.768.001-20.612-20.613-20.612-54.154-.001-74.767l38.96-38.957-22.627-22.629-38.961 38.958c-33.086 33.09-33.086 86.932.001 120.022 16.545 16.543 38.277 24.815 60.01 24.815 21.735 0 43.468-8.271 60.013-24.815z"/></svg>