<svg xmlns="http://www.w3.org/2000/svg" viewBox="0 0 448 448"><path d="M280.318 367.716c-6.278 4.759-14.056 10.491-23.332 17.175-9.296 6.704-18.046 11.99-26.248 15.878a166.064 166.064 0 0 1-35.646 11.504C182.779 414.744 169.27 416 154.586 416c-34.572 0-63.514-10.694-86.846-32.081s-34.997-48.709-34.997-81.985c0-26.572 5.934-48.284 17.823-65.134 11.868-16.851 28.719-30.137 50.552-39.858 21.59-9.722 48.385-16.628 80.365-20.739 31.959-4.091 65.134-7.129 99.484-9.073v-1.944c0-20.091-8.223-33.965-24.628-41.641-16.425-7.656-40.628-11.504-72.587-11.504-19.241 0-39.757 3.403-61.57 10.208-21.833 6.805-37.489 12.051-46.987 15.716H64.5V50.147c12.314-3.241 32.344-7.068 60.111-11.504C152.358 34.228 180.186 32 208.055 32c66.309 0 114.228 10.208 143.716 30.623s44.233 52.456 44.233 96.081v247.575H280.318v-38.563zm0-56.627v-75.585c-15.777 1.296-32.851 3.078-51.2 5.327-18.37 2.268-32.304 4.901-41.803 7.919-11.666 3.666-20.577 8.992-26.734 16-6.157 6.987-9.235 16.203-9.235 27.605 0 7.534.648 13.671 1.944 18.41s4.537 9.276 9.722 13.57c4.962 4.314 10.896 7.494 17.823 9.519 6.906 2.066 17.701 3.078 32.405 3.078 11.666 0 23.494-2.37 35.484-7.109s22.521-10.977 31.594-18.734z"/></svg>