<svg xmlns="http://www.w3.org/2000/svg" viewBox="0 0 448 448"><path d="M447.271 67.803l-66.279 345.6a3.202 3.202 0 0 1-3.145 2.598h-61.109a3.2 3.2 0 0 1-3.16-3.705l36.23-226.809-127.96 228.874a3.201 3.201 0 0 1-2.793 1.639H174.48a3.2 3.2 0 0 1-3.143-2.598l-42.461-221.686-48.544 221.768A3.201 3.201 0 0 1 77.205 416H4.006a3.2 3.2 0 0 1-3.121-3.908l78.332-345.6A3.199 3.199 0 0 1 82.336 64h99.039a3.199 3.199 0 0 1 3.16 2.701l36.396 230.926 121.84-231.916A3.2 3.2 0 0 1 345.605 64h98.523c2.009 0 3.52 1.83 3.143 3.803z"/></svg>