<svg xmlns="http://www.w3.org/2000/svg" viewBox="0 0 448 448"><path d="M200.256 168.925l-23.046-22.201 30.368-31.523 23.046 22.201-30.368 31.523zM380.119 338.75l22.627-22.627-33.941-33.941-22.627 22.627 33.941 33.941zM180.011 189.941l-23.045-22.201-30.368 31.523 23.046 22.201 30.367-31.523zM448 0v448H0V0h448zm-32 32H32v113.389l89.017 89.017 8.381 8.074-.151.157 94.742 94.742L288 273.367V224h64v64h-33.379l-94.631 94.632-116.947-116.946-8.012 8.317-23.046-22.201 8.427-8.747L32 190.643v106.819l23.74-24.644 23.046 22.201-30.368 31.523L32 310.725V416h384v-41.375l-13.248-13.248L416 348.129V198.081l-35.188 32.026L278.701 128H224V64h64v28.045l93.851 93.847L416 154.811V32z"/></svg>