<svg xmlns="http://www.w3.org/2000/svg" viewBox="0 0 448 448"><path d="M416 32v32h-32V32h32zm-128 0v32h32V32h-32zm-64 0h-32v32h32V32zm-64 0h-32v32h32V32zm128 96V96h-32v32h32zm64 0V96h-32v32h32zM160 96h-32v32h32V96zm128 160v-32h-32v32h32zm64-96h-32v32h32v-32zm-160-32h32V96h-32v32zm96 64v-32h-32v32h32zm-96 0h32v-32h-32v32zm160 128v-32h-32v32h32zm-32-64h32v-32h-32v32zm96 128v-32h-32v32h32zm0-64v-32h-32v32h32zm0-64v-32h-32v32h32zM64 32v32h32V32H64zm320 128h32v-32h-32v32zM32 416V32H0v416h416v-32H32zM64 96V64H32v32h32zm32 32V96H64v32h32zm32 32v-32H96v32h32zm32 32v-32h-32v32h32zm32 32v-32h-32v32h32zm32 32v-32h-32v32h32zm32 32v-32h-32v32h32zm32 32v-32h-32v32h32zm32 32v-32h-32v32h32zm32 32v-32h-32v32h32zm32 32v-32h-32v32h32z"/></svg>