<svg xmlns="http://www.w3.org/2000/svg" viewBox="0 0 448 448"><path d="M421 345.9l-23.4-37.1-27.1 17.2 16.4 26H234.3l29.3-29.3-22.6-22.6-67.9 67.9 67.9 67.9 22.6-22.6-29.3-29.3H400c10.2 0 18.5-4.5 22.8-12.3 4.3-7.7 3.6-17.1-1.8-25.8zM224 94l88.7 140.5-43.8-6.6-4.8 31.6 94.9 14.3 14.3-94.9-31.6-4.8-5.6 37.4-85-134.6C245.2 67.5 235 62 224 62s-21.2 5.6-27.1 14.9L170 119.5l27.1 17.1L224 94zm-76.4 181.2l30.3-10.3-21.6-63.7.4-.7-.9-.5-8.8-26-90.9 30.8 10.3 30.3 38.9-13.2-78.3 124c-5.4 8.6-6.1 18-1.8 25.8C29.5 379.5 37.8 384 48 384h80v-32H61l73.2-116 13.4 39.2z"/></svg>