<svg xmlns="http://www.w3.org/2000/svg" viewBox="0 0 448 448"><path d="M368 320h-80v-32h22.406C333.719 288 352 263.406 352 232v-8h32v-64h-32v-8c0-31.406-18.281-56-41.594-56H224V59.096c9.393-5.574 16-15.381 16-27.096 0-17.674-14.326-32-32-32s-32 14.326-32 32c0 11.715 6.607 21.521 16 27.096V96h-86.406C82.266 96 64 120.594 64 152v8H32v64h32v8c0 31.406 18.266 56 41.594 56H128v32H48c-26.469 0-48 18.344-48 40.875V448h32v-87.125c0-3.531 6.375-8.875 16-8.875h320c9.625 0 16 5.344 16 8.875V448h32v-87.125C416 338.344 394.469 320 368 320zm-262.406-64c-2.391 0-9.594-8.516-9.594-24v-80c0-15.484 7.203-24 9.594-24h204.813c2.375 0 9.594 8.516 9.594 24v80c0 15.484-7.219 24-9.594 24H105.594zM160 320v-32h96v32h-96zm0-128h-32v-32h32v32zm128 0h-32v-32h32v32z"/></svg>