<svg xmlns="http://www.w3.org/2000/svg" viewBox="0 0 448 448"><path d="M333.238 230.602c10.606 38.507 25.002 75.262 31.384 83.719 3.755 5.018 7.539 7.491 11.419 7.491 3.223 0 6.072-.803 8.417-2.473 3.598-2.703 9.199-9.456 16.677-20.228l6.729 4.051c-10.952 18.201-21.746 31.03-32.198 38.492-8.01 5.789-15.863 8.65-23.624 8.65-7.978 0-14.611-1.834-19.933-5.499-5.287-3.665-10.042-9.582-14.143-17.88-4.13-8.295-14.893-34.793-20.493-53.009-14.613 19.117-37.423 46.321-45.715 55.133-8.354 8.746-15.238 14.534-20.714 17.235-5.476 2.7-11.39 4.021-17.554 4.021-6.54 0-11.703-1.897-15.457-5.789-3.848-3.826-5.726-8.845-5.726-15.019 0-6.526 2.034-11.897 6.164-16.141 4.099-4.244 9.356-6.367 15.707-6.367 3.379 0 7.197 1.029 11.483 3.087 6.195 3.087 10.701 4.631 13.392 4.631 3.661 0 6.915-.772 9.763-2.315 3.755-1.93 8.511-6.11 14.237-12.509 3.505-3.987 21.308-25.725 30.664-38.7-11.984-45.662-21.34-72.995-28.099-81.967-4.255-5.772-9.606-8.65-16.114-8.65-3.348 0-20.401 14.503-25.282 15.515v-32.848h79.569c11.862 19.133 20.215 40.147 25.094 63.123 12.268-18.602 21.528-31.626 27.757-39.07 8.385-10.001 15.268-16.496 20.65-19.535 5.444-3.007 11.234-4.518 17.334-4.518 6.886 0 12.172 1.929 15.863 5.772 3.662 3.875 5.508 9.068 5.508 15.58 0 6.19-1.846 11.223-5.508 15.129-3.691 3.891-8.321 5.868-13.829 5.868-3.944 0-8.542-.756-13.736-2.235-5.165-1.463-8.763-2.186-10.766-2.186-5.226 0-10.263 1.929-14.986 5.756-6.507 5.259-14.485 16.482-23.934 33.685zm-165.68-72.673c7.729-32.446 17.961-56.209 30.696-71.21 7.729-9.358 15.301-14.036 22.685-14.036 1.502 0 2.722.434 3.661 1.351.938.884 1.376 2.042 1.376 3.457 0 1.286-1.032 3.714-3.098 7.331-2.034 3.569-3.066 6.978-3.066 10.177 0 4.502 1.596 8.345 4.881 11.528 3.254 3.232 7.353 4.808 12.328 4.808 5.382 0 9.888-1.945 13.455-5.853 3.63-3.907 5.476-9.213 5.476-15.885 0-7.557-2.691-13.715-8.167-18.458C242.372 66.396 233.642 64 221.689 64c-18.743 0-35.733 5.659-50.909 16.946-15.301 11.303-29.757 29.938-43.462 56.016-4.787 8.988-9.293 14.744-13.517 17.3-4.224 2.557-11.014 3.779-20.401 3.666l-6.164 22.493h26.033L75.033 334.193c-6.352 25.276-10.639 40.87-12.892 46.755-3.254 8.621-8.198 15.95-14.831 21.933-2.597 2.443-5.726 3.665-9.512 3.665-1.001 0-1.846-.323-2.66-.965l-.907-1.317c0-.678.907-1.963 2.785-3.958 1.878-1.992 2.816-5.015 2.816-9.131 0-4.501-1.47-8.232-4.474-11.189-3.004-2.96-7.291-4.376-12.892-4.376-6.79 0-12.172 1.867-16.302 5.726C2.003 385.196 0 389.76 0 395.035c0 5.627 2.472 10.547 7.478 14.696 4.975 4.179 12.766 6.27 23.405 6.27 16.865 0 31.79-4.534 44.838-13.57 13.079-9.068 24.406-23.023 34.169-41.868 9.7-18.845 19.744-49.263 29.976-91.211l21.903-88.929h26.44l6.54-22.493h-27.191z"/></svg>