<svg xmlns="http://www.w3.org/2000/svg" viewBox="0 0 448 448"><path d="M296.473 59.541c-7.531-16.652-14.639-31.158-28.168-43.105 40.973 1.857 69.861 29.471 79.711 66.939L316.553 89.1c-3.49-11.926-9.715-22.327-20.08-29.559zM384 96L32 160h160v253.092L384 448l64-32V128l-64-32zm-256 16c0-35.281 28.721-64 64-64 31.283 0 57.299 22.611 62.818 52.322l31.424-5.715C278.016 49.971 238.982 16 192 16c-52.938 0-96 43.063-96 96v17.199l32-5.816V112zm32 80v256H0V192h160zm-32 192H96v32h32v-32zm0-96H32v32h96v-32zm0-64H32v32h96v-32z"/></svg>