<svg xmlns="http://www.w3.org/2000/svg" viewBox="0 0 448 448"><path d="M329.907 179.405L162.189 347.126c-11.658 12.109-11.658 31.811.218 44.125L219.155 448h78.346L448 297.485l-118.093-118.08zm72.842 118.08l-28.63 28.634-72.835-72.835 28.624-28.627 72.841 72.828zM284.249 416h-51.936l-47.283-46.454 93.629-93.638 72.838 72.838L284.249 416zM178.74 285.322H81.004L45.918 384H0L135.008 32h42.711l70.693 183.65-31.889 31.889L158.4 74.711c-1.637 9.982-63.65 173.545-63.65 173.545h121.057l-37.067 37.066z"/></svg>