<svg xmlns="http://www.w3.org/2000/svg" viewBox="0 0 448 448"><path d="M96 416V32h121.841c37.139 0 66.534 8.116 88.245 24.368 21.67 16.252 32.525 37.407 32.525 63.464 0 21.773-6.159 40.703-18.477 56.77s-29.374 27.499-51.146 34.276v1.071c26.428 3.028 47.521 12.812 63.341 29.332 15.779 16.499 23.688 37.963 23.688 64.391 0 32.855-12.936 59.448-38.828 79.799C291.296 405.824 258.626 416 219.18 416H96zm63.464-332.854v109.255h41.238c22.144 0 39.508-5.211 52.073-15.676 12.606-10.423 18.889-25.213 18.889-44.308 0-32.855-21.958-49.272-65.874-49.272h-46.326zm0 160.402v121.573h54.36c23.75 0 42.083-5.479 55.019-16.479 12.957-10.958 19.425-26.098 19.425-45.379 0-39.817-27.582-59.715-82.745-59.715h-46.059z"/></svg>