<svg xmlns="http://www.w3.org/2000/svg" viewBox="0 0 448 448"><path d="M192 208c-44.11 0-80 35.89-80 80 0 16.28 4.943 31.402 13.326 44.05l-91.14 91.138 22.626 22.625 91.14-91.14C160.6 363.058 175.72 368 192 368c44.11 0 80-35.875 80-80 0-44.11-35.89-80-80-80zm0 128c-7.605 0-14.705-1.94-21.102-5.102a48.032 48.032 0 0 1-21.797-21.797c-3.16-6.392-5.1-13.492-5.1-21.1 0-26.47 21.53-48 48-48s48 21.53 48 48-21.53 48-48 48zM294.625 0H64v224h32V32h160v128h128v256H160v32h256V121.375L294.625 0zM288 128V38.625L377.375 128H288z"/></svg>