<svg xmlns="http://www.w3.org/2000/svg" viewBox="0 0 448 448"><path d="M208 32C93.313 32 0 125.313 0 240s93.313 208 208 208 208-93.313 208-208S322.688 32 208 32zm22.406 334.406h-44.813v-44.813h44.813v44.813zm35.61-132.047l-28.203 28.219c-4.75 4.938-7.406 11.734-7.406 19.078v12.75h-44.813v-12.75c0-19.031 7.203-36.953 20.25-50.484l28.219-28.219c4.75-4.922 7.406-11.734 7.406-19.078 0-18.453-15.016-33.469-33.469-33.469s-33.469 15.016-33.469 33.469v6.406h-44.813v-6.406c0-43.156 35.125-78.281 78.281-78.281s78.281 35.125 78.281 78.281c.001 19.016-7.202 36.953-20.264 50.484z"/></svg>