<svg xmlns="http://www.w3.org/2000/svg" viewBox="0 0 448 448"><switch><g><path d="M228.875 64l-48.031-32H0v384h160.463c-.104-1.541-.463-3.01-.463-4.578 0-9.865 2.719-18.926 6.51-27.422H32V128h148.844l48-32H416v64.463c11.711.791 22.623 4.367 32 10.322V64H228.875zm-57.719 32H32V64h139.156l24.008 15.994L171.156 96zm240.271 96c-20.106 0-36.39 16.214-36.534 36.285l-41.712 10.429C322.573 211.427 296.176 192 265.142 192 224.749 192 192 224.749 192 265.142c0 31.037 19.43 57.392 46.714 68l-10.429 41.75c-20.067.145-36.285 16.43-36.285 36.535C192 431.642 208.358 448 228.573 448c20.211 0 36.57-16.358 36.57-36.573 0-13.856-7.786-25.786-19.139-31.962l10.496-42.074c2.858.358 5.677.893 8.643.893 16.893 0 32.25-5.965 44.643-15.571l51.965 51.965c-3.216 5.427-5.178 11.68-5.178 18.464 0 20.214 16.358 36.573 36.57 36.573s36.573-16.358 36.573-36.573-16.362-36.57-36.573-36.57c-6.784 0-13.034 1.962-18.464 5.178l-51.965-51.965c9.607-12.394 15.571-27.75 15.571-44.643 0-2.966-.531-5.786-.854-8.643l42.035-10.534c6.176 11.392 18.106 19.178 31.962 19.178 20.214 0 36.573-16.394 36.573-36.57C448 208.358 431.641 192 411.427 192zM265.142 301.715c-20.211 0-36.57-16.358-36.57-36.573s16.358-36.57 36.57-36.57c20.211 0 36.573 16.355 36.573 36.57s-16.361 36.573-36.573 36.573z"/></g></switch></svg>