<svg xmlns="http://www.w3.org/2000/svg" viewBox="0 0 448 448"><path d="M422.844 288v-9.406c0-42.031-31.781-76.234-70.844-76.234s-70.844 34.203-70.844 76.234V288H256v160h192V288h-25.156zm-109.688-9.406c0-24.391 17.438-44.234 38.844-44.234s38.844 19.844 38.844 44.234V288h-77.688v-9.406zM416 416H288v-96h128v96zM267.344 224c14.574-28.074 39.646-48.139 71.057-52.662 3.5-8.457 5.6-17.629 5.6-27.338 0-39.703-32.313-72-72-72-39.703 0-72 32.297-72 72 0 33.625 23.262 61.711 54.473 69.592-.598 3.33-1.83 6.893-2.941 10.408h15.811zM232 144c0-22.063 17.938-40 40-40s40 17.938 40 40-17.938 40-40 40-40-17.937-40-40zM128 256c-11.709 0-22.549 3.391-32 8.902V150.066c32-7.316 56-35.881 56-70.066 0-39.703-32.297-72-72-72S8 40.297 8 80c0 34.186 24 62.75 56 70.066v155.869C32 313.254 8 341.828 8 376c0 39.688 32.297 72 72 72s72-32.313 72-72c0-33.076-22.561-60.742-53.018-69.137C104.023 295.793 115.068 288 128 288h80a95.25 95.25 0 0 0 16-1.359v-33.235c-4.838 1.455-9.924 2.594-16 2.594h-80zM40 80c0-22.063 17.938-40 40-40s40 17.938 40 40-17.938 40-40 40-40-17.937-40-40zm80 296c0 22.063-17.938 40-40 40s-40-17.938-40-40 17.938-40 40-40 40 17.938 40 40z"/></svg>