<svg xmlns="http://www.w3.org/2000/svg" viewBox="0 0 448 448"><switch><g><path d="M228.873 64l-48.027-32H0v384h202.516l-32-32H32V128h148.846l48-32H416v106.553l32 31.998V64H228.873zm-57.719 32H32V64h139.154l24.01 15.992L171.154 96zm270.805 177.756c8.055 8.055 8.055 21.107 0 29.162L302.898 441.992c-8.063 8.01-21.105 8.01-29.135 0L134.041 302.281c-8.055-8.055-8.055-21.121 0-29.174l95.787-95.799 36.283 36.287c-3.715 8.916-1.971 19.564 5.277 26.805 2.371 2.393 1.689 1.295 4.621 2.492v88.582c-2.652 1.076-4.039 2.887-6.029 4.943-5.268 4.676-8.646 11.434-8.646 19.041 0 14.137 11.463 25.594 25.59 25.594 1.824 0 3.613-.201 5.336-.561 5.045-.738 9.91-2.973 13.791-6.844 8.535-8.525 9.404-21.771 2.717-31.346a25.41 25.41 0 0 0-9.18-8.949v-86.064l33.072 33.066c-3.668 8.883-1.879 19.475 5.324 26.678 9.574 9.588 25.1 9.588 34.719 0 9.576-9.574 9.576-25.102 0-34.676-6.893-6.869-16.777-8.771-25.365-5.816l-35.482-35.469c2.998-8.58 1.076-18.48-5.805-25.352-6.799-6.809-16.607-8.746-25.154-5.859l-36.82-36.803 29.016-29.018c8.051-8.051 21.115-8.051 29.135 0l139.731 139.717z"/></g></switch></svg>