<svg xmlns="http://www.w3.org/2000/svg" viewBox="0 0 448 448"><path d="M376 144c0-39.703-32.313-72-72-72s-72 32.297-72 72c0 33.623 23.271 61.709 54.475 69.59-1.781 9.939-5.475 21.486-13.35 29.941C265.313 251.922 254.469 256 240 256h-80c-11.709 0-22.549 3.391-32 8.902V150.066c32-7.316 56-35.881 56-70.066 0-39.703-32.297-72-72-72S40 40.297 40 80c0 34.186 24 62.75 56 70.066v155.869C64 313.254 40 341.828 40 376c0 39.688 32.297 72 72 72s72-32.313 72-72c0-33.076-22.561-60.742-53.018-69.137C136.023 295.793 147.068 288 160 288h80c23.5 0 42.531-7.625 56.531-22.656 14.361-15.426 19.947-35.402 22.146-50.867C351.352 207.676 376 178.67 376 144zM72 80c0-22.063 17.938-40 40-40s40 17.938 40 40-17.938 40-40 40-40-17.937-40-40zm80 296c0 22.063-17.938 40-40 40s-40-17.938-40-40 17.938-40 40-40 40 17.938 40 40zm152-192c-22.063 0-40-17.938-40-40s17.938-40 40-40 40 17.938 40 40-17.937 40-40 40z"/></svg>