<svg xmlns="http://www.w3.org/2000/svg" viewBox="0 0 448 448"><path d="M429.714 393.148c0 20.214-16.36 36.57-36.57 36.57s-36.572-16.356-36.572-36.57c0-6.786 1.964-13.036 5.18-18.464l-51.965-51.968c-12.395 9.607-27.75 15.57-44.643 15.57-2.967 0-5.786-.535-8.643-.892l-10.494 42.07c11.355 6.18 19.14 18.11 19.14 31.966 0 20.214-16.358 36.57-36.57 36.57S192 431.649 192 411.435c0-20.106 16.217-36.392 36.286-36.535l10.426-41.75C211.432 322.54 192 296.185 192 265.148c0-40.393 32.75-73.143 73.143-73.143 31.033 0 57.43 19.426 68.038 46.712l41.716-10.426c.139-20.072 16.423-36.286 36.533-36.286 20.21 0 36.57 16.357 36.57 36.57 0 20.18-16.36 36.572-36.57 36.572-13.858 0-25.787-7.786-31.965-19.18l-42.035 10.538c.322 2.857.856 5.676.856 8.643 0 16.893-5.964 32.25-15.57 44.643l51.963 51.964c5.43-3.214 11.68-5.18 18.46-5.18 20.212 0 36.57 16.36 36.57 36.573h.005zm-128-128c0-20.214-16.36-36.57-36.57-36.57s-36.572 16.356-36.572 36.57 16.36 36.57 36.57 36.57 36.572-16.356 36.572-36.57zM195.762 352H32V128h116.844l48-32H416v64.461c11.711.787 22.625 4.361 32 10.316V96c0-17.641-14.344-32-32-32H196.844l-48-32H32C14.344 32 0 46.359 0 64v320h166.516c6.091-13.645 16.255-24.783 29.246-32zM32 64h107.156l24 16-24 16H32V64z"/></svg>