<svg xmlns="http://www.w3.org/2000/svg" viewBox="0 0 448 448"><path d="M64.938 320h32c0-34.781 28.297-63.063 63.063-63.063s63.063 28.281 63.063 63.063h32c0-34.852-19.066-65.064-47.119-81.613 14.924-13.285 24.525-32.418 24.525-53.918C232.469 144.516 199.953 112 160 112s-72.469 32.516-72.469 72.469c0 21.5 9.602 40.633 24.525 53.918C84.004 254.936 64.938 285.148 64.938 320zm54.593-135.531C119.531 162.156 137.688 144 160 144s40.469 18.156 40.469 40.469-18.156 40.469-40.469 40.469-40.469-18.157-40.469-40.469zM0 32v384h448V32H0zm416 352H32V64h384v320zm-32-224h-96v-32h96v32zm0 64h-96v-32h96v32zm0 64h-96v-32h96v32z"/></svg>