<svg xmlns="http://www.w3.org/2000/svg" viewBox="0 0 448 448"><path d="M128 288h80c23.5 0 42.531-7.625 56.531-22.656 14.361-15.426 19.947-35.402 22.146-50.867C319.352 207.676 344 178.67 344 144c0-39.703-32.313-72-72-72-39.703 0-72 32.297-72 72 0 33.625 23.262 61.711 54.473 69.592-1.781 9.938-5.473 21.484-13.348 29.939C233.297 251.922 222.469 256 208 256h-80c-11.709 0-22.549 3.391-32 8.902V150.066c32-7.316 56-35.881 56-70.066 0-39.703-32.297-72-72-72S8 40.297 8 80c0 34.186 24 62.75 56 70.066v155.869C32 313.254 8 341.828 8 376c0 39.688 32.297 72 72 72s72-32.313 72-72c0-33.076-22.561-60.742-53.018-69.137C104.023 295.793 115.068 288 128 288zm104-144c0-22.063 17.938-40 40-40s40 17.938 40 40-17.938 40-40 40-40-17.937-40-40zM40 80c0-22.063 17.938-40 40-40s40 17.938 40 40-17.938 40-40 40-40-17.937-40-40zm80 296c0 22.063-17.938 40-40 40s-40-17.938-40-40 17.938-40 40-40 40 17.938 40 40zm256-136c-39.688 0-72 32.313-72 72 0 14.051 4.209 27.076 11.203 38.172l-70.516 70.516c-6.25 6.25-6.25 16.375 0 22.625C247.813 446.438 251.906 448 256 448s8.188-1.563 11.313-4.688l70.516-70.516C348.924 379.791 361.949 384 376 384c39.688 0 72-32.313 72-72s-32.312-72-72-72zm0 112c-22.063 0-40-17.938-40-40s17.938-40 40-40 40 17.938 40 40-17.937 40-40 40z"/></svg>