<svg xmlns="http://www.w3.org/2000/svg" viewBox="0 0 448 448"><title>uEA69-user-pending</title><path d="M298.949 197.438A125.74 125.74 0 0 0 320 128a128 128 0 0 0-256 0c0 45.826 24.41 85.789 60.711 108.406C51.982 263.752 0 333.826 0 416h32c0-88.219 71.781-160 160-160 7.912 0 15.5 1.221 23.107 2.336a143.92 143.92 0 0 1 83.842-60.898zM192 224a96 96 0 1 1 96-96 96.1 96.1 0 0 1-96 96zm144 0a112 112 0 1 0 112 112 112.136 112.136 0 0 0-112-112zm0 192a80 80 0 1 1 80-80 80.074 80.074 0 0 1-80 80zm16-96h32v32h-64v-80h32z"/></svg>