<svg xmlns="http://www.w3.org/2000/svg" viewBox="0 0 448 448"><path d="M262.317 212.944c19.325-20.912 31.184-48.79 31.184-79.443C293.501 68.704 240.781 16 176 16 111.203 16 58.499 68.704 58.499 133.501c0 41.024 21.216 77.098 53.174 98.122C52.013 256.23 11.014 314.422 11.014 384h32c0-74.595 58.406-132.998 132.986-132.998 14.057 0 27.171 2.55 39.702 6.237 11.923-18.148 27.975-33.092 46.615-44.295zM90.499 133.501C90.499 86.358 128.857 48 176 48c47.155 0 85.501 38.358 85.501 85.501 0 47.139-38.346 85.501-85.501 85.501-47.143 0-85.501-38.362-85.501-85.501zM336 448c-61.75 0-112-50.25-112-112s50.25-112 112-112 112 50.25 112 112-50.25 112-112 112zm0-192c-44.125 0-80 35.875-80 80s35.875 80 80 80 80-35.875 80-80-35.875-80-80-80zm64 96h-80v-80h32v48h48v32z"/></svg>