<svg xmlns="http://www.w3.org/2000/svg" viewBox="0 0 448 448"><path d="M214.717 355.92c1.109-2.67 1.6-5.404 2.445-8.113L256 341.34v-42.668l-38.791-6.467a93.527 93.527 0 0 0-6.473-15.627l22.861-32-30.174-30.172-32.035 22.883c-2.508-1.313-4.801-2.902-7.469-4.014-2.668-1.104-5.408-1.596-8.111-2.438L149.334 192h-42.666l-6.467 38.787a93.82 93.82 0 0 0-15.621 6.477l-32-22.861-30.178 30.17 22.887 32.039c-1.313 2.508-2.904 4.799-4.012 7.469-1.105 2.668-1.598 5.404-2.439 8.111L0 298.658v42.67l38.787 6.467a93.845 93.845 0 0 0 6.473 15.625l-22.857 32 30.17 30.174 32.039-22.885c2.508 1.313 4.799 2.906 7.469 4.014 2.666 1.104 5.404 1.598 8.111 2.438l6.467 38.84h42.67l6.467-38.787a93.862 93.862 0 0 0 15.625-6.477l32 22.859 30.174-30.17-22.887-32.037c1.313-2.51 2.905-4.795 4.009-7.469zm-32.606-26.906c-4.982 29.889-33.244 50.076-63.125 45.098-29.889-4.982-50.078-33.244-45.098-63.127 4.979-29.887 33.244-50.076 63.125-45.098 29.889 4.982 50.079 33.246 45.098 63.127zM294.623 0H64v160h32V32h160v128h128v256H258.285L256 418.285V448h160V121.375L294.623 0zM288 128V38.623L377.377 128H288z"/></svg>