<svg xmlns="http://www.w3.org/2000/svg" viewBox="0 0 448 448"><path d="M288.01 150.066l.014 28.34c.738-.014 1.424-.219 2.164-.219 10.391 0 20.258 1.881 29.813 4.541v-32.666c31.992-7.316 56-35.891 56-70.063 0-39.688-32.313-72-72-72s-72 32.313-72 72c-.001 34.177 24.011 62.751 56.009 70.067zM304 40c22.063 0 40 17.938 40 40s-17.938 40-40 40-40-17.938-40-40 17.938-40 40-40zM178.408 288c.221-11.195 2.391-21.832 5.682-32H128V150.063c31.992-7.316 56-35.891 56-70.063 0-39.688-32.313-72-72-72S40 40.313 40 80c0 34.172 24.008 62.744 56 70.063v155.875c-31.992 7.318-56 35.89-56 70.062 0 39.688 32.313 72 72 72s72-32.313 72-72c0-34.172-24.008-62.746-56-70.063V288h50.408zM152 376c0 22.063-17.938 40-40 40s-40-17.938-40-40 17.938-40 40-40 40 17.938 40 40zm-40-256c-22.063 0-40-17.938-40-40s17.938-40 40-40 40 17.938 40 40-17.937 40-40 40zm244.859 214.234c8.385-12.648 13.328-27.77 13.328-44.049 0-44.109-35.875-80-80-80-44.111 0-80 35.891-80 80s35.889 80 80 80c16.279 0 31.402-4.943 44.049-13.326L425.375 448 448 425.373l-91.141-91.139zm-18.671-44.048c0 7.605-1.941 14.705-5.102 21.102a48.032 48.032 0 0 1-21.799 21.797c-6.391 3.16-13.49 5.1-21.1 5.1-26.469 0-48-21.529-48-48 0-26.469 21.531-48 48-48 26.471 0 48 21.531 48 48v.001z"/></svg>