<svg xmlns="http://www.w3.org/2000/svg" viewBox="0 0 448 448"><path d="M184.25 267.531c0 28.5-6.625 50.344-19.844 65.469-13.188 15.125-32.313 22.719-57.344 22.719-11.188 0-21.531-1.938-31.031-5.781v-45c8.219 6.25 17.406 9.375 27.594 9.375 21.875 0 32.813-16.25 32.813-48.688V139.141h47.813v128.39zm36.813 76.313v-47.5c8.594 7.219 17.938 12.625 28.031 16.25S269.375 318 279.688 318c6.031 0 11.281-.531 15.813-1.625 4.5-1.094 8.25-2.594 11.281-4.531 3-1.938 5.25-4.188 6.75-6.813a17.197 17.197 0 0 0 2.219-8.531c0-4.188-1.188-7.875-3.563-11.156-2.375-3.25-5.625-6.281-9.719-9.031-4.125-2.781-8.969-5.469-14.625-8.031s-11.719-5.188-18.25-7.875c-16.625-6.891-29.031-15.359-37.188-25.359s-12.25-22.063-12.25-36.219c0-11.094 2.219-20.594 6.688-28.563 4.438-7.969 10.5-14.531 18.188-19.688 7.656-5.125 16.531-8.906 26.625-11.344s20.781-3.656 32.063-3.656c11.094 0 20.906.688 29.469 2.031 8.563 1.313 16.469 3.375 23.688 6.156v44.375c-3.563-2.469-7.469-4.656-11.656-6.531a94.752 94.752 0 0 0-13-4.688c-4.438-1.219-8.875-2.156-13.281-2.719a89.274 89.274 0 0 0-12.531-.906c-5.438 0-10.406.531-14.844 1.563-4.469 1.031-8.219 2.5-11.281 4.375s-5.438 4.125-7.125 6.75-2.531 5.563-2.531 8.844c0 3.563.938 6.75 2.813 9.563s4.563 5.5 8.031 8.031c3.469 2.5 7.656 5 12.594 7.406 4.969 2.438 10.563 4.938 16.781 7.5 8.531 3.563 16.156 7.344 22.938 11.344 6.781 4.031 12.594 8.531 17.438 13.594 4.844 5.047 8.563 10.797 11.156 17.266 2.563 6.5 3.844 14.031 3.844 22.656 0 11.875-2.25 21.844-6.75 29.906s-10.625 14.594-18.344 19.594-16.688 8.594-26.938 10.75c-10.25 2.188-21.063 3.281-32.438 3.281-11.656 0-22.781-1-33.313-2.969-10.534-2-19.69-4.969-27.377-8.906zM448 416H0V64h448v352zM32 384h384V96H32v288z"/></svg>