<svg xmlns="http://www.w3.org/2000/svg" viewBox="0 0 448 448"><path d="M116.656 282.531V352H71.219V150.359h71.156c50.813 0 76.219 21.438 76.219 64.281 0 20.25-7.281 36.625-21.875 49.109-14.563 12.531-34.063 18.781-58.438 18.781h-21.625zm0-97.297v62.844H134.5c24.188 0 36.281-10.563 36.281-31.75 0-20.719-12.094-31.094-36.281-31.094h-17.844zm283.469-34.875l-65.656 129.922V352h-45.406v-70.875l-64-130.766h51.875l32.5 75.219c.563 1.438 2.125 6.906 4.625 16.469h.563c1.219-6.75 2.688-12.031 4.375-15.906l33.063-75.781h48.061zM448 416H0V64h448v352zM32 384h384V96H32v288z"/></svg>