<svg xmlns="http://www.w3.org/2000/svg" viewBox="0 0 448 448"><path d="M226.594 146.984l-69.469 201.641h-51.469L37.031 146.984h48.938L128 287.313c2.25 7.594 3.625 14.313 4.094 20.125h.844c.656-6.281 2.125-13.188 4.375-20.688l41.75-139.766h47.531zm24.187 201.641V146.984h73.406c22.5 0 39.781 4.125 51.906 12.375 12.063 8.25 18.125 19.875 18.125 34.875 0 10.875-3.688 20.406-11.031 28.531-7.375 8.188-16.781 13.844-28.219 17.031v.563c14.375 1.781 25.813 7.094 34.406 15.891 8.563 8.813 12.844 19.531 12.844 32.188 0 18.469-6.594 33.125-19.813 43.938-13.219 10.844-31.281 16.25-54.125 16.25h-77.499zm45.438-168.172v47.813h19.938c9.375 0 16.781-2.281 22.156-6.813 5.406-4.563 8.094-10.813 8.094-18.781 0-14.813-11.063-22.219-33.188-22.219h-17zm0 81.547v53.156h24.594c10.5 0 18.719-2.438 24.688-7.313 5.938-4.875 8.906-11.531 8.906-19.969 0-8.063-2.906-14.375-8.781-19-5.844-4.563-14.031-6.875-24.531-6.875h-24.876zM448 416H0V64h448v352zM32 384h384V96H32v288z"/></svg>