<svg xmlns="http://www.w3.org/2000/svg" viewBox="0 0 448 448"><path d="M227.113 143.038H154.27v208.627H96.507V143.038H24V96.152h203.113v46.886zm22.66 198.834v-57.013c10.313 8.663 21.527 15.157 33.643 19.507 12.117 4.35 24.344 6.49 36.723 6.49 7.24 0 13.537-.64 18.977-1.953 5.403-1.313 9.907-3.11 13.544-5.437 3.6-2.327 6.3-5.027 8.1-8.18a20.64 20.64 0 0 0 2.667-10.24c0-5.023-1.43-9.45-4.28-13.39-2.85-3.9-6.753-7.537-11.663-10.837-4.953-3.34-10.767-6.567-17.553-9.643a693.59 693.59 0 0 0-21.907-9.45c-19.957-8.29-34.847-18.457-44.633-30.46-9.793-12.003-14.703-26.48-14.703-43.47 0-13.317 2.66-24.723 8.023-34.287 5.327-9.563 12.607-17.44 21.83-23.63 9.193-6.153 19.843-10.687 31.957-13.613 12.12-2.927 24.943-4.39 38.487-4.39 13.317 0 25.093.823 35.373 2.437 10.277 1.577 19.763 4.053 28.43 7.39v53.263c-4.277-2.96-8.967-5.59-13.99-7.84a114.33 114.33 0 0 0-15.607-5.627c-5.327-1.463-10.65-2.59-15.94-3.26-5.287-.753-10.317-1.093-15.04-1.093-6.53 0-12.49.64-17.816 1.88-5.367 1.237-9.864 3-13.54 5.25s-6.53 4.95-8.553 8.1c-2.027 3.153-3.04 6.68-3.04 10.617 0 4.277 1.126 8.1 3.376 11.477 2.25 3.377 5.477 6.603 9.64 9.64 4.163 3 9.19 6 15.117 8.89 5.963 2.927 12.676 5.927 20.14 9.003 10.24 4.273 19.394 8.813 27.533 13.617 8.137 4.84 15.117 10.24 20.933 16.317 5.81 6.073 10.273 12.977 13.39 20.743 3.077 7.8 4.61 16.84 4.61 27.193 0 14.253-2.7 26.22-8.1 35.893-5.403 9.68-12.753 17.52-22.02 23.52-9.263 6.003-20.03 10.317-32.333 12.903-12.3 2.623-25.28 3.937-38.93 3.937-13.993 0-27.35-1.197-39.99-3.563-12.641-2.401-23.631-5.961-32.855-10.691z"/></svg>