<svg xmlns="http://www.w3.org/2000/svg" viewBox="0 0 448 448"><path d="M96.72 287.784v81.105H43.672V133.453h83.074c59.324 0 88.988 25.031 88.988 75.049 0 23.642-8.503 42.763-25.539 57.355-17.003 14.63-39.77 21.927-68.227 21.927H96.72zm0-113.612v73.372h20.832c28.241 0 42.359-12.333 42.359-37.069 0-24.191-14.118-36.303-42.359-36.303H96.72zm330.952-40.719l-76.656 151.705v83.732h-53.01v-82.746l-74.721-152.691h60.565l37.943 87.819c.658 1.681 2.481 8.062 5.402 19.229h.654c1.423-7.883 3.138-14.047 5.111-18.572l38.601-88.477h56.111z"/></svg>