<svg xmlns="http://www.w3.org/2000/svg" viewBox="0 0 448 448"><path d="M202.344 178.203h-75.125v52.25h69.031v38.859h-69.031V352H79.281V139.141h123.063v39.062zm185.25 15.125l-5.781 26.719h-27.469l-8.156 36.797h30.719l-6.688 26.719h-29.531l-11.594 51.375h-29.688l10.844-51.375h-33.969l-11 51.375h-29.688l10.531-51.375H218.53l5.5-26.719h27.875l7.875-36.797h-29.969l5.031-26.719h30.438l11-52.844h30.406l-10.969 52.844h34l11.25-52.844h30.156l-11 52.844h27.471zm-63.25 26.719h-34.438l-8.156 36.797h34.281l8.313-36.797zM448 416H0V64h448v352zM32 384h384V96H32v288z"/></svg>