<svg xmlns="http://www.w3.org/2000/svg" viewBox="0 0 448 448"><path d="M194.709 161.649h-93.565v65.076h85.976v48.416h-85.976v102.987H41.437v-265.13h153.272v48.651zm230.728 18.836l-7.202 33.279h-34.212l-10.155 45.85h38.257l-8.33 33.275h-36.779l-14.44 63.988h-36.978l13.507-63.988h-42.307l-13.702 63.988h-36.974l13.116-63.988h-34.367l6.851-33.275h34.718l9.808-45.85h-37.329l6.269-33.279h37.907l13.702-65.817h37.871l-13.663 65.817h42.346l14.013-65.817h37.56l-13.702 65.817h34.215zm-78.779 33.279H303.77l-10.159 45.85h42.698l10.349-45.85z"/></svg>