<svg xmlns="http://www.w3.org/2000/svg" viewBox="0 0 448 448"><path d="M227.26 137.374l-76.091 220.878H94.793L19.624 137.374h53.603l46.039 153.721c2.464 8.317 3.971 15.678 4.483 22.043h.925c.719-6.88 2.327-14.444 4.791-22.66l45.73-153.104h52.065zm26.491 220.878V137.374h80.406c24.644 0 43.571 4.518 56.852 13.554 13.214 9.036 19.853 21.77 19.853 38.198 0 11.914-4.038 22.352-12.082 31.251-8.079 8.969-18.38 15.163-30.908 18.657v.613c15.745 1.952 28.272 7.771 37.686 17.424 9.376 9.653 14.066 21.395 14.066 35.257 0 20.228-7.22 36.281-21.7 48.124-14.479 11.879-34.262 17.799-59.284 17.799h-84.889zm49.768-184.219v52.369h21.84c10.27 0 18.38-2.499 24.269-7.462 5.92-4.998 8.864-11.844 8.864-20.571 0-16.225-12.117-24.336-36.351-24.336h-18.622zm0 89.337v58.222h26.94c11.5 0 20.505-2.671 27.041-8.009 6.502-5.338 9.755-12.629 9.755-21.872 0-8.833-3.183-15.745-9.618-20.813-6.4-4.995-15.37-7.529-26.87-7.529h-27.248z"/></svg>