<svg xmlns="http://www.w3.org/2000/svg" viewBox="0 0 448 448"><path d="M144 389.002c-44.499-.503-66.749-19.501-66.749-57.002v-55.312c0-24.749-9.75-37.75-29.251-38.998v-27.376c19.501-1.251 29.251-14.499 29.251-39.75v-53.811c0-38 22.25-57.251 66.749-57.75v29.062c-19.875.499-29.811 12.435-29.811 35.811v52.877c0 25.248-12.438 40.813-37.315 46.685V224c24.877 5.501 37.315 20.938 37.315 46.314v52.314c0 13.373 2.218 22.906 6.656 28.592 4.435 5.686 12.154 8.656 23.155 8.906v28.876zM399.718 237.69c-19.376 1.248-29.062 14.25-29.062 38.998V332c0 37.501-22.125 56.499-66.374 57.002v-28.877c10.874-.25 18.592-3.248 23.155-8.998s6.845-15.251 6.845-28.499v-52.314c0-25.376 12.31-40.813 36.938-46.314v-.563c-24.627-5.872-36.938-21.437-36.938-46.685v-52.877c0-23.376-10-35.312-30-35.811V59.002c44.25.499 66.374 19.75 66.374 57.75v53.811c0 25.251 9.686 38.499 29.062 39.75v27.377z"/></svg>