<svg xmlns="http://www.w3.org/2000/svg" viewBox="0 0 448 448"><path d="M10.719 433.578v-35c6.344 5.328 13.219 9.313 20.656 11.984 7.438 2.656 14.969 3.984 22.563 3.984 4.438 0 8.313-.406 11.625-1.203s6.094-1.906 8.313-3.344c2.219-1.406 3.875-3.094 5-5.031a12.791 12.791 0 0 0 1.625-6.281c0-3.063-.875-5.797-2.625-8.203s-4.125-4.625-7.156-6.672-6.625-4.016-10.781-5.906-8.625-3.828-13.438-5.797C34.25 367 25.094 360.766 19.094 353.406c-6.031-7.359-9.031-16.266-9.031-26.688 0-8.172 1.625-15.188 4.938-21.063 3.25-5.859 7.719-10.688 13.375-14.484s12.188-6.578 19.625-8.359c7.438-1.797 15.313-2.688 23.625-2.688 8.188 0 15.406.5 21.719 1.469 6.313 1 12.125 2.5 17.469 4.547v32.703c-2.625-1.828-5.5-3.422-8.594-4.813s-6.281-2.531-9.594-3.438c-3.25-.922-6.531-1.594-9.781-2.031s-6.313-.656-9.219-.656c-4.031 0-7.688.375-10.938 1.156-3.313.75-6.063 1.828-8.313 3.219-2.281 1.391-4.031 3.047-5.25 4.969-1.25 1.938-1.875 4.109-1.875 6.516 0 2.625.688 4.984 2.063 7.047 1.406 2.094 3.375 4.063 5.938 5.906 2.531 1.875 5.625 3.688 9.281 5.469 3.656 1.797 7.781 3.641 12.344 5.531 6.281 2.625 11.906 5.406 16.906 8.375 5 2.938 9.281 6.281 12.844 10 3.594 3.719 6.313 7.969 8.219 12.75 1.906 4.766 2.844 10.328 2.844 16.672 0 8.75-1.656 16.094-4.969 22.047-3.313 5.938-7.844 10.75-13.531 14.438-5.688 3.672-12.281 6.313-19.844 7.922-7.531 1.609-15.5 2.406-23.906 2.406-8.594 0-16.781-.734-24.531-2.188-7.783-1.452-14.502-3.64-20.189-6.562zm222.594 6.016h-32.719v-16.078h-.438c-7.5 12.547-18.625 18.813-33.344 18.813-10.875 0-19.438-3.078-25.656-9.234-6.25-6.172-9.344-14.391-9.344-24.672 0-21.734 12.844-34.266 38.594-37.625l30.406-4.047c0-12.25-6.625-18.375-19.906-18.375-13.344 0-26.031 3.969-38.063 11.922v-26.031c4.813-2.484 11.406-4.672 19.75-6.563s15.938-2.844 22.781-2.844c31.938 0 47.938 15.938 47.938 47.797v66.937zm-32.5-45.5v-7.547l-20.344 2.625c-11.219 1.453-16.844 6.531-16.844 15.203 0 3.938 1.375 7.156 4.094 9.688 2.75 2.5 6.438 3.766 11.094 3.766 6.5 0 11.781-2.234 15.875-6.734 4.093-4.47 6.125-10.142 6.125-17.001zm52.5 42.547v-28c5.688 3.422 11.344 5.984 17 7.656s11 2.516 16.031 2.516c6.125 0 10.969-.844 14.5-2.516s5.313-4.234 5.313-7.656c0-2.188-.813-4.016-2.438-5.469-1.594-1.453-3.656-2.734-6.156-3.828-2.531-1.094-5.281-2.078-8.281-2.953a103.38 103.38 0 0 1-8.625-2.953c-4.438-1.672-8.375-3.484-11.75-5.406-3.406-1.938-6.25-4.188-8.531-6.734-2.313-2.547-4.063-5.5-5.25-8.859-1.219-3.359-1.813-7.328-1.813-11.922 0-6.266 1.375-11.672 4.094-16.188 2.75-4.516 6.375-8.219 10.938-11.109 4.563-2.875 9.781-4.984 15.656-6.344 5.875-1.344 11.969-2.016 18.313-2.016 4.969 0 10 .391 15.094 1.141a116.754 116.754 0 0 1 15.094 3.344v26.688a54.896 54.896 0 0 0-14.063-5.75c-5-1.266-9.906-1.906-14.719-1.906-2.25 0-4.375.203-6.375.594-2 .406-3.781 1-5.313 1.75-1.531.781-2.75 1.75-3.625 2.969-.875 1.188-1.313 2.563-1.313 4.094 0 2.047.688 3.797 2 5.25s3 2.719 5.125 3.781c2.125 1.047 4.469 2 7.063 2.844 2.594.828 5.156 1.688 7.688 2.563 4.625 1.609 8.75 3.359 12.5 5.25 3.688 1.891 6.906 4.125 9.563 6.672s4.688 5.547 6.125 8.969c1.406 3.422 2.125 7.516 2.125 12.25 0 6.641-1.438 12.297-4.313 17.016-2.875 4.688-6.719 8.531-11.5 11.469-4.781 2.969-10.281 5.109-16.5 6.469-6.25 1.344-12.719 2.016-19.438 2.016-12.313-.005-23.719-1.895-34.219-5.692zm98.531 0v-28c5.688 3.422 11.344 5.984 17 7.656s11 2.516 16.031 2.516c6.125 0 10.969-.844 14.5-2.516s5.313-4.234 5.313-7.656c0-2.188-.813-4.016-2.438-5.469-1.594-1.453-3.656-2.734-6.156-3.828-2.531-1.094-5.281-2.078-8.281-2.953a103.38 103.38 0 0 1-8.625-2.953c-4.438-1.672-8.375-3.484-11.75-5.406-3.406-1.938-6.25-4.188-8.531-6.734-2.313-2.547-4.063-5.5-5.25-8.859-1.219-3.359-1.813-7.328-1.813-11.922 0-6.266 1.375-11.672 4.094-16.188 2.75-4.516 6.375-8.219 10.938-11.109 4.563-2.875 9.781-4.984 15.656-6.344 5.875-1.344 11.969-2.016 18.313-2.016 4.969 0 10 .391 15.094 1.141a116.754 116.754 0 0 1 15.094 3.344v26.688a54.896 54.896 0 0 0-14.063-5.75c-5-1.266-9.906-1.906-14.719-1.906-2.25 0-4.375.203-6.375.594-2 .406-3.781 1-5.313 1.75-1.531.781-2.75 1.75-3.625 2.969-.875 1.188-1.313 2.563-1.313 4.094 0 2.047.688 3.797 2 5.25s3 2.719 5.125 3.781c2.125 1.047 4.469 2 7.063 2.844 2.594.828 5.156 1.688 7.688 2.563 4.625 1.609 8.75 3.359 12.5 5.25 3.688 1.891 6.906 4.125 9.563 6.672s4.688 5.547 6.125 8.969c1.406 3.422 2.125 7.516 2.125 12.25 0 6.641-1.438 12.297-4.313 17.016-2.875 4.688-6.719 8.531-11.5 11.469-4.781 2.969-10.281 5.109-16.5 6.469-6.25 1.344-12.719 2.016-19.438 2.016-12.313-.005-23.719-1.895-34.219-5.692zM128 160h32v-32h-32v32zm32-96h-32v32h32V64zm-32 160h32v-32h-32v32zM294.624 0H64v256h32V32h160v128h128v96h32V121.376L294.624 0zM288 128V38.624L377.376 128H288z"/></svg>