<svg xmlns="http://www.w3.org/2000/svg" viewBox="0 0 448 448"><path d="M352 160v-32h-83.014c-2.674-6.291-6.787-10.42-11.611-14.094-1.672-1.266-3.656-2.734-5.875-5.031C244.094 101.203 240 90.953 240 80s4.094-21.203 11.516-28.891C264.719 37.422 272 19.266 272 0h-32c0 10.938-4.094 21.188-11.5 28.875C215.281 42.563 208 60.719 208 80c0 17.918 6.518 34.709 18.018 48h-69.031c-2.674-6.291-6.787-10.42-11.611-14.094-1.672-1.266-3.656-2.734-5.875-5.031C132.094 101.203 128 90.953 128 80s4.094-21.203 11.5-28.875C152.719 37.438 160 19.281 160 0h-32c0 10.953-4.094 21.203-11.5 28.875C103.281 42.563 96 60.719 96 80c0 17.918 6.518 34.709 18.018 48H0v128c0 71.021 42.383 132.215 103.113 160H32v32h288v-32h-71.121c31.914-14.602 58.656-38.432 76.928-68.102C334.307 350.322 343 352 352 352c52.938 0 96-43.063 96-96s-43.062-96-96-96zM176 400c-79.406 0-144-64.594-144-144v-96h288v96c0 79.406-64.594 144-144 144zm176-80c-4.014 0-7.932-.48-11.789-1.199C347.713 299.264 352 278.143 352 256v-64c35.281 0 64 28.703 64 64 0 35.281-28.719 64-64 64z"/></svg>