<svg xmlns="http://www.w3.org/2000/svg" viewBox="0 0 448 448"><path d="M395.313 92.688L304 1.375l-91.313 91.313 22.625 22.625L288 62.625v78c0 26.813-13.313 51.688-35.625 66.563L208 236.766l-44.375-29.578c-21.918-14.611-34.99-38.92-35.453-65.174C160.082 134.635 184 106.123 184 72c0-39.703-32.297-72-72-72S40 32.297 40 72c0 34.254 24.09 62.879 56.186 70.123.498 36.928 18.881 71.146 49.689 91.689L192 264.555v41.381c-32 7.318-56 35.893-56 70.064 0 39.688 32.297 72 72 72s72-32.313 72-72c0-34.172-24-62.746-56-70.064v-41.381l46.125-30.742C301.344 213 320 178.156 320 140.625v-78l52.688 52.688 22.625-22.625zM72 72c0-22.063 17.938-40 40-40s40 17.938 40 40-17.938 40-40 40-40-17.937-40-40zm176 304c0 22.063-17.938 40-40 40s-40-17.938-40-40 17.938-40 40-40 40 17.938 40 40z"/></svg>