<svg xmlns="http://www.w3.org/2000/svg" viewBox="0 0 448 448"><path d="M224 434.469l-7.984-4.594C97.344 361.5 32 270.563 32 173.75V67.547h16c39.547 0 76.516-10.438 104.078-29.406 38.031-28.313 105.328-28.656 144.328.344C323.5 57.109 360.469 67.547 400 67.547h16V173.75c0 96.781-65.344 187.75-184.016 256.125L224 434.469zM64 99.047v74.703c0 82.75 56.734 161.938 160 223.688C327.281 335.688 384 256.5 384 173.75V99.047c-39.938-2.547-77.188-14.578-106.219-34.531-29-21.563-79.031-21.219-107.094-.344C141.266 84.422 103.969 96.5 64 99.047z"/></svg>