<svg xmlns="http://www.w3.org/2000/svg" viewBox="0 0 448 448"><path d="M246.617 246.617l-45.252 45.252-45.264-45.258 45.266-45.244-22.625-22.625-45.262 45.252-22.629-22.627-45.25 45.25c-33.549 33.563-36.77 85.855-10.166 123.322L9.039 416.336l22.625 22.625 46.395-46.395c16.57 11.768 35.93 17.895 55.434 17.895 24.563 0 49.156-9.344 67.875-28.063l45.25-45.281-22.627-22.623 45.252-45.252-22.626-22.625zm-67.875 113.156c-24.938 24.906-65.547 24.969-90.516 0-24.938-24.969-24.938-65.563 0-90.531l22.625-22.625 22.609 22.625.01-.01 67.896 67.885-22.624 22.656zM438.961 31.664L416.336 9.039l-46.408 46.387c-37.484-26.611-89.75-23.33-123.311 10.176l-45.25 45.25 135.75 135.766 45.281-45.25c33.537-33.564 36.756-85.861 10.156-123.318l46.407-46.386zm-79.188 147.078l-22.656 22.625-90.5-90.516 22.625-22.625c24.885-24.869 65.379-24.934 90.361-.139l.309.309c24.779 24.967 24.746 65.43-.139 90.346z"/></svg>