<svg xmlns="http://www.w3.org/2000/svg" viewBox="0 0 448 448"><path d="M395.313 92.688L304 1.375l-91.313 91.313 22.625 22.625L288 62.625v110c0 26.813-13.313 51.688-35.625 66.563L208 268.781l-44.375-29.594c-13.121-8.748-23.131-20.924-29.172-35.129C163.123 194.563 184 167.814 184 136c0-39.703-32.297-72-72-72s-72 32.297-72 72c0 36.258 27.027 66.035 61.941 70.982 7.719 23.945 22.701 44.68 43.934 58.83L192 296.555v9.381c-32 7.318-56 35.893-56 70.064 0 39.688 32.297 72 72 72s72-32.313 72-72c0-34.172-24-62.746-56-70.064v-9.381l46.125-30.742C301.344 245 320 210.156 320 172.625v-110l52.688 52.688 22.625-22.625zM72 136c0-22.063 17.938-40 40-40s40 17.938 40 40-17.938 40-40 40-40-17.937-40-40zm176 240c0 22.063-17.938 40-40 40s-40-17.938-40-40 17.938-40 40-40 40 17.938 40 40z"/></svg>