<svg xmlns="http://www.w3.org/2000/svg" viewBox="0 0 512 448"><path d="M498.078 257.625L337.625 418.063C328.641 427.063 316.703 432 304 432c-7.076 0-13.846-1.676-20.07-4.59L475.453 235c6.063-6.063 6.063-15.938 0-22L284.258 20.904c17.551-7.746 39.398-4.951 53.383 9.033l160.438 160.438c18.546 18.531 18.546 48.719-.001 67.25zm-96 0L241.625 418.063C232.641 427.063 220.703 432 208 432s-24.641-4.938-33.641-13.938L13.922 257.625c-18.547-18.531-18.547-48.719 0-67.25L174.375 29.938c17.969-18 49.266-18 67.266 0l160.438 160.438c18.546 18.53 18.546 48.718-.001 67.249zM379.453 213L219 52.563C216.047 49.625 212.156 48 208 48s-8.047 1.625-10.984 4.563H197l-36.955 36.951 35.477 35.477a31.912 31.912 0 0 1 12.479-2.529c17.674 0 32 14.326 32 32 0 4.428-.904 8.643-2.529 12.479l37.314 37.314c4.051-1.855 8.467-3.023 13.215-3.023 17.674 0 32 14.326 32 32s-14.326 32-32 32-32-14.326-32-32c0-4.07.932-7.895 2.316-11.477l-37.828-37.828c-.152.064-.336.051-.488.113v90.383c11.709 4.756 20 16.16 20 29.578 0 17.672-14.326 32-32 32s-32-14.328-32-32c0-13.418 8.291-24.822 20-29.578V184.04c-11.709-4.756-20-16.16-20-29.578 0-4.432.906-8.65 2.535-12.488l-35.475-35.475L36.547 213c-6.063 6.063-6.063 15.938 0 22L197 395.438c5.906 5.875 16.109 5.875 21.984 0L379.453 235c6.063-6.062 6.063-15.937 0-22z"/></svg>