<svg xmlns="http://www.w3.org/2000/svg" viewBox="0 0 448 448"><path d="M75.516 0L0 201.656h36.563L54 150.344h79.313l18.141 51.313h36.703L113.203 0H75.516zM62.719 123.031l27.703-80.438c1.031-3.063 1.969-7.313 2.813-12.625h.563c.938 5.813 1.828 10.031 2.672 12.625l27.984 80.438H62.719zM23.977 246.344h148.781v14.625L62.227 419.75h109.125V448H15.398v-15.313L126.352 274.75H23.977v-28.406zm423.336 82.969L336 440.625 224.688 329.313l22.625-22.625L320 379.375V32h32v347.375l72.688-72.688 22.625 22.626z"/></svg>