<svg xmlns="http://www.w3.org/2000/svg" viewBox="0 0 448 448"><path d="M352 320.199V320H165.277l-11.408-32h228.836L448 96H85.424L62.608 32H0v32h40.046l93.042 260.991c-15.97 7.803-27.091 24.063-27.091 43.004 0 26.468 21.531 47.999 47.999 47.999s47.999-21.529 47.999-47.997c0-5.637-1.154-10.998-2.947-15.998H304.94c-1.793 5-2.947 10.361-2.947 15.998 0 26.468 21.531 47.998 47.999 47.998s48.003-21.531 48.003-47.999C397.994 342.214 378 321.273 352 320.199zM409.159 128L362.52 256H142.461l-45.63-128h312.328zM169.996 367.996c0 8.812-7.172 16-16 16s-16-7.187-16-16c0-8.812 7.172-16 16-16s16 7.188 16 16zm179.995 16c-8.812 0-16-7.187-16-16 0-8.812 7.187-16 16-16s16 7.187 16 16c0 8.813-7.188 16-16 16z"/></svg>