<svg xmlns="http://www.w3.org/2000/svg" viewBox="0 0 448 448"><path d="M101.404 203.469l-10.623 30.188C46.049 217.875 16 175.436 16 128c0-40.951 22.336-76.465 55.232-96H32V0h96v96H96V54.781C67.799 67.154 48 95.268 48 128c0 33.875 21.469 64.217 53.404 75.469zM224 224h-39.232C217.664 204.463 240 168.949 240 128c0-47.438-30.049-89.875-74.781-105.658l-10.623 30.189C186.531 63.781 208 94.125 208 128c0 32.732-19.799 60.844-48 73.219V160h-32v96h96v-32zm224 224h-32c0-51.688-42.031-93.719-93.719-93.719-51.656 0-93.703 42.031-93.703 93.719h-32c0-49.723 29.256-92.414 71.248-112.793-20.949-16.32-34.686-41.492-34.686-70.051C233.141 216 273.125 176 322.281 176s89.156 40 89.156 89.156c0 28.559-13.742 53.73-34.697 70.051C418.736 355.586 448 398.277 448 448zM322.281 322.281c31.531 0 57.156-25.625 57.156-57.125 0-31.516-25.625-57.156-57.156-57.156-31.5 0-57.125 25.641-57.125 57.156 0 31.5 25.625 57.125 57.125 57.125z"/></svg>