<svg xmlns="http://www.w3.org/2000/svg" viewBox="0 0 448 448"><path d="M304 251.002c0-44.186-35.818-80.004-80-80.004-9.068 0-17.635 1.838-25.76 4.617l-66.719-66.719C158.926 95.791 190.436 90.75 224 90.75 328.906 90.75 414.25 160 414.25 256h32c0-128-99.688-197.25-222.25-197.25-42.586 0-82.271 9.486-116.115 27.76L43.313 21.313l-22.625 22.31 59.486 61.83C32.273 141.201 1.75 192 1.75 256h32c0-64 26.957-98.066 69.184-127.943l66.895 65.645C154.039 208.316 144 228.416 144 251.627c0 44.182 35.814 79.688 80 79.688 23.209 0 43.936-10.197 58.549-25.986L404.688 427.39l22.625-22.662-127.928-127.949c2.779-8.125 4.615-16.711 4.615-25.777z"/></svg>