<svg xmlns="http://www.w3.org/2000/svg" viewBox="0 0 448 448"><path d="M246.625 246.625l-45.252 45.252-45.258-45.252 45.26-45.25-22.625-22.625-45.262 45.252-22.629-22.627-45.25 45.25c-33.549 33.563-36.77 85.855-10.166 123.322L9.047 416.344l22.625 22.625 46.395-46.395c16.57 11.768 35.928 17.895 55.418 17.895 24.578 0 49.172-9.344 67.891-28.063l45.25-45.281-22.627-22.623 45.252-45.252-22.626-22.625zM438.969 31.672L416.344 9.047l-46.408 46.387c-37.49-26.615-89.777-23.344-123.311 10.176l-45.25 45.25 135.75 135.766 45.281-45.25c33.537-33.564 36.756-85.861 10.156-123.318l46.407-46.386z"/></svg>