<svg xmlns="http://www.w3.org/2000/svg" viewBox="0 0 448 448"><path d="M416 288v-29c0-38.313-36.531-67.625-72-71.547l-8-.453v.191c-5.41-9.826-11.861-19.07-19.648-27.191H322v-.688c35-4.891 62-35 62-71.313V64h-32v24c0 22.063-17.938 40-40 40h-23.648c4.891-9.834 7.648-20.742 7.648-32 0-11.689-3.064-22.576-8.029-32.346l31.342-31.342-22.625-22.624-29.266 29.266C255.311 29.709 240.371 24 224 24s-31.311 5.709-43.422 14.953L151.313 9.688l-22.625 22.625 31.344 31.344C155.066 73.426 152 84.311 152 96c0 11.25 2.75 22.164 7.643 32H136c-22.063 0-40-17.938-40-40V64H64v24c0 36.313 27 66.422 62 71.313l6.318.086c-8.055 8.281-14.764 17.705-20.318 27.793V187h-8c-39.688 0-72 32.297-72 72v29h32v-29c0-20.498 15.697-36.809 35.588-39.107C97.467 229.068 96 238.445 96 248.109v42.469c0 1.457.359 2.824.404 4.271-21.188 12.729-35.49 32.852-39.904 58.307-5.375 30.969 4.594 64.391 25.375 85.156l22.625-22.625c-13.438-13.438-20.063-36.375-16.469-57.078 1.5-8.684 5.588-19.352 14.336-28.393 15.811 52.949 61.477 93.141 115.852 95.549 1.969.094 3.906.125 5.875.125 33.125 0 64.313-12.484 88.375-35.5 17.049-16.307 28.432-36.582 34.461-58.643 7.76 8.711 11.623 18.654 13.039 26.861 3.594 20.719-3.031 43.641-16.469 57.078l22.625 22.625c20.781-20.766 30.75-54.188 25.375-85.156-4.385-25.279-18.555-45.289-39.5-58.035v-47.012c0-9.264-1.363-18.264-3.316-27.084C366.777 226.129 384 241.063 384 259v29h32zM224 56c22.063 0 40 17.938 40 40 0 10.576-4.4 20.512-11.717 27.938-19.049-4.631-37.527-4.631-56.576.002C188.391 116.514 184 106.576 184 96c0-22.062 17.938-40 40-40z"/></svg>