<svg xmlns="http://www.w3.org/2000/svg" viewBox="0 0 448 448"><title>uEAB0-team-favorite</title><path d="M373.625 369.25L399 448l-63-49.219L273 448l25.375-78.75L238 322h75.469L336 252l22.531 70H434zm-140 19.813A109.98 109.98 0 0 1 238 420h-28a81.864 81.864 0 0 0-6.562-32.594 84.629 84.629 0 0 0-44.844-44.844 84.455 84.455 0 0 0-65.281 0 84.882 84.882 0 0 0-44.75 44.844A81.864 81.864 0 0 0 42 420H14a109.98 109.98 0 0 1 4.375-30.937 111.167 111.167 0 0 1 12.469-28 114.569 114.569 0 0 1 45.281-41.469 83.869 83.869 0 0 1-25.156-29.75A82.8 82.8 0 0 1 42 252a81.864 81.864 0 0 1 6.563-32.594 84.882 84.882 0 0 1 44.75-44.844A81.552 81.552 0 0 1 126 168a82.8 82.8 0 0 1 37.844 8.969 83.869 83.869 0 0 1 29.75 25.156 114.4 114.4 0 0 1 50.531-50.531 83.869 83.869 0 0 1-25.156-29.75A82.8 82.8 0 0 1 210 84a81.864 81.864 0 0 1 6.563-32.594 84.882 84.882 0 0 1 44.75-44.844 84.455 84.455 0 0 1 65.281 0 84.629 84.629 0 0 1 44.844 44.844A81.864 81.864 0 0 1 378 84a82.8 82.8 0 0 1-8.969 37.844 83.869 83.869 0 0 1-25.156 29.75 113.22 113.22 0 0 1 57.75 69.469A109.98 109.98 0 0 1 406 252h-28a81.864 81.864 0 0 0-6.562-32.594 84.629 84.629 0 0 0-44.844-44.844 84.455 84.455 0 0 0-65.281 0 84.882 84.882 0 0 0-44.75 44.844A81.864 81.864 0 0 0 210 252a82.8 82.8 0 0 1-8.969 37.844 83.869 83.869 0 0 1-25.156 29.75 114.569 114.569 0 0 1 45.281 41.469 111.167 111.167 0 0 1 12.469 28zm20.781-265.469a56.159 56.159 0 0 0 17.844 12.031 56.252 56.252 0 0 0 43.5 0 56.344 56.344 0 0 0 29.875-29.875 56.252 56.252 0 0 0 0-43.5 56.344 56.344 0 0 0-29.875-29.875 56.252 56.252 0 0 0-43.5 0 56.344 56.344 0 0 0-29.875 29.875 56.252 56.252 0 0 0 0 43.5 56.159 56.159 0 0 0 12.031 17.844zm-88.812 168a56.159 56.159 0 0 0 12.031-17.844 56.252 56.252 0 0 0 0-43.5 56.344 56.344 0 0 0-29.875-29.875 56.252 56.252 0 0 0-43.5 0 56.344 56.344 0 0 0-29.875 29.875 56.252 56.252 0 0 0 0 43.5 56.344 56.344 0 0 0 29.875 29.875 56.252 56.252 0 0 0 43.5 0 56.159 56.159 0 0 0 17.844-12.031z"/></svg>