<svg xmlns="http://www.w3.org/2000/svg" viewBox="0 0 448 448"><path d="M322 140c6.873-15.906 16.281-29.813 28.25-41.781C362.189 86.25 376.125 76.844 392 70c-15.875-6.844-29.811-16.25-41.75-28.219C338.281 29.813 328.873 15.906 322 0c-6.846 15.906-16.25 29.813-28.189 41.781C281.844 53.75 267.906 63.156 252 70c15.906 6.844 29.844 16.25 41.811 28.219C305.75 110.188 315.154 124.094 322 140zm0-97.562a155.538 155.538 0 0 0 27.561 27.563c-10.342 8.155-19.53 17.343-27.561 27.562A174.182 174.182 0 0 0 294.438 70c10.218-8.031 19.406-17.219 27.562-27.562zM27.906 84.125C21.875 78.063 14.873 73.344 7.002 70c7.871-3.344 14.873-8.063 20.904-14.125 6.03-6.031 10.75-13 14.094-20.875 3.377 7.875 8.064 14.844 14.125 20.875C62.189 61.938 69.127 66.656 77.002 70c-7.875 3.344-14.813 8.063-20.877 14.125C50.064 90.156 45.377 97.125 42 105c-3.344-7.875-8.064-14.844-14.094-20.875zM441.002 154c-7.875 3.344-14.813 8.063-20.877 14.125-6.061 6.031-10.748 13-14.125 20.875-3.344-7.875-8.064-14.844-14.094-20.875-6.031-6.063-13.033-10.781-20.904-14.125 7.871-3.344 14.873-8.063 20.904-14.125 6.029-6.031 10.75-13 14.094-20.875 3.377 7.875 8.064 14.844 14.125 20.875 6.064 6.063 13.002 10.781 20.877 14.125zm-98.379 38l68.689 68.688-22.625 22.625L352 246.625V448H64V246.625l-36.688 36.688-22.624-22.625L73.377 192h43.289c3.939 2.715 8.004 5.234 12.334 7.25 10.531 4.984 21.844 7.563 33.688 7.672-.594.375-1.156.766-1.75 1.141-8.156 5.234-17.156 10.188-26.844 14.766-17.25 8.171-27.531 24.312-27.531 43.171 0 12.484 4.781 24.266 13.281 33 8.938 9.313 21 14.453 33.969 14.453 7.094 0 13.625-1.344 18.625-3.609a232.918 232.918 0 0 0 44.813-24.891c14.438-10.25 27.219-22.297 37.938-35.781 10.969-13.828 19.688-29.328 25.875-46.047 1.324-3.576 1.939-7.438 2.992-11.125h58.567zm-228-51.453c-2.717-6.719-4.061-13.672-4.061-20.672 0-8.984 1.904-17.578 5.654-25.563a69.005 69.005 0 0 1 15.035-20.641 72.591 72.591 0 0 1 21.654-13.938c8.096-3.438 16.719-5.188 25.592-5.188 12.752 0 24.25 2.734 34.25 8.141 9.908 5.391 18.379 12.563 25.158 21.328 6.75 8.719 11.969 18.766 15.531 29.859 3.5 10.984 5.25 22.422 5.25 34 0 15.625-2.563 30.469-7.625 44.109-5.031 13.609-12.094 26.156-20.938 37.281-8.846 11.125-19.404 21.078-31.404 29.594-11.908 8.469-24.91 15.703-38.656 21.469-1.658.75-3.723 1.125-6.254 1.125-4.277 0-7.936-1.547-10.873-4.609-2.873-2.953-4.375-6.703-4.375-10.844 0-6.453 3.188-11.391 9.248-14.266 10.877-5.141 21.096-10.766 30.406-16.734 9.063-5.859 17.158-12.672 24.064-20.281 6.813-7.453 12.439-16.141 16.721-25.828 4.277-9.609 7.09-20.859 8.373-33.469l.344-3.984.092-4.219c0-7.344-1.063-14.766-3.154-22.094-2.061-7.297-5.219-14.031-9.406-20.047-4.096-5.891-9.281-10.688-15.375-14.25-6.031-3.578-13.219-5.375-21.377-5.375-4.434 0-8.965.906-13.436 2.703-4.439 1.859-8.5 4.359-12 7.438-3.469 3.063-6.314 6.75-8.467 10.984-2.098 4.125-3.158 8.594-3.158 13.297 0 2.891.594 5.828 1.781 8.734 1.219 3.047 2.75 5.594 4.75 7.813a24.386 24.386 0 0 0 7.186 5.547 18.416 18.416 0 0 0 8.471 2.047c2.971 0 5.248-.422 6.75-1.25 1.689-.875 3.029-1.984 4.063-3.375 1.188-1.594 2.094-3.141 2.75-4.766a66.105 66.105 0 0 1 2.781-5.797c1.25-2.234 2.844-4.031 4.719-5.328 1.969-1.469 4.717-2.234 8.061-2.234 4.189 0 7.875 1.563 11.002 4.641 3.094 3.094 4.625 6.797 4.625 11.031l-.531 3.672c-1.248 5.016-3.346 9.719-6.25 13.891-2.906 4.234-6.25 7.797-10.189 10.891-3.871 3.016-8.25 5.375-13.029 7.063a46.34 46.34 0 0 1-14.938 2.469c-7.346 0-14.311-1.547-20.75-4.594a54.902 54.902 0 0 1-16.844-12.172 56.575 56.575 0 0 1-11.221-17.609z"/></svg>