<svg xmlns="http://www.w3.org/2000/svg" viewBox="0 0 448 448"><path d="M64 32h160v128h160v-38.625L262.625 0H32v448h96v-32H64V32zm281.375 96H256V38.625L345.375 128zm88.5 64.813c-16.625-16.563-45.5-16.516-61.938.016L200.484 364.281l-23.719 82.813 85.391-20.625 171.719-171.703c17.063-17.078 17.063-44.86 0-61.953zm-22.625 39.328L245.906 397.469l-23.266 5.625 6.313-22.063 165.609-165.578c4.438-4.469 12.25-4.438 16.688 0 4.594 4.594 4.594 12.094 0 16.688zM96 160h32v32H96v-32zm96 32h-32v-32h32v32zm-96 32h32v32H96v-32zm64 0h32v32h-32v-32zm64 0h32v32h-32v-32zM96 288h32v32H96v-32zm96 32h-32v-32h32v32z"/></svg>