<svg xmlns="http://www.w3.org/2000/svg" viewBox="0 0 448 448"><path d="M335.973 0v384.772L0 334.871 335.973 448l111.991-46.594V46.594L335.973 0zm100.971 49.591l-79.496 45.896 60.109-53.956-.01-.011 19.397 8.071zm-28.786-11.976L346.95 72.961l41.515-43.541 19.693 8.195zm-65.185-27.121l36.558 15.21-36.558 20.993V10.494zm0 42.255l35.345-20.296-35.345 37.071V52.749zm0 28.571l62.791-36.261-62.791 56.363V81.32zm0 28.585l81.443-47.02-81.443 67.318v-20.298zm0 29.753l82.942-47.832-82.942 68.873v-21.041zm0 29.761l87.283-49.988-87.283 71.009v-21.021zm0 29.75l87.714-50.234-87.714 72.233v-21.999zm0 29.75l78.352-44.873-78.352 66.154v-21.281zm0 29.75l88.409-50.632-88.409 70.827v-20.195zm0 29.75l83.641-47.9-83.641 67.4v-19.5zm0 29.75l90.31-51.72-90.31 71.625v-19.905zm0 29.75l81.329-46.574-81.329 66.89v-20.316zm0 29.75l83.928-48.063L342.973 389v-11.331zm-33.909 10.183l-57.522 15.728 31.342-19.616 26.18 3.888zm-40.47-6.01l-48.001 12.77 25.374-16.131 22.627 3.361zm-35.33-5.249l-42.754 9.258 21.147-12.467 21.607 3.209zm-39.022-5.796l-34.289 5.006 12.414-8.255 21.875 3.249zm-55.018-8.171l11.953 1.775-18.5 1.849 6.547-3.624zm-19.923 5.029l-42.449-14.293 53.825 7.994-11.376 6.299zm11.924 4.015l29.964-2.995-13.062 8.687-16.902-5.692zm28.244 9.511l38.043-5.554-19.827 11.688-18.216-6.134zm30.294 10.2l39.621-8.579-22.54 14.33-17.081-5.751zm27.976 9.421l49.292-13.114-30.867 19.318-18.425-6.204zm28.614 9.634l56.628-15.482-37.452 21.94-19.176-6.458zm25.766 8.676l50.042-29.315 16.269 2.416-47.135 33.355-19.176-6.456zm30.767 10.361l112.273-63.591-89.928 71.114-22.345-7.523zm138.078-32.736l-105.251 43.789-.321-.108 105.572-59.414v15.733zm0-21.764L340.932 431.27l100.032-79.104v22.807zm0-29.735l-135.597 76.8 135.597-95.957v19.157zm0-29.733l-84.308 48.28 84.308-69.34v21.06zm0-29.75l-84.82 48.573 84.82-67.27v18.697zm0-29.754l-87.093 49.878 87.093-70.182v20.304zm0-29.75l-83.885 48.041 83.885-67.208v19.167zm0-29.75l-81.611 46.738 81.611-68.904v22.166zm0-29.75L363.3 211.229l77.664-63.956v19.478zm0-29.75l-81.003 46.391 81.003-65.9v19.509zm0-29.75l-81.865 46.884 81.865-67.979v21.095zm0-30.164l-84.323 48.628 84.323-69.697v21.069zM224 261.333v-140l55.976-10.2v155.284l-61.605 50.818-97.038-31.743v31.843L56 234.737l168 26.596zM56 234.737l-28.003-4.744v-71.361l26.947-36.283 85.181-24.722V65.235L224 121.333 56 153.77v80.967z"/></svg>