<svg xmlns="http://www.w3.org/2000/svg" viewBox="0 0 448 448"><path d="M224 0C144.594 0 80 64.594 80 144c0 24.125 6.094 47.984 17.578 68.984L224 446.406l126.719-234C362.031 191.531 368 167.875 368 144 368 64.594 303.406 0 224 0zm98.594 197.172L224 379.219l-98.328-181.547C116.734 181.328 112 162.766 112 144c0-61.75 50.25-112 112-112s112 50.25 112 112c0 18.578-4.625 36.969-13.406 53.172zM224 64c-44.109 0-80 35.891-80 80s35.891 80 80 80c44.125 0 80-35.891 80-80s-35.875-80-80-80zm0 128c-26.469 0-48-21.531-48-48s21.531-48 48-48 48 21.531 48 48-21.531 48-48 48z"/></svg>