<svg xmlns="http://www.w3.org/2000/svg" viewBox="0 0 448 448"><path d="M64 416h64v32H64v-32zM160 0H96v32h64V0zm128 0h-64v32h64V0zm128 0h-64v32h64V0zM192 448h64v-32h-64v32zm128 0h64v-32h-64v32zm96-384v64h32V64h-32zm0 192h32v-64h-32v64zm0 128h32v-64h-32v64zM0 352h32v-64H0v64zm0-128h32v-64H0v64zM0 96h32V32H0v64zm64-32h320v320H64V64zm180.375 223.594h-40.75v40.813h40.75v-40.813zm-82.75-99.188h40.75V182c0-2.984.563-5.813 1.688-8.375 1.156-2.656 2.75-4.984 4.719-6.922 1.906-1.922 4.188-3.484 6.781-4.641 2.625-1.109 5.375-1.656 8.438-1.656 3.031 0 5.875.563 8.406 1.656 2.594 1.109 4.844 2.641 6.875 4.656 2 2 3.563 4.313 4.656 6.922 1.125 2.516 1.688 5.25 1.688 8.359 0 3.078-.719 5.766-2.188 8.203-1.75 2.953-4.031 5.859-6.75 8.578a274.236 274.236 0 0 1-10 9.422 96.592 96.592 0 0 0-10.906 11.734c-3.5 4.484-6.344 9.469-8.656 15.25-2.344 5.859-3.5 12.688-3.5 20.313v16.906h40.75v-12.969c0-3.359.344-6.578.938-9.625.406-2.156 1.563-4.188 3.531-6.188a625.143 625.143 0 0 1 12.906-12.453c4.531-4.266 8.625-8.703 12.156-13.328a64.049 64.049 0 0 0 8.969-15.719c2.344-5.781 3.5-12.547 3.5-20.125 0-8.609-1.625-16.781-4.875-24.297-3.219-7.484-7.719-14.156-13.375-19.828-5.625-5.625-12.281-10.125-19.813-13.375s-15.719-4.906-24.313-4.906c-8.563 0-16.75 1.656-24.313 4.906-7.438 3.219-14.125 7.719-19.844 13.391-5.625 5.672-10.094 12.328-13.344 19.813-3.25 7.531-4.875 15.703-4.875 24.297v6.407z"/></svg>