<svg xmlns="http://www.w3.org/2000/svg" viewBox="0 0 448 448"><path d="M384 0c-23.588 0-44 12.963-55.1 32H64C28.654 32 0 60.652 0 96v288c0 35.297 28.703 64 64 64s64-28.703 64-64h256c35.297 0 64-28.703 64-64V64c0-35.297-28.703-64-64-64zM59.203 219.203h41.594v41.594H59.203v-41.594zM64 416c-17.641 0-32-14.359-32-32h64c0 17.641-14.359 32-32 32zm56-74.594L90.594 312 120 282.594 149.406 312 120 341.406zm0-144L90.594 168 120 138.594 149.406 168 120 197.406zm204.531-26.922l-26.047 26.047L256 154.047l-42.484 42.484-26.047-26.047L229.953 128l-42.484-42.484 26.047-26.047L256 101.953l42.484-42.484 26.047 26.047L282.047 128l42.484 42.484zM416 264.9c-9.451-5.512-20.291-8.9-32-8.9s-22.549 3.389-32 8.9V64c0-17.641 14.359-32 32-32s32 14.359 32 32v200.9z"/></svg>