<svg xmlns="http://www.w3.org/2000/svg" viewBox="0 0 448 448"><path d="M161 154.4c32.2-14 75.6-28 127.4-40.6 46.2-11.2 99.4-22.4 158.2-30.8v89.6c-30.8 1.4-68.6 5.6-114.8 9.8-37.8 4.2-75.6 8.4-113.4 11.2-29.4 2.8-50.4 4.2-63 4.2-25.2 1.4-39.2-2.8-40.6-9.8-1.4-8.4 14-19.6 46.2-33.6zM448 48H0v127.4c61.6-25.2 142.8-50.4 243.6-77C333.2 76 448 48 448 48zM189 318.2c-56 14-119 26.6-189 36.4v-95.2c15.4-1.4 29.4-1.4 44.8-2.8 35-2.8 79.8-7 133-12.6 28-2.8 57.4-5.6 85.4-8.4 22.4-1.4 40.6-2.8 54.6-2.8 25.2 0 39.2 4.2 42 12.6s-11.2 19.6-42 33.6C287 291.6 245 304.2 189 318.2zm-165.2 1.4c0-1.4 0-2.8-1.4-2.8-1.4-1.4-4.2-1.4-5.6 0-1.4 1.4-1.4 1.4-1.4 2.8s1.4 2.8 2.8 4.2c1.4 0 4.2 0 4.2-1.4 1.4-1.4 1.4-2.8 1.4-2.8zm0-29.4c0-1.4 0-2.8-1.4-2.8S21 286 19.6 286s-2.8 0-2.8 1.4c-1.4 1.4-1.4 1.4-1.4 2.8s0 2.8 1.4 2.8c1.4 1.4 1.4 1.4 2.8 1.4s2.8 0 2.8-1.4c1.4 0 1.4-1.4 1.4-2.8zm15.4 29.4c0-1.4 0-2.8-1.4-2.8L35 314c-2.8 0-4.2 1.4-4.2 4.2s1.4 4.2 4.2 4.2 4.2-1.4 4.2-2.8zm0-29.4c0-1.4 0-2.8-1.4-2.8S35 286 35 286c-1.4 0-2.8 0-2.8 1.4-1.4 1.4-1.4 1.4-1.4 2.8s0 2.8 1.4 2.8c1.4 1.4 1.4 1.4 2.8 1.4s4.2-1.4 4.2-4.2zM0 382.6l448 1.4V266.4c-61.6 23.8-137.2 47.6-228.2 70C134.4 358.8 61.6 374.2 0 382.6z"/></svg>