<svg xmlns="http://www.w3.org/2000/svg" viewBox="0 0 448 448"><path d="M191.887 384H0v-32h191.887c70.579 0 128-57.405 128-128 0-68.07-53.536-123.35-120.63-127.254l35.942 35.942-22.624 22.624L137.263 80l75.312-75.312 22.624 22.624-37.296 37.296C283.282 67.853 351.887 137.843 351.887 224c0 88.218-71.783 160-160 160zm-83.77-64c-26.874-23.478-44.23-57.584-44.23-96 0-43.667 22.042-82.198 55.507-105.306L96.78 96.08C57.628 125.277 31.887 171.523 31.887 224c0 36.157 12.512 69.174 32.819 96h43.411zm261.677-27.533l-22.189 23.066L385.5 352h-51.475c-10.986 12.221-23.488 22.922-37.248 32h88.592l-37.779 36.499 22.221 23.002L448 367.843l-78.206-75.376z"/></svg>