<svg xmlns="http://www.w3.org/2000/svg" viewBox="0 0 448 448"><path d="M224 0c19.25 0 37.807 2.516 55.672 7.547s34.599 12.104 50.203 21.219 29.786 20.052 42.547 32.813 23.698 26.943 32.813 42.547 16.188 32.339 21.219 50.203S434 190.75 434 210v6.781L303.625 321.125c-2.771-3.792-5.76-7.401-8.969-10.828s-6.708-6.599-10.5-9.516l119.875-96.031c-13.125-5.104-26.578-9.005-40.359-11.703S335.927 189 321.781 189c-14.438 0-28.693 1.385-42.766 4.156s-27.745 6.854-41.016 12.25v75.688a227.789 227.789 0 0 0-7-.766 74.847 74.847 0 0 0-13.999 0c-2.333.219-4.667.474-7 .766v-75.469C183.021 194.542 154.948 189 125.781 189c-14.146 0-28.036 1.349-41.672 4.047s-27.016 6.599-40.141 11.703l119.875 96.031c-3.792 2.917-7.292 6.089-10.5 9.516s-6.198 7.036-8.969 10.828L14 216.781V210c0-19.25 2.516-37.807 7.547-55.672s12.104-34.599 21.219-50.203 20.052-29.786 32.813-42.547 26.943-23.698 42.547-32.813 32.339-16.188 50.203-21.219S204.75 0 224 0zm0 308c9.625 0 18.667 1.859 27.125 5.578 8.458 3.719 15.859 8.75 22.203 15.094s11.375 13.745 15.094 22.203S294 368.375 294 378s-1.859 18.703-5.578 27.234-8.75 15.969-15.094 22.313-13.745 11.339-22.203 14.984C242.667 446.177 233.625 448 224 448s-18.703-1.823-27.234-5.469-15.969-8.641-22.313-14.984-11.339-13.781-14.984-22.313S154 387.625 154 378s1.823-18.667 5.469-27.125 8.641-15.859 14.984-22.203 13.781-11.375 22.313-15.094S214.375 308 224 308z"/></svg>