<svg xmlns="http://www.w3.org/2000/svg" viewBox="0 0 448 448"><path d="M224 288c0-11.117 1.869-21.712 4.544-32H96V96h256v64c11.113 0 21.712 1.872 32 4.544V64h-64V0H0v224h64v64h160zM32 192V32h256v32H64v128H32zm320 0c-52.938 0-96 43.062-96 96 0 20.701 6.733 39.763 17.917 55.456l-77.229 77.232c-6.25 6.25-6.25 16.374 0 22.624A15.941 15.941 0 0 0 208 448c4.093 0 8.189-1.562 11.312-4.688l77.232-77.229C312.237 377.267 331.299 384 352 384c52.937 0 96-43.062 96-96s-43.063-96-96-96zm0 160c-35.296 0-64-28.72-64-64s28.704-64 64-64 64 28.72 64 64-28.704 64-64 64z"/></svg>