<svg xmlns="http://www.w3.org/2000/svg" viewBox="0 0 448 448"><path d="M395.313 285.438l-96.656 96.656-53.969-53.969 22.625-22.625 31.344 31.344 74.031-74.031 22.625 22.625zM176 219.002c-47.143 0-85.5-38.363-85.5-85.502C90.5 86.357 128.857 48 176 48c47.154 0 85.5 38.357 85.5 85.5 0 16.094-4.734 30.996-12.498 43.867 12.648-6.328 25.943-11.459 40.215-14.256 2.51-9.512 4.283-19.314 4.283-29.611C293.5 68.703 240.781 16 176 16 111.203 16 58.5 68.703 58.5 133.5c0 41.023 21.215 77.098 53.174 98.121C52.012 256.23 11.014 314.422 11.014 384h32c0-74.596 58.406-132.998 132.986-132.998.092 0 .176.023.268.023 6.324-13.113 14.402-25.092 23.898-35.926-7.715 2.294-15.717 3.903-24.166 3.903zM448 320c0 70.594-57.406 128-128 128s-128-57.406-128-128 57.406-128 128-128 128 57.406 128 128zm-32 0c0-52.938-43.063-96-96-96s-96 43.063-96 96 43.063 96 96 96 96-43.062 96-96z"/></svg>