<svg xmlns="http://www.w3.org/2000/svg" viewBox="0 0 448 448"><path d="M448 0v224h-73.375L288 310.625V224h-8.809c-.66-11.111-2.707-21.758-5.887-32H320v41.375L361.375 192H416V32H128v65.617c-11.123 1.324-21.861 3.715-32 7.566V0h352zM288 448h-32c0-61.75-50.25-112-112-112S32 386.25 32 448H0c0-58.186 34.848-108.141 84.627-130.834C57.721 298.348 40 267.25 40 232c0-57.344 46.656-104 104-104s104 46.656 104 104c0 35.25-17.721 66.348-44.627 85.166C253.152 339.859 288 389.814 288 448zM144 304c39.703 0 72-32.313 72-72 0-39.703-32.297-72-72-72s-72 32.297-72 72c0 39.688 32.297 72 72 72z"/></svg>