<svg xmlns="http://www.w3.org/2000/svg" viewBox="0 0 448 448"><path d="M154.109 293.75c17.302-14.442 28.563-35.894 28.563-60.141 0-39.546 32.173-71.718 71.718-71.718 16.358 0 31.171 5.859 43.21 15.149 9.533-6.586 20.349-11.309 31.936-14.109-7.309-7.69-15.699-14.358-25.043-19.568 17.299-14.438 28.554-35.882 28.554-60.128 0-43.376-35.28-78.656-78.656-78.656s-78.656 35.28-78.656 78.656c0 24.246 11.254 45.69 28.554 60.128a103.734 103.734 0 0 0-40.144 40.147c-14.442-17.302-35.882-28.557-60.128-28.557-43.376 0-78.672 35.28-78.672 78.656 0 24.246 11.264 45.696 28.57 60.141C22.093 311.485.282 345.069.282 384h32c0-39.546 32.186-71.718 71.734-71.718 39.546 0 71.718 32.173 71.718 71.718h32c0-38.931-21.811-72.509-53.625-90.25zM254.39 36.579c25.718 0 46.656 20.938 46.656 46.656s-20.938 46.656-46.656 46.656-46.656-20.938-46.656-46.656 20.938-46.656 46.656-46.656zM104.016 280.282c-25.734 0-46.672-20.938-46.672-46.672 0-25.718 20.938-46.656 46.672-46.656 25.718 0 46.656 20.938 46.656 46.656 0 25.734-20.938 46.672-46.656 46.672zM416 288v-32c0-35.296-28.72-64-64-64s-64 28.704-64 64v32h-32v160h192V288h-32zm-96-32c0-17.642 14.342-32 32-32s32 14.358 32 32v32h-64v-32zm96 160H288v-96h128v96z"/></svg>