<svg xmlns="http://www.w3.org/2000/svg" viewBox="0 0 448 448"><path d="M294.625 0H64v100.543C74.289 97.869 84.885 96 96 96V32h160v128h128v256H192v32h224V121.375L294.625 0zM288 128V38.625L377.375 128H288zm-192 0c-52.938 0-96 43.063-96 96 0 28.262 12.502 53.447 32 71.031v150.875l64-42.688 64 42.688V295.031c19.498-17.584 32-42.77 32-71.031 0-52.937-43.062-96-96-96zm32 258.094l-32-21.313-32 21.313v-71.992C74.059 317.688 84.725 320 96 320s21.941-2.311 32-5.896v71.99zM96 288c-35.281 0-64-28.719-64-64s28.719-64 64-64 64 28.719 64 64-28.719 64-64 64z"/></svg>