<svg xmlns="http://www.w3.org/2000/svg" viewBox="0 0 448 448"><path d="M418 180.859C418 81.281 324.688.281 210 .281S2 81.281 2 180.859c0 14.66 9.906 26.873 26.307 36.844.666 1.189 1.229 2.43 2.225 3.453l106.221 109.16C131.42 336.033 128 343.578 128 352v64c0 17.656 14.359 32 32 32h96c17.656 0 32-14.344 32-32v-64c0-8.316-3.371-15.748-8.582-21.441l106.457-109.402c.088-.092.111-.215.197-.307C405.805 210.344 418 197.111 418 180.859zM210 32.281c97.031 0 176 66.656 176 148.578 0 9.047-54.875 38.859-176 38.859-121.141 0-176-29.813-176-38.859 0-81.921 78.953-148.578 176-148.578zm-18 219.188V320h-21.545c-.584-.924-.977-1.934-1.768-2.75l-74.299-76.354c29.704 6.17 63.649 9.672 97.612 10.573zM256 416h-96v-64h96v64zm-8.281-98.75c-.791.816-1.184 1.826-1.768 2.75H224v-68.477c33.539-.689 67.295-3.83 97.066-9.65l-73.347 75.377z"/></svg>