<svg xmlns="http://www.w3.org/2000/svg" viewBox="0 0 448 448"><path d="M160.299 322.949c.258 13.926 2.703 27.211 6.318 40.059L86.938 448H3.75l96-160H6.125l144-288H316.25l-96 160H320c-35.697 0-68.363 12.16-95.01 32h-61.24l96-160h-89.875l-112 224h98.375l-96 160h12.813l87.236-93.051zm212.389-60.136l-74.031 74.031-31.344-31.344-22.625 22.625 53.969 53.969 96.656-96.656-22.625-22.625zM448 320c0 70.594-57.406 128-128 128s-128-57.406-128-128 57.406-128 128-128 128 57.406 128 128zm-32 0c0-52.938-43.063-96-96-96s-96 43.063-96 96 43.063 96 96 96 96-43.062 96-96z"/></svg>