<svg xmlns="http://www.w3.org/2000/svg" viewBox="0 0 448 448"><path d="M248.617 368c-2.426 18.344-11.025 34.656-23.947 46.869-12.836-12.182-21.258-28.566-23.641-46.869h-27.016c3.25 33.963 22.723 63.137 50.85 80 3.48-2.117 4.754-3.201 6.668-4.551 2.732-1.902 5.391-3.924 7.9-6.115 20.109-17.215 33.166-41.721 35.855-69.334h-26.669z"/><path d="M367.633 237.176h-39.066c1.051-8.715 2.1-17.436 2.1-26.354C330.666 128.611 285.195 53.875 224 0c-61.195 53.877-106.666 128.609-106.668 210.822 0 8.918 1.051 17.639 2.102 26.354H90.666C75.967 237.176 64 248.988 64 263.527v105.412l26.668.828 3.475-7.828c9.557-21.482 28.227-36.652 50.141-43.266 4.021 8.096 8.111 25.582 12.865 33.326h133.703c5.182-8.441 9.713-26.617 14.02-35.473 25.273 5.336 51.088 23.43 52.785 44.818l-.324 7.596 26.667-.001v-105.41c-.002-14.541-1.666-26.353-16.367-26.353zM275.129 320H172.863C154.34 285.781 144 246.068 144 210.822c0-60.145 28.895-122.631 79.998-174.4 51.107 51.77 80 114.256 80.002 174.4 0 35.246-10.348 74.961-28.871 109.178z"/><ellipse cx="224" cy="131.764" rx="26.666" ry="26.354"/></svg>