<svg xmlns="http://www.w3.org/2000/svg" viewBox="0 0 448 448"><path d="M424.703 247.295C424.703 358.4 335.104 448 224 448S23.297 358.4 23.297 246.4c0-68.098 34.047-129.025 86.016-164.865-.896 3.584-.896 8.064-.896 11.648 0 17.92 4.48 34.943 11.648 50.176C94.08 170.24 77.951 206.08 77.951 246.4c0 80.639 65.408 146.047 146.049 146.047S370.049 327.039 370.049 246.4c0-37.633-14.336-71.682-37.633-97.664 8.064-16.129 13.439-34.945 13.439-54.656v-6.273c47.489 36.736 78.848 94.08 78.848 159.488zM134.4 92.287C134.4 41.215 175.615 0 226.688 0s92.289 41.215 91.393 91.391c0 42.113-27.775 77.953-66.305 88.705v172.928h-51.072v-34.049h-43.008v-46.592h43.008v-91.391C162.176 169.344 134.4 134.4 134.4 92.287zm48.383 0c0 24.193 19.713 43.904 43.904 43.904 24.193 0 43.904-19.711 43.904-43.904 0-24.191-19.711-43.904-43.904-43.904-24.191 0-43.904 19.713-43.904 43.904z"/></svg>