<svg xmlns="http://www.w3.org/2000/svg" viewBox="0 0 448 448"><path d="M340.127 285.988c-3.119.039-6.131-.945-9.227-1.422 36.283 38.379 60.777 85.674 76.566 138.688 5.9 19.813-24.994 28.197-30.857 8.508-14.313-48.059-36.025-90.873-68.914-125.494-.717 15.367-3.236 30.76-6.377 45.967-8.549 41.391-69.625 84.832-69.625 84.832-19.781-14.43-38.807-77.957-38.807-77.957s-32.646 17.758-162.141 23.449C76.1 269.027 110.879 242.99 110.879 242.99S45.373 167.447 0 24.164c19.092-7.979 103.957-.65 129.768 8.188 68.717 23.529 89.16 56.268 89.16 56.268 44.594-15.574 100.895-39.018 142.904-83.598 16.734 25.742 21.877 60.164 22.51 102.221.566 37.543 29.879 83.133 63.658 99.523-10.018 11.4-34.125 56.656-66.674 69.355-13.228 5.162-27 9.689-41.199 9.867z"/></svg>