<svg xmlns="http://www.w3.org/2000/svg" viewBox="0 0 448 448"><path d="M195.902 381.936L96 445.031V2.969L445.969 224l-45.873 28.973c-9.209-7.465-19.104-14.105-30.156-18.809L386.031 224 128 61.031v325.938l64.59-40.793c-.09 1.973-.59 3.83-.59 5.824 0 10.355 1.57 20.287 3.902 29.936zM416 352c0 52.938-43.063 96-96 96-52.938 0-96-43.062-96-96s43.062-96 96-96c52.937 0 96 43.062 96 96zm-96-64c-11.834 0-22.791 3.446-32.307 9.066l87.242 87.242C380.553 374.79 384 363.834 384 352c0-35.296-28.704-64-64-64zm0 128c11.833 0 22.79-3.446 32.307-9.066l-87.242-87.242C259.446 329.21 256 340.166 256 352c0 35.296 28.704 64 64 64z"/></svg>