<svg xmlns="http://www.w3.org/2000/svg" viewBox="0 0 448 448"><path d="M288 352h32v96H0V128h96v32H32v256h256v-64zm153.959-206.244L302.227 6.041c-8.02-8.051-21.084-8.051-29.135 0l-29.016 29.018 36.82 36.803c8.547-2.887 18.355-.949 25.154 5.859 6.881 6.871 8.803 16.771 5.805 25.352l35.482 35.469c8.588-2.955 18.473-1.053 25.365 5.816 9.574 9.574 9.574 25.102 0 34.676-9.619 9.588-25.145 9.588-34.719 0-7.203-7.203-8.992-17.795-5.326-26.678l-33.07-33.066v86.064a25.419 25.419 0 0 1 9.18 8.949c6.688 9.574 5.818 22.82-2.717 31.346-3.881 3.871-8.746 6.105-13.791 6.844a26.172 26.172 0 0 1-5.336.561c-14.127 0-25.59-11.457-25.59-25.594 0-7.607 3.379-14.365 8.646-19.041 1.99-2.057 3.377-3.867 6.029-4.943v-88.582c-2.932-1.197-2.25-.1-4.621-2.492-7.248-7.24-8.992-17.889-5.277-26.805L229.825 49.31l-95.785 95.799c-8.055 8.053-8.055 21.119 0 29.174l139.723 139.711c8.029 8.01 21.072 8.01 29.135 0L441.959 174.92c8.055-8.057 8.055-21.109 0-29.164z"/></svg>