<svg xmlns="http://www.w3.org/2000/svg" viewBox="0 0 448 448"><path d="M194.713 214.493L65.779 437.813c-5.939 10.287-19.967 13.285-31.365 6.705-11.398-6.582-15.816-20.23-9.879-30.518l128.934-223.318-61.865-35.719-5.371 9.305c-5.939 10.287-19.969 13.287-31.367 6.705-11.398-6.58-15.816-20.23-9.877-30.516L120.2 10.186c5.939-10.287 19.969-13.285 31.367-6.703 11.398 6.58 15.814 20.229 9.877 30.516l-5.373 9.305 164.975 95.248 5.373-9.305c5.939-10.287 19.969-13.285 31.367-6.703 11.398 6.578 15.816 20.227 9.877 30.514l-41.324 71.576c-2.145-.107-4.168-.641-6.338-.641-26.342 0-50.832 8.025-71.207 21.723l-54.081-31.223zM416 351.993c0 52.938-43.063 96-96 96-52.938 0-96-43.062-96-96s43.062-96 96-96c52.937 0 96 43.063 96 96zm-96-64c-11.834 0-22.791 3.446-32.307 9.066l87.242 87.242c5.619-9.517 9.066-20.474 9.066-32.307-.001-35.297-28.705-64.001-64.001-64.001zm0 128c11.833 0 22.79-3.446 32.307-9.066l-87.242-87.242c-5.619 9.517-9.065 20.474-9.065 32.307 0 35.297 28.704 64.001 64 64.001z"/></svg>