<svg xmlns="http://www.w3.org/2000/svg" viewBox="0 0 448 448"><path d="M288 320h32v128H0V128h96v32H32v256h256v-96zm59.465-234.035L305.43 96.498c.324 2.857.855 5.678.855 8.645 0 16.893-5.965 32.248-15.572 44.643l51.965 51.965c5.432-3.217 11.68-5.178 18.465-5.178 20.211 0 36.572 16.355 36.572 36.57 0 20.213-16.361 36.572-36.572 36.572s-36.57-16.359-36.57-36.572c0-6.785 1.963-13.037 5.178-18.465l-51.965-51.965c-12.393 9.607-27.75 15.572-44.643 15.572-2.967 0-5.785-.535-8.643-.895l-10.496 42.074c11.354 6.176 19.139 18.105 19.139 31.961 0 20.215-16.359 36.574-36.57 36.574C176.357 288 160 271.641 160 251.426c0-20.105 16.217-36.389 36.285-36.533l10.428-41.75c-27.283-10.61-46.713-36.963-46.713-68C160 64.748 192.748 32 233.143 32c31.033 0 57.43 19.426 68.037 46.713l41.713-10.428C343.037 48.215 359.322 32 379.428 32 399.641 32 416 48.357 416 68.572c0 20.176-16.359 36.57-36.572 36.57-13.858.001-25.787-7.787-31.963-19.177zm-77.75 19.178c0-20.215-16.361-36.57-36.572-36.57s-36.57 16.355-36.57 36.57c0 20.213 16.359 36.572 36.57 36.572s36.572-16.36 36.572-36.572z"/></svg>