<svg xmlns="http://www.w3.org/2000/svg" viewBox="0 0 448 448"><path d="M118.189 225.729c-5.967-3.406-7.387-18.404-14.391-18.832-10.01-.605-8.186 19.459-8.146 31.193-6.889-6.256-8.102-25.514-3.039-35.406-5.77-2.832-8.346 3.125-11.543 5.225 4.112-29.876 43.701-13.858 37.119 17.82zm209.325 62.306c-.049-6.023-.02-12.123-1.229-17.063-22.539.66-53.016-.277-69.598-8.996 7.596 20.335 41.852 27.503 70.827 26.059zm99.416 85.145c1.34 10.498-4.625 24.861-7.648 34.992-4.084 13.668-8.133 26.9-12.262 39.828H35.375c-.434-1.229-.871-2.459-1.277-3.705-4.037-12.434-11.094-27.801-12.934-40.201-2.729-18.377 14.576-19.398 25.643-27.363 17.105-12.314 30.531-19.125 49.059-30.24 5.486-3.291 22.033-11.623 23.916-15.461 3.74-7.607-6.424-18.332-9.141-24.297-4.299-9.43-6.539-17.439-7.156-26.744-15.539-2.455-27.32-11.705-34.438-22.135-11.77-17.258-19.934-49.189-9.748-73.479.797-1.912 4.779-5.674 5.369-8.611 1.158-5.785-2.182-13.477-2.389-19.631-1.072-31.568 5.34-58.77 26.592-68.289 8.629-34.369 39.508-45.797 68.6-62.879 10.877-6.383 22.865-10.463 35.244-15.018C237.129-6.398 305.271-3.32 342.131 24.557c15.631 11.822 40.613 36.783 49.549 54.854 23.604 47.709 21.928 127.443 5.418 185.479-2.219 7.793-5.438 19.246-9.932 28.605-3.133 6.537-12.871 19.613-11.691 25.385 1.219 5.965 22.207 21.902 26.709 26.242 8.103 7.816 23.498 18.193 24.746 28.058zm-283.604-31.783c11.875 17.014 35.205 19.58 60.307 21.246 4.482-9.656 20.996-8.863 31.758-6.338-12.896-5.107-24.885-17.49-34.822-28.449-11.412-12.574-22.975-26.063-23.559-42.5 21.568 29.922 39.389 56.055 78.607 69.215 29.676 9.953 64.334-4.561 87.137-20.572 9.463-6.656 15.109-17.217 21.836-26.883 25.164-36.197 36.906-87.865 34.324-137.943-1.063-20.652-1.016-41.234-7.945-55.129-7.242-14.529-31.738-27.527-46.078-14.387-2.656-14.127 11.924-22.865 29.053-17.781-12.213-15.762-25.031-34.699-42.389-44.494-30.223-17.053-81.379-29.879-113.529-13.852-25.939 12.936-61.004 34.336-72.959 61.453 11.168 26.168-3.309 50.148-4.232 76.717-.492 14.137 6.656 26.479 7.203 41.869-3.82 6.305-15.496 7.082-23.578 6.65-2.723-13.615-7.484-28.918-21.504-30.453-19.838-2.17-34.344 14.248-35.244 31.404-1.066 20.178 15.496 53.617 38.975 51.297 9.068-.896 11.297-9.988 21.178-9.895 5.355 10.686-8.262 14.041-9.662 21.684-.365 1.973 1.129 9.689 1.998 13.309 4.262 17.617 13.77 40.419 23.125 53.832zm143.672 49.052c-.645 7.17 1.021 9.516 2.465 17.732 23.566 7.37 19.453-32.345-2.465-17.732zm32.531-26.472c-15.955 1.426-36.037 11.336-51.838 4.293-.041.836-1.131.531-1.309 1.213 10.844 8.475 18.898 10.227 33.658 9.498 6.657-4.83 12.56-10.481 19.489-15.004zm10.836 29.406c-5.504.615-11.607.576-15.25 3.197-1.334 3.857.326 9.115-.561 14.471 13.066 3.686 27.988 5.648 44.506 6.133 3.213-4.178 4.309-12.131 3.928-20.016-.455-9.508-2.951-29.055-8.828-32.479-12.332-7.199-34.254 14.535-43.543 17.85 1.012 2.908 2.68 5.213 2.807 8.93 5.494-1.352 12.181-.426 16.941 1.914zm-78.572 43.59c11.129-6.07 19.766-15.707 29.219-22.178.121-3.148.242-6.293.369-9.441-5.686-2.832-12.252-4.844-20.596-5.207 5.66-2.848 13.986-2.807 19.143-6.195.049-1.262.104-2.52.146-3.77-9.416-.725-13.006-4.918-19.209-8.311-10.156-5.551-25.41-11.592-38.527-14.094-16.258-3.111-14.734 22.178-14.047 37.264.543 11.943 6.754 24.574 9.451 32.51 1.268 3.705 1.553 7.637 4.721 8.371 5.598 1.305 24.066-6.08 29.33-8.949zm82.062-149.951c26-.541 38.535-19.115 47.395-35.979-15.219 6.938-27.492 17.055-47.367 18.963-.961 3.281-.557 11.568-.028 17.016zm-80.32-8.786c-14.648.018-2.293 8.162.188 11.35 5.139 6.605 11.162 17.867 20.539 22.854 14.787 7.852 44.162 4.564 54.814.23 3.941-1.598 7.113-6.014 8.576-9.75-33.236.793-72.65 4.107-84.117-24.684zm140.348-109.255c-7.563-10.994-12.752-24.189-18.748-36.646-.418-.016-.84-.029-1.26-.049-.846 14.33 4.48 22.955 8.172 33.086-6.383 4.02-18.816 1.516-26.018 4.662-.513 21.191 32.787 10.747 37.854-1.053zM196.846 131.1c8.041-17.924 21.225-35.207 47.756-29.027 5.096-8.377-4.012-14.529-10.742-15.543-15.637-2.355-34.775 15.029-39.523 28.088-1.816 4.976-4.673 14.741 2.509 16.482zm41.779 42.064c-9.977 15.762 19.482 18.725 32.125 14.992 3.461-1.02 9.455-6.209 10.275-8.537 3.512-9.867-3.57-14.193-7.213-17.742-8.086-7.881-9.938-18.838-15.627-29.266-3.938 11.182 6.762 30.16 12.764 39.754-7.814 7.59-21.869 1.287-32.324.799zm130.506 65.438c-.758-4.797 5.764-13.434 3.953-20.645-.627-2.479-6.273-6.078-9.701-9.826-13.961-15.229-33.094-37.979-40.693-55.771-.846-1.963-1.354-12.74-7.238-8.473-.709 26.27 18.82 48.021 33.377 65.57 7.111 8.564 15.686 13.459 7.791 26.768-12.729 4.842-33.328 18.695-51.025 15.668-9.391-1.604-7.273-12.26-10.643-18.055-6.475 8.516-3.936 21.41 2.729 27.203 31.19 3.084 52.415-10.213 71.45-22.439z"/></svg>