<svg xmlns="http://www.w3.org/2000/svg" viewBox="0 0 448 448"><path d="M203.373 317.166C230.279 298.348 248 267.25 248 232c0-57.344-46.656-104-104-104S40 174.656 40 232c0 35.25 17.721 66.348 44.627 85.166C34.848 339.859 0 389.814 0 448h32c0-61.75 50.25-112 112-112s112 50.25 112 112h32c0-58.186-34.848-108.141-84.627-130.834zM144 304c-39.703 0-72-32.297-72-72s32.297-72 72-72 72 32.297 72 72-32.297 72-72 72zm272-176V80c0-44.109-35.891-80-80-80s-80 35.891-80 80v48h-25.422c11.018 9.189 20.664 19.809 28.33 32H416v128H267.463c-3.713 8.131-7.93 16.021-13.182 23.297 3.385 2.73 6.484 5.746 9.645 8.703H448V128h-32zm-32 0h-96V80c0-26.469 21.531-48 48-48s48 21.531 48 48v48z"/></svg>