<?xml version="1.0" encoding="utf-8"?>
<!-- Generator: Adobe Illustrator 21.1.0, SVG Export Plug-In . SVG Version: 6.00 Build 0)  -->
<svg version="1.1" xmlns="http://www.w3.org/2000/svg" xmlns:xlink="http://www.w3.org/1999/xlink" x="0px" y="0px"
	 viewBox="0 0 448 448" style="enable-background:new 0 0 448 448;" xml:space="preserve">
<path d="M203.373,317.166C230.279,298.348,248,267.25,248,232c0-57.344-46.656-104-104-104S40,174.656,40,232
	c0,35.25,17.721,66.348,44.627,85.166C34.848,339.859,0,389.814,0,448h32c0-61.75,50.25-112,112-112s112,50.25,112,112h32
	C288,389.814,253.152,339.859,203.373,317.166z M144,304c-39.703,0-72-32.297-72-72s32.297-72,72-72s72,32.297,72,72
	S183.703,304,144,304z M416,128V80c0-44.109-35.891-80-80-80s-80,35.891-80,80v48h-25.422c11.018,9.189,20.664,19.809,28.33,32H416
	v128H267.463c-3.713,8.131-7.93,16.021-13.182,23.297c3.385,2.73,6.484,5.746,9.645,8.703H448V128H416z M384,128h-96V80
	c0-26.469,21.531-48,48-48s48,21.531,48,48V128z"/>
<g>
</g>
<g>
</g>
<g>
</g>
<g>
</g>
<g>
</g>
<g>
</g>
</svg>
