<svg xmlns="http://www.w3.org/2000/svg" viewBox="0 0 448 448"><path d="M91.719 302.375h34.719L79 396.188V448H46.219v-51.188L0 302.375h37.469l23.469 54.313c.406 1.031 1.531 5 3.344 11.875h.406c.875-4.875 1.938-8.688 3.156-11.469l23.875-54.719zM232.281 388.5c-2.031 5.938-3.969 12.938-5.781 21h-.625c-1.063-6.969-2.813-13.906-5.188-20.813l-29.75-86.313h-48.031V448h29.563v-80.531c0-10.844-.438-23.438-1.344-37.781h.938c2.094 10.906 3.625 17.656 4.563 20.313l34.75 98h26.813l34.125-99.031c1.344-3.906 2.875-10.344 4.563-19.281h.813c-.813 11.375-1.219 21.75-1.219 31.188V448h32.406V302.375h-46.844L232.281 388.5zm142.5 32.875v-119h-32.813V448h86.719v-26.625h-53.906zM96 256H64V0h230.623L416 121.375V256h-32v-96H256V32H96v224zm192-128h89.377L288 38.623V128z"/></svg>