<svg xmlns="http://www.w3.org/2000/svg" viewBox="0 0 448 448"><path d="M434.542 99.236c-15.859-28.529-44.215-37.05-64.243-37.457-24.574-.49-44.765 13.118-40.943 22.057.815 1.916 5.422 11.925 8.256 16.063 4.097 5.973 11.416 1.386 13.994.02 7.665-4.077 15.849-5.402 25.145-4.311 8.878 1.03 20.691 6.503 28.601 21.71 18.632 35.806-38.885 109.488-110.874 58.465-71.98-51.024-141.983-34.115-173.681-23.83-31.699 10.274-46.274 20.62-33.737 44.531 17.021 32.494 11.375 22.525 27.876 49.434 26.215 42.707 83.59-19.672 83.59-19.672-42.738 63.01-79.38 47.783-93.436 25.756-12.669-19.844-22.505-42.737-22.505-42.737C-25.681 247.446 3.612 416 3.612 416h53.766c13.709-62.062 62.715-59.769 71.113 0h41.025c36.285-121.189 128.232 0 128.232 0h53.48c-14.983-82.661 30.078-108.642 58.475-157.098 28.396-48.465 55.304-107.745 24.839-159.666zM296.607 258.841v.01c-28.275-9.234-18.153-37.366-18.153-37.366s7.43 2.402 19.601 6.353c-4.115 2.907-6.601 7.7-6.045 12.881.845 7.787 8.174 13.403 16.369 12.557 8.205-.856 14.158-7.858 13.312-15.645-.085-.786-.281-1.531-.493-2.268 4.855 1.581 9.97 3.247 15.343 5-1.926 8.724-18.54 25.46-39.934 18.478z"/></svg>