<svg xmlns="http://www.w3.org/2000/svg" viewBox="0 0 448 448"><path d="M405.832 367.935c-1.154-2.197-2.289-4.557-3.998-6.285-7.807-7.91-11.523-17.645-13.477-28.326-1.674-9.16-5.99-16.578-15.465-20.848 4.607-14.697 5.605-29.047 3.385-43.572-4.451-29.086-18.766-53.58-36.096-76.594-8.039-10.678-16.619-20.949-24.582-31.68-11.285-15.213-17.141-32.188-16.109-51.412.486-9.039.324-18.143-.078-27.191-.725-16.348-2.736-32.51-9.484-47.682C282 16.519 268.531 5.408 249.354 1.611 234.389-1.352 219.563-.096 205.04 4.34c-19.59 5.982-31.717 19.311-37.33 38.789-5.242 18.191-4.9 36.787-3.15 55.322 2.977 31.486-4.682 59.166-24.789 84.23-13.098 16.324-24.258 34.428-34.572 52.699-11.713 20.744-18.484 43.281-16.379 67.674.111 1.301.238 3.105-.49 3.896-8.098 8.807-13.229 20.234-26.549 24.123-17.904 5.225-22.291 14.568-19.852 33.039 1.01 7.629 1.307 15.957-.674 23.262-6.094 22.471.152 32.701 23.283 35.465.674.08 1.355.109 2.033.178 18.074 1.861 35.752 4.744 52.248 13.385 6.631 3.471 14.578 5.023 22.115 6.033 15.967 2.143 30.289-1.006 39.781-15.805.648-1.014 1.857-2.139 2.951-2.32 11.83-1.951 23.666-5.023 35.547-5.223 15.537-.264 31.104 2.004 46.68 2.699 4.586.205 7.096 1.213 9.154 5.742 6.732 14.805 20.387 22.039 36.48 20.189 15.73-1.811 28.115-9.936 38.195-21.465 8.098-9.266 17.746-16 28.598-21.418 7.279-3.635 14.686-7.168 21.471-11.607 9.887-6.47 11.576-14.77 6.041-25.292zM190.475 71.39c8.764.236 15.115 11.225 14.795 30.176-.057 3.215 10.23-2.568 18.971 3.498 4.069 2.824-11.575-36.96 21.595-36.925 8.994.215 17.622 5.419 21.153 25.744.682 6.633 2.201 16.293-3.256 17.975-6.66 2.055-10.77-.297-6.92-6.639 2.635-6.369.061-22.57-13.416-21.598-13.475.971-11.688 24.887-7.994 25.359 3.693.471 13 7.076 19.494 8.342 12.795 2.49 12.27 7.887 10.402 15.002l-16.002 12.533c-8.783 3.605-24.051 15.508-38.146 16.078-9.281.373-12.725-1.822-16.311-5.285-.402-.389-.559-.58-.898-.916a14.278 14.278 0 0 1-1.436-1.463c-1.279-1.363-1.781-2.162-1.629-2.535-4.027-6.477-5.857-15.393-12.83-19.391-3.256-1.865-2.377-6.768 1.949-11.094 2.266-2.27 8.477-3.549 11.557-8.707.434-.723 4.402-4.873 7.514-7.023 1.076-.744 1.17-19.693-8.555-20.086-8.26-.332-10.607 6.072-10.262 12.451.344 6.377 3.727 11.639 5.977 11.613 4.334-.045.275 4.744-2.1 5.516-3.607 1.174-8.553-14.201-7.984-21.582.595-7.689 4.597-21.308 14.332-21.043zm-23.094 342.832c-4.947 8.541-13.494 10.156-25.598 10.873-4.881-1.381-13.197-2.451-20.264-6.006-13.217-6.645-27.16-9.117-41.541-10.496-2.014-.193-4.018-.547-6.006-.93-12.225-2.355-15.961-7.373-12.152-18.965 2.969-9.039 2.498-17.689 1.035-26.688-1.658-10.215 1.506-16.043 11.389-19.094 9.15-2.826 15.65-8.227 21.086-15.936 8.729-12.373 19.344-12.869 28.908-.969 5.482 6.824 9.23 15.023 13.93 22.496 5.184 8.242 10.453 16.436 15.896 24.506 3.605 5.348 7.762 10.322 11.357 15.676 5.417 8.072 7.061 16.725 1.96 25.533zm113.875-77.652c-1.941 13.693-3.918 27.355-6.094 40.949-.268 1.541-1.072 3.047-1.541 3.383-29.834 19.521-56.703 22.869-84.646 10.412-6.695-2.979-10.664-8.471-14.85-14.264-.553-.77-1.105-1.506-1.656-2.275 6.061-2.412 9.943-5.895 11.584-10.381 1.893-5.223.537-11.217-4.018-17.813-5.592-8.07-12.791-14.934-19.756-21.598-2.076-1.977-4.15-3.951-6.178-5.961-2.51-2.477-5.441-4.219-8.287-5.926l-2.494-1.541c-3.014-1.908-6.428-2.813-9.359-3.18.152-1.406.303-2.98.469-4.654-5.57-54.941 21.555-78.47 21.555-78.47.475-1.115-.133.399.346-.716-3.895-7.701-2.48-18.611-1.664-21.873.816-3.262 10-22 16-32 1.414-2.355-2.294-24.165 8.334-8.666 12 17.5 20 20.5 26.334 22 14.335 3.395 45.93-26.824 60-26.666 0 0 21.502 32.039 22.084 48.686 1.084 6.686 1.837 6.686 4.521 9.928.023.016.037.037.061.053 0 0 15.043 11.912 18.666 42.666 1.332 3.746 5.648 21.15 5.648 21.15-6.262 1.508-10.582 5.895-12.859 12.992l-.301 1.072c-.201.668-.402 1.674-.1 1.605-15.838 8.037-19.188 22.803-21.264 37.234l-.535 3.854zm101.988 49.121c-4.445 2.791-9.912 4.781-14.578 6.973-10.48 4.922-19.629 11.779-27.377 20.92-6.053 7.137-13.699 12.307-22.834 14.973-20.445 5.965-36.584-8.453-32.873-29.402.59-3.332 1.096-6.734 2.203-9.906 5.51-15.783 7.713-32.1 8.787-48.693.322-4.982 1.6-10.105 3.502-14.725 1.533-3.73 4.666-6.801 7.508-10.744 2.432 6.15 3.686 10.748 5.963 14.766 3.668 6.475 9.771 9.262 16.777 6.924 5.934-1.98 11.75-4.992 16.854-8.627 6.871-4.896 17.559-3.625 22.203 3.613.607.947 1.322 1.943 1.527 3.006 2.551 13.135 8.238 24.631 16.34 35.352 4.77 6.312 2.93 11.217-4.002 15.57z"/></svg>