<svg xmlns="http://www.w3.org/2000/svg" viewBox="0 0 448 448"><path d="M192 0c-35.297 0-64 28.703-64 64H32v352h96v-32H64V96h32v64h192V96h32v96h32V64h-96c0-35.297-28.703-64-64-64zm64 128H128V96h32V64c0-17.641 14.359-32 32-32s32 14.359 32 32v32h32v32zM140.496 329.473l92.941-68.924v42.295l-52.445 36.09 49.344 29.209 3.102 35.352v11.947l-90.162-60.445-2.78-25.524zM305.676 224h37.594l-63.701 224h-37.35l63.457-224zM448 347.963l-92.941 65.943v-41.863l52.398-34.031-49.449-31.084-2.949-35.291v-12.254l90.254 63.117L448 347.963z"/></svg>