<svg xmlns="http://www.w3.org/2000/svg" viewBox="0 0 448 448"><path d="M373.906 256l64-96H313.813l-96.016 192h56.859l-57.578 96h61.047l169.688-192h-73.907zm-104.343 64l64-128h44.531l-64 96h62.719l-82.344 93.188L331.156 320h-61.593zm-41.725-59.613C216.273 257.719 204.363 256 192 256c-88.219 0-160 71.781-160 160H0c0-82.174 51.982-152.248 124.711-179.594C88.41 213.789 64 173.826 64 128 64 57.422 121.422 0 192 0c70.594 0 128 57.422 128 128h-32c0-52.938-43.063-96-96-96s-96 43.063-96 96 43.063 96 96 96c26.832 0 51.061-11.123 68.496-28.928l-32.658 65.315z"/></svg>