<svg xmlns="http://www.w3.org/2000/svg" viewBox="0 0 448 448"><title>uEB24-shield-verified-fill</title><path d="M381.117 54.167a243.824 243.824 0 0 1-32.934-4.767 192.613 192.613 0 0 1-31.633-9.75 188.979 188.979 0 0 1-31.2-16.25 198.025 198.025 0 0 0-18.417-10.292 131.138 131.138 0 0 0-18.525-7.366 124.974 124.974 0 0 0-19.391-4.334A150.9 150.9 0 0 0 208 0a135.868 135.868 0 0 0-40.517 5.742A150.408 150.408 0 0 0 130.65 23.4a188.979 188.979 0 0 1-31.2 16.25 193.448 193.448 0 0 1-31.633 9.75 243.824 243.824 0 0 1-32.934 4.767q-16.9 1.3-34.883 1.3V166.4a222.232 222.232 0 0 0 7.908 60.017 250.9 250.9 0 0 0 21.884 53.841 289.055 289.055 0 0 0 33.041 47.992 412.46 412.46 0 0 0 41.384 42.358 485.333 485.333 0 0 0 47.125 36.942q24.78 17.124 49.941 31.633l6.717 3.9 6.717-3.9q25.146-14.5 49.941-31.633a485.333 485.333 0 0 0 47.125-36.942 415.28 415.28 0 0 0 41.384-42.358 290.7 290.7 0 0 0 33.041-47.992 252.3 252.3 0 0 0 21.884-53.841A222.232 222.232 0 0 0 416 166.4V55.467q-18 0-34.883-1.3zM166.4 306.8l-88.833-89.05 29.25-29.25 59.583 59.367L309.183 105.3l29.25 29.25z"/></svg>