<svg xmlns="http://www.w3.org/2000/svg" viewBox="0 0 14 14"><title>uEB22-user-remove</title><path d="M11.957 11.25l1.897 1.896-.708.708-1.896-1.897-1.896 1.897-.708-.708 1.897-1.896-1.897-1.896.708-.708 1.896 1.897 1.896-1.897.708.708-1.897 1.896z"/><path d="M10 4a4 4 0 1 0-6.1 3.388A6 6 0 0 0 0 13h1a5.006 5.006 0 0 1 5-5 4.867 4.867 0 0 1 1.6.276l.765-.765c-.089-.04-.173-.089-.265-.123A3.992 3.992 0 0 0 10 4zM6 7a3 3 0 1 1 3-3 3 3 0 0 1-3 3zm5.957 4.25l1.9 1.9-.708.708-1.9-1.9-1.9 1.9-.708-.708 1.9-1.9-1.9-1.9.708-.708 1.9 1.9 1.9-1.9.708.708z"/></svg>