<svg xmlns="http://www.w3.org/2000/svg" viewBox="0 0 448 448"><path fill-rule="evenodd" clip-rule="evenodd" d="M223.39 102.993s-6.664-29.507 19.512-64.007C272.337.189 313.26 0 313.26 0s6.086 36.475-23.155 71.613c-31.224 37.52-66.715 31.38-66.715 31.38zm122.866 134.421c0-60.107 48.45-84.878 48.45-84.878s-24.772-44.807-87.742-44.807c-36.582 0-64.686 20.816-79.83 20.816-17.64 0-43.971-19.568-77.902-19.568-52.195 0-107.843 46.735-107.843 135.825 0 90.55 65.743 203.198 117.782 203.198 18.164 0 46.055-18.298 74.159-18.298 27.579 0 47.927 17.639 74.103 17.639 56.987 0 99.179-118.753 99.179-118.753s-60.356-23.367-60.356-91.174z"/></svg>