<svg xmlns="http://www.w3.org/2000/svg" viewBox="0 0 16 16" enable-background="new 0 0 16 16"><style type="text/css">.fill-2B2B2B{fill:#2B2B2B;}</style><g id="outline"><path class="fill-2B2B2B" d="M7.5 0c-4.136 0-7.5 3.364-7.5 7.5s3.364 7.5 7.5 7.5 7.5-3.364 7.5-7.5-3.364-7.5-7.5-7.5zm.5 13.975v-.975h-1v.975c-3.185-.245-5.73-2.79-5.975-5.975h.975v-1h-.975c.245-3.185 2.79-5.73 5.975-5.975v.975h1v-.975c3.185.245 5.73 2.79 5.975 5.975h-.975v1h.975c-.245 3.185-2.79 5.73-5.975 5.975zm-4-9.975l2.333 4.667 4.667 2.333-2.333-4.667-4.667-2.333zm2.948 4.052l-1.103-2.207 2.207 1.103 1.104 2.207-2.208-1.103z"/></g></svg>