<svg xmlns="http://www.w3.org/2000/svg" viewBox="0 0 16 16" enable-background="new 0 0 16 16"><style type="text/css">.fill-2B2B2B{fill:#2B2B2B;}</style><g id="outline"><path class="fill-2B2B2B" d="M11.133 6.815c.396-.379.645-.856.645-1.445 0-1.146-.933-2.052-2.078-2.052-1.146 0-2.079.946-2.079 2.092 0 .59.249 1.126.645 1.505-.347.218-.639.513-.857.86-.379-.397-.909-.644-1.499-.644-1.146 0-2.079.933-2.079 2.079 0 .59.249 1.12.645 1.499-.763.48-1.276 1.325-1.276 2.291h1c0-.943.767-1.71 1.71-1.71s1.71.767 1.71 1.71h1c0-.966-.513-1.81-1.276-2.29.396-.379.645-.909.645-1.499 0-.943.767-1.815 1.71-1.815s1.71.604 1.71 1.604h1c0-1-.513-1.705-1.276-2.185zm-5.223 3.475c-.595 0-1.079-.484-1.079-1.079s.484-1.079 1.079-1.079 1.079.484 1.079 1.079-.484 1.079-1.079 1.079zm2.71-4.868c0-.595.484-1.079 1.079-1.079s1.078.484 1.078 1.079-.483 1.079-1.078 1.079-1.079-.484-1.079-1.079z"/><path class="fill-2B2B2B" d="M2.496 12c-.639 0-1.103-.121-1.393-.364-.29-.242-.435-.674-.435-1.295v-1.091c0-.558-.223-.836-.668-.836v-.837c.445 0 .668-.289.668-.868v-1.014c0-.624.144-1.063.431-1.316s.753-.379 1.397-.379v.85c-.469 0-.703.264-.703.791v.968c0 .727-.226 1.186-.677 1.377v.018c.451.188.677.654.677 1.396v.932c0 .297.055.508.165.632.109.124.289.187.538.187v.849zm13.504-3.586c-.448 0-.672.283-.672.85v1.05c0 .64-.143 1.08-.429 1.323-.285.242-.749.363-1.391.363v-.849c.246 0 .425-.062.536-.185.111-.122.167-.33.167-.625v-.968c0-.724.224-1.177.672-1.359v-.019c-.448-.191-.672-.665-.672-1.423v-.931c0-.527-.234-.791-.703-.791v-.85c.639 0 1.102.127 1.389.38s.431.685.431 1.297v1.041c0 .573.224.859.672.859v.837z"/></g></svg>