<svg xmlns="http://www.w3.org/2000/svg" viewBox="0 0 16 16" enable-background="new 0 0 16 16"><style type="text/css">.fill-2B2B2B{fill:#2B2B2B;}</style><path class="fill-2B2B2B" d="M7.5 15c-4.135 0-7.5-3.365-7.5-7.5s3.365-7.5 7.5-7.5 7.5 3.365 7.5 7.5-3.365 7.5-7.5 7.5zm0-14.062c-3.619 0-6.562 2.944-6.562 6.562s2.944 6.562 6.562 6.562 6.562-2.944 6.562-6.562-2.943-6.562-6.562-6.562zm.502 10.078h-1.004v1.004h1.004v-1.004zm0-1.507c0-.343.128-.665.355-.9l1.01-1.011c.415-.43.643-1 .643-1.604 0-1.385-1.126-2.511-2.511-2.511-1.385 0-2.511 1.127-2.511 2.511h1.004c0-.831.676-1.507 1.507-1.507s1.507.676 1.507 1.507c0 .343-.128.665-.355.9l-1.01 1.011c-.414.43-.643.999-.643 1.604v.502h1.004v-.502z" id="outline"/></svg>