<svg xmlns="http://www.w3.org/2000/svg" viewBox="0 0 16 16" enable-background="new 0 0 16 16"><style type="text/css">.fill-2B2B2B{fill:#2B2B2B;}</style><path class="fill-2B2B2B" d="M16 1h-7v-1h-2v1h-7v12h6.433l-2.293 2.293.707.707 3-3h.27l3 3 .707-.707-2.292-2.293h6.468v-12zm-1 11h-14v-10h14v10zm-8-1h-2v-2h2v2zm2-6h-2v-2h2v2zm4 6h-2v-2h2v2zm-2-8v1h1.237c-.903 1.647-2.652 2.708-4.57 2.708-.799 0-1.579-.193-2.289-.541.074-.21.122-.432.122-.667 0-1.103-.897-2-2-2s-2 .897-2 2 .897 2 2 2c.504 0 .96-.194 1.312-.502.88.457 1.855.711 2.855.711 2.215 0 4.23-1.194 5.333-3.052v1.343h1v-3h-3zm-7.5 3.5c-.551 0-1-.449-1-1s.449-1 1-1 1 .449 1 1-.449 1-1 1z" id="outline"/></svg>