<svg xmlns="http://www.w3.org/2000/svg" viewBox="0 0 16 16" enable-background="new 0 0 16 16"><style type="text/css">.fill-2B2B2B{fill:#2B2B2B;}</style><g id="outline"><path class="fill-2B2B2B" d="M8.5 4c1.933 0 3.5 1.567 3.5 3.5v.5h1c1.105 0 2 .895 2 2s-.895 2-2 2h-9c-1.657 0-3-1.343-3-3s1.343-3 3-3c.441 0 .856.101 1.233.271.499-1.324 1.768-2.271 3.267-2.271m0-1c-1.535 0-2.956.803-3.773 2.068-.24-.045-.482-.068-.727-.068-2.206 0-4 1.794-4 4s1.794 4 4 4h9c1.654 0 3-1.346 3-3s-1.346-3-3-3h-.028c-.249-2.247-2.16-4-4.472-4z"/></g></svg>