<svg xmlns="http://www.w3.org/2000/svg" viewBox="0 0 16 16" enable-background="new 0 0 16 16"><style type="text/css">.fill-2B2B2B{fill:#2B2B2B;}</style><g id="outline"><path class="fill-2B2B2B" d="M6.534 6.591l.97.402.383-.924-.968-.401c.049-.216.081-.438.081-.668 0-.23-.032-.453-.081-.668l.968-.401-.383-.924-.971.402c-.24-.381-.562-.703-.943-.943l.402-.971-.923-.382-.401.968c-.216-.049-.438-.081-.668-.081s-.452.032-.668.081l-.401-.968-.924.383.402.971c-.381.24-.703.561-.943.943l-.97-.403-.383.924.968.401c-.049.215-.081.438-.081.668 0 .23.032.452.081.668l-.968.401.383.924.97-.402c.24.381.562.703.943.943l-.402.97.924.383.401-.968c.216.049.438.081.668.081s.452-.032.668-.081l.401.968.924-.383-.402-.97c.381-.241.702-.562.943-.943zm-2.534.409c-1.103 0-2-.897-2-2s.897-2 2-2 2 .897 2 2-.897 2-2 2zm11 3.5c0-.298-.049-.583-.119-.859l1.084-.448-.383-.924-1.086.45c-.299-.5-.714-.915-1.214-1.213l.45-1.086-.924-.383-.449 1.084c-.276-.072-.561-.121-.859-.121s-.583.049-.859.119l-.449-1.084-.924.383.45 1.086c-.5.298-.915.714-1.214 1.213l-1.086-.45-.382.925 1.084.448c-.071.277-.12.562-.12.86 0 .298.049.582.119.859l-1.084.449.383.924 1.086-.45c.299.5.714.915 1.214 1.214l-.45 1.085.924.383.449-1.083c.276.07.561.119.859.119s.583-.049.859-.119l.449 1.083.924-.383-.45-1.085c.5-.299.915-.714 1.214-1.214l1.086.45.383-.924-1.084-.449c.07-.277.119-.561.119-.859zm-3.5 2.5c-1.378 0-2.5-1.121-2.5-2.5s1.122-2.5 2.5-2.5 2.5 1.121 2.5 2.5-1.122 2.5-2.5 2.5z"/></g></svg>