<svg xmlns="http://www.w3.org/2000/svg" viewBox="0 0 16 16" enable-background="new 0 0 16 16"><style type="text/css">.fill-2B2B2B{fill:#2B2B2B;}</style><path class="fill-2B2B2B" d="M10.5 0c-3.033 0-5.5 2.467-5.5 5.5 0 1.337.48 2.563 1.276 3.517l-6.13 6.13c-.195.195-.195.512 0 .707.098.097.226.146.354.146s.256-.049.354-.146l6.13-6.13c.953.796 2.179 1.276 3.516 1.276 3.032 0 5.5-2.467 5.5-5.5s-2.468-5.5-5.5-5.5zm0 10c-2.481 0-4.5-2.019-4.5-4.5s2.019-4.5 4.5-4.5 4.5 2.019 4.5 4.5-2.019 4.5-4.5 4.5z" id="outline"/></svg>