<svg xmlns="http://www.w3.org/2000/svg" viewBox="0 0 16 16" enable-background="new 0 0 16 16"><style type="text/css">.fill-2B2B2B{fill:#2B2B2B;}</style><path class="fill-2B2B2B" d="M15.487 2.327l-.317-.599-3.047 3.045-.898-.898 3.047-3.046-.599-.316c-1.738-.918-3.855-.583-5.269.83-1.101 1.102-1.522 2.625-1.259 4.033l-6.252 6.253.017.017-.191.156c-.959.959-.959 2.52 0 3.479.48.479 1.11.719 1.74.719.63 0 1.26-.24 1.74-.719l.156-.189.008.008 6.262-6.245c.27.051.545.078.82.078 1.157 0 2.322-.446 3.212-1.336 1.413-1.415 1.747-3.532.83-5.27zm-14.061 12.247c-.57-.57-.57-1.497 0-2.066.285-.284.659-.427 1.033-.427.374 0 .748.143 1.033.427.276.276.428.642.428 1.033 0 .39-.152.757-.428 1.033-.571.57-1.497.57-2.066 0zm3.457-1.407c-.078-.514-.31-.991-.684-1.366-.388-.388-.875-.611-1.38-.685l4.685-4.686c.208.442.476.862.84 1.225.363.363.782.632 1.223.84l-4.684 4.672zm9.066-6.278c-1.369 1.368-3.565 1.394-4.899.06-1.334-1.334-1.306-3.532.061-4.899.681-.681 1.598-1.04 2.515-1.04.311 0 .624.041.925.126l-2.08 2.08c-.362.364-.365.952-.006 1.313l1.006 1.006c.174.173.404.269.651.269.25 0 .485-.098.662-.275l2.079-2.079c.334 1.19-.001 2.526-.914 3.439z" id="outline"/></svg>