<svg xmlns="http://www.w3.org/2000/svg" viewBox="0 0 16 16" enable-background="new 0 0 16 16"><style type="text/css">.fill-2B2B2B{fill:#2B2B2B;}</style><path class="fill-2B2B2B" d="M6 6h1v1h-1v-1zm7 1h-1v-1h1v1zm-3 0h-1v-1h1v1zm-4 1h1v1h-1v-1zm-3 0h1v1h-1v-1zm7 1h-1v-1h1v1zm-4 1h1v1h-1v-1zm-3 0h1v1h-1v-1zm3 2h1v1h-1v-1zm-3 0h1v1h-1v-1zm10-12h-1v1h-8v-1h-1v1h-3v14h16v-14h-3v-1zm-12 14v-9h14v9h-14zm14-12v2h-14v-2h2v1h1v-1h8v1h1v-1h2zm-1.354 6.457l.707.707-4.232 4.232-2.1-2.099.707-.707 1.393 1.392 3.525-3.525z" id="outline"/></svg>