<svg xmlns="http://www.w3.org/2000/svg" viewBox="0 0 16 16" enable-background="new 0 0 16 16"><style type="text/css">.fill-2B2B2B{fill:#2B2B2B;}</style><path class="fill-2B2B2B" d="M12.565 7.007c-.166-.376-.377-.727-.629-1.051 1.17-.208 2.064-1.227 2.064-2.456v-1.5h-1v1.5c0 .827-.673 1.5-1.5 1.5h-.5v.024c-.234-.176-.488-.327-.753-.461.161-.331.253-.689.253-1.063 0-.377-.09-.732-.24-1.053l1.094-1.094-.707-.707-.993.993c-.442-.393-1.018-.639-1.654-.639s-1.212.246-1.654.639l-.992-.993-.708.708 1.094 1.093c-.15.321-.24.676-.24 1.053 0 .374.092.732.253 1.063-.265.135-.519.285-.753.461v-.024h-.5c-.827 0-1.5-.673-1.5-1.5v-1.5h-1v1.5c0 1.229.894 2.248 2.064 2.456-.252.323-.462.675-.629 1.051-1.348.035-2.435 1.137-2.435 2.493v1.5h1v-1.5c0-.688.468-1.263 1.101-1.439-.06.307-.101.619-.101.939v2l.02.2-.046-.046c-1.296 1.296-1.296 3.404 0 4.7l.707-.707c-.721-.721-.858-1.798-.432-2.665.636 2.03 2.513 3.518 4.751 3.518s4.115-1.488 4.751-3.519c.426.868.289 1.945-.432 2.666l.707.707c1.296-1.296 1.296-3.404 0-4.7l-.046.046.02-.2v-2c0-.32-.041-.632-.101-.939.633.176 1.101.751 1.101 1.439v1.5h1v-1.5c0-1.356-1.087-2.458-2.435-2.493zm-4.565-5.007c.827 0 1.5.673 1.5 1.5 0 .289-.086.522-.19.707-.887-.254-1.734-.254-2.621 0-.103-.185-.189-.418-.189-.707 0-.827.673-1.5 1.5-1.5zm4 9c0 2.206-1.794 4-4 4s-4-1.794-4-4v-2c0-1.669 1.064-3.175 2.647-3.747.939-.341 1.765-.341 2.704 0 1.585.572 2.649 2.078 2.649 3.747v2z" id="outline"/></svg>