<svg xmlns="http://www.w3.org/2000/svg" viewBox="0 0 16 16" enable-background="new 0 0 16 16"><style type="text/css">.fill-2B2B2B{fill:#2B2B2B;}</style><path class="fill-2B2B2B" d="M0 4v11h15v-11h-3.278c.172-.295.278-.634.278-1 0-1.103-.897-2-2-2-1.043 0-1.962.535-2.5 1.345-.538-.81-1.457-1.345-2.5-1.345-1.103 0-2 .897-2 2 0 .366.106.705.278 1h-3.278zm7 0h-2c-.552 0-1-.448-1-1s.448-1 1-1c1.103 0 2 .897 2 2zm3 0h-2c0-1.103.897-2 2-2 .552 0 1 .448 1 1s-.448 1-1 1zm4 2.5v2.5h-6v-4h6v1.5zm-6 7.5v-4h6v4h-6zm-7 0v-4h6v4h-6zm0-7.5v-1.5h6v4h-6v-2.5z" id="outline"/></svg>