<svg xmlns="http://www.w3.org/2000/svg" viewBox="0 0 16 16" enable-background="new 0 0 16 16"><style type="text/css">.fill-2B2B2B{fill:#2B2B2B;}</style><path class="fill-2B2B2B" d="M8 0c-3.308 0-6 2.692-6 6v4c0 .552.448 1 1 1v1c0 1.654 1.346 3 3 3v.25c0 .414.336.75.75.75h2.5c.414 0 .75-.336.75-.75v-1.5c0-.414-.336-.75-.75-.75h-2.5c-.414 0-.75.336-.75.75v.25c-1.103 0-2-.897-2-2v-1h1v-5h-2c0-2.757 2.243-5 5-5s5 2.243 5 5h-2v5h2c.552 0 1-.448 1-1v-4c0-3.308-2.692-6-6-6zm-1 14h2v1h-2v-1zm-3-7v3h-1v-3h1zm9 3h-1v-3h1v3z" id="outline"/></svg>