<svg xmlns="http://www.w3.org/2000/svg" viewBox="0 0 16 16" enable-background="new 0 0 16 16"><style type="text/css">.fill-2B2B2B{fill:#2B2B2B;}</style><path class="fill-2B2B2B" d="M13 2v-1h-3c-.918 0-1.791.296-2.5.841-.709-.545-1.582-.841-2.5-.841h-3v1h-2v13h15v-13h-2zm-1 0v10h-2c-.714 0-1.397.183-2 .518v-9.78c.555-.47 1.253-.738 2-.738h2zm-9 0h2c.747 0 1.445.268 2 .739v9.78c-.603-.336-1.286-.519-2-.519h-2v-10zm-2 1h1v10h3c.814 0 1.579.306 2.152.859l.146.141h-6.298v-11zm13 11h-6.298l.146-.141c.572-.553 1.337-.859 2.152-.859h3v-10h1v11z" id="outline"/></svg>