<?xml version="1.0" encoding="utf-8"?>
<!-- Generator: Adobe Illustrator 19.1.0, SVG Export Plug-In . SVG Version: 6.00 Build 0)  -->
<svg version="1.1" xmlns="http://www.w3.org/2000/svg" xmlns:xlink="http://www.w3.org/1999/xlink" x="0px" y="0px"
	 viewBox="0 0 16 16" style="enable-background:new 0 0 16 16;" xml:space="preserve">
<style type="text/css">
	.fill-2B2B2B{fill:#2B2B2B;}
</style>
<g id="guides">
</g>
<g id="fill">
</g>
<g id="outline">
	<path class="fill-2B2B2B" d="M8,10c-1.103,0-2-0.897-2-2c0-1.103,0.897-2,2-2c1.103,0,2,0.897,2,2C10,9.103,9.103,10,8,10z
		 M8,7C7.449,7,7,7.449,7,8s0.449,1,1,1s1-0.449,1-1S8.551,7,8,7z M16,8c0-4.411-3.589-8-8-8S0,3.589,0,8
		c0,3.581,2.413,6.749,5.867,7.703l0.267-0.963C3.111,13.904,1,11.133,1,8c0-3.86,3.14-7,7-7c3.859,0,7,3.14,7,7
		c0,2.709-1.587,5.145-4,6.296V12h-1v4h4v-1h-2.147C14.375,13.61,16,10.938,16,8z"/>
	<g>
	</g>
	<g>
	</g>
	<g>
	</g>
	<g>
	</g>
	<g>
	</g>
	<g>
	</g>
</g>
</svg>
