<svg xmlns="http://www.w3.org/2000/svg" viewBox="0 0 16 16" enable-background="new 0 0 16 16"><style type="text/css">.fill-2B2B2B{fill:#2B2B2B;}</style><path class="fill-2B2B2B" d="M7.5 0c-3.033 0-5.5 2.467-5.5 5.5 0 1.459.587 2.83 1.652 3.859.869.84 1.348 1.955 1.348 3.141v2c0 .827.673 1.5 1.5 1.5h2c.827 0 1.5-.673 1.5-1.5v-2c0-1.186.479-2.301 1.348-3.141 1.065-1.029 1.652-2.4 1.652-3.859 0-3.033-2.468-5.5-5.5-5.5zm1 15h-2c-.276 0-.5-.225-.5-.5v-1.5h3v1.5c0 .275-.225.5-.5.5zm2.152-6.359c-.941.909-1.482 2.091-1.602 3.359h-3.1c-.119-1.268-.66-2.45-1.602-3.359-.869-.84-1.348-1.955-1.348-3.141 0-2.481 2.019-4.5 4.5-4.5s4.5 2.019 4.5 4.5c0 1.186-.479 2.301-1.348 3.141z" id="outline"/></svg>