<svg xmlns="http://www.w3.org/2000/svg" viewBox="0 0 16 16" enable-background="new 0 0 16 16"><style type="text/css">.fill-2B2B2B{fill:#2B2B2B;}</style><path class="fill-2B2B2B" d="M15 15v1h-15v-15h1v14h2v-2h1v2h2v-2h1v2h2v-2h1v2h2v-2h1v2h2zm-.023-11.468c0 .827-.673 1.5-1.5 1.5-.132 0-.257-.022-.379-.055l-1.439 2.175c.181.248.291.55.291.88 0 .827-.673 1.5-1.5 1.5s-1.5-.673-1.5-1.5c0-.174.036-.339.09-.494l-1.695-1.272c-.225.136-.486.218-.767.218l-.233-.024-1.795 2.946c.294.274.481.661.481 1.094 0 .827-.673 1.5-1.5 1.5s-1.5-.673-1.5-1.5.673-1.5 1.5-1.5l.09.009 1.844-3.027c-.237-.266-.387-.613-.387-.998 0-.827.673-1.5 1.5-1.5s1.5.673 1.5 1.5c0 .18-.037.351-.095.511l1.684 1.263c.229-.141.495-.227.783-.227.133 0 .261.023.384.056l1.437-2.172c-.182-.248-.294-.552-.294-.883 0-.827.673-1.5 1.5-1.5s1.5.673 1.5 1.5zm-10.946 6.968c0-.275-.224-.5-.5-.5s-.5.225-.5.5.224.5.5.5.5-.225.5-.5zm3.047-5.516c0-.276-.224-.5-.5-.5s-.5.224-.5.5.224.5.5.5.5-.224.5-.5zm3.871 3.047c0-.276-.225-.5-.5-.5s-.5.224-.5.5.225.5.5.5.5-.224.5-.5zm3.028-4.499c0-.276-.225-.5-.5-.5s-.5.224-.5.5.225.5.5.5.5-.224.5-.5z" id="outline"/></svg>