<svg xmlns="http://www.w3.org/2000/svg" viewBox="0 0 16 16" enable-background="new 0 0 16 16"><style type="text/css">.fill-2B2B2B{fill:#2B2B2B;}</style><g id="outline"><path class="fill-2B2B2B" d="M13 1v-1h-11v1h-2v4c0 .827.673 1.5 1.5 1.5.177 0 .343-.039.5-.096v.596c0 2.603 2.201 4.746 5 4.977v1.023h-3v2h-1v1h9v-1h-1v-2h-3v-1.023c2.799-.231 5-2.374 5-4.977v-.596c.157.057.323.096.5.096.827 0 1.5-.673 1.5-1.5v-4h-2zm-11.5 4.5c-.276 0-.5-.224-.5-.5v-3h1v3c0 .276-.224.5-.5.5zm8.5 8.5v1h-5v-1h5zm2-7c0 2.078-1.737 3.775-4 4.001v-.001h-1v.001c-2.264-.226-4-1.923-4-4.001v-6h9v6zm2-2c0 .276-.225.5-.5.5s-.5-.224-.5-.5v-3h1v3z"/></g></svg>