<svg xmlns="http://www.w3.org/2000/svg" viewBox="0 0 16 16" enable-background="new 0 0 16 16"><style type="text/css">.fill-2B2B2B{fill:#2B2B2B;}</style><path class="fill-2B2B2B" d="M4 8c.552 0 1 .448 1 1s-.448 1-1 1-1-.448-1-1 .448-1 1-1zm10.911 1.144s.359-.579-.086-1.302l-2.993-6.7-.147-.209c-.662-1.086-2.191-1.239-3.12-.326l-4.769 4.914c-1.558.107-2.796 1.395-2.796 2.979v6.5h-1v1h8v-1h-1v-6.5c0-.167-.023-.327-.049-.487l3.195-3.292 1.989 4.437-1.135 1.135v1.707h1v-1.293l.852-.852c.144.094.366.144.657.144.252 0 .637-.145.637-.145l.854.853v1.293h1v-1.707l-1.089-1.149zm-8.911 5.856h-4v-6.5c0-1.103.897-2 2-2s2 .897 2 2v6.5zm.568-8.028c-.352-.588-.893-1.042-1.545-1.281l4.259-4.388c.385-.395 1.02-.405 1.414-.021h.001c.192.187.299.436.303.703s-.097.52-.282.712l-4.15 4.275zm4.323-3.019l.543-.56.198-.248 1.722 3.855-.921.393-1.542-3.44zm2.807 4.984c-.313.112-.572-.062-.677-.234l-.178-.398.92-.392.15.336c.108.246.091.578-.215.688z" id="outline"/></svg>