<svg xmlns="http://www.w3.org/2000/svg" viewBox="0 0 16 16" enable-background="new 0 0 16 16"><style type="text/css">.fill-2B2B2B{fill:#2B2B2B;}</style><path class="fill-2B2B2B" d="M13 7c-1.654 0-3 1.346-3 3 0 .647.21 1.243.56 1.733l-3.413 3.413c-.195.195-.195.512 0 .707.097.098.225.147.353.147s.256-.049.354-.146l3.413-3.413c.49.349 1.086.559 1.733.559 1.654 0 3-1.346 3-3s-1.346-3-3-3zm0 5c-1.103 0-2-.897-2-2s.897-2 2-2 2 .897 2 2-.897 2-2 2zm-10-9h10v3h1v-4h-2v-2h-12v9h2v2h7v-1h-6v-7zm-1 5h-1v-7h10v1h-9v6z" id="outline"/></svg>