<svg xmlns="http://www.w3.org/2000/svg" viewBox="0 0 16 16" enable-background="new 0 0 16 16"><style type="text/css">.fill-2B2B2B{fill:#2B2B2B;}</style><path class="fill-2B2B2B" d="M16 8.382l-2.191-4.382h-2.809v-1h-11v9h2.092c.207.581.757 1 1.408 1s1.201-.419 1.408-1h4.184c.207.581.757 1 1.408 1s1.201-.419 1.408-1h4.092v-3.618zm-15-4.382h9v6.092c-.424.151-.757.484-.908.908h-4.184c-.207-.581-.757-1-1.408-1s-1.201.419-1.408 1h-1.092v-7zm2.5 8c-.276 0-.5-.224-.5-.5s.224-.5.5-.5.5.224.5.5-.224.5-.5.5zm7 0c-.276 0-.5-.224-.5-.5s.224-.5.5-.5.5.224.5.5-.224.5-.5.5zm4.5-1h-3.092c-.151-.424-.484-.757-.908-.908v-5.092h2.191l1.809 3.618v2.382z" id="outline"/></svg>