<svg xmlns="http://www.w3.org/2000/svg" viewBox="0 0 16 16" enable-background="new 0 0 16 16"><style type="text/css">.fill-2B2B2B{fill:#2B2B2B;}</style><path class="fill-2B2B2B" d="M8.997 11c-1.101 0-1.997-1.122-1.997-2.5s.896-2.5 1.997-2.5c1.102 0 1.997 1.122 1.997 2.5s-.895 2.5-1.997 2.5zm0-4c-.54 0-.997.687-.997 1.5s.457 1.5.997 1.5.997-.688.997-1.5-.457-1.5-.997-1.5zm-3.499 1c-.275 0-.498.224-.498.5s.223.5.498.5.498-.224.498-.5c.001-.276-.223-.5-.498-.5zm7.004 0c-.275 0-.498.224-.498.5s.223.5.498.5.498-.224.498-.5-.223-.5-.498-.5zm2.498-4v-1.998l-.006-.002h-14.994v9.998l.002.002h1.998v1h14v-9h-1zm-14 7v-8h13v1h-12v7h-1zm2.958-6c-.042.193-.126.417-.296.602-.157.169-.392.265-.662.326v-.928h.958zm-.958 7v-.928c.268.061.501.155.657.322.173.184.257.411.301.606h-.958zm12 0h-.959c.043-.193.126-.417.296-.601.157-.17.392-.265.662-.327v.928zm0-1.961c-.577.081-1.049.305-1.396.681-.383.415-.523.913-.575 1.28h-8.058c-.052-.366-.192-.865-.575-1.28-.347-.376-.818-.601-1.396-.681v-3.077c.578-.081 1.049-.305 1.396-.682.384-.415.524-.913.575-1.28h8.057c.052.367.192.865.575 1.28.348.377.82.601 1.397.682v3.077zm0-4.11c-.268-.061-.501-.155-.657-.321-.173-.185-.257-.412-.301-.608h.958v.929z" id="outline"/></svg>