<svg xmlns="http://www.w3.org/2000/svg" viewBox="0 0 16 16" enable-background="new 0 0 16 16"><style type="text/css">.fill-2B2B2B{fill:#2B2B2B;}</style><path class="fill-2B2B2B" d="M14.75 2h-13.5c-.689 0-1.25.561-1.25 1.25v8.5c0 .689.561 1.25 1.25 1.25h13.5c.689 0 1.25-.561 1.25-1.25v-8.5c0-.689-.561-1.25-1.25-1.25zm-13.5 1h13.5c.138 0 .25.112.25.25v.75h-14v-.75c0-.138.112-.25.25-.25zm13.75 2v1h-14v-1h14zm-.25 7h-13.5c-.138 0-.25-.112-.25-.25v-4.75h14v4.75c0 .138-.112.25-.25.25zm-11.75-1h-1v-1h1v1zm2 0h-1v-1h1v1zm2 0h-1v-1h1v1z" id="outline"/></svg>