<svg xmlns="http://www.w3.org/2000/svg" viewBox="0 0 16 16" enable-background="new 0 0 16 16"><style type="text/css">.fill-2B2B2B{fill:#2B2B2B;}</style><path class="fill-2B2B2B" d="M14.483 5.333c.331-.355.537-.824.537-1.344 0-1.097-.901-1.99-2.01-1.99s-2.01.893-2.01 1.99c0 .516.205.983.532 1.337-.45.217-.826.544-1.094.985-.543-.778-1.441-1.29-2.46-1.29-1.004 0-1.889.5-2.434 1.26-.262-.422-.627-.736-1.061-.948.331-.355.538-.824.538-1.344 0-1.097-.902-1.989-2.011-1.989-1.108 0-2.01.892-2.01 1.989 0 .516.205.983.532 1.337-.91.438-1.532 1.322-1.532 2.674h1c0-1 .897-2 2-2 1.07 0 1.938.941 1.99 1.91l-.011.111c0 .998.495 1.867 1.246 2.412-1.325.652-2.246 1.567-2.246 3.567h1c0-2 1.346-3 3-3 1.655 0 3 1 3 3h1c0-2-.922-2.914-2.246-3.567.752-.546 1.246-1.42 1.246-2.418l-.002-.015h.023c0-1 .898-2 2-2s2 1 2 2h1c0-1.345-.615-2.226-1.517-2.667zm-11.473-2.333c.557 0 1.011.444 1.011.99 0 .545-.454.989-1.011.989-.557 0-1.01-.444-1.01-.99s.453-.989 1.01-.989zm4.969 7.021c-1.103 0-2-.897-2-2l.002-.021h.019l-.009-.101c.064-1.046.926-1.879 1.988-1.879 1.103 0 2 .897 2 2s-.897 2.001-2 2.001zm5.032-7.021c.557 0 1.01.444 1.01.99 0 .545-.453.989-1.01.989-.558 0-1.011-.444-1.011-.99s.453-.989 1.011-.989z" id="outline"/></svg>