<svg xmlns="http://www.w3.org/2000/svg" viewBox="0 0 16 16" enable-background="new 0 0 16 16"><style type="text/css">.fill-2B2B2B{fill:#2B2B2B;}</style><path class="fill-2B2B2B" d="M13 8h-2v-4.293l1-1v-2.707h-3v2.707l1 1v4.293h-2v1h1v5.5c0 .827.673 1.5 1.5 1.5s1.5-.673 1.5-1.5v-5.5h1v-1zm-3-7h1v1.293l-.5.5-.5-.5v-1.293zm1 13.5c0 .276-.224.5-.5.5s-.5-.224-.5-.5v-5.5h1v5.5zm-5.5-14.5c-1.378 0-2.5 1.122-2.5 2.5 0 .781.377 1.52 1 1.99v10.01c0 .827.673 1.5 1.5 1.5s1.5-.673 1.5-1.5v-10.01c.623-.47 1-1.209 1-1.99 0-1.378-1.122-2.5-2.5-2.5zm.748 3.791l-.248.144v10.565c0 .276-.224.5-.5.5s-.5-.224-.5-.5v-10.565l-.248-.144c-.471-.275-.752-.757-.752-1.291 0-.651.419-1.201 1-1.408v1.408l.5.5.5-.5v-1.408c.581.207 1 .757 1 1.408 0 .534-.281 1.016-.752 1.291z" id="outline"/></svg>