<svg xmlns="http://www.w3.org/2000/svg" viewBox="0 0 16 16" enable-background="new 0 0 16 16"><style type="text/css">.fill-2B2B2B{fill:#2B2B2B;}</style><path class="fill-2B2B2B" d="M12 3c0-1.654-1.346-3-3-3-.55 0-1.059.159-1.502.418-.458-.27-.968-.418-1.498-.418-1.654 0-3 1.346-3 3v1h-2v10c0 1.103.897 2 2 2h9c1.103 0 2-.897 2-2v-10h-2v-1zm-1 0v1h-4v-1c0-1.103.897-2 2-2s2 .897 2 2zm-7 0c0-1.103.897-2 2-2 .232 0 .457.049.673.129-.414.515-.673 1.16-.673 1.871v1h-2v-1zm0 11c0 .552-.449 1-1 1s-1-.448-1-1v-9h2v9zm9 0c0 .552-.448 1-1 1h-7.269c.171-.294.269-.636.269-1v-9h8v9z" id="outline"/></svg>