<svg xmlns="http://www.w3.org/2000/svg" viewBox="0 0 16 16" enable-background="new 0 0 16 16"><style type="text/css">.fill-2B2B2B{fill:#2B2B2B;}</style><path class="fill-2B2B2B" d="M3 6h-1v-1h1v1zm1 1h-2v1h2v-1zm9 0h-2v1h2v-1zm0 2h-2v1h2v-1zm-9 0h-2v1h2v-1zm6 0h-5v1h5v-1zm-5-4h-1v1h1v-1zm1 2h-1v1h1v-1zm2 0h-1v1h1v-1zm2 0h-1v1h1v-1zm-3-2h-1v1h1v-1zm2 0h-1v1h1v-1zm2 0h-1v1h1v-1zm2 0h-1v1h1v-1zm2-.877v6.753c0 .621-.48 1.124-1.071 1.124h-12.858c-.591 0-1.071-.503-1.071-1.123v-6.754c0-.62.48-1.123 1.071-1.123h12.857c.592 0 1.072.503 1.072 1.123zm-1-.123h-13v7h13v-7z" id="outline"/></svg>