<svg xmlns="http://www.w3.org/2000/svg" viewBox="0 0 16 16" enable-background="new 0 0 16 16"><style type="text/css">.fill-2B2B2B{fill:#2B2B2B;}</style><path class="fill-2B2B2B" d="M9.025 3.055l-2.538 2.539-.707-.707 1.382-1.382c-2.918.124-5.255 2.53-5.255 5.478 0 .204.013.406.035.604l-.975.234c-.036-.275-.06-.554-.06-.838 0-3.467 2.735-6.299 6.159-6.473l-1.275-1.275.707-.707 2.527 2.527zm1.794 10.212c-.94.752-2.129 1.206-3.423 1.206-1.896 0-3.558-.974-4.544-2.44l1.943.521.259-.966-3.468-.929-.925 3.453.966.259.451-1.682c1.173 1.681 3.117 2.785 5.318 2.785 1.462 0 2.807-.491 3.893-1.31l-.47-.897zm4.261-1.615l-2.054.55c.545-.949.86-2.048.86-3.219 0-2.699-1.662-5.008-4.012-5.985l-.332.942c1.961.838 3.344 2.778 3.344 5.042 0 .851-.202 1.654-.551 2.372l-.412-1.539-.966.259.929 3.468 3.453-.925-.259-.965z" id="outline"/></svg>