<svg xmlns="http://www.w3.org/2000/svg" viewBox="0 0 16 16" enable-background="new 0 0 16 16"><style type="text/css">.st0{fill:#2B2B2B;}</style><path class="st0" d="M10.143 15c-.866 0-1.571-.705-1.571-1.571v-.857c-.001-.316-.257-.572-.572-.572v-1c.315 0 .571-.256.571-.571v-.858c0-.866.705-1.571 1.572-1.571v1c-.316 0-.572.256-.572.571v.857c0 .414-.16.79-.423 1.071.263.281.423.657.423 1.071v.857c0 .315.256.571.571.571v1.002zm4.286-1.571v-.857c0-.316.256-.572.571-.572v-1c-.315 0-.571-.256-.571-.571v-.858c0-.866-.705-1.571-1.572-1.571v1c.315 0 .571.256.571.571v.857c0 .414.16.79.423 1.071-.263.281-.423.657-.423 1.071v.857c0 .315-.256.571-.571.571v1c.867.002 1.572-.703 1.572-1.569zm-4.749-9.134c.557-.459.92-1.061.92-1.837 0-1.379-1.121-2.458-2.5-2.458-1.378 0-2.5 1.143-2.5 2.521 0 .776.363 1.323.92 1.782-.572.315-1.037.826-1.341 1.388-.459-.524-1.127-.862-1.879-.862-1.378 0-2.5 1.128-2.5 2.506 0 .776.363 1.397.92 1.856-1.02.563-1.72 1.814-1.72 2.814h1c0-1 1.032-2.3 2.3-2.3 1.269 0 2.3 1.3 2.3 2.3h1c0-1-.7-2.248-1.72-2.81.557-.459.92-1.13.92-1.906l-.028-.284h.028c0-1 1.032-2.3 2.3-2.3s2.3 1.3 2.3 2.3h1c0-1-.7-2.148-1.72-2.71zm-6.38 4.542c-.827 0-1.5-.673-1.5-1.5s.673-1.5 1.5-1.5 1.5.673 1.5 1.5-.673 1.5-1.5 1.5zm4.8-4.8c-.827 0-1.5-.673-1.5-1.5s.673-1.5 1.5-1.5 1.5.673 1.5 1.5-.673 1.5-1.5 1.5z" id="outline"/></svg>