<svg xmlns="http://www.w3.org/2000/svg" viewBox="0 0 16 16" enable-background="new 0 0 16 16"><style type="text/css">.fill_x002D_2B2B2B{fill:#2B2B2B;}</style><path class="fill_x002D_2B2B2B" d="M8 5h-4v-1h4v1zm2.556 1h-6.556v1h5.555l1.001-1zm-2.001 2h-4.555v1h3.554l1.001-1zm7.052-1.659l-6.607 6.659h-2v-2l6.488-6.779 2.119 2.12zm-2.525 1.126l-.673-.673-4.409 4.607v.599h.583l4.499-4.533zm.559-.563l.555-.559-.693-.693-.545.568.683.684zm-.641-3.904v.284l-.685.716h-3.315v-3h-6v13h9v-2.604l1-1.008v4.612h-11v-15h8l3 3zm-1.414 0l-1.586-1.586v1.586h1.586z" id="outline"/></svg>