<svg xmlns="http://www.w3.org/2000/svg" viewBox="-963 -219 1000 1000" enable-background="new -963 -219 1000 1000"><path d="M-247.563 340.187l-44.187-44.187 100-100-102.875-102.875 44.125-44.188 147.125 147.125s-144.187 144.125-144.188 144.125zm-376.937-40.25l-103.875-103.875 107.812-107.812-44.25-44.188-151.938 152 148.063 148.063s44.188-44.187 44.188-44.188zm125.187 106.063l145.813-437.5h-65.813l-145.812 437.5h65.812zm98.813 125v62.5h187.5v62.5h-500v-62.5h187.5v-62.5h-437.5v-687.5h1000v687.5h-437.5zm375-62.5v-562.5h-875v562.5h875z"/></svg>