<svg xmlns="http://www.w3.org/2000/svg" viewBox="-963 -219 1000 1000" enable-background="new -963 -219 1000 1000"><path d="M-41.125-94h-843.75c-43.063 0-78.125 35.062-78.125 78.125v531.25c0 43.063 35.063 78.125 78.125 78.125h843.75c43.063 0 78.125-35.062 78.125-78.125v-531.25c0-43.063-35.062-78.125-78.125-78.125zm-843.75 62.5h843.75c8.625 0 15.625 7 15.625 15.625v46.875h-875v-46.875c0-8.625 7-15.625 15.625-15.625zm859.375 125v62.5h-875v-62.5h875zm-15.625 437.5h-843.75c-8.625 0-15.625-7-15.625-15.625v-296.875h875v296.875c0 8.625-7 15.625-15.625 15.625zm-734.375-62.5h-62.5v-62.5h62.5v62.5zm125 0h-62.5v-62.5h62.5v62.5zm125 0h-62.5v-62.5h62.5v62.5z"/></svg>