<svg xmlns="http://www.w3.org/2000/svg" viewBox="-963 -219 1000 1000" enable-background="new -963 -219 1000 1000"><path d="M-963 31v687.5h937.5v-687.5h-204.875c10.75-18.438 17.375-39.625 17.375-62.5 0-68.938-56.063-125-125-125-65.188 0-122.625 33.438-156.25 84.063-33.625-50.625-91.063-84.063-156.25-84.063-68.938 0-125 56.063-125 125 0 22.875 6.625 44.062 17.375 62.5h-204.875zm437.5 0h-125c-34.5 0-62.5-28-62.5-62.5s28-62.5 62.5-62.5c68.937 0 125 56.063 125 125zm187.5 0h-125c0-68.938 56.063-125 125-125 34.5 0 62.5 28 62.5 62.5s-28 62.5-62.5 62.5zm250 156.25v156.25h-375v-250h375v93.75zm-375 468.75v-250h375v250h-375zm-437.5 0v-250h375v250h-375zm0-468.75v-93.75h375v250h-375v-156.25z"/></svg>