<svg xmlns="http://www.w3.org/2000/svg" viewBox="-963 -219 1000 1000" enable-background="new -963 -219 1000 1000"><path d="M-463-219c-206.75 0-375 168.25-375 375v250c0 34.5 28 62.5 62.5 62.5v62.5c0 103.375 84.125 187.5 187.5 187.5v15.625c0 25.875 21 46.875 46.875 46.875h156.25c25.875 0 46.875-21 46.875-46.875v-93.75c0-25.875-21-46.875-46.875-46.875h-156.25c-25.875 0-46.875 21-46.875 46.875v15.625c-68.938 0-125-56.063-125-125v-62.5h62.5v-312.5h-125c0-172.313 140.188-312.5 312.5-312.5s312.5 140.188 312.5 312.5h-125v312.5h125c34.5 0 62.5-28 62.5-62.5v-250c0-206.75-168.25-375-375-375zm-62.5 875h125v62.5h-125v-62.5zm-187.5-437.5v187.5h-62.5v-187.5h62.5zm562.5 187.5h-62.5v-187.5h62.5v187.5z"/></svg>