<svg xmlns="http://www.w3.org/2000/svg" viewBox="-963 -219 1000 1000" enable-background="new -963 -219 1000 1000"><path d="M-463 781h-62.5v-62.5h62.5v62.5zm0-187.5h-62.5v-93.75c0-67.125 25.313-130.375 71.25-177.938l125.375-125.375c34.25-35.5 53.375-83.312 53.375-134.187 0-120.625-98.125-218.75-218.75-218.75s-218.75 98.125-218.75 218.75h-62.5c0-155.063 126.187-281.25 281.25-281.25s281.25 126.187 281.25 281.25c0 67.187-25.312 130.375-71.313 178l-125.313 125.375c-34.311 35.5-53.374 83.25-53.374 134.125v93.75z"/></svg>