<svg xmlns="http://www.w3.org/2000/svg" viewBox="-963 -219 1000 1000" enable-background="new -963 -219 1000 1000"><path d="M-775.5 156h-62.5v-62.5h62.5v62.5zm62.5 62.5h-125v62.5h125v-62.5zm562.5 0h-125v62.5h125v-62.5zm0 125h-125v62.5h125v-62.5zm-562.5 0h-125v62.5h125v-62.5zm375 0h-312.5v62.5h312.5v-62.5zm-312.5-250h-62.5v62.5h62.5v-62.5zm62.5 125h-62.5v62.5h62.5v-62.5zm125 0h-62.5v62.5h62.5v-62.5zm125 0h-62.5v62.5h62.5v-62.5zm-187.5-125h-62.5v62.5h62.5v-62.5zm125 0h-62.5v62.5h62.5v-62.5zm125 0h-62.5v62.5h62.5v-62.5zm125 0h-62.5v62.5h62.5v-62.5zm125-54.812v422.062c0 38.813-30 70.25-66.938 70.25h-803.625c-36.937 0-66.937-31.438-66.937-70.188v-422.125c0-38.75 30-70.188 66.938-70.188h803.562c37 .001 67 31.438 67 70.189zm-62.5-7.688h-812.5v437.5h812.5v-437.5z"/></svg>