<svg xmlns="http://www.w3.org/2000/svg" viewBox="-963 -219 1000 1000" enable-background="new -963 -219 1000 1000"><path d="M-398.938-28.062l-158.625 158.687-44.188-44.187 86.375-86.375c-182.375 7.75-328.438 158.125-328.438 342.375 0 12.75.813 25.375 2.188 37.75l-60.938 14.625c-2.25-17.187-3.75-34.625-3.75-52.375 0-216.688 170.937-393.688 384.937-404.563l-79.688-79.688 44.19-44.187s157.937 157.937 157.937 157.938zm112.125 638.25c-58.75 47-133.063 75.375-213.938 75.375-118.5 0-222.375-60.875-284-152.5l121.438 32.563 16.187-60.375-216.75-58.063-57.812 215.812 60.375 16.188 28.188-105.125c73.312 105.063 194.813 174.063 332.375 174.063 91.375 0 175.437-30.688 243.313-81.875-.001-.001-29.376-56.063-29.376-56.063zm266.313-100.938l-128.375 34.375c34.063-59.313 53.75-128 53.75-201.188 0-168.688-103.875-313-250.75-374.063l-20.75 58.875c122.563 52.375 209 173.625 209 315.125 0 53.187-12.625 103.375-34.437 148.25l-25.75-96.187-60.375 16.188 58.062 216.75 215.813-57.813c0 .001-16.188-60.312-16.188-60.312z"/></svg>