<svg xmlns="http://www.w3.org/2000/svg" viewBox="-963 -219 1000 1000" enable-background="new -963 -219 1000 1000"><path d="M-213-31.5c0-103.375-84.125-187.5-187.5-187.5-34.375 0-66.188 9.938-93.875 26.125-28.625-16.875-60.5-26.125-93.625-26.125-103.375 0-187.5 84.125-187.5 187.5v62.5h-125v625c0 68.938 56.063 125 125 125h562.5c68.937 0 125-56.063 125-125v-625h-125v-62.5zm-62.5 0v62.5h-250v-62.5c0-68.938 56.063-125 125-125s125 56.063 125 125zm-437.5 0c0-68.938 56.063-125 125-125 14.5 0 28.563 3.063 42.063 8.063-25.876 32.187-42.063 72.499-42.063 116.937v62.5h-125v-62.5zm0 687.5c0 34.5-28.063 62.5-62.5 62.5s-62.5-28-62.5-62.5v-562.5h125v562.5zm562.5 0c0 34.5-28 62.5-62.5 62.5h-454.313c10.688-18.375 16.813-39.75 16.813-62.5v-562.5h500v562.5z"/></svg>