<svg xmlns="http://www.w3.org/2000/svg" viewBox="-963 -219 1000 1000" enable-background="new -963 -219 1000 1000"><path d="M-494.25-219c-258.5 0-468.75 210.25-468.75 468.75s210.25 468.75 468.75 468.75 468.75-210.25 468.75-468.75-210.25-468.75-468.75-468.75zm31.25 873.438v-60.938h-62.5v60.938c-199.063-15.313-358.125-174.375-373.438-373.438h60.938v-62.5h-60.938c15.313-199.062 174.375-358.125 373.438-373.438v60.938h62.5v-60.938c199.062 15.313 358.125 174.376 373.438 373.438h-60.938v62.5h60.938c-15.313 199.062-174.375 358.125-373.438 373.438zm-250-623.438l145.813 291.688 291.687 145.812-145.813-291.688-291.687-145.812zm184.25 253.25l-68.938-137.937 137.938 68.938 69 137.938c0-.001-138-68.939-138-68.939z"/></svg>