<svg xmlns="http://www.w3.org/2000/svg" viewBox="-963 -219 1000 1000" enable-background="new -963 -219 1000 1000"><path d="M-88 31v-125h-875v565.75c0 67.125 54.625 121.75 121.75 121.75h753.25c68.937 0 125-56.063 125-125v-437.5h-125zm62.5 437.5c0 34.5-28 62.5-62.5 62.5h-753.25c-32.688 0-59.25-26.625-59.25-59.25v-503.25h750v468.75c0 17.25 14 31.25 31.25 31.25s31.25-14 31.25-31.25v-343.75h62.5v375zm-187.5-375h-625v-62.5h625v62.5zm0 375h-250v-62.5h250v62.5zm0-125h-250v-62.5h250v62.5zm0-125h-250v-62.5h250v62.5zm-312.5 250h-312.5v-312.5h312.5v312.5zm-250-62.5h187.5v-187.5h-187.5v187.5z"/></svg>