<svg xmlns="http://www.w3.org/2000/svg" viewBox="-963 -219 1000 1000" enable-background="new -963 -219 1000 1000"><path d="M-554.625 192.938l60.625 25.125 23.938-57.75-60.5-25.063c3.062-13.5 5.063-27.375 5.063-41.75s-2-28.313-5.063-41.75l60.5-25.063-23.938-57.75-60.687 25.125c-15-23.813-35.125-43.938-58.938-58.938l25.125-60.688-57.688-23.875-25.063 60.5c-13.499-3.061-27.374-5.061-41.749-5.061s-28.25 2-41.75 5.063l-25.063-60.5-57.75 23.937 25.125 60.688c-23.813 15-43.938 35.063-58.938 58.938l-60.624-25.189-23.938 57.75 60.5 25.062c-3.062 13.438-5.062 27.376-5.062 41.751s2 28.25 5.063 41.75l-60.5 25.063 23.938 57.75 60.625-25.125c15 23.813 35.125 43.938 58.938 58.938l-25.125 60.625 57.75 23.938 25.063-60.5c13.498 3.061 27.373 5.061 41.748 5.061s28.25-2 41.75-5.063l25.063 60.5 57.75-23.938-25.125-60.625c23.812-15.062 43.874-35.124 58.937-58.936zm-158.375 25.562c-68.938 0-125-56.062-125-125s56.063-125 125-125 125 56.063 125 125-56.063 125-125 125zm687.5 218.75c0-18.625-3.062-36.438-7.438-53.688l67.75-28-23.938-57.75-67.874 28.126c-18.687-31.25-44.625-57.188-75.875-75.813l28.125-67.875-57.75-23.937-28.063 67.75c-17.25-4.5-35.062-7.562-53.688-7.562s-36.438 3.062-53.688 7.438l-28.061-67.752-57.75 23.938 28.125 67.875c-31.25 18.625-57.188 44.625-75.875 75.813l-67.875-28.125-23.875 57.812 67.75 28c-4.438 17.313-7.5 35.125-7.5 53.75s3.063 36.375 7.438 53.688l-67.751 28.062 23.938 57.75 67.875-28.125c18.687 31.25 44.625 57.188 75.875 75.875l-28.125 67.813 57.75 23.937 28.063-67.688c17.25 4.375 35.062 7.438 53.688 7.438s36.438-3.063 53.688-7.438l28.063 67.688 57.75-23.938-28.125-67.813c31.25-18.687 57.188-44.625 75.875-75.875l67.875 28.125 23.935-57.749-67.75-28.063c4.375-17.312 7.438-35.062 7.438-53.687zm-218.75 156.25c-86.125 0-156.25-70.063-156.25-156.25s70.125-156.25 156.25-156.25 156.25 70.063 156.25 156.25-70.125 156.25-156.25 156.25z"/></svg>