<svg xmlns="http://www.w3.org/2000/svg" viewBox="-963 -219 1000 1000" enable-background="new -963 -219 1000 1000"><path d="M-150.5-94v-62.5h-187.5c-57.375 0-111.938 18.5-156.25 52.563-44.313-34.063-98.875-52.563-156.25-52.563h-187.5v62.5h-125v812.5h937.5v-812.5h-125zm-62.5 0v625h-125c-44.625 0-87.313 11.438-125 32.375v-611.25c34.688-29.375 78.313-46.125 125-46.125h125zm-562.5 0h125c46.688 0 90.313 16.75 125 46.188v611.25c-37.688-21-80.375-32.438-125-32.438h-125v-625zm-125 62.5h62.5v625h187.5c50.875 0 98.688 19.125 134.5 53.688l9.125 8.813h-393.625v-687.501zm812.5 687.5h-393.625l9.125-8.813c35.75-34.563 83.563-53.688 134.5-53.688h187.5v-625h62.5v687.501z"/></svg>