<svg xmlns="http://www.w3.org/2000/svg" viewBox="0 0 1000 1000" enable-background="new 0 0 1000 1000"><path d="M672.987 358.265c-24.406-24.411-24.406-63.98 0-88.391 24.406-24.406 63.975-24.406 88.388 0 24.406 24.411 24.406 63.98 0 88.391-24.412 24.406-63.981 24.406-88.388 0zm-429.468 431.685c-.969-47.944 15.896-96.131 51.514-133.281-15.694-15.694-30.674-30.675-44.189-44.193-61.882 63.861-82.374 152.436-62.565 233.355 9.316 2.219 13.249 2.513 18.684 3.419 7.717 1.338 15.514 2.356 23.346 2.838 68.436 4.906 138.313-17.644 191.227-68.919l-44.193-44.194c-37.293 35.762-85.667 52.05-133.824 50.975zm534.925-61.062c24.363 24.362 7.313 46.931-17.069 71.319l-176.776 176.774-44.198-44.194 13.276-12.2c33.054-38.681 20.618-111.806-12.322-162.638-21.984 7.712-44.197 14.9-66.936 20.469l-221.585-221.587c5.108-20.866 11.871-41.183 18.78-61.424-47.406-25.226-103.787-30.727-155.651-10.54l-18.887 7.366-42.808-45.582 176.777-176.777c24.383-24.383 64.026-24.361 88.386 0l47.676 47.676c12.874-16.358 25.757-32.723 40.714-47.676 137.872-137.87 338.56-187.839 530.329-176.776 11.069 191.772-38.906 392.46-176.775 530.331-14.956 14.953-31.319 27.841-47.675 40.716l64.744 64.743zm-482.862-292.727c10.387-22.877 22.221-44.938 35.404-66.342l-55.748-55.751s-80.231 85.003-93.567 95.466c36.125-5.103 77.416 7.508 113.911 26.627zm196.975 272.001c88.081-26.681 165.518-69.819 224.624-128.927 100.862-100.868 157.769-253.54 159.887-425.06-171.512 2.124-324.189 59.028-425.054 159.893-59.109 59.109-102.246 136.539-128.929 224.624l169.472 169.47zm224.624 47.851l-55.75-55.75c-20.244 12.469-41.043 23.781-62.616 33.744 22.4 38.769 36.097 82.531 32.066 109.375l86.3-87.369z"/></svg>