<svg xmlns="http://www.w3.org/2000/svg" viewBox="-963 -219 1000 1000" enable-background="new -963 -219 1000 1000"><path d="M-88 218.563h-437.5v-62.5h437.5v62.5zm0 62.375h-437.5v62.5h437.5v-62.5zm0 124.812h-437.5v62.5h437.5v-62.5zm125-499.75v687.5h-312.5v125h-687.5v-687.5h312.5v-125h687.5zm-937.5 250h250v-62.5h-250v62.5zm562.5 437.5h-500v-62.5h187.5v-62.5h-187.5v-62.5h187.5v-62.5h-187.5v-62.5h187.5v-62.5h-250v437.5h562.5v-62.5zm312.5-500h-562.5v437.5h562.5v-437.5zm0-125h-562.5v62.5h562.5v-62.5z"/></svg>