<svg xmlns="http://www.w3.org/2000/svg" viewBox="-963 -219 1000 1000" enable-background="new -963 -219 1000 1000"><path d="M-150.5 281h-125v-268.313l62.5-62.5v-169.187h-187.5v169.188l62.5 62.5v268.312h-125v62.5h62.5v343.75c0 51.688 42.063 93.75 93.75 93.75s93.75-42.062 93.75-93.75v-343.75h62.5v-62.5zm-187.5-437.5h62.5v80.813l-31.25 31.25-31.25-31.25v-80.813zm62.5 843.75c0 17.25-14 31.25-31.25 31.25s-31.25-14-31.25-31.25v-343.75h62.5v343.75zm-343.75-906.25c-86.125 0-156.25 70.125-156.25 156.25 0 48.813 23.563 95 62.5 124.375v625.625c0 51.688 42.063 93.75 93.75 93.75s93.75-42.063 93.75-93.75v-625.625c38.937-29.375 62.5-75.563 62.5-124.375 0-86.125-70.125-156.25-156.25-156.25zm46.75 236.938l-15.5 9v660.312c0 17.25-14 31.25-31.25 31.25s-31.25-14-31.25-31.25v-660.312l-15.5-9c-29.438-17.188-47-47.313-47-80.687 0-40.688 26.188-75.062 62.5-88v88l31.25 31.25 31.25-31.251v-88c36.313 12.938 62.5 47.313 62.5 88 0 33.375-17.563 63.5-47 80.688z"/></svg>