<svg xmlns="http://www.w3.org/2000/svg" viewBox="0 0 1000 1000" enable-background="new 0 0 1000 1000"><path d="M750 500v-62.5h62.5v-62.5h-125v-143.3l62.5-62.5v-169.2h-187.5v169.2l62.5 62.5v143.3h-125v62.5h62.5v62.5h-125v-219.4c38.9-29.4 62.5-75.5 62.5-124.4 0-86.1-70.1-156.2-156.2-156.2s-156.3 70.1-156.3 156.3c0 48.8 23.6 95 62.5 124.4v219.3h-250v500h1000v-500h-250zm-125-437.5h62.5v80.8l-31.3 31.3-31.2-31.3v-80.8zm0 375h62.5v187.5h-62.5v-187.5zm-62.5 125v62.5h-125v-62.5h125zm-250-494.2v88l31.3 31.3 31.3-31.3v-88c36.3 12.9 62.5 47.3 62.5 88 0 33.4-17.6 63.5-47 80.7l-15.6 9v379h-62.5v-379l-15.5-9.1c-29.4-17.1-47-47.3-47-80.7 0-40.6 26.2-75 62.5-87.9zm-250 494.2h187.5v62.5h-187.5v-62.5zm875 375h-875v-250h187.5v62.5h62.5v-62.5h375v62.5h62.5v-62.5h187.5v250zm0-312.5h-187.5v-62.5h187.5v62.5z"/></svg>