<svg xmlns="http://www.w3.org/2000/svg" viewBox="0 0 1000 1000" enable-background="new 0 0 1000 1000"><path d="M646.019 583.054c97.444-52.471 164.588-154.236 164.588-272.446-.001-171.265-139.344-310.608-310.607-310.608-171.264 0-310.608 139.343-310.608 310.608 0 118.209 67.146 219.974 164.589 272.446-173.481 59.077-295.265 220.996-295.265 416.946h62.5c0-212.4 166.382-378.784 378.784-378.784 215.944 0 378.781 162.841 378.781 378.784h62.5c0-195.95-121.781-357.869-295.262-416.946zm-394.127-272.446c0-136.81 111.298-248.108 248.108-248.108 136.781 0 248.106 111.298 248.106 248.108s-111.325 248.108-248.106 248.108c-136.81 0-248.108-111.298-248.108-248.108z"/></svg>