<?xml version="1.0" encoding="utf-8"?>
<!-- Generator: Adobe Illustrator 19.2.0, SVG Export Plug-In . SVG Version: 6.00 Build 0)  -->
<svg version="1.1" xmlns="http://www.w3.org/2000/svg" xmlns:xlink="http://www.w3.org/1999/xlink" x="0px" y="0px"
	 viewBox="0 0 448 448" style="enable-background:new 0 0 448 448;" xml:space="preserve">
<g>
	<path d="M288,64V32c0-17.645-14.355-32-32-32h-96c-17.645,0-32,14.355-32,32v32H32v32h32v320c0,17.645,14.355,32,32,32h224
		c17.645,0,32-14.355,32-32V96h32V64H288z M160,32h96v32h-96V32z M320,416H96V96h224V416z"/>
	<path d="M120,308h40v-24h-26.228l28.272-44.766l3.958,11.665l22.728-7.711l-16.708-49.243l-49.244,16.708l7.712,22.728l8.738-2.965
		l-33.1,52.41c-3.474,5.499-3.859,11.846-1.031,16.977C107.923,304.936,113.495,308,120,308z"/>
	<path d="M282.229,284h-59.4l7.8-7.8l-16.971-16.971l-36.771,36.77l36.771,36.769l16.971-16.97L222.829,308H296
		c6.504,0,12.076-3.064,14.904-8.194c2.828-5.131,2.443-11.478-1.03-16.979l-11.703-18.529l-20.291,12.817L282.229,284z"/>
	<path d="M208,166.471l36.307,57.485l-13.274-1.997l-3.57,23.733l51.42,7.735l7.735-51.421l-23.732-3.57l-1.214,8.071
		l-36.763-58.208c-3.686-5.835-10.007-9.318-16.909-9.318s-13.223,3.483-16.909,9.319l-13.445,21.288l20.292,12.815L208,166.471z"/>
</g>
<g>
</g>
<g>
</g>
<g>
</g>
<g>
</g>
<g>
</g>
<g>
</g>
</svg>
