<svg xmlns="http://www.w3.org/2000/svg" viewBox="0 0 448 448"><path d="M390.625 0H256v224h32V32h64v64h64v160h32V57.375L390.625 0zM384 64V38.625L409.375 64H384zM260.688 276.688l22.625 22.625L320 262.625V352h-96V202.672c0-36.656-58.063-53.344-112-53.344S0 166.016 0 202.672v191.984C0 431.313 58.063 448 112 448s112-16.688 112-53.344V384h128V262.625l36.688 36.688 22.625-22.625L336 201.375l-75.312 75.313zM112 181.328c50.641 0 77.703 15.234 79.953 21.344C189.688 208.766 162.609 224 112 224c-51.141 0-78.223-15.551-80-21.066v-.088c1.762-5.963 28.83-21.518 80-21.518zM111.984 416C60.703 416 33.625 400.375 32 394.656V241.15C53.67 251.104 83.28 256 111.997 256c28.719 0 48.003-4.898 80.003-14.854v153.291c0 5.938-28.734 21.563-80.016 21.563z"/></svg>