<svg xmlns="http://www.w3.org/2000/svg" viewBox="0 0 448 448"><path d="M448 144c0-61.75-50.25-112-112-112-56.773 0-103.318 42.631-110.531 97.469-50.031 6.58-89.42 45.969-96 96C74.631 232.682 32 279.227 32 336c0 61.75 50.25 112 112 112 56.773 0 103.318-42.631 110.531-97.469 50.031-6.58 89.42-45.969 96-96C405.369 247.318 448 200.773 448 144zM144 416c-44.109 0-80-35.875-80-80s35.891-80 80-80 80 35.875 80 80-35.891 80-80 80zm110.236-97.437c-7.547-47.721-45.078-85.252-92.797-92.799C168.195 188.447 200.766 160 240 160c44.125 0 80 35.891 80 80 0 39.25-28.436 71.809-65.764 78.563zm96-96.002c-7.547-47.719-45.076-85.25-92.797-92.797C264.193 92.447 296.752 64 336 64c44.125 0 80 35.891 80 80 0 39.236-28.436 71.807-65.764 78.561z"/></svg>