<svg xmlns="http://www.w3.org/2000/svg" viewBox="0 0 448 448"><path d="M363.85 146.98c-8.59-61.928-61.883-109.756-126.135-109.756-42.561 0-82.012 21.789-105.35 56.336a111.01 111.01 0 0 0-18.08-1.479C51.629 92.081.652 143.056.652 205.712c0 56.396 41.406 102.967 95.348 111.783V416h256v-96.654h9.143c47.533 0 86.205-38.67 86.205-86.203 0-46.629-37.211-84.729-83.498-86.163zM137.656 386.188l-15.844-15.844L156.156 336l-34.344-34.344 15.844-15.844L187.844 336l-50.188 50.188zm124.735-11.813H192V352h70.391v22.375zM361.143 288H352v-32H96v29.801c-36.613-8.338-64-40.949-64-80.088 0-45.443 36.84-82.285 82.285-82.285 12.094 0 23.49 2.762 33.832 7.447 13.682-36.33 48.482-62.305 89.598-62.305 53.018 0 96 42.982 96 96v13.715h27.428c30.299 0 54.857 24.559 54.857 54.857C416 263.439 391.441 288 361.143 288z"/></svg>