<svg xmlns="http://www.w3.org/2000/svg" viewBox="0 0 448 448"><path d="M363.852 146.98C355.26 85.053 301.969 37.225 237.715 37.225c-42.561 0-82.012 21.789-105.35 56.336a111.028 111.028 0 0 0-18.08-1.479C51.629 92.082.654 143.057.654 205.713c0 44.52 25.973 82.744 63.346 101.375V416h320V315.879c36.4-10.09 63.348-43.168 63.348-82.736 0-46.629-37.211-84.729-83.496-86.163zM352 384H96V256h256v128zm32-101.127V224H64v46.416c-19.338-15.059-32-38.297-32-64.703 0-45.443 36.84-82.285 82.285-82.285 12.094 0 23.49 2.762 33.832 7.447 13.682-36.33 48.482-62.305 89.598-62.305 53.02 0 96 42.982 96 96v13.715h27.428c30.299 0 54.857 24.559 54.857 54.857 0 22.112-13.154 41.049-32 49.731zm-242.344 74.783l-11.313-11.313L156.688 320l-26.344-26.344 11.313-11.313L179.313 320l-37.657 37.656zM248 360h-64v-16h64v16z"/></svg>