<svg xmlns="http://www.w3.org/2000/svg" viewBox="0 0 448 448"><path d="M372.572 166.857h-13.721C358.238 101.211 304.646 48 238.857 48c-44.16 0-84.775 24.928-105.463 63.4a102.532 102.532 0 0 0-28.252-3.973C47.168 107.428 0 154.596 0 212.57c0 57.977 47.168 105.143 105.143 105.143h8.252v80.892h253.21v-80.892h5.967c41.592 0 75.428-33.836 75.428-75.428s-33.836-75.428-75.428-75.428zM352 384H128V224h224v160zm20.572-82.287h-5.967v-92.32h-253.21v92.32h-8.252C55.91 301.713 16 261.803 16 212.57s39.91-89.143 89.143-89.143c13.102 0 25.447 2.99 36.652 8.068C156.615 92.139 194.316 64 238.857 64c57.438 0 104 46.563 104 104v14.857h29.715c32.822 0 59.428 26.605 59.428 59.428 0 32.82-26.605 59.428-59.428 59.428zm-206.916 55.943l-11.313-11.313L196.688 304l-42.344-42.344 11.313-11.313L219.313 304l-53.657 53.656zM264 360h-48v-16h48v16z"/></svg>