<svg xmlns="http://www.w3.org/2000/svg" viewBox="0 0 448 448"><path d="M191.646 61.508c-68.253 0-123.2 54.977-123.2 123.27v133.23c0 68.292 54.947 123.272 123.2 123.272H324.8c68.254 0 123.2-54.98 123.2-123.272v-133.23c0-68.293-54.946-123.27-123.2-123.27H191.647zm-26.135 64.747c25.43 0 46.05 20.625 46.05 46.07 0 25.444-20.613 46.072-46.043 46.072h-.003c-25.43 0-46.043-20.627-46.043-46.072 0-25.443 20.614-46.07 46.044-46.07zM312.36 238.32c43.983 0 79.64 35.68 79.64 79.69s-35.658 79.69-79.643 79.69c-43.986 0-79.644-35.677-79.645-79.69 0-44.01 35.657-79.69 79.644-79.69zM43.558 6.72C67.61 6.72 87.11 26.232 87.11 50.3s-19.5 43.58-43.556 43.58S0 74.37 0 50.3 19.5 6.72 43.556 6.72z"/></svg>