<svg xmlns="http://www.w3.org/2000/svg" viewBox="0 0 448 448"><path d="M441.61 179.363C429.495 162.463 415.53 160 405.96 160h-91.04c.816-2.856 1.632-6.794 2.448-9.634 2.856-10.184 5.805-20.728 9.51-24.918 21.433-24.274 28.84-57.068 24.917-75.63-5.367-25.342-24.133-34.333-38.568-34.333-15.722 0-27.616 9.21-36.97 17.998L152.125 160C151.765 160.36 0 160 0 160v256h350.255c18.955 0 35.713-12.082 41.644-30.032L444.8 224c5.835-25.224 1.694-38.4-3.19-44.637zm-24.48 29.343L361.428 375.8c-1.6 4.833-6.09 8.2-11.172 8.2H128l.54-192h15.237c11.737 0 22.768-3.363 31.07-11.664l124.13-124.13c11.032-10.327 18.638-12.597 21.37.28 1.766 8.317-2.45 30.564-17.573 47.702-12.03 13.635-14.734 35.074-21.59 54.73-6.43 18.433-6.522 28.734.964 33.082h123.81c3.83 0 7.312 2.976 9.54 6.083 2.26 3.107 2.857 6.982 1.633 10.623z"/></svg>