<svg xmlns="http://www.w3.org/2000/svg" viewBox="0 0 448 448"><path d="M308 326c-1.08 0-2.088.26-3.152.318l-65.514-131.553 74.19-148.48-12.83-38.09-77.136 154.893-77.138-154.893-12.826 38.09 74.19 148.48-65.474 131.47c-.783-.032-1.52-.235-2.31-.235-31.985 0-58 26.016-58 58s26.015 58 58 58 58-26.016 58-58c0-21.14-11.487-39.484-28.427-49.62l53.984-108.042 54.172 108.418c-16.569 10.22-27.729 28.387-27.729 49.244 0 31.984 26.016 58 58 58s58-26.016 58-58-26.016-58-58-58zm-168 84c-14.344 0-26-11.656-26-26s11.656-26 26-26 26 11.656 26 26-11.656 26-26 26zm168 0c-14.344 0-26-11.656-26-26s11.656-26 26-26 26 11.656 26 26-11.656 26-26 26z"/></svg>