<svg xmlns="http://www.w3.org/2000/svg" viewBox="0 0 448 448"><path d="M368 143.092c0-79.406-64.595-144-144-144-79.406 0-144 64.594-144 144 0 42.393 18.754 80.172 48 106.547v199.328l96-48 96 48V249.639c29.245-26.375 48-64.155 48-106.547zm-256 0c0-61.75 50.25-112 112-112s112 50.25 112 112-50.25 112-112 112-112-50.25-112-112zm176 254.124l-64-32-64 32V271.41c19.367 9.707 40.902 15.682 64 15.682s44.633-5.975 64-15.682v125.806zm-64-174.124c44.125 0 80-35.891 80-80s-35.875-80-80-80-80 35.891-80 80 35.875 80 80 80zm0-128c26.469 0 48 21.531 48 48s-21.531 48-48 48-48-21.531-48-48 21.531-48 48-48z"/></svg>