<?xml version="1.0" encoding="utf-8"?>
<!-- Generator: Adobe Illustrator 20.0.0, SVG Export Plug-In . SVG Version: 6.00 Build 0)  -->
<svg version="1.1" xmlns="http://www.w3.org/2000/svg" xmlns:xlink="http://www.w3.org/1999/xlink" x="0px" y="0px"
	 viewBox="0 0 448 448" style="enable-background:new 0 0 448 448;" xml:space="preserve">
<path d="M368,143.092c0-79.406-64.595-144-144-144c-79.406,0-144,64.594-144,144c0,42.393,18.754,80.172,48,106.547v199.328l96-48
	l96,48V249.639C349.245,223.264,368,185.484,368,143.092z M112,143.092c0-61.75,50.25-112,112-112s112,50.25,112,112
	s-50.25,112-112,112S112,204.842,112,143.092z M288,397.216l-64-32l-64,32V271.41c19.367,9.707,40.902,15.682,64,15.682
	s44.633-5.975,64-15.682V397.216z M224,223.092c44.125,0,80-35.891,80-80s-35.875-80-80-80s-80,35.891-80,80
	S179.875,223.092,224,223.092z M224,95.092c26.469,0,48,21.531,48,48s-21.531,48-48,48s-48-21.531-48-48S197.531,95.092,224,95.092z
	"/>
<g>
</g>
<g>
</g>
<g>
</g>
<g>
</g>
<g>
</g>
<g>
</g>
</svg>
