<svg xmlns="http://www.w3.org/2000/svg" viewBox="0 0 448 448"><path d="M272 224c0 26.512-21.491 48-48 48-26.512 0-48-21.488-48-48 0-26.509 21.488-48 48-48 26.509 0 48 21.491 48 48zm-113.094 72.594c-20.563-18.469-32.359-44.922-32.359-72.531 0-27.688 11.844-54.172 32.484-72.641l-21.344-23.844c-27.422 24.531-43.141 59.703-43.141 96.484 0 36.688 15.672 71.781 42.984 96.344l21.376-23.812zm194.563-72.656c0-36.672-15.656-71.781-43-96.344l-21.375 23.813c20.563 18.484 32.375 44.922 32.375 72.531 0 27.656-11.844 54.156-32.5 72.656l21.375 23.813c27.406-24.563 43.125-59.719 43.125-96.469zm-261.516 130C53.297 318.688 32 271.094 32 219.922c0-47.203 18.516-92.109 52.156-126.484L61.281 71.063C21.766 111.438 0 164.313 0 219.922c0 59.422 25.656 116.891 70.391 157.641l21.562-23.625zM448 219.922c0-55.656-21.781-108.547-61.344-148.938L363.781 93.39C397.469 127.75 416 172.688 416 219.922c0 51.234-21.313 98.859-60.031 134.047l21.563 23.688C422.313 336.906 448 279.406 448 219.922z"/></svg>