<svg xmlns="http://www.w3.org/2000/svg" viewBox="0 0 448 448"><path d="M257.133 405.522L254.018 416H96l3.965-10.478c15.858-.378 26.336-1.699 31.434-3.965 8.307-3.209 14.442-7.646 18.407-13.31 6.23-8.873 12.649-24.732 19.257-47.575l66.832-231.646c5.664-19.257 8.496-33.794 8.496-43.611 0-4.909-1.227-9.062-3.681-12.46-2.454-3.398-6.192-5.985-11.195-7.778-5.003-1.794-14.763-2.7-29.3-2.7L203.611 32H352l-3.115 10.478c-12.083-.189-21.05 1.133-26.903 3.965-8.496 3.776-14.971 9.156-19.408 16.142-4.437 6.985-10.138 22.466-17.123 46.442l-66.549 231.646c-6.041 21.333-9.062 34.926-9.062 40.779 0 4.72 1.171 8.741 3.549 12.045 2.341 3.304 6.117 5.853 11.327 7.627 5.174 1.812 15.992 3.265 32.417 4.398z"/></svg>