<svg xmlns="http://www.w3.org/2000/svg" viewBox="0 0 448 448" enable-background="new 0 0 448 448"><path d="M208 32c-114.688 0-208 93.312-208 208s93.312 208 208 208 208-93.312 208-208-93.312-208-208-208zm148.571 208c0 30.228-9.185 58.308-24.752 81.797l-205.617-205.62c23.489-15.567 51.569-24.748 81.798-24.748 81.919 0 148.571 66.652 148.571 148.571zm-297.142 0c0-30.228 9.184-58.308 24.752-81.797l205.617 205.617c-23.489 15.567-51.569 24.752-81.797 24.752-81.921-.001-148.572-66.653-148.572-148.572z"/></svg>