<svg xmlns="http://www.w3.org/2000/svg" viewBox="0 0 448 448"><path d="M224 352h-32v-32h32v32zm0-64h-32v-6.344c0-17.36 6.547-33.703 18.453-46.03l28.14-28.142c5.907-6.14 9.282-14.594 9.282-23.61C247.875 161.89 229.985 144 208 144s-39.875 17.89-39.875 39.875h-32C136.125 144.25 168.375 112 208 112s71.875 32.25 71.875 71.875c0 17.36-6.563 33.703-18.47 46.03l-28.124 28.142c-5.902 6.14-9.28 14.594-9.28 23.61V288H224zm-16 160C93.313 448 0 354.688 0 240S93.313 32 208 32s208 93.313 208 208-93.312 208-208 208zm0-384c-97.047 0-176 78.953-176 176 0 97.031 78.953 176 176 176 97.031 0 176-78.969 176-176 0-97.047-78.969-176-176-176z"/></svg>