<svg xmlns="http://www.w3.org/2000/svg" viewBox="0 0 448 448"><path d="M367.43 260.12c-2.334-.968-4.733-1.4-7.098-2.136L354.67 224h-37.334l-5.658 33.941a81.958 81.958 0 0 0-13.672 5.664l-28-20.002-26.402 26.398 20.026 28.034c-1.15 2.195-2.544 4.198-3.51 6.534-.968 2.334-1.398 4.731-2.136 7.098L224 317.33v37.334l33.941 5.658a81.958 81.958 0 0 0 5.664 13.672l-20.002 28 26.398 26.4 28.034-20.024c2.195 1.15 4.198 2.544 6.534 3.51 2.334.968 4.731 1.398 7.098 2.136L317.33 448h37.333l5.659-33.941a81.958 81.958 0 0 0 13.672-5.664l28 20.002 26.4-26.398-20.024-28.032c1.15-2.197 2.544-4.198 3.51-6.536.968-2.334 1.398-4.731 2.136-7.098L448 354.67v-37.334l-33.941-5.658a81.958 81.958 0 0 0-5.664-13.672l20.002-28-26.398-26.4-28.034 20.024c-2.195-1.15-4.199-2.544-6.535-3.51zm15.917 83.769c-4.357 26.149-29.087 43.815-55.236 39.458-26.149-4.357-43.815-29.088-39.458-55.236 4.357-26.149 29.088-43.815 55.236-39.458 26.149 4.357 43.815 29.087 39.458 55.236zM192 335.934L86.938 448H3.734l96-160H6.109l144-288H316.25l-95.984 160h136.672l-30 32H163.734L259.75 32h-89.859l-112 224h98.375l-96 160h12.797L192 289.133v46.801z"/></svg>