<svg xmlns="http://www.w3.org/2000/svg" viewBox="0 0 448 448"><path d="M288 64v-32c0-17.645-14.355-32-32-32h-96c-17.645 0-32 14.355-32 32v32h-96v32h32v320c0 17.645 14.355 32 32 32h224c17.645 0 32-14.355 32-32v-320h32v-32h-96zm-128-32h96v32h-96v-32zm160 384h-224v-320h224v320zm-200-108h40v-24h-26.228l28.272-44.766 3.958 11.665 22.728-7.715-16.708-49.243-49.244 16.708 7.712 22.73 8.738-2.965-33.1 52.41c-3.474 5.5-3.86 11.846-1.03 16.977 2.824 5.135 8.396 8.199 14.902 8.199zm162.23-24h-59.4l7.8-7.8-16.972-16.97-36.77 36.77 36.77 36.768 16.97-16.97-7.8-7.798h73.172c6.504 0 12.076-3.064 14.904-8.194 2.828-5.13 2.443-11.478-1.03-16.98l-11.704-18.526-20.29 12.817 4.35 6.885zm-74.23-117.53l36.307 57.486-13.274-1.997-3.57 23.73 51.42 7.734 7.735-51.42-23.732-3.57-1.214 8.07-36.762-58.203c-3.687-5.836-10.008-9.32-16.91-9.32s-13.223 3.484-16.91 9.32l-13.444 21.288 20.292 12.815 10.062-15.933z"/></svg>