<svg xmlns="http://www.w3.org/2000/svg" viewBox="0 0 448 448" enable-background="new 0 0 448 448"><path d="M80 102.625l-52.688 52.688-22.624-22.625 52.687-52.688-52.687-52.687 22.625-22.625 52.687 52.687 52.688-52.688 22.625 22.625-52.688 52.688 52.688 52.688-22.625 22.625-52.688-52.688zm343.156-13.766c-33.156-33.125-87-33.078-120.031 0l-107.141 107.125c-16.031 16.031-24.859 37.344-24.859 60.016 0 22.688 8.828 43.969 24.859 60 3.75 3.75 7.75 7.063 11.938 9.969l18.25-26.313c-2.656-1.844-5.188-3.906-7.563-6.281-9.984-9.969-15.484-23.25-15.484-37.375s5.5-27.406 15.484-37.391l107.141-107.125c20.625-20.578 54.156-20.594 74.781 0 20.594 20.609 20.594 54.156 0 74.766l-38.969 38.953 22.625 22.625 38.969-38.953c33.063-33.094 33.063-86.922 0-120.016zm-117.781 98.094l-18.75 25.938c2.344 1.688 4.625 3.578 6.75 5.719 10 10 15.5 23.266 15.5 37.391s-5.5 27.406-15.5 37.375l-107.125 107.155c-20.609 20.625-54.125 20.656-74.766 0-20.609-20.625-20.609-54.156 0-74.781l38.953-38.969-22.625-22.625-38.953 38.969c-33.078 33.094-33.078 86.938 0 120.031 16.547 16.531 38.281 24.813 60 24.813 21.734 0 43.469-8.281 60.016-24.813l107.125-107.156c16.031-16 24.875-37.313 24.875-60 0-22.672-8.844-43.984-24.844-59.984-3.343-3.36-6.937-6.375-10.656-9.063z"/></svg>