<svg xmlns="http://www.w3.org/2000/svg" viewBox="0 0 448 448"><path d="M183.828 187.066l25.516 10.574 12.25-29.563-25.416-10.533A86.028 86.028 0 0 0 198 140c0-6.018-.645-11.883-1.826-17.555l25.42-10.523-12.25-29.563-25.52 10.566a86.528 86.528 0 0 0-24.76-24.754L169.64 42.64l-29.563-12.25-10.535 25.432C123.875 54.643 118.014 54 112 54s-11.875.643-17.543 1.822L83.922 30.391l-29.563 12.25 10.576 25.531a86.528 86.528 0 0 0-24.76 24.754L14.655 82.36l-12.25 29.563 25.42 10.523A86.056 86.056 0 0 0 26 140c0 6.014.643 11.877 1.822 17.545L2.406 168.078l12.25 29.563 25.516-10.574a86.488 86.488 0 0 0 24.762 24.762L54.36 237.345l29.563 12.25 10.533-25.416C100.123 225.357 105.986 226 112 226s11.877-.643 17.545-1.822l10.533 25.416 29.563-12.25-10.574-25.516a86.472 86.472 0 0 0 24.761-24.762zM112 194c-29.781 0-54-24.219-54-54s24.219-54 54-54 54 24.219 54 54-24.219 54-54 54zm310 100c0-7.916-1.154-15.523-2.9-22.912l28.682-11.869-12.25-29.563-28.77 11.906a100.25 100.25 0 0 0-32.326-32.324l11.908-28.754-29.563-12.25-11.871 28.668C337.521 195.156 329.914 194 322 194s-15.521 1.156-22.91 2.902l-11.871-28.668-29.563 12.25 11.908 28.754a100.266 100.266 0 0 0-32.326 32.326l-28.754-11.908-12.25 29.563L224.9 271.09c-1.746 7.389-2.9 14.996-2.9 22.91s1.154 15.52 2.902 22.908l-28.668 11.873 12.25 29.563 28.756-11.908a100.288 100.288 0 0 0 32.32 32.32L257.656 407.5l29.563 12.25 11.867-28.654C306.477 392.844 314.084 394 322 394s15.523-1.156 22.914-2.904l11.867 28.654 29.563-12.25-11.904-28.744a100.257 100.257 0 0 0 32.318-32.318l28.773 11.906 12.25-29.563-28.684-11.869C420.846 309.521 422 301.914 422 294zm-100 68c-37.5 0-68-30.5-68-68s30.5-68 68-68 68 30.5 68 68-30.5 68-68 68z"/></svg>