<svg xmlns="http://www.w3.org/2000/svg" viewBox="0 0 448 448" enable-background="new 0 0 448 448"><path d="M131.423 252h-38.846l-65.329 196h29.504l18.669-56h73.158l18.669 56h29.504l-65.329-196zm-46.668 112l27.245-81.73 27.245 81.73h-54.49zm152.794-22.226l-34.917.541c-1.543 0-2.436-.176-2.707-.541-.271-.365-.406-1.218-.406-2.571v-20.977c0-1.624.189-2.612.541-2.977.352-.271 1.218-.406 2.571-.406l34.917.541h69.835c-.352-10.11-.947-17.77-1.759-23.008 8.743.812 14.968 1.448 18.677 1.895 6.848-4.777 16.457-12.817 28.827-24.09h-67.398l-36.541.541c-1.543 0-2.436-.176-2.707-.541s-.406-1.177-.406-2.436v-20.707c0-1.529.189-2.436.541-2.707.352-.271 1.218-.406 2.571-.406l36.541.541h81.474c3.871 0 6.767-.365 8.662-1.083 1.353-.541 2.517-.812 3.519-.812 2.084 0 5.874 2.842 11.368 8.526 5.603 6.05 8.391 10.286 8.391 12.722 0 2.26-1.489 4.101-4.466 5.549-2.436 1.259-6.226 4.06-11.368 8.391-19.408 15.97-34.998 27.704-46.827 35.188v2.436h70.105l34.647-.541c1.624 0 2.571.23 2.842.677.271.365.406 1.259.406 2.707v20.977c0 1.448-.162 2.328-.46 2.639-.325.311-1.245.474-2.788.474l-34.647-.541h-70.105v14.211l.812 38.436c0 9.027-2.788 15.605-8.391 19.759-5.332 3.884-19.435 5.82-42.361 5.82-4.412 0-7.092-.447-7.985-1.353-.812-.812-1.759-3.248-2.842-7.308-1.624-6.862-4.547-13.764-8.797-20.707 10.746 1.083 20.626 1.624 29.639 1.624 4.412 0 7.362-.717 8.797-2.165 1.353-1.259 2.03-3.519 2.03-6.767v-41.549h-69.835zm160.646-144.947l36.541-.541c1.624 0 2.571.176 2.842.541.352.271.541.988.541 2.165l-.541 15.564v12.722l.541 31.805c0 1.529-.217 2.436-.677 2.707-.352.271-1.272.406-2.707.406h-23.008c-1.435 0-2.301-.176-2.571-.541-.271-.365-.406-1.218-.406-2.571v-36.812h-175.397v36.812c0 1.624-.217 2.612-.677 2.977-.352.271-1.272.406-2.707.406h-22.466c-1.543 0-2.49-.23-2.842-.677-.271-.365-.406-1.259-.406-2.707l.541-31.805v-10.286l-.541-18c0-1.259.189-2.03.541-2.301.352-.271 1.272-.406 2.707-.406l36.541.541h60.226v-2.436c0-12.18-.623-20.977-1.895-26.391 9.122 0 19.083.447 29.91 1.353 2.788.271 4.195 1.218 4.195 2.842 0 .907-.595 2.666-1.759 5.278-.893 2.802-1.353 8.296-1.353 16.511v2.842h64.827zm-254.289-192.827c-77.188 0-140 62.797-140 140 0 47.465 23.865 89.336 60.094 114.664v-34.664h2.498c-7.279-7.164-13.816-15.1-19.01-24h43.359c1 8.729 2.33 16.613 3.855 24h28.639c-1.674-6.805-3.16-14.682-4.334-24h40.993v-28h-43.434c-.422-8.576-.66-17.865-.66-28 0-10.076.273-19.346.736-28h54.51c.484 8.58.754 17.887.754 28 0 5.896-.219 10.764-.357 16h28.039c.123-5.348.318-10.727.318-16 0-9.895-.338-19.092-.811-28h52.832c2.342 9.002 3.979 18.275 3.979 28 0 5.475-.602 10.779-1.473 16h27.855c.615-5.316 1.617-10.521 1.617-16 .001-77.203-62.811-140-139.999-140zm-55.271 168h-52.75c-2.342-9.002-3.979-18.275-3.979-28s1.637-18.998 3.979-28h52.777c-.432 8.895-.756 18.053-.756 28 0 9.973.317 19.109.729 28zm2.326-84h-43.473c12.373-21.211 31.162-38.156 54.088-47.564-4.865 12.558-8.353 28.544-10.615 47.564zm28.305 0c5.041-37.887 15.043-56 24.641-56 7.824 0 18.91 16.273 24.482 56h-49.123zm77.359 0c-2.416-18.965-6.086-35.115-11.154-47.803 23.254 9.348 42.348 26.363 54.854 47.803h-43.7z"/></svg>