<svg xmlns="http://www.w3.org/2000/svg" viewBox="0 0 448 448" enable-background="new 0 0 448 448"><path d="M112 288c0 17.656-14.359 32-32 32v32h96c32.771 0 59.545-24.848 63.254-56.629l178.121-178.121c19.469-19.484 19.469-51.172 0-70.625-18.875-18.875-51.75-18.875-70.625 0l-178.121 178.121c-31.793 3.707-56.629 30.481-56.629 63.254zm148.006-58.631l-28.106 28.106c-5.881-10.725-14.65-19.494-25.375-25.375l28.096-28.096c9.93 6.941 18.406 15.414 25.385 25.365zm-84.006 90.631h-40.594c5.469-9.406 8.594-20.344 8.594-32 0-17.656 14.359-32 32-32s32 14.344 32 32-14.359 32-32 32zm193.375-250.75c7-7 18.375-7 25.375 0s7 18.375 0 25.375l-111.191 111.191c-7.303-9.559-15.826-18.076-25.377-25.373l111.193-111.193zm78.625 186.75v160h-448v-352h256v32h-224v288h384v-128h32z"/></svg>