<svg xmlns="http://www.w3.org/2000/svg" viewBox="0 0 448 448" enable-background="new 0 0 448 448"><path d="M324.11 75.208c18.745-18.745 49.137-18.745 67.882 0 18.745 18.745 18.745 49.137 0 67.882-18.745 18.745-49.137 18.745-67.882 0-18.745-18.745-18.745-49.137 0-67.882zm-90.51 25.592c23.859 0 43.2-19.341 43.2-43.2s-19.341-43.2-43.2-43.2-43.2 19.341-43.2 43.2 19.341 43.2 43.2 43.2zm-97.298 35.502c14.996-14.996 14.996-39.31 0-54.306s-39.31-14.996-54.306 0-14.996 39.31 0 54.306 39.31 14.996 54.306 0zm-45.102 97.298c0-18.557-15.043-33.6-33.6-33.6s-33.6 15.043-33.6 33.6 15.043 33.6 33.6 33.6 33.6-15.043 33.6-33.6zm38.314 104.086c-11.247-11.247-29.482-11.247-40.729 0s-11.247 29.482 0 40.729 29.482 11.247 40.729 0 11.247-29.482 0-40.729zm104.086 47.914c-13.255 0-24 10.745-24 24s10.745 24 24 24 24-10.745 24-24-10.745-24-24-24zm110.874-41.126c-7.498 7.498-7.498 19.655 0 27.153 7.498 7.498 19.655 7.498 27.153 0 7.498-7.498 7.498-19.655 0-27.153-7.498-7.498-19.655-7.498-27.153 0zm50.726-110.874c0 7.953 6.447 14.4 14.4 14.4s14.4-6.447 14.4-14.4-6.447-14.4-14.4-14.4-14.4 6.447-14.4 14.4z"/></svg>