<svg xmlns="http://www.w3.org/2000/svg" viewBox="0 0 448 448" enable-background="new 0 0 448 448"><path d="M168 168c0 15.462-12.534 28-28 28-15.462 0-28-12.538-28-28s12.538-28 28-28c15.466 0 28 12.538 28 28zm140-28c-15.462 0-28 12.538-28 28s12.538 28 28 28c15.466 0 28-12.538 28-28s-12.534-28-28-28zm139.844 84c0-123.437-100.406-223.844-223.844-223.844s-223.844 100.407-223.844 223.844 100.407 223.844 223.844 223.844 223.844-100.406 223.844-223.844zm-31.688 0c0 105.969-86.188 192.156-192.156 192.156-105.953 0-192.156-86.188-192.156-192.156 0-105.953 86.203-192.156 192.156-192.156 105.969 0 192.156 86.203 192.156 192.156zm-73.843 62.75l-28.625-14.313c-17.25 34.531-51.625 55.969-89.688 55.969-38.078 0-72.438-21.438-89.688-55.969l-28.625 14.313c22.703 45.438 68.031 73.656 118.313 73.656s95.625-28.218 118.313-73.656z"/></svg>