<svg xmlns="http://www.w3.org/2000/svg" viewBox="0 0 448 448"><path d="M308 168c-77.203 0-140 62.797-140 140 0 77.188 62.797 140 140 140 77.188 0 140-62.813 140-140 0-77.203-62.812-140-140-140zm1.848 251.813c-.631.01-1.215.188-1.848.188-9.377 0-19.838-15.82-24.896-56h50.152c-5.178 45.015-16.529 54.522-23.408 55.812zM280.66 336c-.422-8.576-.66-17.865-.66-28 0-10.076.273-19.346.736-28h54.51c.484 8.58.754 17.887.754 28 0 10.32-.25 19.477-.625 28H280.66zM196 308c0-9.725 1.637-18.998 3.979-28h52.777c-.432 8.895-.756 18.053-.756 28 0 9.973.316 19.109.729 28h-52.75c-2.342-9.002-3.979-18.275-3.979-28zm112-112c7.824 0 18.91 16.273 24.482 56h-49.123c5.041-37.887 15.043-56 24.641-56zm55.189 84h52.832c2.342 9.002 3.979 18.275 3.979 28s-1.637 18.998-3.979 28h-52.578c.359-9.375.557-18.771.557-28 0-9.895-.338-19.092-.811-28zm41.229-28h-43.699c-2.416-18.965-6.086-35.115-11.154-47.803 23.253 9.348 42.347 26.364 54.853 47.803zM265.67 204.436c-4.865 12.559-8.354 28.545-10.615 47.564h-43.473c12.373-21.211 31.162-38.156 54.088-47.564zM211.582 364h43.359c2.182 19.043 5.582 34.951 10.34 47.443-22.76-9.435-41.394-26.347-53.699-47.443zm139.633 47.289c5.139-13.6 8.387-29.754 10.209-47.289h42.994c-12.221 20.949-30.654 37.816-53.203 47.289zM208 160h-80V64h32v64h48v32zm-80 94.383v32C56.197 278.305 0 217.928 0 144 0 64.594 64.594 0 144 0c73.928 0 134.305 56.197 142.383 128h-32C246.535 73.867 200.271 32 144 32 82.25 32 32 82.25 32 144c0 56.271 41.867 102.535 96 110.383z"/></svg>