<svg xmlns="http://www.w3.org/2000/svg" viewBox="0 0 448 448"><path d="M320 448h-96V224h96v224zm-64-32h32V256h-32v160zm192 32h-96V224h96v224zm-64-32h32V256h-32v160zM192 217.386c-5.197.989-10.522 1.616-16 1.616-47.143 0-85.501-38.362-85.501-85.501C90.499 86.358 128.857 48 176 48c47.155 0 85.501 38.358 85.501 85.501 0 22.672-9.021 43.178-23.475 58.499h39.635c10.006-17.235 15.84-37.165 15.84-58.499C293.501 68.704 240.781 16 176 16 111.203 16 58.499 68.704 58.499 133.501c0 41.024 21.216 77.098 53.174 98.122C52.013 256.23 11.014 314.422 11.014 384h32c0-74.595 58.406-132.998 132.986-132.998 5.517 0 10.694.925 16 1.517v-35.133z"/></svg>