<svg xmlns="http://www.w3.org/2000/svg" viewBox="0 0 448 448"><path d="M135.656 67.781l-22.615-22.615C141.846 17.33 180.879 0 224 0c88.219 0 160 71.781 160 160v156.125l-32-32V160c0-70.578-57.422-128-128-128-34.301 0-65.34 13.736-88.344 35.781zM284.125 352l32 32H288c0 35.297-28.703 64-64 64s-64-28.703-64-64H32v-32h32V160c0-8.746 1.225-17.174 2.582-25.543L96 163.875V352h188.125zM256 384h-64c0 17.641 14.359 32 32 32s32-14.359 32-32zM43.313 20.688L20.688 43.311l384 384 22.625-22.623-384-384z"/></svg>