<svg xmlns="http://www.w3.org/2000/svg" viewBox="0 0 448 448"><path d="M223.956 167.917h-69.93v200.28H98.573v-200.28H28.968v-45.011h194.989v45.011zm21.752 190.881v-54.734c9.9 8.319 20.667 14.55 32.297 18.728 11.633 4.174 23.37 6.228 35.254 6.228 6.951 0 12.998-.612 18.219-1.873 5.188-1.261 9.51-2.987 13.001-5.221 3.455-2.231 6.047-4.823 7.777-7.85a19.823 19.823 0 0 0 2.559-9.83c0-4.823-1.371-9.074-4.108-12.854-2.736-3.746-6.482-7.238-11.198-10.406-4.753-3.204-10.336-6.302-16.851-9.255a652.627 652.627 0 0 0-21.029-9.074c-19.159-7.957-33.455-17.718-42.85-29.24-9.399-11.523-14.115-25.42-14.115-41.733 0-12.784 2.555-23.732 7.703-32.913 5.114-9.181 12.102-16.744 20.959-22.684 8.824-5.907 19.049-10.262 30.678-13.072 11.633-2.81 23.945-4.215 36.947-4.215 12.784 0 24.089.793 33.956 2.341 9.867 1.512 18.975 3.89 27.293 7.094v51.132c-4.104-2.843-8.606-5.365-13.429-7.526a109.37 109.37 0 0 0-14.982-5.402c-5.114-1.405-10.225-2.485-15.302-3.131a102.483 102.483 0 0 0-14.44-1.047c-6.268 0-11.991.612-17.105 1.803-5.151 1.187-9.469 2.88-12.998 5.041-3.529 2.161-6.268 4.753-8.212 7.777-1.943 3.027-2.916 6.412-2.916 10.192 0 4.104 1.08 7.777 3.241 11.018 2.161 3.241 5.258 6.338 9.255 9.255 3.997 2.88 8.82 5.76 14.51 8.532 5.726 2.81 12.172 5.69 19.336 8.643 9.83 4.104 18.617 8.462 26.431 13.072 7.813 4.646 14.513 9.83 20.096 15.664 5.579 5.833 9.864 12.459 12.854 19.915 2.954 7.489 4.428 16.165 4.428 26.106 0 13.684-2.592 25.17-7.777 34.458-5.188 9.292-12.246 16.818-21.139 22.577-8.894 5.763-19.229 9.904-31.04 12.389-11.81 2.518-24.27 3.779-37.375 3.779-13.433 0-26.254-1.15-38.389-3.422-12.133-2.305-22.682-5.723-31.539-10.262z"/></svg>