<svg xmlns="http://www.w3.org/2000/svg" viewBox="0 0 448 448"><path d="M130.375 432.844c-11.453 5.531-26.391 8.313-44.844 8.313-24.063 0-42.984-7.094-56.766-21.25-13.781-14.125-20.672-32.969-20.672-56.531 0-25.094 7.75-45.438 23.25-61.031 15.484-15.594 35.594-23.406 60.313-23.406 15.313 0 28.219 1.938 38.719 5.781v34.031c-10.5-6.281-22.453-9.406-35.875-9.406-14.734 0-26.609 4.625-35.656 13.875-9.047 9.281-13.563 21.813-13.563 37.625 0 15.188 4.266 27.281 12.797 36.281s20.016 13.5 34.453 13.5c13.781 0 26.391-3.344 37.844-10.063v32.281zm138.031-111.375l-4.281 19.688h-20.219l-6.016 27.125h22.641l-4.922 19.688h-21.766l-8.531 37.875h-21.875l7.984-37.875h-25.047l-8.094 37.875h-21.875l7.766-37.875h-20.344l4.047-19.688h20.563l5.797-27.125H152.14l3.719-19.688h22.422l8.094-38.938h22.422l-8.094 38.938h25.047l8.313-38.938h22.188l-8.078 38.938h20.233zm-46.593 19.687h-25.375l-6.016 27.125h25.266l6.125-27.125zM294.623 0H64v256h32V32h160v128h128v256h-96v32h128V121.375L294.623 0zM288 128V38.623L377.377 128H288z"/></svg>