<svg xmlns="http://www.w3.org/2000/svg" viewBox="0 0 448 448"><path d="M53.266 393.969V448H17.938V291.156h55.344c39.516 0 59.281 16.656 59.281 49.969 0 15.75-5.672 28.5-17 38.25-11.344 9.719-26.5 14.594-45.453 14.594H53.266zm0-75.688v48.906h13.891c18.813 0 28.219-8.25 28.219-24.75 0-16.094-9.406-24.156-28.219-24.156H53.266zm220.484-27.125l-51.063 101.063V448h-35.328v-55.125l-49.766-101.719h40.359l25.266 58.531c.438 1.063 1.641 5.344 3.609 12.781h.438c.953-5.25 2.078-9.375 3.391-12.344l25.703-58.969h37.391zM294.624 0H64v256h32V32h160v128h128v256H256v32h160V121.376L294.624 0zM288 128V38.624L377.376 128H288z"/></svg>