<svg xmlns="http://www.w3.org/2000/svg" viewBox="0 0 448 448"><path d="M174.361 273.415c0 36.145-8.4 63.846-25.164 83.025-16.723 19.183-40.979 28.812-72.721 28.812-14.187 0-27.303-2.455-39.351-7.333v-57.065c10.421 7.925 22.072 11.89 34.993 11.89 27.741 0 41.612-20.611 41.612-61.744V110.576h60.632v162.839zm46.685 96.778v-60.238c10.9 9.155 22.75 16.013 35.549 20.607 12.799 4.598 25.72 6.858 38.795 6.858 7.65 0 14.309-.674 20.055-2.062 5.706-1.388 10.462-3.287 14.305-5.746 3.806-2.455 6.66-5.312 8.563-8.64 1.863-3.328 2.812-6.935 2.812-10.819 0-5.308-1.506-9.987-4.517-14.147-3.015-4.123-7.134-7.966-12.328-11.452-5.231-3.531-11.371-6.935-18.545-10.186a716.897 716.897 0 0 0-23.143-9.987c-21.082-8.757-36.815-19.499-47.159-32.181-10.344-12.682-15.534-27.977-15.534-45.93 0-14.069 2.812-26.118 8.481-36.223 5.625-10.105 13.315-18.428 23.062-24.965 9.711-6.501 20.964-11.298 33.767-14.386 12.799-3.092 26.353-4.638 40.658-4.638 14.069 0 26.512.872 37.371 2.577 10.859 1.664 20.887 4.281 30.038 7.808v56.274c-4.516-3.133-9.472-5.905-14.78-8.283a120.255 120.255 0 0 0-16.488-5.945c-5.625-1.546-11.253-2.735-16.841-3.449-5.588-.791-10.9-1.148-15.892-1.148-6.895 0-13.197.674-18.826 1.984-5.665 1.307-10.421 3.169-14.305 5.547-3.884 2.378-6.895 5.231-9.037 8.559-2.139 3.328-3.21 7.053-3.21 11.217 0 4.517 1.189 8.559 3.567 12.126s5.787 6.976 10.186 10.186c4.399 3.169 9.711 6.339 15.973 9.39 6.298 3.092 13.392 6.262 21.281 9.512 10.819 4.517 20.489 9.313 29.088 14.386 8.599 5.113 15.969 10.819 22.113 17.239s10.859 13.712 14.147 21.914c3.251 8.246 4.874 17.795 4.874 28.731 0 15.06-2.853 27.705-8.559 37.927-5.706 10.226-13.473 18.509-23.261 24.848-9.792 6.343-21.163 10.9-34.161 13.635-13.002 2.772-26.71 4.16-41.137 4.16-14.784 0-28.89-1.27-42.245-3.766-13.356-2.537-24.97-6.299-34.717-11.294z"/></svg>