<svg xmlns="http://www.w3.org/2000/svg" viewBox="0 0 448 448"><path d="M214.491 363.075c-17.589 8.552-40.559 12.774-68.906 12.774-36.975 0-66.068-10.831-87.21-32.569-21.214-21.735-31.782-50.72-31.782-86.908 0-38.547 11.913-69.805 35.705-93.784 23.827-23.976 54.713-35.966 92.698-35.966 23.528 0 43.362 2.987 59.494 8.926v52.25c-16.132-9.638-34.508-14.453-55.126-14.453-22.633 0-40.895 7.133-54.79 21.36-13.894 14.231-20.84 33.503-20.84 57.819 0 23.303 6.536 41.867 19.685 55.685 13.068 13.856 30.737 20.767 52.92 20.767 21.18 0 40.563-5.155 58.151-15.462v49.561zm212.103-171.058l-6.57 30.256H388.95l-9.263 41.679h34.807l-7.542 30.252h-33.464l-13.11 58.113h-33.613l12.288-58.113h-38.509l-12.433 58.113h-33.617l11.952-58.113H235.15l6.238-30.252h31.594l8.926-41.679h-33.984l5.752-30.256h34.436l12.433-59.83h34.474l-12.475 59.83h38.509l12.774-59.83h34.099l-12.403 59.83h31.071zm-71.595 30.255h-38.995l-9.225 41.679h38.807l9.413-41.679z"/></svg>