<svg xmlns="http://www.w3.org/2000/svg" viewBox="0 0 448 448"><path d="M99.436 448H73.592v-46.531H26.28V448H.53V333.719h25.75v45.594h47.312v-45.594h25.844V448zm106.375-93.312h-32.594V448h-25.813v-93.313h-32.438v-20.969h90.844v20.97zM351.405 448h-25.438v-68.375c0-7.375.313-15.531.969-24.469h-.656c-1.313 7.031-2.5 12.063-3.563 15.156L295.936 448h-21.031l-27.25-76.906c-.75-2.063-1.969-7.375-3.594-15.938h-.719c.688 11.281 1.031 21.156 1.031 29.656V448h-23.188V333.719h37.687l23.344 67.75a92.586 92.586 0 0 1 4.063 16.344h.5c1.438-6.344 2.938-11.844 4.531-16.5l23.344-67.594h36.75V448zm94.031 0h-68.063V333.719h25.75v93.406h42.313V448zM96 288V32h160v128h128v128h32V121.376L294.624 0H64v288h32zM288 38.624L377.376 128H288V38.624z"/></svg>