<svg xmlns="http://www.w3.org/2000/svg" viewBox="0 0 448 448"><path d="M148 168C70.813 168 8 230.813 8 308s62.813 140 140 140 140-62.813 140-140-62.813-140-140-140zm1.846 251.811c-.63.01-1.213.189-1.846.189-9.376 0-19.837-15.821-24.896-56h50.15c-5.177 45.014-16.528 54.525-23.408 55.811zM120.659 336c-.422-8.576-.659-17.866-.659-28 0-10.074.275-19.347.739-28h54.506c.486 8.579.755 17.888.755 28 0 10.32-.25 19.475-.624 28h-54.717zM36 308c0-9.725 1.635-18.998 3.978-28h52.778c-.433 8.896-.756 18.051-.756 28 0 9.971.317 19.11.73 28H39.978C37.635 326.998 36 317.725 36 308zm112-112c7.824 0 18.909 16.272 24.483 56H123.36c5.04-37.882 15.043-56 24.64-56zm55.19 84h52.832c2.342 9.002 3.978 18.275 3.978 28s-1.635 18.998-3.978 28h-52.579c.358-9.376.557-18.771.557-28 0-9.894-.339-19.091-.81-28zm41.229-28H200.72c-2.416-18.966-6.086-35.117-11.155-47.802 23.254 9.348 42.349 26.362 54.854 47.802zm-138.752-47.562c-4.864 12.557-8.355 28.541-10.614 47.562H51.581c12.374-21.21 31.165-38.154 54.086-47.562zM51.581 364h43.36c2.182 19.043 5.584 34.95 10.339 47.443-22.758-9.437-41.392-26.349-53.699-47.443zm139.635 47.29c5.136-13.6 8.384-29.754 10.208-47.29h42.995c-12.221 20.95-30.656 37.818-53.203 47.29zM294.624 0H64v128h32V32h160v128h128v256h-96v32h128V121.376L294.624 0zM288 128V38.624L377.376 128H288z"/></svg>