<svg xmlns="http://www.w3.org/2000/svg" viewBox="0 0 448 448"><path d="M121.063 435.375c-10.625 5.156-24.5 7.719-41.625 7.719-22.375 0-39.938-6.563-52.719-19.688C13.906 410.281 7.5 392.781 7.5 370.906c0-23.313 7.219-42.188 21.594-56.688C43.5 299.75 62.156 292.5 85.125 292.5c14.188 0 26.188 1.781 35.938 5.375v31.594c-9.75-5.844-20.844-8.75-33.313-8.75-13.688 0-24.719 4.313-33.125 12.906-8.375 8.594-12.563 20.25-12.563 34.938 0 14.094 3.938 25.313 11.875 33.656 7.906 8.375 18.563 12.563 32 12.563 12.781 0 24.5-3.125 35.125-9.344v29.937zm18.687-.406v-32.5c5.906 4.969 12.313 8.656 19.219 11.125s13.875 3.719 20.906 3.719c4.125 0 7.75-.375 10.813-1.125 3.094-.75 5.656-1.781 7.719-3.094s3.625-2.875 4.625-4.656c1.031-1.813 1.531-3.75 1.531-5.844 0-2.844-.813-5.406-2.438-7.625-1.625-2.25-3.844-4.313-6.656-6.188-2.813-1.906-6.156-3.719-10-5.5a324.601 324.601 0 0 0-12.5-5.375c-11.375-4.75-19.844-10.531-25.438-17.375s-8.375-15.094-8.375-24.781c0-7.563 1.531-14.094 4.563-19.531 3.063-5.469 7.188-9.938 12.438-13.469s11.344-6.125 18.25-7.781 14.219-2.469 21.938-2.469c7.563 0 14.281.438 20.156 1.375 5.844.906 11.25 2.313 16.188 4.188v30.375c-2.438-1.688-5.094-3.188-7.969-4.469s-5.844-2.344-8.875-3.188a69.11 69.11 0 0 0-9.094-1.875c-3.031-.406-5.875-.625-8.594-.625-3.719 0-7.094.375-10.156 1.063-3.031.719-5.625 1.719-7.719 3s-3.719 2.844-4.875 4.625c-1.156 1.813-1.719 3.813-1.719 6.031 0 2.438.656 4.625 1.938 6.563s3.094 3.75 5.469 5.5c2.375 1.719 5.25 3.406 8.656 5.063a184.9 184.9 0 0 0 11.469 5.125c5.813 2.438 11.031 5.031 15.688 7.781 4.625 2.75 8.625 5.844 11.938 9.281 3.313 3.469 5.844 7.406 7.594 11.844 1.781 4.438 2.656 9.594 2.656 15.469 0 8.125-1.531 14.969-4.625 20.469-3.063 5.531-7.25 10-12.531 13.406-5.281 3.438-11.438 5.875-18.438 7.375s-14.406 2.219-22.188 2.219c-8 0-15.594-.656-22.813-2.031-7.22-1.345-13.438-3.376-18.751-6.095zm116.563 0v-32.5c5.906 4.969 12.313 8.656 19.219 11.125s13.875 3.719 20.906 3.719c4.125 0 7.75-.375 10.813-1.125 3.094-.75 5.656-1.781 7.719-3.094s3.625-2.875 4.625-4.656c1.031-1.813 1.531-3.75 1.531-5.844 0-2.844-.813-5.406-2.438-7.625-1.625-2.25-3.844-4.313-6.656-6.188-2.813-1.906-6.156-3.719-10-5.5a324.601 324.601 0 0 0-12.5-5.375c-11.375-4.75-19.844-10.531-25.438-17.375s-8.375-15.094-8.375-24.781c0-7.563 1.531-14.094 4.563-19.531 3.063-5.469 7.188-9.938 12.438-13.469s11.344-6.125 18.25-7.781 14.219-2.469 21.938-2.469c7.563 0 14.281.438 20.156 1.375 5.844.906 11.25 2.313 16.188 4.188v30.375c-2.438-1.688-5.094-3.188-7.969-4.469s-5.844-2.344-8.875-3.188a69.11 69.11 0 0 0-9.094-1.875c-3.031-.406-5.875-.625-8.594-.625-3.719 0-7.094.375-10.156 1.063-3.031.719-5.625 1.719-7.719 3s-3.719 2.844-4.875 4.625c-1.156 1.813-1.719 3.813-1.719 6.031 0 2.438.656 4.625 1.938 6.563s3.094 3.75 5.469 5.5c2.375 1.719 5.25 3.406 8.656 5.063a184.9 184.9 0 0 0 11.469 5.125c5.813 2.438 11.031 5.031 15.688 7.781 4.625 2.75 8.625 5.844 11.938 9.281 3.313 3.469 5.844 7.406 7.594 11.844 1.781 4.438 2.656 9.594 2.656 15.469 0 8.125-1.531 14.969-4.625 20.469-3.063 5.531-7.25 10-12.531 13.406-5.281 3.438-11.438 5.875-18.438 7.375s-14.406 2.219-22.188 2.219c-8 0-15.594-.656-22.813-2.031-7.22-1.345-13.439-3.376-18.751-6.095zM96 256V32h160v128h128v288h32V121.375L294.623 0H64v256h32zM288 38.625L377.377 128H288V38.625z"/></svg>