<svg xmlns="http://www.w3.org/2000/svg" viewBox="0 0 448 448"><path d="M34.609 394.5v50.938H1.297V297.563h52.188c37.266 0 55.891 15.719 55.891 47.125 0 14.844-5.344 26.875-16.031 36.031C82.656 389.906 68.375 394.5 50.5 394.5H34.609zm0-71.375v46.094h13.094c17.75 0 26.609-7.75 26.609-23.281 0-15.219-8.859-22.813-26.609-22.813H34.609zm89.625 116.625v-33c5.984 5.031 12.469 8.813 19.484 11.313s14.094 3.75 21.25 3.75c4.188 0 7.844-.375 10.984-1.125 3.125-.75 5.734-1.813 7.828-3.156s3.672-2.906 4.703-4.719a11.946 11.946 0 0 0 1.547-5.938c0-2.906-.828-5.469-2.484-7.75-1.641-2.25-3.906-4.344-6.75-6.281-2.859-1.938-6.234-3.781-10.156-5.563s-8.156-3.625-12.688-5.469c-11.547-4.813-20.156-10.688-25.828-17.625-5.672-6.969-8.516-15.344-8.516-25.188 0-7.688 1.547-14.313 4.641-19.844s7.313-10.094 12.641-13.656 11.5-6.219 18.5-7.906c7.016-1.656 14.438-2.5 22.281-2.5 7.703 0 14.516.438 20.469 1.375s11.438 2.375 16.453 4.281v30.844a48.214 48.214 0 0 0-8.094-4.531 61.607 61.607 0 0 0-9.031-3.25 65.756 65.756 0 0 0-9.219-1.906 61.473 61.473 0 0 0-8.719-.625c-3.781 0-7.219.344-10.313 1.063-3.094.75-5.703 1.75-7.844 3.063-2.125 1.313-3.781 2.875-4.953 4.688-1.156 1.813-1.75 3.875-1.75 6.125 0 2.469.656 4.688 1.969 6.656 1.297 1.969 3.156 3.813 5.563 5.563s5.328 3.469 8.766 5.156 7.328 3.438 11.656 5.219c5.906 2.469 11.219 5.094 15.938 7.875 4.703 2.813 8.734 5.938 12.109 9.438 3.375 3.531 5.953 7.531 7.734 12.031s2.688 9.75 2.688 15.719c0 8.25-1.578 15.188-4.703 20.781s-7.375 10.156-12.734 13.625-11.594 5.969-18.719 7.469c-7.109 1.5-14.625 2.25-22.531 2.25-8.109 0-15.828-.688-23.156-2.063-7.312-1.345-13.656-3.408-19.016-6.189zm194.079-145.5v151.188h-32.469V330.969c-1.781 1.594-3.906 3.063-6.344 4.5-2.438 1.406-5.031 2.656-7.781 3.813a70.538 70.538 0 0 1-8.563 2.875c-2.969.781-5.875 1.375-8.781 1.719v-27.438c8.469-2.5 16.438-5.656 23.938-9.5s14.25-8.063 20.313-12.688h19.687zM294.624 0H64v256h32V32h160v128h128v288h32V121.376L294.624 0zM288 128V38.624L377.376 128H288z"/></svg>