<svg xmlns="http://www.w3.org/2000/svg" viewBox="0 0 448 448"><path d="M96 288V32h160v128h128v128h32V121.376L294.624 0H64v288h32zM288 38.624L377.376 128H288V38.624zM62.641 396.938c0 16.5-3.828 29.156-11.469 37.906C43.516 443.594 32.453 448 17.953 448 11.484 448 5.5 446.875 0 444.656v-26.063c4.75 3.625 10.078 5.438 15.969 5.438 12.672 0 19-9.406 19-28.188v-73.25h27.672v74.345zm21.312 44.187v-27.5c4.984 4.188 10.391 7.313 16.234 9.406s11.75 3.125 17.719 3.125c3.484 0 6.531-.313 9.141-.938s4.781-1.5 6.531-2.625 3.047-2.438 3.922-3.938a10.112 10.112 0 0 0 1.281-4.938c0-2.438-.688-4.563-2.063-6.469-1.375-1.875-3.25-3.625-5.625-5.219-2.375-1.625-5.203-3.156-8.469-4.656s-6.781-3-10.563-4.563c-9.625-4-16.813-8.906-21.531-14.688-4.734-5.781-7.094-12.781-7.094-20.969 0-6.406 1.281-11.938 3.875-16.531 2.563-4.625 6.078-8.406 10.516-11.406 4.438-2.969 9.578-5.156 15.422-6.563s12.031-2.125 18.563-2.125c6.422 0 12.109.406 17.063 1.188 4.953.75 9.531 1.938 13.719 3.563v25.688c-2.063-1.438-4.313-2.688-6.75-3.781s-4.938-2-7.531-2.719a52.052 52.052 0 0 0-7.688-1.563 49.701 49.701 0 0 0-7.25-.531c-3.156 0-6.031.313-8.594.906-2.594.594-4.766 1.438-6.531 2.531-1.781 1.094-3.156 2.406-4.125 3.906-.984 1.531-1.469 3.219-1.469 5.125 0 2.063.547 3.906 1.625 5.531 1.094 1.625 2.641 3.188 4.656 4.656 2 1.438 4.438 2.875 7.297 4.281s6.109 2.844 9.703 4.344c4.938 2.063 9.359 4.25 13.281 6.563 3.922 2.344 7.297 4.938 10.094 7.875 2.813 2.938 4.969 6.25 6.453 10S168 406.219 168 411.219c0 6.875-1.297 12.625-3.906 17.313-2.609 4.656-6.156 8.438-10.625 11.344-4.469 2.875-9.656 4.969-15.594 6.219-5.922 1.281-12.188 1.906-18.781 1.906-6.75 0-13.188-.594-19.281-1.719-6.11-1.157-11.391-2.876-15.86-5.157zM240.359 448c-17.641 0-32.031-5.75-43.141-17.25-11.109-11.469-16.672-26.438-16.672-44.906 0-19.469 5.641-35.219 16.922-47.25 11.297-12.031 26.25-18.063 44.875-18.063 17.563 0 31.813 5.781 42.656 17.281 10.844 11.531 16.281 26.719 16.281 45.563 0 19.344-5.625 34.969-16.875 46.844C273.156 442.063 258.469 448 240.359 448zm1.204-103.562c-9.734 0-17.469 3.656-23.203 10.969-5.734 7.281-8.594 16.969-8.594 29 0 12.188 2.859 21.844 8.594 28.938 5.734 7.125 13.234 10.688 22.516 10.688 9.563 0 17.156-3.469 22.781-10.375s8.406-16.469 8.406-28.75c0-12.781-2.719-22.719-8.156-29.813s-12.891-10.657-22.344-10.657zm191.031 101.406h-28l-50.781-77.438c-2.969-4.531-5.031-7.938-6.188-10.219h-.344c.438 4.344.688 11 .688 19.938v67.719H321.75v-123.25h29.906l48.906 75.031a199.403 199.403 0 0 1 6.188 10.063h.344c-.469-2.875-.688-8.5-.688-16.938v-68.156h26.188v123.25z"/></svg>