<svg xmlns="http://www.w3.org/2000/svg" viewBox="0 0 448 448"><path d="M111.75 440.875c-9.813 4.75-22.625 7.125-38.438 7.125-20.625 0-36.844-6.063-48.656-18.188S6.938 401.531 6.938 381.344c0-21.5 6.641-38.938 19.922-52.313s30.516-20.063 51.703-20.063c13.125 0 24.188 1.656 33.188 4.969v29.156c-9-5.375-19.25-8.063-30.75-8.063-12.625 0-22.813 3.969-30.563 11.906s-11.625 18.688-11.625 32.25c0 13 3.656 23.375 10.969 31.094s17.156 11.563 29.531 11.563c11.813 0 22.625-2.875 32.438-8.625v27.657zm176.625 4.781h-29.906v-80.438c0-8.688.375-18.281 1.125-28.781h-.75c-1.563 8.25-2.969 14.188-4.219 17.813l-31.5 91.406h-24.75l-32.063-90.469c-.875-2.438-2.281-8.688-4.219-18.75h-.844c.813 13.25 1.219 24.875 1.219 34.875v74.344h-27.281V311.219h44.344L207 390.906c2.188 6.375 3.781 12.781 4.781 19.219h.563c1.688-7.438 3.469-13.906 5.344-19.406l27.469-79.5h43.219v134.437zm30.563 0V311.219h47.625c47.75 0 71.625 21.844 71.625 65.531 0 20.938-6.5 37.656-19.563 50.156-13 12.5-30.375 18.75-52.063 18.75h-47.624zm30.281-109.781v85.219h15c13.125 0 23.406-3.938 30.906-11.813 7.438-7.875 11.188-18.594 11.188-32.156 0-12.813-3.688-22.875-11.125-30.219-7.375-7.344-17.781-11.031-31.156-11.031h-14.813zM96 288V32h160v128h128v128h32V121.376L294.624 0H64v288h32zM288 38.624L377.376 128H288V38.624z"/></svg>