<svg xmlns="http://www.w3.org/2000/svg" viewBox="0 0 448 448"><path d="M256 160h128v128h32V121.376L294.624 0H64v288h32V32h160v128zm32-121.376L377.376 128H288V38.624zm-165.531 407.22h-30.25l-8.781-27.406H39.625l-8.688 27.406H.875l44.844-123.25h32.906l43.844 123.25zm-45.375-48.719l-13.25-41.438c-.969-3.094-1.656-6.781-2.063-11.094h-.688c-.281 3.625-1 7.219-2.156 10.75l-13.375 41.781h31.532zm55.094 44v-27.5c4.969 4.188 10.375 7.313 16.219 9.406s11.75 3.125 17.719 3.125c3.5 0 6.531-.313 9.156-.938 2.594-.625 4.781-1.5 6.531-2.625s3.031-2.438 3.906-3.938a10.112 10.112 0 0 0 1.281-4.938c0-2.438-.688-4.563-2.063-6.469-1.375-1.875-3.25-3.625-5.625-5.219-2.375-1.625-5.188-3.156-8.469-4.656s-6.781-3-10.563-4.563c-9.625-4-16.813-8.906-21.531-14.688s-7.094-12.781-7.094-20.969c0-6.406 1.281-11.938 3.875-16.531 2.563-4.625 6.094-8.406 10.531-11.406 4.438-2.969 9.563-5.156 15.406-6.563s12.031-2.125 18.563-2.125c6.438 0 12.125.406 17.063 1.188 4.969.75 9.531 1.938 13.719 3.563v25.688c-2.063-1.438-4.313-2.688-6.75-3.781s-4.938-2-7.531-2.719a51.638 51.638 0 0 0-7.688-1.563 49.543 49.543 0 0 0-7.25-.531c-3.156 0-6.031.313-8.594.906-2.594.594-4.75 1.438-6.531 2.531s-3.156 2.406-4.125 3.906c-.969 1.531-1.469 3.219-1.469 5.125 0 2.063.531 3.906 1.625 5.531s2.656 3.188 4.656 4.656c2 1.438 4.438 2.875 7.281 4.281 2.875 1.406 6.125 2.844 9.719 4.344 4.938 2.063 9.375 4.25 13.281 6.563 3.938 2.344 7.281 4.938 10.094 7.875s4.969 6.25 6.469 10c1.469 3.75 2.219 8.125 2.219 13.125 0 6.875-1.313 12.625-3.906 17.313-2.625 4.656-6.156 8.438-10.625 11.344-4.469 2.875-9.656 4.969-15.594 6.219-5.938 1.281-12.188 1.906-18.781 1.906-6.75 0-13.188-.594-19.281-1.719-6.093-1.154-11.406-2.873-15.843-5.154zm132.062-37.719v42.438H236.5v-123.25h43.469c31.063 0 46.594 13.094 46.594 39.281 0 12.375-4.469 22.406-13.375 30.031-8.906 7.656-20.813 11.5-35.688 11.5h-13.25zm0-59.5v38.438h10.906c14.813 0 22.188-6.469 22.188-19.438 0-12.656-7.375-19-22.188-19H264.25zm177.125 101.938h-32.906l-21.219-40.125c-.813-1.5-1.656-4.25-2.5-8.25h-.344c-.406 1.875-1.344 4.75-2.844 8.594l-21.313 39.781h-33.094l39.281-61.625-35.906-61.625h33.75l17.625 36.969c1.375 2.906 2.625 6.375 3.688 10.406h.375c.688-2.406 1.969-6 3.844-10.75l19.594-36.625h30.938l-36.938 61.125 37.969 62.125z"/></svg>