<svg xmlns="http://www.w3.org/2000/svg" viewBox="0 0 448 448"><path d="M0 32v384h448V32H0zm416 352H32V128h384v256zm0-288H32V64h384v32zm-60.97 224l-66.78-160h29.594l66.752 160H355.03zM69.267 241.437c0-48.342 33.594-82.109 81.67-82.109 22 0 34 5.405 37.155 7.062l2.33 1.219-6.486 21.968-3.405-1.654c-7.827-3.814-18.109-5.907-28.922-5.907-34.704 0-55.421 21.968-55.421 58.765 0 35.814 20.39 57.219 54.544 57.219 11.174 0 22.768-2.282 30.253-5.936l3.514-1.722 5.658 21.722-2.33 1.155c-7.219 3.594-21.827 7.437-41.107 7.437-47.046 0-77.453-31.094-77.453-79.219zM256 224h-32v-32h32v32zm0 64h-32v-32h32v32z"/></svg>