<svg xmlns="http://www.w3.org/2000/svg" viewBox="0 0 448 448"><path d="M135.594 448H96.688l-25.094-47.438c-.938-1.75-1.906-5-2.938-9.75h-.406c-.469 2.25-1.594 5.625-3.344 10.156L39.719 448H.625l46.406-72.813-42.468-72.812H44.5l20.813 43.656c1.625 3.469 3.063 7.563 4.375 12.281h.375c.813-2.844 2.344-7.063 4.594-12.688l23.156-43.25h36.563l-43.688 72.188L135.594 448zm183.344 0h-32.406v-87.125c0-9.438.406-19.813 1.219-31.188h-.813c-1.688 8.938-3.219 15.375-4.563 19.281L248.25 448h-26.813l-34.75-98c-.938-2.656-2.469-9.406-4.563-20.313h-.938c.906 14.344 1.344 26.938 1.344 37.781V448h-29.563V302.375H201l29.75 86.313c2.375 6.906 4.125 13.844 5.188 20.813h.625c1.813-8.063 3.75-15.063 5.781-21l29.75-86.125h46.844V448zm119.812 0h-86.719V302.375h32.813v119h53.906V448zM256 160h128v96h32V121.376L294.624 0H64v256h32V32h160v128zm32-121.376L377.376 128H288V38.624z"/></svg>