<svg xmlns="http://www.w3.org/2000/svg" viewBox="0 0 448 448"><path d="M34 440H0V274h34v166zm130-47H91.011c1.156 17 11.307 24.594 30.619 24.594 12.312 0 23.369-2.687 32.369-8.531V434c-10 5.562-23.682 8.312-40.244 8.312-18.093 0-32.075-5-42.044-15.031-10-10.031-14.975-24-14.975-41.937 0-18.593 5.419-33.343 16.2-44.187 10.781-10.875 24.068-16.312 39.818-16.312 16.344 0 28.935 4.844 37.872 14.562 8.937 9.687 13.373 22.843 13.373 39.468V393zm-31.989-21c0-16-6.5-23.952-19.468-23.952-5.531 0-10.344 2.226-14.375 6.82C94.105 359.461 91.636 365 90.761 372h41.25zM177 436.625v-28c6 3.437 11.489 6 17.145 7.656 5.656 1.687 11.073 2.531 16.104 2.531 6.125 0 11.005-.844 14.536-2.531 3.531-1.656 5.331-4.219 5.331-7.656 0-2.187-.803-4-2.428-5.469-1.594-1.438-3.652-2.719-6.152-3.812a70.748 70.748 0 0 0-8.279-2.969 103.674 103.674 0 0 1-8.624-2.937c-4.437-1.687-8.374-3.5-11.749-5.406-3.406-1.937-6.25-4.187-8.531-6.75-2.312-2.531-4.062-5.5-5.25-8.844-1.219-3.375-1.812-7.344-1.812-11.937 0-6.25 1.375-11.656 4.094-16.187 2.75-4.5 6.375-8.219 10.937-11.094 4.562-2.875 9.781-5 15.656-6.344 5.875-1.344 11.969-2.031 18.312-2.031 4.969 0 9.761.406 14.855 1.156 5.094.781 10.855 1.875 14.855 3.344v26.687c-4-2.562-8.824-4.469-13.824-5.75-5-1.281-9.787-1.906-14.599-1.906-2.25 0-4.315.188-6.315.594s-3.751 1-5.283 1.75c-1.531.781-2.735 1.75-3.61 2.969-.875 1.187-1.305 2.562-1.305 4.094 0 2.031.691 3.781 2.004 5.25 1.312 1.438 3.002 2.719 5.127 3.781 2.125 1.031 4.47 2 7.063 2.844 2.594.813 5.157 1.688 7.688 2.562 4.625 1.594 8.75 3.344 12.5 5.25 3.687 1.875 6.906 4.125 9.562 6.656 2.656 2.562 4.687 5.562 6.125 8.969 1.406 3.437 2.125 7.531 2.125 12.25 0 6.656-1.437 12.312-4.312 17.031-2.875 4.687-6.719 8.531-11.5 11.469-4.781 2.969-10.281 5.094-16.5 6.469-6.25 1.344-12.864 2-19.583 2-12.311-.002-23.363-1.876-34.363-5.689zm99 0v-28c6 3.437 11.254 6 16.91 7.656 5.656 1.687 10.955 2.531 15.986 2.531 6.125 0 10.946-.844 14.477-2.531 3.531-1.656 5.301-4.219 5.301-7.656 0-2.187-.818-4-2.443-5.469-1.594-1.438-3.659-2.719-6.159-3.812a70.82 70.82 0 0 0-8.283-2.969 103.845 103.845 0 0 1-8.626-2.937c-4.437-1.687-8.375-3.5-11.75-5.406-3.406-1.937-6.25-4.187-8.531-6.75-2.312-2.531-4.063-5.5-5.25-8.844-1.219-3.375-1.813-7.344-1.813-11.937 0-6.25 1.375-11.656 4.094-16.187 2.75-4.5 6.375-8.219 10.937-11.094 4.562-2.875 9.781-5 15.656-6.344 5.875-1.344 11.969-2.031 18.312-2.031 4.969 0 9.996.406 15.09 1.156 5.094.781 10.09 1.875 15.09 3.344v26.687c-4-2.562-9.059-4.469-14.059-5.75-5-1.281-9.904-1.906-14.717-1.906-2.25 0-4.374.188-6.374.594s-3.781 1-5.312 1.75c-1.531.781-2.75 1.75-3.625 2.969-.875 1.187-1.312 2.562-1.312 4.094 0 2.031.688 3.781 2 5.25 1.312 1.438 3 2.719 5.125 3.781 2.125 1.031 4.469 2 7.062 2.844 2.594.813 5.156 1.688 7.687 2.562 4.625 1.594 8.75 3.344 12.5 5.25 3.687 1.875 6.906 4.125 9.562 6.656 2.656 2.562 4.687 5.562 6.125 8.969 1.406 3.437 2.125 7.531 2.125 12.25 0 6.656-1.437 12.312-4.312 17.031-2.875 4.687-6.719 8.531-11.5 11.469-4.781 2.969-10.281 5.094-16.5 6.469-6.25 1.344-12.629 2-19.348 2-12.309-.002-24.125-1.876-34.125-5.689zM96 256V32h160v128h128v256h32V121.374L294.82 0H64v256h32zM288 38.627L377.571 128H288V38.627zM160 64h-32v32h32V64zm0 64h-32v32h32v-32zm0 64h-32v32h32v-32z"/></svg>