<svg xmlns="http://www.w3.org/2000/svg" viewBox="0 0 448 448"><path d="M32.004 439.591h-32V273.778h32v165.813zm131.859-46.157H90.8c1.156 16.281 11.406 24.406 30.719 24.406 12.313 0 23.156-2.938 32.469-8.75v24.938c-10.344 5.531-23.781 8.313-40.344 8.313-18.094 0-32.125-5.031-42.094-15.063-10-10-15-24-15-41.938 0-18.594 5.406-33.313 16.187-44.188 10.781-10.844 24.063-16.281 39.813-16.281 16.344 0 28.969 4.844 37.906 14.531 8.938 9.719 13.406 22.875 13.406 39.5v14.532zM131.8 372.216c0-16.031-6.5-24.063-19.469-24.063-5.531 0-10.344 2.313-14.375 6.906-4.063 4.594-6.531 10.313-7.406 17.156h41.25zm45.282 64.437v-28c5.688 3.406 11.344 5.969 17 7.656 5.656 1.656 11 2.5 16.031 2.5 6.125 0 10.969-.844 14.5-2.5 3.531-1.688 5.313-4.25 5.313-7.656 0-2.188-.813-4.031-2.438-5.469-1.594-1.469-3.656-2.75-6.156-3.844-2.531-1.094-5.281-2.063-8.281-2.938a103.43 103.43 0 0 1-8.625-2.969c-4.438-1.656-8.375-3.469-11.75-5.406-3.406-1.938-6.25-4.188-8.531-6.719-2.313-2.563-4.063-5.5-5.25-8.875-1.219-3.344-1.813-7.313-1.813-11.906 0-6.281 1.375-11.688 4.094-16.188 2.75-4.531 6.375-8.219 10.938-11.125 4.563-2.875 9.781-4.969 15.656-6.344 5.875-1.344 11.969-2 18.313-2 4.969 0 10 .375 15.094 1.125a120.112 120.112 0 0 1 15.109 3.344v26.688a55.816 55.816 0 0 0-14.078-5.75c-5-1.25-9.906-1.906-14.719-1.906-2.25 0-4.375.219-6.375.594-2 .406-3.781 1-5.313 1.75-1.531.781-2.75 1.75-3.625 2.969-.875 1.188-1.313 2.563-1.313 4.094 0 2.063.688 3.813 2 5.25 1.313 1.469 3 2.719 5.125 3.781s4.469 2 7.063 2.844 5.156 1.688 7.688 2.563c4.625 1.625 8.75 3.375 12.5 5.25 3.688 1.906 6.906 4.125 9.563 6.688 2.672 2.531 4.703 5.531 6.141 8.969 1.406 3.406 2.125 7.5 2.125 12.25 0 6.625-1.438 12.281-4.313 17-2.891 4.688-6.734 8.531-11.516 11.469-4.781 2.969-10.281 5.125-16.5 6.469-6.25 1.344-12.719 2.031-19.438 2.031-12.313-.001-23.719-1.908-34.219-5.689zm98.547 0v-28c5.688 3.406 11.344 5.969 17 7.656 5.656 1.656 11 2.5 16.031 2.5 6.125 0 10.969-.844 14.5-2.5 3.531-1.688 5.313-4.25 5.313-7.656 0-2.188-.813-4.031-2.438-5.469-1.594-1.469-3.656-2.75-6.156-3.844-2.531-1.094-5.281-2.063-8.281-2.938a103.43 103.43 0 0 1-8.625-2.969c-4.438-1.656-8.375-3.469-11.75-5.406-3.406-1.938-6.25-4.188-8.531-6.719-2.313-2.563-4.063-5.5-5.25-8.875-1.219-3.344-1.813-7.313-1.813-11.906 0-6.281 1.375-11.688 4.094-16.188 2.75-4.531 6.375-8.219 10.938-11.125 4.563-2.875 9.781-4.969 15.656-6.344 5.875-1.344 11.969-2 18.313-2 4.969 0 10 .375 15.094 1.125a119.306 119.306 0 0 1 15.094 3.344v26.688a55.473 55.473 0 0 0-14.063-5.75c-5-1.25-9.906-1.906-14.719-1.906-2.25 0-4.375.219-6.375.594-2 .406-3.781 1-5.313 1.75-1.531.781-2.75 1.75-3.625 2.969-.875 1.188-1.313 2.563-1.313 4.094 0 2.063.688 3.813 2 5.25 1.313 1.469 3 2.719 5.125 3.781s4.469 2 7.063 2.844 5.156 1.688 7.688 2.563c4.625 1.625 8.75 3.375 12.5 5.25 3.688 1.906 6.906 4.125 9.563 6.688 2.656 2.531 4.688 5.531 6.125 8.969 1.406 3.406 2.125 7.5 2.125 12.25 0 6.625-1.438 12.281-4.313 17-2.875 4.688-6.719 8.531-11.5 11.469-4.781 2.969-10.281 5.125-16.5 6.469-6.25 1.344-12.719 2.031-19.438 2.031-12.313-.001-23.719-1.908-34.219-5.689zM96 256.003V31.997h160v128h128v256.006h32v-294.63L294.623-.003H64v256.006h32zM288 38.624l89.376 89.373H288V38.624z"/></svg>