<svg xmlns="http://www.w3.org/2000/svg" viewBox="0 0 448 448"><path d="M75.516 246.344L0 448h36.563L54 396.688h79.313L151.453 448h36.703l-74.953-201.656H75.516zM62.719 369.375l27.703-80.438c1.031-3.063 1.969-7.313 2.813-12.625h.563c.938 5.813 1.828 10.031 2.672 12.625l27.984 80.438H62.719zm108.633-167.719H15.398v-15.313L126.352 28.406H23.977V0h148.781v14.625L62.227 173.406h109.125v28.25zm275.961 127.657L336 440.625 224.688 329.313l22.625-22.625L320 379.375V32h32v347.375l72.688-72.688 22.625 22.626z"/></svg>