<svg xmlns="http://www.w3.org/2000/svg" viewBox="0 0 448 448" enable-background="new 0 0 448 448"><path d="M224 434.469l-7.984-4.594c-118.672-68.375-184.016-159.312-184.016-256.125v-106.203h16c39.547 0 76.516-10.438 104.078-29.406 38.031-28.313 105.328-28.656 144.328.344 27.094 18.624 64.063 29.062 103.594 29.062h16v106.203c0 96.781-65.344 187.75-184.016 256.125l-7.984 4.594zm-160-335.422v74.703c0 82.75 56.734 161.938 160 223.688 103.281-61.75 160-140.938 160-223.688v-74.703c-39.938-2.547-77.188-14.578-106.219-34.531-29-21.563-79.031-21.219-107.094-.344-29.421 20.25-66.718 32.328-106.687 34.875z"/></svg>