<svg xmlns="http://www.w3.org/2000/svg" viewBox="0 0 448 448"><path d="M85.5 226.734c-33.549 33.549-36.77 85.84-10.166 123.307L6.313 419.063l22.625 22.625 68.982-68.982c16.133 11.506 35.262 17.92 55.471 17.92 25.641 0 49.75-10 67.875-28.125l56.578-56.563-135.766-135.766L85.5 226.734zm113.141 113.141c-24.188 24.188-66.328 24.188-90.516 0-24.953-24.969-24.953-65.563 0-90.516l33.953-33.938 90.5 90.516-33.937 33.938zM438.969 31.672L416.344 9.047l-69.113 69.09C310.275 52.621 256.457 55.818 224 88.234l-56.563 56.563 135.75 135.766L359.75 224c33.563-33.563 36.787-85.844 10.172-123.307l69.047-69.021zM337.125 201.375l-33.938 33.938-90.5-90.516 33.938-33.938c24.188-24.156 66.313-24.156 90.5 0 24.969 24.954 24.969 65.563 0 90.516z"/></svg>