<svg xmlns="http://www.w3.org/2000/svg" viewBox="0 0 448 448" enable-background="new 0 0 448 448"><path d="M75.516 246.344l-75.516 201.656h36.563l17.437-51.312h79.313l18.14 51.312h36.703l-74.953-201.656h-37.687zm-12.797 123.031l27.703-80.438c1.031-3.063 1.969-7.313 2.813-12.625h.563c.938 5.813 1.828 10.031 2.672 12.625l27.984 80.438h-61.735zm108.633-167.719h-155.954v-15.313l110.954-157.937h-102.375v-28.406h148.781v14.625l-110.531 158.781h109.125v28.25zm275.961 127.657l-111.313 111.312-111.312-111.312 22.625-22.625 72.687 72.687v-347.375h32v347.375l72.688-72.688 22.625 22.626z"/></svg>