<svg xmlns="http://www.w3.org/2000/svg" viewBox="0 0 448 448"><path d="M205.729 96C198.574 68.473 173.74 48 144 48S89.426 68.473 82.271 96H0v32h82.271c7.154 27.527 31.988 48 61.729 48s54.574-20.473 61.729-48H448V96H205.729zM144 144c-17.641 0-32-14.359-32-32s14.359-32 32-32 32 14.359 32 32-14.359 32-32 32zm160 32c-29.727 0-54.572 20.473-61.729 48H0v32h242.273c7.158 27.52 32.002 48 61.727 48s54.568-20.48 61.727-48H448v-32h-82.271c-7.157-27.527-32.002-48-61.729-48zm0 96c-17.656 0-32-14.344-32-32 0-17.641 14.344-32 32-32s32 14.359 32 32c0 17.656-14.344 32-32 32zm-160 32c-29.738 0-54.572 20.48-61.727 48H0v32h82.273c7.154 27.52 31.988 48 61.727 48s54.572-20.48 61.727-48H448v-32H205.727c-7.155-27.52-31.989-48-61.727-48zm0 96c-17.641 0-32-14.344-32-32s14.359-32 32-32 32 14.344 32 32-14.359 32-32 32z"/></svg>