<svg xmlns="http://www.w3.org/2000/svg" viewBox="0 0 448 448"><path fill="#101010" d="M363.521 167.715c21.361-16.293 35.385-41.736 35.385-70.605 0-49.141-39.968-89.11-89.125-89.11-49.125 0-89.094 39.969-89.094 89.109 0 28.865 14.02 54.307 35.369 70.6a118.37 118.37 0 0 0-51.102 51.115c-16.293-21.35-41.738-35.371-70.611-35.371-49.141 0-89.109 39.969-89.109 89.109 0 28.867 14.021 54.311 35.375 70.602C42.439 362.824 16 402.193 16 448h32c0-47.625 38.734-86.344 86.344-86.344s86.344 38.719 86.344 86.344h32c0-45.807-26.439-85.176-64.609-104.836 21.354-16.291 35.375-41.734 35.375-70.602 0-47.625 38.734-86.359 86.328-86.359 47.625 0 86.344 38.734 86.344 86.359h32c-.001-45.814-26.438-85.183-64.605-104.847zM134.344 329.656c-31.484 0-57.109-25.625-57.109-57.094 0-31.484 25.625-57.109 57.109-57.109s57.109 25.625 57.109 57.109c0 31.469-25.625 57.094-57.109 57.094zM252.688 97.109c0-31.484 25.625-57.109 57.094-57.109 31.5 0 57.125 25.625 57.125 57.109s-25.625 57.094-57.125 57.094c-31.469 0-57.094-25.609-57.094-57.094zM64 96H0V64h64V0h32v64h64v32H96v64H64V96z"/></svg>