<svg xmlns="http://www.w3.org/2000/svg" viewBox="0 0 448 448"><path d="M193.785 334.352l-27.904-27.904L31.969 440.342 0 448l6.873-30.689 134.699-135.172L64 204.566c30.041-30.043 74.291-36.902 111.039-20.98L276.01 82.613c-6.846-22.85-1.545-48.563 16.506-66.613L432 155.484c-18.051 18.051-43.764 23.35-66.615 16.506l-52.758 52.756c-61.147 3.557-110.49 49.859-118.842 109.606zM416 352c0 52.938-43.063 96-96 96s-96-43.063-96-96 43.063-96 96-96 96 43.063 96 96zm-96-64c-11.834 0-22.791 3.447-32.309 9.066l87.242 87.242C380.553 374.791 384 363.834 384 352c0-35.297-28.703-64-64-64zm0 128c11.834 0 22.791-3.447 32.309-9.066l-87.242-87.242C259.447 329.209 256 340.166 256 352c0 35.297 28.703 64 64 64z"/></svg>