<svg xmlns="http://www.w3.org/2000/svg" viewBox="0 0 448 448"><path d="M32 288h96v32H0V32h384v64H32v192zm192-160H64v32h160v-32zM64 224h96v-32H64v32zm374.375 98.688h-32c0-31.447-25.543-57.023-56.939-57.109-.053 0-.102.016-.154.016s-.102-.016-.154-.016c-31.396.086-56.939 25.662-56.939 57.109 0 19.625-8.441 37.205-21.746 49.66 25.461 15.701 42.621 43.609 42.621 75.652h-32c0-31.469-25.609-57.094-57.094-57.094S166.859 416.531 166.859 448h-32c0-32.049 17.164-59.959 42.635-75.658-13.303-12.455-21.744-30.031-21.744-49.654 0-37.625 30.609-68.219 68.219-68.219 19.625 0 37.203 8.441 49.658 21.744a89.291 89.291 0 0 1 29.184-29.189c-13.305-12.463-21.748-30.047-21.748-49.664 0-37.609 30.594-68.219 68.219-68.219S417.5 159.75 417.5 197.359c0 19.617-8.443 37.201-21.748 49.664 25.461 15.706 42.623 43.62 42.623 75.665zm-178.187 0c0-19.969-16.25-36.219-36.219-36.219s-36.219 16.25-36.219 36.219 16.25 36.219 36.219 36.219 36.219-16.251 36.219-36.219zm89.093-89.11c19.969 0 36.219-16.25 36.219-36.219s-16.25-36.219-36.219-36.219-36.219 16.25-36.219 36.219 16.251 36.219 36.219 36.219z"/></svg>