<svg xmlns="http://www.w3.org/2000/svg" viewBox="0 0 448 448"><path d="M322.219 256c-52.938 0-96 43.063-96 96s43.063 96 96 96 96-43.063 96-96-43.063-96-96-96zm64 96c0 11.834-3.447 22.791-9.066 32.309l-87.242-87.242c9.518-5.619 20.475-9.066 32.309-9.066 35.296-.001 63.999 28.702 63.999 63.999zm-128 0c0-11.834 3.447-22.791 9.066-32.309l87.242 87.242c-9.518 5.619-20.475 9.066-32.309 9.066-35.296.001-63.999-28.702-63.999-63.999zm187.562-193.844l-11.313 11.313c-18.094 18.141-43.781 26.094-68.875 21.781l-33.727 33.727c-3.242-.248-6.344-.977-9.648-.977-14.938 0-29.068 3.059-42.408 7.783l76.174-76.174 9.156 2.734c11.297 3.391 23.125 2.469 33.359-2.219L294.094 51.719c-4.688 10.234-5.609 22.063-2.219 33.359l2.734 9.156-109.343 109.344-9.984-4.313c-24.781-10.75-52.453-8.125-74.219 6.188L202.76 307.15c-4.438 11.77-7.027 24.344-7.793 37.457l-32.514-32.514L34.188 440.342 2.219 448l6.873-30.689 129.063-129.516-83.498-83.498 11.313-11.313c29.578-29.594 72.344-39.703 111.641-27l81.359-81.359c-4.266-25.094 3.672-50.766 21.781-68.875l11.313-11.313 153.717 153.719z"/></svg>