<svg xmlns="http://www.w3.org/2000/svg" viewBox="0 0 448 448"><path d="M351.997 320.199v-.201H165.283l-11.41-31.999h228.832L448 96.003H85.418l-22.82-63.998H.006v31.999h40.03l93.056 260.989c-15.97 7.803-27.089 24.062-27.089 43.003 0 26.468 21.531 47.999 47.999 47.999s47.999-21.531 47.999-47.999c0-5.637-1.154-10.97-2.947-16h105.892c-1.793 5.029-2.947 10.363-2.947 16 0 26.468 21.531 47.999 47.999 47.999 26.468 0 47.999-21.531 47.999-47.999-.002-25.782-20.478-46.723-46-47.797zm-181.996 47.797c0 8.812-7.187 16-16 16s-16-7.187-16-16 7.187-16 16-16 16 7.188 16 16zm179.996 16c-8.812 0-16-7.187-16-16s7.187-16 16-16c8.812 0 16 7.187 16 16s-7.188 16-16 16z"/></svg>