<svg xmlns="http://www.w3.org/2000/svg" viewBox="0 0 448 448" enable-background="new 0 0 448 448"><path d="M363.521 167.715c21.361-16.293 35.385-41.736 35.385-70.605 0-49.141-39.968-89.11-89.125-89.11-49.125 0-89.094 39.969-89.094 89.109 0 28.865 14.02 54.307 35.369 70.6-21.947 11.294-39.814 29.166-51.102 51.115-16.293-21.35-41.738-35.371-70.611-35.371-49.141 0-89.109 39.969-89.109 89.109 0 28.867 14.021 54.311 35.375 70.602-38.17 19.66-64.609 59.029-64.609 104.836h32c0-47.625 38.734-86.344 86.344-86.344s86.344 38.719 86.344 86.344h32c0-45.807-26.439-85.176-64.609-104.836 21.354-16.291 35.375-41.734 35.375-70.602 0-47.625 38.734-86.359 86.328-86.359 47.625 0 86.344 38.734 86.344 86.359h32c-.001-45.814-26.438-85.183-64.605-104.847zm-229.177 161.941c-31.484 0-57.109-25.625-57.109-57.094 0-31.484 25.625-57.109 57.109-57.109s57.109 25.625 57.109 57.109c0 31.469-25.625 57.094-57.109 57.094zm118.344-232.547c0-31.484 25.625-57.109 57.094-57.109 31.5 0 57.125 25.625 57.125 57.109s-25.625 57.094-57.125 57.094c-31.469 0-57.094-25.609-57.094-57.094zm-188.688-1.109h-64v-32h64v-64h32v64h64v32h-64v64h-32v-64z"/></svg>