<svg xmlns="http://www.w3.org/2000/svg" viewBox="0 0 448 448"><path d="M368.995 345.574L400 448l-80-62.171L240 448l31.005-102.268L192 283.429h98L320 192l29.999 91.429H448l-79.005 62.145zM182.672 233.609c0 24.248-11.26 45.699-28.561 60.143C185.92 311.49 207.734 345.07 207.734 384h-32c0-39.547-32.172-71.719-71.719-71.719S32.281 344.453 32.281 384h-32c0-38.93 21.814-72.514 53.631-90.25-17.305-14.443-28.568-35.895-28.568-60.141 0-43.375 35.297-78.656 78.672-78.656 24.246 0 45.691 11.256 60.129 28.557a103.71 103.71 0 0 1 40.146-40.146c-17.301-14.438-28.557-35.883-28.557-60.129 0-43.375 35.281-78.656 78.656-78.656s78.656 35.281 78.656 78.656c0 24.246-11.256 45.691-28.557 60.129 19.672 10.971 35.482 28.027 44.713 48.637h-36.629c-13.025-18.156-34.184-30.109-58.184-30.109-39.545-.001-71.717 32.171-71.717 71.717zm25.062-150.375c0 25.719 20.938 46.656 46.656 46.656s46.656-20.938 46.656-46.656-20.938-46.656-46.656-46.656-46.656 20.938-46.656 46.656zm-57.062 150.375c0-25.719-20.938-46.656-46.656-46.656-25.734 0-46.672 20.938-46.672 46.656 0 25.734 20.938 46.672 46.672 46.672 25.718 0 46.656-20.937 46.656-46.672z"/></svg>