<svg xmlns="http://www.w3.org/2000/svg" viewBox="0 0 448 448"><path d="M27.906 84.125C21.875 78.063 14.875 73.344 7 70c7.875-3.344 14.875-8.063 20.906-14.125C33.938 49.844 38.656 42.875 42 35c3.375 7.875 8.063 14.844 14.125 20.875C62.188 61.938 69.125 66.656 77 70c-7.875 3.344-14.813 8.063-20.875 14.125-6.062 6.031-10.75 13-14.125 20.875-3.344-7.875-8.062-14.844-14.094-20.875zm265.907 14.094C281.844 86.25 267.906 76.844 252 70c15.906-6.844 29.844-16.25 41.813-28.219C305.75 29.813 315.156 15.906 322 0c6.875 15.906 16.281 29.813 28.25 41.781C362.188 53.75 376.125 63.156 392 70c-15.875 6.844-29.813 16.25-41.75 28.219C338.281 110.188 328.875 124.094 322 140c-6.844-15.906-16.25-29.812-28.187-41.781zM294.438 70a174.188 174.188 0 0 1 27.563 27.563C330.032 87.344 339.22 78.157 349.564 70A155.449 155.449 0 0 1 322 42.438C313.844 52.781 304.656 61.969 294.438 70zm125.687 69.875c-6.063-6.031-10.75-13-14.125-20.875-3.344 7.875-8.063 14.844-14.094 20.875-6.031 6.063-13.031 10.781-20.906 14.125 7.875 3.344 14.875 8.063 20.906 14.125 6.031 6.031 10.75 13 14.094 20.875 3.375-7.875 8.063-14.844 14.125-20.875 6.063-6.063 13-10.781 20.875-14.125-7.875-3.344-14.812-8.062-20.875-14.125zM290.344 192v32H320v192H96V224h29.906v-32H73.375L4.688 260.688l22.625 22.625L64 246.625V448h288V246.625l36.688 36.688 22.625-22.625L342.625 192h-52.281zm-164.5-33.844a54.902 54.902 0 0 0 16.844 12.172c6.438 3.047 13.406 4.594 20.75 4.594 5.094 0 10.094-.828 14.938-2.469 4.781-1.688 9.156-4.047 13.031-7.063 3.938-3.094 7.281-6.656 10.188-10.891 2.906-4.172 5-8.875 6.25-13.891l.531-3.672c0-4.234-1.531-7.938-4.625-11.031-3.125-3.078-6.813-4.641-11-4.641-3.344 0-6.094.766-8.063 2.234-1.875 1.297-3.469 3.094-4.719 5.328a65.82 65.82 0 0 0-2.781 5.797c-.656 1.625-1.563 3.172-2.75 4.766-1.031 1.391-2.375 2.5-4.063 3.375-1.5.828-3.781 1.25-6.75 1.25s-5.813-.688-8.469-2.047a24.382 24.382 0 0 1-7.188-5.547c-2-2.219-3.531-4.766-4.75-7.813-1.188-2.906-1.781-5.844-1.781-8.734 0-4.703 1.063-9.172 3.156-13.297 2.156-4.234 5-7.922 8.469-10.984 3.5-3.078 7.563-5.578 12-7.438 4.469-1.797 9-2.703 13.438-2.703 8.156 0 15.344 1.797 21.375 5.375 6.094 3.563 11.281 8.359 15.375 14.25 4.188 6.016 7.344 12.75 9.406 20.047 2.094 7.328 3.156 14.75 3.156 22.094l-.094 4.219-.344 3.984c-1.281 12.609-4.094 23.859-8.375 33.469-4.281 9.688-9.906 18.375-16.719 25.828-6.906 7.609-15 14.422-24.063 20.281-9.313 5.969-19.531 11.594-30.406 16.734-6.063 2.875-9.25 7.813-9.25 14.266 0 4.141 1.5 7.891 4.375 10.844 2.938 3.063 6.594 4.609 10.875 4.609 2.531 0 4.594-.375 6.25-1.125 13.75-5.766 26.75-13 38.656-21.469 12-8.516 22.563-18.469 31.406-29.594s15.906-23.672 20.938-37.281c5.063-13.641 7.625-28.484 7.625-44.109 0-11.578-1.75-23.016-5.25-34-3.563-11.094-8.781-21.141-15.531-29.859-6.781-8.766-15.25-15.938-25.156-21.328-10-5.406-21.5-8.141-34.25-8.141-8.875 0-17.5 1.75-25.594 5.188a72.619 72.619 0 0 0-21.656 13.938 69.024 69.024 0 0 0-15.03 20.642c-3.75 7.984-5.656 16.578-5.656 25.563 0 7 1.344 13.953 4.063 20.672a56.52 56.52 0 0 0 11.218 17.608z"/></svg>