<svg xmlns="http://www.w3.org/2000/svg" viewBox="0 0 448 448"><path d="M253.046 203.43c10.592 37.421 24.97 73.139 31.344 81.357 3.75 4.877 7.53 7.28 11.405 7.28 3.219 0 6.064-.781 8.406-2.403 3.594-2.624 9.187-9.187 16.656-19.658l6.72 3.939c-10.937 17.686-21.718 30.154-32.157 37.405-8 5.626-15.843 8.406-23.594 8.406-7.968 0-14.592-1.782-19.907-5.344-5.28-3.562-10.029-9.312-14.125-17.376-4.125-8.061-14.874-33.811-20.467-51.514-14.592 18.579-37.376 45.014-45.658 53.578-8.342 8.499-15.216 14.125-20.685 16.749-5.469 2.624-11.376 3.907-17.533 3.907-6.531 0-11.686-1.843-15.437-5.626-3.843-3.718-5.719-8.595-5.719-14.595 0-6.342 2.032-11.562 6.157-15.686 4.093-4.125 9.344-6.186 15.686-6.186 3.376 0 7.187.998 11.469 2.998 6.189 3.002 10.688 4.502 13.376 4.502 3.654 0 6.906-.752 9.751-2.25 3.747-1.875 8.499-5.939 14.217-12.157 3.501-3.875 21.28-25.002 30.624-37.61-11.968-44.374-21.312-70.938-28.061-79.658-4.25-5.61-9.594-8.406-16.096-8.406-3.344 0-20.374 14.096-25.248 15.078v-31.92h79.466c11.846 18.592 20.189 39.014 25.062 61.341 12.253-18.077 21.501-30.733 27.722-37.968 8.374-9.718 15.248-16.032 20.624-18.982 5.437-2.922 11.219-4.39 17.312-4.39 6.877 0 12.157 1.872 15.843 5.61 3.658 3.763 5.501 8.81 5.501 15.139 0 6.016-1.843 10.906-5.501 14.704-3.686 3.779-8.31 5.702-13.811 5.702-3.939 0-8.531-.736-13.718-2.173-5.158-1.421-8.752-2.125-10.752-2.125-5.219 0-10.25 1.875-14.966 5.594-6.501 5.113-14.469 16.018-23.906 32.738zM64 352H32V96h32V64H0v320h64v-32zM448 64h-64v32h32v256h-32v32h64V64z"/></svg>