<svg xmlns="http://www.w3.org/2000/svg" viewBox="0 0 448 448"><path d="M256 380.765A160.026 160.026 0 0 1 224 384c-52.061 0-97.946-25.376-127.181-64h43.411c22.509 19.667 51.594 32 83.77 32 11.117 0 21.712-1.869 32-4.544v33.309zM352 224c0 11.114-1.872 21.712-4.544 32h33.309c2.109-10.342 3.235-21.043 3.235-32s-1.127-21.658-3.235-32h-33.309c2.672 10.288 4.544 20.886 4.544 32zm-211.77-96c22.509-19.667 51.594-32 83.77-32 11.117 0 21.712 1.869 32 4.544V67.235A160.026 160.026 0 0 0 224 64c-52.061 0-97.946 25.376-127.181 64h43.411zM448 32H288v128h160V32zM160 288H0V160h160v128zm288 128H288V288h160v128z"/></svg>