<svg xmlns="http://www.w3.org/2000/svg" viewBox="0 0 448 448"><path d="M182.672 233.61c0 24.246-11.261 45.699-28.56 60.141 31.808 17.741 53.622 51.318 53.622 90.25h-32c0-39.546-32.173-71.718-71.718-71.718-39.549 0-71.734 32.173-71.734 71.718h-32c0-38.931 21.814-72.515 53.632-90.25-17.306-14.445-28.57-35.894-28.57-60.141 0-43.376 35.296-78.656 78.672-78.656 24.246 0 45.69 11.254 60.128 28.557a103.714 103.714 0 0 1 40.147-40.147c-17.302-14.438-28.557-35.882-28.557-60.128 0-43.376 35.28-78.656 78.656-78.656s78.656 35.28 78.656 78.656c0 24.246-11.254 45.69-28.557 60.128 19.674 10.97 35.482 28.029 44.714 48.637h-36.63c-13.024-18.157-34.182-30.109-58.182-30.109-39.546-.001-71.719 32.172-71.719 71.718zm25.062-150.375c0 25.718 20.938 46.656 46.656 46.656s46.656-20.938 46.656-46.656-20.938-46.656-46.656-46.656-46.656 20.938-46.656 46.656zM150.672 233.61c0-25.718-20.938-46.656-46.656-46.656-25.734 0-46.672 20.938-46.672 46.656 0 25.734 20.938 46.672 46.672 46.672 25.718 0 46.656-20.938 46.656-46.672zM448 291.262l-88.445-12.853L320 198.265l-39.555 80.145L192 291.262l64 62.384-15.108 88.089L320 400.145l79.108 41.59L384 353.646l64-62.384z"/></svg>