<svg xmlns="http://www.w3.org/2000/svg" viewBox="0 0 448 448"><path d="M448 448l-84-168-39.127 78.25-37.42-37.422s21.253-10.24 22.006-32.452l-38.365-162.74c19.016-11.354 31.908-31.926 31.908-55.637 0-35.844-29.158-65-65.002-65s-64.998 29.156-64.998 65c0 1.436.328 2.781.422 4.193l-105.037 27.57-43.074-43.074L2.688 81.313l29.859 29.859-.547.142V192c0 20.832 13.416 38.426 32 45.053v89.174l-22.055 32.75s-12.977 18.086-15.164 24.477c-4.125 11.563-3.5 24.031 1.75 35.125 5.25 11.078 14.531 19.453 26.094 23.578 3.844 1.359 7.938 2 12.125 2 19.281 0 37.25-13.156 49.188-28.781L160 361.064V400c0 26.469 21.531 48 48 48s48-21.531 48-48v-62.66l1.781-.934 52.012 52.01L280 448h168zm-84-96.445L396.225 416h-64.449L364 351.555zM238 37c18.189 0 33.002 14.797 33.002 33S256.189 103 238 103s-32.998-14.797-32.998-33S219.811 37 238 37zm-30 379c-8.813 0-16-7.172-16-16v-64l-24-48h-40v62l-39.281 49.996S73.5 417.5 65.375 412c-3.102-2.1-6.344-3.781-7.938-7.141s-1.781-7.141-.844-9.906c.855-1.762 4.197-7.051 6.99-11.33l.207.207L96 336v-98l.594-1.133c14.354-5.328 25.365-17.27 29.484-32.164l96.67 96.672L224 304v96c0 8.828-7.187 16-16 16zm55.754-118.871l-19.322-19.322L217.334 164l-20.182 66.527-63.813-63.813L140 154l-44 14v24c0 8.828-7.188 16-16 16s-16-7.172-16-16v-56l119.234-31.299v-.002C194.781 122.85 214.941 135 238 135c.813 0 1.568-.211 2.375-.24L275.2 282.353c2.259 13.553-11.446 14.776-11.446 14.776z"/></svg>