<?xml version="1.0" encoding="utf-8"?>
<!-- Generator: Adobe Illustrator 20.0.0, SVG Export Plug-In . SVG Version: 6.00 Build 0)  -->
<svg version="1.1" xmlns="http://www.w3.org/2000/svg" xmlns:xlink="http://www.w3.org/1999/xlink" x="0px" y="0px"
	 viewBox="0 0 448 448" style="enable-background:new 0 0 448 448;" xml:space="preserve">
<path d="M0,32v384h448V32H0z M416,384H32V128h384V384z M416,96H32V64h384V96z M153.434,316.254
	c-2.559-2.477-3.807-5.723-3.807-9.719c0-4.223,1.352-7.697,4.098-10.443c2.727-2.746,6.223-4.119,10.445-4.119
	c2.248,0,4.785,0.666,7.637,1.996c4.119,2,7.115,2.998,8.906,2.998c2.432,0,4.598-0.5,6.49-1.498
	c2.496-1.248,5.66-3.953,9.467-8.094c2.332-2.58,14.17-16.646,20.391-25.041c-7.969-29.545-14.189-47.232-18.684-53.037
	c-2.83-3.734-6.387-5.598-10.717-5.598c-2.227,0-13.566,9.385-16.811,10.039v-21.252h52.91
	c7.887,12.379,13.441,25.977,16.686,40.842c8.158-12.037,14.316-20.463,18.459-25.279c5.576-6.471,10.152-10.676,13.73-12.641
	c3.621-1.943,7.471-2.922,11.527-2.922c4.578,0,8.094,1.246,10.549,3.734c2.436,2.506,3.662,5.865,3.662,10.08
	c0,4.006-1.227,7.262-3.662,9.791c-2.455,2.516-5.533,3.797-9.195,3.797c-2.623,0-5.68-0.49-9.135-1.447
	c-3.434-0.945-5.826-1.414-7.158-1.414c-3.475,0-6.824,1.248-9.965,3.723c-4.33,3.404-9.635,10.664-15.918,21.797
	c7.053,24.916,16.625,48.697,20.869,54.17c2.498,3.246,5.014,4.846,7.594,4.846c2.143,0,4.037-0.52,5.598-1.6
	c2.393-1.746,6.117-6.117,11.09-13.088l4.475,2.623c-7.283,11.775-14.461,20.076-21.412,24.904
	c-5.326,3.746-10.549,5.598-15.709,5.598c-5.305,0-9.715-1.188-13.254-3.559c-3.516-2.371-6.678-6.199-9.404-11.568
	c-2.746-5.367-9.904-22.514-13.629-34.299c-9.715,12.369-24.885,29.971-30.398,35.672c-5.555,5.658-10.131,9.404-13.773,11.152
	c-3.641,1.746-7.574,2.602-11.674,2.602C159.363,320,155.93,318.771,153.434,316.254z M93.094,344.938
	c-25.969-24.803-38.938-55.387-38.938-91.723c0-36.498,12.969-67.588,38.938-93.215h24.281
	c-25.469,26.613-38.219,57.623-38.219,93.002c0,35.084,12.719,65.721,38.094,91.936H93.094z M368.719,253.002
	c0-35.379-12.781-66.389-38.344-93.002h24.406c26.031,25.627,39.063,56.717,39.063,93.215c0,36.336-13.063,66.92-39.188,91.723
	H330.5C355.969,318.723,368.719,288.086,368.719,253.002z"/>
<g>
</g>
<g>
</g>
<g>
</g>
<g>
</g>
<g>
</g>
<g>
</g>
</svg>
