<svg xmlns="http://www.w3.org/2000/svg" viewBox="0 0 448 448"><path d="M224 32C117.961 32 32 117.961 32 224s85.961 192 192 192 192-85.961 192-192S330.039 32 224 32zm22.406 318.406h-44.813v-44.813h44.813v44.813zM282 226.344l-28.188 28.25c-4.75 4.906-7.406 11.719-7.406 19.063v12.75h-44.813v-12.75c0-19.031 7.219-36.969 20.281-50.469l28.188-28.219c4.75-4.938 7.406-11.75 7.406-19.094 0-18.469-15-33.469-33.469-33.469s-33.469 15-33.469 33.469v6.406h-44.813v-6.406c0-43.156 35.125-78.281 78.281-78.281s78.281 35.125 78.281 78.281c.002 19-7.185 36.938-20.279 50.469z"/></svg>