<svg xmlns="http://www.w3.org/2000/svg" viewBox="0 0 448 448" enable-background="new 0 0 448 448"><path d="M352 160v-32h-83.014c-2.674-6.291-6.787-10.42-11.611-14.094-1.672-1.266-3.656-2.734-5.875-5.031-7.406-7.672-11.5-17.922-11.5-28.875s4.094-21.203 11.516-28.891c13.203-13.687 20.484-31.843 20.484-51.109h-32c0 10.938-4.094 21.188-11.5 28.875-13.219 13.688-20.5 31.844-20.5 51.125 0 17.918 6.518 34.709 18.018 48h-69.031c-2.674-6.291-6.787-10.42-11.611-14.094-1.672-1.266-3.656-2.734-5.875-5.031-7.407-7.672-11.501-17.922-11.501-28.875s4.094-21.203 11.5-28.875c13.219-13.687 20.5-31.844 20.5-51.125h-32c0 10.953-4.094 21.203-11.5 28.875-13.219 13.688-20.5 31.844-20.5 51.125 0 17.918 6.518 34.709 18.018 48h-114.018v128c0 71.021 42.383 132.215 103.113 160h-71.113v32h288v-32h-71.121c31.914-14.602 58.656-38.432 76.928-68.102 8.5 2.424 17.193 4.102 26.193 4.102 52.938 0 96-43.063 96-96s-43.062-96-96-96zm-176 240c-79.406 0-144-64.594-144-144v-96h288v96c0 79.406-64.594 144-144 144zm176-80c-4.014 0-7.932-.48-11.789-1.199 7.502-19.537 11.789-40.658 11.789-62.801v-64c35.281 0 64 28.703 64 64 0 35.281-28.719 64-64 64z"/></svg>