<svg xmlns="http://www.w3.org/2000/svg" viewBox="0 0 448 448" enable-background="new 0 0 448 448"><path d="M224 0c-123.516 0-224 100.484-224 224 0 123.5 100.484 224 224 224 123.5 0 224-100.5 224-224 0-123.516-100.5-224-224-224zm-192 224c0-65.648 33.15-123.65 83.551-158.289 22.213-.605 44.201 4.459 63.824 15.195 3.48 1.904 6.322 4.48 9.611 6.596-9.99 12.207-19.23 25.043-26.721 39.107-51.031 95.875-15.047 216.328 80.234 268.516 10.764 5.889 22.01 10.289 33.512 13.523-16.568 4.674-33.966 7.352-52.011 7.352-105.875 0-192-86.125-192-192zm191.168 116.775c-52.682-50.588-68.465-131.844-32.652-199.135 6.6-12.398 14.766-23.695 23.609-34.42 52.66 50.576 68.424 131.822 32.594 199.123-6.608 12.417-14.75 23.714-23.551 34.432zm110.594 40.532c-26.371 3.254-52.434-1.393-75.887-14.244-3.471-1.9-6.303-4.473-9.584-6.582 9.967-12.199 19.195-25.033 26.678-39.105 51.062-95.923 15.062-216.376-80.219-268.532-9.174-5.031-18.848-8.754-28.697-11.861 18.297-5.807 37.752-8.983 57.947-8.983 105.875 0 192 86.125 192 192 0 65.061-32.598 122.564-82.238 157.307z"/></svg>