<svg xmlns="http://www.w3.org/2000/svg" viewBox="0 0 448 448" enable-background="new 0 0 448 448"><path d="M115.313 299.313l-60.688 60.687 60.688 60.688-22.625 22.625-83.313-83.313 83.313-83.313 22.625 22.626zm121.375 0l60.687 60.687-60.688 60.688 22.625 22.625 83.313-83.313-83.313-83.313-22.624 22.626zm-60.688 12.687c-26.51 0-48 21.49-48 48s21.49 48 48 48 48-21.49 48-48-21.49-48-48-48zm240-190.625v326.625h-64v-32h32v-256h-128v-128h-160v224h-32v-256h230.623l121.377 121.375zm-38.623 6.625l-89.377-89.375v89.375h89.377z"/></svg>