<svg xmlns="http://www.w3.org/2000/svg" viewBox="0 0 448 448" enable-background="new 0 0 448 448"><path d="M10.719 433.563v-35c6.344 5.344 13.219 9.313 20.656 12 7.438 2.656 14.969 3.969 22.563 3.969 4.438 0 8.313-.406 11.625-1.188 3.313-.813 6.094-1.906 8.313-3.344 2.219-1.406 3.875-3.094 5-5.031 1.063-1.938 1.625-4.031 1.625-6.281 0-3.063-.875-5.813-2.625-8.219s-4.125-4.625-7.156-6.656c-3.031-2.063-6.625-4.031-10.781-5.906-4.156-1.906-8.625-3.844-13.438-5.813-12.251-5.094-21.407-11.344-27.407-18.688-6.031-7.375-9.031-16.281-9.031-26.688 0-8.188 1.625-15.188 4.938-21.063 3.25-5.875 7.719-10.688 13.375-14.5 5.656-3.781 12.188-6.563 19.625-8.344 7.438-1.813 15.313-2.688 23.625-2.688 8.188 0 15.406.5 21.719 1.469 6.313 1 12.125 2.5 17.469 4.531v32.719c-2.625-1.844-5.5-3.438-8.594-4.813-3.094-1.406-6.281-2.531-9.594-3.438-3.25-.938-6.531-1.594-9.781-2.031s-6.313-.656-9.219-.656c-4.031 0-7.688.375-10.938 1.156-3.313.75-6.063 1.813-8.313 3.219-2.281 1.375-4.031 3.031-5.25 4.969-1.25 1.938-1.875 4.094-1.875 6.5 0 2.625.688 5 2.063 7.063 1.406 2.094 3.375 4.063 5.938 5.906 2.531 1.875 5.625 3.688 9.281 5.469s7.781 3.625 12.344 5.531c6.281 2.625 11.906 5.406 16.906 8.375 5 2.938 9.281 6.281 12.844 10 3.594 3.719 6.313 7.969 8.219 12.75 1.906 4.75 2.844 10.313 2.844 16.656 0 8.75-1.656 16.094-4.969 22.063-3.313 5.938-7.844 10.75-13.531 14.438-5.688 3.656-12.281 6.313-19.844 7.906-7.531 1.625-15.5 2.406-23.906 2.406-8.594 0-16.781-.719-24.531-2.188-7.783-1.435-14.502-3.623-20.189-6.56zm222.594 6.031h-32.719v-16.094h-.438c-7.5 12.563-18.625 18.813-33.344 18.813-10.875 0-19.438-3.063-25.656-9.219-6.25-6.188-9.344-14.406-9.344-24.688 0-21.719 12.844-34.25 38.594-37.625l30.406-4.031c0-12.25-6.625-18.375-19.906-18.375-13.344 0-26.031 3.969-38.063 11.906v-26.031c4.813-2.469 11.406-4.656 19.75-6.563 8.344-1.875 15.938-2.844 22.781-2.844 31.938 0 47.938 15.938 47.938 47.813v66.938zm-32.5-45.5v-7.563l-20.344 2.625c-11.219 1.469-16.844 6.531-16.844 15.219 0 3.938 1.375 7.156 4.094 9.688 2.75 2.5 6.438 3.75 11.094 3.75 6.5 0 11.781-2.219 15.875-6.719 4.093-4.469 6.125-10.156 6.125-17zm52.5 42.531v-28c5.688 3.438 11.344 6 17 7.656 5.656 1.688 11 2.531 16.031 2.531 6.125 0 10.969-.844 14.5-2.531 3.531-1.656 5.313-4.219 5.313-7.656 0-2.188-.813-4-2.438-5.469-1.594-1.438-3.656-2.719-6.156-3.813-2.531-1.094-5.281-2.094-8.281-2.969-2.969-.875-5.844-1.844-8.625-2.938-4.438-1.688-8.375-3.5-11.75-5.406-3.406-1.938-6.25-4.188-8.531-6.75-2.313-2.531-4.063-5.5-5.25-8.844-1.219-3.375-1.813-7.344-1.813-11.938 0-6.25 1.375-11.656 4.094-16.188 2.75-4.5 6.375-8.219 10.938-11.094s9.781-5 15.656-6.344 11.969-2.031 18.313-2.031c4.969 0 10 .406 15.094 1.156 5.094.781 10.125 1.875 15.094 3.344v26.688c-4.375-2.563-9.063-4.469-14.063-5.75s-9.906-1.906-14.719-1.906c-2.25 0-4.375.188-6.375.594s-3.781 1-5.313 1.75c-1.531.781-2.75 1.75-3.625 2.969-.875 1.188-1.313 2.563-1.313 4.094 0 2.031.688 3.781 2 5.25 1.313 1.438 3 2.719 5.125 3.781 2.125 1.031 4.469 2 7.063 2.844 2.594.813 5.156 1.688 7.688 2.563 4.625 1.594 8.75 3.344 12.5 5.25 3.688 1.875 6.906 4.125 9.563 6.656 2.656 2.563 4.688 5.563 6.125 8.969 1.406 3.438 2.125 7.531 2.125 12.25 0 6.656-1.438 12.313-4.313 17.031-2.875 4.688-6.719 8.531-11.5 11.469-4.781 2.969-10.281 5.094-16.5 6.469-6.25 1.344-12.719 2-19.438 2-12.313.001-23.719-1.874-34.219-5.687zm98.531 0v-28c5.688 3.438 11.344 6 17 7.656 5.656 1.688 11 2.531 16.031 2.531 6.125 0 10.969-.844 14.5-2.531 3.531-1.656 5.313-4.219 5.313-7.656 0-2.188-.813-4-2.438-5.469-1.594-1.438-3.656-2.719-6.156-3.813-2.531-1.094-5.281-2.094-8.281-2.969-2.969-.875-5.844-1.844-8.625-2.938-4.438-1.688-8.375-3.5-11.75-5.406-3.406-1.938-6.25-4.188-8.531-6.75-2.313-2.531-4.063-5.5-5.25-8.844-1.219-3.375-1.813-7.344-1.813-11.938 0-6.25 1.375-11.656 4.094-16.188 2.75-4.5 6.375-8.219 10.938-11.094s9.781-5 15.656-6.344 11.969-2.031 18.313-2.031c4.969 0 10 .406 15.094 1.156 5.094.781 10.125 1.875 15.094 3.344v26.688c-4.375-2.563-9.063-4.469-14.063-5.75s-9.906-1.906-14.719-1.906c-2.25 0-4.375.188-6.375.594s-3.781 1-5.313 1.75c-1.531.781-2.75 1.75-3.625 2.969-.875 1.188-1.313 2.563-1.313 4.094 0 2.031.688 3.781 2 5.25 1.313 1.438 3 2.719 5.125 3.781 2.125 1.031 4.469 2 7.063 2.844 2.594.813 5.156 1.688 7.688 2.563 4.625 1.594 8.75 3.344 12.5 5.25 3.688 1.875 6.906 4.125 9.563 6.656 2.656 2.563 4.688 5.563 6.125 8.969 1.406 3.438 2.125 7.531 2.125 12.25 0 6.656-1.438 12.313-4.313 17.031-2.875 4.688-6.719 8.531-11.5 11.469-4.781 2.969-10.281 5.094-16.5 6.469-6.25 1.344-12.719 2-19.438 2-12.313.001-23.719-1.874-34.219-5.687zm-255.844-212.625v-192h160v128h128v128h32v-166.624l-121.376-121.376h-230.624v224h32zm192-185.376l89.376 89.376h-89.376v-89.376z"/></svg>