<svg xmlns="http://www.w3.org/2000/svg" viewBox="0 0 448 448" enable-background="new 0 0 448 448"><path d="M256 160h128v224h32v-262.624l-121.376-121.376h-230.624v256h32v-224h160v128zm32-121.376l89.376 89.376h-89.376v-89.376zm-278.047 383.407v-32.5c5.906 4.938 12.313 8.656 19.219 11.125s13.875 3.719 20.906 3.719c4.125 0 7.75-.375 10.813-1.125 3.094-.75 5.656-1.781 7.719-3.094s3.625-2.875 4.625-4.688c1.031-1.781 1.531-3.719 1.531-5.844 0-2.813-.813-5.375-2.438-7.594-1.625-2.25-3.844-4.313-6.656-6.219-2.813-1.875-6.156-3.719-10-5.469s-8.031-3.563-12.5-5.375c-11.375-4.75-19.844-10.531-25.438-17.375s-8.375-15.092-8.375-24.779c0-7.594 1.531-14.094 4.563-19.563 3.063-5.438 7.188-9.938 12.438-13.438 5.25-3.531 11.344-6.125 18.25-7.781s14.219-2.469 21.938-2.469c7.563 0 14.281.438 20.156 1.344 5.844.938 11.25 2.344 16.188 4.219v30.375c-2.438-1.688-5.094-3.188-7.969-4.469s-5.844-2.344-8.875-3.188c-3.063-.844-6.094-1.469-9.094-1.906-3.031-.375-5.875-.594-8.594-.594-3.719 0-7.094.344-10.156 1.063-3.031.719-5.625 1.719-7.719 3s-3.719 2.813-4.875 4.625c-1.156 1.781-1.719 3.813-1.719 6.031 0 2.438.656 4.625 1.938 6.563s3.094 3.75 5.469 5.469c2.375 1.75 5.25 3.438 8.656 5.094 3.375 1.656 7.188 3.375 11.469 5.125 5.813 2.438 11.031 5.031 15.688 7.781 4.625 2.719 8.625 5.844 11.938 9.281s5.844 7.406 7.594 11.844c1.781 4.438 2.656 9.594 2.656 15.469 0 8.125-1.531 14.969-4.625 20.469-3.063 5.531-7.25 10-12.531 13.406-5.281 3.438-11.438 5.875-18.438 7.375-7 1.469-14.406 2.219-22.188 2.219-8 0-15.594-.656-22.813-2.031-7.22-1.345-13.438-3.376-18.751-6.095zm184.844 8.125c-20.844 0-37.844-6.75-50.969-20.313-13.125-13.656-19.719-31.375-19.719-53.094 0-22.969 6.688-41.594 20.031-55.875 13.25-14.219 30.938-21.313 53-21.313 20.781 0 37.594 6.781 50.375 20.406 12.859 13.531 19.297 31.469 19.297 53.813 0 22.813-6.688 41.281-20.016 55.344l-1.313 1.375s-.844.875-1.313 1.281l36.891 35.438h-45.922l-19.313-19.594c-6.342 1.689-13.373 2.532-21.029 2.532zm1.437-122.375c-11.438 0-20.594 4.344-27.438 13-6.75 8.594-10.125 20-10.125 34.219 0 14.438 3.375 25.844 10.125 34.25 6.781 8.375 15.656 12.563 26.625 12.563 11.313 0 20.281-4.063 26.906-12.188 6.656-8.25 9.969-19.594 9.969-34 0-15.031-3.219-26.781-9.656-35.25-6.374-8.406-15.156-12.594-26.406-12.594zm181.454 119.844h-86.688v-145.625h32.813v119h53.875v26.625z"/></svg>