<svg xmlns="http://www.w3.org/2000/svg" viewBox="0 0 448 448" enable-background="new 0 0 448 448"><path d="M256 160h128v128h32v-166.624l-121.376-121.376h-230.624v288h32v-256h160v128zm32-121.376l89.376 89.376h-89.376v-89.376zm-209.953 361.47v44.781h-29.25v-129.969h45.844c32.75 0 49.125 13.813 49.125 41.438 0 13.031-4.719 23.594-14.094 31.656-9.406 8.063-21.938 12.094-37.656 12.094h-13.969zm0-62.688v40.5h11.531c15.563 0 23.375-6.844 23.375-20.469 0-13.375-7.813-20.031-23.375-20.031h-11.531zm190.703 51.188c0 39.031-18.203 58.531-54.578 58.531-35.281 0-52.938-19.031-52.938-57.156v-75.063h29.375v75.406c0 21.031 8.219 31.531 24.656 31.531 16.125 0 24.188-10.125 24.188-30.438v-76.5h29.297v73.689zm134.938 47.594c-12.688 7.313-28.5 10.938-47.313 10.938-20.938 0-37.375-5.781-49.438-17.344s-18.063-27.5-18.063-47.813c0-20.406 6.563-37.063 19.75-49.906 13.125-12.875 30.688-19.313 52.563-19.313 13.75 0 25.875 1.906 36.438 5.688v27.469c-10.063-5.781-22.313-8.688-36.813-8.688-12.125 0-22.063 3.938-29.688 11.813-7.625 7.906-11.438 18.406-11.438 31.594 0 13.344 3.375 23.688 10.25 31s16.125 10.969 27.813 10.969c7 0 12.563-1 16.625-3v-25.375h-26v-23.375h55.313v65.343z"/></svg>