<svg xmlns="http://www.w3.org/2000/svg" viewBox="0 0 448 448" enable-background="new 0 0 448 448"><path d="M294.624 0h-230.624v256h32v-224h160v128h128v256h-128v32h160v-326.624l-121.376-121.376zm-6.624 128v-89.376l89.376 89.376h-89.376zm-204.641 254.563c0 21-4.875 37.094-14.594 48.25-9.75 11.156-23.844 16.75-42.281 16.75-8.25 0-15.844-1.438-22.844-4.281v-33.156c6.031 4.625 12.813 6.906 20.313 6.906 16.125 0 24.188-11.969 24.188-35.875v-93.188h35.219v94.594zm27.125 56.25v-35c6.344 5.313 13.219 9.313 20.656 11.969s14.969 3.969 22.563 3.969c4.438 0 8.313-.375 11.625-1.188s6.094-1.906 8.313-3.344c2.219-1.406 3.875-3.094 5-5.031 1.063-1.938 1.625-4.031 1.625-6.281 0-3.063-.875-5.781-2.625-8.219-1.75-2.375-4.125-4.625-7.156-6.656s-6.625-4-10.781-5.906-8.625-3.813-13.438-5.813c-12.25-5.094-21.406-11.313-27.406-18.688-6.031-7.375-9.031-16.25-9.031-26.688 0-8.156 1.625-15.188 4.938-21.063 3.25-5.875 7.719-10.688 13.375-14.5 5.656-3.781 12.188-6.563 19.625-8.344s15.313-2.688 23.625-2.688c8.188 0 15.406.5 21.719 1.469 6.313 1 12.125 2.5 17.469 4.563v32.688c-2.625-1.813-5.5-3.438-8.594-4.813s-6.281-2.531-9.594-3.438c-3.25-.906-6.531-1.594-9.781-2.031s-6.313-.656-9.219-.656c-4.031 0-7.688.375-10.938 1.156-3.313.75-6.063 1.844-8.313 3.219-2.281 1.375-4.031 3.031-5.25 4.969-1.25 1.938-1.875 4.094-1.875 6.531 0 2.625.688 4.969 2.063 7.031 1.406 2.094 3.375 4.063 5.938 5.906 2.531 1.875 5.625 3.688 9.281 5.469s7.781 3.625 12.344 5.531c6.281 2.625 11.906 5.406 16.906 8.375 5 2.938 9.281 6.281 12.844 10 3.594 3.719 6.313 7.969 8.219 12.75s2.844 10.313 2.844 16.688c0 8.75-1.656 16.094-4.969 22.031s-7.844 10.75-13.531 14.438-12.281 6.313-19.844 7.906c-7.531 1.625-15.5 2.438-23.906 2.438-8.594 0-16.781-.75-24.531-2.188-7.783-1.468-14.502-3.655-20.19-6.561z"/></svg>