<svg xmlns="http://www.w3.org/2000/svg" viewBox="0 0 448 448" enable-background="new 0 0 448 448"><path d="M294.623 0h-230.623v224h32v-192h160v128h128v256h-96v32h128v-326.625l-121.377-121.375zm-6.623 128v-89.377l89.377 89.377h-89.377zm-224 202.656c0 8.654 1.363 16.859 3.32 24.805-14.18 1.736-28.977-9.652-28.977-24.805 0-13.875 11.313-25.188 25.219-25.188v-32c-31.547 0-57.219 25.656-57.219 57.188 0 31.563 25.672 57.219 57.219 57.219 5.574 0 10.949-1.066 16.197-2.625 8.219 12.838 19.482 23.164 32.58 30.75h-48.339v32h192v-32h-48.34c28.955-16.768 48.34-48.16 48.34-85.344v-74.656h-192v74.656zm32-42.656h128v42.656c0 37.25-28.109 66.438-64 66.438s-64-29.188-64-66.438v-42.656z"/></svg>