<svg xmlns="http://www.w3.org/2000/svg" viewBox="0 0 448 448" enable-background="new 0 0 448 448"><path d="M216.469 344.813c-14.719 7.156-33.938 10.688-57.656 10.688-30.938 0-55.281-9.063-72.969-27.25-17.75-18.188-26.594-42.438-26.594-72.719 0-32.25 9.969-58.406 29.875-78.469 19.938-20.063 45.781-30.094 77.563-30.094 19.688 0 36.281 2.5 49.781 7.469v43.719c-13.5-8.063-28.875-12.094-46.125-12.094-18.938 0-34.219 5.969-45.844 17.875s-17.438 28.031-17.438 48.375c0 19.5 5.469 35.031 16.469 46.594 10.938 11.594 25.719 17.375 44.281 17.375 17.719 0 33.938-4.313 48.656-12.938v41.469zm177.469-143.125l-5.5 25.313h-26l-7.75 34.875h29.125l-6.313 25.313h-28l-10.969 48.625h-28.125l10.281-48.625h-32.219l-10.406 48.625h-28.125l10-48.625h-26.187l5.219-25.313h26.438l7.468-34.876h-28.438l4.813-25.313h28.813l10.406-50.063h28.844l-10.438 50.063h32.219l10.688-50.063h28.531l-10.375 50.063h26zm-59.907 25.312h-32.625l-7.719 34.875h32.469l7.875-34.875zm113.969 189h-448v-352h448v352zm-416-32h384v-288h-384v288z"/></svg>