<svg xmlns="http://www.w3.org/2000/svg" viewBox="0 0 448 448" enable-background="new 0 0 448 448"><path d="M256 160h128v128h32v-166.624l-121.376-121.376h-230.624v288h32v-256h160v128zm32-121.376l89.376 89.376h-89.376v-89.376zm-216.562 355.564c0 17.406-4.031 30.719-12.094 39.969s-19.75 13.843-35.031 13.843c-6.844 0-13.156-1.156-18.938-3.531v-27.438c5 3.781 10.625 5.688 16.844 5.688 13.344 0 20.031-9.906 20.031-29.719v-77.219h29.188v78.407zm137.187 51.562h-31.875l-9.25-28.906h-46.219l-9.156 28.906h-31.719l47.313-129.969h34.719l46.187 129.969zm-47.844-51.375l-13.938-43.688c-1.031-3.25-1.75-7.156-2.188-11.688h-.719c-.313 3.813-1.063 7.563-2.281 11.313l-14.125 44.063h33.251zm64.094 51.375v-129.969h46.031c46.156 0 69.219 21.125 69.219 63.344 0 20.25-6.281 36.406-18.875 48.5s-29.375 18.125-50.344 18.125h-46.031zm29.25-106.125v82.375h14.5c12.688 0 22.656-3.813 29.875-11.406 7.219-7.625 10.813-17.969 10.813-31.094 0-12.375-3.563-22.125-10.719-29.219s-17.219-10.656-30.125-10.656h-14.344zm185.531 106.125h-77.938v-129.969h74.938v23.844h-45.688v28.906h42.5v23.75h-42.5v29.719h48.688v23.75z"/></svg>