<svg xmlns="http://www.w3.org/2000/svg" viewBox="0 0 448 448" enable-background="new 0 0 448 448"><path d="M189.738 416h-189.738v-384h448v189.736l-32-32.021v-61.715h-64v32h-32v-32h-128v93.721l-19.406 19.389 18.094 25.328-30.688 5.109v-143.547h-128v256h128v-15.563l30.688 5.109-18.063 25.328 17.113 17.126zm34.262-226.25l17.156-17.141 25.281 18.078 5.094-30.687h-47.531v29.75zm-96 34.25h-64v32h64v-32zm0-64h-64v32h64v-32zm-64 160h64v-32h-64v32zm291.92-86.72c-2.668-1.106-5.409-1.6-8.112-2.441l-6.47-38.839h-42.668l-6.466 38.789c-5.414 1.69-10.602 3.842-15.625 6.473l-32-22.859-30.173 30.17 22.886 32.038c-1.315 2.509-2.907 4.798-4.012 7.468-1.106 2.668-1.598 5.407-2.441 8.112l-38.839 6.471v42.668l38.789 6.466c1.69 5.414 3.842 10.602 6.473 15.625l-22.859 32 30.17 30.171 32.038-22.885c2.509 1.315 4.798 2.907 7.468 4.012 2.668 1.106 5.407 1.598 8.112 2.441l6.471 38.84h42.666l6.468-38.789c5.414-1.69 10.602-3.842 15.625-6.473l32 22.859 30.171-30.17-22.885-32.037c1.315-2.511 2.907-4.798 4.012-7.47 1.106-2.668 1.598-5.407 2.441-8.112l38.84-6.47v-42.668l-38.79-6.466c-1.69-5.414-3.842-10.602-6.473-15.625l22.859-32-30.17-30.171-32.038 22.885c-2.509-1.316-4.798-2.909-7.468-4.013zm20.969 86.72c0 31.418-25.471 56.889-56.889 56.889-31.418 0-56.889-25.471-56.889-56.889s25.471-56.889 56.889-56.889c31.418 0 56.889 25.471 56.889 56.889z"/></svg>