<svg xmlns="http://www.w3.org/2000/svg" viewBox="0 0 448 448" enable-background="new 0 0 448 448"><path d="M192.674 212.203l18.842 7.813 11.656-28.094-18.893-7.832c.744-4.133 1.283-8.342 1.283-12.684 0-4.344-.539-8.551-1.283-12.684l18.877-7.816-11.625-28.094-18.854 7.807c-4.877-7-10.957-13.074-17.957-17.951l7.811-18.84-28.094-11.656-7.832 18.891c-4.133-.744-8.34-1.281-12.684-1.281s-8.551.537-12.684 1.281l-7.816-18.875-28.093 11.625 7.805 18.85c-7.002 4.877-13.078 10.953-17.955 17.955l-18.85-7.805-11.625 28.094 18.875 7.816c-.744 4.133-1.281 8.34-1.281 12.684s.537 8.551 1.281 12.684l-18.891 7.832 11.656 28.094 18.84-7.811c4.877 7 10.951 13.08 17.951 17.957l-7.807 18.854 28.094 11.641 7.818-18.893c4.131.744 8.34 1.283 12.682 1.283s8.551-.539 12.684-1.283l7.832 18.893 28.094-11.658-7.813-18.842c7.001-4.875 13.081-10.955 17.956-17.955zm-58.752.438c-22.734 0-41.219-18.5-41.219-41.234s18.484-41.219 41.219-41.219 41.234 18.484 41.234 41.219-18.5 41.234-41.234 41.234zm252.203 82.922c0-5.879-.656-11.6-1.826-17.137l21.17-8.77-11.625-28.094-21.271 8.82c-6.309-9.654-14.539-17.883-24.191-24.191l8.807-21.27-28.063-11.625-8.766 21.172c-5.537-1.17-11.26-1.828-17.141-1.828-5.883 0-11.605.66-17.145 1.83l-8.793-21.189-28.078 11.656 8.832 21.262c-9.646 6.307-17.873 14.533-24.18 24.182l-21.277-8.818-11.625 28.094 21.172 8.766c-1.17 5.537-1.828 11.26-1.828 17.141s.658 11.604 1.828 17.141l-21.172 8.766 11.625 28.063 21.27-8.807c6.311 9.654 14.541 17.887 24.199 24.195l-8.828 21.268 28.063 11.625 8.789-21.174c5.541 1.17 11.266 1.83 17.148 1.83 5.879 0 11.6-.656 17.137-1.826l8.77 21.17 28.063-11.625-8.809-21.264c9.658-6.311 17.891-14.543 24.201-24.201l21.264 8.809 11.625-28.063-21.17-8.77c1.169-5.539 1.825-11.26 1.825-17.138zm-82.906 52.531c-28.969 0-52.516-23.563-52.516-52.531s23.547-52.516 52.516-52.516 52.531 23.547 52.531 52.516-23.562 52.531-52.531 52.531zm144.781 99.906h-448v-448h448v448zm-416-32h384v-384h-384v384z"/></svg>