<svg xmlns="http://www.w3.org/2000/svg" viewBox="0 0 448 448" enable-background="new 0 0 448 448"><path d="M96 286.956v-256h160v128h128v160h32v-198.624l-121.376-121.376h-230.624v288h32zm192-249.376l89.376 89.376h-89.376v-89.376zm-222.516 359.358c0 16.5-3.828 29.156-11.469 37.906-7.656 8.75-18.718 13.156-33.218 13.156-6.469 0-12.453-1.125-17.953-3.344v-26.063c4.75 3.625 10.078 5.438 15.969 5.438 12.672 0 19-9.406 19-28.188v-73.25h27.672v74.345zm130.11 48.906h-30.25l-8.781-27.406h-43.813l-8.688 27.406h-30.078l44.859-123.25h32.906l43.845 123.25zm-45.375-48.719l-13.25-41.438c-.969-3.094-1.656-6.781-2.063-11.094h-.688c-.281 3.625-1 7.219-2.141 10.75l-13.406 41.781h31.548zm153.656-74.531l-42.438 123.25h-31.469l-41.938-123.25h29.906l25.703 85.781c1.375 4.656 2.203 8.75 2.484 12.281h.516c.406-3.844 1.281-8.031 2.656-12.625l25.516-85.438h29.064zm114.063 123.25h-30.25l-8.813-27.406h-43.813l-8.688 27.406h-30.063l44.875-123.25h32.875l43.877 123.25zm-45.375-48.719l-13.25-41.438c-1-3.094-1.688-6.781-2.063-11.094h-.688c-.313 3.625-1 7.219-2.156 10.75l-13.406 41.782h31.563z"/></svg>