<svg xmlns="http://www.w3.org/2000/svg" viewBox="0 0 448 448"><path d="M333.714 278.857c-10.175 0-19.55 2.946-27.696 7.768l-77.946-77.946c14.41-18.59 23.357-41.63 23.357-66.968 0-4.45-.8-8.68-1.286-12.964l63.05-15.804c9.268 17.09 27.16 28.768 47.946 28.768 30.32 0 54.858-24.59 54.858-54.857.003-30.317-24.537-54.854-54.855-54.854-30.16 0-54.59 24.32-54.804 54.43l-62.57 15.64c-15.91-40.93-55.503-70.07-102.054-70.07-60.59 0-109.714 49.125-109.714 109.714 0 46.554 29.146 86.09 70.068 102l-15.64 62.625c-30.103.211-54.428 24.641-54.428 54.801 0 30.322 24.54 54.86 54.857 54.86s54.857-24.536 54.857-54.857c0-20.786-11.68-38.68-28.71-47.946l15.746-63.107c4.286.536 8.515 1.34 12.964 1.34 25.34 0 48.372-8.947 66.964-23.358l77.946 77.946c-4.82 8.143-7.768 17.518-7.768 27.696 0 30.32 24.54 54.857 54.857 54.857s54.857-24.532 54.857-54.853c0-30.32-24.538-54.857-54.856-54.857zm-192-82.286c-30.318 0-54.857-24.532-54.857-54.853s24.54-54.857 54.857-54.857 54.857 24.535 54.857 54.856-24.535 54.857-54.853 54.857z"/></svg>