<svg xmlns="http://www.w3.org/2000/svg" viewBox="0 0 448 448" enable-background="new 0 0 448 448"><path d="M416 32v32h-32v-32h32zm-128 0v32h32v-32h-32zm-64 0h-32v32h32v-32zm-64 0h-32v32h32v-32zm128 96v-32h-32v32h32zm64 0v-32h-32v32h32zm-192-32h-32v32h32v-32zm128 160v-32h-32v32h32zm64-96h-32v32h32v-32zm-160-32h32v-32h-32v32zm96 64v-32h-32v32h32zm-96 0h32v-32h-32v32zm160 128v-32h-32v32h32zm-32-64h32v-32h-32v32zm96 128v-32h-32v32h32zm0-64v-32h-32v32h32zm0-64v-32h-32v32h32zm-352-224v32h32v-32h-32zm320 128h32v-32h-32v32zm-352 256v-384h-32v416h416v-32h-384zm32-320v-32h-32v32h32zm32 32v-32h-32v32h32zm32 32v-32h-32v32h32zm32 32v-32h-32v32h32zm32 32v-32h-32v32h32zm32 32v-32h-32v32h32zm32 32v-32h-32v32h32zm32 32v-32h-32v32h32zm32 32v-32h-32v32h32zm32 32v-32h-32v32h32zm32 32v-32h-32v32h32z"/></svg>