<svg xmlns="http://www.w3.org/2000/svg" viewBox="0 0 448 448" enable-background="new 0 0 448 448"><path d="M368 320h-80v-32h22.406c23.313 0 41.594-24.594 41.594-56v-8h32v-64h-32v-8c0-31.406-18.281-56-41.594-56h-86.406v-36.904c9.393-5.574 16-15.381 16-27.096 0-17.674-14.326-32-32-32s-32 14.326-32 32c0 11.715 6.607 21.521 16 27.096v36.904h-86.406c-23.328 0-41.594 24.594-41.594 56v8h-32v64h32v8c0 31.406 18.266 56 41.594 56h22.406v32h-80c-26.469 0-48 18.344-48 40.875v87.125h32v-87.125c0-3.531 6.375-8.875 16-8.875h320c9.625 0 16 5.344 16 8.875v87.125h32v-87.125c0-22.531-21.531-40.875-48-40.875zm-262.406-64c-2.391 0-9.594-8.516-9.594-24v-80c0-15.484 7.203-24 9.594-24h204.813c2.375 0 9.594 8.516 9.594 24v80c0 15.484-7.219 24-9.594 24h-204.813zm54.406 64v-32h96v32h-96zm0-128h-32v-32h32v32zm128 0h-32v-32h32v32z"/></svg>