<svg xmlns="http://www.w3.org/2000/svg" viewBox="0 0 448 448"><path d="M293.344 0c-85.28 0-154.672 69.39-154.672 154.672 0 36.863 13.502 70.3 35.11 96.904l-169.092 169.112c-6.25 6.25-6.25 16.375 0 22.625 3.123 3.125 7.216 4.687 11.31 4.687s8.188-1.563 11.313-4.688l169.092-169.107c26.61 21.627 60.06 35.14 96.94 35.14 85.28 0 154.655-69.392 154.655-154.673s-69.375-154.672-154.656-154.672zm0 277.344c-67.64 0-122.672-55.03-122.672-122.672s55.03-122.672 122.672-122.672c67.626 0 122.656 55.03 122.656 122.672s-55.03 122.672-122.656 122.672z"/></svg>