<svg xmlns="http://www.w3.org/2000/svg" viewBox="0 0 448 448" enable-background="new 0 0 448 448"><path d="M111.376 127.849v-31.963h-15.002v-95.886l-50.374 11.237v23.019l18.374-5.93v67.561h-14v31.962h61.002zm-35.376 129.846s32.985-37.456 35.014-41.108c2.064-3.683 3.581-7.304 4.502-10.956.874-3.589 1.328-7.241 1.328-10.987 0-4.932-.797-9.613-2.39-13.952-1.61-4.308-4.048-8.084-7.376-11.3-3.344-3.184-7.562-5.712-12.624-7.554-5.126-1.81-11.11-2.747-18.048-2.747-3.859 0-7.594.312-11.203.936-3.642.624-32.608 8.209-32.608 9.426v31.432c0-1.779 19.578-10.768 22.218-11.955 2.64-1.186 6.189-2.091 9.03-2.809 2.781-.656 6.109-.999 9.078-.999 3.062 0 6.016.468 8.374 1.28 2.378.842 7.453 7.241 6.39 11.986-1.078 4.776-3.92 11.362-10.218 19.321-2.406 3.059-44.874 47.007-44.874 47.007v22.442h83.498v-29.465h-40.091zm37.625 135.121c-5.625-13.267-20.531-16.138-20.531-16.138 20.906-2.621 18.326-28.653 18.326-32.432 0-3.962-.781-7.926-2.31-11.827-1.549-3.904-3.955-7.338-7.376-10.454-3.328-3.124-7.718-5.652-13.11-7.586-5.389-1.937-11.968-2.873-19.686-2.873-3.766 0-7.312.22-10.611.627-3.232.435-6.266.997-9.046 1.716-2.781.684-5.187 1.496-7.341 2.308-2.189.78-8.438 1.592-9.939 2.343v23.722c15.501-8.115 36.704-7.805 39.28-7.334 17.219 3.216 6.909 25.622 4.736 27.123-2.093 1.558-4.765 2.778-8.016 3.619-3.28.874-7.139 1.28-11.719 1.28h-10.97v22.256h11.891c4.157 0 8.077.406 11.626 1.123 3.562.749 6.64 1.904 9.203 3.341 2.576 1.53 4.576 3.466 6.016 5.773 1.453 2.31 2.17 5.056 2.17 8.179 0 5.523-2 9.987-6.125 13.203-4.077 3.309-9.936 4.96-17.654 4.96-2.454 0-5.034-.154-7.75-.624-2.72-.403-5.453-.966-8.189-1.808-2.656-.781-5.296-1.747-7.875-3.03-2.499-1.213-3.469-4.086-5.687-5.648v25.283c1.843.938 2.608 3.277 5.139 4.086 2.563.813 5.344 1.565 8.33 2.125s6.064 1.091 9.267 1.373c3.232.342 6.467.499 9.654.499 8.688 0 16.25-1.03 22.579-3.12 6.342-2.061 11.53-4.899 15.594-8.554 4.109-3.619 7.139-7.898 9.094-12.733 1.498-3.687 6.56-17.728 1.03-30.778zm334.375-296.816h-288v-32h288v32zm0 160h-288v-32h288v32zm0 160h-288v-32h288v32z"/></svg>