<svg xmlns="http://www.w3.org/2000/svg" viewBox="0 0 448 448"><path d="M4 223.45l.186.482-.186.585v-1.066zm304.75 27.55c0-46.73-38.02-84.75-84.75-84.75s-84.75 38.02-84.75 84.75 38.02 84.75 84.75 84.75 84.75-38.02 84.75-84.75zm-32 0c0 29.087-23.663 52.75-52.75 52.75-29.086 0-52.75-23.663-52.75-52.75 0-29.086 23.664-52.75 52.75-52.75 29.087 0 52.75 23.664 52.75 52.75zm103.57-138.486c-41.866-36.284-97.38-56.264-156.32-56.264s-114.456 19.98-156.32 56.264c-42.515 36.846-65.93 86.03-65.93 138.486h32c0-89.74 85.346-162.75 190.25-162.75s190.25 73.01 190.25 162.75h32c0-52.457-23.414-101.64-65.93-138.486z"/></svg>