<svg xmlns="http://www.w3.org/2000/svg" viewBox="0 0 448 448" enable-background="new 0 0 448 448"><path d="M367.43 260.12c-2.334-.968-4.733-1.4-7.098-2.136l-5.662-33.984h-37.334l-5.658 33.941c-4.738 1.478-9.277 3.362-13.672 5.664l-28-20.002-26.402 26.398 20.026 28.034c-1.15 2.195-2.544 4.198-3.51 6.534-.968 2.334-1.398 4.731-2.136 7.098l-33.984 5.663v37.334l33.941 5.658c1.478 4.738 3.362 9.277 5.664 13.672l-20.002 28 26.398 26.4 28.034-20.024c2.195 1.15 4.198 2.544 6.534 3.51 2.334.968 4.731 1.398 7.098 2.136l5.663 33.984h37.333l5.659-33.941c4.738-1.478 9.277-3.362 13.672-5.664l28 20.002 26.4-26.398-20.024-28.032c1.15-2.197 2.544-4.198 3.51-6.536.968-2.334 1.398-4.731 2.136-7.098l33.984-5.663v-37.334l-33.941-5.658c-1.478-4.738-3.362-9.277-5.664-13.672l20.002-28-26.398-26.4-28.034 20.024c-2.195-1.15-4.199-2.544-6.535-3.51zm15.917 83.769c-4.357 26.149-29.087 43.815-55.236 39.458-26.149-4.357-43.815-29.088-39.458-55.236 4.357-26.149 29.088-43.815 55.236-39.458 26.149 4.357 43.815 29.087 39.458 55.236zm-191.347-7.955l-105.062 112.066h-83.204l96-160h-93.625l144-288h166.141l-95.984 160h136.672l-30 32h-163.204l96.016-160h-89.859l-112 224h98.375l-96 160h12.797l118.937-126.867v46.801z"/></svg>