<svg xmlns="http://www.w3.org/2000/svg" viewBox="0 0 448 448"><path d="M104.678 416c.104-2 .463-3.01.463-4.578 0-15.72-5.42-30.64-14.92-42.547 7.596-1.266 15.018-3.39 22.14-6.328l20.925 20.922c-.47 3.2-.703 6.434-.703 9.67 0 8.053 1.65 15.86 4.21 22.86h-32.11zm-104.678-61.676c3-1.977 5.918-4.29 9.297-5.762-3.455-2.617-6.297-5.892-9.297-8.884v14.646zm261.97-258.324l-63.347-64h-198.623v157.867c19-18.414 44.7-29.867 73.14-29.867 33.5 0 63.94 15.547 83.44 41.25 10.593-24.234 34.827-41.25 62.843-41.25 37.81 0 68.577 30.766 68.577 68.578s-30.766 68.562-68.578 68.562c-15.72 0-30.64-5.422-42.547-14.938-1.266 7.61-3.39 15.016-6.328 22.156l20.922 20.922c3.2-.47 6.434-.703 9.67-.703 37.81 0 68.58 30.75 68.58 68.563 0 8.055-1.65 15.86-4.217 22.86h182.498v-320h-186.03zm-24.256 297.143c0 20.214-16.36 36.57-36.57 36.57s-36.572-16.356-36.572-36.57c0-6.786 1.964-13.036 5.18-18.464l-51.965-51.968c-12.395 9.607-27.75 15.57-44.643 15.57-2.967 0-5.786-.535-8.643-.892l-10.494 42.07c11.355 6.18 19.14 18.11 19.14 31.966 0 20.214-16.358 36.57-36.57 36.57s-36.577-16.351-36.577-36.565c0-20.106 16.217-36.392 36.286-36.535l10.426-41.75c-27.28-10.61-46.712-36.965-46.712-68.002 0-40.393 32.75-73.143 73.143-73.143 31.033 0 57.43 19.426 68.038 46.712l41.716-10.426c.139-20.072 16.423-36.286 36.533-36.286 20.21 0 36.57 16.357 36.57 36.57 0 20.18-16.36 36.572-36.57 36.572-13.858 0-25.787-7.786-31.965-19.18l-42.035 10.538c.322 2.857.856 5.676.856 8.643 0 16.893-5.964 32.25-15.57 44.643l51.963 51.964c5.43-3.214 11.68-5.18 18.46-5.18 20.212 0 36.57 16.36 36.57 36.573zm-128-128c0-20.214-16.36-36.57-36.57-36.57s-36.572 16.356-36.572 36.57 16.36 36.57 36.57 36.57 36.572-16.356 36.572-36.57z"/></svg>