<svg xmlns="http://www.w3.org/2000/svg" viewBox="0 0 448 448" enable-background="new 0 0 448 448"><path d="M321.469 223.938c0-27.609-11.813-54.047-32.375-72.531l21.375-23.813c27.344 24.563 43 59.672 43 96.344 0 17.719-3.828 35.002-10.686 50.971l-25.23-25.23c2.308-8.361 3.916-16.925 3.916-25.741zm-63.49-33.834l-.082-.082.082.082zm128.275 128.275l22.996 22.996c24.889-35.602 38.75-77.959 38.75-121.453 0-55.656-21.781-108.547-61.344-148.938l-22.875 22.404c33.688 34.362 52.219 79.3 52.219 126.534 0 35.582-10.494 69.312-29.746 98.457zm-327.43-191.68l-23.525-23.525c-22.949 34.594-35.299 74.89-35.299 116.748 0 59.422 25.656 116.891 70.391 157.641l21.563-23.625c-38.657-35.25-59.954-82.844-59.954-134.016 0-33.244 9.641-65.135 26.824-93.223zm131.197 131.197l.082.082-.082-.082zm-59.566-59.566l-25.232-25.232c-6.85 15.963-10.676 33.242-10.676 50.963 0 36.689 15.672 71.781 42.982 96.346l21.377-23.813c-20.563-18.469-32.359-44.922-32.359-72.531 0-8.819 1.603-17.379 3.908-25.733zm296.858 206.358l-384-384-22.625 22.625 384 384 22.625-22.625z"/></svg>