<svg xmlns="http://www.w3.org/2000/svg" viewBox="0 0 448 448" enable-background="new 0 0 448 448"><path d="M250.25 260.719h-.781c-7.5 22.406-22.188 33.594-44.063 33.594-13.953 0-25.203-5.25-33.75-15.688-8.547-10.5-12.813-24.563-12.813-42.281 0-23.438 5.859-42.906 17.578-58.438s27.156-23.281 46.328-23.281c7.297 0 13.797 2 19.531 6 5.734 4.031 9.422 8.844 11.094 14.469h.469c.313-2.906 1.094-8.906 2.344-17.969h25.938c-4.891 55-7.344 83.031-7.344 84.063 0 20.625 5.359 30.938 16.094 30.938 9.797 0 17.922-5.75 24.375-17.25 6.453-11.531 9.688-26.438 9.688-44.781 0-27.094-8.719-49.188-26.172-66.344-17.453-17.125-41.641-25.688-72.578-25.688-29.688 0-54.266 10.375-73.75 31.094s-29.219 46.656-29.219 77.813c0 30.719 9.375 55.531 28.125 74.375s44.016 28.281 75.781 28.281c25 0 46.406-4.281 64.219-12.813v24.063c-18.234 7.719-40.984 11.563-68.281 11.563-38.328 0-69.219-11.469-92.656-34.375s-35.156-52.906-35.156-90c0-38.125 12.391-69.75 37.188-94.844s56.453-37.656 95-37.656c36.141 0 66.063 10.531 89.766 31.563s35.547 48.5 35.547 82.344c0 24.781-6.438 45.125-19.297 61.031-12.859 15.875-28.563 23.813-47.109 23.813-23.955-.002-35.987-11.19-36.096-33.596zm-24.844-83.906c-11.453 0-20.703 5.625-27.734 16.875s-10.547 25.25-10.547 42.031c0 11.25 2.375 20.125 7.109 26.656 4.734 6.5 11.063 9.75 18.984 9.75 11.453 0 20.516-5.906 27.188-17.75 6.672-11.813 10-27.469 10-46.938 0-20.406-8.328-30.624-25-30.624zm-161.406 175.187h-32v-256h32v-32h-64v320h64v-32zm384-288h-64v32h32v256h-32v32h64v-320z"/></svg>