<svg xmlns="http://www.w3.org/2000/svg" viewBox="0 0 448 448" enable-background="new 0 0 448 448"><path d="M183.828 187.066l25.516 10.574 12.25-29.563-25.416-10.533c1.179-5.667 1.822-11.53 1.822-17.544 0-6.018-.645-11.883-1.826-17.555l25.42-10.523-12.25-29.563-25.52 10.566c-6.482-9.855-14.904-18.273-24.76-24.754l10.576-25.531-29.563-12.25-10.535 25.432c-5.667-1.179-11.528-1.822-17.542-1.822s-11.875.643-17.543 1.822l-10.535-25.431-29.563 12.25 10.576 25.531c-9.855 6.48-18.277 14.898-24.76 24.754l-25.52-10.566-12.25 29.563 25.42 10.523c-1.18 5.671-1.825 11.536-1.825 17.554 0 6.014.643 11.877 1.822 17.545l-25.416 10.533 12.25 29.563 25.516-10.574c6.48 9.857 14.904 18.281 24.762 24.762l-10.574 25.516 29.563 12.25 10.533-25.416c5.667 1.178 11.53 1.821 17.544 1.821s11.877-.643 17.545-1.822l10.533 25.416 29.563-12.25-10.574-25.516c9.857-6.48 18.281-14.904 24.761-24.762zm-71.828 6.934c-29.781 0-54-24.219-54-54s24.219-54 54-54 54 24.219 54 54-24.219 54-54 54zm310 100c0-7.916-1.154-15.523-2.9-22.912l28.682-11.869-12.25-29.563-28.77 11.906c-8.16-13.139-19.189-24.166-32.326-32.324l11.908-28.754-29.563-12.25-11.871 28.668c-7.389-1.746-14.996-2.902-22.91-2.902s-15.521 1.156-22.91 2.902l-11.871-28.668-29.563 12.25 11.908 28.754c-13.137 8.16-24.166 19.186-32.326 32.326l-28.754-11.908-12.25 29.563 28.666 11.871c-1.746 7.389-2.9 14.996-2.9 22.91s1.154 15.52 2.902 22.908l-28.668 11.873 12.25 29.563 28.756-11.908c8.158 13.135 19.186 24.16 32.32 32.32l-11.904 28.744 29.563 12.25 11.867-28.654c7.391 1.748 14.998 2.904 22.914 2.904s15.523-1.156 22.914-2.904l11.867 28.654 29.563-12.25-11.904-28.744c13.135-8.158 24.16-19.184 32.318-32.318l28.773 11.906 12.25-29.563-28.684-11.869c1.749-7.391 2.903-14.998 2.903-22.912zm-100 68c-37.5 0-68-30.5-68-68s30.5-68 68-68 68 30.5 68 68-30.5 68-68 68z"/></svg>