<svg xmlns="http://www.w3.org/2000/svg" viewBox="0 0 448 448" enable-background="new 0 0 448 448"><path d="M64.938 320h32c0-34.781 28.297-63.063 63.063-63.063s63.063 28.281 63.063 63.063h32c0-34.852-19.066-65.064-47.119-81.613 14.924-13.285 24.525-32.418 24.525-53.918-.001-39.953-32.517-72.469-72.47-72.469s-72.469 32.516-72.469 72.469c0 21.5 9.602 40.633 24.525 53.918-28.052 16.549-47.118 46.761-47.118 81.613zm54.593-135.531c0-22.313 18.157-40.469 40.469-40.469s40.469 18.156 40.469 40.469-18.156 40.469-40.469 40.469-40.469-18.157-40.469-40.469zm-119.531-152.469v384h448v-384h-448zm416 352h-384v-320h384v320zm-32-224h-96v-32h96v32zm0 64h-96v-32h96v32zm0 64h-96v-32h96v32z"/></svg>