<svg xmlns="http://www.w3.org/2000/svg" viewBox="0 0 448 448" enable-background="new 0 0 448 448"><path d="M224 448h-32v-32h32v32zm-64-32h-32v32h32v-32zm-64 0h-32v32h32v-32zm-64 0h-32v32h32v-32zm0-64h-32v32h32v-32zm0-64h-32v32h32v-32zm0-64h-32v32h32v-32zm0-64h-32v32h32v-32zm128 0h-32v32h32v-32zm-64 0h-32v32h32v-32zm128 0h-32v32h32v-32zm0 192h-32v32h32v-32zm0-64h-32v32h32v-32zm0-64h-32v32h32v-32zm192-102.624v326.624h-160v-32h128v-256h-128v-128h-160v96h-32v-128h230.624l121.376 121.376zm-38.624 6.624l-89.376-89.376v89.376h89.376z"/></svg>