<svg xmlns="http://www.w3.org/2000/svg" viewBox="0 0 448 448" enable-background="new 0 0 448 448"><path d="M73.484 220.641l18.029-7.469c4.609 6.92 10.551 12.861 17.471 17.471l-7.469 18.029 22.188 9.172 7.449-17.971c4.004.809 8.141 1.252 12.379 1.252 4.234 0 8.363-.443 12.363-1.25l7.449 17.969 22.188-9.172-7.469-18.027c6.92-4.609 12.861-10.553 17.471-17.473l18.029 7.469 9.188-22.188-17.984-7.451c.807-4.004 1.25-8.139 1.25-12.377 0-4.232-.443-8.361-1.25-12.361l17.984-7.451-9.188-22.188-18.027 7.469c-4.609-6.922-10.551-12.863-17.473-17.473l7.469-18.027-22.188-9.188-7.451 17.984c-4-.807-8.129-1.25-12.361-1.25-4.238 0-8.373.443-12.377 1.25l-7.451-17.984-22.188 9.188 7.469 18.029c-6.92 4.609-12.863 10.551-17.473 17.471l-18.027-7.469-9.188 22.188 17.984 7.451c-.807 4-1.25 8.129-1.25 12.361 0 4.238.441 8.373 1.25 12.377l-17.984 7.451 9.188 22.188zm70.047-80.5c21.219 0 38.484 17.266 38.484 38.484 0 21.234-17.266 38.5-38.484 38.5-21.234 0-38.5-17.266-38.5-38.5 0-21.219 17.266-38.484 38.5-38.484zm90.114 111.181l-20.348-8.432-9.188 22.172 20.283 8.406c-1.209 5.244-1.986 10.645-1.986 16.25 0 5.604.779 11.004 1.988 16.246l-20.27 8.379 9.156 22.188 20.371-8.422c5.836 9.283 13.658 17.102 22.947 22.934l-8.428 20.363 22.172 9.188 8.412-20.297c5.242 1.207 10.641 1.984 16.244 1.984 5.6 0 10.994-.777 16.234-1.984l8.391 20.297 22.188-9.188-8.422-20.371c9.279-5.834 17.092-13.646 22.926-22.926l20.371 8.422 9.188-22.188-20.297-8.391c1.207-5.24 1.984-10.635 1.984-16.234 0-5.604-.777-11.002-1.984-16.244l20.297-8.412-9.188-22.172-20.357 8.438c-5.836-9.293-13.654-17.119-22.941-22.957l8.424-20.387-22.188-9.156-8.381 20.285c-5.242-1.209-10.641-1.988-16.244-1.988-5.605 0-11.006.777-16.248 1.984l-8.408-20.297-22.187 9.188 8.438 20.369c-9.291 5.838-17.114 13.66-22.949 22.953zm61.355-10.197c26.781 0 48.563 21.813 48.563 48.594s-21.782 48.562-48.563 48.562-48.594-21.781-48.594-48.563 21.813-48.593 48.594-48.593zm-295-209.125v384h448v-384h-448zm416 96h-160v32h160v224h-384v-320h384v64z"/></svg>