<svg xmlns="http://www.w3.org/2000/svg" viewBox="0 0 448 448" enable-background="new 0 0 448 448"><path d="M288 64c0-35.297-28.719-64-64-64-35.297 0-64 28.703-64 64h-96v384h320v-384h-96zm-96 32v-32c0-17.641 14.359-32 32-32s32 14.359 32 32v32h32v32h-128v-32h32zm160 320h-256v-320h32v64h192v-64h32v320zm-141.734-91.344l-3.625-142.313h33.031l-2.656 142.313h-26.75zm27.937 29.969c3.969 3.75 5.969 8.281 5.969 13.625 0 5.156-2 9.531-5.969 13.156-4 3.594-8.719 5.406-14.125 5.406-5.625 0-10.438-1.813-14.375-5.406-3.938-3.625-5.875-8-5.875-13.156 0-5.344 1.938-9.875 5.875-13.625s8.75-5.625 14.375-5.625c5.406 0 10.125 1.875 14.125 5.625z"/></svg>