<?xml version="1.0" encoding="utf-8"?>
<!-- Generator: Adobe Illustrator 19.2.0, SVG Export Plug-In . SVG Version: 6.00 Build 0)  -->
<svg version="1.1" xmlns="http://www.w3.org/2000/svg" xmlns:xlink="http://www.w3.org/1999/xlink" x="0px" y="0px"
	 viewBox="0 0 448 448" enable-background="new 0 0 448 448" xml:space="preserve">
<path d="M288,64c0-35.297-28.719-64-64-64c-35.297,0-64,28.703-64,64H32v384h384V64H288z M192,96V64c0-17.641,14.359-32,32-32
	s32,14.359,32,32v32h32v32H160V96H192z M384,416H64V96h64v64h192V96h64V416z M299.313,256.656l-96.641,96.625l-53.984-53.969
	l22.625-22.625l31.359,31.344l74.016-74.016L299.313,256.656z M128,352h32v32H96V192h64v32h-32V352z M288,192h64v192h-64v-32h32V224
	h-32V192z"/>
<g>
</g>
<g>
</g>
<g>
</g>
<g>
</g>
<g>
</g>
<g>
</g>
</svg>
