<svg xmlns="http://www.w3.org/2000/svg" viewBox="0 0 448 448" enable-background="new 0 0 448 448"><path d="M412.063 336l-86.188 86.188-22.625-22.625 47.563-47.563h-84.969c-47.906 0-87.492-37.219-87.492-81.281 0-47.094 45.648-81.281 77.648-81.281v32c-32 0-45.648 19.813-45.648 49.281 0 29.031 28.82 49.281 55.492 49.281h84.969l-47.563-47.563 22.625-22.625 86.188 86.188zm-348.063 80h192v32h-224v-448h230.623l121.377 121.375v102.625h-32v-64h-128v-128h-160v384zm192-288h89.377l-89.377-89.375v89.375z"/></svg>