<svg xmlns="http://www.w3.org/2000/svg" viewBox="0 0 448 448" enable-background="new 0 0 448 448"><path d="M342.969 189.828l22.625 22.625-121.016 121.016-66.172-66.156 22.625-22.625 43.547 43.531 98.391-98.391zm-324.104-48.156v42.469c0 22.828-8.627 26.125-15.123 26.625l-3.742.297v25.875l3.742.297c6.496.5 15.123 3.734 15.123 26.031v43.641c0 32.219 14.213 49.469 41.082 49.891l4.053.061v-27.891l-3.924-.094c-5.768-.156-9.744-1.922-11.822-5.281-1.586-2.563-3.482-8.156-3.482-20.172v-42.047c0-18.063-4.469-30.656-13.305-37.594 8.836-7.109 13.305-19.766 13.305-37.75v-42.609c0-20.875 8.186-23.797 15.33-24l3.898-.108v-28.172l-4.053.063c-26.869.421-41.082 17.874-41.082 50.468zm425.385 69.094c-6.508-.5-15.152-3.797-15.152-26.625v-42.469c0-32.594-14.191-50.047-41.035-50.469l-4.063-.062v28.172l3.906.109c7.211.203 15.465 3.125 15.465 24v42.609c0 17.984 4.453 30.641 13.254 37.75-8.801 6.938-13.254 19.531-13.254 37.594v42.047c0 9.438-1.223 16.375-3.592 20.078-2.162 3.406-6.172 5.219-11.848 5.375l-3.931.109v27.875l4.063-.063c26.844-.422 41.035-17.672 41.035-49.891v-43.641c0-22.297 8.645-25.531 15.152-26.031l3.75-.297v-25.875l-3.75-.295zm-124.25 109.234h32v96h-256v-320h64c0-35.297 28.703-64 64-64 35.281 0 64 28.703 64 64h64v64h-32v-32h-32v32h-128v-32h-32v256h192v-64zm-128-224v32h64v-32c0-17.641-14.359-32-32-32s-32 14.359-32 32z"/></svg>