<svg xmlns="http://www.w3.org/2000/svg" viewBox="0 0 448 448" enable-background="new 0 0 448 448"><rect x="192" y="384" width="64" height="64"/><path d="M86.16 246.16l-.598.598-85.562 20.625 23.734-82.969.34-.34 62.086 62.086zm160-160l11.652-11.652c8.297-8.281 12.859-19.313 12.859-31.031s-4.563-22.75-12.844-31.031c-16.594-16.594-45.516-16.594-62.078 0l-11.654 11.65 62.065 62.064zm-94.068-30.068l-96.014 95.986 62.082 62.082 96-96-62.068-62.068z"/><polygon points="320,64 288,96 384,96 384,192 192,192 64,312 64,400 112,448 160,448 160,320 352,320 352,448 448,448 448,64"/></svg>