<svg xmlns="http://www.w3.org/2000/svg" viewBox="0 0 448 448" enable-background="new 0 0 448 448"><path d="M294.886 266.014c0 15.638-12.695 28.315-28.354 28.315-11.625 0-21.604-6.993-25.98-16.991h-166.83c-40.716 0-73.722-32.961-73.722-73.62 0-40.659 33.006-73.62 73.722-73.62h6.621l-.112.305.112-.305c13.463-33.201 46.039-56.631 84.114-56.631 32.476 0 60.938 17.054 76.963 42.671-7.763 1.753-15.221 4.296-22.29 7.55-12.398-16.708-32.25-27.568-54.673-27.568-25.184 0-47.156 13.672-58.924 33.978-1.098 1.894-2.097 3.851-3.011 5.854-2.408 5.278-4.169 10.912-5.159 16.812h-23.641v-.013c-28.187 0-51.038 22.819-51.038 50.968s22.851 50.968 51.038 50.968v.003h166.83c4.377-9.998 14.355-16.991 25.98-16.991 15.659-.001 28.354 12.676 28.354 28.315zm63.095-84.722c-16.702-33.568-51.368-56.649-91.449-56.649-48.709 0-89.423 34.081-99.602 79.66-23.692 2.275-44.333 14.951-57.311 33.395h121.529c8.315-10.348 21.064-16.989 35.384-16.989 25.056 0 45.367 20.284 45.367 45.305s-20.311 45.305-45.367 45.305c-14.319 0-27.069-6.641-35.384-16.989h-135.127c5.417 38.52 38.533 68.164 78.599 68.164l.328-.008v.008h181.951v-.009l.367.009c50.111 0 90.734-40.567 90.734-90.609 0-49.804-40.239-90.207-90.019-90.593z"/></svg>