<svg xmlns="http://www.w3.org/2000/svg" viewBox="0 0 448 448" enable-background="new 0 0 448 448"><path d="M336.326 295.619c31.959-21.023 53.174-57.096 53.174-98.119 0-64.797-52.719-117.5-117.5-117.5-64.797 0-117.5 52.703-117.5 117.5 0 41.025 21.215 77.1 53.174 98.123-59.662 24.609-100.658 82.799-100.658 152.377h32c0-74.594 58.406-133 132.984-133 75.813 0 133 57.188 133 133h32c0-69.582-41-127.773-100.674-152.381zm-149.826-98.119c0-47.141 38.359-85.5 85.5-85.5 47.156 0 85.5 38.359 85.5 85.5s-38.344 85.5-85.5 85.5c-47.141 0-85.5-38.359-85.5-85.5zm-106.5-94.875l-52.688 52.688-22.624-22.625 52.687-52.688-52.687-52.687 22.625-22.625 52.687 52.687 52.688-52.688 22.625 22.625-52.688 52.688 52.688 52.688-22.625 22.625-52.688-52.688z"/></svg>