<svg xmlns="http://www.w3.org/2000/svg" viewBox="0 0 448 448" enable-background="new 0 0 448 448"><path d="M272 224c0 26.512-21.491 48-48 48-26.512 0-48-21.488-48-48 0-26.509 21.488-48 48-48 26.509 0 48 21.491 48 48zm-113.094 72.594c-20.563-18.469-32.359-44.922-32.359-72.531 0-27.688 11.844-54.172 32.484-72.641l-21.344-23.844c-27.422 24.531-43.141 59.703-43.141 96.484 0 36.688 15.672 71.781 42.984 96.344l21.376-23.812zm194.563-72.656c0-36.672-15.656-71.781-43-96.344l-21.375 23.813c20.563 18.484 32.375 44.922 32.375 72.531 0 27.656-11.844 54.156-32.5 72.656l21.375 23.813c27.406-24.563 43.125-59.719 43.125-96.469zm-261.516 130c-38.656-35.25-59.953-82.844-59.953-134.016 0-47.203 18.516-92.109 52.156-126.484l-22.875-22.375c-39.515 40.375-61.281 93.25-61.281 148.859 0 59.422 25.656 116.891 70.391 157.641l21.562-23.625zm356.047-134.016c0-55.656-21.781-108.547-61.344-148.938l-22.875 22.406c33.688 34.36 52.219 79.298 52.219 126.532 0 51.234-21.313 98.859-60.031 134.047l21.563 23.688c44.781-40.751 70.468-98.251 70.468-157.735z"/></svg>