<svg xmlns="http://www.w3.org/2000/svg" viewBox="0 0 448 448" enable-background="new 0 0 448 448"><path d="M390.625 0h-134.625v224h32v-192h64v64h64v160h32v-198.625l-57.375-57.375zm-6.625 64v-25.375l25.375 25.375h-25.375zm-123.312 212.688l22.625 22.625 36.687-36.688v89.375h-96v-149.328c0-36.656-58.063-53.344-112-53.344s-112 16.688-112 53.344v191.984c0 36.657 58.063 53.344 112 53.344s112-16.688 112-53.344v-10.656h128v-121.375l36.688 36.688 22.625-22.625-75.313-75.313-75.312 75.313zm-148.688-95.36c50.641 0 77.703 15.234 79.953 21.344-2.265 6.094-29.344 21.328-79.953 21.328-51.141 0-78.223-15.551-80-21.066v-.088c1.762-5.963 28.83-21.518 80-21.518zm-.016 234.672c-51.281 0-78.359-15.625-79.984-21.344v-153.506c21.67 9.954 51.28 14.85 79.997 14.85 28.719 0 48.003-4.898 80.003-14.854v153.291c0 5.938-28.734 21.563-80.016 21.563z"/></svg>