<svg xmlns="http://www.w3.org/2000/svg" viewBox="-955 -219 1000 1000" enable-background="new -955 -219 1000 1000"><path d="M-123.625 111.042l.5 22.125c0 225.917-171.958 486.458-486.458 486.458-96.542 0-186.417-28.292-262.083-76.792 13.375 1.583 27 2.375 40.792 2.375 80.083 0 153.833-27.333 212.333-73.208-74.833-1.375-137.958-50.833-159.708-118.75 10.458 2 21.167 3.083 32.167 3.083 15.583 0 30.708-2.083 45.042-6-78.208-15.708-137.167-84.792-137.167-167.625v-2.167c23.042 12.792 49.417 20.5 77.458 21.375-45.875-30.625-76.042-82.958-76.042-142.292 0-31.333 8.417-60.708 23.167-85.958 84.292 103.458 210.292 171.5 352.375 178.625-2.917-12.5-4.417-25.542-4.417-38.958 0-94.417 76.542-170.958 170.958-170.958 49.167 0 93.583 20.75 124.792 54 38.958-7.667 75.542-21.917 108.583-41.5-12.75 39.917-39.875 73.417-75.167 94.583 34.583-4.125 67.542-13.333 98.208-26.917-22.958 34.292-51.958 64.417-85.333 88.501z"/></svg>