<svg xmlns="http://www.w3.org/2000/svg" viewBox="-955 -219 1000 1000" enable-background="new -955 -219 1000 1000"><path d="M-80.375 120.25c-3.333 73.167-54.333 173.292-152.958 300.458-101.959 132.792-188.25 199.209-258.834 199.209-43.708 0-80.708-40.417-110.917-121.292l-60.542-222.417c-22.458-80.833-46.5-121.292-72.25-121.292-5.625 0-25.25 11.833-58.875 35.375l-35.249-45.583c37-32.583 73.542-65.167 109.458-97.792 49.375-42.75 86.417-65.208 111.125-67.5 58.375-5.625 94.292 34.375 107.792 119.917 14.583 92.333 24.667 149.75 30.333 172.25 16.833 76.583 35.333 114.833 55.542 114.833 15.708 0 39.292-24.833 70.708-74.542 31.417-49.708 48.25-87.5 50.5-113.458 4.458-42.875-12.333-64.375-50.5-64.375-17.958 0-36.458 4.125-55.5 12.333 36.875-120.957 107.292-179.707 211.25-176.374 77.042 2.292 113.375 52.375 108.917 150.25z"/></svg>