<svg xmlns="http://www.w3.org/2000/svg" viewBox="-955 -219 1000 1000" enable-background="new -955 -219 1000 1000"><path d="M-80-135.667h-750c-23 0-41.667 18.667-41.667 41.667v750c0 23 18.667 41.667 41.667 41.667h750c23 0 41.667-18.667 41.667-41.667v-750c0-23-18.667-41.667-41.667-41.667zm-278.708 241.75c-20.542 0-35.042 19.542-35.042 57.083 0 76.625 48 120.667 111.083 120.667 11.208 0 36-1.292 36-4.292v59.542c0 4.75-41.583 6.75-59.125 6.833-41.875 88.458-117.125 163.958-142.25 178.25-16.042 9-30.958 13.625-48.5 3.125-31-18.5-148.042-121.292-187.333-412.958h85.083c21.375 166.667 73.542 270.417 131.209 340.167 31.792-31.792 62.292-76.083 86.25-124-56.958-28.917-91.5-93.375-91.5-167.292 0-74.625 43.042-131.708 116.667-131.708 71.583 0 110.667 44.292 110.667 120.917 0 28.458-6.125 60.792-17.417 85.875-53.167 10.417-72.583-23.583-72.583-23.583 4-13.125 9.417-35.292 9.417-55.5-.085-35.542-13.085-53.126-32.626-53.126z"/></svg>