<svg xmlns="http://www.w3.org/2000/svg" viewBox="0 0 448 448"><path d="M439.542 244.883l-194.684 194.707c-11.29 11.213-29.548 11.213-40.79 0l-195.613-195.6c-11.275-11.276-11.275-29.567 0-40.843l134.103-134.117 50.797 50.804c-5.2 12.48-2.756 27.39 7.39 37.522 3.32 3.35 2.365 1.815 6.468 3.492v124.016c-3.71 1.503-5.653 4.04-8.44 6.92-7.375 6.548-12.105 16.007-12.105 26.657 0 19.796 16.05 35.83 35.828 35.83 2.552 0 5.058-.28 7.47-.78 7.06-1.034 13.873-4.163 19.306-9.584 11.948-11.933 13.17-30.474 3.805-43.882-3.148-5.2-7.563-9.52-12.856-12.526v-120.49l46.307 46.29c-5.136 12.436-2.63 27.266 7.455 37.35 13.4 13.422 35.14 13.422 48.605 0 13.405-13.404 13.405-35.14 0-48.547-9.648-9.616-23.488-12.28-35.514-8.144l-49.67-49.657c4.198-12.01 1.504-25.874-8.126-35.49-9.52-9.535-23.253-12.245-35.217-8.204l-51.551-51.527 40.62-40.623c11.274-11.273 29.564-11.273 40.79 0l195.625 195.6c11.28 11.278 11.28 29.553.003 40.83z"/></svg>