<svg xmlns="http://www.w3.org/2000/svg" viewBox="0 0 448 448"><path d="M224 415.578l-189.875-185.22c-45.375-45.418-45.375-119.076-.125-164.34 43.844-43.86 120.313-43.89 164.22 0l25.78 27.777 25.375-27.343c44.688-44.765 120.75-44.297 164.625-.437 45.25 45.266 45.25 118.922 0 164.203l-190 185.358zm-107.875-351.578c-22.5 0-43.625 8.75-59.5 24.64-32.78 32.798-32.78 86.157 0 118.954l167.375 163.266 167.5-163.407c32.656-32.656 32.656-86.016-.125-118.813-31.688-31.734-87.156-31.797-118.97 0l-48.405 52.22-48.813-52.657c-15.467-15.453-36.593-24.203-59.062-24.203z"/></svg>