<svg xmlns="http://www.w3.org/2000/svg" viewBox="0 0 448 448"><path d="M448 224c0 57.695-22.468 111.938-63.265 152.735S289.695 440 232 440c-57.696 0-111.938-22.468-152.735-63.265C38.468 335.938 16 281.695 16 224c0-47.668 15.22-92.864 44.02-130.702C79.494 67.706 104.683 46.708 133.086 32H32V0h160v160h-32V54.634C93.115 83.177 48 150.014 48 224c0 101.458 82.542 184 184 184s184-82.542 184-184c0-58.413-26.82-112.067-73.588-147.205l19.223-25.583c26.225 19.704 47.954 45.522 62.838 74.662C440.083 156.44 448 189.454 448 224z"/></svg>