<svg xmlns="http://www.w3.org/2000/svg" viewBox="0 0 448 448"><path d="M149.188 211.36c-23.64-21.236-37.188-51.61-37.188-83.345 0-31.828 13.61-62.25 37.328-83.484l21.344 23.847c-16.952 15.169-26.672 36.902-26.672 59.639 0 22.655 9.688 44.36 26.563 59.53l-21.375 23.812zm149.468.11c23.75-21.22 37.344-51.627 37.344-83.455 0-31.734-13.563-62.125-37.188-83.36l-21.375 23.815c16.876 15.17 26.563 36.874 26.563 59.546 0 22.72-9.72 44.453-26.656 59.61l21.312 23.843zm-184.734 28.233c-32.188-29.343-49.922-68.97-49.922-111.563 0-39.295 15.422-76.7 43.438-105.31l-22.875-22.377c-33.89 34.625-52.563 79.97-52.563 127.687 0 51.704 21.438 99.735 60.36 135.204l21.562-23.64zm220.078.047l21.563 23.656c38.407-34.953 60.437-84.25 60.437-135.266 0-47.764-18.687-93.14-52.625-127.764l-22.875 22.404c28.063 28.596 43.5 66.018 43.5 105.36 0 42.64-17.75 82.266-50 111.61zm-158-111.734c0-26.47 21.53-48 48-48s48 21.53 48 48c0 18.7-10.854 34.76-26.494 42.68l110.914 277.304h-34.44l-25.605-64h-144.738l-25.602 64h-34.47l110.93-277.305c-15.64-7.92-26.495-23.98-26.495-42.68zm94.77 191.984h-93.53l-12.802 32h119.135l-12.803-32zm-46.77-116.902l-33.96 84.902h67.927l-33.967-84.902zm-16-75.082c0 8.828 7.172 16 16 16s16-7.172 16-16-7.172-16-16-16-16 7.172-16 16z"/></svg>