<svg xmlns="http://www.w3.org/2000/svg" viewBox="0 0 448 448"><path d="M74.516 416H0v-74.516L74.516 416zM261.97 96l-63.347-64H0v201.89l122.47-122.468C132.374 101.484 145.61 96 159.67 96c14.078 0 27.313 5.5 37.234 15.484l139.672 139.64c9.953 9.94 15.422 23.157 15.422 37.22 0 14.047-5.47 27.266-15.422 37.203L246.136 416H448V96H261.97zm51.99 206.916L174.9 441.992c-8.065 8.01-21.107 8.01-29.137 0L6.04 302.278c-8.054-8.054-8.054-21.12 0-29.174l95.787-95.797 36.284 36.288c-3.71 8.914-1.965 19.564 5.28 26.8 2.37 2.395 1.69 1.297 4.62 2.495v88.583c-2.65 1.074-4.04 2.886-6.03 4.944-5.265 4.676-8.643 11.433-8.643 19.04 0 14.137 11.464 25.593 25.59 25.593 1.824 0 3.614-.2 5.336-.56 5.045-.74 9.91-2.974 13.79-6.846 8.536-8.524 9.408-21.767 2.72-31.344-2.25-3.714-5.402-6.8-9.183-8.948v-86.065l33.073 33.066c-3.67 8.882-1.88 19.475 5.326 26.68 9.57 9.585 25.1 9.585 34.716 0 9.575-9.576 9.575-25.102 0-34.678-6.89-6.87-16.777-8.77-25.367-5.817l-35.48-35.47c3-8.578 1.074-18.48-5.805-25.348-6.8-6.81-16.61-8.746-25.155-5.86l-36.82-36.804 29.014-29.017c8.054-8.056 21.118-8.056 29.137 0l139.73 139.71c8.06 8.054 8.06 21.107.004 29.162z"/></svg>