<svg xmlns="http://www.w3.org/2000/svg" viewBox="-955 -219 1000 1000" enable-background="new -955 -219 1000 1000"><path d="M-103.375-43.083c-5.333-7.5-11.875-13.792-19.167-19.417-16.042-12.5-34.125-21.417-52.875-29-39.875-16.083-81.458-25.542-123.667-32.333-51.5-8.25-103.417-11.5-158-11.833-48.75.417-99.875 3.5-150.583 11.417-36 5.667-71.583 13.292-106.125 25-22.875 7.792-45 17.083-65.167 30.625-9.583 6.417-18.458 13.708-25.667 22.875-9.042 11.542-12.917 24.375-10.583 38.917 4.542 28.708 8.75 57.458 13.5 86.083 6.958 42.375 14.125 84.75 21.333 127 8.042 47 16.292 94 24.167 141 1.833 10.958 6.458 20.208 13.833 28.125 4.708 5.083 9.75 9.917 15.083 14.292 19.208 15.458 41.083 26.5 63.958 35.583 54.75 21.833 112.042 31.708 170.583 34.917 42.5 2.375 84.958.875 127.25-4.917 36-4.875 71.25-12.583 105.5-24.917 25.375-9.167 49.75-20.375 71.667-36.333 9.333-6.833 17.958-14.375 24.875-23.708 4.75-6.25 8.042-13.25 9.292-21.167 10.458-61.583 21.292-123.083 31.458-184.667 9.543-57.126 18.46-114.334 27.835-171.459 2.25-13.25-.792-25.167-8.5-36.083zm-352.167 424c-63.125-.208-114.167-51.833-113.958-115.292.167-63.375 51.5-114.333 114.917-114.125 63.792.208 114.667 51.583 114.417 115.375-.292 63.125-52.084 114.292-115.376 114.042zm228.875-401c-3.25 3.667-7.208 6.875-11.458 9.375-11.833 7.042-25 10.75-38.25 14.25-25.042 6.375-50.583 10.083-76.167 12.75-33.708 3.583-67.458 4.833-99.708 4.958-39.208-.208-76.667-1.792-113.958-6.25-28-3.375-55.875-7.667-82.75-16.667-7.958-2.75-15.708-6.208-23.208-10.042-3.875-1.875-7.25-4.875-10.167-8-5.167-5.625-5.167-11.833.125-17.417 3.083-3.292 6.833-6.083 10.708-8.292 11.167-6.5 23.417-10.25 35.75-13.5 25.875-6.75 52.208-10.583 78.75-13.375 43.458-4.458 87-5.833 130.667-4.542 40.083 1.167 80.083 4.167 119.667 11.333 18.583 3.333 37 7.208 54.583 14.333 6.208 2.542 12.167 5.708 17.958 9.083 2.875 1.667 5.458 4.333 7.583 7 3.75 4.836 3.875 10.461-.125 15.003zm43.792 483.125l-.542 7.125c-8.042 42.208-16.167 84.292-23.958 126.542-2.667 14.167-9.042 26.042-19.042 36.208-11.083 11.375-24.167 19.792-38.083 26.917-25.75 13.083-53.083 21.333-81.167 27.125-36.208 7.542-72.875 10.875-93.708 10.708-63.375-.167-110.042-5.209-155.625-18.375-21.083-6.042-41.5-13.917-60.5-25.083-9.958-5.833-19.25-12.583-27.417-20.75-10.208-10.292-16.833-22.25-19.5-36.708-7.792-42.208-16-84.375-24.083-126.5l-.5-6.458c.5-10.375 9.75-15.708 19.042-11.125l2.75 1.667c30.875 22.417 65.333 37.417 101.5 48.833 33.208 10.542 67.25 16.875 101.875 19.958 40 3.625 79.708 2.75 119.417-2.875 52.625-7.375 102.833-22.375 149.583-48.042 9.292-5.083 18.042-11.292 26.958-17l4.375-2.75c8.958-4.042 17.75.958 18.625 10.583zm-214.625-196.667c-.125 31.625-26.083 57.458-57.792 57.292-31.708-.125-57.292-25.958-57.125-57.75.125-31.875 25.792-57.375 57.667-57.208 31.792.124 57.333 25.791 57.25 57.666z"/></svg>