<svg xmlns="http://www.w3.org/2000/svg" viewBox="-955 -219 1000 1000" enable-background="new -955 -219 1000 1000"><path d="M-38 142.792l-.625-3-.542-1.75-.917-2.625-.792-1.75-1.208-2.375-1-1.667-1.5-2.167-1.208-1.542-1.792-1.958-1.416-1.416-2.042-1.708-1.625-1.208-.583-.458-380.875-253.918c-12.042-8.042-27.708-8.042-39.708 0l-380.958 253.958-.583.458-1.625 1.25-2.042 1.667-1.417 1.417-1.792 1.958-1.208 1.542-1.5 2.167-1 1.667-1.208 2.375-.833 1.75-.958 2.583-.542 1.75-.625 3-.292 1.542-.333 4.708v253.917l.333 4.667.292 1.542.625 3 .542 1.75.917 2.625.792 1.75 1.208 2.375 1 1.625 1.5 2.167 1.208 1.542 1.792 1.958 1.417 1.375 2.042 1.708 1.625 1.208.583.458 380.873 253.916c6 4 12.917 6.042 19.875 6.042 6.917 0 13.833-2 19.875-6.042l380.875-253.917.583-.458 1.625-1.208 2.042-1.708 1.417-1.375 1.792-1.958 1.208-1.542 1.5-2.167 1-1.625 1.208-2.375.792-1.75.917-2.625.542-1.75.625-3 .292-1.542.333-4.667v-253.916l-.333-4.667-.168-1.583zm-416.083 217.875l-126.667-84.708 126.667-84.708 126.667 84.708-126.667 84.708zm-35.792-231.625l-155.25 103.833-125.333-83.792 280.583-187.042v167.001zm-219.667 146.916l-89.583 59.917v-119.833l89.583 59.916zm64.417 43.084l155.25 103.833v167.042l-280.583-187.042 125.333-83.833zm226.875 103.833l155.25-103.833 125.333 83.833-280.583 187.042v-167.042zm219.667-146.917l89.583-59.916v119.833l-89.583-59.917zm-64.417-43.083l-155.25-103.833v-167l280.583 187.042c0-.001-125.333 83.791-125.333 83.791z"/></svg>