<svg xmlns="http://www.w3.org/2000/svg" viewBox="-955 -219 1000 1000" enable-background="new -955 -219 1000 1000"><path d="M-455-135.667c-230.125 0-416.667 186.542-416.667 416.667s186.542 416.667 416.667 416.667 416.667-186.542 416.667-416.667-186.542-416.667-416.667-416.667zm275.5 192.167c49.583 60.542 79.583 137.708 80.375 221.708-11.75-2.5-129.417-26.333-247.833-11.458l-7.667-18.375c-7.375-17.375-15.333-34.583-23.625-51.542 131.583-53.75 191.25-130.208 198.75-140.333zm-275.5-130.875c90.417 0 173.083 33.917 235.917 89.667-6.417 9.125-59.958 81.125-186.542 128.542-58.333-107.167-122.958-195.167-132.792-208.334 26.792-6.417 54.709-9.875 83.417-9.875zm-151.292 33.833c9.375 12.875 73 101 131.958 205.833-166.458 44.208-313.125 43.583-329.042 43.375 23.084-110.458 97.501-202.249 197.084-249.208zm-204.625 322.084l.167-10.875c15.583.333 188.042 2.541 365.75-50.667 10.208 19.958 19.917 40.167 28.875 60.417l-14.042 4.25c-183.541 59.333-281.208 221.041-289.291 234.875-56.792-63.125-91.459-146.584-91.459-238zm355.917 355.916c-82.292 0-158.125-28.083-218.458-75.125 6.417-13.083 78.458-152.292 279.208-222.25l2.333-.792c49.958 129.833 70.625 238.667 75.917 269.875-42.708 18.209-89.708 28.292-139 28.292zm198.833-60.875c-3.667-21.667-22.583-125.833-69.125-253.75 111.542-17.833 209.5 11.375 221.667 15.208-15.833 99.001-72.667 184.542-152.542 238.542z"/></svg>