<svg xmlns="http://www.w3.org/2000/svg" viewBox="-955 -219 1000 1000" enable-background="new -955 -219 1000 1000"><path d="M-38.333-89.667v741.333c0 25.417-20.583 46-46 46h-212.333v-322.708h108.333l16.208-125.75h-124.542v-80.333c0-36.417 10.125-61.208 62.333-61.208l66.583-.042v-112.5c-11.542-1.542-51.042-4.958-97.042-4.958-96 0-161.75 58.625-161.75 166.25v92.75h-108.583v125.75h108.583v322.75h-399.125c-25.417 0-46-20.583-46-46v-741.334c0-25.417 20.583-46 46-46h741.333c25.418 0 46.002 20.584 46.002 46z"/></svg>