<svg xmlns="http://www.w3.org/2000/svg" viewBox="-955 -219 1000 1000" enable-background="new -955 -219 1000 1000"><path d="M-38.333 246.292h-86.792v-86.833h-69.458v86.792h-86.792v69.458h86.792v86.791h69.458v-86.792h86.792m-555.542-86.791v108.333h151.375c-11.625 65.292-68.208 112.833-151.375 112.833-91.667 0-166.125-77.625-166.125-169.292s74.458-169.083 166.125-169.083c41.333 0 78.292 14.25 107.458 42v.208l78.292-78.292c-48.083-44.792-110.75-72.417-185.75-72.417-153.5 0-277.792 124.333-277.792 277.792s124.292 277.792 277.792 277.792c160.417 0 266.667-112.833 266.667-271.542 0-20.292-1.917-39.75-5.375-58.333h-261.292z"/></svg>