<svg xmlns="http://www.w3.org/2000/svg" viewBox="-955 -219 1000 1000" enable-background="new -955 -219 1000 1000"><path d="M-38.333 533.667v-515.625c0-89.583-64.125-153.708-153.708-153.708h-515.583c-89.583 0-164.042 64.125-164.042 153.708v515.583c0 89.625 74.458 164.042 164.042 164.042h515.583c89.583 0 153.708-74.417 153.708-164zm-83.334-586v125h-125v-125h125zm-448.083 241.916c26.917-37.25 70.583-61.667 119.958-61.667 49.333 0 93.042 24.417 119.917 61.708 17.458 24.292 27.958 54 27.958 86.208 0 81.583-66.458 147.917-147.958 147.917-81.542 0-147.958-66.375-147.875-147.958.083-32.208 10.5-61.916 28-86.208zm-137.917 424.75c-44.417 0-80.667-36.208-80.667-80.667v-336h125.583c-10.833 41.667-16.917 51.708-16.917 82.167 0 126.708 103.083 227.833 229.833 227.833s229.835-100.124 229.835-226.833c0-30.458-6.167-41.542-17.083-83.208h115.417v336c0 44.5-26.042 80.708-70.417 80.708h-515.584z"/></svg>