<svg xmlns="http://www.w3.org/2000/svg" viewBox="-955 -219 1000 1000" enable-background="new -955 -219 1000 1000"><path d="M-80 281c0 207.125-167.875 375-375 375-38.667 0-75.958-5.875-111.042-16.708 15.292-24.917 38.125-65.75 46.625-98.292l23.375-89.125c12.208 23.333 47.958 43.083 85.958 43.083 113.083 0 194.583-104 194.583-233.25 0-123.875-101.083-216.583-231.167-216.583-161.833 0-247.792 108.625-247.792 226.917 0 55 29.292 123.458 76.125 145.292 7.125 3.292 10.917 1.833 12.542-5l10.417-42.542c.917-3.792.458-7.042-2.583-10.75-15.5-18.792-27.917-53.333-27.917-85.583 0-82.708 62.625-162.75 169.333-162.75 92.125 0 156.625 62.792 156.625 152.542 0 101.458-51.25 171.708-117.875 171.708-36.792 0-64.375-30.458-55.542-67.792 10.583-44.583 31.042-92.667 31.042-124.833 0-28.792-15.458-52.833-47.458-52.833-37.625 0-67.875 38.917-67.875 91.083 0 33.208 11.208 55.667 11.208 55.667s-37.167 157.125-43.958 186.417c-7.542 32.417-4.583 77.917-1.292 107.583-139.499-54.709-238.332-190.376-238.332-349.251 0-207.125 167.875-375 375-375s375 167.875 375 375z"/></svg>