<svg xmlns="http://www.w3.org/2000/svg" viewBox="-955 -219 1000 1000" enable-background="new -955 -219 1000 1000"><path d="M-99.417 377.833c-35.042 7.917-70.208 11.292-99.5 11.375-69.75 147.417-195.625 273.292-237.583 297.125-26.708 15.042-51.833 15.875-81.042-1.667-51.666-30.833-246.916-191.291-312.458-695.166h141.833c35.667 302.542 122.583 457.583 218.708 573.792 53-53 103.792-123.375 143.708-203.25-94.958-48.167-152.542-153.917-152.542-277.083 0-124.333 71.75-218.625 194.417-218.625 119.333 0 184.417 74.25 184.417 201.958 0 47.458-10.208 101.542-29.042 143.292-88.583 17.333-121-39.167-121-39.167 6.667-21.833 15.667-58.75 15.667-92.458 0-59.25-21.708-88.458-54.25-88.458-34.208 0-58.417 32.542-58.417 95.125 0 127.667 80.958 201.125 186.083 201.125 18.708 0 39.458-2.167 60.917-7.125v99.208l.084-.001z"/></svg>