<svg xmlns="http://www.w3.org/2000/svg" viewBox="-955 -219 1000 1000" enable-background="new -955 -219 1000 1000"><path d="M-398.875-50.833c-86.583-48.75-194.542-56.125-287.708-22.458-61.209 22.041-116.667 63.041-150.917 118.833-31.042 50.333-42.708 113.083-27.667 170.667 15 63.917 59.292 117.458 113.25 153.25-10.125 29.5-20.167 59-29.583 88.708 34.083-17.708 67.792-36.208 101.792-54.208 40.958 13.125 84 19.417 127.042 18.042-11.208-32.875-13.875-68.25-8.75-102.542 8.167-47.583 33.875-91.083 69.458-123.375 59.875-56.083 144.792-79.75 225.583-74.042-15.167-74.125-67.208-136.75-132.5-172.875zm-232.125 134.333c-6 29-44.917 43-67.625 23.542-26.292-18.542-18.958-64.667 12-73.917 30.292-11.708 64.75 19.083 55.625 50.375zm210.333-8.417c.25 33.375-44.208 54.208-69.25 31.542-25.958-18.542-18.583-63.792 11.875-73.167 27.292-10.75 59.5 12.25 57.375 41.625zm366.334 202.625c-21.125-47.875-61.042-85.792-107.333-109.25-81.709-41.458-183.417-41.125-264.834.959-56.667 29.083-103.917 81.166-117.375 144.583-11.083 46.625-1.125 96.875 23.625 137.583 36.833 61.083 103.375 100.042 172.583 112.583 50.125 10.167 101.958 4.208 150.625-9.958 29.125 11.375 55.292 29.708 83.583 43.292-7.25-24.458-15-48.833-23.375-72.917 31.667-22.625 60.542-50.708 77.917-86.042 25.792-49.249 27.375-110.208 4.584-160.833zm-284.417 18.292c-7.167 22.625-40.167 29.458-56.042 12.167-17.542-15.917-10.708-49.25 12.25-56.333 25.584-10.751 55 18.624 43.792 44.166zm166.5 3.125c-8.75 20.375-39.25 25.083-54.292 9.292-7.292-6.542-9.083-16.542-12-25.333 3.917-15.875 14.5-32.375 32.5-33.083 24.917-3.418 46.792 26.874 33.792 49.124z"/></svg>