<svg xmlns="http://www.w3.org/2000/svg" viewBox="0 0 448 448"><path d="M4 223.45l.186.482-.186.585v-1.066zM308.75 251c0-46.73-38.02-84.75-84.75-84.75s-84.75 38.02-84.75 84.75 38.02 84.75 84.75 84.75 84.75-38.02 84.75-84.75zm-32 0c0 29.087-23.663 52.75-52.75 52.75-29.086 0-52.75-23.663-52.75-52.75 0-29.086 23.664-52.75 52.75-52.75 29.087 0 52.75 23.664 52.75 52.75zm103.57-138.486C338.454 76.23 282.94 56.25 224 56.25S109.544 76.23 67.68 112.514C25.165 149.36 1.75 198.544 1.75 251h32c0-89.74 85.346-162.75 190.25-162.75S414.25 161.26 414.25 251h32c0-52.457-23.414-101.64-65.93-138.486z"/></svg>