<svg xmlns="http://www.w3.org/2000/svg" viewBox="0 0 448 448" enable-background="new 0 0 448 448"><path d="M128.012 224.544c-.746-41.516 34.339-66.918 67.847-87.13 43.507-24.736 90.273-54.072 107.258-103.206 6.341-16.764 15.541-39.457 36.518-33.12 20.98 8.038 25.794 35.161 22.039 53.01-3.486 24.607-19.651 44.129-33.474 63.895-11.207 20.121-14.275 52.762-21.122 74.628 50.722.276 79.538-.986 130.23 0 16.279 15.961 16.279 47.883-16.279 63.845 16.279 15.961 16.279 47.883-16.279 63.845 16.279 15.961 16.279 47.883-16.279 63.845 16.279 15.961 16.279 47.883-16.279 63.845h-65.115c-51.078 0-178.633-5.548-179.066-31.922l.001-191.535zm-31.24 223.455h-96.772v-255.999h96.772v255.999z"/></svg>