<svg xmlns="http://www.w3.org/2000/svg" viewBox="0 0 448 448" enable-background="new 0 0 448 448"><path d="M441.609 179.363c-12.113-16.899-26.079-19.363-35.65-19.363h-91.039c.816-2.856 1.632-6.794 2.448-9.634 2.856-10.184 5.805-20.728 9.509-24.918 21.434-24.274 28.84-57.068 24.918-75.631-5.367-25.341-24.133-34.332-38.568-34.332-15.722 0-27.616 9.211-36.969 17.998l-124.134 126.517c-.36.361-152.124 0-152.124 0v256h350.255c18.955 0 35.713-12.082 41.644-30.032l52.901-161.968c5.835-25.224 1.694-38.4-3.191-44.637zm-24.478 29.343l-55.704 167.094c-1.601 4.833-6.089 8.2-11.172 8.2h-222.255l.541-192h15.236c11.737 0 22.768-3.363 31.069-11.664l124.131-124.131c11.032-10.326 18.638-12.596 21.371.282 1.765 8.316-2.451 30.563-17.574 47.701-12.031 13.635-14.734 35.074-21.591 54.73-6.429 18.433-6.521 28.734.965 33.082h123.81c3.829 0 7.312 2.976 9.54 6.083 2.26 3.107 2.857 6.982 1.633 10.623z"/></svg>