<svg xmlns="http://www.w3.org/2000/svg" viewBox="0 0 448 448" enable-background="new 0 0 448 448"><path d="M441.609 268.637c4.885-6.237 9.027-19.413 3.191-44.637l-52.901-161.968c-5.931-17.95-22.689-30.032-41.644-30.032h-350.255v256s151.764-.361 152.124 0l124.133 126.518c9.352 8.787 21.246 17.998 36.969 17.998 14.436 0 33.202-8.992 38.568-34.332 3.923-18.563-3.484-51.357-24.918-75.631-3.704-4.19-6.653-14.734-9.509-24.918-.816-2.84-1.632-6.778-2.448-9.634h91.039c9.572-.001 23.538-2.465 35.651-19.364zm-26.11-18.72c-2.228 3.107-5.711 6.083-9.54 6.083h-123.81c-7.487 4.348-7.394 14.649-.965 33.082 6.857 19.657 9.56 41.095 21.591 54.73 15.123 17.138 19.339 39.385 17.574 47.701-2.733 12.878-10.339 10.609-21.371.282l-124.132-124.131c-8.301-8.301-19.331-11.664-31.069-11.664h-15.236l-.541-192h222.255c5.083 0 9.571 3.367 11.172 8.2l55.703 167.094c1.225 3.641.628 7.516-1.631 10.623z"/></svg>