<svg xmlns="http://www.w3.org/2000/svg" viewBox="0 0 448 448" enable-background="new 0 0 448 448"><path d="M240 376c0 22.091-17.91 40-40 40-22.091 0-40-17.909-40-40s17.909-40 40-40c22.09 0 40 17.909 40 40zm-80-136v32c79.402 0 144 64.598 144 144h32c0-47.046-18.298-91.253-51.522-124.478s-77.432-51.522-124.478-51.522zm272 176h-32c0-132.337-107.663-240-240-240 0 38.634-27.529 70.957-64 78.39v161.61h-32v-161.61c-36.471-7.433-64-39.756-64-78.39v-80h32v-64h32v64h32v-64h32v64h32v48c72.71 0 141.03 28.278 192.376 79.624 51.347 51.346 79.624 119.666 79.624 192.376zm-304-288h-96v48c0 26.467 21.533 48 48 48s48-21.533 48-48v-48z"/></svg>