<svg xmlns="http://www.w3.org/2000/svg" viewBox="0 0 448 448" enable-background="new 0 0 448 448"><path d="M320 416h-256v-320h32v64h192v-64h32v128h32v-160h-96c0-35.3-28.7-64-64-64s-64 28.7-64 64h-96v384h320v-128h-32v96zm-176-320h16v-32c0-17.6 14.4-32 32-32s32 14.4 32 32v32h32v32h-128v-32h16z"/><polygon points="234.6,256 295.3,195.3 272.7,172.7 173.4,272 272.7,371.3 295.3,348.7 234.6,288 416,288 416,256"/><rect x="96" y="192" width="96" height="32"/><rect x="96" y="256" width="64" height="32"/><rect x="96" y="320" width="96" height="32"/></svg>