<svg xmlns="http://www.w3.org/2000/svg" viewBox="0 0 448 448" enable-background="new 0 0 448 448"><rect x="64" y="192" width="160" height="63"/><path d="M256 320h-256v-192h256v32h-224v128h224v32zm96-192v32h64v128h-64v32h96v-192h-96zm32-64v-32c-29.637 0-56.492 8.754-79.518 26.67-23.035-17.916-50.859-26.67-80.482-26.67v32c23.764 0 46.014 7.195 64 22.344v274.361c-17.977 15.145-40.225 23.295-64 23.295v32c29.635 0 57.453-9.705 80.479-27.617 23.009 17.912 49.875 27.617 79.521 27.617v-32c-24.213 0-45.881-8.426-64-24.088v-272.775c18.131-15.666 39.801-23.137 64-23.137z"/></svg>