<?xml version="1.0" encoding="utf-8"?>
<!-- Generator: Adobe Illustrator 18.0.0, SVG Export Plug-In . SVG Version: 6.00 Build 0)  -->
<!DOCTYPE svg PUBLIC "-//W3C//DTD SVG 1.1//EN" "http://www.w3.org/Graphics/SVG/1.1/DTD/svg11.dtd">
<svg version="1.1" xmlns="http://www.w3.org/2000/svg" xmlns:xlink="http://www.w3.org/1999/xlink" x="0px" y="0px"
	 viewBox="0 0 448 448" style="enable-background:new 0 0 448 448;" xml:space="preserve">
<path d="M313.959,302.917l-139.06,139.076c-8.064,8.009-21.106,8.009-29.136,0L6.04,302.279c-8.054-8.054-8.054-21.119,0-29.174
	l95.787-95.797l36.284,36.288c-3.714,8.914-1.969,19.564,5.279,26.801c2.371,2.394,1.689,1.296,4.619,2.494v88.583
	c-2.651,1.074-4.038,2.886-6.029,4.944c-5.268,4.676-8.646,11.433-8.646,19.04c0,14.137,11.464,25.593,25.591,25.593
	c1.823,0,3.613-0.201,5.335-0.56c5.044-0.739,9.91-2.974,13.791-6.846c8.534-8.524,9.406-21.767,2.718-31.344
	c-2.249-3.714-5.402-6.8-9.183-8.948v-86.065l33.074,33.066c-3.669,8.882-1.879,19.475,5.325,26.679
	c9.573,9.586,25.099,9.586,34.718,0c9.575-9.575,9.575-25.101,0-34.677c-6.891-6.869-16.777-8.77-25.367-5.817l-35.479-35.469
	c2.998-8.579,1.074-18.481-5.805-25.349c-6.8-6.811-16.609-8.746-25.155-5.86l-36.821-36.804l29.014-29.017
	c8.053-8.052,21.117-8.052,29.136,0l139.731,139.715C322.014,281.809,322.014,294.862,313.959,302.917L313.959,302.917z M261.969,96
	l-63.344-64H0v199.438l32-32V128h71.438l32-32H32V64h153.375l31.344,32h-32.156l32,32H416v288H248.563l-32,32H448V96H261.969z
	 M71.438,416H32v-39.438l-32-32V448h103.438L71.438,416z"/>
<g>
</g>
<g>
</g>
<g>
</g>
<g>
</g>
<g>
</g>
<g>
</g>
</svg>
