<svg xmlns="http://www.w3.org/2000/svg" viewBox="0 0 448 448" enable-background="new 0 0 448 448"><path d="M208 416c-114.687 0-208-93.312-208-208s93.313-208 208-208 208 93.313 208 208-93.312 208-208 208zm0-384c-97.047 0-176 78.953-176 176 0 97.031 78.953 176 176 176 97.031 0 176-78.969 176-176 0-97.047-78.969-176-176-176zm115.313 83.313l-22.625-22.625-92.688 92.687-92.688-92.688-22.625 22.625 92.688 92.688-92.688 92.688 22.625 22.625 92.688-92.688 92.688 92.688 22.625-22.625-92.688-92.688 92.688-92.687z"/></svg>