<svg xmlns="http://www.w3.org/2000/svg" viewBox="0 0 448 448" enable-background="new 0 0 448 448"><path d="M288 64v-32c0-17.6-14.4-32-32-32h-96c-17.6 0-32 14.4-32 32v32h-96v32h32v320c0 17.6 14.4 32 32 32h224c17.6 0 32-14.4 32-32v-320h32v-32h-96zm-128-32h96v32h-96v-32zm160 384h-224v-320h224v320zm-180.8-96h137.5c10 0 19.1-5.5 23.9-14.3 4.8-8.9 4.4-19.7-1.2-28.2l-68.8-105.1c-5.1-7.7-13.5-12.3-22.7-12.3s-17.7 4.6-22.7 12.3l-68.8 105.1c-5.6 8.5-6 19.3-1.2 28.2 4.9 8.8 14.1 14.3 24 14.3zm68.8-123.9l60.1 91.9h-120.2l60.1-91.9z"/></svg>