<svg xmlns="http://www.w3.org/2000/svg" viewBox="0 0 448 448" enable-background="new 0 0 448 448"><path d="M422.844 293.656h-32v-15.063c0-24.391-17.438-44.234-38.844-44.234s-38.844 19.844-38.844 44.234v15.063h-32v-15.063c0-42.031 31.781-76.234 70.844-76.234s70.844 34.203 70.844 76.234v15.063zm-6.844-293.656v160h-32v-110.732c-107.771 39.027-160 167.035-160 279.505v119.227h-32v-118.715c0-113.021-52.076-241.129-160-280.092v110.807h-32v-160h160v32h-88.35c70.291 37.506 114.705 109.82 136.412 188.391 21.698-78.489 66.129-150.864 136.471-188.391h-88.533v-32h160zm0 320h-128v96h128v-96m32-32v160h-192v-160h192z"/></svg>