<svg xmlns="http://www.w3.org/2000/svg" viewBox="0 0 448 448" enable-background="new 0 0 448 448"><path d="M96 305.936v-153.086c33.492-7.361 58.672-37.182 58.672-72.85 0-41.172-33.5-74.672-74.672-74.672s-74.672 33.5-74.672 74.672c0 35.668 25.18 65.488 58.672 72.85v153.086c-32 7.318-56 35.892-56 70.064 0 39.688 32.297 72 72 72s72-32.313 72-72c0-34.172-24-62.746-56-70.064zm-53.328-225.936c0-20.578 16.75-37.328 37.328-37.328s37.328 16.75 37.328 37.328-16.75 37.328-37.328 37.328-37.328-16.75-37.328-37.328zm37.328 336c-22.063 0-40-17.938-40-40s17.938-40 40-40 40 17.938 40 40-17.937 40-40 40zm304-110.062v-129.938c0-44.109-35.875-80-80-80h-52.969l60.688-60.688-22.625-22.625-99.313 99.313 99.313 99.313 22.625-22.625-60.688-60.688h52.969c26.469 0 48 21.531 48 48v129.938c-31.992 7.318-56 35.891-56 70.063 0 39.688 32.313 72 72 72s72-32.313 72-72c0-34.173-24.008-62.747-56-70.063zm-16 110.062c-22.063 0-40-17.938-40-40s17.938-40 40-40 40 17.938 40 40-17.937 40-40 40z"/></svg>