<svg xmlns="http://www.w3.org/2000/svg" viewBox="0 0 448 448"><path d="M441.61 268.637c4.884-6.237 9.026-19.413 3.19-44.637l-52.9-161.968c-5.933-17.95-22.69-30.032-41.646-30.032h-350.254v256s151.764-.36 152.124 0l124.133 126.518c9.352 8.787 21.246 17.998 36.97 17.998 14.435 0 33.2-8.992 38.567-34.332 3.923-18.563-3.484-51.357-24.918-75.63-3.704-4.19-6.653-14.735-9.51-24.92-.815-2.84-1.63-6.777-2.447-9.633h91.035c9.572 0 23.538-2.46 35.65-19.36zm-26.11-18.72c-2.23 3.107-5.712 6.083-9.54 6.083h-123.81c-7.488 4.348-7.395 14.65-.966 33.082 6.857 19.657 9.56 41.095 21.59 54.73 15.124 17.138 19.34 39.385 17.575 47.7-2.737 12.88-10.34 10.61-21.375.283l-124.132-124.13c-8.3-8.302-19.33-11.665-31.07-11.665h-15.232l-.54-192h222.255c5.083 0 9.57 3.367 11.172 8.2l55.703 167.094c1.225 3.64.628 7.516-1.63 10.623z"/></svg>