<svg xmlns="http://www.w3.org/2000/svg" viewBox="0 0 448 448"><path d="M304.03 304c0 29.906-11.655 58.03-32.843 79.188-21.156 21.188-49.28 32.844-79.188 32.844s-58.035-11.656-79.19-32.844l22.623-22.625c30.25 30.25 82.875 30.25 113.125 0 15.125-15.125 23.47-35.22 23.47-56.563s-8.345-41.438-23.47-56.563c-30.25-30.25-82.875-30.25-113.125 0l-22.625-22.625c42.315-42.344 116.065-42.344 158.377 0 21.19 21.157 32.845 49.282 32.845 79.188zm60.39-157.654c-8.873-61.98-62.313-109.776-126.705-109.776-42.64 0-82.17 21.754-105.656 56.28-5.87-.948-11.8-1.423-17.777-1.423-63.014 0-114.282 51.27-114.282 114.286 0 63.017 51.268 114.287 114.285 114.287h32.652c6.61 18.6 24.193 32 45.063 32 26.51 0 48-21.49 48-48s-21.49-48-48-48c-20.87 0-38.45 13.4-45.063 32h-32.652c-45.445 0-82.285-36.842-82.285-82.287 0-45.443 36.84-82.285 82.285-82.285 12.094 0 23.49 2.762 33.832 7.447 13.682-36.33 48.496-62.305 89.61-62.305 53.02 0 96 42.982 96 96l.065 13.7 27.35-.063c30.3 0 54.857 24.646 54.857 54.945.001 30.298-24.559 54.848-54.859 54.848h-25.078l-.062 32h25.143c47.892 0 86.857-38.965 86.857-86.857 0-46.797-37.197-85.07-83.58-86.797z"/></svg>