<svg xmlns="http://www.w3.org/2000/svg" viewBox="0 0 448 448"><path d="M324.6 96c20.62-31.512 8.643-56.47.744-67.297-7.97-10.938-21.5-18.47-37.094-20.672-17.375-2.45-35.094 1.988-48.375 12.27-11.705 9.066-23.11 29.865-31.877 49.05-8.77-19.187-20.184-39.99-31.904-49.065-13.688-10.598-32.594-15.098-50.564-12.191-15.218 2.53-28.093 10.28-35.343 21.265-5.667 8.648-18.33 34.687 1.75 66.64h-91.937v352h416v-352h-91.4zm-65.13-50.406c6.468-4.984 15.155-7.11 24.312-5.89 6.875.983 12.906 4 15.72 7.858 9.905 13.563 4.155 29.844-17.064 48.438h-51.156c9.5-22.828 20.937-44.78 28.187-50.406zm-142.532 1.344c2.25-3.438 7.563-6.234 13.844-7.28 9.5-1.485 18.97.702 25.72 5.92 7.28 5.626 18.718 27.595 28.218 50.423h-51.125c-14.97-13.263-28.19-31.513-16.657-49.06zm75.062 369.062h-160v-128h160v128zm0-160h-160v-128h160v128zm192 160h-160v-128h160v128zm0-160h-160v-128h160v128z"/></svg>