<svg xmlns="http://www.w3.org/2000/svg" viewBox="0 0 448 448"><path d="M96 305.814V150.186c32.023-7.298 56-35.985 56-70.186 0-39.7-32.3-72-72-72S8 40.3 8 80c0 34.2 23.977 62.888 56 70.186v155.628C31.977 313.112 8 341.8 8 376c0 39.7 32.3 72 72 72s72-32.3 72-72c0-34.2-23.977-62.888-56-70.186zM40 80c0-22.056 17.944-40 40-40s40 17.944 40 40-17.944 40-40 40-40-17.944-40-40zm40 336c-22.056 0-40-17.944-40-40s17.944-40 40-40 40 17.944 40 40-17.944 40-40 40zm304-110.186V176c0-44.112-35.888-80-80-80h-52.97l60.687-60.687-22.627-22.626L189.776 112l99.314 99.313 22.627-22.627L251.03 128H304c26.467 0 48 21.533 48 48v129.814c-32.023 7.298-56 35.985-56 70.186 0 39.7 32.3 72 72 72s72-32.3 72-72c0-34.2-23.977-62.888-56-70.186zM368 416c-22.056 0-40-17.944-40-40s17.944-40 40-40 40 17.944 40 40-17.944 40-40 40z"/></svg>