<svg xmlns="http://www.w3.org/2000/svg" viewBox="0 0 448 448"><path d="M376 80c0-39.7-32.3-72-72-72s-72 32.3-72 72c0 34.2 23.977 62.888 56 70.186v9.814h32v-9.814c32.023-7.298 56-35.985 56-70.186zm-72 40c-22.056 0-40-17.944-40-40s17.944-40 40-40 40 17.944 40 40-17.944 40-40 40zm-80 168v-32h-96v-105.814c32.023-7.298 56-35.985 56-70.186 0-39.7-32.3-72-72-72s-72 32.3-72 72c0 34.2 23.977 62.888 56 70.186v155.628c-32.023 7.298-56 35.986-56 70.186 0 39.7 32.3 72 72 72s72-32.3 72-72c0-34.2-23.977-62.888-56-70.186v-17.814h96zm-152-208c0-22.056 17.944-40 40-40s40 17.944 40 40-17.944 40-40 40-40-17.944-40-40zm80 296c0 22.056-17.944 40-40 40s-40-17.944-40-40 17.944-40 40-40 40 17.944 40 40zm264-88v-9.41c0-20.103-5.632-38.648-15.86-52.223-11.667-15.486-28.764-24.015-48.14-24.015s-36.473 8.53-48.14 24.015c-10.23 13.573-15.86 32.12-15.86 52.223v9.41h-32v160h192v-160h-32zm-96-9.41c0-22.02 9.895-44.238 32-44.238s32 22.22 32 44.237v9.411h-64v-9.41zm96 137.41h-128v-96h128v96z"/></svg>