<svg xmlns="http://www.w3.org/2000/svg" viewBox="0 0 448 448"><path d="M376 80c0-39.7-32.3-72-72-72s-72 32.3-72 72c0 34.2 23.977 62.888 56 70.186v41.814l.04 1.138c.023.32 1.81 32.43-14.91 50.384-7.82 8.396-18.656 12.478-33.13 12.478h-112v-105.814c32.023-7.298 56-35.985 56-70.186 0-39.7-32.3-72-72-72s-72 32.3-72 72c0 34.2 23.977 62.888 56 70.186v155.628c-32.023 7.298-56 35.986-56 70.186 0 39.7 32.3 72 72 72s72-32.3 72-72c0-34.2-23.977-62.888-56-70.186v-17.814h112c23.514 0 42.54-7.627 56.55-22.67 24.94-26.783 23.765-67.834 23.45-73.797v-41.347c32.023-7.298 56-35.985 56-70.186zm-304 0c0-22.056 17.944-40 40-40s40 17.944 40 40-17.944 40-40 40-40-17.944-40-40zm80 296c0 22.056-17.944 40-40 40s-40-17.944-40-40 17.944-40 40-40 40 17.944 40 40zm112-296c0-22.056 17.944-40 40-40s40 17.944 40 40-17.944 40-40 40-40-17.944-40-40z"/></svg>