<svg xmlns="http://www.w3.org/2000/svg" viewBox="0 0 448 448"><style>.st0{fill:#101010;}</style><path class="st0" d="M364.305 167.757c21.038-16.312 34.6-41.925 34.6-70.538 0-49.145-39.968-89.168-89.124-89.168-49.12 0-89.09 39.94-89.09 89.082 0 28.61 13.56 54.315 34.586 70.627-21.528 11.224-39.187 28.82-50.43 50.36-16.312-21.076-41.844-34.67-70.5-34.67-49.14 0-89.11 39.97-89.11 89.11 0 28.61 13.562 54.113 34.593 70.425-37.893 19.755-63.83 59.41-63.83 105.015h32c0-47.625 38.734-86.344 86.344-86.344s86.344 38.72 86.344 86.344h32c0-45.602-25.936-85.26-63.827-105.013 20.928-16.23 34.45-41.554 34.59-69.987h.006c0-48 38.734-86.36 86.328-86.36 47.626 0 86.345 38.36 86.345 86.36h32c0-46-25.934-85.488-63.82-105.243zm-229.96 161.9c-31.485 0-57.11-25.626-57.11-57.095 0-31.484 25.625-57.11 57.11-57.11s57.108 25.626 57.108 57.11c0 31.47-25.625 57.094-57.11 57.094zm175.435-175.455c-31.468 0-57.093-25.61-57.093-57.094s25.626-57.108 57.093-57.108c31.5 0 57.126 25.625 57.126 57.11s-25.625 57.093-57.125 57.093z"/></svg>