<svg xmlns="http://www.w3.org/2000/svg" viewBox="0 0 448 448"><path d="M288 173.285v-92.752c19.94-15.09 32-39.035 32-64.533v-16h-224v16c0 25.498 12.06 49.443 32 64.533v92.75c-39.233 18.32-64 55.967-64 98.717v16h128v128l16 32 16-32v-128h128v-16c0-42.75-24.767-80.398-64-98.715zm-190.364 82.715c5.455-26.066 24.244-47.156 51.723-56.924l10.64-3.783v-132.493l-7.955-4.63c-9.937-5.78-17.483-15.29-21.292-26.17h154.49c-3.81 10.878-11.354 20.388-21.293 26.17l-7.949 4.63v132.493l10.64 3.783c27.48 9.77 46.27 30.858 51.724 56.924h-220.728z"/></svg>