<svg xmlns="http://www.w3.org/2000/svg" viewBox="0 0 448 448"><path d="M237.754 96c53.174 0 96.28 43.876 96.28 98v14h27.51c30.387 0 55.018 25.07 55.018 56 0 30.927-24.63 56-55.018 56h-247.58c-45.577 0-82.525-37.608-82.525-84s36.944-84 82.522-84c12.13 0 23.558 2.818 33.93 7.602 13.727-37.087 48.629-63.602 89.865-63.602m0-32c-42.685 0-82.252 22.244-105.658 57.51-5.985-1.005-12.036-1.51-18.132-1.51-62.84 0-113.966 52.037-113.966 116s51.125 116 113.965 116h247.58c47.67 0 86.455-39.476 86.455-88 0-47.6-37.32-86.493-83.74-87.957-8.617-63.217-62.064-112.043-126.506-112.043z"/></svg>