<svg xmlns="http://www.w3.org/2000/svg" viewBox="0 0 448 448"><title>Untitled-1</title><path d="M256.184 144.212a118.69 118.69 0 0 1 27.316 20.288c39.376 39.376 44.93 97.88 12.4 130.41l-131.9 131.907c-32.53 32.53-91.036 26.975-130.41-12.4s-44.938-97.88-12.407-130.417l65.68-65.68a132.447 132.447 0 0 0 6.19 41.415l-48.068 48.072c-19.41 19.41-13.853 56.553 12.4 82.807s63.4 31.81 82.807 12.4l131.908-131.914c19.41-19.41 13.853-56.553-12.4-82.807a83.314 83.314 0 0 0-28.837-18.767zm-39.05 134.258a83.314 83.314 0 0 1-28.834-18.77c-26.254-26.254-31.81-63.4-12.4-82.807l131.91-131.91c19.41-19.41 56.553-13.853 82.807 12.4s31.81 63.4 12.4 82.807l-48.067 48.067a132.447 132.447 0 0 1 6.19 41.414l65.676-65.671c32.53-32.53 26.975-91.036-12.4-130.41s-97.88-44.938-130.416-12.407l-131.91 131.91c-32.53 32.53-26.975 91.036 12.4 130.41a118.69 118.69 0 0 0 27.32 20.284z"/></svg>