<svg xmlns="http://www.w3.org/2000/svg" viewBox="0 0 448 448" enable-background="new 0 0 448 448"><path d="M272.581 448.435h-97.175l-11.09-66.542c-1.599-.498-3.262-1.077-4.973-1.786-1.717-.711-3.309-1.48-4.797-2.261l-54.893 39.207-68.712-68.718 39.565-55.387c-1.356-3.021-2.624-6.081-3.801-9.174l-67.14-11.193v-97.175l66.541-11.09c.499-1.599 1.079-3.263 1.787-4.973.711-1.717 1.48-3.309 2.261-4.796l-39.211-54.894 68.721-68.712 55.387 39.565c3.021-1.356 6.082-2.625 9.175-3.801l11.193-67.14h97.174l11.09 66.542c1.6.499 3.263 1.079 4.974 1.787 1.717.711 3.309 1.48 4.797 2.261l54.893-39.208 68.713 68.717-39.565 55.387c1.356 3.02 2.624 6.082 3.801 9.175l67.14 11.193v97.174l-66.542 11.09c-.498 1.6-1.077 3.263-1.786 4.974-.712 1.719-1.481 3.31-2.263 4.798l39.209 54.891-68.717 68.714-55.388-39.565c-3.021 1.356-6.081 2.624-9.174 3.801l-11.194 67.139zm-69.331-32.87h41.487l9.883-59.273 9.65-3.013c7.902-2.468 15.314-5.538 22.66-9.388l8.955-4.693 48.898 34.93 29.337-29.335-34.969-48.956 4.689-8.952c.951-1.818 1.9-3.445 2.817-5.02 1.268-2.176 2.363-4.056 3.081-5.788.715-1.727 1.269-3.831 1.911-6.268.461-1.753.938-3.564 1.546-5.512l3.011-9.655 59.357-9.893v-41.488l-59.276-9.882-3.012-9.652c-2.432-7.792-5.589-15.415-9.386-22.659l-4.693-8.955 34.93-48.898-29.336-29.337-48.962 34.972-8.956-4.695c-1.81-.949-3.432-1.895-5-2.809-2.178-1.27-4.06-2.367-5.789-3.083l-.001-.001c-1.741-.721-3.854-1.277-6.3-1.921-1.742-.459-3.543-.934-5.477-1.535l-9.664-3.007-9.894-59.364h-41.488l-9.882 59.275-9.652 3.012c-7.792 2.432-15.416 5.59-22.66 9.387l-8.955 4.693-48.899-34.93-29.339 29.335 34.975 48.964-4.696 8.956c-.949 1.81-1.894 3.431-2.809 5-1.271 2.178-2.367 4.06-3.083 5.79-.721 1.741-1.278 3.854-1.922 6.301-.458 1.741-.933 3.541-1.534 5.474l-3.007 9.666-59.365 9.894v41.487l59.275 9.883 3.012 9.651c2.466 7.901 5.537 15.313 9.387 22.659l4.693 8.955-34.93 48.898 29.336 29.337 48.963-34.972 8.955 4.695c1.81.949 3.432 1.895 5 2.809 2.179 1.271 4.06 2.367 5.792 3.085 1.732.717 3.837 1.271 6.274 1.913 1.752.461 3.563.938 5.511 1.546l9.656 3.011 9.895 59.356zm20.75-109.393c-45.31 0-82.172-36.862-82.172-82.172 0-45.31 36.862-82.172 82.172-82.172 45.31 0 82.172 36.862 82.172 82.172 0 45.31-36.862 82.172-82.172 82.172zm0-131.475c-27.186 0-49.303 22.117-49.303 49.303 0 27.186 22.117 49.303 49.303 49.303 27.186 0 49.303-22.117 49.303-49.303 0-27.186-22.117-49.303-49.303-49.303z"/></svg>