<svg xmlns="http://www.w3.org/2000/svg" viewBox="0 0 448 448" enable-background="new 0 0 448 448"><path d="M440.603 217.125c-19.23-40.415-49.26-74.62-86.841-98.916-38.665-24.996-83.536-38.209-129.762-38.209s-91.097 13.213-129.762 38.21c-37.581 24.296-67.61 58.5-86.84 98.916l-3.271 6.874 3.271 6.875c19.23 40.414 49.259 74.619 86.84 98.915 38.665 24.997 83.536 38.21 129.762 38.21s91.097-13.213 129.762-38.21c37.581-24.296 67.61-58.501 86.841-98.915l3.271-6.875-3.271-6.875zm-216.603 118.875c-77.109 0-148.609-43.714-184.277-112 25.054-47.966 67.789-83.807 117.728-100.891-14.835 14.484-25.006 33.759-28.084 55.328 5.227-11.77 16.926-20.037 30.633-20.037 18.557 0 33.6 15.043 33.6 33.6s-15.043 33.6-33.6 33.6c-13.707 0-25.406-8.268-30.633-20.037 6.641 46.537 46.26 82.437 94.633 82.437 53.02 0 96-42.98 96-96 0-26.944-11.105-51.291-28.982-68.727 49.737 17.147 92.284 52.911 117.26 100.727-35.669 68.286-107.169 112-184.278 112z"/></svg>