<svg xmlns="http://www.w3.org/2000/svg" viewBox="0 0 24 24" enable-background="new 0 0 24 24"><path d="M22 18.064v-12.375c0-2.15-1.539-3.689-3.689-3.689h-12.374c-2.15 0-3.937 1.539-3.937 3.689v12.374c0 2.151 1.787 3.937 3.937 3.937h12.374c2.15 0 3.689-1.786 3.689-3.936zm-2-14.064v3h-3v-3h3zm-10.754 5.806c.646-.894 1.694-1.48 2.879-1.48 1.184 0 2.233.586 2.878 1.481.419.583.671 1.296.671 2.069 0 1.958-1.595 3.55-3.551 3.55-1.957 0-3.551-1.593-3.549-3.551.002-.773.252-1.486.672-2.069zm-3.31 10.194c-1.066 0-1.936-.869-1.936-1.936v-8.064h3.014c-.26 1-.406 1.241-.406 1.972 0 3.041 2.474 5.468 5.516 5.468s5.516-2.403 5.516-5.444c0-.731-.148-.997-.41-1.997h2.77v8.064c0 1.068-.625 1.937-1.69 1.937h-12.374z"/></svg>