<svg xmlns="http://www.w3.org/2000/svg" viewBox="0 0 24 24" enable-background="new 0 0 24 24"><path d="M22 12l-.017-.338c-.18-5.365-4.574-9.662-9.983-9.662-5.523 0-10 4.477-10 10 0 .292.017.579.043.862.022.257.059.511.1.76l.003.025c.699 4.203 4.009 7.511 8.214 8.207l.029.004c.248.04.498.075.752.098.284.027.569.044.859.044.331 0 .657-.018.978-.049 5.064-.492 9.022-4.758 9.022-9.951zm-5.759-2.374c1.038-.162 2.135-.439 3.309-.862.427.993.664 2.087.664 3.237l-.027.534c-1.483.646-2.817 1.031-4.068 1.233.158-.875.239-1.706.23-2.49-.005-.573-.049-1.118-.108-1.652zm2.543-2.255c-.981.338-1.906.572-2.787.709-.306-1.473-.787-2.741-1.31-3.835 1.68.581 3.112 1.685 4.097 3.126zm-6.784 12.843c-.243 0-.483-.015-.72-.036-.718-1.595-1.268-3.178-1.611-4.722.748.074 1.523.123 2.323.131l.576.003c.497 0 .999-.014 1.505-.039-.437 1.416-1.084 2.967-1.932 4.657l-.141.006zm.008-6.184c-.908-.01-1.783-.077-2.626-.176-.12-.871-.184-1.727-.176-2.56.006-.552.045-1.08.096-1.593.861.098 1.758.162 2.688.172l.576.004c.698 0 1.403-.022 2.125-.078.054.486.095.979.101 1.496.008.825-.098 1.717-.299 2.67-.833.058-1.653.069-2.485.065zm-.008-10.244c.236 0 .467.016.698.035.668 1.159 1.348 2.637 1.744 4.439-.816.056-1.618.063-2.433.056-.857-.01-1.687-.068-2.485-.158.333-1.737.883-3.164 1.43-4.298.343-.044.69-.074 1.046-.074zm-2.976.564c-.414 1.033-.794 2.22-1.046 3.583-.988-.171-1.892-.389-2.718-.622.925-1.328 2.234-2.365 3.764-2.961zm-5.238 7.65c0-1.17.248-2.281.689-3.29.979.289 2.069.563 3.285.77-.06.579-.103 1.172-.11 1.797-.008.765.049 1.547.141 2.338-1.537-.279-2.866-.663-3.976-1.039-.014-.191-.029-.381-.029-.576zm.337 2.321c1.14.349 2.446.684 3.92.921.294 1.496.774 3.023 1.402 4.562-2.557-.837-4.559-2.892-5.322-5.483zm9.854 5.644c.78-1.638 1.381-3.164 1.769-4.562 1.276-.165 2.635-.49 4.122-1.049-.826 2.766-3.072 4.913-5.891 5.611z"/></svg>