<svg xmlns="http://www.w3.org/2000/svg" viewBox="0 0 24 24" enable-background="new 0 0 24 24"><path d="M20.439 4.222c-.128-.18-.285-.331-.46-.466-.385-.3-.819-.514-1.269-.696-.957-.386-1.955-.613-2.968-.776-1.236-.198-2.482-.276-3.792-.284-1.17.01-2.397.084-3.614.274-.864.136-1.718.319-2.547.6-.549.187-1.08.41-1.564.735-.23.154-.443.329-.616.549-.217.277-.31.585-.254.934.109.689.21 1.379.324 2.066.167 1.017.339 2.034.512 3.048.193 1.128.391 2.256.58 3.384.044.263.155.485.332.675.113.122.234.238.362.343.461.371.986.636 1.535.854 1.314.524 2.689.761 4.094.838 1.02.057 2.039.021 3.054-.118.864-.117 1.71-.302 2.532-.598.609-.22 1.194-.489 1.72-.872.224-.164.431-.345.597-.569.114-.15.193-.318.223-.508.251-1.478.511-2.954.755-4.432.229-1.371.443-2.744.668-4.115.054-.318-.019-.604-.204-.866zm-8.452 10.176c-1.515-.005-2.74-1.244-2.735-2.767.004-1.521 1.236-2.744 2.758-2.739 1.531.005 2.752 1.238 2.746 2.769-.007 1.515-1.25 2.743-2.769 2.737zm5.493-9.624c-.078.088-.173.165-.275.225-.284.169-.6.258-.918.342-.601.153-1.214.242-1.828.306-.809.086-1.619.116-2.393.119-.941-.005-1.84-.043-2.735-.15-.672-.081-1.341-.184-1.986-.4-.191-.066-.377-.149-.557-.241-.093-.045-.174-.117-.244-.192-.124-.135-.124-.284.003-.418.074-.079.164-.146.257-.199.268-.156.562-.246.858-.324.621-.162 1.253-.254 1.89-.321 1.043-.107 2.088-.14 3.136-.109.962.028 1.922.1 2.872.272.446.08.888.173 1.31.344.149.061.292.137.431.218.069.04.131.104.182.168.09.116.093.251-.003.36zm1.051 11.595l-.013.171c-.193 1.013-.388 2.023-.575 3.037-.064.34-.217.625-.457.869-.266.273-.58.475-.914.646-.618.314-1.274.512-1.948.651-.869.181-1.749.261-2.249.257-1.521-.004-2.641-.125-3.735-.441-.506-.145-.996-.334-1.452-.602-.239-.14-.462-.302-.658-.498-.245-.247-.404-.534-.468-.881-.187-1.013-.384-2.025-.578-3.036l-.012-.155c.012-.249.234-.377.457-.267l.066.04c.741.538 1.568.898 2.436 1.172.797.253 1.614.405 2.445.479.96.087 1.913.066 2.866-.069 1.263-.177 2.468-.537 3.59-1.153.223-.122.433-.271.647-.408l.105-.066c.215-.097.426.023.447.254zm-5.151-4.72c-.003.759-.626 1.379-1.387 1.375-.761-.003-1.375-.623-1.371-1.386.003-.765.619-1.377 1.384-1.373.763.003 1.376.619 1.374 1.384z"/></svg>