<svg xmlns="http://www.w3.org/2000/svg" viewBox="0 0 24 24" enable-background="new 0 0 24 24"><path d="M3.422 12c0 3.395 1.973 6.33 4.835 7.72l-4.093-11.212c-.476 1.067-.742 2.248-.742 3.492zm14.369-.433c0-1.061-.381-1.795-.707-2.366-.435-.707-.843-1.305-.843-2.012 0-.788.598-1.522 1.441-1.522l.111.007c-1.526-1.399-3.56-2.253-5.793-2.253-2.997 0-5.634 1.538-7.167 3.866l.552.01c.897 0 2.286-.109 2.286-.109.462-.027.517.652.055.707 0 0-.465.054-.982.082l3.124 9.292 1.878-5.63-1.336-3.662c-.462-.027-.9-.082-.9-.082-.463-.026-.409-.733.053-.706 0 0 1.416.109 2.259.109.897 0 2.286-.109 2.286-.109.462-.027.517.652.055.707 0 0-.465.054-.982.082l3.1 9.221.856-2.859c.372-1.187.654-2.039.654-2.773zm-5.641 1.183l-2.574 7.479c.769.226 1.581.35 2.424.35.999 0 1.957-.172 2.849-.486l-.061-.118-2.638-7.225zm7.377-4.866c.037.273.058.566.058.882 0 .87-.163 1.849-.652 3.073l-2.62 7.576c2.55-1.487 4.265-4.25 4.265-7.415 0-1.492-.381-2.894-1.051-4.116zm-7.527-5.884c-5.514 0-10 4.486-10 10s4.486 10 10 10 10-4.486 10-10-4.486-10-10-10zm0 19.541c-5.261 0-9.541-4.281-9.541-9.542s4.28-9.541 9.541-9.541 9.541 4.28 9.541 9.541c0 5.262-4.28 9.542-9.541 9.542z"/></svg>