<svg xmlns="http://www.w3.org/2000/svg" viewBox="0 0 24 24" enable-background="new 0 0 24 24"><path d="M20.991 8.142c-.08 1.756-1.304 4.159-3.671 7.211-2.447 3.187-4.518 4.781-6.212 4.781-1.049 0-1.937-.97-2.662-2.911l-1.453-5.338c-.539-1.94-1.116-2.911-1.734-2.911-.135 0-.606.284-1.413.849l-.846-1.094c.888-.782 1.765-1.564 2.627-2.347 1.185-1.026 2.074-1.565 2.667-1.62 1.401-.135 2.263.825 2.587 2.878.35 2.216.592 3.594.728 4.134.404 1.838.848 2.756 1.333 2.756.377 0 .943-.596 1.697-1.789.754-1.193 1.158-2.1 1.212-2.723.107-1.029-.296-1.545-1.212-1.545-.431 0-.875.099-1.332.296.885-2.903 2.575-4.313 5.07-4.233 1.849.055 2.721 1.257 2.614 3.606z"/></svg>