<svg xmlns="http://www.w3.org/2000/svg" viewBox="0 0 24 24" enable-background="new 0 0 24 24"><path d="M22 11.167h-2.083v-2.084h-1.667v2.083h-2.083v1.667h2.083v2.083h1.667v-2.083h2.083m-13.333-2.083v2.6h3.633c-.279 1.567-1.637 2.708-3.633 2.708-2.2 0-3.987-1.863-3.987-4.063s1.787-4.058 3.987-4.058c.992 0 1.879.342 2.579 1.008v.005l1.879-1.879c-1.154-1.075-2.658-1.738-4.458-1.738-3.684 0-6.667 2.984-6.667 6.667s2.983 6.667 6.667 6.667c3.85 0 6.4-2.708 6.4-6.517 0-.487-.046-.954-.129-1.4h-6.271z"/></svg>