<svg xmlns="http://www.w3.org/2000/svg" viewBox="0 0 24 24" enable-background="new 0 0 24 24"><path d="M20.534 14.324c-.841.19-1.685.271-2.388.273-1.674 3.538-4.695 6.559-5.702 7.131-.641.361-1.244.381-1.945-.04-1.24-.74-5.926-4.591-7.499-16.684h3.404c.856 7.261 2.942 10.982 5.249 13.771 1.272-1.272 2.491-2.961 3.449-4.878-2.279-1.156-3.661-3.694-3.661-6.65 0-2.984 1.722-5.247 4.666-5.247 2.864 0 4.426 1.782 4.426 4.847 0 1.139-.245 2.437-.697 3.439-2.126.416-2.904-.94-2.904-.94.16-.524.376-1.41.376-2.219 0-1.422-.521-2.123-1.302-2.123-.821 0-1.402.781-1.402 2.283 0 3.064 1.943 4.827 4.466 4.827.449 0 .947-.052 1.462-.171v2.381z"/></svg>